<?xml version="1.0" encoding="UTF-8" standalone="no"?>
<!DOCTYPE svg PUBLIC "-//W3C//DTD SVG 1.1//EN"
 "http://www.w3.org/Graphics/SVG/1.1/DTD/svg11.dtd">
<!-- Generated by graphviz version 2.36.0 (20140111.2315)
 -->
<!-- Title: config.h Pages: 1 -->
<svg width="281pt" height="84pt"
 viewBox="0.00 0.00 281.00 84.00" xmlns="http://www.w3.org/2000/svg" xmlns:xlink="http://www.w3.org/1999/xlink">
<g id="graph0" class="graph" transform="scale(1 1) rotate(0) translate(4 80)">
<title>config.h</title>
<polygon fill="white" stroke="none" points="-4,4 -4,-80 277,-80 277,4 -4,4"/>
<!-- Node1 -->
<g id="node1" class="node"><title>Node1</title>
<polygon fill="#bfbfbf" stroke="black" points="130.5,-56.5 130.5,-75.5 181.5,-75.5 181.5,-56.5 130.5,-56.5"/>
<text text-anchor="middle" x="156" y="-63.5" font-family="Helvetica,sans-Serif" font-size="10.00">config.h</text>
</g>
<!-- Node2 -->
<g id="node2" class="node"><title>Node2</title>
<g id="a_node2"><a xlink:href="lcd8bit_8c.html" target="_top" xlink:title="lcd8bit/lcd8bit.c">
<polygon fill="white" stroke="black" points="-0.5,-0.5 -0.5,-19.5 84.5,-19.5 84.5,-0.5 -0.5,-0.5"/>
<text text-anchor="middle" x="42" y="-7.5" font-family="Helvetica,sans-Serif" font-size="10.00">lcd8bit/lcd8bit.c</text>
</a>
</g>
</g>
<!-- Node1&#45;&gt;Node2 -->
<g id="edge1" class="edge"><title>Node1&#45;&gt;Node2</title>
<path fill="none" stroke="midnightblue" d="M128.758,-52.096C107.46,-42.0073 78.4583,-28.2697 59.9791,-19.5164"/>
<polygon fill="midnightblue" stroke="midnightblue" points="127.401,-55.3257 137.936,-56.4435 130.397,-48.9995 127.401,-55.3257"/>
</g>
<!-- Node3 -->
<g id="node3" class="node"><title>Node3</title>
<g id="a_node3"><a xlink:href="wavegen_8c.html" target="_top" xlink:title="wavegen/wavegen.c">
<polygon fill="white" stroke="black" points="103,-0.5 103,-19.5 209,-19.5 209,-0.5 103,-0.5"/>
<text text-anchor="middle" x="156" y="-7.5" font-family="Helvetica,sans-Serif" font-size="10.00">wavegen/wavegen.c</text>
</a>
</g>
</g>
<!-- Node1&#45;&gt;Node3 -->
<g id="edge2" class="edge"><title>Node1&#45;&gt;Node3</title>
<path fill="none" stroke="midnightblue" d="M156,-45.8045C156,-36.9102 156,-26.7798 156,-19.7511"/>
<polygon fill="midnightblue" stroke="midnightblue" points="152.5,-46.083 156,-56.083 159.5,-46.083 152.5,-46.083"/>
</g>
<!-- Node4 -->
<g id="node4" class="node"><title>Node4</title>
<g id="a_node4"><a xlink:href="main_8c.html" target="_top" xlink:title="main.c">
<polygon fill="white" stroke="black" points="227,-0.5 227,-19.5 273,-19.5 273,-0.5 227,-0.5"/>
<text text-anchor="middle" x="250" y="-7.5" font-family="Helvetica,sans-Serif" font-size="10.00">main.c</text>
</a>
</g>
</g>
<!-- Node1&#45;&gt;Node4 -->
<g id="edge3" class="edge"><title>Node1&#45;&gt;Node4</title>
<path fill="none" stroke="midnightblue" d="M180.062,-51.1774C197.359,-41.2407 220.148,-28.1492 234.935,-19.6545"/>
<polygon fill="midnightblue" stroke="midnightblue" points="178.03,-48.3078 171.103,-56.324 181.517,-54.3775 178.03,-48.3078"/>
</g>
</g>
</svg>
