<?xml version="1.0" encoding="UTF-8" standalone="no"?>
<!DOCTYPE svg PUBLIC "-//W3C//DTD SVG 1.1//EN"
 "http://www.w3.org/Graphics/SVG/1.1/DTD/svg11.dtd">
<!-- Generated by graphviz version 2.36.0 (20140111.2315)
 -->
<!-- Title: disk_read Pages: 1 -->
<svg width="482pt" height="211pt"
 viewBox="0.00 0.00 482.00 211.15" xmlns="http://www.w3.org/2000/svg" xmlns:xlink="http://www.w3.org/1999/xlink">
<g id="graph0" class="graph" transform="scale(1 1) rotate(0) translate(4 207.151)">
<title>disk_read</title>
<polygon fill="white" stroke="none" points="-4,4 -4,-207.151 478,-207.151 478,4 -4,4"/>
<!-- Node1 -->
<g id="node1" class="node"><title>Node1</title>
<polygon fill="#bfbfbf" stroke="black" points="0.5,-76.5 0.5,-95.5 59.5,-95.5 59.5,-76.5 0.5,-76.5"/>
<text text-anchor="middle" x="30" y="-83.5" font-family="Helvetica,sans-Serif" font-size="10.00">disk_read</text>
</g>
<!-- Node2 -->
<g id="node2" class="node"><title>Node2</title>
<g id="a_node2"><a xlink:href="sdmm_8c.html#ac0eadae94de728461ccade9e03fafd8c" target="_top" xlink:title="deselect">
<polygon fill="white" stroke="black" points="311.5,-171.5 311.5,-190.5 364.5,-190.5 364.5,-171.5 311.5,-171.5"/>
<text text-anchor="middle" x="338" y="-178.5" font-family="Helvetica,sans-Serif" font-size="10.00">deselect</text>
</a>
</g>
</g>
<!-- Node1&#45;&gt;Node2 -->
<g id="edge1" class="edge"><title>Node1&#45;&gt;Node2</title>
<path fill="none" stroke="midnightblue" d="M40.096,-95.5613C63.6747,-119.491 129.841,-181.312 200,-199 233.976,-207.566 273.78,-200.498 301.701,-192.847"/>
<polygon fill="midnightblue" stroke="midnightblue" points="302.787,-196.176 311.417,-190.03 300.838,-189.453 302.787,-196.176"/>
</g>
<!-- Node4 -->
<g id="node4" class="node"><title>Node4</title>
<g id="a_node4"><a xlink:href="sdmm_8c.html#a21ad8e9a107ea2000705a3edfebaaa2d" target="_top" xlink:title="disk_status">
<polygon fill="white" stroke="black" points="96.5,-0.5 96.5,-19.5 163.5,-19.5 163.5,-0.5 96.5,-0.5"/>
<text text-anchor="middle" x="130" y="-7.5" font-family="Helvetica,sans-Serif" font-size="10.00">disk_status</text>
</a>
</g>
</g>
<!-- Node1&#45;&gt;Node4 -->
<g id="edge3" class="edge"><title>Node1&#45;&gt;Node4</title>
<path fill="none" stroke="midnightblue" d="M42.8502,-76.2497C55.7812,-65.674 77.1579,-48.3765 96,-34 99.5481,-31.2928 103.348,-28.4645 107.062,-25.7388"/>
<polygon fill="midnightblue" stroke="midnightblue" points="109.38,-28.3811 115.41,-19.6699 105.263,-22.7193 109.38,-28.3811"/>
</g>
<!-- Node5 -->
<g id="node5" class="node"><title>Node5</title>
<g id="a_node5"><a xlink:href="sdmm_8c.html#a8c99afbc312912297b19752cf7e0960b" target="_top" xlink:title="rcvr_datablock">
<polygon fill="white" stroke="black" points="298,-0.5 298,-19.5 378,-19.5 378,-0.5 298,-0.5"/>
<text text-anchor="middle" x="338" y="-7.5" font-family="Helvetica,sans-Serif" font-size="10.00">rcvr_datablock</text>
</a>
</g>
</g>
<!-- Node1&#45;&gt;Node5 -->
<g id="edge4" class="edge"><title>Node1&#45;&gt;Node5</title>
<path fill="none" stroke="midnightblue" d="M59.513,-78.9184C111.903,-65.9064 224.014,-38.0619 288.552,-22.0329"/>
<polygon fill="midnightblue" stroke="midnightblue" points="289.623,-25.3732 298.485,-19.5659 287.936,-18.5796 289.623,-25.3732"/>
</g>
<!-- Node7 -->
<g id="node7" class="node"><title>Node7</title>
<g id="a_node7"><a xlink:href="sdmm_8c.html#a99684b493c8bfdb0288a2e24e52f6871" target="_top" xlink:title="send_cmd">
<polygon fill="white" stroke="black" points="99,-114.5 99,-133.5 161,-133.5 161,-114.5 99,-114.5"/>
<text text-anchor="middle" x="130" y="-121.5" font-family="Helvetica,sans-Serif" font-size="10.00">send_cmd</text>
</a>
</g>
</g>
<!-- Node1&#45;&gt;Node7 -->
<g id="edge7" class="edge"><title>Node1&#45;&gt;Node7</title>
<path fill="none" stroke="midnightblue" d="M55.7295,-95.589C67.568,-100.179 81.935,-105.75 94.8,-110.739"/>
<polygon fill="midnightblue" stroke="midnightblue" points="93.6894,-114.062 104.278,-114.414 96.2201,-107.535 93.6894,-114.062"/>
</g>
<!-- Node3 -->
<g id="node3" class="node"><title>Node3</title>
<g id="a_node3"><a xlink:href="sdmm_8c.html#ab628371b03508f9db7c6daf1203ed84d" target="_top" xlink:title="rcvr_mmc">
<polygon fill="white" stroke="black" points="414,-76.5 414,-95.5 474,-95.5 474,-76.5 414,-76.5"/>
<text text-anchor="middle" x="444" y="-83.5" font-family="Helvetica,sans-Serif" font-size="10.00">rcvr_mmc</text>
</a>
</g>
</g>
<!-- Node2&#45;&gt;Node3 -->
<g id="edge2" class="edge"><title>Node2&#45;&gt;Node3</title>
<path fill="none" stroke="midnightblue" d="M349.738,-171.191C367.501,-154.965 403.193,-122.362 424.905,-102.529"/>
<polygon fill="midnightblue" stroke="midnightblue" points="427.452,-104.943 432.475,-95.614 422.731,-99.7742 427.452,-104.943"/>
</g>
<!-- Node5&#45;&gt;Node3 -->
<g id="edge5" class="edge"><title>Node5&#45;&gt;Node3</title>
<path fill="none" stroke="midnightblue" d="M361.431,-19.6625C367.007,-22.4033 372.857,-25.5813 378,-29 395.636,-40.7226 413.577,-56.838 426.129,-68.9431"/>
<polygon fill="midnightblue" stroke="midnightblue" points="423.958,-71.7166 433.542,-76.2323 428.866,-66.7253 423.958,-71.7166"/>
</g>
<!-- Node6 -->
<g id="node6" class="node"><title>Node6</title>
<g id="a_node6"><a xlink:href="sdmm_8c.html#a76a43e01b9676630e121e5a659acbb3f" target="_top" xlink:title="dly_us">
<polygon fill="white" stroke="black" points="421.5,-19.5 421.5,-38.5 466.5,-38.5 466.5,-19.5 421.5,-19.5"/>
<text text-anchor="middle" x="444" y="-26.5" font-family="Helvetica,sans-Serif" font-size="10.00">dly_us</text>
</a>
</g>
</g>
<!-- Node5&#45;&gt;Node6 -->
<g id="edge6" class="edge"><title>Node5&#45;&gt;Node6</title>
<path fill="none" stroke="midnightblue" d="M378.022,-17.129C389.002,-19.1349 400.806,-21.2915 411.302,-23.209"/>
<polygon fill="midnightblue" stroke="midnightblue" points="410.816,-26.6781 421.282,-25.0323 412.074,-19.7921 410.816,-26.6781"/>
</g>
<!-- Node7&#45;&gt;Node2 -->
<g id="edge8" class="edge"><title>Node7&#45;&gt;Node2</title>
<path fill="none" stroke="midnightblue" d="M138.674,-133.586C150.261,-147.2 173.682,-171.535 200,-181 232.746,-192.776 272.811,-191.092 301.133,-187.486"/>
<polygon fill="midnightblue" stroke="midnightblue" points="301.963,-190.904 311.373,-186.034 300.981,-183.973 301.963,-190.904"/>
</g>
<!-- Node7&#45;&gt;Node3 -->
<g id="edge16" class="edge"><title>Node7&#45;&gt;Node3</title>
<path fill="none" stroke="midnightblue" d="M161.178,-122.193C207.859,-119.145 300.308,-112.1 378,-100 386.352,-98.6992 395.245,-96.9971 403.685,-95.2297"/>
<polygon fill="midnightblue" stroke="midnightblue" points="404.656,-98.6006 413.689,-93.064 403.175,-91.7591 404.656,-98.6006"/>
</g>
<!-- Node8 -->
<g id="node8" class="node"><title>Node8</title>
<g id="a_node8"><a xlink:href="sdmm_8c.html#ab45cb1d47cda5822ce492ad3c11867ae" target="_top" xlink:title="select">
<polygon fill="white" stroke="black" points="209.5,-76.5 209.5,-95.5 252.5,-95.5 252.5,-76.5 209.5,-76.5"/>
<text text-anchor="middle" x="231" y="-83.5" font-family="Helvetica,sans-Serif" font-size="10.00">select</text>
</a>
</g>
</g>
<!-- Node7&#45;&gt;Node8 -->
<g id="edge9" class="edge"><title>Node7&#45;&gt;Node8</title>
<path fill="none" stroke="midnightblue" d="M155.982,-114.411C169.257,-109.316 185.679,-103.012 199.68,-97.6381"/>
<polygon fill="midnightblue" stroke="midnightblue" points="201.285,-100.771 209.367,-93.9198 198.777,-94.2358 201.285,-100.771"/>
</g>
<!-- Node10 -->
<g id="node10" class="node"><title>Node10</title>
<g id="a_node10"><a xlink:href="sdmm_8c.html#ace0af708caf7775204ca74fbd46818bb" target="_top" xlink:title="xmit_mmc">
<polygon fill="white" stroke="black" points="200,-152.5 200,-171.5 262,-171.5 262,-152.5 200,-152.5"/>
<text text-anchor="middle" x="231" y="-159.5" font-family="Helvetica,sans-Serif" font-size="10.00">xmit_mmc</text>
</a>
</g>
</g>
<!-- Node7&#45;&gt;Node10 -->
<g id="edge15" class="edge"><title>Node7&#45;&gt;Node10</title>
<path fill="none" stroke="midnightblue" d="M155.982,-133.589C167.941,-138.179 182.455,-143.75 195.451,-148.739"/>
<polygon fill="midnightblue" stroke="midnightblue" points="194.436,-152.098 205.026,-152.414 196.944,-145.563 194.436,-152.098"/>
</g>
<!-- Node8&#45;&gt;Node2 -->
<g id="edge14" class="edge"><title>Node8&#45;&gt;Node2</title>
<path fill="none" stroke="midnightblue" d="M242.841,-95.8089C260.776,-112.035 296.811,-144.638 318.731,-164.471"/>
<polygon fill="midnightblue" stroke="midnightblue" points="316.61,-167.272 326.374,-171.386 321.307,-162.081 316.61,-167.272"/>
</g>
<!-- Node8&#45;&gt;Node3 -->
<g id="edge10" class="edge"><title>Node8&#45;&gt;Node3</title>
<path fill="none" stroke="midnightblue" d="M252.616,-86C287.56,-86 358.978,-86 403.721,-86"/>
<polygon fill="midnightblue" stroke="midnightblue" points="403.935,-89.5001 413.935,-86 403.935,-82.5001 403.935,-89.5001"/>
</g>
<!-- Node9 -->
<g id="node9" class="node"><title>Node9</title>
<g id="a_node9"><a xlink:href="sdmm_8c.html#a624a19e248af05530dae5c0cc1dddc11" target="_top" xlink:title="wait_ready">
<polygon fill="white" stroke="black" points="306,-38.5 306,-57.5 370,-57.5 370,-38.5 306,-38.5"/>
<text text-anchor="middle" x="338" y="-45.5" font-family="Helvetica,sans-Serif" font-size="10.00">wait_ready</text>
</a>
</g>
</g>
<!-- Node8&#45;&gt;Node9 -->
<g id="edge11" class="edge"><title>Node8&#45;&gt;Node9</title>
<path fill="none" stroke="midnightblue" d="M252.745,-78.4924C266.504,-73.5129 284.924,-66.8464 301.033,-61.0168"/>
<polygon fill="midnightblue" stroke="midnightblue" points="302.489,-64.212 310.701,-57.5178 300.107,-57.6298 302.489,-64.212"/>
</g>
<!-- Node9&#45;&gt;Node3 -->
<g id="edge12" class="edge"><title>Node9&#45;&gt;Node3</title>
<path fill="none" stroke="midnightblue" d="M365.244,-57.589C377.93,-62.2244 393.353,-67.8596 407.107,-72.8853"/>
<polygon fill="midnightblue" stroke="midnightblue" points="406.171,-76.2695 416.765,-76.4141 408.573,-69.6946 406.171,-76.2695"/>
</g>
<!-- Node9&#45;&gt;Node6 -->
<g id="edge13" class="edge"><title>Node9&#45;&gt;Node6</title>
<path fill="none" stroke="midnightblue" d="M370.203,-42.2994C383.234,-39.9189 398.35,-37.1573 411.42,-34.7695"/>
<polygon fill="midnightblue" stroke="midnightblue" points="412.176,-38.1893 421.384,-32.9491 410.918,-31.3033 412.176,-38.1893"/>
</g>
</g>
</svg>
