<?xml version="1.0" encoding="UTF-8" standalone="no"?>
<!DOCTYPE svg PUBLIC "-//W3C//DTD SVG 1.1//EN"
 "http://www.w3.org/Graphics/SVG/1.1/DTD/svg11.dtd">
<!-- Generated by graphviz version 2.36.0 (20140111.2315)
 -->
<!-- Title: disk_ioctl Pages: 1 -->
<svg width="480pt" height="211pt"
 viewBox="0.00 0.00 480.00 211.15" xmlns="http://www.w3.org/2000/svg" xmlns:xlink="http://www.w3.org/1999/xlink">
<g id="graph0" class="graph" transform="scale(1 1) rotate(0) translate(4 207.151)">
<title>disk_ioctl</title>
<polygon fill="white" stroke="none" points="-4,4 -4,-207.151 476,-207.151 476,4 -4,4"/>
<!-- Node1 -->
<g id="node1" class="node"><title>Node1</title>
<polygon fill="#bfbfbf" stroke="black" points="0,-76.5 0,-95.5 58,-95.5 58,-76.5 0,-76.5"/>
<text text-anchor="middle" x="29" y="-83.5" font-family="Helvetica,sans-Serif" font-size="10.00">disk_ioctl</text>
</g>
<!-- Node2 -->
<g id="node2" class="node"><title>Node2</title>
<g id="a_node2"><a xlink:href="sdmm_8c.html#ac0eadae94de728461ccade9e03fafd8c" target="_top" xlink:title="deselect">
<polygon fill="white" stroke="black" points="309.5,-171.5 309.5,-190.5 362.5,-190.5 362.5,-171.5 309.5,-171.5"/>
<text text-anchor="middle" x="336" y="-178.5" font-family="Helvetica,sans-Serif" font-size="10.00">deselect</text>
</a>
</g>
</g>
<!-- Node1&#45;&gt;Node2 -->
<g id="edge1" class="edge"><title>Node1&#45;&gt;Node2</title>
<path fill="none" stroke="midnightblue" d="M39.0269,-95.5699C62.4302,-119.52 128.128,-181.384 198,-199 231.976,-207.566 271.78,-200.498 299.701,-192.847"/>
<polygon fill="midnightblue" stroke="midnightblue" points="300.787,-196.176 309.417,-190.03 298.838,-189.453 300.787,-196.176"/>
</g>
<!-- Node4 -->
<g id="node4" class="node"><title>Node4</title>
<g id="a_node4"><a xlink:href="sdmm_8c.html#a21ad8e9a107ea2000705a3edfebaaa2d" target="_top" xlink:title="disk_status">
<polygon fill="white" stroke="black" points="94.5,-0.5 94.5,-19.5 161.5,-19.5 161.5,-0.5 94.5,-0.5"/>
<text text-anchor="middle" x="128" y="-7.5" font-family="Helvetica,sans-Serif" font-size="10.00">disk_status</text>
</a>
</g>
</g>
<!-- Node1&#45;&gt;Node4 -->
<g id="edge3" class="edge"><title>Node1&#45;&gt;Node4</title>
<path fill="none" stroke="midnightblue" d="M41.6448,-76.225C54.3571,-65.6281 75.3882,-48.3127 94,-34 97.5378,-31.2794 101.333,-28.4443 105.044,-25.7159"/>
<polygon fill="midnightblue" stroke="midnightblue" points="107.362,-28.3583 113.392,-19.6472 103.246,-22.6963 107.362,-28.3583"/>
</g>
<!-- Node5 -->
<g id="node5" class="node"><title>Node5</title>
<g id="a_node5"><a xlink:href="sdmm_8c.html#a8c99afbc312912297b19752cf7e0960b" target="_top" xlink:title="rcvr_datablock">
<polygon fill="white" stroke="black" points="296,-0.5 296,-19.5 376,-19.5 376,-0.5 296,-0.5"/>
<text text-anchor="middle" x="336" y="-7.5" font-family="Helvetica,sans-Serif" font-size="10.00">rcvr_datablock</text>
</a>
</g>
</g>
<!-- Node1&#45;&gt;Node5 -->
<g id="edge4" class="edge"><title>Node1&#45;&gt;Node5</title>
<path fill="none" stroke="midnightblue" d="M58.147,-78.9863C110.221,-66.0106 222.15,-38.1201 286.605,-22.059"/>
<polygon fill="midnightblue" stroke="midnightblue" points="287.669,-25.401 296.526,-19.5869 285.976,-18.6087 287.669,-25.401"/>
</g>
<!-- Node7 -->
<g id="node7" class="node"><title>Node7</title>
<g id="a_node7"><a xlink:href="sdmm_8c.html#ab45cb1d47cda5822ce492ad3c11867ae" target="_top" xlink:title="select">
<polygon fill="white" stroke="black" points="207.5,-76.5 207.5,-95.5 250.5,-95.5 250.5,-76.5 207.5,-76.5"/>
<text text-anchor="middle" x="229" y="-83.5" font-family="Helvetica,sans-Serif" font-size="10.00">select</text>
</a>
</g>
</g>
<!-- Node1&#45;&gt;Node7 -->
<g id="edge7" class="edge"><title>Node1&#45;&gt;Node7</title>
<path fill="none" stroke="midnightblue" d="M58.3686,-86C95.0598,-86 158.759,-86 196.787,-86"/>
<polygon fill="midnightblue" stroke="midnightblue" points="197.247,-89.5001 207.247,-86 197.247,-82.5001 197.247,-89.5001"/>
</g>
<!-- Node9 -->
<g id="node9" class="node"><title>Node9</title>
<g id="a_node9"><a xlink:href="sdmm_8c.html#a99684b493c8bfdb0288a2e24e52f6871" target="_top" xlink:title="send_cmd">
<polygon fill="white" stroke="black" points="97,-114.5 97,-133.5 159,-133.5 159,-114.5 97,-114.5"/>
<text text-anchor="middle" x="128" y="-121.5" font-family="Helvetica,sans-Serif" font-size="10.00">send_cmd</text>
</a>
</g>
</g>
<!-- Node1&#45;&gt;Node9 -->
<g id="edge13" class="edge"><title>Node1&#45;&gt;Node9</title>
<path fill="none" stroke="midnightblue" d="M54.4772,-95.589C66.1948,-100.179 80.4153,-105.75 93.149,-110.739"/>
<polygon fill="midnightblue" stroke="midnightblue" points="91.9429,-114.025 102.531,-114.414 94.4963,-107.508 91.9429,-114.025"/>
</g>
<!-- Node3 -->
<g id="node3" class="node"><title>Node3</title>
<g id="a_node3"><a xlink:href="sdmm_8c.html#ab628371b03508f9db7c6daf1203ed84d" target="_top" xlink:title="rcvr_mmc">
<polygon fill="white" stroke="black" points="412,-76.5 412,-95.5 472,-95.5 472,-76.5 412,-76.5"/>
<text text-anchor="middle" x="442" y="-83.5" font-family="Helvetica,sans-Serif" font-size="10.00">rcvr_mmc</text>
</a>
</g>
</g>
<!-- Node2&#45;&gt;Node3 -->
<g id="edge2" class="edge"><title>Node2&#45;&gt;Node3</title>
<path fill="none" stroke="midnightblue" d="M347.738,-171.191C365.501,-154.965 401.193,-122.362 422.905,-102.529"/>
<polygon fill="midnightblue" stroke="midnightblue" points="425.452,-104.943 430.475,-95.614 420.731,-99.7742 425.452,-104.943"/>
</g>
<!-- Node5&#45;&gt;Node3 -->
<g id="edge5" class="edge"><title>Node5&#45;&gt;Node3</title>
<path fill="none" stroke="midnightblue" d="M359.431,-19.6625C365.007,-22.4033 370.857,-25.5813 376,-29 393.636,-40.7226 411.577,-56.838 424.129,-68.9431"/>
<polygon fill="midnightblue" stroke="midnightblue" points="421.958,-71.7166 431.542,-76.2323 426.866,-66.7253 421.958,-71.7166"/>
</g>
<!-- Node6 -->
<g id="node6" class="node"><title>Node6</title>
<g id="a_node6"><a xlink:href="sdmm_8c.html#a76a43e01b9676630e121e5a659acbb3f" target="_top" xlink:title="dly_us">
<polygon fill="white" stroke="black" points="419.5,-19.5 419.5,-38.5 464.5,-38.5 464.5,-19.5 419.5,-19.5"/>
<text text-anchor="middle" x="442" y="-26.5" font-family="Helvetica,sans-Serif" font-size="10.00">dly_us</text>
</a>
</g>
</g>
<!-- Node5&#45;&gt;Node6 -->
<g id="edge6" class="edge"><title>Node5&#45;&gt;Node6</title>
<path fill="none" stroke="midnightblue" d="M376.022,-17.129C387.002,-19.1349 398.806,-21.2915 409.302,-23.209"/>
<polygon fill="midnightblue" stroke="midnightblue" points="408.816,-26.6781 419.282,-25.0323 410.074,-19.7921 408.816,-26.6781"/>
</g>
<!-- Node7&#45;&gt;Node2 -->
<g id="edge12" class="edge"><title>Node7&#45;&gt;Node2</title>
<path fill="none" stroke="midnightblue" d="M240.841,-95.8089C258.776,-112.035 294.811,-144.638 316.731,-164.471"/>
<polygon fill="midnightblue" stroke="midnightblue" points="314.61,-167.272 324.374,-171.386 319.307,-162.081 314.61,-167.272"/>
</g>
<!-- Node7&#45;&gt;Node3 -->
<g id="edge8" class="edge"><title>Node7&#45;&gt;Node3</title>
<path fill="none" stroke="midnightblue" d="M250.616,-86C285.56,-86 356.978,-86 401.721,-86"/>
<polygon fill="midnightblue" stroke="midnightblue" points="401.935,-89.5001 411.935,-86 401.935,-82.5001 401.935,-89.5001"/>
</g>
<!-- Node8 -->
<g id="node8" class="node"><title>Node8</title>
<g id="a_node8"><a xlink:href="sdmm_8c.html#a624a19e248af05530dae5c0cc1dddc11" target="_top" xlink:title="wait_ready">
<polygon fill="white" stroke="black" points="304,-38.5 304,-57.5 368,-57.5 368,-38.5 304,-38.5"/>
<text text-anchor="middle" x="336" y="-45.5" font-family="Helvetica,sans-Serif" font-size="10.00">wait_ready</text>
</a>
</g>
</g>
<!-- Node7&#45;&gt;Node8 -->
<g id="edge9" class="edge"><title>Node7&#45;&gt;Node8</title>
<path fill="none" stroke="midnightblue" d="M250.745,-78.4924C264.504,-73.5129 282.924,-66.8464 299.033,-61.0168"/>
<polygon fill="midnightblue" stroke="midnightblue" points="300.489,-64.212 308.701,-57.5178 298.107,-57.6298 300.489,-64.212"/>
</g>
<!-- Node8&#45;&gt;Node3 -->
<g id="edge10" class="edge"><title>Node8&#45;&gt;Node3</title>
<path fill="none" stroke="midnightblue" d="M363.244,-57.589C375.93,-62.2244 391.353,-67.8596 405.107,-72.8853"/>
<polygon fill="midnightblue" stroke="midnightblue" points="404.171,-76.2695 414.765,-76.4141 406.573,-69.6946 404.171,-76.2695"/>
</g>
<!-- Node8&#45;&gt;Node6 -->
<g id="edge11" class="edge"><title>Node8&#45;&gt;Node6</title>
<path fill="none" stroke="midnightblue" d="M368.203,-42.2994C381.234,-39.9189 396.35,-37.1573 409.42,-34.7695"/>
<polygon fill="midnightblue" stroke="midnightblue" points="410.176,-38.1893 419.384,-32.9491 408.918,-31.3033 410.176,-38.1893"/>
</g>
<!-- Node9&#45;&gt;Node2 -->
<g id="edge14" class="edge"><title>Node9&#45;&gt;Node2</title>
<path fill="none" stroke="midnightblue" d="M136.674,-133.586C148.261,-147.2 171.682,-171.535 198,-181 230.746,-192.776 270.811,-191.092 299.133,-187.486"/>
<polygon fill="midnightblue" stroke="midnightblue" points="299.963,-190.904 309.373,-186.034 298.981,-183.973 299.963,-190.904"/>
</g>
<!-- Node9&#45;&gt;Node3 -->
<g id="edge17" class="edge"><title>Node9&#45;&gt;Node3</title>
<path fill="none" stroke="midnightblue" d="M159.178,-122.193C205.859,-119.145 298.308,-112.1 376,-100 384.352,-98.6992 393.245,-96.9971 401.685,-95.2297"/>
<polygon fill="midnightblue" stroke="midnightblue" points="402.656,-98.6006 411.689,-93.064 401.175,-91.7591 402.656,-98.6006"/>
</g>
<!-- Node9&#45;&gt;Node7 -->
<g id="edge15" class="edge"><title>Node9&#45;&gt;Node7</title>
<path fill="none" stroke="midnightblue" d="M153.982,-114.411C167.257,-109.316 183.679,-103.012 197.68,-97.6381"/>
<polygon fill="midnightblue" stroke="midnightblue" points="199.285,-100.771 207.367,-93.9198 196.777,-94.2358 199.285,-100.771"/>
</g>
<!-- Node10 -->
<g id="node10" class="node"><title>Node10</title>
<g id="a_node10"><a xlink:href="sdmm_8c.html#ace0af708caf7775204ca74fbd46818bb" target="_top" xlink:title="xmit_mmc">
<polygon fill="white" stroke="black" points="198,-152.5 198,-171.5 260,-171.5 260,-152.5 198,-152.5"/>
<text text-anchor="middle" x="229" y="-159.5" font-family="Helvetica,sans-Serif" font-size="10.00">xmit_mmc</text>
</a>
</g>
</g>
<!-- Node9&#45;&gt;Node10 -->
<g id="edge16" class="edge"><title>Node9&#45;&gt;Node10</title>
<path fill="none" stroke="midnightblue" d="M153.982,-133.589C165.941,-138.179 180.455,-143.75 193.451,-148.739"/>
<polygon fill="midnightblue" stroke="midnightblue" points="192.436,-152.098 203.026,-152.414 194.944,-145.563 192.436,-152.098"/>
</g>
</g>
</svg>
