<?xml version="1.0" encoding="UTF-8" standalone="no"?>
<!DOCTYPE svg PUBLIC "-//W3C//DTD SVG 1.1//EN"
 "http://www.w3.org/Graphics/SVG/1.1/DTD/svg11.dtd">
<!-- Generated by graphviz version 2.36.0 (20140111.2315)
 -->
<!-- Title: f_lseek Pages: 1 -->
<svg width="1024pt" height="269pt"
 viewBox="0.00 0.00 1024.00 268.94" xmlns="http://www.w3.org/2000/svg" xmlns:xlink="http://www.w3.org/1999/xlink">
<g id="graph0" class="graph" transform="scale(1 1) rotate(0) translate(4 264.942)">
<title>f_lseek</title>
<polygon fill="white" stroke="none" points="-4,4 -4,-264.942 1020,-264.942 1020,4 -4,4"/>
<!-- Node1 -->
<g id="node1" class="node"><title>Node1</title>
<polygon fill="#bfbfbf" stroke="black" points="0,-146.442 0,-165.442 48,-165.442 48,-146.442 0,-146.442"/>
<text text-anchor="middle" x="24" y="-153.442" font-family="Helvetica,sans-Serif" font-size="10.00">f_lseek</text>
</g>
<!-- Node2 -->
<g id="node2" class="node"><title>Node2</title>
<g id="a_node2"><a xlink:href="ff_8c.html#a7519abb60fe91f6aa1d17f64fbae123a" target="_top" xlink:title="clust2sect">
<polygon fill="white" stroke="black" points="89,-241.442 89,-260.442 151,-260.442 151,-241.442 89,-241.442"/>
<text text-anchor="middle" x="120" y="-248.442" font-family="Helvetica,sans-Serif" font-size="10.00">clust2sect</text>
</a>
</g>
</g>
<!-- Node1&#45;&gt;Node2 -->
<g id="edge1" class="edge"><title>Node1&#45;&gt;Node2</title>
<path fill="none" stroke="midnightblue" d="M31.8758,-165.86C42.1737,-180.3 62.682,-207.505 84,-226.942 87.2463,-229.901 90.8791,-232.784 94.5421,-235.466"/>
<polygon fill="midnightblue" stroke="midnightblue" points="92.761,-238.489 102.977,-241.298 96.7421,-232.732 92.761,-238.489"/>
</g>
<!-- Node3 -->
<g id="node3" class="node"><title>Node3</title>
<g id="a_node3"><a xlink:href="ff_8c.html#acbd0a20a17c6f9b6d536490d1cc3c5ac" target="_top" xlink:title="create_chain">
<polygon fill="white" stroke="black" points="84,-127.442 84,-146.442 156,-146.442 156,-127.442 84,-127.442"/>
<text text-anchor="middle" x="120" y="-134.442" font-family="Helvetica,sans-Serif" font-size="10.00">create_chain</text>
</a>
</g>
</g>
<!-- Node1&#45;&gt;Node3 -->
<g id="edge2" class="edge"><title>Node1&#45;&gt;Node3</title>
<path fill="none" stroke="midnightblue" d="M48.236,-151.245C56.0572,-149.664 65.0699,-147.842 73.9871,-146.04"/>
<polygon fill="midnightblue" stroke="midnightblue" points="74.8373,-149.439 83.9457,-144.027 73.4504,-142.578 74.8373,-149.439"/>
</g>
<!-- Node4 -->
<g id="node4" class="node"><title>Node4</title>
<g id="a_node4"><a xlink:href="ff_8c.html#a65611adf1626e5e08da77cd33a98dd8b" target="_top" xlink:title="get_fat">
<polygon fill="white" stroke="black" points="202.5,-165.442 202.5,-184.442 249.5,-184.442 249.5,-165.442 202.5,-165.442"/>
<text text-anchor="middle" x="226" y="-172.442" font-family="Helvetica,sans-Serif" font-size="10.00">get_fat</text>
</a>
</g>
</g>
<!-- Node1&#45;&gt;Node4 -->
<g id="edge35" class="edge"><title>Node1&#45;&gt;Node4</title>
<path fill="none" stroke="midnightblue" d="M48.334,-158.158C83.8998,-161.537 151.8,-167.988 192.277,-171.833"/>
<polygon fill="midnightblue" stroke="midnightblue" points="192.142,-175.336 202.428,-172.797 192.804,-168.367 192.142,-175.336"/>
</g>
<!-- Node7 -->
<g id="node7" class="node"><title>Node7</title>
<g id="a_node7"><a xlink:href="diskio_8h.html#ac4785625f4bb82e33562079813659880" target="_top" xlink:title="disk_write">
<polygon fill="white" stroke="black" points="524.5,-117.442 524.5,-136.442 585.5,-136.442 585.5,-117.442 524.5,-117.442"/>
<text text-anchor="middle" x="555" y="-124.442" font-family="Helvetica,sans-Serif" font-size="10.00">disk_write</text>
</a>
</g>
</g>
<!-- Node1&#45;&gt;Node7 -->
<g id="edge34" class="edge"><title>Node1&#45;&gt;Node7</title>
<path fill="none" stroke="midnightblue" d="M36.3777,-146.425C47.6963,-137.513 65.9371,-124.598 84,-117.942 143.333,-96.0768 161.767,-98.9415 225,-98.9415 225,-98.9415 225,-98.9415 337,-98.9415 399.421,-98.9415 471.117,-110.478 514.462,-118.741"/>
<polygon fill="midnightblue" stroke="midnightblue" points="513.836,-122.185 524.321,-120.658 515.172,-115.314 513.836,-122.185"/>
</g>
<!-- Node17 -->
<g id="node17" class="node"><title>Node17</title>
<g id="a_node17"><a xlink:href="diskio_8h.html#ac0c802f8a12fa2047b4bec7109b9293f" target="_top" xlink:title="disk_read">
<polygon fill="white" stroke="black" points="525.5,-184.442 525.5,-203.442 584.5,-203.442 584.5,-184.442 525.5,-184.442"/>
<text text-anchor="middle" x="555" y="-191.442" font-family="Helvetica,sans-Serif" font-size="10.00">disk_read</text>
</a>
</g>
</g>
<!-- Node1&#45;&gt;Node17 -->
<g id="edge33" class="edge"><title>Node1&#45;&gt;Node17</title>
<path fill="none" stroke="midnightblue" d="M44.6252,-165.482C79.865,-181.709 156.581,-212.942 225,-212.942 225,-212.942 225,-212.942 337,-212.942 399.537,-212.942 471.828,-205.014 515.176,-199.4"/>
<polygon fill="midnightblue" stroke="midnightblue" points="515.831,-202.844 525.287,-198.064 514.915,-195.904 515.831,-202.844"/>
</g>
<!-- Node20 -->
<g id="node20" class="node"><title>Node20</title>
<g id="a_node20"><a xlink:href="ff_8c.html#aa7193f5b86c3996b5312043a0c26da5f" target="_top" xlink:title="validate">
<polygon fill="white" stroke="black" points="95,-51.4415 95,-70.4415 145,-70.4415 145,-51.4415 95,-51.4415"/>
<text text-anchor="middle" x="120" y="-58.4415" font-family="Helvetica,sans-Serif" font-size="10.00">validate</text>
</a>
</g>
</g>
<!-- Node1&#45;&gt;Node20 -->
<g id="edge36" class="edge"><title>Node1&#45;&gt;Node20</title>
<path fill="none" stroke="midnightblue" d="M31.8758,-146.023C42.1737,-131.583 62.682,-104.378 84,-84.9415 87.2463,-81.9818 90.8791,-79.0988 94.5421,-76.4174"/>
<polygon fill="midnightblue" stroke="midnightblue" points="96.7421,-79.1515 102.977,-70.5853 92.761,-73.3938 96.7421,-79.1515"/>
</g>
<!-- Node3&#45;&gt;Node4 -->
<g id="edge3" class="edge"><title>Node3&#45;&gt;Node4</title>
<path fill="none" stroke="midnightblue" d="M147.244,-146.531C161.031,-151.568 178.05,-157.787 192.648,-163.12"/>
<polygon fill="midnightblue" stroke="midnightblue" points="191.703,-166.502 202.297,-166.646 194.106,-159.927 191.703,-166.502"/>
</g>
<!-- Node19 -->
<g id="node19" class="node"><title>Node19</title>
<g id="a_node19"><a xlink:href="ff_8c.html#abd4b6b071a8d728a88727051c12bc6d7" target="_top" xlink:title="put_fat">
<polygon fill="white" stroke="black" points="202.5,-127.442 202.5,-146.442 249.5,-146.442 249.5,-127.442 202.5,-127.442"/>
<text text-anchor="middle" x="226" y="-134.442" font-family="Helvetica,sans-Serif" font-size="10.00">put_fat</text>
</a>
</g>
</g>
<!-- Node3&#45;&gt;Node19 -->
<g id="edge31" class="edge"><title>Node3&#45;&gt;Node19</title>
<path fill="none" stroke="midnightblue" d="M156.21,-136.942C167.85,-136.942 180.747,-136.942 192.2,-136.942"/>
<polygon fill="midnightblue" stroke="midnightblue" points="192.233,-140.442 202.233,-136.942 192.233,-133.442 192.233,-140.442"/>
</g>
<!-- Node5 -->
<g id="node5" class="node"><title>Node5</title>
<g id="a_node5"><a xlink:href="ff_8c.html#af2e8986556ee6644b4bf31fa4158d735" target="_top" xlink:title="move_window">
<polygon fill="white" stroke="black" points="296.5,-146.442 296.5,-165.442 375.5,-165.442 375.5,-146.442 296.5,-146.442"/>
<text text-anchor="middle" x="336" y="-153.442" font-family="Helvetica,sans-Serif" font-size="10.00">move_window</text>
</a>
</g>
</g>
<!-- Node4&#45;&gt;Node5 -->
<g id="edge4" class="edge"><title>Node4&#45;&gt;Node5</title>
<path fill="none" stroke="midnightblue" d="M249.64,-170.958C260.28,-169.087 273.406,-166.778 286.146,-164.536"/>
<polygon fill="midnightblue" stroke="midnightblue" points="286.983,-167.943 296.225,-162.763 285.77,-161.049 286.983,-167.943"/>
</g>
<!-- Node6 -->
<g id="node6" class="node"><title>Node6</title>
<g id="a_node6"><a xlink:href="ff_8c.html#a5e18753404354b210096f9af99e31bc1" target="_top" xlink:title="sync_window">
<polygon fill="white" stroke="black" points="412,-127.442 412,-146.442 488,-146.442 488,-127.442 412,-127.442"/>
<text text-anchor="middle" x="450" y="-134.442" font-family="Helvetica,sans-Serif" font-size="10.00">sync_window</text>
</a>
</g>
</g>
<!-- Node5&#45;&gt;Node6 -->
<g id="edge5" class="edge"><title>Node5&#45;&gt;Node6</title>
<path fill="none" stroke="midnightblue" d="M375.544,-149.403C384.003,-147.968 393.053,-146.433 401.808,-144.947"/>
<polygon fill="midnightblue" stroke="midnightblue" points="402.624,-148.359 411.898,-143.236 401.453,-141.458 402.624,-148.359"/>
</g>
<!-- Node5&#45;&gt;Node17 -->
<g id="edge24" class="edge"><title>Node5&#45;&gt;Node17</title>
<path fill="none" stroke="midnightblue" d="M375.795,-162.735C415.187,-169.633 475.836,-180.254 515.221,-187.151"/>
<polygon fill="midnightblue" stroke="midnightblue" points="514.786,-190.628 525.24,-188.905 515.994,-183.733 514.786,-190.628"/>
</g>
<!-- Node6&#45;&gt;Node7 -->
<g id="edge6" class="edge"><title>Node6&#45;&gt;Node7</title>
<path fill="none" stroke="midnightblue" d="M488.185,-133.331C496.624,-132.512 505.621,-131.639 514.165,-130.809"/>
<polygon fill="midnightblue" stroke="midnightblue" points="514.68,-134.276 524.295,-129.826 514.003,-127.308 514.68,-134.276"/>
</g>
<!-- Node8 -->
<g id="node8" class="node"><title>Node8</title>
<g id="a_node8"><a xlink:href="sdmm_8c.html#ac0eadae94de728461ccade9e03fafd8c" target="_top" xlink:title="deselect">
<polygon fill="white" stroke="black" points="853.5,-184.442 853.5,-203.442 906.5,-203.442 906.5,-184.442 853.5,-184.442"/>
<text text-anchor="middle" x="880" y="-191.442" font-family="Helvetica,sans-Serif" font-size="10.00">deselect</text>
</a>
</g>
</g>
<!-- Node7&#45;&gt;Node8 -->
<g id="edge7" class="edge"><title>Node7&#45;&gt;Node8</title>
<path fill="none" stroke="midnightblue" d="M585.504,-134.557C622.075,-143.849 686.381,-159.707 742,-170.942 776.273,-177.864 815.666,-184.323 843.387,-188.622"/>
<polygon fill="midnightblue" stroke="midnightblue" points="842.99,-192.102 853.405,-190.161 844.052,-185.183 842.99,-192.102"/>
</g>
<!-- Node10 -->
<g id="node10" class="node"><title>Node10</title>
<g id="a_node10"><a xlink:href="sdmm_8c.html#a21ad8e9a107ea2000705a3edfebaaa2d" target="_top" xlink:title="disk_status">
<polygon fill="white" stroke="black" points="630.5,-184.442 630.5,-203.442 697.5,-203.442 697.5,-184.442 630.5,-184.442"/>
<text text-anchor="middle" x="664" y="-191.442" font-family="Helvetica,sans-Serif" font-size="10.00">disk_status</text>
</a>
</g>
</g>
<!-- Node7&#45;&gt;Node10 -->
<g id="edge9" class="edge"><title>Node7&#45;&gt;Node10</title>
<path fill="none" stroke="midnightblue" d="M570.293,-136.536C583.576,-145.386 603.968,-158.799 622,-169.942 626.911,-172.977 632.202,-176.146 637.298,-179.15"/>
<polygon fill="midnightblue" stroke="midnightblue" points="635.735,-182.291 646.136,-184.313 639.266,-176.246 635.735,-182.291"/>
</g>
<!-- Node11 -->
<g id="node11" class="node"><title>Node11</title>
<g id="a_node11"><a xlink:href="sdmm_8c.html#a99684b493c8bfdb0288a2e24e52f6871" target="_top" xlink:title="send_cmd">
<polygon fill="white" stroke="black" points="633,-108.442 633,-127.442 695,-127.442 695,-108.442 633,-108.442"/>
<text text-anchor="middle" x="664" y="-115.442" font-family="Helvetica,sans-Serif" font-size="10.00">send_cmd</text>
</a>
</g>
</g>
<!-- Node7&#45;&gt;Node11 -->
<g id="edge10" class="edge"><title>Node7&#45;&gt;Node11</title>
<path fill="none" stroke="midnightblue" d="M585.521,-124.458C597.023,-123.491 610.389,-122.367 622.749,-121.327"/>
<polygon fill="midnightblue" stroke="midnightblue" points="623.159,-124.805 632.831,-120.479 622.572,-117.83 623.159,-124.805"/>
</g>
<!-- Node16 -->
<g id="node16" class="node"><title>Node16</title>
<g id="a_node16"><a xlink:href="sdmm_8c.html#aefbd30f6bdff37184f58faf98ad1c6e0" target="_top" xlink:title="xmit_datablock">
<polygon fill="white" stroke="black" points="622.5,-13.4415 622.5,-32.4415 705.5,-32.4415 705.5,-13.4415 622.5,-13.4415"/>
<text text-anchor="middle" x="664" y="-20.4415" font-family="Helvetica,sans-Serif" font-size="10.00">xmit_datablock</text>
</a>
</g>
</g>
<!-- Node7&#45;&gt;Node16 -->
<g id="edge20" class="edge"><title>Node7&#45;&gt;Node16</title>
<path fill="none" stroke="midnightblue" d="M565.875,-117.344C584.109,-99.621 623.262,-61.5651 645.894,-39.5675"/>
<polygon fill="midnightblue" stroke="midnightblue" points="648.418,-41.9956 653.149,-32.516 643.539,-36.976 648.418,-41.9956"/>
</g>
<!-- Node9 -->
<g id="node9" class="node"><title>Node9</title>
<g id="a_node9"><a xlink:href="sdmm_8c.html#ab628371b03508f9db7c6daf1203ed84d" target="_top" xlink:title="rcvr_mmc">
<polygon fill="white" stroke="black" points="956,-127.442 956,-146.442 1016,-146.442 1016,-127.442 956,-127.442"/>
<text text-anchor="middle" x="986" y="-134.442" font-family="Helvetica,sans-Serif" font-size="10.00">rcvr_mmc</text>
</a>
</g>
</g>
<!-- Node8&#45;&gt;Node9 -->
<g id="edge8" class="edge"><title>Node8&#45;&gt;Node9</title>
<path fill="none" stroke="midnightblue" d="M901.389,-184.368C907.428,-181.436 914.023,-178.139 920,-174.942 933.686,-167.621 948.659,-158.917 960.781,-151.687"/>
<polygon fill="midnightblue" stroke="midnightblue" points="962.657,-154.643 969.427,-146.493 959.053,-148.642 962.657,-154.643"/>
</g>
<!-- Node11&#45;&gt;Node8 -->
<g id="edge11" class="edge"><title>Node11&#45;&gt;Node8</title>
<path fill="none" stroke="midnightblue" d="M692.103,-127.567C730.628,-141.249 801.258,-166.332 843.792,-181.438"/>
<polygon fill="midnightblue" stroke="midnightblue" points="842.854,-184.819 853.449,-184.867 845.197,-178.222 842.854,-184.819"/>
</g>
<!-- Node11&#45;&gt;Node9 -->
<g id="edge19" class="edge"><title>Node11&#45;&gt;Node9</title>
<path fill="none" stroke="midnightblue" d="M695.04,-108.738C709.146,-104.88 726.281,-100.852 742,-98.9415 814.815,-90.0906 899.325,-110.228 947.048,-124.436"/>
<polygon fill="midnightblue" stroke="midnightblue" points="946.07,-127.797 956.656,-127.365 948.111,-121.101 946.07,-127.797"/>
</g>
<!-- Node12 -->
<g id="node12" class="node"><title>Node12</title>
<g id="a_node12"><a xlink:href="sdmm_8c.html#ab45cb1d47cda5822ce492ad3c11867ae" target="_top" xlink:title="select">
<polygon fill="white" stroke="black" points="751.5,-108.442 751.5,-127.442 794.5,-127.442 794.5,-108.442 751.5,-108.442"/>
<text text-anchor="middle" x="773" y="-115.442" font-family="Helvetica,sans-Serif" font-size="10.00">select</text>
</a>
</g>
</g>
<!-- Node11&#45;&gt;Node12 -->
<g id="edge12" class="edge"><title>Node11&#45;&gt;Node12</title>
<path fill="none" stroke="midnightblue" d="M695.09,-117.942C709.375,-117.942 726.433,-117.942 740.85,-117.942"/>
<polygon fill="midnightblue" stroke="midnightblue" points="741.271,-121.442 751.271,-117.942 741.271,-114.442 741.271,-121.442"/>
</g>
<!-- Node15 -->
<g id="node15" class="node"><title>Node15</title>
<g id="a_node15"><a xlink:href="sdmm_8c.html#ace0af708caf7775204ca74fbd46818bb" target="_top" xlink:title="xmit_mmc">
<polygon fill="white" stroke="black" points="742,-32.4415 742,-51.4415 804,-51.4415 804,-32.4415 742,-32.4415"/>
<text text-anchor="middle" x="773" y="-39.4415" font-family="Helvetica,sans-Serif" font-size="10.00">xmit_mmc</text>
</a>
</g>
</g>
<!-- Node11&#45;&gt;Node15 -->
<g id="edge18" class="edge"><title>Node11&#45;&gt;Node15</title>
<path fill="none" stroke="midnightblue" d="M678.552,-108.316C696.641,-95.4674 728.888,-72.5634 750.361,-57.3111"/>
<polygon fill="midnightblue" stroke="midnightblue" points="752.432,-60.1331 758.558,-51.4888 748.379,-54.4261 752.432,-60.1331"/>
</g>
<!-- Node12&#45;&gt;Node8 -->
<g id="edge17" class="edge"><title>Node12&#45;&gt;Node8</title>
<path fill="none" stroke="midnightblue" d="M786.413,-127.567C791.875,-131.88 798.327,-137.082 804,-141.942 820.484,-156.062 822.057,-162.728 840,-174.942 842.393,-176.57 844.947,-178.139 847.559,-179.627"/>
<polygon fill="midnightblue" stroke="midnightblue" points="846.039,-182.783 856.517,-184.357 849.308,-176.593 846.039,-182.783"/>
</g>
<!-- Node12&#45;&gt;Node9 -->
<g id="edge13" class="edge"><title>Node12&#45;&gt;Node9</title>
<path fill="none" stroke="midnightblue" d="M794.616,-119.798C829.56,-122.945 900.978,-129.376 945.721,-133.405"/>
<polygon fill="midnightblue" stroke="midnightblue" points="945.661,-136.913 955.935,-134.324 946.289,-129.941 945.661,-136.913"/>
</g>
<!-- Node13 -->
<g id="node13" class="node"><title>Node13</title>
<g id="a_node13"><a xlink:href="sdmm_8c.html#a624a19e248af05530dae5c0cc1dddc11" target="_top" xlink:title="wait_ready">
<polygon fill="white" stroke="black" points="848,-146.442 848,-165.442 912,-165.442 912,-146.442 848,-146.442"/>
<text text-anchor="middle" x="880" y="-153.442" font-family="Helvetica,sans-Serif" font-size="10.00">wait_ready</text>
</a>
</g>
</g>
<!-- Node12&#45;&gt;Node13 -->
<g id="edge14" class="edge"><title>Node12&#45;&gt;Node13</title>
<path fill="none" stroke="midnightblue" d="M794.745,-125.449C808.504,-130.429 826.924,-137.095 843.033,-142.925"/>
<polygon fill="midnightblue" stroke="midnightblue" points="842.107,-146.312 852.701,-146.424 844.489,-139.73 842.107,-146.312"/>
</g>
<!-- Node13&#45;&gt;Node9 -->
<g id="edge15" class="edge"><title>Node13&#45;&gt;Node9</title>
<path fill="none" stroke="midnightblue" d="M912.203,-150.241C922.831,-148.299 934.846,-146.104 946.007,-144.065"/>
<polygon fill="midnightblue" stroke="midnightblue" points="946.744,-147.489 955.952,-142.248 945.486,-140.603 946.744,-147.489"/>
</g>
<!-- Node14 -->
<g id="node14" class="node"><title>Node14</title>
<g id="a_node14"><a xlink:href="sdmm_8c.html#a76a43e01b9676630e121e5a659acbb3f" target="_top" xlink:title="dly_us">
<polygon fill="white" stroke="black" points="963.5,-203.442 963.5,-222.442 1008.5,-222.442 1008.5,-203.442 963.5,-203.442"/>
<text text-anchor="middle" x="986" y="-210.442" font-family="Helvetica,sans-Serif" font-size="10.00">dly_us</text>
</a>
</g>
</g>
<!-- Node13&#45;&gt;Node14 -->
<g id="edge16" class="edge"><title>Node13&#45;&gt;Node14</title>
<path fill="none" stroke="midnightblue" d="M901.389,-165.515C907.428,-168.447 914.023,-171.744 920,-174.942 933.686,-182.262 948.659,-190.966 960.781,-198.196"/>
<polygon fill="midnightblue" stroke="midnightblue" points="959.053,-201.241 969.427,-203.39 962.657,-195.24 959.053,-201.241"/>
</g>
<!-- Node16&#45;&gt;Node9 -->
<g id="edge23" class="edge"><title>Node16&#45;&gt;Node9</title>
<path fill="none" stroke="midnightblue" d="M690.481,-13.4215C718.842,-4.28029 765.722,6.45714 804,-5.94151 874.122,-28.6549 939.869,-89.8248 969.102,-119.847"/>
<polygon fill="midnightblue" stroke="midnightblue" points="966.599,-122.294 976.041,-127.1 971.657,-117.455 966.599,-122.294"/>
</g>
<!-- Node16&#45;&gt;Node13 -->
<g id="edge21" class="edge"><title>Node16&#45;&gt;Node13</title>
<path fill="none" stroke="midnightblue" d="M701.278,-13.4366C730.958,-7.78101 772.952,-4.80559 804,-22.9415 846.199,-47.5913 866.515,-105.714 874.581,-136.315"/>
<polygon fill="midnightblue" stroke="midnightblue" points="871.232,-137.354 877.016,-146.231 878.03,-135.685 871.232,-137.354"/>
</g>
<!-- Node16&#45;&gt;Node15 -->
<g id="edge22" class="edge"><title>Node16&#45;&gt;Node15</title>
<path fill="none" stroke="midnightblue" d="M705.757,-30.1788C714.239,-31.6848 723.174,-33.2714 731.641,-34.7749"/>
<polygon fill="midnightblue" stroke="midnightblue" points="731.217,-38.2543 741.675,-36.5566 732.441,-31.3621 731.217,-38.2543"/>
</g>
<!-- Node17&#45;&gt;Node8 -->
<g id="edge25" class="edge"><title>Node17&#45;&gt;Node8</title>
<path fill="none" stroke="midnightblue" d="M582.603,-203.443C594.491,-207.206 608.776,-211.076 622,-212.942 702.126,-224.245 723.641,-217.449 804,-207.942 816.948,-206.41 831.028,-203.986 843.455,-201.583"/>
<polygon fill="midnightblue" stroke="midnightblue" points="844.322,-204.979 853.443,-199.589 842.951,-198.114 844.322,-204.979"/>
</g>
<!-- Node17&#45;&gt;Node10 -->
<g id="edge26" class="edge"><title>Node17&#45;&gt;Node10</title>
<path fill="none" stroke="midnightblue" d="M584.674,-193.942C595.59,-193.942 608.279,-193.942 620.223,-193.942"/>
<polygon fill="midnightblue" stroke="midnightblue" points="620.465,-197.442 630.465,-193.942 620.465,-190.442 620.465,-197.442"/>
</g>
<!-- Node17&#45;&gt;Node11 -->
<g id="edge30" class="edge"><title>Node17&#45;&gt;Node11</title>
<path fill="none" stroke="midnightblue" d="M569.552,-184.316C587.641,-171.467 619.888,-148.563 641.361,-133.311"/>
<polygon fill="midnightblue" stroke="midnightblue" points="643.432,-136.133 649.558,-127.489 639.379,-130.426 643.432,-136.133"/>
</g>
<!-- Node18 -->
<g id="node18" class="node"><title>Node18</title>
<g id="a_node18"><a xlink:href="sdmm_8c.html#a8c99afbc312912297b19752cf7e0960b" target="_top" xlink:title="rcvr_datablock">
<polygon fill="white" stroke="black" points="840,-222.442 840,-241.442 920,-241.442 920,-222.442 840,-222.442"/>
<text text-anchor="middle" x="880" y="-229.442" font-family="Helvetica,sans-Serif" font-size="10.00">rcvr_datablock</text>
</a>
</g>
</g>
<!-- Node17&#45;&gt;Node18 -->
<g id="edge27" class="edge"><title>Node17&#45;&gt;Node18</title>
<path fill="none" stroke="midnightblue" d="M569.37,-203.503C582.175,-212.04 602.394,-223.943 622,-228.942 692.532,-246.924 777.527,-243.207 829.916,-238.144"/>
<polygon fill="midnightblue" stroke="midnightblue" points="830.352,-241.618 839.945,-237.119 829.641,-234.654 830.352,-241.618"/>
</g>
<!-- Node18&#45;&gt;Node9 -->
<g id="edge28" class="edge"><title>Node18&#45;&gt;Node9</title>
<path fill="none" stroke="midnightblue" d="M904.605,-222.371C909.917,-219.703 915.353,-216.535 920,-212.942 941.554,-196.272 961.109,-171.479 973.016,-154.787"/>
<polygon fill="midnightblue" stroke="midnightblue" points="975.977,-156.659 978.808,-146.45 970.228,-152.665 975.977,-156.659"/>
</g>
<!-- Node18&#45;&gt;Node14 -->
<g id="edge29" class="edge"><title>Node18&#45;&gt;Node14</title>
<path fill="none" stroke="midnightblue" d="M920.022,-224.813C931.002,-222.807 942.806,-220.65 953.302,-218.733"/>
<polygon fill="midnightblue" stroke="midnightblue" points="954.074,-222.149 963.282,-216.909 952.816,-215.263 954.074,-222.149"/>
</g>
<!-- Node19&#45;&gt;Node5 -->
<g id="edge32" class="edge"><title>Node19&#45;&gt;Node5</title>
<path fill="none" stroke="midnightblue" d="M249.64,-140.925C260.28,-142.796 273.406,-145.105 286.146,-147.347"/>
<polygon fill="midnightblue" stroke="midnightblue" points="285.77,-150.834 296.225,-149.12 286.983,-143.94 285.77,-150.834"/>
</g>
<!-- Node21 -->
<g id="node21" class="node"><title>Node21</title>
<g id="a_node21"><a xlink:href="diskio_8h.html#a8348ac5ee6d709420c02e45c111f4793" target="_top" xlink:title="disk_status">
<polygon fill="white" stroke="black" points="192.5,-51.4415 192.5,-70.4415 259.5,-70.4415 259.5,-51.4415 192.5,-51.4415"/>
<text text-anchor="middle" x="226" y="-58.4415" font-family="Helvetica,sans-Serif" font-size="10.00">disk_status</text>
</a>
</g>
</g>
<!-- Node20&#45;&gt;Node21 -->
<g id="edge37" class="edge"><title>Node20&#45;&gt;Node21</title>
<path fill="none" stroke="midnightblue" d="M145.121,-60.9415C156.091,-60.9415 169.411,-60.9415 182.004,-60.9415"/>
<polygon fill="midnightblue" stroke="midnightblue" points="182.343,-64.4416 192.343,-60.9415 182.343,-57.4416 182.343,-64.4416"/>
</g>
</g>
</svg>
