<?xml version="1.0" encoding="UTF-8" standalone="no"?>
<!DOCTYPE svg PUBLIC "-//W3C//DTD SVG 1.1//EN"
 "http://www.w3.org/Graphics/SVG/1.1/DTD/svg11.dtd">
<!-- Generated by graphviz version 2.36.0 (20140111.2315)
 -->
<!-- Title: create_chain Pages: 1 -->
<svg width="920pt" height="248pt"
 viewBox="0.00 0.00 920.00 247.86" xmlns="http://www.w3.org/2000/svg" xmlns:xlink="http://www.w3.org/1999/xlink">
<g id="graph0" class="graph" transform="scale(1 1) rotate(0) translate(4 243.856)">
<title>create_chain</title>
<polygon fill="white" stroke="none" points="-4,4 -4,-243.856 916,-243.856 916,4 -4,4"/>
<!-- Node1 -->
<g id="node1" class="node"><title>Node1</title>
<polygon fill="#bfbfbf" stroke="black" points="0,-162.769 0,-181.769 72,-181.769 72,-162.769 0,-162.769"/>
<text text-anchor="middle" x="36" y="-169.769" font-family="Helvetica,sans-Serif" font-size="10.00">create_chain</text>
</g>
<!-- Node2 -->
<g id="node2" class="node"><title>Node2</title>
<g id="a_node2"><a xlink:href="ff_8c.html#a65611adf1626e5e08da77cd33a98dd8b" target="_top" xlink:title="get_fat">
<polygon fill="white" stroke="black" points="108.5,-181.769 108.5,-200.769 155.5,-200.769 155.5,-181.769 108.5,-181.769"/>
<text text-anchor="middle" x="132" y="-188.769" font-family="Helvetica,sans-Serif" font-size="10.00">get_fat</text>
</a>
</g>
</g>
<!-- Node1&#45;&gt;Node2 -->
<g id="edge1" class="edge"><title>Node1&#45;&gt;Node2</title>
<path fill="none" stroke="midnightblue" d="M72.0021,-179.344C80.6116,-181.084 89.7967,-182.941 98.2931,-184.658"/>
<polygon fill="midnightblue" stroke="midnightblue" points="97.735,-188.116 108.23,-186.667 99.1219,-181.255 97.735,-188.116"/>
</g>
<!-- Node17 -->
<g id="node17" class="node"><title>Node17</title>
<g id="a_node17"><a xlink:href="ff_8c.html#abd4b6b071a8d728a88727051c12bc6d7" target="_top" xlink:title="put_fat">
<polygon fill="white" stroke="black" points="108.5,-143.769 108.5,-162.769 155.5,-162.769 155.5,-143.769 108.5,-143.769"/>
<text text-anchor="middle" x="132" y="-150.769" font-family="Helvetica,sans-Serif" font-size="10.00">put_fat</text>
</a>
</g>
</g>
<!-- Node1&#45;&gt;Node17 -->
<g id="edge29" class="edge"><title>Node1&#45;&gt;Node17</title>
<path fill="none" stroke="midnightblue" d="M72.0021,-165.194C80.6116,-163.454 89.7967,-161.598 98.2931,-159.88"/>
<polygon fill="midnightblue" stroke="midnightblue" points="99.1219,-163.284 108.23,-157.872 97.735,-156.422 99.1219,-163.284"/>
</g>
<!-- Node3 -->
<g id="node3" class="node"><title>Node3</title>
<g id="a_node3"><a xlink:href="ff_8c.html#af2e8986556ee6644b4bf31fa4158d735" target="_top" xlink:title="move_window">
<polygon fill="white" stroke="black" points="192.5,-162.769 192.5,-181.769 271.5,-181.769 271.5,-162.769 192.5,-162.769"/>
<text text-anchor="middle" x="232" y="-169.769" font-family="Helvetica,sans-Serif" font-size="10.00">move_window</text>
</a>
</g>
</g>
<!-- Node2&#45;&gt;Node3 -->
<g id="edge2" class="edge"><title>Node2&#45;&gt;Node3</title>
<path fill="none" stroke="midnightblue" d="M155.729,-186.863C163.702,-185.317 172.992,-183.516 182.269,-181.717"/>
<polygon fill="midnightblue" stroke="midnightblue" points="183.117,-185.118 192.268,-179.779 181.784,-178.246 183.117,-185.118"/>
</g>
<!-- Node4 -->
<g id="node4" class="node"><title>Node4</title>
<g id="a_node4"><a xlink:href="ff_8c.html#a5e18753404354b210096f9af99e31bc1" target="_top" xlink:title="sync_window">
<polygon fill="white" stroke="black" points="308,-143.769 308,-162.769 384,-162.769 384,-143.769 308,-143.769"/>
<text text-anchor="middle" x="346" y="-150.769" font-family="Helvetica,sans-Serif" font-size="10.00">sync_window</text>
</a>
</g>
</g>
<!-- Node3&#45;&gt;Node4 -->
<g id="edge3" class="edge"><title>Node3&#45;&gt;Node4</title>
<path fill="none" stroke="midnightblue" d="M271.544,-165.731C280.003,-164.296 289.053,-162.76 297.808,-161.275"/>
<polygon fill="midnightblue" stroke="midnightblue" points="298.624,-164.687 307.898,-159.564 297.453,-157.785 298.624,-164.687"/>
</g>
<!-- Node15 -->
<g id="node15" class="node"><title>Node15</title>
<g id="a_node15"><a xlink:href="diskio_8h.html#ac0c802f8a12fa2047b4bec7109b9293f" target="_top" xlink:title="disk_read">
<polygon fill="white" stroke="black" points="421.5,-181.769 421.5,-200.769 480.5,-200.769 480.5,-181.769 421.5,-181.769"/>
<text text-anchor="middle" x="451" y="-188.769" font-family="Helvetica,sans-Serif" font-size="10.00">disk_read</text>
</a>
</g>
</g>
<!-- Node3&#45;&gt;Node15 -->
<g id="edge22" class="edge"><title>Node3&#45;&gt;Node15</title>
<path fill="none" stroke="midnightblue" d="M271.795,-175.666C311.187,-179.115 371.836,-184.425 411.221,-187.874"/>
<polygon fill="midnightblue" stroke="midnightblue" points="410.973,-191.366 421.24,-188.751 411.584,-184.392 410.973,-191.366"/>
</g>
<!-- Node5 -->
<g id="node5" class="node"><title>Node5</title>
<g id="a_node5"><a xlink:href="diskio_8h.html#ac4785625f4bb82e33562079813659880" target="_top" xlink:title="disk_write">
<polygon fill="white" stroke="black" points="420.5,-143.769 420.5,-162.769 481.5,-162.769 481.5,-143.769 420.5,-143.769"/>
<text text-anchor="middle" x="451" y="-150.769" font-family="Helvetica,sans-Serif" font-size="10.00">disk_write</text>
</a>
</g>
</g>
<!-- Node4&#45;&gt;Node5 -->
<g id="edge4" class="edge"><title>Node4&#45;&gt;Node5</title>
<path fill="none" stroke="midnightblue" d="M384.185,-153.269C392.624,-153.269 401.621,-153.269 410.165,-153.269"/>
<polygon fill="midnightblue" stroke="midnightblue" points="410.295,-156.769 420.295,-153.269 410.294,-149.769 410.295,-156.769"/>
</g>
<!-- Node6 -->
<g id="node6" class="node"><title>Node6</title>
<g id="a_node6"><a xlink:href="sdmm_8c.html#ac0eadae94de728461ccade9e03fafd8c" target="_top" xlink:title="deselect">
<polygon fill="white" stroke="black" points="749.5,-143.769 749.5,-162.769 802.5,-162.769 802.5,-143.769 749.5,-143.769"/>
<text text-anchor="middle" x="776" y="-150.769" font-family="Helvetica,sans-Serif" font-size="10.00">deselect</text>
</a>
</g>
</g>
<!-- Node5&#45;&gt;Node6 -->
<g id="edge5" class="edge"><title>Node5&#45;&gt;Node6</title>
<path fill="none" stroke="midnightblue" d="M478.603,-143.768C490.491,-140.005 504.776,-136.135 518,-134.269 596.583,-123.183 689.654,-136.582 739.407,-145.858"/>
<polygon fill="midnightblue" stroke="midnightblue" points="738.865,-149.318 749.346,-147.764 740.184,-142.443 738.865,-149.318"/>
</g>
<!-- Node8 -->
<g id="node8" class="node"><title>Node8</title>
<g id="a_node8"><a xlink:href="sdmm_8c.html#a21ad8e9a107ea2000705a3edfebaaa2d" target="_top" xlink:title="disk_status">
<polygon fill="white" stroke="black" points="526.5,-181.769 526.5,-200.769 593.5,-200.769 593.5,-181.769 526.5,-181.769"/>
<text text-anchor="middle" x="560" y="-188.769" font-family="Helvetica,sans-Serif" font-size="10.00">disk_status</text>
</a>
</g>
</g>
<!-- Node5&#45;&gt;Node8 -->
<g id="edge7" class="edge"><title>Node5&#45;&gt;Node8</title>
<path fill="none" stroke="midnightblue" d="M479.001,-162.858C492.18,-167.539 508.229,-173.239 522.484,-178.301"/>
<polygon fill="midnightblue" stroke="midnightblue" points="521.413,-181.635 532.008,-181.683 523.756,-175.039 521.413,-181.635"/>
</g>
<!-- Node9 -->
<g id="node9" class="node"><title>Node9</title>
<g id="a_node9"><a xlink:href="sdmm_8c.html#a99684b493c8bfdb0288a2e24e52f6871" target="_top" xlink:title="send_cmd">
<polygon fill="white" stroke="black" points="529,-143.769 529,-162.769 591,-162.769 591,-143.769 529,-143.769"/>
<text text-anchor="middle" x="560" y="-150.769" font-family="Helvetica,sans-Serif" font-size="10.00">send_cmd</text>
</a>
</g>
</g>
<!-- Node5&#45;&gt;Node9 -->
<g id="edge8" class="edge"><title>Node5&#45;&gt;Node9</title>
<path fill="none" stroke="midnightblue" d="M481.521,-153.269C493.023,-153.269 506.389,-153.269 518.749,-153.269"/>
<polygon fill="midnightblue" stroke="midnightblue" points="518.831,-156.769 528.831,-153.269 518.831,-149.769 518.831,-156.769"/>
</g>
<!-- Node14 -->
<g id="node14" class="node"><title>Node14</title>
<g id="a_node14"><a xlink:href="sdmm_8c.html#aefbd30f6bdff37184f58faf98ad1c6e0" target="_top" xlink:title="xmit_datablock">
<polygon fill="white" stroke="black" points="518.5,-10.7693 518.5,-29.7693 601.5,-29.7693 601.5,-10.7693 518.5,-10.7693"/>
<text text-anchor="middle" x="560" y="-17.7693" font-family="Helvetica,sans-Serif" font-size="10.00">xmit_datablock</text>
</a>
</g>
</g>
<!-- Node5&#45;&gt;Node14 -->
<g id="edge18" class="edge"><title>Node5&#45;&gt;Node14</title>
<path fill="none" stroke="midnightblue" d="M459.695,-143.704C477.5,-121.573 521.762,-66.5563 544.703,-38.0399"/>
<polygon fill="midnightblue" stroke="midnightblue" points="547.545,-40.092 551.086,-30.1065 542.09,-35.7041 547.545,-40.092"/>
</g>
<!-- Node7 -->
<g id="node7" class="node"><title>Node7</title>
<g id="a_node7"><a xlink:href="sdmm_8c.html#ab628371b03508f9db7c6daf1203ed84d" target="_top" xlink:title="rcvr_mmc">
<polygon fill="white" stroke="black" points="852,-124.769 852,-143.769 912,-143.769 912,-124.769 852,-124.769"/>
<text text-anchor="middle" x="882" y="-131.769" font-family="Helvetica,sans-Serif" font-size="10.00">rcvr_mmc</text>
</a>
</g>
</g>
<!-- Node6&#45;&gt;Node7 -->
<g id="edge6" class="edge"><title>Node6&#45;&gt;Node7</title>
<path fill="none" stroke="midnightblue" d="M802.708,-148.573C814.479,-146.422 828.689,-143.826 841.754,-141.439"/>
<polygon fill="midnightblue" stroke="midnightblue" points="842.71,-144.823 851.918,-139.582 841.452,-137.937 842.71,-144.823"/>
</g>
<!-- Node9&#45;&gt;Node6 -->
<g id="edge9" class="edge"><title>Node9&#45;&gt;Node6</title>
<path fill="none" stroke="midnightblue" d="M591.207,-153.269C630.104,-153.269 697.618,-153.269 739.096,-153.269"/>
<polygon fill="midnightblue" stroke="midnightblue" points="739.3,-156.769 749.3,-153.269 739.3,-149.769 739.3,-156.769"/>
</g>
<!-- Node9&#45;&gt;Node7 -->
<g id="edge17" class="edge"><title>Node9&#45;&gt;Node7</title>
<path fill="none" stroke="midnightblue" d="M591.063,-161.899C639.389,-174.362 736.943,-193.683 816,-172.269 832.244,-167.869 848.59,-158.283 860.827,-149.841"/>
<polygon fill="midnightblue" stroke="midnightblue" points="862.884,-152.672 868.95,-143.986 858.791,-146.994 862.884,-152.672"/>
</g>
<!-- Node10 -->
<g id="node10" class="node"><title>Node10</title>
<g id="a_node10"><a xlink:href="sdmm_8c.html#ab45cb1d47cda5822ce492ad3c11867ae" target="_top" xlink:title="select">
<polygon fill="white" stroke="black" points="647.5,-67.7693 647.5,-86.7693 690.5,-86.7693 690.5,-67.7693 647.5,-67.7693"/>
<text text-anchor="middle" x="669" y="-74.7693" font-family="Helvetica,sans-Serif" font-size="10.00">select</text>
</a>
</g>
</g>
<!-- Node9&#45;&gt;Node10 -->
<g id="edge10" class="edge"><title>Node9&#45;&gt;Node10</title>
<path fill="none" stroke="midnightblue" d="M574.552,-143.644C592.641,-130.795 624.888,-107.891 646.361,-92.6389"/>
<polygon fill="midnightblue" stroke="midnightblue" points="648.432,-95.4609 654.558,-86.8166 644.379,-89.754 648.432,-95.4609"/>
</g>
<!-- Node13 -->
<g id="node13" class="node"><title>Node13</title>
<g id="a_node13"><a xlink:href="sdmm_8c.html#ace0af708caf7775204ca74fbd46818bb" target="_top" xlink:title="xmit_mmc">
<polygon fill="white" stroke="black" points="638,-29.7693 638,-48.7693 700,-48.7693 700,-29.7693 638,-29.7693"/>
<text text-anchor="middle" x="669" y="-36.7693" font-family="Helvetica,sans-Serif" font-size="10.00">xmit_mmc</text>
</a>
</g>
</g>
<!-- Node9&#45;&gt;Node13 -->
<g id="edge16" class="edge"><title>Node9&#45;&gt;Node13</title>
<path fill="none" stroke="midnightblue" d="M567.321,-143.506C579.461,-125.255 607.547,-85.3648 638,-58.2693 639.33,-57.086 640.742,-55.928 642.199,-54.8044"/>
<polygon fill="midnightblue" stroke="midnightblue" points="644.6,-57.3977 650.81,-48.8131 640.602,-51.6519 644.6,-57.3977"/>
</g>
<!-- Node10&#45;&gt;Node6 -->
<g id="edge15" class="edge"><title>Node10&#45;&gt;Node6</title>
<path fill="none" stroke="midnightblue" d="M682.413,-86.8944C687.875,-91.2081 694.327,-96.4093 700,-101.269 716.484,-115.39 718.057,-122.056 736,-134.269 738.393,-135.898 740.947,-137.466 743.559,-138.955"/>
<polygon fill="midnightblue" stroke="midnightblue" points="742.039,-142.111 752.517,-143.685 745.308,-135.921 742.039,-142.111"/>
</g>
<!-- Node10&#45;&gt;Node7 -->
<g id="edge11" class="edge"><title>Node10&#45;&gt;Node7</title>
<path fill="none" stroke="midnightblue" d="M690.898,-77.4019C719.782,-78.1588 773.187,-81.6421 816,-96.2693 831.574,-101.59 847.552,-110.869 859.769,-118.926"/>
<polygon fill="midnightblue" stroke="midnightblue" points="858.078,-122.009 868.309,-124.762 862.028,-116.23 858.078,-122.009"/>
</g>
<!-- Node11 -->
<g id="node11" class="node"><title>Node11</title>
<g id="a_node11"><a xlink:href="sdmm_8c.html#a624a19e248af05530dae5c0cc1dddc11" target="_top" xlink:title="wait_ready">
<polygon fill="white" stroke="black" points="744,-105.769 744,-124.769 808,-124.769 808,-105.769 744,-105.769"/>
<text text-anchor="middle" x="776" y="-112.769" font-family="Helvetica,sans-Serif" font-size="10.00">wait_ready</text>
</a>
</g>
</g>
<!-- Node10&#45;&gt;Node11 -->
<g id="edge12" class="edge"><title>Node10&#45;&gt;Node11</title>
<path fill="none" stroke="midnightblue" d="M690.745,-84.7769C704.504,-89.7565 722.924,-96.423 739.033,-102.253"/>
<polygon fill="midnightblue" stroke="midnightblue" points="738.107,-105.64 748.701,-105.752 740.489,-99.0574 738.107,-105.64"/>
</g>
<!-- Node11&#45;&gt;Node7 -->
<g id="edge13" class="edge"><title>Node11&#45;&gt;Node7</title>
<path fill="none" stroke="midnightblue" d="M808.203,-120.97C818.831,-122.912 830.846,-125.107 842.007,-127.146"/>
<polygon fill="midnightblue" stroke="midnightblue" points="841.486,-130.608 851.952,-128.963 842.744,-123.722 841.486,-130.608"/>
</g>
<!-- Node12 -->
<g id="node12" class="node"><title>Node12</title>
<g id="a_node12"><a xlink:href="sdmm_8c.html#a76a43e01b9676630e121e5a659acbb3f" target="_top" xlink:title="dly_us">
<polygon fill="white" stroke="black" points="859.5,-200.769 859.5,-219.769 904.5,-219.769 904.5,-200.769 859.5,-200.769"/>
<text text-anchor="middle" x="882" y="-207.769" font-family="Helvetica,sans-Serif" font-size="10.00">dly_us</text>
</a>
</g>
</g>
<!-- Node11&#45;&gt;Node12 -->
<g id="edge14" class="edge"><title>Node11&#45;&gt;Node12</title>
<path fill="none" stroke="midnightblue" d="M800.605,-124.84C805.917,-127.508 811.353,-130.675 816,-134.269 837.554,-150.939 857.109,-175.732 869.016,-192.424"/>
<polygon fill="midnightblue" stroke="midnightblue" points="866.228,-194.546 874.808,-200.761 871.977,-190.552 866.228,-194.546"/>
</g>
<!-- Node14&#45;&gt;Node7 -->
<g id="edge21" class="edge"><title>Node14&#45;&gt;Node7</title>
<path fill="none" stroke="midnightblue" d="M590.3,-10.735C618.816,-2.93251 663.12,5.24578 700,-5.26935 770.553,-25.3853 836.144,-86.7742 865.228,-117.036"/>
<polygon fill="midnightblue" stroke="midnightblue" points="863.032,-119.808 872.437,-124.686 868.126,-115.008 863.032,-119.808"/>
</g>
<!-- Node14&#45;&gt;Node11 -->
<g id="edge19" class="edge"><title>Node14&#45;&gt;Node11</title>
<path fill="none" stroke="midnightblue" d="M601.719,-11.2401C630.6,-6.92736 669.489,-5.48342 700,-20.2693 732.615,-36.0748 755.326,-73.7053 766.674,-96.5778"/>
<polygon fill="midnightblue" stroke="midnightblue" points="763.522,-98.0995 770.961,-105.644 769.85,-95.1073 763.522,-98.0995"/>
</g>
<!-- Node14&#45;&gt;Node13 -->
<g id="edge20" class="edge"><title>Node14&#45;&gt;Node13</title>
<path fill="none" stroke="midnightblue" d="M601.757,-27.5066C610.239,-29.0127 619.174,-30.5993 627.641,-32.1028"/>
<polygon fill="midnightblue" stroke="midnightblue" points="627.217,-35.5821 637.675,-33.8845 628.441,-28.6899 627.217,-35.5821"/>
</g>
<!-- Node15&#45;&gt;Node6 -->
<g id="edge23" class="edge"><title>Node15&#45;&gt;Node6</title>
<path fill="none" stroke="midnightblue" d="M478.603,-200.771C490.491,-204.534 504.776,-208.404 518,-210.269 554.967,-215.484 565.138,-216.185 602,-210.269 653.295,-202.037 709.999,-180.897 744.046,-166.806"/>
<polygon fill="midnightblue" stroke="midnightblue" points="745.577,-169.959 753.439,-162.858 742.864,-163.506 745.577,-169.959"/>
</g>
<!-- Node15&#45;&gt;Node8 -->
<g id="edge24" class="edge"><title>Node15&#45;&gt;Node8</title>
<path fill="none" stroke="midnightblue" d="M480.674,-191.269C491.59,-191.269 504.279,-191.269 516.223,-191.269"/>
<polygon fill="midnightblue" stroke="midnightblue" points="516.465,-194.769 526.465,-191.269 516.465,-187.769 516.465,-194.769"/>
</g>
<!-- Node15&#45;&gt;Node9 -->
<g id="edge28" class="edge"><title>Node15&#45;&gt;Node9</title>
<path fill="none" stroke="midnightblue" d="M479.001,-181.68C492.18,-177 508.229,-171.3 522.484,-166.238"/>
<polygon fill="midnightblue" stroke="midnightblue" points="523.756,-169.5 532.008,-162.855 521.413,-162.904 523.756,-169.5"/>
</g>
<!-- Node16 -->
<g id="node16" class="node"><title>Node16</title>
<g id="a_node16"><a xlink:href="sdmm_8c.html#a8c99afbc312912297b19752cf7e0960b" target="_top" xlink:title="rcvr_datablock">
<polygon fill="white" stroke="black" points="736,-219.769 736,-238.769 816,-238.769 816,-219.769 736,-219.769"/>
<text text-anchor="middle" x="776" y="-226.769" font-family="Helvetica,sans-Serif" font-size="10.00">rcvr_datablock</text>
</a>
</g>
</g>
<!-- Node15&#45;&gt;Node16 -->
<g id="edge25" class="edge"><title>Node15&#45;&gt;Node16</title>
<path fill="none" stroke="midnightblue" d="M465.37,-200.831C478.175,-209.367 498.394,-221.271 518,-226.269 588.532,-244.252 673.527,-240.535 725.916,-235.472"/>
<polygon fill="midnightblue" stroke="midnightblue" points="726.352,-238.945 735.945,-234.447 725.641,-231.982 726.352,-238.945"/>
</g>
<!-- Node16&#45;&gt;Node7 -->
<g id="edge26" class="edge"><title>Node16&#45;&gt;Node7</title>
<path fill="none" stroke="midnightblue" d="M794.787,-219.735C801.701,-215.675 809.504,-210.637 816,-205.269 835.6,-189.074 854.861,-167.052 867.263,-151.849"/>
<polygon fill="midnightblue" stroke="midnightblue" points="870.205,-153.774 873.724,-143.781 864.741,-149.399 870.205,-153.774"/>
</g>
<!-- Node16&#45;&gt;Node12 -->
<g id="edge27" class="edge"><title>Node16&#45;&gt;Node12</title>
<path fill="none" stroke="midnightblue" d="M816.022,-222.14C827.002,-220.134 838.806,-217.978 849.302,-216.06"/>
<polygon fill="midnightblue" stroke="midnightblue" points="850.074,-219.477 859.282,-214.237 848.816,-212.591 850.074,-219.477"/>
</g>
<!-- Node17&#45;&gt;Node3 -->
<g id="edge30" class="edge"><title>Node17&#45;&gt;Node3</title>
<path fill="none" stroke="midnightblue" d="M155.729,-157.676C163.702,-159.222 172.992,-161.023 182.269,-162.822"/>
<polygon fill="midnightblue" stroke="midnightblue" points="181.784,-166.293 192.268,-164.76 183.117,-159.421 181.784,-166.293"/>
</g>
</g>
</svg>
