<?xml version="1.0" encoding="UTF-8" standalone="no"?>
<!DOCTYPE svg PUBLIC "-//W3C//DTD SVG 1.1//EN"
 "http://www.w3.org/Graphics/SVG/1.1/DTD/svg11.dtd">
<!-- Generated by graphviz version 2.36.0 (20140111.2315)
 -->
<!-- Title: remove_chain Pages: 1 -->
<svg width="942pt" height="386pt"
 viewBox="0.00 0.00 942.00 385.94" xmlns="http://www.w3.org/2000/svg" xmlns:xlink="http://www.w3.org/1999/xlink">
<g id="graph0" class="graph" transform="scale(1 1) rotate(0) translate(4 381.938)">
<title>remove_chain</title>
<polygon fill="white" stroke="none" points="-4,4 -4,-381.938 938,-381.938 938,4 -4,4"/>
<!-- Node1 -->
<g id="node1" class="node"><title>Node1</title>
<polygon fill="#bfbfbf" stroke="black" points="0.5,-149.187 0.5,-168.187 77.5,-168.187 77.5,-149.187 0.5,-149.187"/>
<text text-anchor="middle" x="39" y="-156.187" font-family="Helvetica,sans-Serif" font-size="10.00">remove_chain</text>
</g>
<!-- Node2 -->
<g id="node2" class="node"><title>Node2</title>
<g id="a_node2"><a xlink:href="ff_8c.html#a7519abb60fe91f6aa1d17f64fbae123a" target="_top" xlink:title="clust2sect">
<polygon fill="white" stroke="black" points="114,-206.187 114,-225.187 176,-225.187 176,-206.187 114,-206.187"/>
<text text-anchor="middle" x="145" y="-213.187" font-family="Helvetica,sans-Serif" font-size="10.00">clust2sect</text>
</a>
</g>
</g>
<!-- Node1&#45;&gt;Node2 -->
<g id="edge1" class="edge"><title>Node1&#45;&gt;Node2</title>
<path fill="none" stroke="midnightblue" d="M57.6422,-168.356C74.1016,-177.377 98.8737,-190.954 117.671,-201.257"/>
<polygon fill="midnightblue" stroke="midnightblue" points="116.167,-204.424 126.618,-206.161 119.531,-198.285 116.167,-204.424"/>
</g>
<!-- Node3 -->
<g id="node3" class="node"><title>Node3</title>
<g id="a_node3"><a xlink:href="diskio_8h.html#ab00fa450a811dbdabe3c655c1a36fab4" target="_top" xlink:title="disk_ioctl">
<polygon fill="white" stroke="black" points="442,-92.187 442,-111.187 500,-111.187 500,-92.187 442,-92.187"/>
<text text-anchor="middle" x="471" y="-99.187" font-family="Helvetica,sans-Serif" font-size="10.00">disk_ioctl</text>
</a>
</g>
</g>
<!-- Node1&#45;&gt;Node3 -->
<g id="edge2" class="edge"><title>Node1&#45;&gt;Node3</title>
<path fill="none" stroke="midnightblue" d="M54.2733,-149.034C68.6546,-139.884 91.8318,-126.676 114,-120.687 226.069,-90.4106 365.016,-94.2995 431.3,-98.5429"/>
<polygon fill="midnightblue" stroke="midnightblue" points="431.463,-102.062 441.678,-99.2491 431.938,-95.0781 431.463,-102.062"/>
</g>
<!-- Node13 -->
<g id="node13" class="node"><title>Node13</title>
<g id="a_node13"><a xlink:href="ff_8c.html#a65611adf1626e5e08da77cd33a98dd8b" target="_top" xlink:title="get_fat">
<polygon fill="white" stroke="black" points="121.5,-168.187 121.5,-187.187 168.5,-187.187 168.5,-168.187 121.5,-168.187"/>
<text text-anchor="middle" x="145" y="-175.187" font-family="Helvetica,sans-Serif" font-size="10.00">get_fat</text>
</a>
</g>
</g>
<!-- Node1&#45;&gt;Node13 -->
<g id="edge20" class="edge"><title>Node1&#45;&gt;Node13</title>
<path fill="none" stroke="midnightblue" d="M77.5464,-165.546C88.6575,-167.576 100.725,-169.781 111.49,-171.748"/>
<polygon fill="midnightblue" stroke="midnightblue" points="110.871,-175.192 121.337,-173.547 112.129,-168.306 110.871,-175.192"/>
</g>
<!-- Node19 -->
<g id="node19" class="node"><title>Node19</title>
<g id="a_node19"><a xlink:href="ff_8c.html#abd4b6b071a8d728a88727051c12bc6d7" target="_top" xlink:title="put_fat">
<polygon fill="white" stroke="black" points="121.5,-130.187 121.5,-149.187 168.5,-149.187 168.5,-130.187 121.5,-130.187"/>
<text text-anchor="middle" x="145" y="-137.187" font-family="Helvetica,sans-Serif" font-size="10.00">put_fat</text>
</a>
</g>
</g>
<!-- Node1&#45;&gt;Node19 -->
<g id="edge36" class="edge"><title>Node1&#45;&gt;Node19</title>
<path fill="none" stroke="midnightblue" d="M77.5464,-151.828C88.6575,-149.798 100.725,-147.593 111.49,-145.626"/>
<polygon fill="midnightblue" stroke="midnightblue" points="112.129,-149.068 121.337,-143.827 110.871,-142.182 112.129,-149.068"/>
</g>
<!-- Node4 -->
<g id="node4" class="node"><title>Node4</title>
<g id="a_node4"><a xlink:href="sdmm_8c.html#ac0eadae94de728461ccade9e03fafd8c" target="_top" xlink:title="deselect">
<polygon fill="white" stroke="black" points="779.5,-168.187 779.5,-187.187 832.5,-187.187 832.5,-168.187 779.5,-168.187"/>
<text text-anchor="middle" x="806" y="-175.187" font-family="Helvetica,sans-Serif" font-size="10.00">deselect</text>
</a>
</g>
</g>
<!-- Node3&#45;&gt;Node4 -->
<g id="edge3" class="edge"><title>Node3&#45;&gt;Node4</title>
<path fill="none" stroke="midnightblue" d="M500.16,-102.395C530.484,-103.559 580.029,-106.626 622,-114.687 674.885,-124.844 687.312,-131.503 738,-149.687 750.023,-154 763.024,-159.285 774.346,-164.097"/>
<polygon fill="midnightblue" stroke="midnightblue" points="773.227,-167.426 783.796,-168.168 775.997,-160.997 773.227,-167.426"/>
</g>
<!-- Node6 -->
<g id="node6" class="node"><title>Node6</title>
<g id="a_node6"><a xlink:href="sdmm_8c.html#a21ad8e9a107ea2000705a3edfebaaa2d" target="_top" xlink:title="disk_status">
<polygon fill="white" stroke="black" points="546.5,-168.187 546.5,-187.187 613.5,-187.187 613.5,-168.187 546.5,-168.187"/>
<text text-anchor="middle" x="580" y="-175.187" font-family="Helvetica,sans-Serif" font-size="10.00">disk_status</text>
</a>
</g>
</g>
<!-- Node3&#45;&gt;Node6 -->
<g id="edge5" class="edge"><title>Node3&#45;&gt;Node6</title>
<path fill="none" stroke="midnightblue" d="M485.552,-111.312C503.641,-124.161 535.888,-147.065 557.361,-162.317"/>
<polygon fill="midnightblue" stroke="midnightblue" points="555.379,-165.202 565.558,-168.14 559.432,-159.495 555.379,-165.202"/>
</g>
<!-- Node7 -->
<g id="node7" class="node"><title>Node7</title>
<g id="a_node7"><a xlink:href="sdmm_8c.html#a8c99afbc312912297b19752cf7e0960b" target="_top" xlink:title="rcvr_datablock">
<polygon fill="white" stroke="black" points="658,-16.187 658,-35.187 738,-35.187 738,-16.187 658,-16.187"/>
<text text-anchor="middle" x="698" y="-23.187" font-family="Helvetica,sans-Serif" font-size="10.00">rcvr_datablock</text>
</a>
</g>
</g>
<!-- Node3&#45;&gt;Node7 -->
<g id="edge6" class="edge"><title>Node3&#45;&gt;Node7</title>
<path fill="none" stroke="midnightblue" d="M475.594,-92.0018C483.433,-72.4901 504.124,-28.8533 538,-11.687 577.65,8.40514 630.037,-2.17823 663.632,-12.8838"/>
<polygon fill="midnightblue" stroke="midnightblue" points="662.826,-16.3052 673.42,-16.1763 665.058,-9.67055 662.826,-16.3052"/>
</g>
<!-- Node9 -->
<g id="node9" class="node"><title>Node9</title>
<g id="a_node9"><a xlink:href="sdmm_8c.html#ab45cb1d47cda5822ce492ad3c11867ae" target="_top" xlink:title="select">
<polygon fill="white" stroke="black" points="676.5,-244.187 676.5,-263.187 719.5,-263.187 719.5,-244.187 676.5,-244.187"/>
<text text-anchor="middle" x="698" y="-251.187" font-family="Helvetica,sans-Serif" font-size="10.00">select</text>
</a>
</g>
</g>
<!-- Node3&#45;&gt;Node9 -->
<g id="edge9" class="edge"><title>Node3&#45;&gt;Node9</title>
<path fill="none" stroke="midnightblue" d="M500.181,-107.588C532.083,-115.299 584.485,-131.172 622,-158.687 650.506,-179.595 673.936,-214.05 686.65,-235.218"/>
<polygon fill="midnightblue" stroke="midnightblue" points="683.658,-237.035 691.718,-243.912 689.706,-233.51 683.658,-237.035"/>
</g>
<!-- Node11 -->
<g id="node11" class="node"><title>Node11</title>
<g id="a_node11"><a xlink:href="sdmm_8c.html#a99684b493c8bfdb0288a2e24e52f6871" target="_top" xlink:title="send_cmd">
<polygon fill="white" stroke="black" points="549,-244.187 549,-263.187 611,-263.187 611,-244.187 549,-244.187"/>
<text text-anchor="middle" x="580" y="-251.187" font-family="Helvetica,sans-Serif" font-size="10.00">send_cmd</text>
</a>
</g>
</g>
<!-- Node3&#45;&gt;Node11 -->
<g id="edge15" class="edge"><title>Node3&#45;&gt;Node11</title>
<path fill="none" stroke="midnightblue" d="M478.694,-111.434C490.557,-128.683 516.089,-165.694 538,-196.687 547.328,-209.882 557.989,-224.696 566.102,-235.913"/>
<polygon fill="midnightblue" stroke="midnightblue" points="563.287,-237.994 571.987,-244.039 568.956,-233.887 563.287,-237.994"/>
</g>
<!-- Node5 -->
<g id="node5" class="node"><title>Node5</title>
<g id="a_node5"><a xlink:href="sdmm_8c.html#ab628371b03508f9db7c6daf1203ed84d" target="_top" xlink:title="rcvr_mmc">
<polygon fill="white" stroke="black" points="874,-225.187 874,-244.187 934,-244.187 934,-225.187 874,-225.187"/>
<text text-anchor="middle" x="904" y="-232.187" font-family="Helvetica,sans-Serif" font-size="10.00">rcvr_mmc</text>
</a>
</g>
</g>
<!-- Node4&#45;&gt;Node5 -->
<g id="edge4" class="edge"><title>Node4&#45;&gt;Node5</title>
<path fill="none" stroke="midnightblue" d="M823.285,-187.356C838.27,-196.254 860.72,-209.583 877.98,-219.832"/>
<polygon fill="midnightblue" stroke="midnightblue" points="876.57,-223.065 886.955,-225.161 880.144,-217.046 876.57,-223.065"/>
</g>
<!-- Node7&#45;&gt;Node5 -->
<g id="edge7" class="edge"><title>Node7&#45;&gt;Node5</title>
<path fill="none" stroke="midnightblue" d="M716.784,-35.225C723.697,-39.2857 731.501,-44.3225 738,-49.687 771.55,-77.3796 855.012,-176.708 888.63,-217.259"/>
<polygon fill="midnightblue" stroke="midnightblue" points="886.115,-219.709 895.186,-225.184 891.509,-215.248 886.115,-219.709"/>
</g>
<!-- Node8 -->
<g id="node8" class="node"><title>Node8</title>
<g id="a_node8"><a xlink:href="sdmm_8c.html#a76a43e01b9676630e121e5a659acbb3f" target="_top" xlink:title="dly_us">
<polygon fill="white" stroke="black" points="881.5,-101.187 881.5,-120.187 926.5,-120.187 926.5,-101.187 881.5,-101.187"/>
<text text-anchor="middle" x="904" y="-108.187" font-family="Helvetica,sans-Serif" font-size="10.00">dly_us</text>
</a>
</g>
</g>
<!-- Node7&#45;&gt;Node8 -->
<g id="edge8" class="edge"><title>Node7&#45;&gt;Node8</title>
<path fill="none" stroke="midnightblue" d="M722.005,-35.2724C758.759,-50.5866 830.773,-80.5923 872.021,-97.779"/>
<polygon fill="midnightblue" stroke="midnightblue" points="870.737,-101.036 881.314,-101.651 873.429,-94.5742 870.737,-101.036"/>
</g>
<!-- Node9&#45;&gt;Node4 -->
<g id="edge14" class="edge"><title>Node9&#45;&gt;Node4</title>
<path fill="none" stroke="midnightblue" d="M716.163,-244.086C723.136,-239.941 731.148,-234.861 738,-229.687 755.321,-216.607 756.667,-209.752 774,-196.687 775.626,-195.462 777.334,-194.244 779.078,-193.05"/>
<polygon fill="midnightblue" stroke="midnightblue" points="781.374,-195.734 787.88,-187.372 777.579,-189.852 781.374,-195.734"/>
</g>
<!-- Node9&#45;&gt;Node5 -->
<g id="edge10" class="edge"><title>Node9&#45;&gt;Node5</title>
<path fill="none" stroke="midnightblue" d="M719.683,-251.761C753.372,-248.623 820.642,-242.358 863.653,-238.352"/>
<polygon fill="midnightblue" stroke="midnightblue" points="864.133,-241.822 873.765,-237.41 863.483,-234.852 864.133,-241.822"/>
</g>
<!-- Node10 -->
<g id="node10" class="node"><title>Node10</title>
<g id="a_node10"><a xlink:href="sdmm_8c.html#a624a19e248af05530dae5c0cc1dddc11" target="_top" xlink:title="wait_ready">
<polygon fill="white" stroke="black" points="774,-206.187 774,-225.187 838,-225.187 838,-206.187 774,-206.187"/>
<text text-anchor="middle" x="806" y="-213.187" font-family="Helvetica,sans-Serif" font-size="10.00">wait_ready</text>
</a>
</g>
</g>
<!-- Node9&#45;&gt;Node10 -->
<g id="edge11" class="edge"><title>Node9&#45;&gt;Node10</title>
<path fill="none" stroke="midnightblue" d="M719.69,-246.27C733.56,-241.298 752.205,-234.613 768.527,-228.762"/>
<polygon fill="midnightblue" stroke="midnightblue" points="770.093,-231.919 778.326,-225.25 767.731,-225.33 770.093,-231.919"/>
</g>
<!-- Node10&#45;&gt;Node5 -->
<g id="edge12" class="edge"><title>Node10&#45;&gt;Node5</title>
<path fill="none" stroke="midnightblue" d="M838.168,-221.856C846.432,-223.491 855.458,-225.278 864.078,-226.984"/>
<polygon fill="midnightblue" stroke="midnightblue" points="863.452,-230.428 873.941,-228.936 864.811,-223.561 863.452,-230.428"/>
</g>
<!-- Node10&#45;&gt;Node8 -->
<g id="edge13" class="edge"><title>Node10&#45;&gt;Node8</title>
<path fill="none" stroke="midnightblue" d="M825.182,-206.106C829.608,-203.364 834.166,-200.165 838,-196.687 860.31,-176.449 880.26,-147.666 891.998,-129.082"/>
<polygon fill="midnightblue" stroke="midnightblue" points="895.087,-130.741 897.357,-120.392 889.129,-127.066 895.087,-130.741"/>
</g>
<!-- Node11&#45;&gt;Node4 -->
<g id="edge16" class="edge"><title>Node11&#45;&gt;Node4</title>
<path fill="none" stroke="midnightblue" d="M609.37,-244.062C650.194,-230.211 725.459,-204.674 769.784,-189.635"/>
<polygon fill="midnightblue" stroke="midnightblue" points="770.937,-192.94 779.282,-186.413 768.688,-186.311 770.937,-192.94"/>
</g>
<!-- Node11&#45;&gt;Node5 -->
<g id="edge19" class="edge"><title>Node11&#45;&gt;Node5</title>
<path fill="none" stroke="midnightblue" d="M611.04,-262.89C625.146,-266.748 642.281,-270.776 658,-272.687 737.729,-282.378 760.035,-275.974 838,-256.687 847.957,-254.224 858.568,-250.929 868.267,-247.641"/>
<polygon fill="midnightblue" stroke="midnightblue" points="869.691,-250.851 877.98,-244.252 867.385,-244.242 869.691,-250.851"/>
</g>
<!-- Node11&#45;&gt;Node9 -->
<g id="edge17" class="edge"><title>Node11&#45;&gt;Node9</title>
<path fill="none" stroke="midnightblue" d="M611.175,-253.687C628.186,-253.687 649.382,-253.687 666.453,-253.687"/>
<polygon fill="midnightblue" stroke="midnightblue" points="666.475,-257.187 676.475,-253.687 666.475,-250.187 666.475,-257.187"/>
</g>
<!-- Node12 -->
<g id="node12" class="node"><title>Node12</title>
<g id="a_node12"><a xlink:href="sdmm_8c.html#ace0af708caf7775204ca74fbd46818bb" target="_top" xlink:title="xmit_mmc">
<polygon fill="white" stroke="black" points="667,-320.187 667,-339.187 729,-339.187 729,-320.187 667,-320.187"/>
<text text-anchor="middle" x="698" y="-327.187" font-family="Helvetica,sans-Serif" font-size="10.00">xmit_mmc</text>
</a>
</g>
</g>
<!-- Node11&#45;&gt;Node12 -->
<g id="edge18" class="edge"><title>Node11&#45;&gt;Node12</title>
<path fill="none" stroke="midnightblue" d="M594.793,-263.259C610.111,-273.829 635.632,-291.261 658,-305.687 662.56,-308.628 667.46,-311.707 672.196,-314.64"/>
<polygon fill="midnightblue" stroke="midnightblue" points="670.613,-317.776 680.966,-320.03 674.278,-311.812 670.613,-317.776"/>
</g>
<!-- Node14 -->
<g id="node14" class="node"><title>Node14</title>
<g id="a_node14"><a xlink:href="ff_8c.html#af2e8986556ee6644b4bf31fa4158d735" target="_top" xlink:title="move_window">
<polygon fill="white" stroke="black" points="212.5,-168.187 212.5,-187.187 291.5,-187.187 291.5,-168.187 212.5,-168.187"/>
<text text-anchor="middle" x="252" y="-175.187" font-family="Helvetica,sans-Serif" font-size="10.00">move_window</text>
</a>
</g>
</g>
<!-- Node13&#45;&gt;Node14 -->
<g id="edge21" class="edge"><title>Node13&#45;&gt;Node14</title>
<path fill="none" stroke="midnightblue" d="M168.525,-177.687C178.406,-177.687 190.416,-177.687 202.18,-177.687"/>
<polygon fill="midnightblue" stroke="midnightblue" points="202.393,-181.187 212.393,-177.687 202.393,-174.187 202.393,-181.187"/>
</g>
<!-- Node15 -->
<g id="node15" class="node"><title>Node15</title>
<g id="a_node15"><a xlink:href="diskio_8h.html#ac0c802f8a12fa2047b4bec7109b9293f" target="_top" xlink:title="disk_read">
<polygon fill="white" stroke="black" points="441.5,-168.187 441.5,-187.187 500.5,-187.187 500.5,-168.187 441.5,-168.187"/>
<text text-anchor="middle" x="471" y="-175.187" font-family="Helvetica,sans-Serif" font-size="10.00">disk_read</text>
</a>
</g>
</g>
<!-- Node14&#45;&gt;Node15 -->
<g id="edge22" class="edge"><title>Node14&#45;&gt;Node15</title>
<path fill="none" stroke="midnightblue" d="M291.795,-177.687C331.187,-177.687 391.836,-177.687 431.221,-177.687"/>
<polygon fill="midnightblue" stroke="midnightblue" points="431.24,-181.187 441.24,-177.687 431.24,-174.187 431.24,-181.187"/>
</g>
<!-- Node16 -->
<g id="node16" class="node"><title>Node16</title>
<g id="a_node16"><a xlink:href="ff_8c.html#a5e18753404354b210096f9af99e31bc1" target="_top" xlink:title="sync_window">
<polygon fill="white" stroke="black" points="328,-206.187 328,-225.187 404,-225.187 404,-206.187 328,-206.187"/>
<text text-anchor="middle" x="366" y="-213.187" font-family="Helvetica,sans-Serif" font-size="10.00">sync_window</text>
</a>
</g>
</g>
<!-- Node14&#45;&gt;Node16 -->
<g id="edge27" class="edge"><title>Node14&#45;&gt;Node16</title>
<path fill="none" stroke="midnightblue" d="M281.262,-187.276C295.19,-192.001 312.18,-197.766 327.207,-202.864"/>
<polygon fill="midnightblue" stroke="midnightblue" points="326.152,-206.202 336.747,-206.101 328.401,-199.574 326.152,-206.202"/>
</g>
<!-- Node15&#45;&gt;Node4 -->
<g id="edge23" class="edge"><title>Node15&#45;&gt;Node4</title>
<path fill="none" stroke="midnightblue" d="M498.603,-168.186C510.491,-164.422 524.776,-160.553 538,-158.687 626.045,-146.266 649.772,-152.642 738,-163.687 748.239,-164.969 759.241,-166.992 769.31,-169.106"/>
<polygon fill="midnightblue" stroke="midnightblue" points="768.876,-172.594 779.394,-171.314 770.374,-165.756 768.876,-172.594"/>
</g>
<!-- Node15&#45;&gt;Node6 -->
<g id="edge24" class="edge"><title>Node15&#45;&gt;Node6</title>
<path fill="none" stroke="midnightblue" d="M500.674,-177.687C511.59,-177.687 524.279,-177.687 536.223,-177.687"/>
<polygon fill="midnightblue" stroke="midnightblue" points="536.465,-181.187 546.465,-177.687 536.465,-174.187 536.465,-181.187"/>
</g>
<!-- Node15&#45;&gt;Node7 -->
<g id="edge25" class="edge"><title>Node15&#45;&gt;Node7</title>
<path fill="none" stroke="midnightblue" d="M483.4,-168.101C496.336,-157.366 518.213,-139.646 538,-125.687 583.838,-93.3516 639.865,-59.32 671.692,-40.4717"/>
<polygon fill="midnightblue" stroke="midnightblue" points="673.541,-43.4448 680.377,-35.3501 669.985,-37.4152 673.541,-43.4448"/>
</g>
<!-- Node15&#45;&gt;Node11 -->
<g id="edge26" class="edge"><title>Node15&#45;&gt;Node11</title>
<path fill="none" stroke="midnightblue" d="M487.711,-187.336C492.357,-190.27 497.423,-193.55 502,-196.687 521.496,-210.051 543.074,-226.142 558.416,-237.815"/>
<polygon fill="midnightblue" stroke="midnightblue" points="556.595,-240.829 566.665,-244.123 560.848,-235.268 556.595,-240.829"/>
</g>
<!-- Node17 -->
<g id="node17" class="node"><title>Node17</title>
<g id="a_node17"><a xlink:href="diskio_8h.html#ac4785625f4bb82e33562079813659880" target="_top" xlink:title="disk_write">
<polygon fill="white" stroke="black" points="440.5,-206.187 440.5,-225.187 501.5,-225.187 501.5,-206.187 440.5,-206.187"/>
<text text-anchor="middle" x="471" y="-213.187" font-family="Helvetica,sans-Serif" font-size="10.00">disk_write</text>
</a>
</g>
</g>
<!-- Node16&#45;&gt;Node17 -->
<g id="edge28" class="edge"><title>Node16&#45;&gt;Node17</title>
<path fill="none" stroke="midnightblue" d="M404.185,-215.687C412.624,-215.687 421.621,-215.687 430.165,-215.687"/>
<polygon fill="midnightblue" stroke="midnightblue" points="430.295,-219.187 440.295,-215.687 430.294,-212.187 430.295,-219.187"/>
</g>
<!-- Node17&#45;&gt;Node4 -->
<g id="edge29" class="edge"><title>Node17&#45;&gt;Node4</title>
<path fill="none" stroke="midnightblue" d="M501.552,-212.315C562.744,-205.332 703.119,-189.313 769.271,-181.764"/>
<polygon fill="midnightblue" stroke="midnightblue" points="769.688,-185.239 779.227,-180.628 768.895,-178.285 769.688,-185.239"/>
</g>
<!-- Node17&#45;&gt;Node6 -->
<g id="edge30" class="edge"><title>Node17&#45;&gt;Node6</title>
<path fill="none" stroke="midnightblue" d="M499.001,-206.098C512.18,-201.418 528.229,-195.718 542.484,-190.655"/>
<polygon fill="midnightblue" stroke="midnightblue" points="543.756,-193.918 552.008,-187.273 541.413,-187.321 543.756,-193.918"/>
</g>
<!-- Node17&#45;&gt;Node11 -->
<g id="edge31" class="edge"><title>Node17&#45;&gt;Node11</title>
<path fill="none" stroke="midnightblue" d="M499.001,-225.276C512.18,-229.956 528.229,-235.656 542.484,-240.719"/>
<polygon fill="midnightblue" stroke="midnightblue" points="541.413,-244.053 552.008,-244.101 543.756,-237.456 541.413,-244.053"/>
</g>
<!-- Node18 -->
<g id="node18" class="node"><title>Node18</title>
<g id="a_node18"><a xlink:href="sdmm_8c.html#aefbd30f6bdff37184f58faf98ad1c6e0" target="_top" xlink:title="xmit_datablock">
<polygon fill="white" stroke="black" points="538.5,-339.187 538.5,-358.187 621.5,-358.187 621.5,-339.187 538.5,-339.187"/>
<text text-anchor="middle" x="580" y="-346.187" font-family="Helvetica,sans-Serif" font-size="10.00">xmit_datablock</text>
</a>
</g>
</g>
<!-- Node17&#45;&gt;Node18 -->
<g id="edge32" class="edge"><title>Node17&#45;&gt;Node18</title>
<path fill="none" stroke="midnightblue" d="M479.695,-225.252C497.5,-247.383 541.762,-302.4 564.703,-330.916"/>
<polygon fill="midnightblue" stroke="midnightblue" points="562.09,-333.252 571.086,-338.85 567.545,-328.864 562.09,-333.252"/>
</g>
<!-- Node18&#45;&gt;Node5 -->
<g id="edge35" class="edge"><title>Node18&#45;&gt;Node5</title>
<path fill="none" stroke="midnightblue" d="M603.263,-358.281C634.324,-370.234 692.02,-387.194 738,-370.687 804.428,-346.839 863.196,-283.401 889.042,-252.331"/>
<polygon fill="midnightblue" stroke="midnightblue" points="891.831,-254.448 895.438,-244.486 886.406,-250.025 891.831,-254.448"/>
</g>
<!-- Node18&#45;&gt;Node10 -->
<g id="edge33" class="edge"><title>Node18&#45;&gt;Node10</title>
<path fill="none" stroke="midnightblue" d="M614.379,-358.195C648.172,-365.768 700.636,-371.702 738,-348.687 778.584,-323.689 795.462,-265.719 801.731,-235.231"/>
<polygon fill="midnightblue" stroke="midnightblue" points="805.18,-235.829 803.584,-225.355 798.3,-234.537 805.18,-235.829"/>
</g>
<!-- Node18&#45;&gt;Node12 -->
<g id="edge34" class="edge"><title>Node18&#45;&gt;Node12</title>
<path fill="none" stroke="midnightblue" d="M621.571,-342.042C632.976,-340.174 645.372,-338.143 656.758,-336.278"/>
<polygon fill="midnightblue" stroke="midnightblue" points="657.57,-339.692 666.872,-334.622 656.438,-332.784 657.57,-339.692"/>
</g>
<!-- Node19&#45;&gt;Node14 -->
<g id="edge37" class="edge"><title>Node19&#45;&gt;Node14</title>
<path fill="none" stroke="midnightblue" d="M168.525,-147.839C181.97,-152.705 199.36,-158.998 214.703,-164.551"/>
<polygon fill="midnightblue" stroke="midnightblue" points="213.833,-167.958 224.428,-168.07 216.216,-161.376 213.833,-167.958"/>
</g>
</g>
</svg>
