<?xml version="1.0" encoding="UTF-8" standalone="no"?>
<!DOCTYPE svg PUBLIC "-//W3C//DTD SVG 1.1//EN"
 "http://www.w3.org/Graphics/SVG/1.1/DTD/svg11.dtd">
<!-- Generated by graphviz version 2.36.0 (20140111.2315)
 -->
<!-- Title: sd_card/ff.c Pages: 1 -->
<svg width="130pt" height="140pt"
 viewBox="0.00 0.00 130.00 140.00" xmlns="http://www.w3.org/2000/svg" xmlns:xlink="http://www.w3.org/1999/xlink">
<g id="graph0" class="graph" transform="scale(1 1) rotate(0) translate(4 136)">
<title>sd_card/ff.c</title>
<polygon fill="white" stroke="none" points="-4,4 -4,-136 126,-136 126,4 -4,4"/>
<!-- Node1 -->
<g id="node1" class="node"><title>Node1</title>
<polygon fill="#bfbfbf" stroke="black" points="22,-112.5 22,-131.5 90,-131.5 90,-112.5 22,-112.5"/>
<text text-anchor="middle" x="56" y="-119.5" font-family="Helvetica,sans-Serif" font-size="10.00">sd_card/ff.c</text>
</g>
<!-- Node2 -->
<g id="node2" class="node"><title>Node2</title>
<g id="a_node2"><a xlink:href="ff_8h.html" target="_top" xlink:title="ff.h">
<polygon fill="white" stroke="black" points="70.5,-56.5 70.5,-75.5 101.5,-75.5 101.5,-56.5 70.5,-56.5"/>
<text text-anchor="middle" x="86" y="-63.5" font-family="Helvetica,sans-Serif" font-size="10.00">ff.h</text>
</a>
</g>
</g>
<!-- Node1&#45;&gt;Node2 -->
<g id="edge1" class="edge"><title>Node1&#45;&gt;Node2</title>
<path fill="none" stroke="midnightblue" d="M60.9539,-112.083C65.1041,-104.613 71.1531,-93.7244 76.2667,-84.5199"/>
<polygon fill="midnightblue" stroke="midnightblue" points="79.3414,-86.1924 81.1383,-75.7511 73.2223,-82.7929 79.3414,-86.1924"/>
</g>
<!-- Node5 -->
<g id="node5" class="node"><title>Node5</title>
<g id="a_node5"><a xlink:href="diskio_8h.html" target="_top" xlink:title="diskio.h">
<polygon fill="white" stroke="black" points="2,-56.5 2,-75.5 52,-75.5 52,-56.5 2,-56.5"/>
<text text-anchor="middle" x="27" y="-63.5" font-family="Helvetica,sans-Serif" font-size="10.00">diskio.h</text>
</a>
</g>
</g>
<!-- Node1&#45;&gt;Node5 -->
<g id="edge4" class="edge"><title>Node1&#45;&gt;Node5</title>
<path fill="none" stroke="midnightblue" d="M51.2112,-112.083C47.2416,-104.691 41.4749,-93.9533 36.5652,-84.8111"/>
<polygon fill="midnightblue" stroke="midnightblue" points="39.5145,-82.9051 31.6997,-75.7511 33.3475,-86.217 39.5145,-82.9051"/>
</g>
<!-- Node3 -->
<g id="node3" class="node"><title>Node3</title>
<g id="a_node3"><a xlink:href="integer_8h.html" target="_top" xlink:title="integer.h">
<polygon fill="white" stroke="black" points="0,-0.5 0,-19.5 54,-19.5 54,-0.5 0,-0.5"/>
<text text-anchor="middle" x="27" y="-7.5" font-family="Helvetica,sans-Serif" font-size="10.00">integer.h</text>
</a>
</g>
</g>
<!-- Node2&#45;&gt;Node3 -->
<g id="edge2" class="edge"><title>Node2&#45;&gt;Node3</title>
<path fill="none" stroke="midnightblue" d="M76.5206,-56.324C67.7989,-48.3414 54.6565,-36.3128 44.1022,-26.6529"/>
<polygon fill="midnightblue" stroke="midnightblue" points="46.3917,-24.0036 36.6519,-19.8339 41.6655,-29.1674 46.3917,-24.0036"/>
</g>
<!-- Node4 -->
<g id="node4" class="node"><title>Node4</title>
<g id="a_node4"><a xlink:href="ffconf_8h.html" target="_top" xlink:title="ffconf.h">
<polygon fill="white" stroke="black" points="72,-0.5 72,-19.5 122,-19.5 122,-0.5 72,-0.5"/>
<text text-anchor="middle" x="97" y="-7.5" font-family="Helvetica,sans-Serif" font-size="10.00">ffconf.h</text>
</a>
</g>
</g>
<!-- Node2&#45;&gt;Node4 -->
<g id="edge3" class="edge"><title>Node2&#45;&gt;Node4</title>
<path fill="none" stroke="midnightblue" d="M87.8164,-56.083C89.2741,-48.9272 91.3706,-38.6353 93.1925,-29.6911"/>
<polygon fill="midnightblue" stroke="midnightblue" points="96.6508,-30.2485 95.2174,-19.7511 89.7917,-28.8512 96.6508,-30.2485"/>
</g>
<!-- Node5&#45;&gt;Node3 -->
<g id="edge5" class="edge"><title>Node5&#45;&gt;Node3</title>
<path fill="none" stroke="midnightblue" d="M27,-56.083C27,-49.0059 27,-38.8611 27,-29.9865"/>
<polygon fill="midnightblue" stroke="midnightblue" points="30.5001,-29.751 27,-19.7511 23.5001,-29.7511 30.5001,-29.751"/>
</g>
</g>
</svg>
