<?xml version="1.0" encoding="UTF-8" standalone="no"?>
<!DOCTYPE svg PUBLIC "-//W3C//DTD SVG 1.1//EN"
 "http://www.w3.org/Graphics/SVG/1.1/DTD/svg11.dtd">
<!-- Generated by graphviz version 2.36.0 (20140111.2315)
 -->
<!-- Title: sync_fs Pages: 1 -->
<svg width="700pt" height="290pt"
 viewBox="0.00 0.00 700.00 290.39" xmlns="http://www.w3.org/2000/svg" xmlns:xlink="http://www.w3.org/1999/xlink">
<g id="graph0" class="graph" transform="scale(1 1) rotate(0) translate(4 286.393)">
<title>sync_fs</title>
<polygon fill="white" stroke="none" points="-4,4 -4,-286.393 696,-286.393 696,4 -4,4"/>
<!-- Node1 -->
<g id="node1" class="node"><title>Node1</title>
<polygon fill="#bfbfbf" stroke="black" points="0.5,-129.893 0.5,-148.893 51.5,-148.893 51.5,-129.893 0.5,-129.893"/>
<text text-anchor="middle" x="26" y="-136.893" font-family="Helvetica,sans-Serif" font-size="10.00">sync_fs</text>
</g>
<!-- Node2 -->
<g id="node2" class="node"><title>Node2</title>
<g id="a_node2"><a xlink:href="diskio_8h.html#ab00fa450a811dbdabe3c655c1a36fab4" target="_top" xlink:title="disk_ioctl">
<polygon fill="white" stroke="black" points="202,-186.893 202,-205.893 260,-205.893 260,-186.893 202,-186.893"/>
<text text-anchor="middle" x="231" y="-193.893" font-family="Helvetica,sans-Serif" font-size="10.00">disk_ioctl</text>
</a>
</g>
</g>
<!-- Node1&#45;&gt;Node2 -->
<g id="edge1" class="edge"><title>Node1&#45;&gt;Node2</title>
<path fill="none" stroke="midnightblue" d="M51.8918,-146.382C87.0049,-156.241 151.362,-174.312 192.343,-185.819"/>
<polygon fill="midnightblue" stroke="midnightblue" points="191.4,-189.189 201.974,-188.523 193.292,-182.45 191.4,-189.189"/>
</g>
<!-- Node12 -->
<g id="node12" class="node"><title>Node12</title>
<g id="a_node12"><a xlink:href="diskio_8h.html#ac4785625f4bb82e33562079813659880" target="_top" xlink:title="disk_write">
<polygon fill="white" stroke="black" points="200.5,-110.893 200.5,-129.893 261.5,-129.893 261.5,-110.893 200.5,-110.893"/>
<text text-anchor="middle" x="231" y="-117.893" font-family="Helvetica,sans-Serif" font-size="10.00">disk_write</text>
</a>
</g>
</g>
<!-- Node1&#45;&gt;Node12 -->
<g id="edge19" class="edge"><title>Node1&#45;&gt;Node12</title>
<path fill="none" stroke="midnightblue" d="M51.8953,-141.471C79.4604,-143.29 125.14,-144.875 164,-139.393 173.814,-138.008 184.214,-135.519 193.784,-132.79"/>
<polygon fill="midnightblue" stroke="midnightblue" points="194.831,-136.129 203.397,-129.894 192.812,-129.427 194.831,-136.129"/>
</g>
<!-- Node14 -->
<g id="node14" class="node"><title>Node14</title>
<g id="a_node14"><a xlink:href="ff_8c.html#a02eb5189e43056a9ddc8a59cbe89be93" target="_top" xlink:title="mem_set">
<polygon fill="white" stroke="black" points="97.5,-72.8925 97.5,-91.8925 154.5,-91.8925 154.5,-72.8925 97.5,-72.8925"/>
<text text-anchor="middle" x="126" y="-79.8925" font-family="Helvetica,sans-Serif" font-size="10.00">mem_set</text>
</a>
</g>
</g>
<!-- Node1&#45;&gt;Node14 -->
<g id="edge27" class="edge"><title>Node1&#45;&gt;Node14</title>
<path fill="none" stroke="midnightblue" d="M41.8326,-129.672C54.0581,-121.778 71.9361,-110.5 88,-101.393 90.7384,-99.84 93.6172,-98.2652 96.509,-96.7209"/>
<polygon fill="midnightblue" stroke="midnightblue" points="98.3909,-99.6867 105.635,-91.9555 95.1508,-93.4816 98.3909,-99.6867"/>
</g>
<!-- Node15 -->
<g id="node15" class="node"><title>Node15</title>
<g id="a_node15"><a xlink:href="ff_8c.html#a5e18753404354b210096f9af99e31bc1" target="_top" xlink:title="sync_window">
<polygon fill="white" stroke="black" points="88,-110.893 88,-129.893 164,-129.893 164,-110.893 88,-110.893"/>
<text text-anchor="middle" x="126" y="-117.893" font-family="Helvetica,sans-Serif" font-size="10.00">sync_window</text>
</a>
</g>
</g>
<!-- Node1&#45;&gt;Node15 -->
<g id="edge28" class="edge"><title>Node1&#45;&gt;Node15</title>
<path fill="none" stroke="midnightblue" d="M51.7295,-134.598C59.6395,-133.064 68.6784,-131.312 77.6439,-129.574"/>
<polygon fill="midnightblue" stroke="midnightblue" points="78.5198,-132.969 87.6708,-127.63 77.1874,-126.097 78.5198,-132.969"/>
</g>
<!-- Node3 -->
<g id="node3" class="node"><title>Node3</title>
<g id="a_node3"><a xlink:href="sdmm_8c.html#ac0eadae94de728461ccade9e03fafd8c" target="_top" xlink:title="deselect">
<polygon fill="white" stroke="black" points="529.5,-186.893 529.5,-205.893 582.5,-205.893 582.5,-186.893 529.5,-186.893"/>
<text text-anchor="middle" x="556" y="-193.893" font-family="Helvetica,sans-Serif" font-size="10.00">deselect</text>
</a>
</g>
</g>
<!-- Node2&#45;&gt;Node3 -->
<g id="edge2" class="edge"><title>Node2&#45;&gt;Node3</title>
<path fill="none" stroke="midnightblue" d="M260.087,-203.434C271.741,-206.072 285.449,-208.811 298,-210.393 378.285,-220.508 399.702,-225.405 480,-215.393 493.017,-213.769 507.016,-210.62 519.355,-207.344"/>
<polygon fill="midnightblue" stroke="midnightblue" points="520.57,-210.64 529.27,-204.594 518.699,-203.894 520.57,-210.64"/>
</g>
<!-- Node5 -->
<g id="node5" class="node"><title>Node5</title>
<g id="a_node5"><a xlink:href="sdmm_8c.html#a21ad8e9a107ea2000705a3edfebaaa2d" target="_top" xlink:title="disk_status">
<polygon fill="white" stroke="black" points="306.5,-148.893 306.5,-167.893 373.5,-167.893 373.5,-148.893 306.5,-148.893"/>
<text text-anchor="middle" x="340" y="-155.893" font-family="Helvetica,sans-Serif" font-size="10.00">disk_status</text>
</a>
</g>
</g>
<!-- Node2&#45;&gt;Node5 -->
<g id="edge4" class="edge"><title>Node2&#45;&gt;Node5</title>
<path fill="none" stroke="midnightblue" d="M259.001,-186.804C272.18,-182.123 288.229,-176.423 302.484,-171.361"/>
<polygon fill="midnightblue" stroke="midnightblue" points="303.756,-174.623 312.008,-167.978 301.413,-168.027 303.756,-174.623"/>
</g>
<!-- Node6 -->
<g id="node6" class="node"><title>Node6</title>
<g id="a_node6"><a xlink:href="sdmm_8c.html#a8c99afbc312912297b19752cf7e0960b" target="_top" xlink:title="rcvr_datablock">
<polygon fill="white" stroke="black" points="516,-262.893 516,-281.893 596,-281.893 596,-262.893 516,-262.893"/>
<text text-anchor="middle" x="556" y="-269.893" font-family="Helvetica,sans-Serif" font-size="10.00">rcvr_datablock</text>
</a>
</g>
</g>
<!-- Node2&#45;&gt;Node6 -->
<g id="edge5" class="edge"><title>Node2&#45;&gt;Node6</title>
<path fill="none" stroke="midnightblue" d="M248.28,-205.893C261.32,-213.103 280.297,-222.712 298,-228.393 368.311,-250.954 453.367,-262.629 505.828,-268.13"/>
<polygon fill="midnightblue" stroke="midnightblue" points="505.57,-271.621 515.872,-269.149 506.277,-264.657 505.57,-271.621"/>
</g>
<!-- Node8 -->
<g id="node8" class="node"><title>Node8</title>
<g id="a_node8"><a xlink:href="sdmm_8c.html#ab45cb1d47cda5822ce492ad3c11867ae" target="_top" xlink:title="select">
<polygon fill="white" stroke="black" points="427.5,-186.893 427.5,-205.893 470.5,-205.893 470.5,-186.893 427.5,-186.893"/>
<text text-anchor="middle" x="449" y="-193.893" font-family="Helvetica,sans-Serif" font-size="10.00">select</text>
</a>
</g>
</g>
<!-- Node2&#45;&gt;Node8 -->
<g id="edge8" class="edge"><title>Node2&#45;&gt;Node8</title>
<path fill="none" stroke="midnightblue" d="M260.238,-196.393C300.739,-196.393 375.052,-196.393 417.02,-196.393"/>
<polygon fill="midnightblue" stroke="midnightblue" points="417.2,-199.893 427.2,-196.393 417.2,-192.893 417.2,-199.893"/>
</g>
<!-- Node10 -->
<g id="node10" class="node"><title>Node10</title>
<g id="a_node10"><a xlink:href="sdmm_8c.html#a99684b493c8bfdb0288a2e24e52f6871" target="_top" xlink:title="send_cmd">
<polygon fill="white" stroke="black" points="309,-110.893 309,-129.893 371,-129.893 371,-110.893 309,-110.893"/>
<text text-anchor="middle" x="340" y="-117.893" font-family="Helvetica,sans-Serif" font-size="10.00">send_cmd</text>
</a>
</g>
</g>
<!-- Node2&#45;&gt;Node10 -->
<g id="edge14" class="edge"><title>Node2&#45;&gt;Node10</title>
<path fill="none" stroke="midnightblue" d="M241.588,-186.57C253.848,-174.391 276.121,-153.514 298,-139.393 300.618,-137.703 303.411,-136.08 306.261,-134.544"/>
<polygon fill="midnightblue" stroke="midnightblue" points="308.042,-137.566 315.416,-129.958 304.907,-131.307 308.042,-137.566"/>
</g>
<!-- Node4 -->
<g id="node4" class="node"><title>Node4</title>
<g id="a_node4"><a xlink:href="sdmm_8c.html#ab628371b03508f9db7c6daf1203ed84d" target="_top" xlink:title="rcvr_mmc">
<polygon fill="white" stroke="black" points="632,-167.893 632,-186.893 692,-186.893 692,-167.893 632,-167.893"/>
<text text-anchor="middle" x="662" y="-174.893" font-family="Helvetica,sans-Serif" font-size="10.00">rcvr_mmc</text>
</a>
</g>
</g>
<!-- Node3&#45;&gt;Node4 -->
<g id="edge3" class="edge"><title>Node3&#45;&gt;Node4</title>
<path fill="none" stroke="midnightblue" d="M582.708,-191.696C594.479,-189.545 608.689,-186.949 621.754,-184.563"/>
<polygon fill="midnightblue" stroke="midnightblue" points="622.71,-187.946 631.918,-182.706 621.452,-181.06 622.71,-187.946"/>
</g>
<!-- Node6&#45;&gt;Node4 -->
<g id="edge6" class="edge"><title>Node6&#45;&gt;Node4</title>
<path fill="none" stroke="midnightblue" d="M574.787,-262.858C581.701,-258.798 589.504,-253.76 596,-248.393 615.6,-232.197 634.861,-210.175 647.263,-194.972"/>
<polygon fill="midnightblue" stroke="midnightblue" points="650.205,-196.897 653.724,-186.904 644.741,-192.522 650.205,-196.897"/>
</g>
<!-- Node7 -->
<g id="node7" class="node"><title>Node7</title>
<g id="a_node7"><a xlink:href="sdmm_8c.html#a76a43e01b9676630e121e5a659acbb3f" target="_top" xlink:title="dly_us">
<polygon fill="white" stroke="black" points="639.5,-243.893 639.5,-262.893 684.5,-262.893 684.5,-243.893 639.5,-243.893"/>
<text text-anchor="middle" x="662" y="-250.893" font-family="Helvetica,sans-Serif" font-size="10.00">dly_us</text>
</a>
</g>
</g>
<!-- Node6&#45;&gt;Node7 -->
<g id="edge7" class="edge"><title>Node6&#45;&gt;Node7</title>
<path fill="none" stroke="midnightblue" d="M596.022,-265.264C607.002,-263.258 618.806,-261.101 629.302,-259.184"/>
<polygon fill="midnightblue" stroke="midnightblue" points="630.074,-262.6 639.282,-257.36 628.816,-255.714 630.074,-262.6"/>
</g>
<!-- Node8&#45;&gt;Node3 -->
<g id="edge13" class="edge"><title>Node8&#45;&gt;Node3</title>
<path fill="none" stroke="midnightblue" d="M470.745,-196.393C484.57,-196.393 503.102,-196.393 519.265,-196.393"/>
<polygon fill="midnightblue" stroke="midnightblue" points="519.471,-199.893 529.471,-196.393 519.471,-192.893 519.471,-199.893"/>
</g>
<!-- Node8&#45;&gt;Node4 -->
<g id="edge9" class="edge"><title>Node8&#45;&gt;Node4</title>
<path fill="none" stroke="midnightblue" d="M470.654,-204.083C499.254,-213.61 552.331,-227.221 596,-215.393 612.244,-210.993 628.59,-201.407 640.827,-192.964"/>
<polygon fill="midnightblue" stroke="midnightblue" points="642.884,-195.796 648.95,-187.109 638.791,-190.117 642.884,-195.796"/>
</g>
<!-- Node9 -->
<g id="node9" class="node"><title>Node9</title>
<g id="a_node9"><a xlink:href="sdmm_8c.html#a624a19e248af05530dae5c0cc1dddc11" target="_top" xlink:title="wait_ready">
<polygon fill="white" stroke="black" points="524,-148.893 524,-167.893 588,-167.893 588,-148.893 524,-148.893"/>
<text text-anchor="middle" x="556" y="-155.893" font-family="Helvetica,sans-Serif" font-size="10.00">wait_ready</text>
</a>
</g>
</g>
<!-- Node8&#45;&gt;Node9 -->
<g id="edge10" class="edge"><title>Node8&#45;&gt;Node9</title>
<path fill="none" stroke="midnightblue" d="M470.745,-188.885C484.504,-183.905 502.924,-177.239 519.033,-171.409"/>
<polygon fill="midnightblue" stroke="midnightblue" points="520.489,-174.605 528.701,-167.91 518.107,-168.022 520.489,-174.605"/>
</g>
<!-- Node9&#45;&gt;Node4 -->
<g id="edge11" class="edge"><title>Node9&#45;&gt;Node4</title>
<path fill="none" stroke="midnightblue" d="M588.203,-164.093C598.831,-166.035 610.846,-168.23 622.007,-170.269"/>
<polygon fill="midnightblue" stroke="midnightblue" points="621.486,-173.732 631.952,-172.086 622.744,-166.845 621.486,-173.732"/>
</g>
<!-- Node9&#45;&gt;Node7 -->
<g id="edge12" class="edge"><title>Node9&#45;&gt;Node7</title>
<path fill="none" stroke="midnightblue" d="M580.605,-167.963C585.917,-170.631 591.353,-173.799 596,-177.393 617.554,-194.062 637.109,-218.855 649.016,-235.547"/>
<polygon fill="midnightblue" stroke="midnightblue" points="646.228,-237.669 654.808,-243.884 651.977,-233.675 646.228,-237.669"/>
</g>
<!-- Node10&#45;&gt;Node3 -->
<g id="edge15" class="edge"><title>Node10&#45;&gt;Node3</title>
<path fill="none" stroke="midnightblue" d="M368.103,-130.018C406.628,-143.7 477.258,-168.783 519.792,-183.889"/>
<polygon fill="midnightblue" stroke="midnightblue" points="518.854,-187.27 529.449,-187.318 521.197,-180.673 518.854,-187.27"/>
</g>
<!-- Node10&#45;&gt;Node4 -->
<g id="edge18" class="edge"><title>Node10&#45;&gt;Node4</title>
<path fill="none" stroke="midnightblue" d="M371.262,-118.315C419.864,-115.929 517.793,-115.055 596,-139.393 611.715,-144.283 627.694,-153.555 639.877,-161.715"/>
<polygon fill="midnightblue" stroke="midnightblue" points="638.182,-164.8 648.386,-167.648 642.185,-159.057 638.182,-164.8"/>
</g>
<!-- Node10&#45;&gt;Node8 -->
<g id="edge16" class="edge"><title>Node10&#45;&gt;Node8</title>
<path fill="none" stroke="midnightblue" d="M365.086,-130.05C370.815,-132.751 376.778,-135.911 382,-139.393 400.06,-151.431 401.516,-158.272 418,-172.393 421.103,-175.05 424.438,-177.81 427.717,-180.471"/>
<polygon fill="midnightblue" stroke="midnightblue" points="425.592,-183.254 435.587,-186.767 429.965,-177.787 425.592,-183.254"/>
</g>
<!-- Node11 -->
<g id="node11" class="node"><title>Node11</title>
<g id="a_node11"><a xlink:href="sdmm_8c.html#ace0af708caf7775204ca74fbd46818bb" target="_top" xlink:title="xmit_mmc">
<polygon fill="white" stroke="black" points="418,-34.8925 418,-53.8925 480,-53.8925 480,-34.8925 418,-34.8925"/>
<text text-anchor="middle" x="449" y="-41.8925" font-family="Helvetica,sans-Serif" font-size="10.00">xmit_mmc</text>
</a>
</g>
</g>
<!-- Node10&#45;&gt;Node11 -->
<g id="edge17" class="edge"><title>Node10&#45;&gt;Node11</title>
<path fill="none" stroke="midnightblue" d="M354.552,-110.767C372.641,-97.9184 404.888,-75.0144 426.361,-59.7621"/>
<polygon fill="midnightblue" stroke="midnightblue" points="428.432,-62.5841 434.558,-53.9398 424.379,-56.8771 428.432,-62.5841"/>
</g>
<!-- Node12&#45;&gt;Node3 -->
<g id="edge20" class="edge"><title>Node12&#45;&gt;Node3</title>
<path fill="none" stroke="midnightblue" d="M258.603,-110.891C270.491,-107.128 284.776,-103.258 298,-101.393 334.967,-96.1774 345.462,-93.7291 382,-101.393 428.551,-111.156 440.155,-118.417 480,-144.393 498.183,-156.246 498.057,-165.179 516,-177.393 518.393,-179.022 520.947,-180.59 523.559,-182.079"/>
<polygon fill="midnightblue" stroke="midnightblue" points="522.039,-185.234 532.517,-186.808 525.308,-179.044 522.039,-185.234"/>
</g>
<!-- Node12&#45;&gt;Node5 -->
<g id="edge21" class="edge"><title>Node12&#45;&gt;Node5</title>
<path fill="none" stroke="midnightblue" d="M259.001,-129.982C272.18,-134.662 288.229,-140.362 302.484,-145.424"/>
<polygon fill="midnightblue" stroke="midnightblue" points="301.413,-148.758 312.008,-148.807 303.756,-142.162 301.413,-148.758"/>
</g>
<!-- Node12&#45;&gt;Node10 -->
<g id="edge22" class="edge"><title>Node12&#45;&gt;Node10</title>
<path fill="none" stroke="midnightblue" d="M261.521,-120.393C273.023,-120.393 286.389,-120.393 298.749,-120.393"/>
<polygon fill="midnightblue" stroke="midnightblue" points="298.831,-123.893 308.831,-120.393 298.831,-116.893 298.831,-123.893"/>
</g>
<!-- Node13 -->
<g id="node13" class="node"><title>Node13</title>
<g id="a_node13"><a xlink:href="sdmm_8c.html#aefbd30f6bdff37184f58faf98ad1c6e0" target="_top" xlink:title="xmit_datablock">
<polygon fill="white" stroke="black" points="298.5,-15.8925 298.5,-34.8925 381.5,-34.8925 381.5,-15.8925 298.5,-15.8925"/>
<text text-anchor="middle" x="340" y="-22.8925" font-family="Helvetica,sans-Serif" font-size="10.00">xmit_datablock</text>
</a>
</g>
</g>
<!-- Node12&#45;&gt;Node13 -->
<g id="edge23" class="edge"><title>Node12&#45;&gt;Node13</title>
<path fill="none" stroke="midnightblue" d="M243.048,-110.584C261.404,-94.2861 298.369,-61.4667 320.677,-41.6602"/>
<polygon fill="midnightblue" stroke="midnightblue" points="323.017,-44.2632 328.172,-35.0065 318.37,-39.0286 323.017,-44.2632"/>
</g>
<!-- Node13&#45;&gt;Node4 -->
<g id="edge26" class="edge"><title>Node13&#45;&gt;Node4</title>
<path fill="none" stroke="midnightblue" d="M363.507,-15.8733C391.716,-5.40586 441.086,8.01647 480,-7.39253 558.706,-38.5582 623.161,-121.931 648.921,-159.086"/>
<polygon fill="midnightblue" stroke="midnightblue" points="646.107,-161.172 654.622,-167.476 651.897,-157.238 646.107,-161.172"/>
</g>
<!-- Node13&#45;&gt;Node9 -->
<g id="edge24" class="edge"><title>Node13&#45;&gt;Node9</title>
<path fill="none" stroke="midnightblue" d="M377.278,-15.8876C406.958,-10.232 448.952,-7.2566 480,-25.3925 522.199,-50.0423 542.515,-108.165 550.581,-138.766"/>
<polygon fill="midnightblue" stroke="midnightblue" points="547.232,-139.805 553.016,-148.682 554.03,-138.136 547.232,-139.805"/>
</g>
<!-- Node13&#45;&gt;Node11 -->
<g id="edge25" class="edge"><title>Node13&#45;&gt;Node11</title>
<path fill="none" stroke="midnightblue" d="M381.757,-32.6298C390.239,-34.1359 399.174,-35.7225 407.641,-37.2259"/>
<polygon fill="midnightblue" stroke="midnightblue" points="407.217,-40.7053 417.675,-39.0076 408.441,-33.8131 407.217,-40.7053"/>
</g>
<!-- Node15&#45;&gt;Node12 -->
<g id="edge29" class="edge"><title>Node15&#45;&gt;Node12</title>
<path fill="none" stroke="midnightblue" d="M164.185,-120.393C172.624,-120.393 181.621,-120.393 190.165,-120.393"/>
<polygon fill="midnightblue" stroke="midnightblue" points="190.295,-123.893 200.295,-120.393 190.294,-116.893 190.295,-123.893"/>
</g>
</g>
</svg>
