<?xml version="1.0" encoding="UTF-8" standalone="no"?>
<!DOCTYPE svg PUBLIC "-//W3C//DTD SVG 1.1//EN"
 "http://www.w3.org/Graphics/SVG/1.1/DTD/svg11.dtd">
<!-- Generated by graphviz version 2.36.0 (20140111.2315)
 -->
<!-- Title: create_name Pages: 1 -->
<svg width="176pt" height="66pt"
 viewBox="0.00 0.00 176.00 66.00" xmlns="http://www.w3.org/2000/svg" xmlns:xlink="http://www.w3.org/1999/xlink">
<g id="graph0" class="graph" transform="scale(1 1) rotate(0) translate(4 62)">
<title>create_name</title>
<polygon fill="white" stroke="none" points="-4,4 -4,-62 172,-62 172,4 -4,4"/>
<!-- Node1 -->
<g id="node1" class="node"><title>Node1</title>
<polygon fill="#bfbfbf" stroke="black" points="0.5,-19.5 0.5,-38.5 73.5,-38.5 73.5,-19.5 0.5,-19.5"/>
<text text-anchor="middle" x="37" y="-26.5" font-family="Helvetica,sans-Serif" font-size="10.00">create_name</text>
</g>
<!-- Node2 -->
<g id="node2" class="node"><title>Node2</title>
<g id="a_node2"><a xlink:href="ff_8c.html#a1a60c4200d040e4f47e87dc927f23d14" target="_top" xlink:title="chk_chr">
<polygon fill="white" stroke="black" points="113.5,-38.5 113.5,-57.5 164.5,-57.5 164.5,-38.5 113.5,-38.5"/>
<text text-anchor="middle" x="139" y="-45.5" font-family="Helvetica,sans-Serif" font-size="10.00">chk_chr</text>
</a>
</g>
</g>
<!-- Node1&#45;&gt;Node2 -->
<g id="edge1" class="edge"><title>Node1&#45;&gt;Node2</title>
<path fill="none" stroke="midnightblue" d="M73.5378,-35.7522C83.1849,-37.5851 93.6178,-39.5674 103.222,-41.3922"/>
<polygon fill="midnightblue" stroke="midnightblue" points="102.765,-44.8679 113.243,-43.2961 104.072,-37.991 102.765,-44.8679"/>
</g>
<!-- Node3 -->
<g id="node3" class="node"><title>Node3</title>
<g id="a_node3"><a xlink:href="ff_8c.html#a02eb5189e43056a9ddc8a59cbe89be93" target="_top" xlink:title="mem_set">
<polygon fill="white" stroke="black" points="110.5,-0.5 110.5,-19.5 167.5,-19.5 167.5,-0.5 110.5,-0.5"/>
<text text-anchor="middle" x="139" y="-7.5" font-family="Helvetica,sans-Serif" font-size="10.00">mem_set</text>
</a>
</g>
</g>
<!-- Node1&#45;&gt;Node3 -->
<g id="edge2" class="edge"><title>Node1&#45;&gt;Node3</title>
<path fill="none" stroke="midnightblue" d="M73.5378,-22.2478C82.2533,-20.5919 91.6102,-18.8141 100.418,-17.1405"/>
<polygon fill="midnightblue" stroke="midnightblue" points="101.264,-20.5426 110.435,-15.2374 99.9571,-13.6656 101.264,-20.5426"/>
</g>
</g>
</svg>
