<?xml version="1.0" encoding="UTF-8" standalone="no"?>
<!DOCTYPE svg PUBLIC "-//W3C//DTD SVG 1.1//EN"
 "http://www.w3.org/Graphics/SVG/1.1/DTD/svg11.dtd">
<!-- Generated by graphviz version 2.36.0 (20140111.2315)
 -->
<!-- Title: dir_sdi Pages: 1 -->
<svg width="908pt" height="249pt"
 viewBox="0.00 0.00 908.00 248.76" xmlns="http://www.w3.org/2000/svg" xmlns:xlink="http://www.w3.org/1999/xlink">
<g id="graph0" class="graph" transform="scale(1 1) rotate(0) translate(4 244.761)">
<title>dir_sdi</title>
<polygon fill="white" stroke="none" points="-4,4 -4,-244.761 904,-244.761 904,4 -4,4"/>
<!-- Node1 -->
<g id="node1" class="node"><title>Node1</title>
<polygon fill="#bfbfbf" stroke="black" points="0.5,-182.675 0.5,-201.675 45.5,-201.675 45.5,-182.675 0.5,-182.675"/>
<text text-anchor="middle" x="23" y="-189.675" font-family="Helvetica,sans-Serif" font-size="10.00">dir_sdi</text>
</g>
<!-- Node2 -->
<g id="node2" class="node"><title>Node2</title>
<g id="a_node2"><a xlink:href="ff_8c.html#a7519abb60fe91f6aa1d17f64fbae123a" target="_top" xlink:title="clust2sect">
<polygon fill="white" stroke="black" points="82,-201.675 82,-220.675 144,-220.675 144,-201.675 82,-201.675"/>
<text text-anchor="middle" x="113" y="-208.675" font-family="Helvetica,sans-Serif" font-size="10.00">clust2sect</text>
</a>
</g>
</g>
<!-- Node1&#45;&gt;Node2 -->
<g id="edge1" class="edge"><title>Node1&#45;&gt;Node2</title>
<path fill="none" stroke="midnightblue" d="M45.7528,-196.872C53.6665,-198.58 62.8832,-200.57 71.8816,-202.513"/>
<polygon fill="midnightblue" stroke="midnightblue" points="71.3539,-205.98 81.8673,-204.669 72.8313,-199.138 71.3539,-205.98"/>
</g>
<!-- Node3 -->
<g id="node3" class="node"><title>Node3</title>
<g id="a_node3"><a xlink:href="ff_8c.html#a65611adf1626e5e08da77cd33a98dd8b" target="_top" xlink:title="get_fat">
<polygon fill="white" stroke="black" points="89.5,-163.675 89.5,-182.675 136.5,-182.675 136.5,-163.675 89.5,-163.675"/>
<text text-anchor="middle" x="113" y="-170.675" font-family="Helvetica,sans-Serif" font-size="10.00">get_fat</text>
</a>
</g>
</g>
<!-- Node1&#45;&gt;Node3 -->
<g id="edge2" class="edge"><title>Node1&#45;&gt;Node3</title>
<path fill="none" stroke="midnightblue" d="M45.7528,-187.479C55.8845,-185.291 68.1519,-182.642 79.3628,-180.222"/>
<polygon fill="midnightblue" stroke="midnightblue" points="80.2338,-183.615 89.2699,-178.083 78.7564,-176.772 80.2338,-183.615"/>
</g>
<!-- Node4 -->
<g id="node4" class="node"><title>Node4</title>
<g id="a_node4"><a xlink:href="ff_8c.html#af2e8986556ee6644b4bf31fa4158d735" target="_top" xlink:title="move_window">
<polygon fill="white" stroke="black" points="180.5,-163.675 180.5,-182.675 259.5,-182.675 259.5,-163.675 180.5,-163.675"/>
<text text-anchor="middle" x="220" y="-170.675" font-family="Helvetica,sans-Serif" font-size="10.00">move_window</text>
</a>
</g>
</g>
<!-- Node3&#45;&gt;Node4 -->
<g id="edge3" class="edge"><title>Node3&#45;&gt;Node4</title>
<path fill="none" stroke="midnightblue" d="M136.525,-173.175C146.406,-173.175 158.416,-173.175 170.18,-173.175"/>
<polygon fill="midnightblue" stroke="midnightblue" points="170.393,-176.675 180.393,-173.175 170.393,-169.675 170.393,-176.675"/>
</g>
<!-- Node5 -->
<g id="node5" class="node"><title>Node5</title>
<g id="a_node5"><a xlink:href="ff_8c.html#a5e18753404354b210096f9af99e31bc1" target="_top" xlink:title="sync_window">
<polygon fill="white" stroke="black" points="296,-144.675 296,-163.675 372,-163.675 372,-144.675 296,-144.675"/>
<text text-anchor="middle" x="334" y="-151.675" font-family="Helvetica,sans-Serif" font-size="10.00">sync_window</text>
</a>
</g>
</g>
<!-- Node4&#45;&gt;Node5 -->
<g id="edge4" class="edge"><title>Node4&#45;&gt;Node5</title>
<path fill="none" stroke="midnightblue" d="M259.544,-166.636C268.003,-165.201 277.053,-163.666 285.808,-162.181"/>
<polygon fill="midnightblue" stroke="midnightblue" points="286.624,-165.593 295.898,-160.469 285.453,-158.691 286.624,-165.593"/>
</g>
<!-- Node16 -->
<g id="node16" class="node"><title>Node16</title>
<g id="a_node16"><a xlink:href="diskio_8h.html#ac0c802f8a12fa2047b4bec7109b9293f" target="_top" xlink:title="disk_read">
<polygon fill="white" stroke="black" points="409.5,-182.675 409.5,-201.675 468.5,-201.675 468.5,-182.675 409.5,-182.675"/>
<text text-anchor="middle" x="439" y="-189.675" font-family="Helvetica,sans-Serif" font-size="10.00">disk_read</text>
</a>
</g>
</g>
<!-- Node4&#45;&gt;Node16 -->
<g id="edge23" class="edge"><title>Node4&#45;&gt;Node16</title>
<path fill="none" stroke="midnightblue" d="M259.795,-176.572C299.187,-180.021 359.836,-185.331 399.221,-188.78"/>
<polygon fill="midnightblue" stroke="midnightblue" points="398.973,-192.271 409.24,-189.657 399.584,-185.298 398.973,-192.271"/>
</g>
<!-- Node6 -->
<g id="node6" class="node"><title>Node6</title>
<g id="a_node6"><a xlink:href="diskio_8h.html#ac4785625f4bb82e33562079813659880" target="_top" xlink:title="disk_write">
<polygon fill="white" stroke="black" points="408.5,-144.675 408.5,-163.675 469.5,-163.675 469.5,-144.675 408.5,-144.675"/>
<text text-anchor="middle" x="439" y="-151.675" font-family="Helvetica,sans-Serif" font-size="10.00">disk_write</text>
</a>
</g>
</g>
<!-- Node5&#45;&gt;Node6 -->
<g id="edge5" class="edge"><title>Node5&#45;&gt;Node6</title>
<path fill="none" stroke="midnightblue" d="M372.185,-154.175C380.624,-154.175 389.621,-154.175 398.165,-154.175"/>
<polygon fill="midnightblue" stroke="midnightblue" points="398.295,-157.675 408.295,-154.175 398.294,-150.675 398.295,-157.675"/>
</g>
<!-- Node7 -->
<g id="node7" class="node"><title>Node7</title>
<g id="a_node7"><a xlink:href="sdmm_8c.html#ac0eadae94de728461ccade9e03fafd8c" target="_top" xlink:title="deselect">
<polygon fill="white" stroke="black" points="737.5,-144.675 737.5,-163.675 790.5,-163.675 790.5,-144.675 737.5,-144.675"/>
<text text-anchor="middle" x="764" y="-151.675" font-family="Helvetica,sans-Serif" font-size="10.00">deselect</text>
</a>
</g>
</g>
<!-- Node6&#45;&gt;Node7 -->
<g id="edge6" class="edge"><title>Node6&#45;&gt;Node7</title>
<path fill="none" stroke="midnightblue" d="M466.603,-144.674C478.491,-140.911 492.776,-137.041 506,-135.175 584.583,-124.089 677.654,-137.488 727.407,-146.764"/>
<polygon fill="midnightblue" stroke="midnightblue" points="726.865,-150.223 737.346,-148.67 728.184,-143.349 726.865,-150.223"/>
</g>
<!-- Node9 -->
<g id="node9" class="node"><title>Node9</title>
<g id="a_node9"><a xlink:href="sdmm_8c.html#a21ad8e9a107ea2000705a3edfebaaa2d" target="_top" xlink:title="disk_status">
<polygon fill="white" stroke="black" points="514.5,-182.675 514.5,-201.675 581.5,-201.675 581.5,-182.675 514.5,-182.675"/>
<text text-anchor="middle" x="548" y="-189.675" font-family="Helvetica,sans-Serif" font-size="10.00">disk_status</text>
</a>
</g>
</g>
<!-- Node6&#45;&gt;Node9 -->
<g id="edge8" class="edge"><title>Node6&#45;&gt;Node9</title>
<path fill="none" stroke="midnightblue" d="M467.001,-163.764C480.18,-168.445 496.229,-174.144 510.484,-179.207"/>
<polygon fill="midnightblue" stroke="midnightblue" points="509.413,-182.541 520.008,-182.589 511.756,-175.944 509.413,-182.541"/>
</g>
<!-- Node10 -->
<g id="node10" class="node"><title>Node10</title>
<g id="a_node10"><a xlink:href="sdmm_8c.html#a99684b493c8bfdb0288a2e24e52f6871" target="_top" xlink:title="send_cmd">
<polygon fill="white" stroke="black" points="517,-144.675 517,-163.675 579,-163.675 579,-144.675 517,-144.675"/>
<text text-anchor="middle" x="548" y="-151.675" font-family="Helvetica,sans-Serif" font-size="10.00">send_cmd</text>
</a>
</g>
</g>
<!-- Node6&#45;&gt;Node10 -->
<g id="edge9" class="edge"><title>Node6&#45;&gt;Node10</title>
<path fill="none" stroke="midnightblue" d="M469.521,-154.175C481.023,-154.175 494.389,-154.175 506.749,-154.175"/>
<polygon fill="midnightblue" stroke="midnightblue" points="506.831,-157.675 516.831,-154.175 506.831,-150.675 506.831,-157.675"/>
</g>
<!-- Node15 -->
<g id="node15" class="node"><title>Node15</title>
<g id="a_node15"><a xlink:href="sdmm_8c.html#aefbd30f6bdff37184f58faf98ad1c6e0" target="_top" xlink:title="xmit_datablock">
<polygon fill="white" stroke="black" points="506.5,-11.6752 506.5,-30.6752 589.5,-30.6752 589.5,-11.6752 506.5,-11.6752"/>
<text text-anchor="middle" x="548" y="-18.6752" font-family="Helvetica,sans-Serif" font-size="10.00">xmit_datablock</text>
</a>
</g>
</g>
<!-- Node6&#45;&gt;Node15 -->
<g id="edge19" class="edge"><title>Node6&#45;&gt;Node15</title>
<path fill="none" stroke="midnightblue" d="M447.695,-144.61C465.5,-122.479 509.762,-67.4622 532.703,-38.9458"/>
<polygon fill="midnightblue" stroke="midnightblue" points="535.545,-40.9979 539.086,-31.0124 530.09,-36.61 535.545,-40.9979"/>
</g>
<!-- Node8 -->
<g id="node8" class="node"><title>Node8</title>
<g id="a_node8"><a xlink:href="sdmm_8c.html#ab628371b03508f9db7c6daf1203ed84d" target="_top" xlink:title="rcvr_mmc">
<polygon fill="white" stroke="black" points="840,-125.675 840,-144.675 900,-144.675 900,-125.675 840,-125.675"/>
<text text-anchor="middle" x="870" y="-132.675" font-family="Helvetica,sans-Serif" font-size="10.00">rcvr_mmc</text>
</a>
</g>
</g>
<!-- Node7&#45;&gt;Node8 -->
<g id="edge7" class="edge"><title>Node7&#45;&gt;Node8</title>
<path fill="none" stroke="midnightblue" d="M790.708,-149.479C802.479,-147.328 816.689,-144.732 829.754,-142.345"/>
<polygon fill="midnightblue" stroke="midnightblue" points="830.71,-145.729 839.918,-140.488 829.452,-138.843 830.71,-145.729"/>
</g>
<!-- Node10&#45;&gt;Node7 -->
<g id="edge10" class="edge"><title>Node10&#45;&gt;Node7</title>
<path fill="none" stroke="midnightblue" d="M579.207,-154.175C618.104,-154.175 685.618,-154.175 727.096,-154.175"/>
<polygon fill="midnightblue" stroke="midnightblue" points="727.3,-157.675 737.3,-154.175 727.3,-150.675 727.3,-157.675"/>
</g>
<!-- Node10&#45;&gt;Node8 -->
<g id="edge18" class="edge"><title>Node10&#45;&gt;Node8</title>
<path fill="none" stroke="midnightblue" d="M579.063,-162.805C627.389,-175.268 724.943,-194.589 804,-173.175 820.244,-168.775 836.59,-159.189 848.827,-150.747"/>
<polygon fill="midnightblue" stroke="midnightblue" points="850.884,-153.578 856.95,-144.892 846.791,-147.899 850.884,-153.578"/>
</g>
<!-- Node11 -->
<g id="node11" class="node"><title>Node11</title>
<g id="a_node11"><a xlink:href="sdmm_8c.html#ab45cb1d47cda5822ce492ad3c11867ae" target="_top" xlink:title="select">
<polygon fill="white" stroke="black" points="635.5,-68.6752 635.5,-87.6752 678.5,-87.6752 678.5,-68.6752 635.5,-68.6752"/>
<text text-anchor="middle" x="657" y="-75.6752" font-family="Helvetica,sans-Serif" font-size="10.00">select</text>
</a>
</g>
</g>
<!-- Node10&#45;&gt;Node11 -->
<g id="edge11" class="edge"><title>Node10&#45;&gt;Node11</title>
<path fill="none" stroke="midnightblue" d="M562.552,-144.55C580.641,-131.701 612.888,-108.797 634.361,-93.5447"/>
<polygon fill="midnightblue" stroke="midnightblue" points="636.432,-96.3667 642.558,-87.7225 632.379,-90.6598 636.432,-96.3667"/>
</g>
<!-- Node14 -->
<g id="node14" class="node"><title>Node14</title>
<g id="a_node14"><a xlink:href="sdmm_8c.html#ace0af708caf7775204ca74fbd46818bb" target="_top" xlink:title="xmit_mmc">
<polygon fill="white" stroke="black" points="626,-30.6752 626,-49.6752 688,-49.6752 688,-30.6752 626,-30.6752"/>
<text text-anchor="middle" x="657" y="-37.6752" font-family="Helvetica,sans-Serif" font-size="10.00">xmit_mmc</text>
</a>
</g>
</g>
<!-- Node10&#45;&gt;Node14 -->
<g id="edge17" class="edge"><title>Node10&#45;&gt;Node14</title>
<path fill="none" stroke="midnightblue" d="M555.321,-144.412C567.461,-126.16 595.547,-86.2706 626,-59.1752 627.33,-57.9919 628.742,-56.8338 630.199,-55.7103"/>
<polygon fill="midnightblue" stroke="midnightblue" points="632.6,-58.3035 638.81,-49.7189 628.602,-52.5577 632.6,-58.3035"/>
</g>
<!-- Node11&#45;&gt;Node7 -->
<g id="edge16" class="edge"><title>Node11&#45;&gt;Node7</title>
<path fill="none" stroke="midnightblue" d="M670.413,-87.8002C675.875,-92.1139 682.327,-97.3152 688,-102.175 704.484,-116.296 706.057,-122.962 724,-135.175 726.393,-136.804 728.947,-138.372 731.559,-139.861"/>
<polygon fill="midnightblue" stroke="midnightblue" points="730.039,-143.017 740.517,-144.591 733.308,-136.827 730.039,-143.017"/>
</g>
<!-- Node11&#45;&gt;Node8 -->
<g id="edge12" class="edge"><title>Node11&#45;&gt;Node8</title>
<path fill="none" stroke="midnightblue" d="M678.898,-78.3077C707.782,-79.0646 761.187,-82.5479 804,-97.1752 819.574,-102.496 835.552,-111.775 847.769,-119.831"/>
<polygon fill="midnightblue" stroke="midnightblue" points="846.078,-122.915 856.309,-125.668 850.028,-117.136 846.078,-122.915"/>
</g>
<!-- Node12 -->
<g id="node12" class="node"><title>Node12</title>
<g id="a_node12"><a xlink:href="sdmm_8c.html#a624a19e248af05530dae5c0cc1dddc11" target="_top" xlink:title="wait_ready">
<polygon fill="white" stroke="black" points="732,-106.675 732,-125.675 796,-125.675 796,-106.675 732,-106.675"/>
<text text-anchor="middle" x="764" y="-113.675" font-family="Helvetica,sans-Serif" font-size="10.00">wait_ready</text>
</a>
</g>
</g>
<!-- Node11&#45;&gt;Node12 -->
<g id="edge13" class="edge"><title>Node11&#45;&gt;Node12</title>
<path fill="none" stroke="midnightblue" d="M678.745,-85.6828C692.504,-90.6623 710.924,-97.3288 727.033,-103.158"/>
<polygon fill="midnightblue" stroke="midnightblue" points="726.107,-106.545 736.701,-106.657 728.489,-99.9632 726.107,-106.545"/>
</g>
<!-- Node12&#45;&gt;Node8 -->
<g id="edge14" class="edge"><title>Node12&#45;&gt;Node8</title>
<path fill="none" stroke="midnightblue" d="M796.203,-121.876C806.831,-123.817 818.846,-126.012 830.007,-128.051"/>
<polygon fill="midnightblue" stroke="midnightblue" points="829.486,-131.514 839.952,-129.868 830.744,-124.628 829.486,-131.514"/>
</g>
<!-- Node13 -->
<g id="node13" class="node"><title>Node13</title>
<g id="a_node13"><a xlink:href="sdmm_8c.html#a76a43e01b9676630e121e5a659acbb3f" target="_top" xlink:title="dly_us">
<polygon fill="white" stroke="black" points="847.5,-201.675 847.5,-220.675 892.5,-220.675 892.5,-201.675 847.5,-201.675"/>
<text text-anchor="middle" x="870" y="-208.675" font-family="Helvetica,sans-Serif" font-size="10.00">dly_us</text>
</a>
</g>
</g>
<!-- Node12&#45;&gt;Node13 -->
<g id="edge15" class="edge"><title>Node12&#45;&gt;Node13</title>
<path fill="none" stroke="midnightblue" d="M788.605,-125.746C793.917,-128.414 799.353,-131.581 804,-135.175 825.554,-151.844 845.109,-176.638 857.016,-193.33"/>
<polygon fill="midnightblue" stroke="midnightblue" points="854.228,-195.451 862.808,-201.667 859.977,-191.457 854.228,-195.451"/>
</g>
<!-- Node15&#45;&gt;Node8 -->
<g id="edge22" class="edge"><title>Node15&#45;&gt;Node8</title>
<path fill="none" stroke="midnightblue" d="M577.212,-11.6169C605.671,-3.43268 650.623,5.48149 688,-5.17518 759.04,-25.43 824.799,-87.7886 853.635,-118.177"/>
<polygon fill="midnightblue" stroke="midnightblue" points="851.082,-120.572 860.458,-125.505 856.205,-115.802 851.082,-120.572"/>
</g>
<!-- Node15&#45;&gt;Node12 -->
<g id="edge20" class="edge"><title>Node15&#45;&gt;Node12</title>
<path fill="none" stroke="midnightblue" d="M589.719,-12.1459C618.6,-7.83319 657.489,-6.38925 688,-21.1752 720.615,-36.9806 743.326,-74.6111 754.674,-97.4836"/>
<polygon fill="midnightblue" stroke="midnightblue" points="751.522,-99.0053 758.961,-106.55 757.85,-96.0132 751.522,-99.0053"/>
</g>
<!-- Node15&#45;&gt;Node14 -->
<g id="edge21" class="edge"><title>Node15&#45;&gt;Node14</title>
<path fill="none" stroke="midnightblue" d="M589.757,-28.4125C598.239,-29.9185 607.174,-31.5051 615.641,-33.0086"/>
<polygon fill="midnightblue" stroke="midnightblue" points="615.217,-36.4879 625.675,-34.7903 616.441,-29.5958 615.217,-36.4879"/>
</g>
<!-- Node16&#45;&gt;Node7 -->
<g id="edge24" class="edge"><title>Node16&#45;&gt;Node7</title>
<path fill="none" stroke="midnightblue" d="M466.603,-201.676C478.491,-205.44 492.776,-209.31 506,-211.175 542.967,-216.39 553.138,-217.091 590,-211.175 641.295,-202.943 697.999,-181.803 732.046,-167.712"/>
<polygon fill="midnightblue" stroke="midnightblue" points="733.577,-170.865 741.439,-163.764 730.864,-164.412 733.577,-170.865"/>
</g>
<!-- Node16&#45;&gt;Node9 -->
<g id="edge25" class="edge"><title>Node16&#45;&gt;Node9</title>
<path fill="none" stroke="midnightblue" d="M468.674,-192.175C479.59,-192.175 492.279,-192.175 504.223,-192.175"/>
<polygon fill="midnightblue" stroke="midnightblue" points="504.465,-195.675 514.465,-192.175 504.465,-188.675 504.465,-195.675"/>
</g>
<!-- Node16&#45;&gt;Node10 -->
<g id="edge29" class="edge"><title>Node16&#45;&gt;Node10</title>
<path fill="none" stroke="midnightblue" d="M467.001,-182.586C480.18,-177.906 496.229,-172.206 510.484,-167.144"/>
<polygon fill="midnightblue" stroke="midnightblue" points="511.756,-170.406 520.008,-163.761 509.413,-163.81 511.756,-170.406"/>
</g>
<!-- Node17 -->
<g id="node17" class="node"><title>Node17</title>
<g id="a_node17"><a xlink:href="sdmm_8c.html#a8c99afbc312912297b19752cf7e0960b" target="_top" xlink:title="rcvr_datablock">
<polygon fill="white" stroke="black" points="724,-220.675 724,-239.675 804,-239.675 804,-220.675 724,-220.675"/>
<text text-anchor="middle" x="764" y="-227.675" font-family="Helvetica,sans-Serif" font-size="10.00">rcvr_datablock</text>
</a>
</g>
</g>
<!-- Node16&#45;&gt;Node17 -->
<g id="edge26" class="edge"><title>Node16&#45;&gt;Node17</title>
<path fill="none" stroke="midnightblue" d="M453.37,-201.736C466.175,-210.273 486.394,-222.177 506,-227.175 576.532,-245.157 661.527,-241.441 713.916,-236.378"/>
<polygon fill="midnightblue" stroke="midnightblue" points="714.352,-239.851 723.945,-235.353 713.641,-232.887 714.352,-239.851"/>
</g>
<!-- Node17&#45;&gt;Node8 -->
<g id="edge27" class="edge"><title>Node17&#45;&gt;Node8</title>
<path fill="none" stroke="midnightblue" d="M782.787,-220.641C789.701,-216.58 797.504,-211.543 804,-206.175 823.6,-189.98 842.861,-167.958 855.263,-152.754"/>
<polygon fill="midnightblue" stroke="midnightblue" points="858.205,-154.68 861.724,-144.687 852.741,-150.305 858.205,-154.68"/>
</g>
<!-- Node17&#45;&gt;Node13 -->
<g id="edge28" class="edge"><title>Node17&#45;&gt;Node13</title>
<path fill="none" stroke="midnightblue" d="M804.022,-223.046C815.002,-221.04 826.806,-218.884 837.302,-216.966"/>
<polygon fill="midnightblue" stroke="midnightblue" points="838.074,-220.383 847.282,-215.143 836.816,-213.497 838.074,-220.383"/>
</g>
</g>
</svg>
