<?xml version="1.0" encoding="UTF-8" standalone="no"?>
<!DOCTYPE svg PUBLIC "-//W3C//DTD SVG 1.1//EN"
 "http://www.w3.org/Graphics/SVG/1.1/DTD/svg11.dtd">
<!-- Generated by graphviz version 2.36.0 (20140111.2315)
 -->
<!-- Title: dir_next Pages: 1 -->
<svg width="1008pt" height="285pt"
 viewBox="0.00 0.00 1008.00 285.27" xmlns="http://www.w3.org/2000/svg" xmlns:xlink="http://www.w3.org/1999/xlink">
<g id="graph0" class="graph" transform="scale(1 1) rotate(0) translate(4 281.269)">
<title>dir_next</title>
<polygon fill="white" stroke="none" points="-4,4 -4,-281.269 1004,-281.269 1004,4 -4,4"/>
<!-- Node1 -->
<g id="node1" class="node"><title>Node1</title>
<polygon fill="#bfbfbf" stroke="black" points="0.5,-181.769 0.5,-200.769 51.5,-200.769 51.5,-181.769 0.5,-181.769"/>
<text text-anchor="middle" x="26" y="-188.769" font-family="Helvetica,sans-Serif" font-size="10.00">dir_next</text>
</g>
<!-- Node2 -->
<g id="node2" class="node"><title>Node2</title>
<g id="a_node2"><a xlink:href="ff_8c.html#a7519abb60fe91f6aa1d17f64fbae123a" target="_top" xlink:title="clust2sect">
<polygon fill="white" stroke="black" points="93,-257.769 93,-276.769 155,-276.769 155,-257.769 93,-257.769"/>
<text text-anchor="middle" x="124" y="-264.769" font-family="Helvetica,sans-Serif" font-size="10.00">clust2sect</text>
</a>
</g>
</g>
<!-- Node1&#45;&gt;Node2 -->
<g id="edge1" class="edge"><title>Node1&#45;&gt;Node2</title>
<path fill="none" stroke="midnightblue" d="M37.5164,-200.824C49.4553,-211.53 69.659,-229.225 88,-243.269 91.7201,-246.118 95.7517,-249.032 99.7106,-251.804"/>
<polygon fill="midnightblue" stroke="midnightblue" points="97.8846,-254.796 108.112,-257.563 101.842,-249.022 97.8846,-254.796"/>
</g>
<!-- Node3 -->
<g id="node3" class="node"><title>Node3</title>
<g id="a_node3"><a xlink:href="ff_8c.html#acbd0a20a17c6f9b6d536490d1cc3c5ac" target="_top" xlink:title="create_chain">
<polygon fill="white" stroke="black" points="88,-181.769 88,-200.769 160,-200.769 160,-181.769 88,-181.769"/>
<text text-anchor="middle" x="124" y="-188.769" font-family="Helvetica,sans-Serif" font-size="10.00">create_chain</text>
</a>
</g>
</g>
<!-- Node1&#45;&gt;Node3 -->
<g id="edge2" class="edge"><title>Node1&#45;&gt;Node3</title>
<path fill="none" stroke="midnightblue" d="M51.7224,-191.269C59.7145,-191.269 68.8426,-191.269 77.8373,-191.269"/>
<polygon fill="midnightblue" stroke="midnightblue" points="77.8685,-194.769 87.8684,-191.269 77.8684,-187.769 77.8685,-194.769"/>
</g>
<!-- Node4 -->
<g id="node4" class="node"><title>Node4</title>
<g id="a_node4"><a xlink:href="ff_8c.html#a65611adf1626e5e08da77cd33a98dd8b" target="_top" xlink:title="get_fat">
<polygon fill="white" stroke="black" points="196.5,-219.769 196.5,-238.769 243.5,-238.769 243.5,-219.769 196.5,-219.769"/>
<text text-anchor="middle" x="220" y="-226.769" font-family="Helvetica,sans-Serif" font-size="10.00">get_fat</text>
</a>
</g>
</g>
<!-- Node1&#45;&gt;Node4 -->
<g id="edge33" class="edge"><title>Node1&#45;&gt;Node4</title>
<path fill="none" stroke="midnightblue" d="M51.6886,-199.933C62.6942,-203.542 75.8844,-207.522 88,-210.269 121.042,-217.762 159.474,-222.926 186.128,-225.959"/>
<polygon fill="midnightblue" stroke="midnightblue" points="185.757,-229.439 196.08,-227.054 186.523,-222.481 185.757,-229.439"/>
</g>
<!-- Node6 -->
<g id="node6" class="node"><title>Node6</title>
<g id="a_node6"><a xlink:href="ff_8c.html#a5e18753404354b210096f9af99e31bc1" target="_top" xlink:title="sync_window">
<polygon fill="white" stroke="black" points="396,-143.769 396,-162.769 472,-162.769 472,-143.769 396,-143.769"/>
<text text-anchor="middle" x="434" y="-150.769" font-family="Helvetica,sans-Serif" font-size="10.00">sync_window</text>
</a>
</g>
</g>
<!-- Node1&#45;&gt;Node6 -->
<g id="edge35" class="edge"><title>Node1&#45;&gt;Node6</title>
<path fill="none" stroke="midnightblue" d="M51.584,-182.091C62.5702,-178.387 75.7742,-174.475 88,-172.269 193.067,-153.315 318.796,-151.532 385.674,-152.206"/>
<polygon fill="midnightblue" stroke="midnightblue" points="385.847,-155.709 395.89,-152.333 385.935,-148.709 385.847,-155.709"/>
</g>
<!-- Node20 -->
<g id="node20" class="node"><title>Node20</title>
<g id="a_node20"><a xlink:href="ff_8c.html#a02eb5189e43056a9ddc8a59cbe89be93" target="_top" xlink:title="mem_set">
<polygon fill="white" stroke="black" points="95.5,-105.769 95.5,-124.769 152.5,-124.769 152.5,-105.769 95.5,-105.769"/>
<text text-anchor="middle" x="124" y="-112.769" font-family="Helvetica,sans-Serif" font-size="10.00">mem_set</text>
</a>
</g>
</g>
<!-- Node1&#45;&gt;Node20 -->
<g id="edge34" class="edge"><title>Node1&#45;&gt;Node20</title>
<path fill="none" stroke="midnightblue" d="M37.5164,-181.715C49.4553,-171.009 69.659,-153.314 88,-139.269 91.7201,-136.421 95.7517,-133.506 99.7106,-130.735"/>
<polygon fill="midnightblue" stroke="midnightblue" points="101.842,-133.517 108.112,-124.976 97.8846,-127.743 101.842,-133.517"/>
</g>
<!-- Node3&#45;&gt;Node4 -->
<g id="edge3" class="edge"><title>Node3&#45;&gt;Node4</title>
<path fill="none" stroke="midnightblue" d="M148.72,-200.858C160.222,-205.508 174.211,-211.163 186.672,-216.2"/>
<polygon fill="midnightblue" stroke="midnightblue" points="185.677,-219.574 196.26,-220.077 188.301,-213.084 185.677,-219.574"/>
</g>
<!-- Node19 -->
<g id="node19" class="node"><title>Node19</title>
<g id="a_node19"><a xlink:href="ff_8c.html#abd4b6b071a8d728a88727051c12bc6d7" target="_top" xlink:title="put_fat">
<polygon fill="white" stroke="black" points="196.5,-181.769 196.5,-200.769 243.5,-200.769 243.5,-181.769 196.5,-181.769"/>
<text text-anchor="middle" x="220" y="-188.769" font-family="Helvetica,sans-Serif" font-size="10.00">put_fat</text>
</a>
</g>
</g>
<!-- Node3&#45;&gt;Node19 -->
<g id="edge31" class="edge"><title>Node3&#45;&gt;Node19</title>
<path fill="none" stroke="midnightblue" d="M160.002,-191.269C168.517,-191.269 177.595,-191.269 186.013,-191.269"/>
<polygon fill="midnightblue" stroke="midnightblue" points="186.23,-194.769 196.23,-191.269 186.23,-187.769 186.23,-194.769"/>
</g>
<!-- Node5 -->
<g id="node5" class="node"><title>Node5</title>
<g id="a_node5"><a xlink:href="ff_8c.html#af2e8986556ee6644b4bf31fa4158d735" target="_top" xlink:title="move_window">
<polygon fill="white" stroke="black" points="280.5,-181.769 280.5,-200.769 359.5,-200.769 359.5,-181.769 280.5,-181.769"/>
<text text-anchor="middle" x="320" y="-188.769" font-family="Helvetica,sans-Serif" font-size="10.00">move_window</text>
</a>
</g>
</g>
<!-- Node4&#45;&gt;Node5 -->
<g id="edge4" class="edge"><title>Node4&#45;&gt;Node5</title>
<path fill="none" stroke="midnightblue" d="M243.729,-220.456C255.923,-215.728 271.199,-209.804 284.797,-204.532"/>
<polygon fill="midnightblue" stroke="midnightblue" points="286.275,-207.712 294.334,-200.834 283.745,-201.186 286.275,-207.712"/>
</g>
<!-- Node5&#45;&gt;Node6 -->
<g id="edge5" class="edge"><title>Node5&#45;&gt;Node6</title>
<path fill="none" stroke="midnightblue" d="M349.262,-181.68C363.19,-176.955 380.18,-171.19 395.207,-166.092"/>
<polygon fill="midnightblue" stroke="midnightblue" points="396.401,-169.383 404.747,-162.855 394.152,-162.754 396.401,-169.383"/>
</g>
<!-- Node17 -->
<g id="node17" class="node"><title>Node17</title>
<g id="a_node17"><a xlink:href="diskio_8h.html#ac0c802f8a12fa2047b4bec7109b9293f" target="_top" xlink:title="disk_read">
<polygon fill="white" stroke="black" points="509.5,-181.769 509.5,-200.769 568.5,-200.769 568.5,-181.769 509.5,-181.769"/>
<text text-anchor="middle" x="539" y="-188.769" font-family="Helvetica,sans-Serif" font-size="10.00">disk_read</text>
</a>
</g>
</g>
<!-- Node5&#45;&gt;Node17 -->
<g id="edge24" class="edge"><title>Node5&#45;&gt;Node17</title>
<path fill="none" stroke="midnightblue" d="M359.795,-191.269C399.187,-191.269 459.836,-191.269 499.221,-191.269"/>
<polygon fill="midnightblue" stroke="midnightblue" points="499.24,-194.769 509.24,-191.269 499.24,-187.769 499.24,-194.769"/>
</g>
<!-- Node7 -->
<g id="node7" class="node"><title>Node7</title>
<g id="a_node7"><a xlink:href="diskio_8h.html#ac4785625f4bb82e33562079813659880" target="_top" xlink:title="disk_write">
<polygon fill="white" stroke="black" points="508.5,-143.769 508.5,-162.769 569.5,-162.769 569.5,-143.769 508.5,-143.769"/>
<text text-anchor="middle" x="539" y="-150.769" font-family="Helvetica,sans-Serif" font-size="10.00">disk_write</text>
</a>
</g>
</g>
<!-- Node6&#45;&gt;Node7 -->
<g id="edge6" class="edge"><title>Node6&#45;&gt;Node7</title>
<path fill="none" stroke="midnightblue" d="M472.185,-153.269C480.624,-153.269 489.621,-153.269 498.165,-153.269"/>
<polygon fill="midnightblue" stroke="midnightblue" points="498.295,-156.769 508.295,-153.269 498.294,-149.769 498.295,-156.769"/>
</g>
<!-- Node8 -->
<g id="node8" class="node"><title>Node8</title>
<g id="a_node8"><a xlink:href="sdmm_8c.html#ac0eadae94de728461ccade9e03fafd8c" target="_top" xlink:title="deselect">
<polygon fill="white" stroke="black" points="837.5,-143.769 837.5,-162.769 890.5,-162.769 890.5,-143.769 837.5,-143.769"/>
<text text-anchor="middle" x="864" y="-150.769" font-family="Helvetica,sans-Serif" font-size="10.00">deselect</text>
</a>
</g>
</g>
<!-- Node7&#45;&gt;Node8 -->
<g id="edge7" class="edge"><title>Node7&#45;&gt;Node8</title>
<path fill="none" stroke="midnightblue" d="M566.603,-143.768C578.491,-140.005 592.776,-136.135 606,-134.269 684.583,-123.183 777.654,-136.582 827.407,-145.858"/>
<polygon fill="midnightblue" stroke="midnightblue" points="826.865,-149.318 837.346,-147.764 828.184,-142.443 826.865,-149.318"/>
</g>
<!-- Node10 -->
<g id="node10" class="node"><title>Node10</title>
<g id="a_node10"><a xlink:href="sdmm_8c.html#a21ad8e9a107ea2000705a3edfebaaa2d" target="_top" xlink:title="disk_status">
<polygon fill="white" stroke="black" points="614.5,-181.769 614.5,-200.769 681.5,-200.769 681.5,-181.769 614.5,-181.769"/>
<text text-anchor="middle" x="648" y="-188.769" font-family="Helvetica,sans-Serif" font-size="10.00">disk_status</text>
</a>
</g>
</g>
<!-- Node7&#45;&gt;Node10 -->
<g id="edge9" class="edge"><title>Node7&#45;&gt;Node10</title>
<path fill="none" stroke="midnightblue" d="M567.001,-162.858C580.18,-167.539 596.229,-173.239 610.484,-178.301"/>
<polygon fill="midnightblue" stroke="midnightblue" points="609.413,-181.635 620.008,-181.683 611.756,-175.039 609.413,-181.635"/>
</g>
<!-- Node11 -->
<g id="node11" class="node"><title>Node11</title>
<g id="a_node11"><a xlink:href="sdmm_8c.html#a99684b493c8bfdb0288a2e24e52f6871" target="_top" xlink:title="send_cmd">
<polygon fill="white" stroke="black" points="617,-143.769 617,-162.769 679,-162.769 679,-143.769 617,-143.769"/>
<text text-anchor="middle" x="648" y="-150.769" font-family="Helvetica,sans-Serif" font-size="10.00">send_cmd</text>
</a>
</g>
</g>
<!-- Node7&#45;&gt;Node11 -->
<g id="edge10" class="edge"><title>Node7&#45;&gt;Node11</title>
<path fill="none" stroke="midnightblue" d="M569.521,-153.269C581.023,-153.269 594.389,-153.269 606.749,-153.269"/>
<polygon fill="midnightblue" stroke="midnightblue" points="606.831,-156.769 616.831,-153.269 606.831,-149.769 606.831,-156.769"/>
</g>
<!-- Node16 -->
<g id="node16" class="node"><title>Node16</title>
<g id="a_node16"><a xlink:href="sdmm_8c.html#aefbd30f6bdff37184f58faf98ad1c6e0" target="_top" xlink:title="xmit_datablock">
<polygon fill="white" stroke="black" points="606.5,-10.7693 606.5,-29.7693 689.5,-29.7693 689.5,-10.7693 606.5,-10.7693"/>
<text text-anchor="middle" x="648" y="-17.7693" font-family="Helvetica,sans-Serif" font-size="10.00">xmit_datablock</text>
</a>
</g>
</g>
<!-- Node7&#45;&gt;Node16 -->
<g id="edge20" class="edge"><title>Node7&#45;&gt;Node16</title>
<path fill="none" stroke="midnightblue" d="M547.695,-143.704C565.5,-121.573 609.762,-66.5563 632.703,-38.0399"/>
<polygon fill="midnightblue" stroke="midnightblue" points="635.545,-40.092 639.086,-30.1065 630.09,-35.7041 635.545,-40.092"/>
</g>
<!-- Node9 -->
<g id="node9" class="node"><title>Node9</title>
<g id="a_node9"><a xlink:href="sdmm_8c.html#ab628371b03508f9db7c6daf1203ed84d" target="_top" xlink:title="rcvr_mmc">
<polygon fill="white" stroke="black" points="940,-124.769 940,-143.769 1000,-143.769 1000,-124.769 940,-124.769"/>
<text text-anchor="middle" x="970" y="-131.769" font-family="Helvetica,sans-Serif" font-size="10.00">rcvr_mmc</text>
</a>
</g>
</g>
<!-- Node8&#45;&gt;Node9 -->
<g id="edge8" class="edge"><title>Node8&#45;&gt;Node9</title>
<path fill="none" stroke="midnightblue" d="M890.708,-148.573C902.479,-146.422 916.689,-143.826 929.754,-141.439"/>
<polygon fill="midnightblue" stroke="midnightblue" points="930.71,-144.823 939.918,-139.582 929.452,-137.937 930.71,-144.823"/>
</g>
<!-- Node11&#45;&gt;Node8 -->
<g id="edge11" class="edge"><title>Node11&#45;&gt;Node8</title>
<path fill="none" stroke="midnightblue" d="M679.207,-153.269C718.104,-153.269 785.618,-153.269 827.096,-153.269"/>
<polygon fill="midnightblue" stroke="midnightblue" points="827.3,-156.769 837.3,-153.269 827.3,-149.769 827.3,-156.769"/>
</g>
<!-- Node11&#45;&gt;Node9 -->
<g id="edge19" class="edge"><title>Node11&#45;&gt;Node9</title>
<path fill="none" stroke="midnightblue" d="M679.063,-161.899C727.389,-174.362 824.943,-193.683 904,-172.269 920.244,-167.869 936.59,-158.283 948.827,-149.841"/>
<polygon fill="midnightblue" stroke="midnightblue" points="950.884,-152.672 956.95,-143.986 946.791,-146.994 950.884,-152.672"/>
</g>
<!-- Node12 -->
<g id="node12" class="node"><title>Node12</title>
<g id="a_node12"><a xlink:href="sdmm_8c.html#ab45cb1d47cda5822ce492ad3c11867ae" target="_top" xlink:title="select">
<polygon fill="white" stroke="black" points="735.5,-67.7693 735.5,-86.7693 778.5,-86.7693 778.5,-67.7693 735.5,-67.7693"/>
<text text-anchor="middle" x="757" y="-74.7693" font-family="Helvetica,sans-Serif" font-size="10.00">select</text>
</a>
</g>
</g>
<!-- Node11&#45;&gt;Node12 -->
<g id="edge12" class="edge"><title>Node11&#45;&gt;Node12</title>
<path fill="none" stroke="midnightblue" d="M662.552,-143.644C680.641,-130.795 712.888,-107.891 734.361,-92.6389"/>
<polygon fill="midnightblue" stroke="midnightblue" points="736.432,-95.4609 742.558,-86.8166 732.379,-89.754 736.432,-95.4609"/>
</g>
<!-- Node15 -->
<g id="node15" class="node"><title>Node15</title>
<g id="a_node15"><a xlink:href="sdmm_8c.html#ace0af708caf7775204ca74fbd46818bb" target="_top" xlink:title="xmit_mmc">
<polygon fill="white" stroke="black" points="726,-29.7693 726,-48.7693 788,-48.7693 788,-29.7693 726,-29.7693"/>
<text text-anchor="middle" x="757" y="-36.7693" font-family="Helvetica,sans-Serif" font-size="10.00">xmit_mmc</text>
</a>
</g>
</g>
<!-- Node11&#45;&gt;Node15 -->
<g id="edge18" class="edge"><title>Node11&#45;&gt;Node15</title>
<path fill="none" stroke="midnightblue" d="M655.321,-143.506C667.461,-125.255 695.547,-85.3648 726,-58.2693 727.33,-57.086 728.742,-55.928 730.199,-54.8044"/>
<polygon fill="midnightblue" stroke="midnightblue" points="732.6,-57.3977 738.81,-48.8131 728.602,-51.6519 732.6,-57.3977"/>
</g>
<!-- Node12&#45;&gt;Node8 -->
<g id="edge17" class="edge"><title>Node12&#45;&gt;Node8</title>
<path fill="none" stroke="midnightblue" d="M770.413,-86.8944C775.875,-91.2081 782.327,-96.4093 788,-101.269 804.484,-115.39 806.057,-122.056 824,-134.269 826.393,-135.898 828.947,-137.466 831.559,-138.955"/>
<polygon fill="midnightblue" stroke="midnightblue" points="830.039,-142.111 840.517,-143.685 833.308,-135.921 830.039,-142.111"/>
</g>
<!-- Node12&#45;&gt;Node9 -->
<g id="edge13" class="edge"><title>Node12&#45;&gt;Node9</title>
<path fill="none" stroke="midnightblue" d="M778.898,-77.4019C807.782,-78.1588 861.187,-81.6421 904,-96.2693 919.574,-101.59 935.552,-110.869 947.769,-118.926"/>
<polygon fill="midnightblue" stroke="midnightblue" points="946.078,-122.009 956.309,-124.762 950.028,-116.23 946.078,-122.009"/>
</g>
<!-- Node13 -->
<g id="node13" class="node"><title>Node13</title>
<g id="a_node13"><a xlink:href="sdmm_8c.html#a624a19e248af05530dae5c0cc1dddc11" target="_top" xlink:title="wait_ready">
<polygon fill="white" stroke="black" points="832,-105.769 832,-124.769 896,-124.769 896,-105.769 832,-105.769"/>
<text text-anchor="middle" x="864" y="-112.769" font-family="Helvetica,sans-Serif" font-size="10.00">wait_ready</text>
</a>
</g>
</g>
<!-- Node12&#45;&gt;Node13 -->
<g id="edge14" class="edge"><title>Node12&#45;&gt;Node13</title>
<path fill="none" stroke="midnightblue" d="M778.745,-84.7769C792.504,-89.7565 810.924,-96.423 827.033,-102.253"/>
<polygon fill="midnightblue" stroke="midnightblue" points="826.107,-105.64 836.701,-105.752 828.489,-99.0574 826.107,-105.64"/>
</g>
<!-- Node13&#45;&gt;Node9 -->
<g id="edge15" class="edge"><title>Node13&#45;&gt;Node9</title>
<path fill="none" stroke="midnightblue" d="M896.203,-120.97C906.831,-122.912 918.846,-125.107 930.007,-127.146"/>
<polygon fill="midnightblue" stroke="midnightblue" points="929.486,-130.608 939.952,-128.963 930.744,-123.722 929.486,-130.608"/>
</g>
<!-- Node14 -->
<g id="node14" class="node"><title>Node14</title>
<g id="a_node14"><a xlink:href="sdmm_8c.html#a76a43e01b9676630e121e5a659acbb3f" target="_top" xlink:title="dly_us">
<polygon fill="white" stroke="black" points="947.5,-200.769 947.5,-219.769 992.5,-219.769 992.5,-200.769 947.5,-200.769"/>
<text text-anchor="middle" x="970" y="-207.769" font-family="Helvetica,sans-Serif" font-size="10.00">dly_us</text>
</a>
</g>
</g>
<!-- Node13&#45;&gt;Node14 -->
<g id="edge16" class="edge"><title>Node13&#45;&gt;Node14</title>
<path fill="none" stroke="midnightblue" d="M888.605,-124.84C893.917,-127.508 899.353,-130.675 904,-134.269 925.554,-150.939 945.109,-175.732 957.016,-192.424"/>
<polygon fill="midnightblue" stroke="midnightblue" points="954.228,-194.546 962.808,-200.761 959.977,-190.552 954.228,-194.546"/>
</g>
<!-- Node16&#45;&gt;Node9 -->
<g id="edge23" class="edge"><title>Node16&#45;&gt;Node9</title>
<path fill="none" stroke="midnightblue" d="M678.3,-10.735C706.816,-2.93251 751.12,5.24578 788,-5.26935 858.553,-25.3853 924.144,-86.7742 953.228,-117.036"/>
<polygon fill="midnightblue" stroke="midnightblue" points="951.032,-119.808 960.437,-124.686 956.126,-115.008 951.032,-119.808"/>
</g>
<!-- Node16&#45;&gt;Node13 -->
<g id="edge21" class="edge"><title>Node16&#45;&gt;Node13</title>
<path fill="none" stroke="midnightblue" d="M689.719,-11.2401C718.6,-6.92736 757.489,-5.48342 788,-20.2693 820.615,-36.0748 843.326,-73.7053 854.674,-96.5778"/>
<polygon fill="midnightblue" stroke="midnightblue" points="851.522,-98.0995 858.961,-105.644 857.85,-95.1073 851.522,-98.0995"/>
</g>
<!-- Node16&#45;&gt;Node15 -->
<g id="edge22" class="edge"><title>Node16&#45;&gt;Node15</title>
<path fill="none" stroke="midnightblue" d="M689.757,-27.5066C698.239,-29.0127 707.174,-30.5993 715.641,-32.1028"/>
<polygon fill="midnightblue" stroke="midnightblue" points="715.217,-35.5821 725.675,-33.8845 716.441,-28.6899 715.217,-35.5821"/>
</g>
<!-- Node17&#45;&gt;Node8 -->
<g id="edge25" class="edge"><title>Node17&#45;&gt;Node8</title>
<path fill="none" stroke="midnightblue" d="M566.603,-200.771C578.491,-204.534 592.776,-208.404 606,-210.269 642.967,-215.484 653.138,-216.185 690,-210.269 741.295,-202.037 797.999,-180.897 832.046,-166.806"/>
<polygon fill="midnightblue" stroke="midnightblue" points="833.577,-169.959 841.439,-162.858 830.864,-163.506 833.577,-169.959"/>
</g>
<!-- Node17&#45;&gt;Node10 -->
<g id="edge26" class="edge"><title>Node17&#45;&gt;Node10</title>
<path fill="none" stroke="midnightblue" d="M568.674,-191.269C579.59,-191.269 592.279,-191.269 604.223,-191.269"/>
<polygon fill="midnightblue" stroke="midnightblue" points="604.465,-194.769 614.465,-191.269 604.465,-187.769 604.465,-194.769"/>
</g>
<!-- Node17&#45;&gt;Node11 -->
<g id="edge30" class="edge"><title>Node17&#45;&gt;Node11</title>
<path fill="none" stroke="midnightblue" d="M567.001,-181.68C580.18,-177 596.229,-171.3 610.484,-166.238"/>
<polygon fill="midnightblue" stroke="midnightblue" points="611.756,-169.5 620.008,-162.855 609.413,-162.904 611.756,-169.5"/>
</g>
<!-- Node18 -->
<g id="node18" class="node"><title>Node18</title>
<g id="a_node18"><a xlink:href="sdmm_8c.html#a8c99afbc312912297b19752cf7e0960b" target="_top" xlink:title="rcvr_datablock">
<polygon fill="white" stroke="black" points="824,-219.769 824,-238.769 904,-238.769 904,-219.769 824,-219.769"/>
<text text-anchor="middle" x="864" y="-226.769" font-family="Helvetica,sans-Serif" font-size="10.00">rcvr_datablock</text>
</a>
</g>
</g>
<!-- Node17&#45;&gt;Node18 -->
<g id="edge27" class="edge"><title>Node17&#45;&gt;Node18</title>
<path fill="none" stroke="midnightblue" d="M553.37,-200.831C566.175,-209.367 586.394,-221.271 606,-226.269 676.532,-244.252 761.527,-240.535 813.916,-235.472"/>
<polygon fill="midnightblue" stroke="midnightblue" points="814.352,-238.945 823.945,-234.447 813.641,-231.982 814.352,-238.945"/>
</g>
<!-- Node18&#45;&gt;Node9 -->
<g id="edge28" class="edge"><title>Node18&#45;&gt;Node9</title>
<path fill="none" stroke="midnightblue" d="M882.787,-219.735C889.701,-215.675 897.504,-210.637 904,-205.269 923.6,-189.074 942.861,-167.052 955.263,-151.849"/>
<polygon fill="midnightblue" stroke="midnightblue" points="958.205,-153.774 961.724,-143.781 952.741,-149.399 958.205,-153.774"/>
</g>
<!-- Node18&#45;&gt;Node14 -->
<g id="edge29" class="edge"><title>Node18&#45;&gt;Node14</title>
<path fill="none" stroke="midnightblue" d="M904.022,-222.14C915.002,-220.134 926.806,-217.978 937.302,-216.06"/>
<polygon fill="midnightblue" stroke="midnightblue" points="938.074,-219.477 947.282,-214.237 936.816,-212.591 938.074,-219.477"/>
</g>
<!-- Node19&#45;&gt;Node5 -->
<g id="edge32" class="edge"><title>Node19&#45;&gt;Node5</title>
<path fill="none" stroke="midnightblue" d="M243.729,-191.269C251.617,-191.269 260.795,-191.269 269.973,-191.269"/>
<polygon fill="midnightblue" stroke="midnightblue" points="270.268,-194.769 280.268,-191.269 270.268,-187.769 270.268,-194.769"/>
</g>
</g>
</svg>
