<?xml version="1.0" encoding="UTF-8" standalone="no"?>
<!DOCTYPE svg PUBLIC "-//W3C//DTD SVG 1.1//EN"
 "http://www.w3.org/Graphics/SVG/1.1/DTD/svg11.dtd">
<!-- Generated by graphviz version 2.36.0 (20140111.2315)
 -->
<!-- Title: follow_path Pages: 1 -->
<svg width="1230pt" height="301pt"
 viewBox="0.00 0.00 1230.00 300.74" xmlns="http://www.w3.org/2000/svg" xmlns:xlink="http://www.w3.org/1999/xlink">
<g id="graph0" class="graph" transform="scale(1 1) rotate(0) translate(4 296.742)">
<title>follow_path</title>
<polygon fill="white" stroke="none" points="-4,4 -4,-296.742 1226,-296.742 1226,4 -4,4"/>
<!-- Node1 -->
<g id="node1" class="node"><title>Node1</title>
<polygon fill="#bfbfbf" stroke="black" points="0,-57.5 0,-76.5 66,-76.5 66,-57.5 0,-57.5"/>
<text text-anchor="middle" x="33" y="-64.5" font-family="Helvetica,sans-Serif" font-size="10.00">follow_path</text>
</g>
<!-- Node2 -->
<g id="node2" class="node"><title>Node2</title>
<g id="a_node2"><a xlink:href="ff_8c.html#a0bb6c133dec7b4fda00bce387e72e636" target="_top" xlink:title="create_name">
<polygon fill="white" stroke="black" points="102.5,-171.5 102.5,-190.5 175.5,-190.5 175.5,-171.5 102.5,-171.5"/>
<text text-anchor="middle" x="139" y="-178.5" font-family="Helvetica,sans-Serif" font-size="10.00">create_name</text>
</a>
</g>
</g>
<!-- Node1&#45;&gt;Node2 -->
<g id="edge1" class="edge"><title>Node1&#45;&gt;Node2</title>
<path fill="none" stroke="midnightblue" d="M42.867,-76.7196C60.52,-96.0699 100.261,-139.632 122.385,-163.884"/>
<polygon fill="midnightblue" stroke="midnightblue" points="119.83,-166.276 129.155,-171.305 125.001,-161.558 119.83,-166.276"/>
</g>
<!-- Node5 -->
<g id="node5" class="node"><title>Node5</title>
<g id="a_node5"><a xlink:href="ff_8c.html#a809fe0feb8e7a864bc048cbd22cc0702" target="_top" xlink:title="dir_find">
<polygon fill="white" stroke="black" points="115,-76.5 115,-95.5 163,-95.5 163,-76.5 115,-76.5"/>
<text text-anchor="middle" x="139" y="-83.5" font-family="Helvetica,sans-Serif" font-size="10.00">dir_find</text>
</a>
</g>
</g>
<!-- Node1&#45;&gt;Node5 -->
<g id="edge4" class="edge"><title>Node1&#45;&gt;Node5</title>
<path fill="none" stroke="midnightblue" d="M66.052,-72.8557C78.3616,-75.1045 92.4291,-77.6745 104.841,-79.942"/>
<polygon fill="midnightblue" stroke="midnightblue" points="104.336,-83.4076 114.802,-81.7619 105.594,-76.5216 104.336,-83.4076"/>
</g>
<!-- Node25 -->
<g id="node25" class="node"><title>Node25</title>
<g id="a_node25"><a xlink:href="ff_8c.html#ad173ae134b70df2fe9668a90247567ff" target="_top" xlink:title="dir_sdi">
<polygon fill="white" stroke="black" points="220.5,-38.5 220.5,-57.5 265.5,-57.5 265.5,-38.5 220.5,-38.5"/>
<text text-anchor="middle" x="243" y="-45.5" font-family="Helvetica,sans-Serif" font-size="10.00">dir_sdi</text>
</a>
</g>
</g>
<!-- Node1&#45;&gt;Node25 -->
<g id="edge46" class="edge"><title>Node1&#45;&gt;Node25</title>
<path fill="none" stroke="midnightblue" d="M66.0442,-64.0729C105.21,-60.4953 171.079,-54.4783 210.154,-50.909"/>
<polygon fill="midnightblue" stroke="midnightblue" points="210.78,-54.3665 220.42,-49.9712 210.143,-47.3955 210.78,-54.3665"/>
</g>
<!-- Node27 -->
<g id="node27" class="node"><title>Node27</title>
<g id="a_node27"><a xlink:href="ff_8c.html#a996d46ee1f9aed650880aecb4b7eb314" target="_top" xlink:title="ld_clust">
<polygon fill="white" stroke="black" points="114,-0.5 114,-19.5 164,-19.5 164,-0.5 114,-0.5"/>
<text text-anchor="middle" x="139" y="-7.5" font-family="Helvetica,sans-Serif" font-size="10.00">ld_clust</text>
</a>
</g>
</g>
<!-- Node1&#45;&gt;Node27 -->
<g id="edge47" class="edge"><title>Node1&#45;&gt;Node27</title>
<path fill="none" stroke="midnightblue" d="M51.6422,-57.3307C68.1016,-48.3097 92.8737,-34.7327 111.671,-24.4302"/>
<polygon fill="midnightblue" stroke="midnightblue" points="113.531,-27.402 120.618,-19.5265 110.167,-21.2635 113.531,-27.402"/>
</g>
<!-- Node3 -->
<g id="node3" class="node"><title>Node3</title>
<g id="a_node3"><a xlink:href="ff_8c.html#a1a60c4200d040e4f47e87dc927f23d14" target="_top" xlink:title="chk_chr">
<polygon fill="white" stroke="black" points="217.5,-209.5 217.5,-228.5 268.5,-228.5 268.5,-209.5 217.5,-209.5"/>
<text text-anchor="middle" x="243" y="-216.5" font-family="Helvetica,sans-Serif" font-size="10.00">chk_chr</text>
</a>
</g>
</g>
<!-- Node2&#45;&gt;Node3 -->
<g id="edge2" class="edge"><title>Node2&#45;&gt;Node3</title>
<path fill="none" stroke="midnightblue" d="M165.739,-190.589C178.466,-195.331 194.002,-201.118 207.722,-206.23"/>
<polygon fill="midnightblue" stroke="midnightblue" points="206.732,-209.596 217.325,-209.807 209.176,-203.036 206.732,-209.596"/>
</g>
<!-- Node4 -->
<g id="node4" class="node"><title>Node4</title>
<g id="a_node4"><a xlink:href="ff_8c.html#a02eb5189e43056a9ddc8a59cbe89be93" target="_top" xlink:title="mem_set">
<polygon fill="white" stroke="black" points="317.5,-190.5 317.5,-209.5 374.5,-209.5 374.5,-190.5 317.5,-190.5"/>
<text text-anchor="middle" x="346" y="-197.5" font-family="Helvetica,sans-Serif" font-size="10.00">mem_set</text>
</a>
</g>
</g>
<!-- Node2&#45;&gt;Node4 -->
<g id="edge3" class="edge"><title>Node2&#45;&gt;Node4</title>
<path fill="none" stroke="midnightblue" d="M175.708,-184.31C212.513,-187.721 269.667,-193.018 307.215,-196.498"/>
<polygon fill="midnightblue" stroke="midnightblue" points="306.972,-199.99 317.253,-197.428 307.619,-193.02 306.972,-199.99"/>
</g>
<!-- Node6 -->
<g id="node6" class="node"><title>Node6</title>
<g id="a_node6"><a xlink:href="ff_8c.html#aa70eb326eb0c3702ae16adf0b4dce1cc" target="_top" xlink:title="dir_next">
<polygon fill="white" stroke="black" points="217.5,-114.5 217.5,-133.5 268.5,-133.5 268.5,-114.5 217.5,-114.5"/>
<text text-anchor="middle" x="243" y="-121.5" font-family="Helvetica,sans-Serif" font-size="10.00">dir_next</text>
</a>
</g>
</g>
<!-- Node5&#45;&gt;Node6 -->
<g id="edge5" class="edge"><title>Node5&#45;&gt;Node6</title>
<path fill="none" stroke="midnightblue" d="M163.145,-94.6228C176.231,-99.4978 192.845,-105.687 207.446,-111.127"/>
<polygon fill="midnightblue" stroke="midnightblue" points="206.571,-114.536 217.164,-114.747 209.015,-107.976 206.571,-114.536"/>
</g>
<!-- Node10 -->
<g id="node10" class="node"><title>Node10</title>
<g id="a_node10"><a xlink:href="ff_8c.html#af2e8986556ee6644b4bf31fa4158d735" target="_top" xlink:title="move_window">
<polygon fill="white" stroke="black" points="502.5,-81.5 502.5,-100.5 581.5,-100.5 581.5,-81.5 502.5,-81.5"/>
<text text-anchor="middle" x="542" y="-88.5" font-family="Helvetica,sans-Serif" font-size="10.00">move_window</text>
</a>
</g>
</g>
<!-- Node5&#45;&gt;Node10 -->
<g id="edge45" class="edge"><title>Node5&#45;&gt;Node10</title>
<path fill="none" stroke="midnightblue" d="M148.671,-76.3598C161.201,-63.1432 185.76,-39.8077 212,-29 282.008,-0.165009 308.033,-1.83148 382,-18 432.874,-29.1207 486.92,-58.0873 517.071,-76.009"/>
<polygon fill="midnightblue" stroke="midnightblue" points="515.619,-79.2211 525.987,-81.403 519.243,-73.2319 515.619,-79.2211"/>
</g>
<!-- Node5&#45;&gt;Node25 -->
<g id="edge41" class="edge"><title>Node5&#45;&gt;Node25</title>
<path fill="none" stroke="midnightblue" d="M163.145,-77.3772C177.225,-72.132 195.389,-65.3649 210.735,-59.6478"/>
<polygon fill="midnightblue" stroke="midnightblue" points="212.192,-62.8399 220.341,-56.069 209.748,-56.2804 212.192,-62.8399"/>
</g>
<!-- Node26 -->
<g id="node26" class="node"><title>Node26</title>
<g id="a_node26"><a xlink:href="ff_8c.html#a38b4f223d18bd4416d8bce0f07a63c01" target="_top" xlink:title="mem_cmp">
<polygon fill="white" stroke="black" points="212,-76.5 212,-95.5 274,-95.5 274,-76.5 212,-76.5"/>
<text text-anchor="middle" x="243" y="-83.5" font-family="Helvetica,sans-Serif" font-size="10.00">mem_cmp</text>
</a>
</g>
</g>
<!-- Node5&#45;&gt;Node26 -->
<g id="edge44" class="edge"><title>Node5&#45;&gt;Node26</title>
<path fill="none" stroke="midnightblue" d="M163.145,-86C174.555,-86 188.647,-86 201.748,-86"/>
<polygon fill="midnightblue" stroke="midnightblue" points="201.972,-89.5001 211.972,-86 201.972,-82.5001 201.972,-89.5001"/>
</g>
<!-- Node6&#45;&gt;Node4 -->
<g id="edge39" class="edge"><title>Node6&#45;&gt;Node4</title>
<path fill="none" stroke="midnightblue" d="M255.978,-133.828C269.062,-144.471 290.728,-161.825 310,-176 313.843,-178.827 317.981,-181.759 322.019,-184.562"/>
<polygon fill="midnightblue" stroke="midnightblue" points="320.318,-187.639 330.546,-190.403 324.273,-181.864 320.318,-187.639"/>
</g>
<!-- Node7 -->
<g id="node7" class="node"><title>Node7</title>
<g id="a_node7"><a xlink:href="ff_8c.html#a7519abb60fe91f6aa1d17f64fbae123a" target="_top" xlink:title="clust2sect">
<polygon fill="white" stroke="black" points="315,-38.5 315,-57.5 377,-57.5 377,-38.5 315,-38.5"/>
<text text-anchor="middle" x="346" y="-45.5" font-family="Helvetica,sans-Serif" font-size="10.00">clust2sect</text>
</a>
</g>
</g>
<!-- Node6&#45;&gt;Node7 -->
<g id="edge6" class="edge"><title>Node6&#45;&gt;Node7</title>
<path fill="none" stroke="midnightblue" d="M260.236,-114.452C264.801,-111.573 269.692,-108.297 274,-105 291.236,-91.8081 293.007,-85.5042 310,-72 313.668,-69.0849 317.674,-66.137 321.623,-63.3526"/>
<polygon fill="midnightblue" stroke="midnightblue" points="323.754,-66.1349 330.024,-57.5944 319.797,-60.3609 323.754,-66.1349"/>
</g>
<!-- Node8 -->
<g id="node8" class="node"><title>Node8</title>
<g id="a_node8"><a xlink:href="ff_8c.html#acbd0a20a17c6f9b6d536490d1cc3c5ac" target="_top" xlink:title="create_chain">
<polygon fill="white" stroke="black" points="310,-114.5 310,-133.5 382,-133.5 382,-114.5 310,-114.5"/>
<text text-anchor="middle" x="346" y="-121.5" font-family="Helvetica,sans-Serif" font-size="10.00">create_chain</text>
</a>
</g>
</g>
<!-- Node6&#45;&gt;Node8 -->
<g id="edge7" class="edge"><title>Node6&#45;&gt;Node8</title>
<path fill="none" stroke="midnightblue" d="M268.707,-124C278.09,-124 289.096,-124 299.783,-124"/>
<polygon fill="midnightblue" stroke="midnightblue" points="299.868,-127.5 309.868,-124 299.868,-120.5 299.868,-127.5"/>
</g>
<!-- Node9 -->
<g id="node9" class="node"><title>Node9</title>
<g id="a_node9"><a xlink:href="ff_8c.html#a65611adf1626e5e08da77cd33a98dd8b" target="_top" xlink:title="get_fat">
<polygon fill="white" stroke="black" points="418.5,-76.5 418.5,-95.5 465.5,-95.5 465.5,-76.5 418.5,-76.5"/>
<text text-anchor="middle" x="442" y="-83.5" font-family="Helvetica,sans-Serif" font-size="10.00">get_fat</text>
</a>
</g>
</g>
<!-- Node6&#45;&gt;Node9 -->
<g id="edge38" class="edge"><title>Node6&#45;&gt;Node9</title>
<path fill="none" stroke="midnightblue" d="M268.557,-116.067C280.892,-112.304 296.129,-107.988 310,-105 343.121,-97.8654 381.541,-92.6469 408.171,-89.5038"/>
<polygon fill="midnightblue" stroke="midnightblue" points="408.578,-92.9802 418.113,-88.3622 407.779,-86.0259 408.578,-92.9802"/>
</g>
<!-- Node11 -->
<g id="node11" class="node"><title>Node11</title>
<g id="a_node11"><a xlink:href="ff_8c.html#a5e18753404354b210096f9af99e31bc1" target="_top" xlink:title="sync_window">
<polygon fill="white" stroke="black" points="618,-133.5 618,-152.5 694,-152.5 694,-133.5 618,-133.5"/>
<text text-anchor="middle" x="656" y="-140.5" font-family="Helvetica,sans-Serif" font-size="10.00">sync_window</text>
</a>
</g>
</g>
<!-- Node6&#45;&gt;Node11 -->
<g id="edge40" class="edge"><title>Node6&#45;&gt;Node11</title>
<path fill="none" stroke="midnightblue" d="M268.714,-132.898C280.957,-136.844 296.068,-141.035 310,-143 415.416,-157.871 540.76,-152.092 607.543,-147.169"/>
<polygon fill="midnightblue" stroke="midnightblue" points="608.043,-150.641 617.747,-146.39 607.509,-143.662 608.043,-150.641"/>
</g>
<!-- Node8&#45;&gt;Node9 -->
<g id="edge8" class="edge"><title>Node8&#45;&gt;Node9</title>
<path fill="none" stroke="midnightblue" d="M370.72,-114.411C382.222,-109.761 396.211,-104.106 408.672,-99.0689"/>
<polygon fill="midnightblue" stroke="midnightblue" points="410.301,-102.186 418.26,-95.1927 407.677,-95.6957 410.301,-102.186"/>
</g>
<!-- Node24 -->
<g id="node24" class="node"><title>Node24</title>
<g id="a_node24"><a xlink:href="ff_8c.html#abd4b6b071a8d728a88727051c12bc6d7" target="_top" xlink:title="put_fat">
<polygon fill="white" stroke="black" points="418.5,-114.5 418.5,-133.5 465.5,-133.5 465.5,-114.5 418.5,-114.5"/>
<text text-anchor="middle" x="442" y="-121.5" font-family="Helvetica,sans-Serif" font-size="10.00">put_fat</text>
</a>
</g>
</g>
<!-- Node8&#45;&gt;Node24 -->
<g id="edge36" class="edge"><title>Node8&#45;&gt;Node24</title>
<path fill="none" stroke="midnightblue" d="M382.002,-124C390.517,-124 399.595,-124 408.013,-124"/>
<polygon fill="midnightblue" stroke="midnightblue" points="408.23,-127.5 418.23,-124 408.23,-120.5 408.23,-127.5"/>
</g>
<!-- Node9&#45;&gt;Node10 -->
<g id="edge9" class="edge"><title>Node9&#45;&gt;Node10</title>
<path fill="none" stroke="midnightblue" d="M465.729,-87.1597C473.702,-87.5664 482.992,-88.0404 492.269,-88.5137"/>
<polygon fill="midnightblue" stroke="midnightblue" points="492.102,-92.0097 502.268,-89.0239 492.459,-85.0188 492.102,-92.0097"/>
</g>
<!-- Node10&#45;&gt;Node11 -->
<g id="edge10" class="edge"><title>Node10&#45;&gt;Node11</title>
<path fill="none" stroke="midnightblue" d="M563.543,-100.538C580.722,-108.514 605.465,-120.002 624.884,-129.018"/>
<polygon fill="midnightblue" stroke="midnightblue" points="623.664,-132.31 634.208,-133.347 626.612,-125.961 623.664,-132.31"/>
</g>
<!-- Node22 -->
<g id="node22" class="node"><title>Node22</title>
<g id="a_node22"><a xlink:href="diskio_8h.html#ac0c802f8a12fa2047b4bec7109b9293f" target="_top" xlink:title="disk_read">
<polygon fill="white" stroke="black" points="731.5,-81.5 731.5,-100.5 790.5,-100.5 790.5,-81.5 731.5,-81.5"/>
<text text-anchor="middle" x="761" y="-88.5" font-family="Helvetica,sans-Serif" font-size="10.00">disk_read</text>
</a>
</g>
</g>
<!-- Node10&#45;&gt;Node22 -->
<g id="edge29" class="edge"><title>Node10&#45;&gt;Node22</title>
<path fill="none" stroke="midnightblue" d="M581.795,-91C621.187,-91 681.836,-91 721.221,-91"/>
<polygon fill="midnightblue" stroke="midnightblue" points="721.24,-94.5001 731.24,-91 721.24,-87.5001 721.24,-94.5001"/>
</g>
<!-- Node12 -->
<g id="node12" class="node"><title>Node12</title>
<g id="a_node12"><a xlink:href="diskio_8h.html#ac4785625f4bb82e33562079813659880" target="_top" xlink:title="disk_write">
<polygon fill="white" stroke="black" points="730.5,-133.5 730.5,-152.5 791.5,-152.5 791.5,-133.5 730.5,-133.5"/>
<text text-anchor="middle" x="761" y="-140.5" font-family="Helvetica,sans-Serif" font-size="10.00">disk_write</text>
</a>
</g>
</g>
<!-- Node11&#45;&gt;Node12 -->
<g id="edge11" class="edge"><title>Node11&#45;&gt;Node12</title>
<path fill="none" stroke="midnightblue" d="M694.185,-143C702.624,-143 711.621,-143 720.165,-143"/>
<polygon fill="midnightblue" stroke="midnightblue" points="720.295,-146.5 730.295,-143 720.294,-139.5 720.295,-146.5"/>
</g>
<!-- Node13 -->
<g id="node13" class="node"><title>Node13</title>
<g id="a_node13"><a xlink:href="sdmm_8c.html#ac0eadae94de728461ccade9e03fafd8c" target="_top" xlink:title="deselect">
<polygon fill="white" stroke="black" points="1059.5,-86.5 1059.5,-105.5 1112.5,-105.5 1112.5,-86.5 1059.5,-86.5"/>
<text text-anchor="middle" x="1086" y="-93.5" font-family="Helvetica,sans-Serif" font-size="10.00">deselect</text>
</a>
</g>
</g>
<!-- Node12&#45;&gt;Node13 -->
<g id="edge12" class="edge"><title>Node12&#45;&gt;Node13</title>
<path fill="none" stroke="midnightblue" d="M791.52,-138.704C850.972,-130.054 984.921,-110.563 1049.23,-101.206"/>
<polygon fill="midnightblue" stroke="midnightblue" points="1049.9,-104.644 1059.29,-99.7406 1048.89,-97.7171 1049.9,-104.644"/>
</g>
<!-- Node15 -->
<g id="node15" class="node"><title>Node15</title>
<g id="a_node15"><a xlink:href="sdmm_8c.html#a21ad8e9a107ea2000705a3edfebaaa2d" target="_top" xlink:title="disk_status">
<polygon fill="white" stroke="black" points="836.5,-86.5 836.5,-105.5 903.5,-105.5 903.5,-86.5 836.5,-86.5"/>
<text text-anchor="middle" x="870" y="-93.5" font-family="Helvetica,sans-Serif" font-size="10.00">disk_status</text>
</a>
</g>
</g>
<!-- Node12&#45;&gt;Node15 -->
<g id="edge14" class="edge"><title>Node12&#45;&gt;Node15</title>
<path fill="none" stroke="midnightblue" d="M783.653,-133.489C799.213,-126.654 820.425,-117.337 837.808,-109.701"/>
<polygon fill="midnightblue" stroke="midnightblue" points="839.264,-112.885 847.012,-105.658 836.449,-106.476 839.264,-112.885"/>
</g>
<!-- Node16 -->
<g id="node16" class="node"><title>Node16</title>
<g id="a_node16"><a xlink:href="sdmm_8c.html#a99684b493c8bfdb0288a2e24e52f6871" target="_top" xlink:title="send_cmd">
<polygon fill="white" stroke="black" points="839,-162.5 839,-181.5 901,-181.5 901,-162.5 839,-162.5"/>
<text text-anchor="middle" x="870" y="-169.5" font-family="Helvetica,sans-Serif" font-size="10.00">send_cmd</text>
</a>
</g>
</g>
<!-- Node12&#45;&gt;Node16 -->
<g id="edge15" class="edge"><title>Node12&#45;&gt;Node16</title>
<path fill="none" stroke="midnightblue" d="M791.521,-151.001C803.138,-154.15 816.657,-157.814 829.119,-161.191"/>
<polygon fill="midnightblue" stroke="midnightblue" points="828.263,-164.585 838.831,-163.823 830.094,-157.829 828.263,-164.585"/>
</g>
<!-- Node21 -->
<g id="node21" class="node"><title>Node21</title>
<g id="a_node21"><a xlink:href="sdmm_8c.html#aefbd30f6bdff37184f58faf98ad1c6e0" target="_top" xlink:title="xmit_datablock">
<polygon fill="white" stroke="black" points="828.5,-257.5 828.5,-276.5 911.5,-276.5 911.5,-257.5 828.5,-257.5"/>
<text text-anchor="middle" x="870" y="-264.5" font-family="Helvetica,sans-Serif" font-size="10.00">xmit_datablock</text>
</a>
</g>
</g>
<!-- Node12&#45;&gt;Node21 -->
<g id="edge25" class="edge"><title>Node12&#45;&gt;Node21</title>
<path fill="none" stroke="midnightblue" d="M770.396,-152.73C788.445,-173.646 831.148,-223.135 853.983,-249.598"/>
<polygon fill="midnightblue" stroke="midnightblue" points="851.46,-252.031 860.643,-257.315 856.76,-247.458 851.46,-252.031"/>
</g>
<!-- Node14 -->
<g id="node14" class="node"><title>Node14</title>
<g id="a_node14"><a xlink:href="sdmm_8c.html#ab628371b03508f9db7c6daf1203ed84d" target="_top" xlink:title="rcvr_mmc">
<polygon fill="white" stroke="black" points="1162,-143.5 1162,-162.5 1222,-162.5 1222,-143.5 1162,-143.5"/>
<text text-anchor="middle" x="1192" y="-150.5" font-family="Helvetica,sans-Serif" font-size="10.00">rcvr_mmc</text>
</a>
</g>
</g>
<!-- Node13&#45;&gt;Node14 -->
<g id="edge13" class="edge"><title>Node13&#45;&gt;Node14</title>
<path fill="none" stroke="midnightblue" d="M1107.39,-105.573C1113.43,-108.505 1120.02,-111.803 1126,-115 1139.69,-122.321 1154.66,-131.025 1166.78,-138.255"/>
<polygon fill="midnightblue" stroke="midnightblue" points="1165.05,-141.299 1175.43,-143.448 1168.66,-135.299 1165.05,-141.299"/>
</g>
<!-- Node16&#45;&gt;Node13 -->
<g id="edge16" class="edge"><title>Node16&#45;&gt;Node13</title>
<path fill="none" stroke="midnightblue" d="M898.103,-162.375C936.628,-148.693 1007.26,-123.609 1049.79,-108.504"/>
<polygon fill="midnightblue" stroke="midnightblue" points="1051.2,-111.719 1059.45,-105.074 1048.85,-105.123 1051.2,-111.719"/>
</g>
<!-- Node16&#45;&gt;Node14 -->
<g id="edge24" class="edge"><title>Node16&#45;&gt;Node14</title>
<path fill="none" stroke="midnightblue" d="M901.04,-181.203C915.146,-185.061 932.281,-189.089 948,-191 1026.81,-200.58 1048.78,-194.435 1126,-176 1136.76,-173.43 1148.23,-169.717 1158.49,-166.021"/>
<polygon fill="midnightblue" stroke="midnightblue" points="1159.74,-169.29 1167.89,-162.521 1157.3,-162.729 1159.74,-169.29"/>
</g>
<!-- Node17 -->
<g id="node17" class="node"><title>Node17</title>
<g id="a_node17"><a xlink:href="sdmm_8c.html#ab45cb1d47cda5822ce492ad3c11867ae" target="_top" xlink:title="select">
<polygon fill="white" stroke="black" points="957.5,-162.5 957.5,-181.5 1000.5,-181.5 1000.5,-162.5 957.5,-162.5"/>
<text text-anchor="middle" x="979" y="-169.5" font-family="Helvetica,sans-Serif" font-size="10.00">select</text>
</a>
</g>
</g>
<!-- Node16&#45;&gt;Node17 -->
<g id="edge17" class="edge"><title>Node16&#45;&gt;Node17</title>
<path fill="none" stroke="midnightblue" d="M901.09,-172C915.375,-172 932.433,-172 946.85,-172"/>
<polygon fill="midnightblue" stroke="midnightblue" points="947.271,-175.5 957.271,-172 947.271,-168.5 947.271,-175.5"/>
</g>
<!-- Node20 -->
<g id="node20" class="node"><title>Node20</title>
<g id="a_node20"><a xlink:href="sdmm_8c.html#ace0af708caf7775204ca74fbd46818bb" target="_top" xlink:title="xmit_mmc">
<polygon fill="white" stroke="black" points="948,-238.5 948,-257.5 1010,-257.5 1010,-238.5 948,-238.5"/>
<text text-anchor="middle" x="979" y="-245.5" font-family="Helvetica,sans-Serif" font-size="10.00">xmit_mmc</text>
</a>
</g>
</g>
<!-- Node16&#45;&gt;Node20 -->
<g id="edge23" class="edge"><title>Node16&#45;&gt;Node20</title>
<path fill="none" stroke="midnightblue" d="M884.552,-181.625C902.641,-194.474 934.888,-217.378 956.361,-232.63"/>
<polygon fill="midnightblue" stroke="midnightblue" points="954.379,-235.515 964.558,-238.453 958.432,-229.808 954.379,-235.515"/>
</g>
<!-- Node17&#45;&gt;Node13 -->
<g id="edge22" class="edge"><title>Node17&#45;&gt;Node13</title>
<path fill="none" stroke="midnightblue" d="M992.413,-162.375C997.875,-158.061 1004.33,-152.86 1010,-148 1026.48,-133.879 1028.06,-127.213 1046,-115 1048.39,-113.371 1050.95,-111.803 1053.56,-110.314"/>
<polygon fill="midnightblue" stroke="midnightblue" points="1055.31,-113.349 1062.52,-105.584 1052.04,-107.159 1055.31,-113.349"/>
</g>
<!-- Node17&#45;&gt;Node14 -->
<g id="edge18" class="edge"><title>Node17&#45;&gt;Node14</title>
<path fill="none" stroke="midnightblue" d="M1000.62,-170.144C1035.56,-166.997 1106.98,-160.566 1151.72,-156.537"/>
<polygon fill="midnightblue" stroke="midnightblue" points="1152.29,-160 1161.93,-155.617 1151.66,-153.028 1152.29,-160"/>
</g>
<!-- Node18 -->
<g id="node18" class="node"><title>Node18</title>
<g id="a_node18"><a xlink:href="sdmm_8c.html#a624a19e248af05530dae5c0cc1dddc11" target="_top" xlink:title="wait_ready">
<polygon fill="white" stroke="black" points="1054,-124.5 1054,-143.5 1118,-143.5 1118,-124.5 1054,-124.5"/>
<text text-anchor="middle" x="1086" y="-131.5" font-family="Helvetica,sans-Serif" font-size="10.00">wait_ready</text>
</a>
</g>
</g>
<!-- Node17&#45;&gt;Node18 -->
<g id="edge19" class="edge"><title>Node17&#45;&gt;Node18</title>
<path fill="none" stroke="midnightblue" d="M1000.74,-164.492C1014.5,-159.513 1032.92,-152.846 1049.03,-147.017"/>
<polygon fill="midnightblue" stroke="midnightblue" points="1050.49,-150.212 1058.7,-143.518 1048.11,-143.63 1050.49,-150.212"/>
</g>
<!-- Node18&#45;&gt;Node14 -->
<g id="edge20" class="edge"><title>Node18&#45;&gt;Node14</title>
<path fill="none" stroke="midnightblue" d="M1118.2,-139.701C1128.83,-141.642 1140.85,-143.837 1152.01,-145.876"/>
<polygon fill="midnightblue" stroke="midnightblue" points="1151.49,-149.339 1161.95,-147.693 1152.74,-142.453 1151.49,-149.339"/>
</g>
<!-- Node19 -->
<g id="node19" class="node"><title>Node19</title>
<g id="a_node19"><a xlink:href="sdmm_8c.html#a76a43e01b9676630e121e5a659acbb3f" target="_top" xlink:title="dly_us">
<polygon fill="white" stroke="black" points="1169.5,-67.5 1169.5,-86.5 1214.5,-86.5 1214.5,-67.5 1169.5,-67.5"/>
<text text-anchor="middle" x="1192" y="-74.5" font-family="Helvetica,sans-Serif" font-size="10.00">dly_us</text>
</a>
</g>
</g>
<!-- Node18&#45;&gt;Node19 -->
<g id="edge21" class="edge"><title>Node18&#45;&gt;Node19</title>
<path fill="none" stroke="midnightblue" d="M1107.39,-124.427C1113.43,-121.495 1120.02,-118.197 1126,-115 1139.69,-107.679 1154.66,-98.9751 1166.78,-91.7454"/>
<polygon fill="midnightblue" stroke="midnightblue" points="1168.66,-94.7014 1175.43,-86.5515 1165.05,-88.7009 1168.66,-94.7014"/>
</g>
<!-- Node21&#45;&gt;Node14 -->
<g id="edge28" class="edge"><title>Node21&#45;&gt;Node14</title>
<path fill="none" stroke="midnightblue" d="M894.195,-276.651C922.259,-286.904 970.64,-299.984 1010,-287 1080.89,-263.613 1146.72,-200.569 1175.61,-170.035"/>
<polygon fill="midnightblue" stroke="midnightblue" points="1178.2,-172.387 1182.44,-162.679 1173.07,-167.622 1178.2,-172.387"/>
</g>
<!-- Node21&#45;&gt;Node18 -->
<g id="edge26" class="edge"><title>Node21&#45;&gt;Node18</title>
<path fill="none" stroke="midnightblue" d="M907.278,-276.505C936.958,-282.161 978.952,-285.136 1010,-267 1052.2,-242.35 1072.52,-184.227 1080.58,-153.626"/>
<polygon fill="midnightblue" stroke="midnightblue" points="1084.03,-154.257 1083.02,-143.711 1077.23,-152.587 1084.03,-154.257"/>
</g>
<!-- Node21&#45;&gt;Node20 -->
<g id="edge27" class="edge"><title>Node21&#45;&gt;Node20</title>
<path fill="none" stroke="midnightblue" d="M911.757,-259.763C920.239,-258.257 929.174,-256.67 937.641,-255.167"/>
<polygon fill="midnightblue" stroke="midnightblue" points="938.441,-258.579 947.675,-253.385 937.217,-251.687 938.441,-258.579"/>
</g>
<!-- Node22&#45;&gt;Node13 -->
<g id="edge30" class="edge"><title>Node22&#45;&gt;Node13</title>
<path fill="none" stroke="midnightblue" d="M790.706,-83.5472C802.214,-80.9182 815.652,-78.2953 828,-77 908.478,-68.5584 929.641,-72.493 1010,-82 1022.95,-83.5319 1037.03,-85.9557 1049.45,-88.359"/>
<polygon fill="midnightblue" stroke="midnightblue" points="1048.95,-91.8275 1059.44,-90.3529 1050.32,-84.9629 1048.95,-91.8275"/>
</g>
<!-- Node22&#45;&gt;Node15 -->
<g id="edge31" class="edge"><title>Node22&#45;&gt;Node15</title>
<path fill="none" stroke="midnightblue" d="M790.674,-92.3399C801.59,-92.85 814.279,-93.4429 826.223,-94.0011"/>
<polygon fill="midnightblue" stroke="midnightblue" points="826.313,-97.509 836.465,-94.4797 826.64,-90.5166 826.313,-97.509"/>
</g>
<!-- Node22&#45;&gt;Node16 -->
<g id="edge35" class="edge"><title>Node22&#45;&gt;Node16</title>
<path fill="none" stroke="midnightblue" d="M774.694,-100.61C792.874,-114.372 826.531,-139.851 848.331,-156.354"/>
<polygon fill="midnightblue" stroke="midnightblue" points="846.236,-159.158 856.322,-162.403 850.461,-153.576 846.236,-159.158"/>
</g>
<!-- Node23 -->
<g id="node23" class="node"><title>Node23</title>
<g id="a_node23"><a xlink:href="sdmm_8c.html#a8c99afbc312912297b19752cf7e0960b" target="_top" xlink:title="rcvr_datablock">
<polygon fill="white" stroke="black" points="1046,-48.5 1046,-67.5 1126,-67.5 1126,-48.5 1046,-48.5"/>
<text text-anchor="middle" x="1086" y="-55.5" font-family="Helvetica,sans-Serif" font-size="10.00">rcvr_datablock</text>
</a>
</g>
</g>
<!-- Node22&#45;&gt;Node23 -->
<g id="edge32" class="edge"><title>Node22&#45;&gt;Node23</title>
<path fill="none" stroke="midnightblue" d="M784.152,-81.4307C796.755,-76.4602 812.978,-70.844 828,-68 899.213,-54.5179 983.44,-54.1123 1035.55,-55.6209"/>
<polygon fill="midnightblue" stroke="midnightblue" points="1035.74,-59.1288 1045.85,-55.9563 1035.97,-52.1325 1035.74,-59.1288"/>
</g>
<!-- Node23&#45;&gt;Node14 -->
<g id="edge33" class="edge"><title>Node23&#45;&gt;Node14</title>
<path fill="none" stroke="midnightblue" d="M1110.6,-67.5707C1115.92,-70.2383 1121.35,-73.4061 1126,-77 1147.55,-93.6692 1167.11,-118.463 1179.02,-135.155"/>
<polygon fill="midnightblue" stroke="midnightblue" points="1176.23,-137.276 1184.81,-143.492 1181.98,-133.282 1176.23,-137.276"/>
</g>
<!-- Node23&#45;&gt;Node19 -->
<g id="edge34" class="edge"><title>Node23&#45;&gt;Node19</title>
<path fill="none" stroke="midnightblue" d="M1126.02,-65.129C1137,-67.1349 1148.81,-69.2915 1159.3,-71.209"/>
<polygon fill="midnightblue" stroke="midnightblue" points="1158.82,-74.6781 1169.28,-73.0323 1160.07,-67.7921 1158.82,-74.6781"/>
</g>
<!-- Node24&#45;&gt;Node10 -->
<g id="edge37" class="edge"><title>Node24&#45;&gt;Node10</title>
<path fill="none" stroke="midnightblue" d="M465.729,-116.346C476.794,-112.62 490.397,-108.04 502.98,-103.803"/>
<polygon fill="midnightblue" stroke="midnightblue" points="504.426,-107.009 512.786,-100.501 502.192,-100.375 504.426,-107.009"/>
</g>
<!-- Node25&#45;&gt;Node7 -->
<g id="edge42" class="edge"><title>Node25&#45;&gt;Node7</title>
<path fill="none" stroke="midnightblue" d="M265.915,-48C277.177,-48 291.267,-48 304.421,-48"/>
<polygon fill="midnightblue" stroke="midnightblue" points="304.699,-51.5001 314.699,-48 304.699,-44.5001 304.699,-51.5001"/>
</g>
<!-- Node25&#45;&gt;Node9 -->
<g id="edge43" class="edge"><title>Node25&#45;&gt;Node9</title>
<path fill="none" stroke="midnightblue" d="M265.88,-38.3595C293.825,-27.5112 343.209,-13.3227 382,-29 401.498,-36.88 418.132,-54.6326 428.719,-68.2475"/>
<polygon fill="midnightblue" stroke="midnightblue" points="426.019,-70.483 434.772,-76.4517 431.651,-66.3269 426.019,-70.483"/>
</g>
</g>
</svg>
