<?xml version="1.0" encoding="UTF-8" standalone="no"?>
<!DOCTYPE svg PUBLIC "-//W3C//DTD SVG 1.1//EN"
 "http://www.w3.org/Graphics/SVG/1.1/DTD/svg11.dtd">
<!-- Generated by graphviz version 2.36.0 (20140111.2315)
 -->
<!-- Title: f_write Pages: 1 -->
<svg width="1022pt" height="334pt"
 viewBox="0.00 0.00 1022.00 333.94" xmlns="http://www.w3.org/2000/svg" xmlns:xlink="http://www.w3.org/1999/xlink">
<g id="graph0" class="graph" transform="scale(1 1) rotate(0) translate(4 329.942)">
<title>f_write</title>
<polygon fill="white" stroke="none" points="-4,4 -4,-329.942 1018,-329.942 1018,4 -4,4"/>
<!-- Node1 -->
<g id="node1" class="node"><title>Node1</title>
<polygon fill="#bfbfbf" stroke="black" points="0,-135.442 0,-154.442 46,-154.442 46,-135.442 0,-135.442"/>
<text text-anchor="middle" x="23" y="-142.442" font-family="Helvetica,sans-Serif" font-size="10.00">f_write</text>
</g>
<!-- Node2 -->
<g id="node2" class="node"><title>Node2</title>
<g id="a_node2"><a xlink:href="ff_8c.html#a7519abb60fe91f6aa1d17f64fbae123a" target="_top" xlink:title="clust2sect">
<polygon fill="white" stroke="black" points="87,-306.442 87,-325.442 149,-325.442 149,-306.442 87,-306.442"/>
<text text-anchor="middle" x="118" y="-313.442" font-family="Helvetica,sans-Serif" font-size="10.00">clust2sect</text>
</a>
</g>
</g>
<!-- Node1&#45;&gt;Node2 -->
<g id="edge1" class="edge"><title>Node1&#45;&gt;Node2</title>
<path fill="none" stroke="midnightblue" d="M25.7428,-154.515C30.6864,-179.489 46.7813,-247.739 82,-291.942 84.3903,-294.942 87.2559,-297.714 90.3047,-300.227"/>
<polygon fill="midnightblue" stroke="midnightblue" points="88.454,-303.209 98.602,-306.253 92.5675,-297.545 88.454,-303.209"/>
</g>
<!-- Node3 -->
<g id="node3" class="node"><title>Node3</title>
<g id="a_node3"><a xlink:href="ff_8c.html#acbd0a20a17c6f9b6d536490d1cc3c5ac" target="_top" xlink:title="create_chain">
<polygon fill="white" stroke="black" points="82,-192.442 82,-211.442 154,-211.442 154,-192.442 82,-192.442"/>
<text text-anchor="middle" x="118" y="-199.442" font-family="Helvetica,sans-Serif" font-size="10.00">create_chain</text>
</a>
</g>
</g>
<!-- Node1&#45;&gt;Node3 -->
<g id="edge2" class="edge"><title>Node1&#45;&gt;Node3</title>
<path fill="none" stroke="midnightblue" d="M39.7762,-154.611C54.2931,-163.508 76.0411,-176.838 92.7623,-187.086"/>
<polygon fill="midnightblue" stroke="midnightblue" points="91.1018,-190.173 101.457,-192.415 94.7598,-184.205 91.1018,-190.173"/>
</g>
<!-- Node5 -->
<g id="node5" class="node"><title>Node5</title>
<g id="a_node5"><a xlink:href="ff_8c.html#af2e8986556ee6644b4bf31fa4158d735" target="_top" xlink:title="move_window">
<polygon fill="white" stroke="black" points="294.5,-192.442 294.5,-211.442 373.5,-211.442 373.5,-192.442 294.5,-192.442"/>
<text text-anchor="middle" x="334" y="-199.442" font-family="Helvetica,sans-Serif" font-size="10.00">move_window</text>
</a>
</g>
</g>
<!-- Node1&#45;&gt;Node5 -->
<g id="edge36" class="edge"><title>Node1&#45;&gt;Node5</title>
<path fill="none" stroke="midnightblue" d="M46.0548,-147.869C87.6878,-153.541 180.626,-166.89 258,-182.942 267.864,-184.988 278.386,-187.466 288.333,-189.947"/>
<polygon fill="midnightblue" stroke="midnightblue" points="287.489,-193.344 298.043,-192.414 289.213,-186.559 287.489,-193.344"/>
</g>
<!-- Node6 -->
<g id="node6" class="node"><title>Node6</title>
<g id="a_node6"><a xlink:href="ff_8c.html#a5e18753404354b210096f9af99e31bc1" target="_top" xlink:title="sync_window">
<polygon fill="white" stroke="black" points="410,-116.442 410,-135.442 486,-135.442 486,-116.442 410,-116.442"/>
<text text-anchor="middle" x="448" y="-123.442" font-family="Helvetica,sans-Serif" font-size="10.00">sync_window</text>
</a>
</g>
</g>
<!-- Node1&#45;&gt;Node6 -->
<g id="edge37" class="edge"><title>Node1&#45;&gt;Node6</title>
<path fill="none" stroke="midnightblue" d="M46.1467,-143.947C112.193,-140.98 308.829,-132.148 399.829,-128.06"/>
<polygon fill="midnightblue" stroke="midnightblue" points="400.033,-131.555 409.866,-127.609 399.719,-124.562 400.033,-131.555"/>
</g>
<!-- Node7 -->
<g id="node7" class="node"><title>Node7</title>
<g id="a_node7"><a xlink:href="diskio_8h.html#ac4785625f4bb82e33562079813659880" target="_top" xlink:title="disk_write">
<polygon fill="white" stroke="black" points="522.5,-113.442 522.5,-132.442 583.5,-132.442 583.5,-113.442 522.5,-113.442"/>
<text text-anchor="middle" x="553" y="-120.442" font-family="Helvetica,sans-Serif" font-size="10.00">disk_write</text>
</a>
</g>
</g>
<!-- Node1&#45;&gt;Node7 -->
<g id="edge34" class="edge"><title>Node1&#45;&gt;Node7</title>
<path fill="none" stroke="midnightblue" d="M43.5219,-135.401C78.5773,-119.174 154.898,-87.9415 223,-87.9415 223,-87.9415 223,-87.9415 335,-87.9415 397.708,-87.9415 469.323,-102.363 512.572,-112.691"/>
<polygon fill="midnightblue" stroke="midnightblue" points="511.864,-116.121 522.408,-115.087 513.52,-109.32 511.864,-116.121"/>
</g>
<!-- Node17 -->
<g id="node17" class="node"><title>Node17</title>
<g id="a_node17"><a xlink:href="diskio_8h.html#ac0c802f8a12fa2047b4bec7109b9293f" target="_top" xlink:title="disk_read">
<polygon fill="white" stroke="black" points="523.5,-203.442 523.5,-222.442 582.5,-222.442 582.5,-203.442 523.5,-203.442"/>
<text text-anchor="middle" x="553" y="-210.442" font-family="Helvetica,sans-Serif" font-size="10.00">disk_read</text>
</a>
</g>
</g>
<!-- Node1&#45;&gt;Node17 -->
<g id="edge33" class="edge"><title>Node1&#45;&gt;Node17</title>
<path fill="none" stroke="midnightblue" d="M29.1319,-154.682C37.9577,-170.583 57.4523,-202.22 82,-220.942 135.747,-261.931 155.406,-277.942 223,-277.942 223,-277.942 223,-277.942 335,-277.942 405.484,-277.942 483.635,-246.083 524.172,-226.974"/>
<polygon fill="midnightblue" stroke="midnightblue" points="525.912,-230.021 533.406,-222.532 522.877,-223.713 525.912,-230.021"/>
</g>
<!-- Node20 -->
<g id="node20" class="node"><title>Node20</title>
<g id="a_node20"><a xlink:href="ff_8c.html#a8941d573d16af92c8570950d53164f30" target="_top" xlink:title="mem_cpy">
<polygon fill="white" stroke="black" points="88.5,-40.4415 88.5,-59.4415 147.5,-59.4415 147.5,-40.4415 88.5,-40.4415"/>
<text text-anchor="middle" x="118" y="-47.4415" font-family="Helvetica,sans-Serif" font-size="10.00">mem_cpy</text>
</a>
</g>
</g>
<!-- Node1&#45;&gt;Node20 -->
<g id="edge35" class="edge"><title>Node1&#45;&gt;Node20</title>
<path fill="none" stroke="midnightblue" d="M30.724,-135.011C40.8035,-120.556 60.91,-93.3326 82,-73.9415 85.2339,-70.9682 88.86,-68.0779 92.5202,-65.3934"/>
<polygon fill="midnightblue" stroke="midnightblue" points="94.7203,-68.1273 100.954,-59.5604 90.7386,-62.3701 94.7203,-68.1273"/>
</g>
<!-- Node21 -->
<g id="node21" class="node"><title>Node21</title>
<g id="a_node21"><a xlink:href="ff_8c.html#aa7193f5b86c3996b5312043a0c26da5f" target="_top" xlink:title="validate">
<polygon fill="white" stroke="black" points="93,-2.44151 93,-21.4415 143,-21.4415 143,-2.44151 93,-2.44151"/>
<text text-anchor="middle" x="118" y="-9.44151" font-family="Helvetica,sans-Serif" font-size="10.00">validate</text>
</a>
</g>
</g>
<!-- Node1&#45;&gt;Node21 -->
<g id="edge38" class="edge"><title>Node1&#45;&gt;Node21</title>
<path fill="none" stroke="midnightblue" d="M26.7609,-135.212C33.2251,-113.927 51.173,-62.6028 82,-30.9415 83.2269,-29.6814 84.5556,-28.4841 85.9536,-27.3496"/>
<polygon fill="midnightblue" stroke="midnightblue" points="88.1959,-30.0573 94.4947,-21.5382 84.2581,-24.2699 88.1959,-30.0573"/>
</g>
<!-- Node4 -->
<g id="node4" class="node"><title>Node4</title>
<g id="a_node4"><a xlink:href="ff_8c.html#a65611adf1626e5e08da77cd33a98dd8b" target="_top" xlink:title="get_fat">
<polygon fill="white" stroke="black" points="200.5,-192.442 200.5,-211.442 247.5,-211.442 247.5,-192.442 200.5,-192.442"/>
<text text-anchor="middle" x="224" y="-199.442" font-family="Helvetica,sans-Serif" font-size="10.00">get_fat</text>
</a>
</g>
</g>
<!-- Node3&#45;&gt;Node4 -->
<g id="edge3" class="edge"><title>Node3&#45;&gt;Node4</title>
<path fill="none" stroke="midnightblue" d="M154.21,-201.942C165.85,-201.942 178.747,-201.942 190.2,-201.942"/>
<polygon fill="midnightblue" stroke="midnightblue" points="190.233,-205.442 200.233,-201.942 190.233,-198.442 190.233,-205.442"/>
</g>
<!-- Node19 -->
<g id="node19" class="node"><title>Node19</title>
<g id="a_node19"><a xlink:href="ff_8c.html#abd4b6b071a8d728a88727051c12bc6d7" target="_top" xlink:title="put_fat">
<polygon fill="white" stroke="black" points="200.5,-230.442 200.5,-249.442 247.5,-249.442 247.5,-230.442 200.5,-230.442"/>
<text text-anchor="middle" x="224" y="-237.442" font-family="Helvetica,sans-Serif" font-size="10.00">put_fat</text>
</a>
</g>
</g>
<!-- Node3&#45;&gt;Node19 -->
<g id="edge31" class="edge"><title>Node3&#45;&gt;Node19</title>
<path fill="none" stroke="midnightblue" d="M145.244,-211.531C159.031,-216.568 176.05,-222.787 190.648,-228.12"/>
<polygon fill="midnightblue" stroke="midnightblue" points="189.703,-231.502 200.297,-231.646 192.106,-224.927 189.703,-231.502"/>
</g>
<!-- Node4&#45;&gt;Node5 -->
<g id="edge4" class="edge"><title>Node4&#45;&gt;Node5</title>
<path fill="none" stroke="midnightblue" d="M247.64,-201.942C258.28,-201.942 271.406,-201.942 284.146,-201.942"/>
<polygon fill="midnightblue" stroke="midnightblue" points="284.225,-205.442 294.225,-201.942 284.225,-198.442 284.225,-205.442"/>
</g>
<!-- Node5&#45;&gt;Node6 -->
<g id="edge5" class="edge"><title>Node5&#45;&gt;Node6</title>
<path fill="none" stroke="midnightblue" d="M349.185,-192.316C368.204,-179.41 402.173,-156.36 424.649,-141.108"/>
<polygon fill="midnightblue" stroke="midnightblue" points="426.621,-144 432.93,-135.489 422.69,-138.208 426.621,-144"/>
</g>
<!-- Node5&#45;&gt;Node17 -->
<g id="edge24" class="edge"><title>Node5&#45;&gt;Node17</title>
<path fill="none" stroke="midnightblue" d="M373.795,-203.908C413.187,-205.905 473.836,-208.979 513.221,-210.976"/>
<polygon fill="midnightblue" stroke="midnightblue" points="513.076,-214.473 523.24,-211.484 513.43,-207.482 513.076,-214.473"/>
</g>
<!-- Node6&#45;&gt;Node7 -->
<g id="edge6" class="edge"><title>Node6&#45;&gt;Node7</title>
<path fill="none" stroke="midnightblue" d="M486.185,-124.858C494.624,-124.613 503.621,-124.351 512.165,-124.102"/>
<polygon fill="midnightblue" stroke="midnightblue" points="512.401,-127.596 522.295,-123.807 512.197,-120.599 512.401,-127.596"/>
</g>
<!-- Node8 -->
<g id="node8" class="node"><title>Node8</title>
<g id="a_node8"><a xlink:href="sdmm_8c.html#ac0eadae94de728461ccade9e03fafd8c" target="_top" xlink:title="deselect">
<polygon fill="white" stroke="black" points="851.5,-184.442 851.5,-203.442 904.5,-203.442 904.5,-184.442 851.5,-184.442"/>
<text text-anchor="middle" x="878" y="-191.442" font-family="Helvetica,sans-Serif" font-size="10.00">deselect</text>
</a>
</g>
</g>
<!-- Node7&#45;&gt;Node8 -->
<g id="edge7" class="edge"><title>Node7&#45;&gt;Node8</title>
<path fill="none" stroke="midnightblue" d="M583.772,-131.471C620.343,-141.753 684.382,-159.119 740,-170.942 774.201,-178.211 813.603,-184.624 841.347,-188.818"/>
<polygon fill="midnightblue" stroke="midnightblue" points="840.966,-192.3 851.373,-190.314 842,-185.377 840.966,-192.3"/>
</g>
<!-- Node10 -->
<g id="node10" class="node"><title>Node10</title>
<g id="a_node10"><a xlink:href="sdmm_8c.html#a21ad8e9a107ea2000705a3edfebaaa2d" target="_top" xlink:title="disk_status">
<polygon fill="white" stroke="black" points="628.5,-184.442 628.5,-203.442 695.5,-203.442 695.5,-184.442 628.5,-184.442"/>
<text text-anchor="middle" x="662" y="-191.442" font-family="Helvetica,sans-Serif" font-size="10.00">disk_status</text>
</a>
</g>
</g>
<!-- Node7&#45;&gt;Node10 -->
<g id="edge9" class="edge"><title>Node7&#45;&gt;Node10</title>
<path fill="none" stroke="midnightblue" d="M566.91,-132.655C580.046,-142.413 601.103,-157.717 620,-169.942 624.761,-173.021 629.922,-176.178 634.924,-179.148"/>
<polygon fill="midnightblue" stroke="midnightblue" points="633.237,-182.216 643.637,-184.236 636.766,-176.171 633.237,-182.216"/>
</g>
<!-- Node11 -->
<g id="node11" class="node"><title>Node11</title>
<g id="a_node11"><a xlink:href="sdmm_8c.html#a99684b493c8bfdb0288a2e24e52f6871" target="_top" xlink:title="send_cmd">
<polygon fill="white" stroke="black" points="631,-108.442 631,-127.442 693,-127.442 693,-108.442 631,-108.442"/>
<text text-anchor="middle" x="662" y="-115.442" font-family="Helvetica,sans-Serif" font-size="10.00">send_cmd</text>
</a>
</g>
</g>
<!-- Node7&#45;&gt;Node11 -->
<g id="edge10" class="edge"><title>Node7&#45;&gt;Node11</title>
<path fill="none" stroke="midnightblue" d="M583.521,-121.562C595.023,-121.025 608.389,-120.4 620.749,-119.822"/>
<polygon fill="midnightblue" stroke="midnightblue" points="621.005,-123.314 630.831,-119.351 620.678,-116.322 621.005,-123.314"/>
</g>
<!-- Node16 -->
<g id="node16" class="node"><title>Node16</title>
<g id="a_node16"><a xlink:href="sdmm_8c.html#aefbd30f6bdff37184f58faf98ad1c6e0" target="_top" xlink:title="xmit_datablock">
<polygon fill="white" stroke="black" points="620.5,-13.4415 620.5,-32.4415 703.5,-32.4415 703.5,-13.4415 620.5,-13.4415"/>
<text text-anchor="middle" x="662" y="-20.4415" font-family="Helvetica,sans-Serif" font-size="10.00">xmit_datablock</text>
</a>
</g>
</g>
<!-- Node7&#45;&gt;Node16 -->
<g id="edge20" class="edge"><title>Node7&#45;&gt;Node16</title>
<path fill="none" stroke="midnightblue" d="M564.26,-113.353C582.428,-96.3731 620.469,-60.8213 643.057,-39.7108"/>
<polygon fill="midnightblue" stroke="midnightblue" points="645.698,-42.033 650.614,-32.6478 640.918,-36.9188 645.698,-42.033"/>
</g>
<!-- Node9 -->
<g id="node9" class="node"><title>Node9</title>
<g id="a_node9"><a xlink:href="sdmm_8c.html#ab628371b03508f9db7c6daf1203ed84d" target="_top" xlink:title="rcvr_mmc">
<polygon fill="white" stroke="black" points="954,-127.442 954,-146.442 1014,-146.442 1014,-127.442 954,-127.442"/>
<text text-anchor="middle" x="984" y="-134.442" font-family="Helvetica,sans-Serif" font-size="10.00">rcvr_mmc</text>
</a>
</g>
</g>
<!-- Node8&#45;&gt;Node9 -->
<g id="edge8" class="edge"><title>Node8&#45;&gt;Node9</title>
<path fill="none" stroke="midnightblue" d="M899.389,-184.368C905.428,-181.436 912.023,-178.139 918,-174.942 931.686,-167.621 946.659,-158.917 958.781,-151.687"/>
<polygon fill="midnightblue" stroke="midnightblue" points="960.657,-154.643 967.427,-146.493 957.053,-148.642 960.657,-154.643"/>
</g>
<!-- Node11&#45;&gt;Node8 -->
<g id="edge11" class="edge"><title>Node11&#45;&gt;Node8</title>
<path fill="none" stroke="midnightblue" d="M690.103,-127.567C728.628,-141.249 799.258,-166.332 841.792,-181.438"/>
<polygon fill="midnightblue" stroke="midnightblue" points="840.854,-184.819 851.449,-184.867 843.197,-178.222 840.854,-184.819"/>
</g>
<!-- Node11&#45;&gt;Node9 -->
<g id="edge19" class="edge"><title>Node11&#45;&gt;Node9</title>
<path fill="none" stroke="midnightblue" d="M693.04,-108.738C707.146,-104.88 724.281,-100.852 740,-98.9415 812.815,-90.0906 897.325,-110.228 945.048,-124.436"/>
<polygon fill="midnightblue" stroke="midnightblue" points="944.07,-127.797 954.656,-127.365 946.111,-121.101 944.07,-127.797"/>
</g>
<!-- Node12 -->
<g id="node12" class="node"><title>Node12</title>
<g id="a_node12"><a xlink:href="sdmm_8c.html#ab45cb1d47cda5822ce492ad3c11867ae" target="_top" xlink:title="select">
<polygon fill="white" stroke="black" points="749.5,-108.442 749.5,-127.442 792.5,-127.442 792.5,-108.442 749.5,-108.442"/>
<text text-anchor="middle" x="771" y="-115.442" font-family="Helvetica,sans-Serif" font-size="10.00">select</text>
</a>
</g>
</g>
<!-- Node11&#45;&gt;Node12 -->
<g id="edge12" class="edge"><title>Node11&#45;&gt;Node12</title>
<path fill="none" stroke="midnightblue" d="M693.09,-117.942C707.375,-117.942 724.433,-117.942 738.85,-117.942"/>
<polygon fill="midnightblue" stroke="midnightblue" points="739.271,-121.442 749.271,-117.942 739.271,-114.442 739.271,-121.442"/>
</g>
<!-- Node15 -->
<g id="node15" class="node"><title>Node15</title>
<g id="a_node15"><a xlink:href="sdmm_8c.html#ace0af708caf7775204ca74fbd46818bb" target="_top" xlink:title="xmit_mmc">
<polygon fill="white" stroke="black" points="740,-32.4415 740,-51.4415 802,-51.4415 802,-32.4415 740,-32.4415"/>
<text text-anchor="middle" x="771" y="-39.4415" font-family="Helvetica,sans-Serif" font-size="10.00">xmit_mmc</text>
</a>
</g>
</g>
<!-- Node11&#45;&gt;Node15 -->
<g id="edge18" class="edge"><title>Node11&#45;&gt;Node15</title>
<path fill="none" stroke="midnightblue" d="M676.552,-108.316C694.641,-95.4674 726.888,-72.5634 748.361,-57.3111"/>
<polygon fill="midnightblue" stroke="midnightblue" points="750.432,-60.1331 756.558,-51.4888 746.379,-54.4261 750.432,-60.1331"/>
</g>
<!-- Node12&#45;&gt;Node8 -->
<g id="edge17" class="edge"><title>Node12&#45;&gt;Node8</title>
<path fill="none" stroke="midnightblue" d="M784.413,-127.567C789.875,-131.88 796.327,-137.082 802,-141.942 818.484,-156.062 820.057,-162.728 838,-174.942 840.393,-176.57 842.947,-178.139 845.559,-179.627"/>
<polygon fill="midnightblue" stroke="midnightblue" points="844.039,-182.783 854.517,-184.357 847.308,-176.593 844.039,-182.783"/>
</g>
<!-- Node12&#45;&gt;Node9 -->
<g id="edge13" class="edge"><title>Node12&#45;&gt;Node9</title>
<path fill="none" stroke="midnightblue" d="M792.616,-119.798C827.56,-122.945 898.978,-129.376 943.721,-133.405"/>
<polygon fill="midnightblue" stroke="midnightblue" points="943.661,-136.913 953.935,-134.324 944.289,-129.941 943.661,-136.913"/>
</g>
<!-- Node13 -->
<g id="node13" class="node"><title>Node13</title>
<g id="a_node13"><a xlink:href="sdmm_8c.html#a624a19e248af05530dae5c0cc1dddc11" target="_top" xlink:title="wait_ready">
<polygon fill="white" stroke="black" points="846,-146.442 846,-165.442 910,-165.442 910,-146.442 846,-146.442"/>
<text text-anchor="middle" x="878" y="-153.442" font-family="Helvetica,sans-Serif" font-size="10.00">wait_ready</text>
</a>
</g>
</g>
<!-- Node12&#45;&gt;Node13 -->
<g id="edge14" class="edge"><title>Node12&#45;&gt;Node13</title>
<path fill="none" stroke="midnightblue" d="M792.745,-125.449C806.504,-130.429 824.924,-137.095 841.033,-142.925"/>
<polygon fill="midnightblue" stroke="midnightblue" points="840.107,-146.312 850.701,-146.424 842.489,-139.73 840.107,-146.312"/>
</g>
<!-- Node13&#45;&gt;Node9 -->
<g id="edge15" class="edge"><title>Node13&#45;&gt;Node9</title>
<path fill="none" stroke="midnightblue" d="M910.203,-150.241C920.831,-148.299 932.846,-146.104 944.007,-144.065"/>
<polygon fill="midnightblue" stroke="midnightblue" points="944.744,-147.489 953.952,-142.248 943.486,-140.603 944.744,-147.489"/>
</g>
<!-- Node14 -->
<g id="node14" class="node"><title>Node14</title>
<g id="a_node14"><a xlink:href="sdmm_8c.html#a76a43e01b9676630e121e5a659acbb3f" target="_top" xlink:title="dly_us">
<polygon fill="white" stroke="black" points="961.5,-203.442 961.5,-222.442 1006.5,-222.442 1006.5,-203.442 961.5,-203.442"/>
<text text-anchor="middle" x="984" y="-210.442" font-family="Helvetica,sans-Serif" font-size="10.00">dly_us</text>
</a>
</g>
</g>
<!-- Node13&#45;&gt;Node14 -->
<g id="edge16" class="edge"><title>Node13&#45;&gt;Node14</title>
<path fill="none" stroke="midnightblue" d="M899.389,-165.515C905.428,-168.447 912.023,-171.744 918,-174.942 931.686,-182.262 946.659,-190.966 958.781,-198.196"/>
<polygon fill="midnightblue" stroke="midnightblue" points="957.053,-201.241 967.427,-203.39 960.657,-195.24 957.053,-201.241"/>
</g>
<!-- Node16&#45;&gt;Node9 -->
<g id="edge23" class="edge"><title>Node16&#45;&gt;Node9</title>
<path fill="none" stroke="midnightblue" d="M688.481,-13.4215C716.842,-4.28029 763.722,6.45714 802,-5.94151 872.122,-28.6549 937.869,-89.8248 967.102,-119.847"/>
<polygon fill="midnightblue" stroke="midnightblue" points="964.599,-122.294 974.041,-127.1 969.657,-117.455 964.599,-122.294"/>
</g>
<!-- Node16&#45;&gt;Node13 -->
<g id="edge21" class="edge"><title>Node16&#45;&gt;Node13</title>
<path fill="none" stroke="midnightblue" d="M699.278,-13.4366C728.958,-7.78101 770.952,-4.80559 802,-22.9415 844.199,-47.5913 864.515,-105.714 872.581,-136.315"/>
<polygon fill="midnightblue" stroke="midnightblue" points="869.232,-137.354 875.016,-146.231 876.03,-135.685 869.232,-137.354"/>
</g>
<!-- Node16&#45;&gt;Node15 -->
<g id="edge22" class="edge"><title>Node16&#45;&gt;Node15</title>
<path fill="none" stroke="midnightblue" d="M703.757,-30.1788C712.239,-31.6848 721.174,-33.2714 729.641,-34.7749"/>
<polygon fill="midnightblue" stroke="midnightblue" points="729.217,-38.2543 739.675,-36.5566 730.441,-31.3621 729.217,-38.2543"/>
</g>
<!-- Node17&#45;&gt;Node8 -->
<g id="edge25" class="edge"><title>Node17&#45;&gt;Node8</title>
<path fill="none" stroke="midnightblue" d="M582.766,-214.174C629.111,-215.753 723.097,-217.276 802,-207.942 814.948,-206.41 829.028,-203.986 841.455,-201.583"/>
<polygon fill="midnightblue" stroke="midnightblue" points="842.322,-204.979 851.443,-199.589 840.951,-198.114 842.322,-204.979"/>
</g>
<!-- Node17&#45;&gt;Node10 -->
<g id="edge26" class="edge"><title>Node17&#45;&gt;Node10</title>
<path fill="none" stroke="midnightblue" d="M582.674,-207.85C593.701,-205.892 606.535,-203.613 618.585,-201.473"/>
<polygon fill="midnightblue" stroke="midnightblue" points="619.231,-204.913 628.465,-199.719 618.007,-198.021 619.231,-204.913"/>
</g>
<!-- Node17&#45;&gt;Node11 -->
<g id="edge30" class="edge"><title>Node17&#45;&gt;Node11</title>
<path fill="none" stroke="midnightblue" d="M565.048,-203.133C583.404,-186.835 620.369,-154.016 642.677,-134.209"/>
<polygon fill="midnightblue" stroke="midnightblue" points="645.017,-136.812 650.172,-127.556 640.37,-131.578 645.017,-136.812"/>
</g>
<!-- Node18 -->
<g id="node18" class="node"><title>Node18</title>
<g id="a_node18"><a xlink:href="sdmm_8c.html#a8c99afbc312912297b19752cf7e0960b" target="_top" xlink:title="rcvr_datablock">
<polygon fill="white" stroke="black" points="838,-222.442 838,-241.442 918,-241.442 918,-222.442 838,-222.442"/>
<text text-anchor="middle" x="878" y="-229.442" font-family="Helvetica,sans-Serif" font-size="10.00">rcvr_datablock</text>
</a>
</g>
</g>
<!-- Node17&#45;&gt;Node18 -->
<g id="edge27" class="edge"><title>Node17&#45;&gt;Node18</title>
<path fill="none" stroke="midnightblue" d="M582.652,-221.382C594.153,-224.376 607.599,-227.386 620,-228.942 691.658,-237.928 775.433,-236.751 827.361,-234.669"/>
<polygon fill="midnightblue" stroke="midnightblue" points="827.785,-238.154 837.626,-234.229 827.485,-231.161 827.785,-238.154"/>
</g>
<!-- Node18&#45;&gt;Node9 -->
<g id="edge28" class="edge"><title>Node18&#45;&gt;Node9</title>
<path fill="none" stroke="midnightblue" d="M902.605,-222.371C907.917,-219.703 913.353,-216.535 918,-212.942 939.554,-196.272 959.109,-171.479 971.016,-154.787"/>
<polygon fill="midnightblue" stroke="midnightblue" points="973.977,-156.659 976.808,-146.45 968.228,-152.665 973.977,-156.659"/>
</g>
<!-- Node18&#45;&gt;Node14 -->
<g id="edge29" class="edge"><title>Node18&#45;&gt;Node14</title>
<path fill="none" stroke="midnightblue" d="M918.022,-224.813C929.002,-222.807 940.806,-220.65 951.302,-218.733"/>
<polygon fill="midnightblue" stroke="midnightblue" points="952.074,-222.149 961.282,-216.909 950.816,-215.263 952.074,-222.149"/>
</g>
<!-- Node19&#45;&gt;Node5 -->
<g id="edge32" class="edge"><title>Node19&#45;&gt;Node5</title>
<path fill="none" stroke="midnightblue" d="M247.64,-231.975C261.675,-227.037 280.035,-220.577 296.131,-214.914"/>
<polygon fill="midnightblue" stroke="midnightblue" points="297.529,-218.132 305.8,-211.512 295.206,-211.529 297.529,-218.132"/>
</g>
<!-- Node22 -->
<g id="node22" class="node"><title>Node22</title>
<g id="a_node22"><a xlink:href="diskio_8h.html#a8348ac5ee6d709420c02e45c111f4793" target="_top" xlink:title="disk_status">
<polygon fill="white" stroke="black" points="190.5,-2.44151 190.5,-21.4415 257.5,-21.4415 257.5,-2.44151 190.5,-2.44151"/>
<text text-anchor="middle" x="224" y="-9.44151" font-family="Helvetica,sans-Serif" font-size="10.00">disk_status</text>
</a>
</g>
</g>
<!-- Node21&#45;&gt;Node22 -->
<g id="edge39" class="edge"><title>Node21&#45;&gt;Node22</title>
<path fill="none" stroke="midnightblue" d="M143.121,-11.9415C154.091,-11.9415 167.411,-11.9415 180.004,-11.9415"/>
<polygon fill="midnightblue" stroke="midnightblue" points="180.343,-15.4416 190.343,-11.9415 180.343,-8.44161 180.343,-15.4416"/>
</g>
</g>
</svg>
