<?xml version="1.0" encoding="UTF-8" standalone="no"?>
<!DOCTYPE svg PUBLIC "-//W3C//DTD SVG 1.1//EN"
 "http://www.w3.org/Graphics/SVG/1.1/DTD/svg11.dtd">
<!-- Generated by graphviz version 2.36.0 (20140111.2315)
 -->
<!-- Title: f_getlabel Pages: 1 -->
<svg width="1216pt" height="477pt"
 viewBox="0.00 0.00 1216.00 476.60" xmlns="http://www.w3.org/2000/svg" xmlns:xlink="http://www.w3.org/1999/xlink">
<g id="graph0" class="graph" transform="scale(1 1) rotate(0) translate(4 472.599)">
<title>f_getlabel</title>
<polygon fill="white" stroke="none" points="-4,4 -4,-472.599 1212,-472.599 1212,4 -4,4"/>
<!-- Node1 -->
<g id="node1" class="node"><title>Node1</title>
<polygon fill="#bfbfbf" stroke="black" points="0.5,-182.181 0.5,-201.181 59.5,-201.181 59.5,-182.181 0.5,-182.181"/>
<text text-anchor="middle" x="30" y="-189.181" font-family="Helvetica,sans-Serif" font-size="10.00">f_getlabel</text>
</g>
<!-- Node2 -->
<g id="node2" class="node"><title>Node2</title>
<g id="a_node2"><a xlink:href="ff_8c.html#acb7ec4033afc5b9041ee9c82385552db" target="_top" xlink:title="chk_mounted">
<polygon fill="white" stroke="black" points="474.5,-256.181 474.5,-275.181 549.5,-275.181 549.5,-256.181 474.5,-256.181"/>
<text text-anchor="middle" x="512" y="-263.181" font-family="Helvetica,sans-Serif" font-size="10.00">chk_mounted</text>
</a>
</g>
</g>
<!-- Node1&#45;&gt;Node2 -->
<g id="edge1" class="edge"><title>Node1&#45;&gt;Node2</title>
<path fill="none" stroke="midnightblue" d="M44.2327,-201.306C73.6944,-221.757 147.582,-267.681 217,-267.681 217,-267.681 217,-267.681 317,-267.681 367.244,-267.681 424.804,-267.002 464.094,-266.435"/>
<polygon fill="midnightblue" stroke="midnightblue" points="464.224,-269.933 474.171,-266.286 464.12,-262.934 464.224,-269.933"/>
</g>
<!-- Node17 -->
<g id="node17" class="node"><title>Node17</title>
<g id="a_node17"><a xlink:href="ff_8c.html#ac61cefc73baae693adfdfd86e9bd4741" target="_top" xlink:title="dir_read">
<polygon fill="white" stroke="black" points="100.5,-182.181 100.5,-201.181 151.5,-201.181 151.5,-182.181 100.5,-182.181"/>
<text text-anchor="middle" x="126" y="-189.181" font-family="Helvetica,sans-Serif" font-size="10.00">dir_read</text>
</a>
</g>
</g>
<!-- Node1&#45;&gt;Node17 -->
<g id="edge33" class="edge"><title>Node1&#45;&gt;Node17</title>
<path fill="none" stroke="midnightblue" d="M59.7139,-191.681C69.3311,-191.681 80.1586,-191.681 90.1901,-191.681"/>
<polygon fill="midnightblue" stroke="midnightblue" points="90.2719,-195.181 100.272,-191.681 90.2718,-188.181 90.2719,-195.181"/>
</g>
<!-- Node22 -->
<g id="node22" class="node"><title>Node22</title>
<g id="a_node22"><a xlink:href="ff_8c.html#af2e8986556ee6644b4bf31fa4158d735" target="_top" xlink:title="move_window">
<polygon fill="white" stroke="black" points="472.5,-122.181 472.5,-141.181 551.5,-141.181 551.5,-122.181 472.5,-122.181"/>
<text text-anchor="middle" x="512" y="-129.181" font-family="Helvetica,sans-Serif" font-size="10.00">move_window</text>
</a>
</g>
</g>
<!-- Node1&#45;&gt;Node22 -->
<g id="edge59" class="edge"><title>Node1&#45;&gt;Node22</title>
<path fill="none" stroke="midnightblue" d="M59.6252,-201.27C95.8345,-212.527 160.311,-229.681 217,-229.681 217,-229.681 217,-229.681 317,-229.681 388.356,-229.681 460.149,-176.207 492.798,-148.26"/>
<polygon fill="midnightblue" stroke="midnightblue" points="495.371,-150.659 500.585,-141.436 490.758,-145.394 495.371,-150.659"/>
</g>
<!-- Node28 -->
<g id="node28" class="node"><title>Node28</title>
<g id="a_node28"><a xlink:href="ff_8c.html#ad173ae134b70df2fe9668a90247567ff" target="_top" xlink:title="dir_sdi">
<polygon fill="white" stroke="black" points="195.5,-144.181 195.5,-163.181 240.5,-163.181 240.5,-144.181 195.5,-144.181"/>
<text text-anchor="middle" x="218" y="-151.181" font-family="Helvetica,sans-Serif" font-size="10.00">dir_sdi</text>
</a>
</g>
</g>
<!-- Node1&#45;&gt;Node28 -->
<g id="edge55" class="edge"><title>Node1&#45;&gt;Node28</title>
<path fill="none" stroke="midnightblue" d="M59.5914,-182.46C70.8534,-179.056 83.9529,-175.376 96,-172.681 126.007,-165.968 160.721,-160.777 185.25,-157.53"/>
<polygon fill="midnightblue" stroke="midnightblue" points="185.953,-160.968 195.423,-156.217 185.057,-154.026 185.953,-160.968"/>
</g>
<!-- Node29 -->
<g id="node29" class="node"><title>Node29</title>
<g id="a_node29"><a xlink:href="ff_8c.html#a8941d573d16af92c8570950d53164f30" target="_top" xlink:title="mem_cpy">
<polygon fill="white" stroke="black" points="96.5,-106.181 96.5,-125.181 155.5,-125.181 155.5,-106.181 96.5,-106.181"/>
<text text-anchor="middle" x="126" y="-113.181" font-family="Helvetica,sans-Serif" font-size="10.00">mem_cpy</text>
</a>
</g>
</g>
<!-- Node1&#45;&gt;Node29 -->
<g id="edge58" class="edge"><title>Node1&#45;&gt;Node29</title>
<path fill="none" stroke="midnightblue" d="M42.9052,-182.055C58.5851,-169.378 86.3723,-146.912 105.231,-131.664"/>
<polygon fill="midnightblue" stroke="midnightblue" points="107.616,-134.237 113.191,-125.228 103.215,-128.794 107.616,-134.237"/>
</g>
<!-- Node3 -->
<g id="node3" class="node"><title>Node3</title>
<g id="a_node3"><a xlink:href="ff_8c.html#a55626c76a1556af5dc5345e2c0841a65" target="_top" xlink:title="check_fs">
<polygon fill="white" stroke="black" points="598,-179.181 598,-198.181 654,-198.181 654,-179.181 598,-179.181"/>
<text text-anchor="middle" x="626" y="-186.181" font-family="Helvetica,sans-Serif" font-size="10.00">check_fs</text>
</a>
</g>
</g>
<!-- Node2&#45;&gt;Node3 -->
<g id="edge2" class="edge"><title>Node2&#45;&gt;Node3</title>
<path fill="none" stroke="midnightblue" d="M524.209,-255.951C538.465,-243.831 564.109,-222.871 588,-207.681 590.457,-206.119 593.057,-204.578 595.695,-203.09"/>
<polygon fill="midnightblue" stroke="midnightblue" points="597.498,-206.094 604.654,-198.281 594.188,-199.926 597.498,-206.094"/>
</g>
<!-- Node4 -->
<g id="node4" class="node"><title>Node4</title>
<g id="a_node4"><a xlink:href="diskio_8h.html#ac0c802f8a12fa2047b4bec7109b9293f" target="_top" xlink:title="disk_read">
<polygon fill="white" stroke="black" points="708.5,-179.181 708.5,-198.181 767.5,-198.181 767.5,-179.181 708.5,-179.181"/>
<text text-anchor="middle" x="738" y="-186.181" font-family="Helvetica,sans-Serif" font-size="10.00">disk_read</text>
</a>
</g>
</g>
<!-- Node2&#45;&gt;Node4 -->
<g id="edge31" class="edge"><title>Node2&#45;&gt;Node4</title>
<path fill="none" stroke="midnightblue" d="M549.787,-266.145C581.261,-265.314 627.18,-261.132 664,-245.681 686.062,-236.423 707.14,-218.67 720.924,-205.426"/>
<polygon fill="midnightblue" stroke="midnightblue" points="723.522,-207.778 728.149,-198.247 718.588,-202.812 723.522,-207.778"/>
</g>
<!-- Node14 -->
<g id="node14" class="node"><title>Node14</title>
<g id="a_node14"><a xlink:href="diskio_8h.html#a09cdaa6f36fa409bdf002727bff98eb1" target="_top" xlink:title="disk_initialize">
<polygon fill="white" stroke="black" points="700.5,-388.181 700.5,-407.181 775.5,-407.181 775.5,-388.181 700.5,-388.181"/>
<text text-anchor="middle" x="738" y="-395.181" font-family="Helvetica,sans-Serif" font-size="10.00">disk_initialize</text>
</a>
</g>
</g>
<!-- Node2&#45;&gt;Node14 -->
<g id="edge20" class="edge"><title>Node2&#45;&gt;Node14</title>
<path fill="none" stroke="midnightblue" d="M529.471,-275.387C568.32,-298.28 665.863,-355.761 712.032,-382.967"/>
<polygon fill="midnightblue" stroke="midnightblue" points="710.414,-386.077 720.807,-388.138 713.968,-380.046 710.414,-386.077"/>
</g>
<!-- Node15 -->
<g id="node15" class="node"><title>Node15</title>
<g id="a_node15"><a xlink:href="diskio_8h.html#ab00fa450a811dbdabe3c655c1a36fab4" target="_top" xlink:title="disk_ioctl">
<polygon fill="white" stroke="black" points="709,-255.181 709,-274.181 767,-274.181 767,-255.181 709,-255.181"/>
<text text-anchor="middle" x="738" y="-262.181" font-family="Helvetica,sans-Serif" font-size="10.00">disk_ioctl</text>
</a>
</g>
</g>
<!-- Node2&#45;&gt;Node15 -->
<g id="edge25" class="edge"><title>Node2&#45;&gt;Node15</title>
<path fill="none" stroke="midnightblue" d="M549.839,-273.362C561.939,-275.537 575.492,-277.605 588,-278.681 621.653,-281.576 630.374,-281.876 664,-278.681 675.409,-277.597 687.689,-275.58 698.861,-273.408"/>
<polygon fill="midnightblue" stroke="midnightblue" points="699.653,-276.818 708.753,-271.392 698.255,-269.959 699.653,-276.818"/>
</g>
<!-- Node16 -->
<g id="node16" class="node"><title>Node16</title>
<g id="a_node16"><a xlink:href="diskio_8h.html#a8348ac5ee6d709420c02e45c111f4793" target="_top" xlink:title="disk_status">
<polygon fill="white" stroke="black" points="592.5,-217.181 592.5,-236.181 659.5,-236.181 659.5,-217.181 592.5,-217.181"/>
<text text-anchor="middle" x="626" y="-224.181" font-family="Helvetica,sans-Serif" font-size="10.00">disk_status</text>
</a>
</g>
</g>
<!-- Node2&#45;&gt;Node16 -->
<g id="edge32" class="edge"><title>Node2&#45;&gt;Node16</title>
<path fill="none" stroke="midnightblue" d="M540.398,-256.14C554.636,-251.183 572.244,-245.051 587.704,-239.668"/>
<polygon fill="midnightblue" stroke="midnightblue" points="589.204,-242.852 597.496,-236.258 586.902,-236.241 589.204,-242.852"/>
</g>
<!-- Node3&#45;&gt;Node4 -->
<g id="edge3" class="edge"><title>Node3&#45;&gt;Node4</title>
<path fill="none" stroke="midnightblue" d="M654.191,-188.681C667.399,-188.681 683.512,-188.681 698.001,-188.681"/>
<polygon fill="midnightblue" stroke="midnightblue" points="698.2,-192.181 708.2,-188.681 698.2,-185.181 698.2,-192.181"/>
</g>
<!-- Node5 -->
<g id="node5" class="node"><title>Node5</title>
<g id="a_node5"><a xlink:href="sdmm_8c.html#ac0eadae94de728461ccade9e03fafd8c" target="_top" xlink:title="deselect">
<polygon fill="white" stroke="black" points="1053.5,-274.181 1053.5,-293.181 1106.5,-293.181 1106.5,-274.181 1053.5,-274.181"/>
<text text-anchor="middle" x="1080" y="-281.181" font-family="Helvetica,sans-Serif" font-size="10.00">deselect</text>
</a>
</g>
</g>
<!-- Node4&#45;&gt;Node5 -->
<g id="edge4" class="edge"><title>Node4&#45;&gt;Node5</title>
<path fill="none" stroke="midnightblue" d="M767.608,-185.799C799.266,-183.275 851.673,-181.078 896,-188.681 949.894,-197.925 965.542,-200.842 1012,-229.681 1030.96,-241.45 1030.38,-250.988 1048,-264.681 1049.61,-265.93 1051.3,-267.166 1053.04,-268.372"/>
<polygon fill="midnightblue" stroke="midnightblue" points="1051.52,-271.564 1061.82,-274.079 1055.34,-265.695 1051.52,-271.564"/>
</g>
<!-- Node7 -->
<g id="node7" class="node"><title>Node7</title>
<g id="a_node7"><a xlink:href="sdmm_8c.html#a21ad8e9a107ea2000705a3edfebaaa2d" target="_top" xlink:title="disk_status">
<polygon fill="white" stroke="black" points="820.5,-122.181 820.5,-141.181 887.5,-141.181 887.5,-122.181 820.5,-122.181"/>
<text text-anchor="middle" x="854" y="-129.181" font-family="Helvetica,sans-Serif" font-size="10.00">disk_status</text>
</a>
</g>
</g>
<!-- Node4&#45;&gt;Node7 -->
<g id="edge6" class="edge"><title>Node4&#45;&gt;Node7</title>
<path fill="none" stroke="midnightblue" d="M758.081,-179.14C776.33,-170.016 804.069,-156.146 824.855,-145.753"/>
<polygon fill="midnightblue" stroke="midnightblue" points="826.478,-148.855 833.857,-141.252 823.347,-142.594 826.478,-148.855"/>
</g>
<!-- Node8 -->
<g id="node8" class="node"><title>Node8</title>
<g id="a_node8"><a xlink:href="sdmm_8c.html#a8c99afbc312912297b19752cf7e0960b" target="_top" xlink:title="rcvr_datablock">
<polygon fill="white" stroke="black" points="932,-350.181 932,-369.181 1012,-369.181 1012,-350.181 932,-350.181"/>
<text text-anchor="middle" x="972" y="-357.181" font-family="Helvetica,sans-Serif" font-size="10.00">rcvr_datablock</text>
</a>
</g>
</g>
<!-- Node4&#45;&gt;Node8 -->
<g id="edge7" class="edge"><title>Node4&#45;&gt;Node8</title>
<path fill="none" stroke="midnightblue" d="M753.574,-198.205C781.65,-216.682 844.972,-258.984 896,-297.681 915.579,-312.529 937.121,-330.519 952.075,-343.288"/>
<polygon fill="midnightblue" stroke="midnightblue" points="950.187,-346.28 960.054,-350.139 954.747,-340.969 950.187,-346.28"/>
</g>
<!-- Node10 -->
<g id="node10" class="node"><title>Node10</title>
<g id="a_node10"><a xlink:href="sdmm_8c.html#a99684b493c8bfdb0288a2e24e52f6871" target="_top" xlink:title="send_cmd">
<polygon fill="white" stroke="black" points="823,-198.181 823,-217.181 885,-217.181 885,-198.181 823,-198.181"/>
<text text-anchor="middle" x="854" y="-205.181" font-family="Helvetica,sans-Serif" font-size="10.00">send_cmd</text>
</a>
</g>
</g>
<!-- Node4&#45;&gt;Node10 -->
<g id="edge10" class="edge"><title>Node4&#45;&gt;Node10</title>
<path fill="none" stroke="midnightblue" d="M767.767,-193.475C781.38,-195.744 797.866,-198.492 812.698,-200.964"/>
<polygon fill="midnightblue" stroke="midnightblue" points="812.207,-204.43 822.647,-202.622 813.358,-197.525 812.207,-204.43"/>
</g>
<!-- Node6 -->
<g id="node6" class="node"><title>Node6</title>
<g id="a_node6"><a xlink:href="sdmm_8c.html#ab628371b03508f9db7c6daf1203ed84d" target="_top" xlink:title="rcvr_mmc">
<polygon fill="white" stroke="black" points="1148,-274.181 1148,-293.181 1208,-293.181 1208,-274.181 1148,-274.181"/>
<text text-anchor="middle" x="1178" y="-281.181" font-family="Helvetica,sans-Serif" font-size="10.00">rcvr_mmc</text>
</a>
</g>
</g>
<!-- Node5&#45;&gt;Node6 -->
<g id="edge5" class="edge"><title>Node5&#45;&gt;Node6</title>
<path fill="none" stroke="midnightblue" d="M1106.73,-283.681C1116.22,-283.681 1127.22,-283.681 1137.64,-283.681"/>
<polygon fill="midnightblue" stroke="midnightblue" points="1137.81,-287.181 1147.81,-283.681 1137.81,-280.181 1137.81,-287.181"/>
</g>
<!-- Node8&#45;&gt;Node6 -->
<g id="edge8" class="edge"><title>Node8&#45;&gt;Node6</title>
<path fill="none" stroke="midnightblue" d="M1011.43,-350.163C1039.72,-342.656 1078.86,-331.214 1112,-317.681 1125.58,-312.134 1140.1,-304.694 1151.97,-298.188"/>
<polygon fill="midnightblue" stroke="midnightblue" points="1153.82,-301.16 1160.84,-293.225 1150.41,-295.051 1153.82,-301.16"/>
</g>
<!-- Node9 -->
<g id="node9" class="node"><title>Node9</title>
<g id="a_node9"><a xlink:href="sdmm_8c.html#a76a43e01b9676630e121e5a659acbb3f" target="_top" xlink:title="dly_us">
<polygon fill="white" stroke="black" points="1155.5,-426.181 1155.5,-445.181 1200.5,-445.181 1200.5,-426.181 1155.5,-426.181"/>
<text text-anchor="middle" x="1178" y="-433.181" font-family="Helvetica,sans-Serif" font-size="10.00">dly_us</text>
</a>
</g>
</g>
<!-- Node8&#45;&gt;Node9 -->
<g id="edge9" class="edge"><title>Node8&#45;&gt;Node9</title>
<path fill="none" stroke="midnightblue" d="M998.837,-369.306C1036.3,-383.262 1105.6,-409.08 1145.84,-424.071"/>
<polygon fill="midnightblue" stroke="midnightblue" points="1144.81,-427.424 1155.41,-427.636 1147.26,-420.865 1144.81,-427.424"/>
</g>
<!-- Node10&#45;&gt;Node5 -->
<g id="edge11" class="edge"><title>Node10&#45;&gt;Node5</title>
<path fill="none" stroke="midnightblue" d="M883.37,-217.306C924.194,-231.157 999.459,-256.693 1043.78,-271.733"/>
<polygon fill="midnightblue" stroke="midnightblue" points="1042.69,-275.056 1053.28,-274.955 1044.94,-268.428 1042.69,-275.056"/>
</g>
<!-- Node10&#45;&gt;Node6 -->
<g id="edge19" class="edge"><title>Node10&#45;&gt;Node6</title>
<path fill="none" stroke="midnightblue" d="M885.323,-203.911C934.902,-199.036 1035.46,-194.602 1112,-226.681 1132.4,-235.232 1150.86,-252.834 1162.85,-266.229"/>
<polygon fill="midnightblue" stroke="midnightblue" points="1160.27,-268.596 1169.44,-273.906 1165.58,-264.038 1160.27,-268.596"/>
</g>
<!-- Node11 -->
<g id="node11" class="node"><title>Node11</title>
<g id="a_node11"><a xlink:href="sdmm_8c.html#ab45cb1d47cda5822ce492ad3c11867ae" target="_top" xlink:title="select">
<polygon fill="white" stroke="black" points="950.5,-274.181 950.5,-293.181 993.5,-293.181 993.5,-274.181 950.5,-274.181"/>
<text text-anchor="middle" x="972" y="-281.181" font-family="Helvetica,sans-Serif" font-size="10.00">select</text>
</a>
</g>
</g>
<!-- Node10&#45;&gt;Node11 -->
<g id="edge12" class="edge"><title>Node10&#45;&gt;Node11</title>
<path fill="none" stroke="midnightblue" d="M872.466,-217.231C879.862,-221.446 888.488,-226.593 896,-231.681 912.783,-243.047 915.344,-248.13 932,-259.681 936.379,-262.718 941.139,-265.81 945.78,-268.72"/>
<polygon fill="midnightblue" stroke="midnightblue" points="944.073,-271.779 954.426,-274.029 947.736,-265.814 944.073,-271.779"/>
</g>
<!-- Node13 -->
<g id="node13" class="node"><title>Node13</title>
<g id="a_node13"><a xlink:href="sdmm_8c.html#ace0af708caf7775204ca74fbd46818bb" target="_top" xlink:title="xmit_mmc">
<polygon fill="white" stroke="black" points="941,-122.181 941,-141.181 1003,-141.181 1003,-122.181 941,-122.181"/>
<text text-anchor="middle" x="972" y="-129.181" font-family="Helvetica,sans-Serif" font-size="10.00">xmit_mmc</text>
</a>
</g>
</g>
<!-- Node10&#45;&gt;Node13 -->
<g id="edge18" class="edge"><title>Node10&#45;&gt;Node13</title>
<path fill="none" stroke="midnightblue" d="M869.691,-198.055C889.39,-185.149 924.572,-162.099 947.851,-146.847"/>
<polygon fill="midnightblue" stroke="midnightblue" points="949.981,-149.636 956.428,-141.228 946.145,-143.781 949.981,-149.636"/>
</g>
<!-- Node11&#45;&gt;Node5 -->
<g id="edge17" class="edge"><title>Node11&#45;&gt;Node5</title>
<path fill="none" stroke="midnightblue" d="M993.69,-283.681C1007.73,-283.681 1026.65,-283.681 1043.11,-283.681"/>
<polygon fill="midnightblue" stroke="midnightblue" points="1043.49,-287.181 1053.49,-283.681 1043.49,-280.181 1043.49,-287.181"/>
</g>
<!-- Node11&#45;&gt;Node6 -->
<g id="edge13" class="edge"><title>Node11&#45;&gt;Node6</title>
<path fill="none" stroke="midnightblue" d="M993.748,-290.415C1008.66,-294.89 1029.34,-300.354 1048,-302.681 1076.23,-306.2 1083.84,-306.712 1112,-302.681 1121.57,-301.31 1131.7,-298.859 1141.05,-296.163"/>
<polygon fill="midnightblue" stroke="midnightblue" points="1142.27,-299.449 1150.81,-293.181 1140.22,-292.755 1142.27,-299.449"/>
</g>
<!-- Node12 -->
<g id="node12" class="node"><title>Node12</title>
<g id="a_node12"><a xlink:href="sdmm_8c.html#a624a19e248af05530dae5c0cc1dddc11" target="_top" xlink:title="wait_ready">
<polygon fill="white" stroke="black" points="1048,-236.181 1048,-255.181 1112,-255.181 1112,-236.181 1048,-236.181"/>
<text text-anchor="middle" x="1080" y="-243.181" font-family="Helvetica,sans-Serif" font-size="10.00">wait_ready</text>
</a>
</g>
</g>
<!-- Node11&#45;&gt;Node12 -->
<g id="edge14" class="edge"><title>Node11&#45;&gt;Node12</title>
<path fill="none" stroke="midnightblue" d="M993.69,-276.264C1007.56,-271.291 1026.21,-264.607 1042.53,-258.756"/>
<polygon fill="midnightblue" stroke="midnightblue" points="1044.09,-261.913 1052.33,-255.243 1041.73,-255.323 1044.09,-261.913"/>
</g>
<!-- Node12&#45;&gt;Node6 -->
<g id="edge15" class="edge"><title>Node12&#45;&gt;Node6</title>
<path fill="none" stroke="midnightblue" d="M1105.22,-255.27C1116.71,-259.815 1130.62,-265.322 1143.13,-270.273"/>
<polygon fill="midnightblue" stroke="midnightblue" points="1142.2,-273.669 1152.78,-274.095 1144.77,-267.16 1142.2,-273.669"/>
</g>
<!-- Node12&#45;&gt;Node9 -->
<g id="edge16" class="edge"><title>Node12&#45;&gt;Node9</title>
<path fill="none" stroke="midnightblue" d="M1101.21,-255.383C1105.17,-257.98 1109.02,-261.084 1112,-264.681 1150.24,-310.815 1167.42,-381.829 1173.81,-415.992"/>
<polygon fill="midnightblue" stroke="midnightblue" points="1170.41,-416.83 1175.58,-426.075 1177.3,-415.621 1170.41,-416.83"/>
</g>
<!-- Node14&#45;&gt;Node5 -->
<g id="edge21" class="edge"><title>Node14&#45;&gt;Node5</title>
<path fill="none" stroke="midnightblue" d="M775.816,-404.543C831.046,-412.865 936.869,-421.004 1012,-378.681 1041.9,-361.835 1061.65,-325.445 1071.53,-302.913"/>
<polygon fill="midnightblue" stroke="midnightblue" points="1074.88,-303.961 1075.48,-293.383 1068.42,-301.278 1074.88,-303.961"/>
</g>
<!-- Node14&#45;&gt;Node6 -->
<g id="edge23" class="edge"><title>Node14&#45;&gt;Node6</title>
<path fill="none" stroke="midnightblue" d="M761.874,-407.282C776.032,-412.697 794.743,-418.917 812,-421.681 900.051,-435.783 928.222,-436.227 1012,-405.681 1074.45,-382.911 1133.52,-328.525 1160.96,-300.705"/>
<polygon fill="midnightblue" stroke="midnightblue" points="1163.69,-302.916 1168.13,-293.299 1158.66,-298.046 1163.69,-302.916"/>
</g>
<!-- Node14&#45;&gt;Node9 -->
<g id="edge22" class="edge"><title>Node14&#45;&gt;Node9</title>
<path fill="none" stroke="midnightblue" d="M748.289,-407.298C761.193,-419.89 785.915,-441.34 812,-449.681 930.153,-487.46 1080.85,-459.331 1145.37,-443.957"/>
<polygon fill="midnightblue" stroke="midnightblue" points="1146.45,-447.298 1155.33,-441.522 1144.78,-440.499 1146.45,-447.298"/>
</g>
<!-- Node14&#45;&gt;Node10 -->
<g id="edge24" class="edge"><title>Node14&#45;&gt;Node10</title>
<path fill="none" stroke="midnightblue" d="M744.81,-387.997C762.796,-358.02 817.784,-266.374 841.697,-226.52"/>
<polygon fill="midnightblue" stroke="midnightblue" points="844.921,-227.948 847.065,-217.572 838.919,-224.347 844.921,-227.948"/>
</g>
<!-- Node15&#45;&gt;Node5 -->
<g id="edge26" class="edge"><title>Node15&#45;&gt;Node5</title>
<path fill="none" stroke="midnightblue" d="M767.064,-267.971C798.686,-271.991 851.484,-279.648 896,-290.681 912.37,-294.738 915.352,-299.979 932,-302.681 967.096,-308.376 976.783,-307.578 1012,-302.681 1022.42,-301.232 1033.49,-298.574 1043.58,-295.695"/>
<polygon fill="midnightblue" stroke="midnightblue" points="1044.7,-299.012 1053.27,-292.78 1042.68,-292.309 1044.7,-299.012"/>
</g>
<!-- Node15&#45;&gt;Node7 -->
<g id="edge27" class="edge"><title>Node15&#45;&gt;Node7</title>
<path fill="none" stroke="midnightblue" d="M747.199,-255.116C766.168,-232.985 813.325,-177.968 837.768,-149.451"/>
<polygon fill="midnightblue" stroke="midnightblue" points="840.718,-151.388 844.568,-141.518 835.403,-146.833 840.718,-151.388"/>
</g>
<!-- Node15&#45;&gt;Node8 -->
<g id="edge28" class="edge"><title>Node15&#45;&gt;Node8</title>
<path fill="none" stroke="midnightblue" d="M762.522,-274.313C804.143,-291.356 890.838,-326.856 938.266,-346.277"/>
<polygon fill="midnightblue" stroke="midnightblue" points="937.18,-349.614 947.761,-350.165 939.833,-343.136 937.18,-349.614"/>
</g>
<!-- Node15&#45;&gt;Node10 -->
<g id="edge30" class="edge"><title>Node15&#45;&gt;Node10</title>
<path fill="none" stroke="midnightblue" d="M758.081,-255.14C776.33,-246.016 804.069,-232.146 824.855,-221.753"/>
<polygon fill="midnightblue" stroke="midnightblue" points="826.478,-224.855 833.857,-217.252 823.347,-218.594 826.478,-224.855"/>
</g>
<!-- Node15&#45;&gt;Node11 -->
<g id="edge29" class="edge"><title>Node15&#45;&gt;Node11</title>
<path fill="none" stroke="midnightblue" d="M767.448,-267.01C811.246,-270.597 894.858,-277.445 940.095,-281.15"/>
<polygon fill="midnightblue" stroke="midnightblue" points="939.942,-284.649 950.195,-281.977 940.514,-277.672 939.942,-284.649"/>
</g>
<!-- Node18 -->
<g id="node18" class="node"><title>Node18</title>
<g id="a_node18"><a xlink:href="ff_8c.html#aa70eb326eb0c3702ae16adf0b4dce1cc" target="_top" xlink:title="dir_next">
<polygon fill="white" stroke="black" points="192.5,-49.1807 192.5,-68.1807 243.5,-68.1807 243.5,-49.1807 192.5,-49.1807"/>
<text text-anchor="middle" x="218" y="-56.1807" font-family="Helvetica,sans-Serif" font-size="10.00">dir_next</text>
</a>
</g>
</g>
<!-- Node17&#45;&gt;Node18 -->
<g id="edge34" class="edge"><title>Node17&#45;&gt;Node18</title>
<path fill="none" stroke="midnightblue" d="M133.473,-182.116C148.384,-160.08 185.357,-105.441 204.724,-76.8215"/>
<polygon fill="midnightblue" stroke="midnightblue" points="207.638,-78.7615 210.343,-68.5179 201.84,-74.8384 207.638,-78.7615"/>
</g>
<!-- Node17&#45;&gt;Node22 -->
<g id="edge54" class="edge"><title>Node17&#45;&gt;Node22</title>
<path fill="none" stroke="midnightblue" d="M151.547,-188.98C203.993,-183.055 330.768,-167.893 436,-148.681 444.496,-147.13 453.487,-145.277 462.181,-143.374"/>
<polygon fill="midnightblue" stroke="midnightblue" points="463.207,-146.731 472.202,-141.132 461.679,-139.9 463.207,-146.731"/>
</g>
<!-- Node19 -->
<g id="node19" class="node"><title>Node19</title>
<g id="a_node19"><a xlink:href="ff_8c.html#a7519abb60fe91f6aa1d17f64fbae123a" target="_top" xlink:title="clust2sect">
<polygon fill="white" stroke="black" points="285,-106.181 285,-125.181 347,-125.181 347,-106.181 285,-106.181"/>
<text text-anchor="middle" x="316" y="-113.181" font-family="Helvetica,sans-Serif" font-size="10.00">clust2sect</text>
</a>
</g>
</g>
<!-- Node18&#45;&gt;Node19 -->
<g id="edge35" class="edge"><title>Node18&#45;&gt;Node19</title>
<path fill="none" stroke="midnightblue" d="M233.889,-68.303C246.147,-76.1407 264.042,-87.3896 280,-96.6807 282.521,-98.1483 285.161,-99.6482 287.813,-101.13"/>
<polygon fill="midnightblue" stroke="midnightblue" points="286.27,-104.275 296.719,-106.024 289.641,-98.1405 286.27,-104.275"/>
</g>
<!-- Node20 -->
<g id="node20" class="node"><title>Node20</title>
<g id="a_node20"><a xlink:href="ff_8c.html#acbd0a20a17c6f9b6d536490d1cc3c5ac" target="_top" xlink:title="create_chain">
<polygon fill="white" stroke="black" points="280,-68.1807 280,-87.1807 352,-87.1807 352,-68.1807 280,-68.1807"/>
<text text-anchor="middle" x="316" y="-75.1807" font-family="Helvetica,sans-Serif" font-size="10.00">create_chain</text>
</a>
</g>
</g>
<!-- Node18&#45;&gt;Node20 -->
<g id="edge36" class="edge"><title>Node18&#45;&gt;Node20</title>
<path fill="none" stroke="midnightblue" d="M243.722,-63.5737C251.714,-65.1555 260.843,-66.9621 269.837,-68.7423"/>
<polygon fill="midnightblue" stroke="midnightblue" points="269.379,-72.2194 279.868,-70.7276 270.738,-65.3526 269.379,-72.2194"/>
</g>
<!-- Node21 -->
<g id="node21" class="node"><title>Node21</title>
<g id="a_node21"><a xlink:href="ff_8c.html#a65611adf1626e5e08da77cd33a98dd8b" target="_top" xlink:title="get_fat">
<polygon fill="white" stroke="black" points="388.5,-120.181 388.5,-139.181 435.5,-139.181 435.5,-120.181 388.5,-120.181"/>
<text text-anchor="middle" x="412" y="-127.181" font-family="Helvetica,sans-Serif" font-size="10.00">get_fat</text>
</a>
</g>
</g>
<!-- Node18&#45;&gt;Node21 -->
<g id="edge51" class="edge"><title>Node18&#45;&gt;Node21</title>
<path fill="none" stroke="midnightblue" d="M230.203,-48.9731C241.777,-39.6415 260.806,-26.1701 280,-20.6807 310.766,-11.8816 325.168,-3.24348 352,-20.6807 385.033,-42.1478 367.31,-68.156 388,-101.681 390.204,-105.252 392.822,-108.864 395.488,-112.253"/>
<polygon fill="midnightblue" stroke="midnightblue" points="392.912,-114.629 402.005,-120.065 398.287,-110.144 392.912,-114.629"/>
</g>
<!-- Node23 -->
<g id="node23" class="node"><title>Node23</title>
<g id="a_node23"><a xlink:href="ff_8c.html#a5e18753404354b210096f9af99e31bc1" target="_top" xlink:title="sync_window">
<polygon fill="white" stroke="black" points="588,-103.181 588,-122.181 664,-122.181 664,-103.181 588,-103.181"/>
<text text-anchor="middle" x="626" y="-110.181" font-family="Helvetica,sans-Serif" font-size="10.00">sync_window</text>
</a>
</g>
</g>
<!-- Node18&#45;&gt;Node23 -->
<g id="edge53" class="edge"><title>Node18&#45;&gt;Node23</title>
<path fill="none" stroke="midnightblue" d="M226.415,-49.1005C236.804,-36.5503 257.018,-15.1471 280,-6.68071 310.027,4.38094 320.547,-0.78875 352,-6.68071 446.441,-24.372 550.219,-73.708 598.083,-98.3274"/>
<polygon fill="midnightblue" stroke="midnightblue" points="596.671,-101.538 607.158,-103.045 599.9,-95.3272 596.671,-101.538"/>
</g>
<!-- Node27 -->
<g id="node27" class="node"><title>Node27</title>
<g id="a_node27"><a xlink:href="ff_8c.html#a02eb5189e43056a9ddc8a59cbe89be93" target="_top" xlink:title="mem_set">
<polygon fill="white" stroke="black" points="287.5,-30.1807 287.5,-49.1807 344.5,-49.1807 344.5,-30.1807 287.5,-30.1807"/>
<text text-anchor="middle" x="316" y="-37.1807" font-family="Helvetica,sans-Serif" font-size="10.00">mem_set</text>
</a>
</g>
</g>
<!-- Node18&#45;&gt;Node27 -->
<g id="edge52" class="edge"><title>Node18&#45;&gt;Node27</title>
<path fill="none" stroke="midnightblue" d="M243.722,-53.7877C253.931,-51.7674 265.992,-49.3802 277.262,-47.1497"/>
<polygon fill="midnightblue" stroke="midnightblue" points="278.183,-50.5354 287.313,-45.1604 276.824,-43.6685 278.183,-50.5354"/>
</g>
<!-- Node20&#45;&gt;Node21 -->
<g id="edge37" class="edge"><title>Node20&#45;&gt;Node21</title>
<path fill="none" stroke="midnightblue" d="M334.829,-87.3031C340.342,-90.2935 346.429,-93.6108 352,-96.6807 362.86,-102.665 374.806,-109.331 385.091,-115.097"/>
<polygon fill="midnightblue" stroke="midnightblue" points="383.558,-118.25 393.991,-120.093 386.985,-112.146 383.558,-118.25"/>
</g>
<!-- Node26 -->
<g id="node26" class="node"><title>Node26</title>
<g id="a_node26"><a xlink:href="ff_8c.html#abd4b6b071a8d728a88727051c12bc6d7" target="_top" xlink:title="put_fat">
<polygon fill="white" stroke="black" points="388.5,-73.1807 388.5,-92.1807 435.5,-92.1807 435.5,-73.1807 388.5,-73.1807"/>
<text text-anchor="middle" x="412" y="-80.1807" font-family="Helvetica,sans-Serif" font-size="10.00">put_fat</text>
</a>
</g>
</g>
<!-- Node20&#45;&gt;Node26 -->
<g id="edge49" class="edge"><title>Node20&#45;&gt;Node26</title>
<path fill="none" stroke="midnightblue" d="M352.002,-79.5425C360.517,-79.9954 369.595,-80.4783 378.013,-80.9261"/>
<polygon fill="midnightblue" stroke="midnightblue" points="378.058,-84.4334 388.23,-81.4696 378.43,-77.4432 378.058,-84.4334"/>
</g>
<!-- Node21&#45;&gt;Node22 -->
<g id="edge38" class="edge"><title>Node21&#45;&gt;Node22</title>
<path fill="none" stroke="midnightblue" d="M435.729,-130.145C443.702,-130.307 452.992,-130.497 462.269,-130.686"/>
<polygon fill="midnightblue" stroke="midnightblue" points="462.198,-134.185 472.268,-130.89 462.341,-127.187 462.198,-134.185"/>
</g>
<!-- Node22&#45;&gt;Node4 -->
<g id="edge48" class="edge"><title>Node22&#45;&gt;Node4</title>
<path fill="none" stroke="midnightblue" d="M551.188,-141.2C581.728,-148.835 625.634,-159.861 664,-169.681 675.17,-172.54 687.292,-175.68 698.39,-178.569"/>
<polygon fill="midnightblue" stroke="midnightblue" points="697.677,-182 708.237,-181.137 699.443,-175.227 697.677,-182"/>
</g>
<!-- Node22&#45;&gt;Node23 -->
<g id="edge39" class="edge"><title>Node22&#45;&gt;Node23</title>
<path fill="none" stroke="midnightblue" d="M551.544,-125.142C560.003,-123.707 569.053,-122.172 577.808,-120.686"/>
<polygon fill="midnightblue" stroke="midnightblue" points="578.624,-124.098 587.898,-118.975 577.453,-117.197 578.624,-124.098"/>
</g>
<!-- Node24 -->
<g id="node24" class="node"><title>Node24</title>
<g id="a_node24"><a xlink:href="diskio_8h.html#ac4785625f4bb82e33562079813659880" target="_top" xlink:title="disk_write">
<polygon fill="white" stroke="black" points="707.5,-103.181 707.5,-122.181 768.5,-122.181 768.5,-103.181 707.5,-103.181"/>
<text text-anchor="middle" x="738" y="-110.181" font-family="Helvetica,sans-Serif" font-size="10.00">disk_write</text>
</a>
</g>
</g>
<!-- Node23&#45;&gt;Node24 -->
<g id="edge40" class="edge"><title>Node23&#45;&gt;Node24</title>
<path fill="none" stroke="midnightblue" d="M664.241,-112.681C674.916,-112.681 686.59,-112.681 697.401,-112.681"/>
<polygon fill="midnightblue" stroke="midnightblue" points="697.441,-116.181 707.441,-112.681 697.441,-109.181 697.441,-116.181"/>
</g>
<!-- Node24&#45;&gt;Node5 -->
<g id="edge41" class="edge"><title>Node24&#45;&gt;Node5</title>
<path fill="none" stroke="midnightblue" d="M765.358,-103.05C818.436,-85.5144 939.321,-55.2048 1012,-112.681 1066.45,-155.744 1007.28,-208.451 1048,-264.681 1048.67,-265.601 1049.39,-266.486 1050.17,-267.336"/>
<polygon fill="midnightblue" stroke="midnightblue" points="1048.21,-270.266 1058.11,-274.049 1052.73,-264.92 1048.21,-270.266"/>
</g>
<!-- Node24&#45;&gt;Node7 -->
<g id="edge42" class="edge"><title>Node24&#45;&gt;Node7</title>
<path fill="none" stroke="midnightblue" d="M768.655,-117.623C781.272,-119.726 796.232,-122.219 810.023,-124.518"/>
<polygon fill="midnightblue" stroke="midnightblue" points="809.845,-128.036 820.284,-126.228 810.996,-121.132 809.845,-128.036"/>
</g>
<!-- Node24&#45;&gt;Node10 -->
<g id="edge43" class="edge"><title>Node24&#45;&gt;Node10</title>
<path fill="none" stroke="midnightblue" d="M750.771,-122.49C770.328,-138.787 809.711,-171.607 833.479,-191.413"/>
<polygon fill="midnightblue" stroke="midnightblue" points="831.54,-194.354 841.463,-198.067 836.022,-188.976 831.54,-194.354"/>
</g>
<!-- Node25 -->
<g id="node25" class="node"><title>Node25</title>
<g id="a_node25"><a xlink:href="sdmm_8c.html#aefbd30f6bdff37184f58faf98ad1c6e0" target="_top" xlink:title="xmit_datablock">
<polygon fill="white" stroke="black" points="812.5,-46.1807 812.5,-65.1807 895.5,-65.1807 895.5,-46.1807 812.5,-46.1807"/>
<text text-anchor="middle" x="854" y="-53.1807" font-family="Helvetica,sans-Serif" font-size="10.00">xmit_datablock</text>
</a>
</g>
</g>
<!-- Node24&#45;&gt;Node25 -->
<g id="edge44" class="edge"><title>Node24&#45;&gt;Node25</title>
<path fill="none" stroke="midnightblue" d="M758.081,-103.14C776.33,-94.0158 804.069,-80.1463 824.855,-69.7533"/>
<polygon fill="midnightblue" stroke="midnightblue" points="826.478,-72.855 833.857,-65.2524 823.347,-66.5941 826.478,-72.855"/>
</g>
<!-- Node25&#45;&gt;Node6 -->
<g id="edge47" class="edge"><title>Node25&#45;&gt;Node6</title>
<path fill="none" stroke="midnightblue" d="M884.074,-46.1115C917.077,-37.0488 971.57,-27.6675 1012,-48.6807 1102.28,-95.6039 1153.49,-217.082 1170.54,-264.408"/>
<polygon fill="midnightblue" stroke="midnightblue" points="1167.3,-265.759 1173.9,-274.047 1173.91,-263.452 1167.3,-265.759"/>
</g>
<!-- Node25&#45;&gt;Node12 -->
<g id="edge45" class="edge"><title>Node25&#45;&gt;Node12</title>
<path fill="none" stroke="midnightblue" d="M895.749,-51.4548C930.271,-50.112 979.242,-53.7582 1012,-79.6807 1058.4,-116.399 1072.84,-190.32 1077.2,-225.797"/>
<polygon fill="midnightblue" stroke="midnightblue" points="1073.73,-226.302 1078.28,-235.868 1080.69,-225.55 1073.73,-226.302"/>
</g>
<!-- Node25&#45;&gt;Node13 -->
<g id="edge46" class="edge"><title>Node25&#45;&gt;Node13</title>
<path fill="none" stroke="midnightblue" d="M869.691,-65.3062C889.39,-78.2119 924.572,-101.263 947.851,-116.514"/>
<polygon fill="midnightblue" stroke="midnightblue" points="946.145,-119.581 956.428,-122.133 949.981,-113.725 946.145,-119.581"/>
</g>
<!-- Node26&#45;&gt;Node22 -->
<g id="edge50" class="edge"><title>Node26&#45;&gt;Node22</title>
<path fill="none" stroke="midnightblue" d="M432.362,-92.3615C446.724,-99.5426 466.527,-109.444 482.667,-117.514"/>
<polygon fill="midnightblue" stroke="midnightblue" points="481.169,-120.678 491.679,-122.02 484.3,-114.417 481.169,-120.678"/>
</g>
<!-- Node28&#45;&gt;Node19 -->
<g id="edge56" class="edge"><title>Node28&#45;&gt;Node19</title>
<path fill="none" stroke="midnightblue" d="M240.784,-145.058C252.803,-140.3 267.986,-134.291 281.483,-128.948"/>
<polygon fill="midnightblue" stroke="midnightblue" points="282.934,-132.138 290.944,-125.203 280.357,-125.629 282.934,-132.138"/>
</g>
<!-- Node28&#45;&gt;Node21 -->
<g id="edge57" class="edge"><title>Node28&#45;&gt;Node21</title>
<path fill="none" stroke="midnightblue" d="M240.652,-150.974C274.16,-146.786 338.808,-138.705 378.112,-133.792"/>
<polygon fill="midnightblue" stroke="midnightblue" points="378.751,-137.239 388.24,-132.526 377.883,-130.293 378.751,-137.239"/>
</g>
</g>
</svg>
