<?xml version="1.0" encoding="UTF-8" standalone="no"?>
<!DOCTYPE svg PUBLIC "-//W3C//DTD SVG 1.1//EN"
 "http://www.w3.org/Graphics/SVG/1.1/DTD/svg11.dtd">
<!-- Generated by graphviz version 2.36.0 (20140111.2315)
 -->
<!-- Title: sync_window Pages: 1 -->
<svg width="596pt" height="218pt"
 viewBox="0.00 0.00 596.00 218.00" xmlns="http://www.w3.org/2000/svg" xmlns:xlink="http://www.w3.org/1999/xlink">
<g id="graph0" class="graph" transform="scale(1 1) rotate(0) translate(4 214)">
<title>sync_window</title>
<polygon fill="white" stroke="none" points="-4,4 -4,-214 592,-214 592,4 -4,4"/>
<!-- Node1 -->
<g id="node1" class="node"><title>Node1</title>
<polygon fill="#bfbfbf" stroke="black" points="0,-95.5 0,-114.5 76,-114.5 76,-95.5 0,-95.5"/>
<text text-anchor="middle" x="38" y="-102.5" font-family="Helvetica,sans-Serif" font-size="10.00">sync_window</text>
</g>
<!-- Node2 -->
<g id="node2" class="node"><title>Node2</title>
<g id="a_node2"><a xlink:href="diskio_8h.html#ac4785625f4bb82e33562079813659880" target="_top" xlink:title="disk_write">
<polygon fill="white" stroke="black" points="112.5,-95.5 112.5,-114.5 173.5,-114.5 173.5,-95.5 112.5,-95.5"/>
<text text-anchor="middle" x="143" y="-102.5" font-family="Helvetica,sans-Serif" font-size="10.00">disk_write</text>
</a>
</g>
</g>
<!-- Node1&#45;&gt;Node2 -->
<g id="edge1" class="edge"><title>Node1&#45;&gt;Node2</title>
<path fill="none" stroke="midnightblue" d="M76.1854,-105C84.6245,-105 93.6206,-105 102.165,-105"/>
<polygon fill="midnightblue" stroke="midnightblue" points="102.295,-108.5 112.295,-105 102.294,-101.5 102.295,-108.5"/>
</g>
<!-- Node3 -->
<g id="node3" class="node"><title>Node3</title>
<g id="a_node3"><a xlink:href="sdmm_8c.html#ac0eadae94de728461ccade9e03fafd8c" target="_top" xlink:title="deselect">
<polygon fill="white" stroke="black" points="433.5,-190.5 433.5,-209.5 486.5,-209.5 486.5,-190.5 433.5,-190.5"/>
<text text-anchor="middle" x="460" y="-197.5" font-family="Helvetica,sans-Serif" font-size="10.00">deselect</text>
</a>
</g>
</g>
<!-- Node2&#45;&gt;Node3 -->
<g id="edge2" class="edge"><title>Node2&#45;&gt;Node3</title>
<path fill="none" stroke="midnightblue" d="M156.623,-114.526C185.436,-135.578 259.055,-185.502 330,-202 360.871,-209.179 397.028,-207.81 423.195,-205.15"/>
<polygon fill="midnightblue" stroke="midnightblue" points="423.858,-208.598 433.402,-203.996 423.072,-201.642 423.858,-208.598"/>
</g>
<!-- Node5 -->
<g id="node5" class="node"><title>Node5</title>
<g id="a_node5"><a xlink:href="sdmm_8c.html#a21ad8e9a107ea2000705a3edfebaaa2d" target="_top" xlink:title="disk_status">
<polygon fill="white" stroke="black" points="218.5,-38.5 218.5,-57.5 285.5,-57.5 285.5,-38.5 218.5,-38.5"/>
<text text-anchor="middle" x="252" y="-45.5" font-family="Helvetica,sans-Serif" font-size="10.00">disk_status</text>
</a>
</g>
</g>
<!-- Node2&#45;&gt;Node5 -->
<g id="edge4" class="edge"><title>Node2&#45;&gt;Node5</title>
<path fill="none" stroke="midnightblue" d="M159.785,-95.385C173.021,-87.451 192.509,-76.0654 210,-67 213.33,-65.2739 216.847,-63.5298 220.364,-61.8347"/>
<polygon fill="midnightblue" stroke="midnightblue" points="221.992,-64.9363 229.547,-57.5078 219.009,-58.6041 221.992,-64.9363"/>
</g>
<!-- Node6 -->
<g id="node6" class="node"><title>Node6</title>
<g id="a_node6"><a xlink:href="sdmm_8c.html#a99684b493c8bfdb0288a2e24e52f6871" target="_top" xlink:title="send_cmd">
<polygon fill="white" stroke="black" points="221,-114.5 221,-133.5 283,-133.5 283,-114.5 221,-114.5"/>
<text text-anchor="middle" x="252" y="-121.5" font-family="Helvetica,sans-Serif" font-size="10.00">send_cmd</text>
</a>
</g>
</g>
<!-- Node2&#45;&gt;Node6 -->
<g id="edge5" class="edge"><title>Node2&#45;&gt;Node6</title>
<path fill="none" stroke="midnightblue" d="M173.521,-110.242C185.023,-112.284 198.389,-114.658 210.749,-116.853"/>
<polygon fill="midnightblue" stroke="midnightblue" points="210.373,-120.34 220.831,-118.643 211.597,-113.448 210.373,-120.34"/>
</g>
<!-- Node11 -->
<g id="node11" class="node"><title>Node11</title>
<g id="a_node11"><a xlink:href="sdmm_8c.html#aefbd30f6bdff37184f58faf98ad1c6e0" target="_top" xlink:title="xmit_datablock">
<polygon fill="white" stroke="black" points="210.5,-76.5 210.5,-95.5 293.5,-95.5 293.5,-76.5 210.5,-76.5"/>
<text text-anchor="middle" x="252" y="-83.5" font-family="Helvetica,sans-Serif" font-size="10.00">xmit_datablock</text>
</a>
</g>
</g>
<!-- Node2&#45;&gt;Node11 -->
<g id="edge15" class="edge"><title>Node2&#45;&gt;Node11</title>
<path fill="none" stroke="midnightblue" d="M173.521,-99.7579C181.88,-98.2736 191.223,-96.6146 200.449,-94.9763"/>
<polygon fill="midnightblue" stroke="midnightblue" points="201.128,-98.4106 210.362,-93.2161 199.904,-91.5184 201.128,-98.4106"/>
</g>
<!-- Node4 -->
<g id="node4" class="node"><title>Node4</title>
<g id="a_node4"><a xlink:href="sdmm_8c.html#ab628371b03508f9db7c6daf1203ed84d" target="_top" xlink:title="rcvr_mmc">
<polygon fill="white" stroke="black" points="528,-114.5 528,-133.5 588,-133.5 588,-114.5 528,-114.5"/>
<text text-anchor="middle" x="558" y="-121.5" font-family="Helvetica,sans-Serif" font-size="10.00">rcvr_mmc</text>
</a>
</g>
</g>
<!-- Node3&#45;&gt;Node4 -->
<g id="edge3" class="edge"><title>Node3&#45;&gt;Node4</title>
<path fill="none" stroke="midnightblue" d="M473.405,-190.468C479.088,-186.083 485.903,-180.799 492,-176 507.132,-164.091 524.122,-150.491 536.936,-140.187"/>
<polygon fill="midnightblue" stroke="midnightblue" points="539.471,-142.639 545.065,-133.641 535.081,-137.187 539.471,-142.639"/>
</g>
<!-- Node6&#45;&gt;Node3 -->
<g id="edge6" class="edge"><title>Node6&#45;&gt;Node3</title>
<path fill="none" stroke="midnightblue" d="M262.468,-133.502C276.099,-146.555 302.637,-169.697 330,-181 359.923,-193.361 396.673,-197.84 423.283,-199.387"/>
<polygon fill="midnightblue" stroke="midnightblue" points="423.151,-202.885 433.304,-199.859 423.48,-195.892 423.151,-202.885"/>
</g>
<!-- Node6&#45;&gt;Node4 -->
<g id="edge14" class="edge"><title>Node6&#45;&gt;Node4</title>
<path fill="none" stroke="midnightblue" d="M283.26,-124C338.628,-124 456.191,-124 517.672,-124"/>
<polygon fill="midnightblue" stroke="midnightblue" points="517.756,-127.5 527.756,-124 517.756,-120.5 517.756,-127.5"/>
</g>
<!-- Node7 -->
<g id="node7" class="node"><title>Node7</title>
<g id="a_node7"><a xlink:href="sdmm_8c.html#ab45cb1d47cda5822ce492ad3c11867ae" target="_top" xlink:title="select">
<polygon fill="white" stroke="black" points="339.5,-152.5 339.5,-171.5 382.5,-171.5 382.5,-152.5 339.5,-152.5"/>
<text text-anchor="middle" x="361" y="-159.5" font-family="Helvetica,sans-Serif" font-size="10.00">select</text>
</a>
</g>
</g>
<!-- Node6&#45;&gt;Node7 -->
<g id="edge7" class="edge"><title>Node6&#45;&gt;Node7</title>
<path fill="none" stroke="midnightblue" d="M280.001,-133.589C295.135,-138.964 314.054,-145.683 329.693,-151.237"/>
<polygon fill="midnightblue" stroke="midnightblue" points="328.83,-154.644 339.425,-154.693 331.173,-148.048 328.83,-154.644"/>
</g>
<!-- Node10 -->
<g id="node10" class="node"><title>Node10</title>
<g id="a_node10"><a xlink:href="sdmm_8c.html#ace0af708caf7775204ca74fbd46818bb" target="_top" xlink:title="xmit_mmc">
<polygon fill="white" stroke="black" points="330,-76.5 330,-95.5 392,-95.5 392,-76.5 330,-76.5"/>
<text text-anchor="middle" x="361" y="-83.5" font-family="Helvetica,sans-Serif" font-size="10.00">xmit_mmc</text>
</a>
</g>
</g>
<!-- Node6&#45;&gt;Node10 -->
<g id="edge13" class="edge"><title>Node6&#45;&gt;Node10</title>
<path fill="none" stroke="midnightblue" d="M280.001,-114.411C293.18,-109.731 309.229,-104.031 323.484,-98.9685"/>
<polygon fill="midnightblue" stroke="midnightblue" points="324.756,-102.231 333.008,-95.5859 322.413,-95.6344 324.756,-102.231"/>
</g>
<!-- Node7&#45;&gt;Node3 -->
<g id="edge12" class="edge"><title>Node7&#45;&gt;Node3</title>
<path fill="none" stroke="midnightblue" d="M382.571,-170.059C394.952,-174.909 411.016,-181.202 425.219,-186.766"/>
<polygon fill="midnightblue" stroke="midnightblue" points="424.099,-190.087 434.687,-190.475 426.653,-183.569 424.099,-190.087"/>
</g>
<!-- Node7&#45;&gt;Node4 -->
<g id="edge8" class="edge"><title>Node7&#45;&gt;Node4</title>
<path fill="none" stroke="midnightblue" d="M382.75,-158.364C408.44,-153.818 453.516,-145.695 492,-138 500.461,-136.308 509.523,-134.411 518.114,-132.572"/>
<polygon fill="midnightblue" stroke="midnightblue" points="518.88,-135.987 527.917,-130.456 517.404,-129.145 518.88,-135.987"/>
</g>
<!-- Node8 -->
<g id="node8" class="node"><title>Node8</title>
<g id="a_node8"><a xlink:href="sdmm_8c.html#a624a19e248af05530dae5c0cc1dddc11" target="_top" xlink:title="wait_ready">
<polygon fill="white" stroke="black" points="428,-0.5 428,-19.5 492,-19.5 492,-0.5 428,-0.5"/>
<text text-anchor="middle" x="460" y="-7.5" font-family="Helvetica,sans-Serif" font-size="10.00">wait_ready</text>
</a>
</g>
</g>
<!-- Node7&#45;&gt;Node8 -->
<g id="edge9" class="edge"><title>Node7&#45;&gt;Node8</title>
<path fill="none" stroke="midnightblue" d="M368.068,-152.492C383.923,-127.647 426.791,-60.4719 447.498,-28.0243"/>
<polygon fill="midnightblue" stroke="midnightblue" points="450.505,-29.8173 452.935,-19.5047 444.605,-26.0516 450.505,-29.8173"/>
</g>
<!-- Node8&#45;&gt;Node4 -->
<g id="edge10" class="edge"><title>Node8&#45;&gt;Node4</title>
<path fill="none" stroke="midnightblue" d="M475.291,-19.722C480.807,-23.8081 486.984,-28.8141 492,-34 513.78,-56.518 534.106,-86.7227 546.044,-105.776"/>
<polygon fill="midnightblue" stroke="midnightblue" points="543.121,-107.705 551.343,-114.387 549.083,-104.036 543.121,-107.705"/>
</g>
<!-- Node9 -->
<g id="node9" class="node"><title>Node9</title>
<g id="a_node9"><a xlink:href="sdmm_8c.html#a76a43e01b9676630e121e5a659acbb3f" target="_top" xlink:title="dly_us">
<polygon fill="white" stroke="black" points="535.5,-0.5 535.5,-19.5 580.5,-19.5 580.5,-0.5 535.5,-0.5"/>
<text text-anchor="middle" x="558" y="-7.5" font-family="Helvetica,sans-Serif" font-size="10.00">dly_us</text>
</a>
</g>
</g>
<!-- Node8&#45;&gt;Node9 -->
<g id="edge11" class="edge"><title>Node8&#45;&gt;Node9</title>
<path fill="none" stroke="midnightblue" d="M492.168,-10C502.762,-10 514.609,-10 525.248,-10"/>
<polygon fill="midnightblue" stroke="midnightblue" points="525.393,-13.5001 535.393,-10 525.393,-6.5001 525.393,-13.5001"/>
</g>
<!-- Node11&#45;&gt;Node4 -->
<g id="edge18" class="edge"><title>Node11&#45;&gt;Node4</title>
<path fill="none" stroke="midnightblue" d="M284.15,-76.4944C298.04,-72.7301 314.691,-68.8608 330,-67 357.354,-63.675 364.825,-62.4383 392,-67 440.892,-75.2069 494.67,-96.1984 527.128,-110.286"/>
<polygon fill="midnightblue" stroke="midnightblue" points="525.926,-113.581 536.488,-114.414 528.751,-107.176 525.926,-113.581"/>
</g>
<!-- Node11&#45;&gt;Node8 -->
<g id="edge16" class="edge"><title>Node11&#45;&gt;Node8</title>
<path fill="none" stroke="midnightblue" d="M277.086,-76.3429C282.815,-73.642 288.778,-70.4811 294,-67 312.06,-54.9611 310.58,-43.6932 330,-34 357.351,-20.3487 391.472,-14.4145 417.751,-11.858"/>
<polygon fill="midnightblue" stroke="midnightblue" points="418.099,-15.3412 427.767,-11.0084 417.507,-8.36622 418.099,-15.3412"/>
</g>
<!-- Node11&#45;&gt;Node10 -->
<g id="edge17" class="edge"><title>Node11&#45;&gt;Node10</title>
<path fill="none" stroke="midnightblue" d="M293.757,-86C302.239,-86 311.174,-86 319.641,-86"/>
<polygon fill="midnightblue" stroke="midnightblue" points="319.675,-89.5001 329.675,-86 319.675,-82.5001 319.675,-89.5001"/>
</g>
</g>
</svg>
