<?xml version="1.0" encoding="UTF-8" standalone="no"?>
<!DOCTYPE svg PUBLIC "-//W3C//DTD SVG 1.1//EN"
 "http://www.w3.org/Graphics/SVG/1.1/DTD/svg11.dtd">
<!-- Generated by graphviz version 2.36.0 (20140111.2315)
 -->
<!-- Title: f_read Pages: 1 -->
<svg width="906pt" height="334pt"
 viewBox="0.00 0.00 906.00 333.74" xmlns="http://www.w3.org/2000/svg" xmlns:xlink="http://www.w3.org/1999/xlink">
<g id="graph0" class="graph" transform="scale(1 1) rotate(0) translate(4 329.742)">
<title>f_read</title>
<polygon fill="white" stroke="none" points="-4,4 -4,-329.742 902,-329.742 902,4 -4,4"/>
<!-- Node1 -->
<g id="node1" class="node"><title>Node1</title>
<polygon fill="#bfbfbf" stroke="black" points="0,-114.5 0,-133.5 44,-133.5 44,-114.5 0,-114.5"/>
<text text-anchor="middle" x="22" y="-121.5" font-family="Helvetica,sans-Serif" font-size="10.00">f_read</text>
</g>
<!-- Node2 -->
<g id="node2" class="node"><title>Node2</title>
<g id="a_node2"><a xlink:href="ff_8c.html#a7519abb60fe91f6aa1d17f64fbae123a" target="_top" xlink:title="clust2sect">
<polygon fill="white" stroke="black" points="80,-228.5 80,-247.5 142,-247.5 142,-228.5 80,-228.5"/>
<text text-anchor="middle" x="111" y="-235.5" font-family="Helvetica,sans-Serif" font-size="10.00">clust2sect</text>
</a>
</g>
</g>
<!-- Node1&#45;&gt;Node2 -->
<g id="edge1" class="edge"><title>Node1&#45;&gt;Node2</title>
<path fill="none" stroke="midnightblue" d="M27.7379,-133.642C36.5145,-150.926 56.5576,-187.821 80,-214 82.4319,-216.716 85.1929,-219.366 88.0316,-221.855"/>
<polygon fill="midnightblue" stroke="midnightblue" points="86.063,-224.765 96.0287,-228.362 90.4809,-219.335 86.063,-224.765"/>
</g>
<!-- Node3 -->
<g id="node3" class="node"><title>Node3</title>
<g id="a_node3"><a xlink:href="diskio_8h.html#ac0c802f8a12fa2047b4bec7109b9293f" target="_top" xlink:title="disk_read">
<polygon fill="white" stroke="black" points="407.5,-95.5 407.5,-114.5 466.5,-114.5 466.5,-95.5 407.5,-95.5"/>
<text text-anchor="middle" x="437" y="-102.5" font-family="Helvetica,sans-Serif" font-size="10.00">disk_read</text>
</a>
</g>
</g>
<!-- Node1&#45;&gt;Node3 -->
<g id="edge2" class="edge"><title>Node1&#45;&gt;Node3</title>
<path fill="none" stroke="midnightblue" d="M44.2413,-115.108C54.7906,-111.162 67.8502,-106.972 80,-105 193.847,-86.5252 330.884,-94.9848 396.807,-100.928"/>
<polygon fill="midnightblue" stroke="midnightblue" points="396.857,-104.448 407.139,-101.892 397.508,-97.4782 396.857,-104.448"/>
</g>
<!-- Node13 -->
<g id="node13" class="node"><title>Node13</title>
<g id="a_node13"><a xlink:href="diskio_8h.html#ac4785625f4bb82e33562079813659880" target="_top" xlink:title="disk_write">
<polygon fill="white" stroke="black" points="406.5,-166.5 406.5,-185.5 467.5,-185.5 467.5,-166.5 406.5,-166.5"/>
<text text-anchor="middle" x="437" y="-173.5" font-family="Helvetica,sans-Serif" font-size="10.00">disk_write</text>
</a>
</g>
</g>
<!-- Node1&#45;&gt;Node13 -->
<g id="edge19" class="edge"><title>Node1&#45;&gt;Node13</title>
<path fill="none" stroke="midnightblue" d="M34.8689,-133.509C45.8754,-141.763 63.0619,-153.263 80,-159 189.591,-196.117 329.028,-188.08 396.235,-181.051"/>
<polygon fill="midnightblue" stroke="midnightblue" points="396.826,-184.507 406.386,-179.938 396.064,-177.549 396.826,-184.507"/>
</g>
<!-- Node15 -->
<g id="node15" class="node"><title>Node15</title>
<g id="a_node15"><a xlink:href="ff_8c.html#a65611adf1626e5e08da77cd33a98dd8b" target="_top" xlink:title="get_fat">
<polygon fill="white" stroke="black" points="87.5,-114.5 87.5,-133.5 134.5,-133.5 134.5,-114.5 87.5,-114.5"/>
<text text-anchor="middle" x="111" y="-121.5" font-family="Helvetica,sans-Serif" font-size="10.00">get_fat</text>
</a>
</g>
</g>
<!-- Node1&#45;&gt;Node15 -->
<g id="edge27" class="edge"><title>Node1&#45;&gt;Node15</title>
<path fill="none" stroke="midnightblue" d="M44.0603,-124C53.9687,-124 66.0163,-124 77.0891,-124"/>
<polygon fill="midnightblue" stroke="midnightblue" points="77.3051,-127.5 87.3051,-124 77.305,-120.5 77.3051,-127.5"/>
</g>
<!-- Node16 -->
<g id="node16" class="node"><title>Node16</title>
<g id="a_node16"><a xlink:href="ff_8c.html#af2e8986556ee6644b4bf31fa4158d735" target="_top" xlink:title="move_window">
<polygon fill="white" stroke="black" points="178.5,-133.5 178.5,-152.5 257.5,-152.5 257.5,-133.5 178.5,-133.5"/>
<text text-anchor="middle" x="218" y="-140.5" font-family="Helvetica,sans-Serif" font-size="10.00">move_window</text>
</a>
</g>
</g>
<!-- Node1&#45;&gt;Node16 -->
<g id="edge33" class="edge"><title>Node1&#45;&gt;Node16</title>
<path fill="none" stroke="midnightblue" d="M44.2413,-132.892C54.7906,-136.838 67.8502,-141.028 80,-143 109.017,-147.709 141.948,-147.871 168.251,-146.779"/>
<polygon fill="midnightblue" stroke="midnightblue" points="168.533,-150.269 178.351,-146.285 168.192,-143.278 168.533,-150.269"/>
</g>
<!-- Node18 -->
<g id="node18" class="node"><title>Node18</title>
<g id="a_node18"><a xlink:href="ff_8c.html#a8941d573d16af92c8570950d53164f30" target="_top" xlink:title="mem_cpy">
<polygon fill="white" stroke="black" points="81.5,-38.5 81.5,-57.5 140.5,-57.5 140.5,-38.5 81.5,-38.5"/>
<text text-anchor="middle" x="111" y="-45.5" font-family="Helvetica,sans-Serif" font-size="10.00">mem_cpy</text>
</a>
</g>
</g>
<!-- Node1&#45;&gt;Node18 -->
<g id="edge32" class="edge"><title>Node1&#45;&gt;Node18</title>
<path fill="none" stroke="midnightblue" d="M33.323,-114.209C44.6038,-103.599 63.2996,-86.2719 80,-72 83.1057,-69.3459 86.4427,-66.5879 89.7223,-63.9278"/>
<polygon fill="midnightblue" stroke="midnightblue" points="91.9705,-66.6115 97.5928,-57.6315 87.5976,-61.1454 91.9705,-66.6115"/>
</g>
<!-- Node19 -->
<g id="node19" class="node"><title>Node19</title>
<g id="a_node19"><a xlink:href="ff_8c.html#aa7193f5b86c3996b5312043a0c26da5f" target="_top" xlink:title="validate">
<polygon fill="white" stroke="black" points="86,-0.5 86,-19.5 136,-19.5 136,-0.5 86,-0.5"/>
<text text-anchor="middle" x="111" y="-7.5" font-family="Helvetica,sans-Serif" font-size="10.00">validate</text>
</a>
</g>
</g>
<!-- Node1&#45;&gt;Node19 -->
<g id="edge34" class="edge"><title>Node1&#45;&gt;Node19</title>
<path fill="none" stroke="midnightblue" d="M26.9459,-114.398C34.8402,-96.0701 54.0699,-55.564 80,-29 81.0766,-27.8971 82.229,-26.8284 83.4322,-25.7977"/>
<polygon fill="midnightblue" stroke="midnightblue" points="85.8764,-28.3438 91.8431,-19.5888 81.719,-22.7121 85.8764,-28.3438"/>
</g>
<!-- Node4 -->
<g id="node4" class="node"><title>Node4</title>
<g id="a_node4"><a xlink:href="sdmm_8c.html#ac0eadae94de728461ccade9e03fafd8c" target="_top" xlink:title="deselect">
<polygon fill="white" stroke="black" points="735.5,-119.5 735.5,-138.5 788.5,-138.5 788.5,-119.5 735.5,-119.5"/>
<text text-anchor="middle" x="762" y="-126.5" font-family="Helvetica,sans-Serif" font-size="10.00">deselect</text>
</a>
</g>
</g>
<!-- Node3&#45;&gt;Node4 -->
<g id="edge3" class="edge"><title>Node3&#45;&gt;Node4</title>
<path fill="none" stroke="midnightblue" d="M466.754,-104.719C513.084,-104.588 607.049,-105.66 686,-115 698.948,-116.532 713.028,-118.956 725.455,-121.359"/>
<polygon fill="midnightblue" stroke="midnightblue" points="724.951,-124.827 735.443,-123.353 726.322,-117.963 724.951,-124.827"/>
</g>
<!-- Node6 -->
<g id="node6" class="node"><title>Node6</title>
<g id="a_node6"><a xlink:href="sdmm_8c.html#a21ad8e9a107ea2000705a3edfebaaa2d" target="_top" xlink:title="disk_status">
<polygon fill="white" stroke="black" points="512.5,-119.5 512.5,-138.5 579.5,-138.5 579.5,-119.5 512.5,-119.5"/>
<text text-anchor="middle" x="546" y="-126.5" font-family="Helvetica,sans-Serif" font-size="10.00">disk_status</text>
</a>
</g>
</g>
<!-- Node3&#45;&gt;Node6 -->
<g id="edge5" class="edge"><title>Node3&#45;&gt;Node6</title>
<path fill="none" stroke="midnightblue" d="M466.674,-111.432C477.701,-113.905 490.535,-116.784 502.585,-119.486"/>
<polygon fill="midnightblue" stroke="midnightblue" points="501.942,-122.929 512.465,-121.702 503.474,-116.099 501.942,-122.929"/>
</g>
<!-- Node7 -->
<g id="node7" class="node"><title>Node7</title>
<g id="a_node7"><a xlink:href="sdmm_8c.html#a8c99afbc312912297b19752cf7e0960b" target="_top" xlink:title="rcvr_datablock">
<polygon fill="white" stroke="black" points="722,-81.5 722,-100.5 802,-100.5 802,-81.5 722,-81.5"/>
<text text-anchor="middle" x="762" y="-88.5" font-family="Helvetica,sans-Serif" font-size="10.00">rcvr_datablock</text>
</a>
</g>
</g>
<!-- Node3&#45;&gt;Node7 -->
<g id="edge6" class="edge"><title>Node3&#45;&gt;Node7</title>
<path fill="none" stroke="midnightblue" d="M455.304,-95.383C468.268,-88.7518 486.68,-80.522 504,-77 575.224,-62.5166 659.692,-72.0899 711.82,-80.9967"/>
<polygon fill="midnightblue" stroke="midnightblue" points="711.344,-84.4668 721.801,-82.7619 712.563,-77.5738 711.344,-84.4668"/>
</g>
<!-- Node9 -->
<g id="node9" class="node"><title>Node9</title>
<g id="a_node9"><a xlink:href="sdmm_8c.html#a99684b493c8bfdb0288a2e24e52f6871" target="_top" xlink:title="send_cmd">
<polygon fill="white" stroke="black" points="515,-195.5 515,-214.5 577,-214.5 577,-195.5 515,-195.5"/>
<text text-anchor="middle" x="546" y="-202.5" font-family="Helvetica,sans-Serif" font-size="10.00">send_cmd</text>
</a>
</g>
</g>
<!-- Node3&#45;&gt;Node9 -->
<g id="edge9" class="edge"><title>Node3&#45;&gt;Node9</title>
<path fill="none" stroke="midnightblue" d="M448.26,-114.588C466.428,-131.568 504.469,-167.12 527.057,-188.231"/>
<polygon fill="midnightblue" stroke="midnightblue" points="524.918,-191.023 534.614,-195.294 529.698,-185.908 524.918,-191.023"/>
</g>
<!-- Node5 -->
<g id="node5" class="node"><title>Node5</title>
<g id="a_node5"><a xlink:href="sdmm_8c.html#ab628371b03508f9db7c6daf1203ed84d" target="_top" xlink:title="rcvr_mmc">
<polygon fill="white" stroke="black" points="838,-176.5 838,-195.5 898,-195.5 898,-176.5 838,-176.5"/>
<text text-anchor="middle" x="868" y="-183.5" font-family="Helvetica,sans-Serif" font-size="10.00">rcvr_mmc</text>
</a>
</g>
</g>
<!-- Node4&#45;&gt;Node5 -->
<g id="edge4" class="edge"><title>Node4&#45;&gt;Node5</title>
<path fill="none" stroke="midnightblue" d="M783.389,-138.573C789.428,-141.505 796.023,-144.803 802,-148 815.686,-155.321 830.659,-164.025 842.781,-171.255"/>
<polygon fill="midnightblue" stroke="midnightblue" points="841.053,-174.299 851.427,-176.448 844.657,-168.299 841.053,-174.299"/>
</g>
<!-- Node7&#45;&gt;Node5 -->
<g id="edge7" class="edge"><title>Node7&#45;&gt;Node5</title>
<path fill="none" stroke="midnightblue" d="M786.605,-100.571C791.917,-103.238 797.353,-106.406 802,-110 823.554,-126.669 843.109,-151.463 855.016,-168.155"/>
<polygon fill="midnightblue" stroke="midnightblue" points="852.228,-170.276 860.808,-176.492 857.977,-166.282 852.228,-170.276"/>
</g>
<!-- Node8 -->
<g id="node8" class="node"><title>Node8</title>
<g id="a_node8"><a xlink:href="sdmm_8c.html#a76a43e01b9676630e121e5a659acbb3f" target="_top" xlink:title="dly_us">
<polygon fill="white" stroke="black" points="845.5,-100.5 845.5,-119.5 890.5,-119.5 890.5,-100.5 845.5,-100.5"/>
<text text-anchor="middle" x="868" y="-107.5" font-family="Helvetica,sans-Serif" font-size="10.00">dly_us</text>
</a>
</g>
</g>
<!-- Node7&#45;&gt;Node8 -->
<g id="edge8" class="edge"><title>Node7&#45;&gt;Node8</title>
<path fill="none" stroke="midnightblue" d="M802.022,-98.129C813.002,-100.135 824.806,-102.292 835.302,-104.209"/>
<polygon fill="midnightblue" stroke="midnightblue" points="834.816,-107.678 845.282,-106.032 836.074,-100.792 834.816,-107.678"/>
</g>
<!-- Node9&#45;&gt;Node4 -->
<g id="edge10" class="edge"><title>Node9&#45;&gt;Node4</title>
<path fill="none" stroke="midnightblue" d="M574.103,-195.375C612.628,-181.693 683.258,-156.609 725.792,-141.504"/>
<polygon fill="midnightblue" stroke="midnightblue" points="727.197,-144.719 735.449,-138.074 724.854,-138.123 727.197,-144.719"/>
</g>
<!-- Node9&#45;&gt;Node5 -->
<g id="edge18" class="edge"><title>Node9&#45;&gt;Node5</title>
<path fill="none" stroke="midnightblue" d="M577.04,-214.203C591.146,-218.061 608.281,-222.089 624,-224 702.811,-233.58 724.779,-227.435 802,-209 812.764,-206.43 824.232,-202.717 834.49,-199.021"/>
<polygon fill="midnightblue" stroke="midnightblue" points="835.742,-202.29 843.892,-195.521 833.299,-195.729 835.742,-202.29"/>
</g>
<!-- Node10 -->
<g id="node10" class="node"><title>Node10</title>
<g id="a_node10"><a xlink:href="sdmm_8c.html#ab45cb1d47cda5822ce492ad3c11867ae" target="_top" xlink:title="select">
<polygon fill="white" stroke="black" points="633.5,-195.5 633.5,-214.5 676.5,-214.5 676.5,-195.5 633.5,-195.5"/>
<text text-anchor="middle" x="655" y="-202.5" font-family="Helvetica,sans-Serif" font-size="10.00">select</text>
</a>
</g>
</g>
<!-- Node9&#45;&gt;Node10 -->
<g id="edge11" class="edge"><title>Node9&#45;&gt;Node10</title>
<path fill="none" stroke="midnightblue" d="M577.09,-205C591.375,-205 608.433,-205 622.85,-205"/>
<polygon fill="midnightblue" stroke="midnightblue" points="623.271,-208.5 633.271,-205 623.271,-201.5 623.271,-208.5"/>
</g>
<!-- Node12 -->
<g id="node12" class="node"><title>Node12</title>
<g id="a_node12"><a xlink:href="sdmm_8c.html#ace0af708caf7775204ca74fbd46818bb" target="_top" xlink:title="xmit_mmc">
<polygon fill="white" stroke="black" points="624,-271.5 624,-290.5 686,-290.5 686,-271.5 624,-271.5"/>
<text text-anchor="middle" x="655" y="-278.5" font-family="Helvetica,sans-Serif" font-size="10.00">xmit_mmc</text>
</a>
</g>
</g>
<!-- Node9&#45;&gt;Node12 -->
<g id="edge17" class="edge"><title>Node9&#45;&gt;Node12</title>
<path fill="none" stroke="midnightblue" d="M560.552,-214.625C578.641,-227.474 610.888,-250.378 632.361,-265.63"/>
<polygon fill="midnightblue" stroke="midnightblue" points="630.379,-268.515 640.558,-271.453 634.432,-262.808 630.379,-268.515"/>
</g>
<!-- Node10&#45;&gt;Node4 -->
<g id="edge16" class="edge"><title>Node10&#45;&gt;Node4</title>
<path fill="none" stroke="midnightblue" d="M668.413,-195.375C673.875,-191.061 680.327,-185.86 686,-181 702.484,-166.879 704.057,-160.213 722,-148 724.393,-146.371 726.947,-144.803 729.559,-143.314"/>
<polygon fill="midnightblue" stroke="midnightblue" points="731.308,-146.349 738.517,-138.584 728.039,-140.159 731.308,-146.349"/>
</g>
<!-- Node10&#45;&gt;Node5 -->
<g id="edge12" class="edge"><title>Node10&#45;&gt;Node5</title>
<path fill="none" stroke="midnightblue" d="M676.616,-203.144C711.56,-199.997 782.978,-193.566 827.721,-189.537"/>
<polygon fill="midnightblue" stroke="midnightblue" points="828.289,-193 837.935,-188.617 827.661,-186.028 828.289,-193"/>
</g>
<!-- Node11 -->
<g id="node11" class="node"><title>Node11</title>
<g id="a_node11"><a xlink:href="sdmm_8c.html#a624a19e248af05530dae5c0cc1dddc11" target="_top" xlink:title="wait_ready">
<polygon fill="white" stroke="black" points="730,-157.5 730,-176.5 794,-176.5 794,-157.5 730,-157.5"/>
<text text-anchor="middle" x="762" y="-164.5" font-family="Helvetica,sans-Serif" font-size="10.00">wait_ready</text>
</a>
</g>
</g>
<!-- Node10&#45;&gt;Node11 -->
<g id="edge13" class="edge"><title>Node10&#45;&gt;Node11</title>
<path fill="none" stroke="midnightblue" d="M676.745,-197.492C690.504,-192.513 708.924,-185.846 725.033,-180.017"/>
<polygon fill="midnightblue" stroke="midnightblue" points="726.489,-183.212 734.701,-176.518 724.107,-176.63 726.489,-183.212"/>
</g>
<!-- Node11&#45;&gt;Node5 -->
<g id="edge14" class="edge"><title>Node11&#45;&gt;Node5</title>
<path fill="none" stroke="midnightblue" d="M794.203,-172.701C804.831,-174.642 816.846,-176.837 828.007,-178.876"/>
<polygon fill="midnightblue" stroke="midnightblue" points="827.486,-182.339 837.952,-180.693 828.744,-175.453 827.486,-182.339"/>
</g>
<!-- Node11&#45;&gt;Node8 -->
<g id="edge15" class="edge"><title>Node11&#45;&gt;Node8</title>
<path fill="none" stroke="midnightblue" d="M783.389,-157.427C789.428,-154.495 796.023,-151.197 802,-148 815.686,-140.679 830.659,-131.975 842.781,-124.745"/>
<polygon fill="midnightblue" stroke="midnightblue" points="844.657,-127.701 851.427,-119.552 841.053,-121.701 844.657,-127.701"/>
</g>
<!-- Node13&#45;&gt;Node4 -->
<g id="edge20" class="edge"><title>Node13&#45;&gt;Node4</title>
<path fill="none" stroke="midnightblue" d="M467.52,-171.704C526.972,-163.054 660.921,-143.563 725.226,-134.206"/>
<polygon fill="midnightblue" stroke="midnightblue" points="725.901,-137.644 735.293,-132.741 724.893,-130.717 725.901,-137.644"/>
</g>
<!-- Node13&#45;&gt;Node6 -->
<g id="edge21" class="edge"><title>Node13&#45;&gt;Node6</title>
<path fill="none" stroke="midnightblue" d="M459.653,-166.489C475.213,-159.654 496.425,-150.337 513.808,-142.701"/>
<polygon fill="midnightblue" stroke="midnightblue" points="515.264,-145.885 523.012,-138.658 512.449,-139.476 515.264,-145.885"/>
</g>
<!-- Node13&#45;&gt;Node9 -->
<g id="edge22" class="edge"><title>Node13&#45;&gt;Node9</title>
<path fill="none" stroke="midnightblue" d="M467.521,-184.001C479.138,-187.15 492.657,-190.814 505.119,-194.191"/>
<polygon fill="midnightblue" stroke="midnightblue" points="504.263,-197.585 514.831,-196.823 506.094,-190.829 504.263,-197.585"/>
</g>
<!-- Node14 -->
<g id="node14" class="node"><title>Node14</title>
<g id="a_node14"><a xlink:href="sdmm_8c.html#aefbd30f6bdff37184f58faf98ad1c6e0" target="_top" xlink:title="xmit_datablock">
<polygon fill="white" stroke="black" points="504.5,-290.5 504.5,-309.5 587.5,-309.5 587.5,-290.5 504.5,-290.5"/>
<text text-anchor="middle" x="546" y="-297.5" font-family="Helvetica,sans-Serif" font-size="10.00">xmit_datablock</text>
</a>
</g>
</g>
<!-- Node13&#45;&gt;Node14 -->
<g id="edge23" class="edge"><title>Node13&#45;&gt;Node14</title>
<path fill="none" stroke="midnightblue" d="M446.396,-185.73C464.445,-206.646 507.148,-256.135 529.983,-282.598"/>
<polygon fill="midnightblue" stroke="midnightblue" points="527.46,-285.031 536.643,-290.315 532.76,-280.458 527.46,-285.031"/>
</g>
<!-- Node14&#45;&gt;Node5 -->
<g id="edge26" class="edge"><title>Node14&#45;&gt;Node5</title>
<path fill="none" stroke="midnightblue" d="M570.195,-309.651C598.259,-319.904 646.64,-332.984 686,-320 756.895,-296.613 822.725,-233.569 851.607,-203.035"/>
<polygon fill="midnightblue" stroke="midnightblue" points="854.199,-205.387 858.442,-195.679 849.071,-200.622 854.199,-205.387"/>
</g>
<!-- Node14&#45;&gt;Node11 -->
<g id="edge24" class="edge"><title>Node14&#45;&gt;Node11</title>
<path fill="none" stroke="midnightblue" d="M583.278,-309.505C612.958,-315.161 654.952,-318.136 686,-300 728.199,-275.35 748.515,-217.227 756.581,-186.626"/>
<polygon fill="midnightblue" stroke="midnightblue" points="760.03,-187.257 759.016,-176.711 753.232,-185.587 760.03,-187.257"/>
</g>
<!-- Node14&#45;&gt;Node12 -->
<g id="edge25" class="edge"><title>Node14&#45;&gt;Node12</title>
<path fill="none" stroke="midnightblue" d="M587.757,-292.763C596.239,-291.257 605.174,-289.67 613.641,-288.167"/>
<polygon fill="midnightblue" stroke="midnightblue" points="614.441,-291.579 623.675,-286.385 613.217,-284.687 614.441,-291.579"/>
</g>
<!-- Node15&#45;&gt;Node16 -->
<g id="edge28" class="edge"><title>Node15&#45;&gt;Node16</title>
<path fill="none" stroke="midnightblue" d="M134.525,-128.076C144.505,-129.882 156.659,-132.081 168.536,-134.23"/>
<polygon fill="midnightblue" stroke="midnightblue" points="167.93,-137.677 178.393,-136.014 169.176,-130.789 167.93,-137.677"/>
</g>
<!-- Node16&#45;&gt;Node3 -->
<g id="edge29" class="edge"><title>Node16&#45;&gt;Node3</title>
<path fill="none" stroke="midnightblue" d="M257.795,-136.206C297.187,-129.308 357.836,-118.688 397.221,-111.791"/>
<polygon fill="midnightblue" stroke="midnightblue" points="397.994,-115.209 407.24,-110.036 396.786,-108.314 397.994,-115.209"/>
</g>
<!-- Node17 -->
<g id="node17" class="node"><title>Node17</title>
<g id="a_node17"><a xlink:href="ff_8c.html#a5e18753404354b210096f9af99e31bc1" target="_top" xlink:title="sync_window">
<polygon fill="white" stroke="black" points="294,-152.5 294,-171.5 370,-171.5 370,-152.5 294,-152.5"/>
<text text-anchor="middle" x="332" y="-159.5" font-family="Helvetica,sans-Serif" font-size="10.00">sync_window</text>
</a>
</g>
</g>
<!-- Node16&#45;&gt;Node17 -->
<g id="edge30" class="edge"><title>Node16&#45;&gt;Node17</title>
<path fill="none" stroke="midnightblue" d="M257.544,-149.539C266.003,-150.974 275.053,-152.509 283.808,-153.994"/>
<polygon fill="midnightblue" stroke="midnightblue" points="283.453,-157.484 293.898,-155.706 284.624,-150.583 283.453,-157.484"/>
</g>
<!-- Node17&#45;&gt;Node13 -->
<g id="edge31" class="edge"><title>Node17&#45;&gt;Node13</title>
<path fill="none" stroke="midnightblue" d="M370.185,-167.054C378.624,-168.201 387.621,-169.424 396.165,-170.585"/>
<polygon fill="midnightblue" stroke="midnightblue" points="395.914,-174.084 406.295,-171.962 396.857,-167.147 395.914,-174.084"/>
</g>
<!-- Node20 -->
<g id="node20" class="node"><title>Node20</title>
<g id="a_node20"><a xlink:href="diskio_8h.html#a8348ac5ee6d709420c02e45c111f4793" target="_top" xlink:title="disk_status">
<polygon fill="white" stroke="black" points="184.5,-0.5 184.5,-19.5 251.5,-19.5 251.5,-0.5 184.5,-0.5"/>
<text text-anchor="middle" x="218" y="-7.5" font-family="Helvetica,sans-Serif" font-size="10.00">disk_status</text>
</a>
</g>
</g>
<!-- Node19&#45;&gt;Node20 -->
<g id="edge35" class="edge"><title>Node19&#45;&gt;Node20</title>
<path fill="none" stroke="midnightblue" d="M136.089,-10C147.364,-10 161.14,-10 174.107,-10"/>
<polygon fill="midnightblue" stroke="midnightblue" points="174.27,-13.5001 184.27,-10 174.27,-6.5001 174.27,-13.5001"/>
</g>
</g>
</svg>
