<?xml version="1.0" encoding="UTF-8" standalone="no"?>
<!DOCTYPE svg PUBLIC "-//W3C//DTD SVG 1.1//EN"
 "http://www.w3.org/Graphics/SVG/1.1/DTD/svg11.dtd">
<!-- Generated by graphviz version 2.36.0 (20140111.2315)
 -->
<!-- Title: f_write Pages: 1 -->
<svg width="1022pt" height="375pt"
 viewBox="0.00 0.00 1022.00 374.74" xmlns="http://www.w3.org/2000/svg" xmlns:xlink="http://www.w3.org/1999/xlink">
<g id="graph0" class="graph" transform="scale(1 1) rotate(0) translate(4 370.742)">
<title>f_write</title>
<polygon fill="white" stroke="none" points="-4,4 -4,-370.742 1018,-370.742 1018,4 -4,4"/>
<!-- Node1 -->
<g id="node1" class="node"><title>Node1</title>
<polygon fill="#bfbfbf" stroke="black" points="0,-133.5 0,-152.5 46,-152.5 46,-133.5 0,-133.5"/>
<text text-anchor="middle" x="23" y="-140.5" font-family="Helvetica,sans-Serif" font-size="10.00">f_write</text>
</g>
<!-- Node2 -->
<g id="node2" class="node"><title>Node2</title>
<g id="a_node2"><a xlink:href="ff_8c.html#a7519abb60fe91f6aa1d17f64fbae123a" target="_top" xlink:title="clust2sect">
<polygon fill="white" stroke="black" points="87,-304.5 87,-323.5 149,-323.5 149,-304.5 87,-304.5"/>
<text text-anchor="middle" x="118" y="-311.5" font-family="Helvetica,sans-Serif" font-size="10.00">clust2sect</text>
</a>
</g>
</g>
<!-- Node1&#45;&gt;Node2 -->
<g id="edge1" class="edge"><title>Node1&#45;&gt;Node2</title>
<path fill="none" stroke="midnightblue" d="M25.7428,-152.574C30.6864,-177.548 46.7813,-245.798 82,-290 84.3903,-293 87.2559,-295.772 90.3047,-298.286"/>
<polygon fill="midnightblue" stroke="midnightblue" points="88.454,-301.267 98.602,-304.312 92.5675,-295.603 88.454,-301.267"/>
</g>
<!-- Node3 -->
<g id="node3" class="node"><title>Node3</title>
<g id="a_node3"><a xlink:href="ff_8c.html#acbd0a20a17c6f9b6d536490d1cc3c5ac" target="_top" xlink:title="create_chain">
<polygon fill="white" stroke="black" points="82,-152.5 82,-171.5 154,-171.5 154,-152.5 82,-152.5"/>
<text text-anchor="middle" x="118" y="-159.5" font-family="Helvetica,sans-Serif" font-size="10.00">create_chain</text>
</a>
</g>
</g>
<!-- Node1&#45;&gt;Node3 -->
<g id="edge2" class="edge"><title>Node1&#45;&gt;Node3</title>
<path fill="none" stroke="midnightblue" d="M46.0397,-147.503C53.7669,-149.081 62.7539,-150.917 71.6827,-152.742"/>
<polygon fill="midnightblue" stroke="midnightblue" points="71.1705,-156.209 81.6687,-154.782 72.5717,-149.351 71.1705,-156.209"/>
</g>
<!-- Node5 -->
<g id="node5" class="node"><title>Node5</title>
<g id="a_node5"><a xlink:href="ff_8c.html#af2e8986556ee6644b4bf31fa4158d735" target="_top" xlink:title="move_window">
<polygon fill="white" stroke="black" points="294.5,-152.5 294.5,-171.5 373.5,-171.5 373.5,-152.5 294.5,-152.5"/>
<text text-anchor="middle" x="334" y="-159.5" font-family="Helvetica,sans-Serif" font-size="10.00">move_window</text>
</a>
</g>
</g>
<!-- Node1&#45;&gt;Node5 -->
<g id="edge36" class="edge"><title>Node1&#45;&gt;Node5</title>
<path fill="none" stroke="midnightblue" d="M46.0499,-141.19C87.6747,-138.174 180.599,-133.348 258,-143 269.43,-144.425 281.617,-147.027 292.772,-149.858"/>
<polygon fill="midnightblue" stroke="midnightblue" points="292.112,-153.304 302.676,-152.495 293.913,-146.54 292.112,-153.304"/>
</g>
<!-- Node6 -->
<g id="node6" class="node"><title>Node6</title>
<g id="a_node6"><a xlink:href="diskio_8h.html#ac0c802f8a12fa2047b4bec7109b9293f" target="_top" xlink:title="disk_read">
<polygon fill="white" stroke="black" points="523.5,-124.5 523.5,-143.5 582.5,-143.5 582.5,-124.5 523.5,-124.5"/>
<text text-anchor="middle" x="553" y="-131.5" font-family="Helvetica,sans-Serif" font-size="10.00">disk_read</text>
</a>
</g>
</g>
<!-- Node1&#45;&gt;Node6 -->
<g id="edge33" class="edge"><title>Node1&#45;&gt;Node6</title>
<path fill="none" stroke="midnightblue" d="M43.5219,-133.459C78.5773,-117.233 154.898,-86 223,-86 223,-86 223,-86 335,-86 400.19,-86 473.851,-106.908 516.407,-121.126"/>
<polygon fill="midnightblue" stroke="midnightblue" points="515.427,-124.489 526.022,-124.402 517.685,-117.863 515.427,-124.489"/>
</g>
<!-- Node16 -->
<g id="node16" class="node"><title>Node16</title>
<g id="a_node16"><a xlink:href="ff_8c.html#a5e18753404354b210096f9af99e31bc1" target="_top" xlink:title="sync_window">
<polygon fill="white" stroke="black" points="410,-228.5 410,-247.5 486,-247.5 486,-228.5 410,-228.5"/>
<text text-anchor="middle" x="448" y="-235.5" font-family="Helvetica,sans-Serif" font-size="10.00">sync_window</text>
</a>
</g>
</g>
<!-- Node1&#45;&gt;Node16 -->
<g id="edge37" class="edge"><title>Node1&#45;&gt;Node16</title>
<path fill="none" stroke="midnightblue" d="M36.818,-152.704C48.2255,-161.014 65.5973,-172.89 82,-181 127.614,-203.552 140.192,-208.589 190,-219 262.108,-234.073 347.777,-237.616 399.732,-238.226"/>
<polygon fill="midnightblue" stroke="midnightblue" points="399.945,-241.728 409.974,-238.313 400.004,-234.728 399.945,-241.728"/>
</g>
<!-- Node17 -->
<g id="node17" class="node"><title>Node17</title>
<g id="a_node17"><a xlink:href="diskio_8h.html#ac4785625f4bb82e33562079813659880" target="_top" xlink:title="disk_write">
<polygon fill="white" stroke="black" points="522.5,-233.5 522.5,-252.5 583.5,-252.5 583.5,-233.5 522.5,-233.5"/>
<text text-anchor="middle" x="553" y="-240.5" font-family="Helvetica,sans-Serif" font-size="10.00">disk_write</text>
</a>
</g>
</g>
<!-- Node1&#45;&gt;Node17 -->
<g id="edge34" class="edge"><title>Node1&#45;&gt;Node17</title>
<path fill="none" stroke="midnightblue" d="M30.5064,-152.622C40.3149,-166.547 60.0871,-192.455 82,-209 137.372,-250.807 153.618,-276 223,-276 223,-276 223,-276 335,-276 397.619,-276 469.26,-262.403 512.538,-252.665"/>
<polygon fill="midnightblue" stroke="midnightblue" points="513.417,-256.054 522.381,-250.406 511.852,-249.231 513.417,-256.054"/>
</g>
<!-- Node20 -->
<g id="node20" class="node"><title>Node20</title>
<g id="a_node20"><a xlink:href="ff_8c.html#a8941d573d16af92c8570950d53164f30" target="_top" xlink:title="mem_cpy">
<polygon fill="white" stroke="black" points="88.5,-38.5 88.5,-57.5 147.5,-57.5 147.5,-38.5 88.5,-38.5"/>
<text text-anchor="middle" x="118" y="-45.5" font-family="Helvetica,sans-Serif" font-size="10.00">mem_cpy</text>
</a>
</g>
</g>
<!-- Node1&#45;&gt;Node20 -->
<g id="edge35" class="edge"><title>Node1&#45;&gt;Node20</title>
<path fill="none" stroke="midnightblue" d="M30.724,-133.07C40.8035,-118.615 60.91,-91.3911 82,-72 85.2339,-69.0267 88.86,-66.1364 92.5202,-63.4519"/>
<polygon fill="midnightblue" stroke="midnightblue" points="94.7203,-66.1858 100.954,-57.6189 90.7386,-60.4286 94.7203,-66.1858"/>
</g>
<!-- Node21 -->
<g id="node21" class="node"><title>Node21</title>
<g id="a_node21"><a xlink:href="ff_8c.html#aa7193f5b86c3996b5312043a0c26da5f" target="_top" xlink:title="validate">
<polygon fill="white" stroke="black" points="93,-0.5 93,-19.5 143,-19.5 143,-0.5 93,-0.5"/>
<text text-anchor="middle" x="118" y="-7.5" font-family="Helvetica,sans-Serif" font-size="10.00">validate</text>
</a>
</g>
</g>
<!-- Node1&#45;&gt;Node21 -->
<g id="edge38" class="edge"><title>Node1&#45;&gt;Node21</title>
<path fill="none" stroke="midnightblue" d="M26.7609,-133.271C33.2251,-111.985 51.173,-60.6613 82,-29 83.2269,-27.7399 84.5556,-26.5426 85.9536,-25.4081"/>
<polygon fill="midnightblue" stroke="midnightblue" points="88.1959,-28.1158 94.4947,-19.5966 84.2581,-22.3284 88.1959,-28.1158"/>
</g>
<!-- Node4 -->
<g id="node4" class="node"><title>Node4</title>
<g id="a_node4"><a xlink:href="ff_8c.html#a65611adf1626e5e08da77cd33a98dd8b" target="_top" xlink:title="get_fat">
<polygon fill="white" stroke="black" points="200.5,-190.5 200.5,-209.5 247.5,-209.5 247.5,-190.5 200.5,-190.5"/>
<text text-anchor="middle" x="224" y="-197.5" font-family="Helvetica,sans-Serif" font-size="10.00">get_fat</text>
</a>
</g>
</g>
<!-- Node3&#45;&gt;Node4 -->
<g id="edge3" class="edge"><title>Node3&#45;&gt;Node4</title>
<path fill="none" stroke="midnightblue" d="M145.244,-171.589C159.031,-176.627 176.05,-182.845 190.648,-188.179"/>
<polygon fill="midnightblue" stroke="midnightblue" points="189.703,-191.56 200.297,-191.705 192.106,-184.985 189.703,-191.56"/>
</g>
<!-- Node19 -->
<g id="node19" class="node"><title>Node19</title>
<g id="a_node19"><a xlink:href="ff_8c.html#abd4b6b071a8d728a88727051c12bc6d7" target="_top" xlink:title="put_fat">
<polygon fill="white" stroke="black" points="200.5,-152.5 200.5,-171.5 247.5,-171.5 247.5,-152.5 200.5,-152.5"/>
<text text-anchor="middle" x="224" y="-159.5" font-family="Helvetica,sans-Serif" font-size="10.00">put_fat</text>
</a>
</g>
</g>
<!-- Node3&#45;&gt;Node19 -->
<g id="edge31" class="edge"><title>Node3&#45;&gt;Node19</title>
<path fill="none" stroke="midnightblue" d="M154.21,-162C165.85,-162 178.747,-162 190.2,-162"/>
<polygon fill="midnightblue" stroke="midnightblue" points="190.233,-165.5 200.233,-162 190.233,-158.5 190.233,-165.5"/>
</g>
<!-- Node4&#45;&gt;Node5 -->
<g id="edge4" class="edge"><title>Node4&#45;&gt;Node5</title>
<path fill="none" stroke="midnightblue" d="M247.64,-192.034C261.675,-187.096 280.035,-180.636 296.131,-174.973"/>
<polygon fill="midnightblue" stroke="midnightblue" points="297.529,-178.191 305.8,-171.57 295.206,-171.588 297.529,-178.191"/>
</g>
<!-- Node5&#45;&gt;Node6 -->
<g id="edge5" class="edge"><title>Node5&#45;&gt;Node6</title>
<path fill="none" stroke="midnightblue" d="M373.795,-156.994C413.187,-151.911 473.836,-144.086 513.221,-139.004"/>
<polygon fill="midnightblue" stroke="midnightblue" points="513.77,-142.462 523.24,-137.711 512.874,-135.52 513.77,-142.462"/>
</g>
<!-- Node5&#45;&gt;Node16 -->
<g id="edge22" class="edge"><title>Node5&#45;&gt;Node16</title>
<path fill="none" stroke="midnightblue" d="M349.185,-171.625C368.204,-184.531 402.173,-207.582 424.649,-222.833"/>
<polygon fill="midnightblue" stroke="midnightblue" points="422.69,-225.734 432.93,-228.453 426.621,-219.941 422.69,-225.734"/>
</g>
<!-- Node7 -->
<g id="node7" class="node"><title>Node7</title>
<g id="a_node7"><a xlink:href="sdmm_8c.html#ac0eadae94de728461ccade9e03fafd8c" target="_top" xlink:title="deselect">
<polygon fill="white" stroke="black" points="851.5,-160.5 851.5,-179.5 904.5,-179.5 904.5,-160.5 851.5,-160.5"/>
<text text-anchor="middle" x="878" y="-167.5" font-family="Helvetica,sans-Serif" font-size="10.00">deselect</text>
</a>
</g>
</g>
<!-- Node6&#45;&gt;Node7 -->
<g id="edge6" class="edge"><title>Node6&#45;&gt;Node7</title>
<path fill="none" stroke="midnightblue" d="M582.741,-135.65C629.052,-138.511 722.992,-145.147 802,-156 814.917,-157.774 828.99,-160.254 841.42,-162.635"/>
<polygon fill="midnightblue" stroke="midnightblue" points="840.926,-166.104 851.412,-164.593 842.272,-159.235 840.926,-166.104"/>
</g>
<!-- Node9 -->
<g id="node9" class="node"><title>Node9</title>
<g id="a_node9"><a xlink:href="sdmm_8c.html#a21ad8e9a107ea2000705a3edfebaaa2d" target="_top" xlink:title="disk_status">
<polygon fill="white" stroke="black" points="628.5,-160.5 628.5,-179.5 695.5,-179.5 695.5,-160.5 628.5,-160.5"/>
<text text-anchor="middle" x="662" y="-167.5" font-family="Helvetica,sans-Serif" font-size="10.00">disk_status</text>
</a>
</g>
</g>
<!-- Node6&#45;&gt;Node9 -->
<g id="edge8" class="edge"><title>Node6&#45;&gt;Node9</title>
<path fill="none" stroke="midnightblue" d="M582.393,-143.553C594.727,-147.703 609.364,-152.627 622.644,-157.095"/>
<polygon fill="midnightblue" stroke="midnightblue" points="621.88,-160.531 632.474,-160.403 624.112,-153.896 621.88,-160.531"/>
</g>
<!-- Node10 -->
<g id="node10" class="node"><title>Node10</title>
<g id="a_node10"><a xlink:href="sdmm_8c.html#a8c99afbc312912297b19752cf7e0960b" target="_top" xlink:title="rcvr_datablock">
<polygon fill="white" stroke="black" points="838,-122.5 838,-141.5 918,-141.5 918,-122.5 838,-122.5"/>
<text text-anchor="middle" x="878" y="-129.5" font-family="Helvetica,sans-Serif" font-size="10.00">rcvr_datablock</text>
</a>
</g>
</g>
<!-- Node6&#45;&gt;Node10 -->
<g id="edge9" class="edge"><title>Node6&#45;&gt;Node10</title>
<path fill="none" stroke="midnightblue" d="M582.643,-125.485C594.142,-122.481 607.591,-119.483 620,-118 700.318,-108.404 721.455,-110.547 802,-118 810.437,-118.781 819.341,-120.045 827.951,-121.503"/>
<polygon fill="midnightblue" stroke="midnightblue" points="827.417,-124.963 837.878,-123.287 828.654,-118.074 827.417,-124.963"/>
</g>
<!-- Node12 -->
<g id="node12" class="node"><title>Node12</title>
<g id="a_node12"><a xlink:href="sdmm_8c.html#a99684b493c8bfdb0288a2e24e52f6871" target="_top" xlink:title="send_cmd">
<polygon fill="white" stroke="black" points="631,-236.5 631,-255.5 693,-255.5 693,-236.5 631,-236.5"/>
<text text-anchor="middle" x="662" y="-243.5" font-family="Helvetica,sans-Serif" font-size="10.00">send_cmd</text>
</a>
</g>
</g>
<!-- Node6&#45;&gt;Node12 -->
<g id="edge12" class="edge"><title>Node6&#45;&gt;Node12</title>
<path fill="none" stroke="midnightblue" d="M563.123,-143.549C581.285,-162.56 622.172,-205.358 644.935,-229.184"/>
<polygon fill="midnightblue" stroke="midnightblue" points="642.462,-231.662 651.9,-236.475 647.523,-226.827 642.462,-231.662"/>
</g>
<!-- Node8 -->
<g id="node8" class="node"><title>Node8</title>
<g id="a_node8"><a xlink:href="sdmm_8c.html#ab628371b03508f9db7c6daf1203ed84d" target="_top" xlink:title="rcvr_mmc">
<polygon fill="white" stroke="black" points="954,-217.5 954,-236.5 1014,-236.5 1014,-217.5 954,-217.5"/>
<text text-anchor="middle" x="984" y="-224.5" font-family="Helvetica,sans-Serif" font-size="10.00">rcvr_mmc</text>
</a>
</g>
</g>
<!-- Node7&#45;&gt;Node8 -->
<g id="edge7" class="edge"><title>Node7&#45;&gt;Node8</title>
<path fill="none" stroke="midnightblue" d="M899.389,-179.573C905.428,-182.505 912.023,-185.803 918,-189 931.686,-196.321 946.659,-205.025 958.781,-212.255"/>
<polygon fill="midnightblue" stroke="midnightblue" points="957.053,-215.299 967.427,-217.448 960.657,-209.299 957.053,-215.299"/>
</g>
<!-- Node10&#45;&gt;Node8 -->
<g id="edge10" class="edge"><title>Node10&#45;&gt;Node8</title>
<path fill="none" stroke="midnightblue" d="M902.605,-141.571C907.917,-144.238 913.353,-147.406 918,-151 939.554,-167.669 959.109,-192.463 971.016,-209.155"/>
<polygon fill="midnightblue" stroke="midnightblue" points="968.228,-211.276 976.808,-217.492 973.977,-207.282 968.228,-211.276"/>
</g>
<!-- Node11 -->
<g id="node11" class="node"><title>Node11</title>
<g id="a_node11"><a xlink:href="sdmm_8c.html#a76a43e01b9676630e121e5a659acbb3f" target="_top" xlink:title="dly_us">
<polygon fill="white" stroke="black" points="961.5,-141.5 961.5,-160.5 1006.5,-160.5 1006.5,-141.5 961.5,-141.5"/>
<text text-anchor="middle" x="984" y="-148.5" font-family="Helvetica,sans-Serif" font-size="10.00">dly_us</text>
</a>
</g>
</g>
<!-- Node10&#45;&gt;Node11 -->
<g id="edge11" class="edge"><title>Node10&#45;&gt;Node11</title>
<path fill="none" stroke="midnightblue" d="M918.022,-139.129C929.002,-141.135 940.806,-143.292 951.302,-145.209"/>
<polygon fill="midnightblue" stroke="midnightblue" points="950.816,-148.678 961.282,-147.032 952.074,-141.792 950.816,-148.678"/>
</g>
<!-- Node12&#45;&gt;Node7 -->
<g id="edge13" class="edge"><title>Node12&#45;&gt;Node7</title>
<path fill="none" stroke="midnightblue" d="M690.103,-236.375C728.628,-222.693 799.258,-197.609 841.792,-182.504"/>
<polygon fill="midnightblue" stroke="midnightblue" points="843.197,-185.719 851.449,-179.074 840.854,-179.123 843.197,-185.719"/>
</g>
<!-- Node12&#45;&gt;Node8 -->
<g id="edge21" class="edge"><title>Node12&#45;&gt;Node8</title>
<path fill="none" stroke="midnightblue" d="M693.04,-255.203C707.146,-259.061 724.281,-263.089 740,-265 818.811,-274.58 840.779,-268.435 918,-250 928.764,-247.43 940.232,-243.717 950.49,-240.021"/>
<polygon fill="midnightblue" stroke="midnightblue" points="951.742,-243.29 959.892,-236.521 949.299,-236.729 951.742,-243.29"/>
</g>
<!-- Node13 -->
<g id="node13" class="node"><title>Node13</title>
<g id="a_node13"><a xlink:href="sdmm_8c.html#ab45cb1d47cda5822ce492ad3c11867ae" target="_top" xlink:title="select">
<polygon fill="white" stroke="black" points="749.5,-236.5 749.5,-255.5 792.5,-255.5 792.5,-236.5 749.5,-236.5"/>
<text text-anchor="middle" x="771" y="-243.5" font-family="Helvetica,sans-Serif" font-size="10.00">select</text>
</a>
</g>
</g>
<!-- Node12&#45;&gt;Node13 -->
<g id="edge14" class="edge"><title>Node12&#45;&gt;Node13</title>
<path fill="none" stroke="midnightblue" d="M693.09,-246C707.375,-246 724.433,-246 738.85,-246"/>
<polygon fill="midnightblue" stroke="midnightblue" points="739.271,-249.5 749.271,-246 739.271,-242.5 739.271,-249.5"/>
</g>
<!-- Node15 -->
<g id="node15" class="node"><title>Node15</title>
<g id="a_node15"><a xlink:href="sdmm_8c.html#ace0af708caf7775204ca74fbd46818bb" target="_top" xlink:title="xmit_mmc">
<polygon fill="white" stroke="black" points="740,-312.5 740,-331.5 802,-331.5 802,-312.5 740,-312.5"/>
<text text-anchor="middle" x="771" y="-319.5" font-family="Helvetica,sans-Serif" font-size="10.00">xmit_mmc</text>
</a>
</g>
</g>
<!-- Node12&#45;&gt;Node15 -->
<g id="edge20" class="edge"><title>Node12&#45;&gt;Node15</title>
<path fill="none" stroke="midnightblue" d="M676.552,-255.625C694.641,-268.474 726.888,-291.378 748.361,-306.63"/>
<polygon fill="midnightblue" stroke="midnightblue" points="746.379,-309.515 756.558,-312.453 750.432,-303.808 746.379,-309.515"/>
</g>
<!-- Node13&#45;&gt;Node7 -->
<g id="edge19" class="edge"><title>Node13&#45;&gt;Node7</title>
<path fill="none" stroke="midnightblue" d="M784.413,-236.375C789.875,-232.061 796.327,-226.86 802,-222 818.484,-207.879 820.057,-201.213 838,-189 840.393,-187.371 842.947,-185.803 845.559,-184.314"/>
<polygon fill="midnightblue" stroke="midnightblue" points="847.308,-187.349 854.517,-179.584 844.039,-181.159 847.308,-187.349"/>
</g>
<!-- Node13&#45;&gt;Node8 -->
<g id="edge15" class="edge"><title>Node13&#45;&gt;Node8</title>
<path fill="none" stroke="midnightblue" d="M792.616,-244.144C827.56,-240.997 898.978,-234.566 943.721,-230.537"/>
<polygon fill="midnightblue" stroke="midnightblue" points="944.289,-234 953.935,-229.617 943.661,-227.028 944.289,-234"/>
</g>
<!-- Node14 -->
<g id="node14" class="node"><title>Node14</title>
<g id="a_node14"><a xlink:href="sdmm_8c.html#a624a19e248af05530dae5c0cc1dddc11" target="_top" xlink:title="wait_ready">
<polygon fill="white" stroke="black" points="846,-198.5 846,-217.5 910,-217.5 910,-198.5 846,-198.5"/>
<text text-anchor="middle" x="878" y="-205.5" font-family="Helvetica,sans-Serif" font-size="10.00">wait_ready</text>
</a>
</g>
</g>
<!-- Node13&#45;&gt;Node14 -->
<g id="edge16" class="edge"><title>Node13&#45;&gt;Node14</title>
<path fill="none" stroke="midnightblue" d="M792.745,-238.492C806.504,-233.513 824.924,-226.846 841.033,-221.017"/>
<polygon fill="midnightblue" stroke="midnightblue" points="842.489,-224.212 850.701,-217.518 840.107,-217.63 842.489,-224.212"/>
</g>
<!-- Node14&#45;&gt;Node8 -->
<g id="edge17" class="edge"><title>Node14&#45;&gt;Node8</title>
<path fill="none" stroke="midnightblue" d="M910.203,-213.701C920.831,-215.642 932.846,-217.837 944.007,-219.876"/>
<polygon fill="midnightblue" stroke="midnightblue" points="943.486,-223.339 953.952,-221.693 944.744,-216.453 943.486,-223.339"/>
</g>
<!-- Node14&#45;&gt;Node11 -->
<g id="edge18" class="edge"><title>Node14&#45;&gt;Node11</title>
<path fill="none" stroke="midnightblue" d="M899.389,-198.427C905.428,-195.495 912.023,-192.197 918,-189 931.686,-181.679 946.659,-172.975 958.781,-165.745"/>
<polygon fill="midnightblue" stroke="midnightblue" points="960.657,-168.701 967.427,-160.552 957.053,-162.701 960.657,-168.701"/>
</g>
<!-- Node16&#45;&gt;Node17 -->
<g id="edge23" class="edge"><title>Node16&#45;&gt;Node17</title>
<path fill="none" stroke="midnightblue" d="M486.185,-239.805C494.624,-240.215 503.621,-240.651 512.165,-241.066"/>
<polygon fill="midnightblue" stroke="midnightblue" points="512.137,-244.569 522.295,-241.558 512.476,-237.577 512.137,-244.569"/>
</g>
<!-- Node17&#45;&gt;Node7 -->
<g id="edge24" class="edge"><title>Node17&#45;&gt;Node7</title>
<path fill="none" stroke="midnightblue" d="M583.713,-233.78C620.226,-222.699 684.206,-204.092 740,-192 774.132,-184.603 813.543,-178.528 841.308,-174.651"/>
<polygon fill="midnightblue" stroke="midnightblue" points="841.912,-178.101 851.343,-173.274 840.96,-171.165 841.912,-178.101"/>
</g>
<!-- Node17&#45;&gt;Node9 -->
<g id="edge25" class="edge"><title>Node17&#45;&gt;Node9</title>
<path fill="none" stroke="midnightblue" d="M566.36,-233.189C579.407,-222.985 600.714,-206.749 620,-194 624.73,-190.873 629.877,-187.695 634.875,-184.718"/>
<polygon fill="midnightblue" stroke="midnightblue" points="636.717,-187.696 643.589,-179.633 633.188,-181.65 636.717,-187.696"/>
</g>
<!-- Node17&#45;&gt;Node12 -->
<g id="edge26" class="edge"><title>Node17&#45;&gt;Node12</title>
<path fill="none" stroke="midnightblue" d="M583.521,-243.828C595.023,-244.15 608.389,-244.525 620.749,-244.871"/>
<polygon fill="midnightblue" stroke="midnightblue" points="620.736,-248.372 630.831,-245.154 620.933,-241.375 620.736,-248.372"/>
</g>
<!-- Node18 -->
<g id="node18" class="node"><title>Node18</title>
<g id="a_node18"><a xlink:href="sdmm_8c.html#aefbd30f6bdff37184f58faf98ad1c6e0" target="_top" xlink:title="xmit_datablock">
<polygon fill="white" stroke="black" points="620.5,-331.5 620.5,-350.5 703.5,-350.5 703.5,-331.5 620.5,-331.5"/>
<text text-anchor="middle" x="662" y="-338.5" font-family="Helvetica,sans-Serif" font-size="10.00">xmit_datablock</text>
</a>
</g>
</g>
<!-- Node17&#45;&gt;Node18 -->
<g id="edge27" class="edge"><title>Node17&#45;&gt;Node18</title>
<path fill="none" stroke="midnightblue" d="M564.651,-252.755C582.917,-269.485 620.416,-303.83 642.866,-324.391"/>
<polygon fill="midnightblue" stroke="midnightblue" points="640.654,-327.111 650.392,-331.285 645.382,-321.949 640.654,-327.111"/>
</g>
<!-- Node18&#45;&gt;Node8 -->
<g id="edge30" class="edge"><title>Node18&#45;&gt;Node8</title>
<path fill="none" stroke="midnightblue" d="M686.195,-350.651C714.259,-360.904 762.64,-373.984 802,-361 872.895,-337.613 938.725,-274.569 967.607,-244.035"/>
<polygon fill="midnightblue" stroke="midnightblue" points="970.199,-246.387 974.442,-236.679 965.071,-241.622 970.199,-246.387"/>
</g>
<!-- Node18&#45;&gt;Node14 -->
<g id="edge28" class="edge"><title>Node18&#45;&gt;Node14</title>
<path fill="none" stroke="midnightblue" d="M699.278,-350.505C728.958,-356.161 770.952,-359.136 802,-341 844.199,-316.35 864.515,-258.227 872.581,-227.626"/>
<polygon fill="midnightblue" stroke="midnightblue" points="876.03,-228.257 875.016,-217.711 869.232,-226.587 876.03,-228.257"/>
</g>
<!-- Node18&#45;&gt;Node15 -->
<g id="edge29" class="edge"><title>Node18&#45;&gt;Node15</title>
<path fill="none" stroke="midnightblue" d="M703.757,-333.763C712.239,-332.257 721.174,-330.67 729.641,-329.167"/>
<polygon fill="midnightblue" stroke="midnightblue" points="730.441,-332.579 739.675,-327.385 729.217,-325.687 730.441,-332.579"/>
</g>
<!-- Node19&#45;&gt;Node5 -->
<g id="edge32" class="edge"><title>Node19&#45;&gt;Node5</title>
<path fill="none" stroke="midnightblue" d="M247.64,-162C258.28,-162 271.406,-162 284.146,-162"/>
<polygon fill="midnightblue" stroke="midnightblue" points="284.225,-165.5 294.225,-162 284.225,-158.5 284.225,-165.5"/>
</g>
<!-- Node22 -->
<g id="node22" class="node"><title>Node22</title>
<g id="a_node22"><a xlink:href="diskio_8h.html#a8348ac5ee6d709420c02e45c111f4793" target="_top" xlink:title="disk_status">
<polygon fill="white" stroke="black" points="190.5,-0.5 190.5,-19.5 257.5,-19.5 257.5,-0.5 190.5,-0.5"/>
<text text-anchor="middle" x="224" y="-7.5" font-family="Helvetica,sans-Serif" font-size="10.00">disk_status</text>
</a>
</g>
</g>
<!-- Node21&#45;&gt;Node22 -->
<g id="edge39" class="edge"><title>Node21&#45;&gt;Node22</title>
<path fill="none" stroke="midnightblue" d="M143.121,-10C154.091,-10 167.411,-10 180.004,-10"/>
<polygon fill="midnightblue" stroke="midnightblue" points="180.343,-13.5001 190.343,-10 180.343,-6.5001 180.343,-13.5001"/>
</g>
</g>
</svg>
