<?xml version="1.0" encoding="UTF-8" standalone="no"?>
<!DOCTYPE svg PUBLIC "-//W3C//DTD SVG 1.1//EN"
 "http://www.w3.org/Graphics/SVG/1.1/DTD/svg11.dtd">
<!-- Generated by graphviz version 2.36.0 (20140111.2315)
 -->
<!-- Title: f_setlabel Pages: 1 -->
<svg width="1222pt" height="582pt"
 viewBox="0.00 0.00 1222.00 581.77" xmlns="http://www.w3.org/2000/svg" xmlns:xlink="http://www.w3.org/1999/xlink">
<g id="graph0" class="graph" transform="scale(1 1) rotate(0) translate(4 577.771)">
<title>f_setlabel</title>
<polygon fill="white" stroke="none" points="-4,4 -4,-577.771 1218,-577.771 1218,4 -4,4"/>
<!-- Node1 -->
<g id="node1" class="node"><title>Node1</title>
<polygon fill="#bfbfbf" stroke="black" points="0.5,-153.485 0.5,-172.485 59.5,-172.485 59.5,-153.485 0.5,-153.485"/>
<text text-anchor="middle" x="30" y="-160.485" font-family="Helvetica,sans-Serif" font-size="10.00">f_setlabel</text>
</g>
<!-- Node2 -->
<g id="node2" class="node"><title>Node2</title>
<g id="a_node2"><a xlink:href="ff_8c.html#a1a60c4200d040e4f47e87dc927f23d14" target="_top" xlink:title="chk_chr">
<polygon fill="white" stroke="black" points="103.5,-409.485 103.5,-428.485 154.5,-428.485 154.5,-409.485 103.5,-409.485"/>
<text text-anchor="middle" x="129" y="-416.485" font-family="Helvetica,sans-Serif" font-size="10.00">chk_chr</text>
</a>
</g>
</g>
<!-- Node1&#45;&gt;Node2 -->
<g id="edge1" class="edge"><title>Node1&#45;&gt;Node2</title>
<path fill="none" stroke="midnightblue" d="M31.5271,-172.746C33.7778,-206.522 44.9672,-320.428 96,-394.985 97.922,-397.793 100.281,-400.405 102.838,-402.794"/>
<polygon fill="midnightblue" stroke="midnightblue" points="100.887,-405.716 110.871,-409.261 105.277,-400.264 100.887,-405.716"/>
</g>
<!-- Node3 -->
<g id="node3" class="node"><title>Node3</title>
<g id="a_node3"><a xlink:href="ff_8c.html#acb7ec4033afc5b9041ee9c82385552db" target="_top" xlink:title="chk_mounted">
<polygon fill="white" stroke="black" points="480.5,-371.485 480.5,-390.485 555.5,-390.485 555.5,-371.485 480.5,-371.485"/>
<text text-anchor="middle" x="518" y="-378.485" font-family="Helvetica,sans-Serif" font-size="10.00">chk_mounted</text>
</a>
</g>
</g>
<!-- Node1&#45;&gt;Node3 -->
<g id="edge2" class="edge"><title>Node1&#45;&gt;Node3</title>
<path fill="none" stroke="midnightblue" d="M34.0477,-172.633C48.0356,-214.823 110.281,-380.985 223,-380.985 223,-380.985 223,-380.985 323,-380.985 373.241,-380.985 430.801,-380.985 470.092,-380.985"/>
<polygon fill="midnightblue" stroke="midnightblue" points="470.17,-384.485 480.17,-380.985 470.17,-377.485 470.17,-384.485"/>
</g>
<!-- Node18 -->
<g id="node18" class="node"><title>Node18</title>
<g id="a_node18"><a xlink:href="ff_8c.html#a42a5806b264207143a41d58a4c9ff9f1" target="_top" xlink:title="dir_alloc">
<polygon fill="white" stroke="black" points="102.5,-77.4849 102.5,-96.4849 155.5,-96.4849 155.5,-77.4849 102.5,-77.4849"/>
<text text-anchor="middle" x="129" y="-84.4849" font-family="Helvetica,sans-Serif" font-size="10.00">dir_alloc</text>
</a>
</g>
</g>
<!-- Node1&#45;&gt;Node18 -->
<g id="edge34" class="edge"><title>Node1&#45;&gt;Node18</title>
<path fill="none" stroke="midnightblue" d="M42.8913,-153.288C55.8575,-142.758 77.2641,-125.5 96,-110.985 99.4586,-108.306 103.153,-105.491 106.757,-102.771"/>
<polygon fill="midnightblue" stroke="midnightblue" points="108.951,-105.501 114.852,-96.7018 104.752,-99.9006 108.951,-105.501"/>
</g>
<!-- Node28 -->
<g id="node28" class="node"><title>Node28</title>
<g id="a_node28"><a xlink:href="ff_8c.html#a02eb5189e43056a9ddc8a59cbe89be93" target="_top" xlink:title="mem_set">
<polygon fill="white" stroke="black" points="293.5,-219.485 293.5,-238.485 350.5,-238.485 350.5,-219.485 293.5,-219.485"/>
<text text-anchor="middle" x="322" y="-226.485" font-family="Helvetica,sans-Serif" font-size="10.00">mem_set</text>
</a>
</g>
</g>
<!-- Node1&#45;&gt;Node28 -->
<g id="edge65" class="edge"><title>Node1&#45;&gt;Node28</title>
<path fill="none" stroke="midnightblue" d="M59.6659,-171.891C70.9376,-175.254 84.0243,-178.989 96,-181.985 161.545,-198.383 238.809,-213.649 283.62,-222.108"/>
<polygon fill="midnightblue" stroke="midnightblue" points="283.006,-225.554 293.48,-223.958 284.297,-218.674 283.006,-225.554"/>
</g>
<!-- Node29 -->
<g id="node29" class="node"><title>Node29</title>
<g id="a_node29"><a xlink:href="ff_8c.html#ad173ae134b70df2fe9668a90247567ff" target="_top" xlink:title="dir_sdi">
<polygon fill="white" stroke="black" points="201.5,-48.4849 201.5,-67.4849 246.5,-67.4849 246.5,-48.4849 201.5,-48.4849"/>
<text text-anchor="middle" x="224" y="-55.4849" font-family="Helvetica,sans-Serif" font-size="10.00">dir_sdi</text>
</a>
</g>
</g>
<!-- Node1&#45;&gt;Node29 -->
<g id="edge62" class="edge"><title>Node1&#45;&gt;Node29</title>
<path fill="none" stroke="midnightblue" d="M58.3326,-153.442C85.5443,-143.408 128.039,-126.275 162,-105.985 177.267,-96.8637 193.004,-84.3908 204.669,-74.4458"/>
<polygon fill="midnightblue" stroke="midnightblue" points="207.134,-76.9406 212.379,-67.7351 202.538,-71.6606 207.134,-76.9406"/>
</g>
<!-- Node30 -->
<g id="node30" class="node"><title>Node30</title>
<g id="a_node30"><a xlink:href="ff_8c.html#ac61cefc73baae693adfdfd86e9bd4741" target="_top" xlink:title="dir_read">
<polygon fill="white" stroke="black" points="103.5,-153.485 103.5,-172.485 154.5,-172.485 154.5,-153.485 103.5,-153.485"/>
<text text-anchor="middle" x="129" y="-160.485" font-family="Helvetica,sans-Serif" font-size="10.00">dir_read</text>
</a>
</g>
</g>
<!-- Node1&#45;&gt;Node30 -->
<g id="edge59" class="edge"><title>Node1&#45;&gt;Node30</title>
<path fill="none" stroke="midnightblue" d="M59.5786,-162.985C70.0813,-162.985 82.0925,-162.985 93.0897,-162.985"/>
<polygon fill="midnightblue" stroke="midnightblue" points="93.2404,-166.485 103.24,-162.985 93.2404,-159.485 93.2404,-166.485"/>
</g>
<!-- Node31 -->
<g id="node31" class="node"><title>Node31</title>
<g id="a_node31"><a xlink:href="ff_8h.html#af58b536abfd30f77213f4ecaf2ac52f5" target="_top" xlink:title="User Provided RTC Function called by FatFs module Used to provide a Timestamp for SDCard files and fo...">
<polygon fill="white" stroke="black" points="96.5,-39.4849 96.5,-58.4849 161.5,-58.4849 161.5,-39.4849 96.5,-39.4849"/>
<text text-anchor="middle" x="129" y="-46.4849" font-family="Helvetica,sans-Serif" font-size="10.00">get_fattime</text>
</a>
</g>
</g>
<!-- Node1&#45;&gt;Node31 -->
<g id="edge63" class="edge"><title>Node1&#45;&gt;Node31</title>
<path fill="none" stroke="midnightblue" d="M35.7605,-153.35C45.2082,-134.966 67.8656,-94.3677 96,-67.9849 97.2961,-66.7695 98.683,-65.596 100.126,-64.4694"/>
<polygon fill="midnightblue" stroke="midnightblue" points="102.486,-67.0961 108.768,-58.5647 98.5369,-61.3164 102.486,-67.0961"/>
</g>
<!-- Node32 -->
<g id="node32" class="node"><title>Node32</title>
<g id="a_node32"><a xlink:href="ff_8c.html#a8941d573d16af92c8570950d53164f30" target="_top" xlink:title="mem_cpy">
<polygon fill="white" stroke="black" points="99.5,-1.48492 99.5,-20.4849 158.5,-20.4849 158.5,-1.48492 99.5,-1.48492"/>
<text text-anchor="middle" x="129" y="-8.48492" font-family="Helvetica,sans-Serif" font-size="10.00">mem_cpy</text>
</a>
</g>
</g>
<!-- Node1&#45;&gt;Node32 -->
<g id="edge64" class="edge"><title>Node1&#45;&gt;Node32</title>
<path fill="none" stroke="midnightblue" d="M33.6574,-153.176C40.4857,-129.498 60.6374,-68.3433 96,-29.9849 97.0401,-28.8567 98.1626,-27.7743 99.3434,-26.7389"/>
<polygon fill="midnightblue" stroke="midnightblue" points="101.724,-29.3338 107.723,-20.6009 97.5873,-23.6867 101.724,-29.3338"/>
</g>
<!-- Node33 -->
<g id="node33" class="node"><title>Node33</title>
<g id="a_node33"><a xlink:href="ff_8c.html#aec6b108298553219ebb2b960b528459d" target="_top" xlink:title="sync_fs">
<polygon fill="white" stroke="black" points="198.5,-257.485 198.5,-276.485 249.5,-276.485 249.5,-257.485 198.5,-257.485"/>
<text text-anchor="middle" x="224" y="-264.485" font-family="Helvetica,sans-Serif" font-size="10.00">sync_fs</text>
</a>
</g>
</g>
<!-- Node1&#45;&gt;Node33 -->
<g id="edge66" class="edge"><title>Node1&#45;&gt;Node33</title>
<path fill="none" stroke="midnightblue" d="M38.8456,-172.578C50.1779,-185.862 72.3738,-209.821 96,-223.985 124.906,-241.314 161.737,-252.796 188.284,-259.501"/>
<polygon fill="midnightblue" stroke="midnightblue" points="187.726,-262.967 198.269,-261.922 189.375,-256.164 187.726,-262.967"/>
</g>
<!-- Node4 -->
<g id="node4" class="node"><title>Node4</title>
<g id="a_node4"><a xlink:href="ff_8c.html#a55626c76a1556af5dc5345e2c0841a65" target="_top" xlink:title="check_fs">
<polygon fill="white" stroke="black" points="604,-257.485 604,-276.485 660,-276.485 660,-257.485 604,-257.485"/>
<text text-anchor="middle" x="632" y="-264.485" font-family="Helvetica,sans-Serif" font-size="10.00">check_fs</text>
</a>
</g>
</g>
<!-- Node3&#45;&gt;Node4 -->
<g id="edge3" class="edge"><title>Node3&#45;&gt;Node4</title>
<path fill="none" stroke="midnightblue" d="M525.621,-371.237C537.782,-353.785 565.094,-316.633 594,-290.985 597.51,-287.871 601.459,-284.872 605.437,-282.113"/>
<polygon fill="midnightblue" stroke="midnightblue" points="607.572,-284.899 614.03,-276.5 603.744,-279.038 607.572,-284.899"/>
</g>
<!-- Node5 -->
<g id="node5" class="node"><title>Node5</title>
<g id="a_node5"><a xlink:href="diskio_8h.html#ac0c802f8a12fa2047b4bec7109b9293f" target="_top" xlink:title="disk_read">
<polygon fill="white" stroke="black" points="714.5,-257.485 714.5,-276.485 773.5,-276.485 773.5,-257.485 714.5,-257.485"/>
<text text-anchor="middle" x="744" y="-264.485" font-family="Helvetica,sans-Serif" font-size="10.00">disk_read</text>
</a>
</g>
</g>
<!-- Node3&#45;&gt;Node5 -->
<g id="edge32" class="edge"><title>Node3&#45;&gt;Node5</title>
<path fill="none" stroke="midnightblue" d="M537.713,-371.461C577.077,-351.428 668.631,-304.833 715.007,-281.231"/>
<polygon fill="midnightblue" stroke="midnightblue" points="716.858,-284.216 724.183,-276.561 713.683,-277.978 716.858,-284.216"/>
</g>
<!-- Node15 -->
<g id="node15" class="node"><title>Node15</title>
<g id="a_node15"><a xlink:href="diskio_8h.html#a09cdaa6f36fa409bdf002727bff98eb1" target="_top" xlink:title="disk_initialize">
<polygon fill="white" stroke="black" points="706.5,-476.485 706.5,-495.485 781.5,-495.485 781.5,-476.485 706.5,-476.485"/>
<text text-anchor="middle" x="744" y="-483.485" font-family="Helvetica,sans-Serif" font-size="10.00">disk_initialize</text>
</a>
</g>
</g>
<!-- Node3&#45;&gt;Node15 -->
<g id="edge21" class="edge"><title>Node3&#45;&gt;Node15</title>
<path fill="none" stroke="midnightblue" d="M538.703,-390.534C553.809,-397.833 575.188,-408.115 594,-416.985 635.182,-436.403 682.974,-458.449 713.099,-472.285"/>
<polygon fill="midnightblue" stroke="midnightblue" points="711.68,-475.485 722.228,-476.476 714.6,-469.123 711.68,-475.485"/>
</g>
<!-- Node16 -->
<g id="node16" class="node"><title>Node16</title>
<g id="a_node16"><a xlink:href="diskio_8h.html#ab00fa450a811dbdabe3c655c1a36fab4" target="_top" xlink:title="disk_ioctl">
<polygon fill="white" stroke="black" points="715,-333.485 715,-352.485 773,-352.485 773,-333.485 715,-333.485"/>
<text text-anchor="middle" x="744" y="-340.485" font-family="Helvetica,sans-Serif" font-size="10.00">disk_ioctl</text>
</a>
</g>
</g>
<!-- Node3&#45;&gt;Node16 -->
<g id="edge26" class="edge"><title>Node3&#45;&gt;Node16</title>
<path fill="none" stroke="midnightblue" d="M543.224,-390.556C573.636,-401.114 627.028,-414.774 670,-399.985 692.877,-392.111 714.081,-373.801 727.675,-360.044"/>
<polygon fill="midnightblue" stroke="midnightblue" points="730.41,-362.246 734.755,-352.583 725.332,-357.428 730.41,-362.246"/>
</g>
<!-- Node17 -->
<g id="node17" class="node"><title>Node17</title>
<g id="a_node17"><a xlink:href="diskio_8h.html#a8348ac5ee6d709420c02e45c111f4793" target="_top" xlink:title="disk_status">
<polygon fill="white" stroke="black" points="598.5,-371.485 598.5,-390.485 665.5,-390.485 665.5,-371.485 598.5,-371.485"/>
<text text-anchor="middle" x="632" y="-378.485" font-family="Helvetica,sans-Serif" font-size="10.00">disk_status</text>
</a>
</g>
</g>
<!-- Node3&#45;&gt;Node17 -->
<g id="edge33" class="edge"><title>Node3&#45;&gt;Node17</title>
<path fill="none" stroke="midnightblue" d="M555.673,-380.985C566.116,-380.985 577.58,-380.985 588.346,-380.985"/>
<polygon fill="midnightblue" stroke="midnightblue" points="588.398,-384.485 598.398,-380.985 588.398,-377.485 588.398,-384.485"/>
</g>
<!-- Node4&#45;&gt;Node5 -->
<g id="edge4" class="edge"><title>Node4&#45;&gt;Node5</title>
<path fill="none" stroke="midnightblue" d="M660.191,-266.985C673.399,-266.985 689.512,-266.985 704.001,-266.985"/>
<polygon fill="midnightblue" stroke="midnightblue" points="704.2,-270.485 714.2,-266.985 704.2,-263.485 704.2,-270.485"/>
</g>
<!-- Node6 -->
<g id="node6" class="node"><title>Node6</title>
<g id="a_node6"><a xlink:href="sdmm_8c.html#ac0eadae94de728461ccade9e03fafd8c" target="_top" xlink:title="deselect">
<polygon fill="white" stroke="black" points="1059.5,-305.485 1059.5,-324.485 1112.5,-324.485 1112.5,-305.485 1059.5,-305.485"/>
<text text-anchor="middle" x="1086" y="-312.485" font-family="Helvetica,sans-Serif" font-size="10.00">deselect</text>
</a>
</g>
</g>
<!-- Node5&#45;&gt;Node6 -->
<g id="edge5" class="edge"><title>Node5&#45;&gt;Node6</title>
<path fill="none" stroke="midnightblue" d="M764.26,-257.361C778.66,-250.726 799.047,-242.495 818,-238.985 854.709,-232.186 865.387,-231.685 902,-238.985 960.901,-250.729 1024.58,-281.802 1059.12,-300.378"/>
<polygon fill="midnightblue" stroke="midnightblue" points="1057.61,-303.54 1068.06,-305.259 1060.96,-297.396 1057.61,-303.54"/>
</g>
<!-- Node8 -->
<g id="node8" class="node"><title>Node8</title>
<g id="a_node8"><a xlink:href="sdmm_8c.html#a21ad8e9a107ea2000705a3edfebaaa2d" target="_top" xlink:title="disk_status">
<polygon fill="white" stroke="black" points="826.5,-248.485 826.5,-267.485 893.5,-267.485 893.5,-248.485 826.5,-248.485"/>
<text text-anchor="middle" x="860" y="-255.485" font-family="Helvetica,sans-Serif" font-size="10.00">disk_status</text>
</a>
</g>
</g>
<!-- Node5&#45;&gt;Node8 -->
<g id="edge7" class="edge"><title>Node5&#45;&gt;Node8</title>
<path fill="none" stroke="midnightblue" d="M773.767,-264.714C786.612,-263.7 802.015,-262.484 816.173,-261.366"/>
<polygon fill="midnightblue" stroke="midnightblue" points="816.515,-264.85 826.208,-260.574 815.964,-257.872 816.515,-264.85"/>
</g>
<!-- Node9 -->
<g id="node9" class="node"><title>Node9</title>
<g id="a_node9"><a xlink:href="sdmm_8c.html#a8c99afbc312912297b19752cf7e0960b" target="_top" xlink:title="rcvr_datablock">
<polygon fill="white" stroke="black" points="938,-457.485 938,-476.485 1018,-476.485 1018,-457.485 938,-457.485"/>
<text text-anchor="middle" x="978" y="-464.485" font-family="Helvetica,sans-Serif" font-size="10.00">rcvr_datablock</text>
</a>
</g>
</g>
<!-- Node5&#45;&gt;Node9 -->
<g id="edge8" class="edge"><title>Node5&#45;&gt;Node9</title>
<path fill="none" stroke="midnightblue" d="M756.19,-276.631C793.171,-308.512 911.74,-410.726 958.135,-450.722"/>
<polygon fill="midnightblue" stroke="midnightblue" points="956.063,-453.557 965.922,-457.435 960.634,-448.255 956.063,-453.557"/>
</g>
<!-- Node11 -->
<g id="node11" class="node"><title>Node11</title>
<g id="a_node11"><a xlink:href="sdmm_8c.html#a99684b493c8bfdb0288a2e24e52f6871" target="_top" xlink:title="send_cmd">
<polygon fill="white" stroke="black" points="829,-286.485 829,-305.485 891,-305.485 891,-286.485 829,-286.485"/>
<text text-anchor="middle" x="860" y="-293.485" font-family="Helvetica,sans-Serif" font-size="10.00">send_cmd</text>
</a>
</g>
</g>
<!-- Node5&#45;&gt;Node11 -->
<g id="edge11" class="edge"><title>Node5&#45;&gt;Node11</title>
<path fill="none" stroke="midnightblue" d="M773.767,-274.303C787.38,-277.766 803.866,-281.96 818.698,-285.733"/>
<polygon fill="midnightblue" stroke="midnightblue" points="818.092,-289.19 828.647,-288.263 819.818,-282.406 818.092,-289.19"/>
</g>
<!-- Node7 -->
<g id="node7" class="node"><title>Node7</title>
<g id="a_node7"><a xlink:href="sdmm_8c.html#ab628371b03508f9db7c6daf1203ed84d" target="_top" xlink:title="rcvr_mmc">
<polygon fill="white" stroke="black" points="1154,-305.485 1154,-324.485 1214,-324.485 1214,-305.485 1154,-305.485"/>
<text text-anchor="middle" x="1184" y="-312.485" font-family="Helvetica,sans-Serif" font-size="10.00">rcvr_mmc</text>
</a>
</g>
</g>
<!-- Node6&#45;&gt;Node7 -->
<g id="edge6" class="edge"><title>Node6&#45;&gt;Node7</title>
<path fill="none" stroke="midnightblue" d="M1112.73,-314.985C1122.22,-314.985 1133.22,-314.985 1143.64,-314.985"/>
<polygon fill="midnightblue" stroke="midnightblue" points="1143.81,-318.485 1153.81,-314.985 1143.81,-311.485 1143.81,-318.485"/>
</g>
<!-- Node9&#45;&gt;Node7 -->
<g id="edge9" class="edge"><title>Node9&#45;&gt;Node7</title>
<path fill="none" stroke="midnightblue" d="M995.571,-457.329C1002.6,-453.095 1010.81,-447.964 1018,-442.985 1072.49,-405.249 1133.3,-356.134 1163.61,-331.136"/>
<polygon fill="midnightblue" stroke="midnightblue" points="1165.85,-333.826 1171.33,-324.754 1161.39,-328.433 1165.85,-333.826"/>
</g>
<!-- Node10 -->
<g id="node10" class="node"><title>Node10</title>
<g id="a_node10"><a xlink:href="sdmm_8c.html#a76a43e01b9676630e121e5a659acbb3f" target="_top" xlink:title="dly_us">
<polygon fill="white" stroke="black" points="1161.5,-457.485 1161.5,-476.485 1206.5,-476.485 1206.5,-457.485 1161.5,-457.485"/>
<text text-anchor="middle" x="1184" y="-464.485" font-family="Helvetica,sans-Serif" font-size="10.00">dly_us</text>
</a>
</g>
</g>
<!-- Node9&#45;&gt;Node10 -->
<g id="edge10" class="edge"><title>Node9&#45;&gt;Node10</title>
<path fill="none" stroke="midnightblue" d="M1018.33,-466.985C1056.95,-466.985 1115.12,-466.985 1150.99,-466.985"/>
<polygon fill="midnightblue" stroke="midnightblue" points="1151.36,-470.485 1161.36,-466.985 1151.36,-463.485 1151.36,-470.485"/>
</g>
<!-- Node11&#45;&gt;Node6 -->
<g id="edge12" class="edge"><title>Node11&#45;&gt;Node6</title>
<path fill="none" stroke="midnightblue" d="M891.21,-298.547C932.25,-302.028 1005.51,-308.242 1049.24,-311.952"/>
<polygon fill="midnightblue" stroke="midnightblue" points="1049.16,-315.457 1059.42,-312.815 1049.75,-308.482 1049.16,-315.457"/>
</g>
<!-- Node11&#45;&gt;Node7 -->
<g id="edge20" class="edge"><title>Node11&#45;&gt;Node7</title>
<path fill="none" stroke="midnightblue" d="M881.056,-286.47C925.297,-266.868 1034,-226.37 1118,-257.985 1138.94,-265.865 1157.53,-283.894 1169.41,-297.581"/>
<polygon fill="midnightblue" stroke="midnightblue" points="1166.82,-299.946 1175.9,-305.413 1172.21,-295.48 1166.82,-299.946"/>
</g>
<!-- Node12 -->
<g id="node12" class="node"><title>Node12</title>
<g id="a_node12"><a xlink:href="sdmm_8c.html#ab45cb1d47cda5822ce492ad3c11867ae" target="_top" xlink:title="select">
<polygon fill="white" stroke="black" points="956.5,-324.485 956.5,-343.485 999.5,-343.485 999.5,-324.485 956.5,-324.485"/>
<text text-anchor="middle" x="978" y="-331.485" font-family="Helvetica,sans-Serif" font-size="10.00">select</text>
</a>
</g>
</g>
<!-- Node11&#45;&gt;Node12 -->
<g id="edge13" class="edge"><title>Node11&#45;&gt;Node12</title>
<path fill="none" stroke="midnightblue" d="M890.272,-305.574C907.44,-311.198 929.101,-318.294 946.481,-323.987"/>
<polygon fill="midnightblue" stroke="midnightblue" points="945.56,-327.369 956.153,-327.156 947.739,-320.716 945.56,-327.369"/>
</g>
<!-- Node14 -->
<g id="node14" class="node"><title>Node14</title>
<g id="a_node14"><a xlink:href="sdmm_8c.html#ace0af708caf7775204ca74fbd46818bb" target="_top" xlink:title="xmit_mmc">
<polygon fill="white" stroke="black" points="947,-134.485 947,-153.485 1009,-153.485 1009,-134.485 947,-134.485"/>
<text text-anchor="middle" x="978" y="-141.485" font-family="Helvetica,sans-Serif" font-size="10.00">xmit_mmc</text>
</a>
</g>
</g>
<!-- Node11&#45;&gt;Node14 -->
<g id="edge19" class="edge"><title>Node11&#45;&gt;Node14</title>
<path fill="none" stroke="midnightblue" d="M888.648,-286.289C893.47,-283.767 898.162,-280.69 902,-276.985 927.455,-252.413 920.562,-236.769 938,-205.985 946.49,-190.996 956.916,-174.509 964.851,-162.307"/>
<polygon fill="midnightblue" stroke="midnightblue" points="967.803,-164.188 970.36,-153.906 961.949,-160.349 967.803,-164.188"/>
</g>
<!-- Node12&#45;&gt;Node6 -->
<g id="edge18" class="edge"><title>Node12&#45;&gt;Node6</title>
<path fill="none" stroke="midnightblue" d="M999.69,-330.276C1013.86,-327.737 1033.01,-324.303 1049.58,-321.334"/>
<polygon fill="midnightblue" stroke="midnightblue" points="1050.27,-324.766 1059.49,-319.557 1049.03,-317.876 1050.27,-324.766"/>
</g>
<!-- Node12&#45;&gt;Node7 -->
<g id="edge14" class="edge"><title>Node12&#45;&gt;Node7</title>
<path fill="none" stroke="midnightblue" d="M999.854,-335.816C1027.16,-337.797 1076.43,-339.935 1118,-333.985 1127.57,-332.615 1137.7,-330.163 1147.05,-327.467"/>
<polygon fill="midnightblue" stroke="midnightblue" points="1148.27,-330.754 1156.81,-324.486 1146.22,-324.059 1148.27,-330.754"/>
</g>
<!-- Node13 -->
<g id="node13" class="node"><title>Node13</title>
<g id="a_node13"><a xlink:href="sdmm_8c.html#a624a19e248af05530dae5c0cc1dddc11" target="_top" xlink:title="wait_ready">
<polygon fill="white" stroke="black" points="1054,-267.485 1054,-286.485 1118,-286.485 1118,-267.485 1054,-267.485"/>
<text text-anchor="middle" x="1086" y="-274.485" font-family="Helvetica,sans-Serif" font-size="10.00">wait_ready</text>
</a>
</g>
</g>
<!-- Node12&#45;&gt;Node13 -->
<g id="edge15" class="edge"><title>Node12&#45;&gt;Node13</title>
<path fill="none" stroke="midnightblue" d="M996.981,-324.316C1013.83,-315.253 1039.24,-301.594 1058.43,-291.274"/>
<polygon fill="midnightblue" stroke="midnightblue" points="1060.13,-294.33 1067.28,-286.511 1056.82,-288.165 1060.13,-294.33"/>
</g>
<!-- Node13&#45;&gt;Node7 -->
<g id="edge16" class="edge"><title>Node13&#45;&gt;Node7</title>
<path fill="none" stroke="midnightblue" d="M1111.22,-286.574C1122.71,-291.119 1136.62,-296.626 1149.13,-301.577"/>
<polygon fill="midnightblue" stroke="midnightblue" points="1148.2,-304.973 1158.78,-305.399 1150.77,-298.464 1148.2,-304.973"/>
</g>
<!-- Node13&#45;&gt;Node10 -->
<g id="edge17" class="edge"><title>Node13&#45;&gt;Node10</title>
<path fill="none" stroke="midnightblue" d="M1107.21,-286.687C1111.17,-289.284 1115.02,-292.389 1118,-295.985 1156.24,-342.119 1173.42,-413.134 1179.81,-447.296"/>
<polygon fill="midnightblue" stroke="midnightblue" points="1176.41,-448.135 1181.58,-457.379 1183.3,-446.925 1176.41,-448.135"/>
</g>
<!-- Node15&#45;&gt;Node6 -->
<g id="edge22" class="edge"><title>Node15&#45;&gt;Node6</title>
<path fill="none" stroke="midnightblue" d="M776.384,-476.416C828.775,-459.685 936.349,-422.074 1018,-371.985 1036.76,-360.478 1055.63,-343.866 1068.54,-331.542"/>
<polygon fill="midnightblue" stroke="midnightblue" points="1071.04,-333.993 1075.75,-324.506 1066.15,-328.982 1071.04,-333.993"/>
</g>
<!-- Node15&#45;&gt;Node7 -->
<g id="edge24" class="edge"><title>Node15&#45;&gt;Node7</title>
<path fill="none" stroke="midnightblue" d="M781.611,-493.451C835.234,-502.752 937.497,-514.224 1018,-485.985 1094.47,-459.159 1150.74,-372.811 1172.78,-334.087"/>
<polygon fill="midnightblue" stroke="midnightblue" points="1176.07,-335.366 1177.86,-324.923 1169.95,-331.973 1176.07,-335.366"/>
</g>
<!-- Node15&#45;&gt;Node10 -->
<g id="edge23" class="edge"><title>Node15&#45;&gt;Node10</title>
<path fill="none" stroke="midnightblue" d="M754.289,-495.602C767.193,-508.194 791.915,-529.644 818,-537.985 944.999,-578.593 995.971,-591.712 1118,-537.985 1142.26,-527.303 1161.41,-502.599 1172.47,-485.351"/>
<polygon fill="midnightblue" stroke="midnightblue" points="1175.55,-487.032 1177.76,-476.672 1169.57,-483.388 1175.55,-487.032"/>
</g>
<!-- Node15&#45;&gt;Node11 -->
<g id="edge25" class="edge"><title>Node15&#45;&gt;Node11</title>
<path fill="none" stroke="midnightblue" d="M750.81,-476.302C768.796,-446.325 823.784,-354.678 847.697,-314.824"/>
<polygon fill="midnightblue" stroke="midnightblue" points="850.921,-316.252 853.065,-305.877 844.919,-312.651 850.921,-316.252"/>
</g>
<!-- Node16&#45;&gt;Node6 -->
<g id="edge27" class="edge"><title>Node16&#45;&gt;Node6</title>
<path fill="none" stroke="midnightblue" d="M773.102,-349.3C823.262,-359.417 931.098,-375.913 1018,-352.985 1034.65,-348.593 1051.5,-339.007 1064.13,-330.562"/>
<polygon fill="midnightblue" stroke="midnightblue" points="1066.33,-333.298 1072.53,-324.706 1062.32,-327.557 1066.33,-333.298"/>
</g>
<!-- Node16&#45;&gt;Node8 -->
<g id="edge28" class="edge"><title>Node16&#45;&gt;Node8</title>
<path fill="none" stroke="midnightblue" d="M753.7,-333.475C766.681,-319.69 792.352,-293.955 818,-276.985 820.454,-275.362 823.068,-273.806 825.744,-272.333"/>
<polygon fill="midnightblue" stroke="midnightblue" points="827.6,-275.316 834.931,-267.668 824.43,-269.075 827.6,-275.316"/>
</g>
<!-- Node16&#45;&gt;Node9 -->
<g id="edge29" class="edge"><title>Node16&#45;&gt;Node9</title>
<path fill="none" stroke="midnightblue" d="M750.943,-352.607C761.984,-369.662 787.349,-405.163 818,-423.985 851.567,-444.598 895.046,-455.478 928.052,-461.131"/>
<polygon fill="midnightblue" stroke="midnightblue" points="927.507,-464.588 937.936,-462.723 928.62,-457.677 927.507,-464.588"/>
</g>
<!-- Node16&#45;&gt;Node11 -->
<g id="edge31" class="edge"><title>Node16&#45;&gt;Node11</title>
<path fill="none" stroke="midnightblue" d="M768.07,-333.474C784.801,-326.576 807.666,-317.149 826.281,-309.474"/>
<polygon fill="midnightblue" stroke="midnightblue" points="827.662,-312.691 835.573,-305.643 824.994,-306.219 827.662,-312.691"/>
</g>
<!-- Node16&#45;&gt;Node12 -->
<g id="edge30" class="edge"><title>Node16&#45;&gt;Node12</title>
<path fill="none" stroke="midnightblue" d="M773.448,-341.881C817.246,-340.182 900.858,-336.939 946.095,-335.184"/>
<polygon fill="midnightblue" stroke="midnightblue" points="946.338,-338.677 956.195,-334.792 946.066,-331.682 946.338,-338.677"/>
</g>
<!-- Node19 -->
<g id="node19" class="node"><title>Node19</title>
<g id="a_node19"><a xlink:href="ff_8c.html#aa70eb326eb0c3702ae16adf0b4dce1cc" target="_top" xlink:title="dir_next">
<polygon fill="white" stroke="black" points="198.5,-105.485 198.5,-124.485 249.5,-124.485 249.5,-105.485 198.5,-105.485"/>
<text text-anchor="middle" x="224" y="-112.485" font-family="Helvetica,sans-Serif" font-size="10.00">dir_next</text>
</a>
</g>
</g>
<!-- Node18&#45;&gt;Node19 -->
<g id="edge35" class="edge"><title>Node18&#45;&gt;Node19</title>
<path fill="none" stroke="midnightblue" d="M155.906,-94.7845C166.028,-97.8322 177.783,-101.371 188.599,-104.628"/>
<polygon fill="midnightblue" stroke="midnightblue" points="187.61,-107.985 198.194,-107.516 189.628,-101.282 187.61,-107.985"/>
</g>
<!-- Node23 -->
<g id="node23" class="node"><title>Node23</title>
<g id="a_node23"><a xlink:href="ff_8c.html#af2e8986556ee6644b4bf31fa4158d735" target="_top" xlink:title="move_window">
<polygon fill="white" stroke="black" points="478.5,-114.485 478.5,-133.485 557.5,-133.485 557.5,-114.485 478.5,-114.485"/>
<text text-anchor="middle" x="518" y="-121.485" font-family="Helvetica,sans-Serif" font-size="10.00">move_window</text>
</a>
</g>
</g>
<!-- Node18&#45;&gt;Node23 -->
<g id="edge58" class="edge"><title>Node18&#45;&gt;Node23</title>
<path fill="none" stroke="midnightblue" d="M147.222,-77.3667C152.089,-74.4865 157.33,-71.2279 162,-67.9849 178.876,-56.2661 180.002,-48.8951 198,-38.9849 261.377,-4.08669 288.157,9.89707 358,-8.98492 419.361,-25.5739 475.739,-79.0698 501.802,-106.862"/>
<polygon fill="midnightblue" stroke="midnightblue" points="499.27,-109.28 508.61,-114.281 504.428,-104.547 499.27,-109.28"/>
</g>
<!-- Node18&#45;&gt;Node29 -->
<g id="edge55" class="edge"><title>Node18&#45;&gt;Node29</title>
<path fill="none" stroke="midnightblue" d="M155.906,-78.9068C166.963,-75.4588 179.967,-71.4037 191.569,-67.786"/>
<polygon fill="midnightblue" stroke="midnightblue" points="192.814,-71.0641 201.319,-64.7458 190.73,-64.3815 192.814,-71.0641"/>
</g>
<!-- Node20 -->
<g id="node20" class="node"><title>Node20</title>
<g id="a_node20"><a xlink:href="ff_8c.html#a7519abb60fe91f6aa1d17f64fbae123a" target="_top" xlink:title="clust2sect">
<polygon fill="white" stroke="black" points="291,-29.4849 291,-48.4849 353,-48.4849 353,-29.4849 291,-29.4849"/>
<text text-anchor="middle" x="322" y="-36.4849" font-family="Helvetica,sans-Serif" font-size="10.00">clust2sect</text>
</a>
</g>
</g>
<!-- Node19&#45;&gt;Node20 -->
<g id="edge36" class="edge"><title>Node19&#45;&gt;Node20</title>
<path fill="none" stroke="midnightblue" d="M235.516,-105.43C247.455,-94.7244 267.659,-77.0293 286,-62.9849 289.72,-60.1363 293.752,-57.222 297.711,-54.4503"/>
<polygon fill="midnightblue" stroke="midnightblue" points="299.842,-57.2325 306.112,-48.6916 295.885,-51.4587 299.842,-57.2325"/>
</g>
<!-- Node21 -->
<g id="node21" class="node"><title>Node21</title>
<g id="a_node21"><a xlink:href="ff_8c.html#acbd0a20a17c6f9b6d536490d1cc3c5ac" target="_top" xlink:title="create_chain">
<polygon fill="white" stroke="black" points="286,-105.485 286,-124.485 358,-124.485 358,-105.485 286,-105.485"/>
<text text-anchor="middle" x="322" y="-112.485" font-family="Helvetica,sans-Serif" font-size="10.00">create_chain</text>
</a>
</g>
</g>
<!-- Node19&#45;&gt;Node21 -->
<g id="edge37" class="edge"><title>Node19&#45;&gt;Node21</title>
<path fill="none" stroke="midnightblue" d="M249.722,-114.985C257.714,-114.985 266.843,-114.985 275.837,-114.985"/>
<polygon fill="midnightblue" stroke="midnightblue" points="275.868,-118.485 285.868,-114.985 275.868,-111.485 275.868,-118.485"/>
</g>
<!-- Node22 -->
<g id="node22" class="node"><title>Node22</title>
<g id="a_node22"><a xlink:href="ff_8c.html#a65611adf1626e5e08da77cd33a98dd8b" target="_top" xlink:title="get_fat">
<polygon fill="white" stroke="black" points="394.5,-67.4849 394.5,-86.4849 441.5,-86.4849 441.5,-67.4849 394.5,-67.4849"/>
<text text-anchor="middle" x="418" y="-74.4849" font-family="Helvetica,sans-Serif" font-size="10.00">get_fat</text>
</a>
</g>
</g>
<!-- Node19&#45;&gt;Node22 -->
<g id="edge52" class="edge"><title>Node19&#45;&gt;Node22</title>
<path fill="none" stroke="midnightblue" d="M249.689,-106.321C260.694,-102.712 273.884,-98.7323 286,-95.9849 319.042,-88.4922 357.474,-83.3281 384.128,-80.2955"/>
<polygon fill="midnightblue" stroke="midnightblue" points="384.523,-83.7732 394.08,-79.2 383.757,-76.8152 384.523,-83.7732"/>
</g>
<!-- Node24 -->
<g id="node24" class="node"><title>Node24</title>
<g id="a_node24"><a xlink:href="ff_8c.html#a5e18753404354b210096f9af99e31bc1" target="_top" xlink:title="sync_window">
<polygon fill="white" stroke="black" points="594,-181.485 594,-200.485 670,-200.485 670,-181.485 594,-181.485"/>
<text text-anchor="middle" x="632" y="-188.485" font-family="Helvetica,sans-Serif" font-size="10.00">sync_window</text>
</a>
</g>
</g>
<!-- Node19&#45;&gt;Node24 -->
<g id="edge54" class="edge"><title>Node19&#45;&gt;Node24</title>
<path fill="none" stroke="midnightblue" d="M249.715,-123.536C260.725,-127.123 273.912,-131.118 286,-133.985 391.131,-158.916 516.835,-176.732 583.692,-185.276"/>
<polygon fill="midnightblue" stroke="midnightblue" points="583.545,-188.785 593.905,-186.567 584.423,-181.84 583.545,-188.785"/>
</g>
<!-- Node19&#45;&gt;Node28 -->
<g id="edge53" class="edge"><title>Node19&#45;&gt;Node28</title>
<path fill="none" stroke="midnightblue" d="M229.884,-124.501C239.133,-141.905 260.576,-179.423 286,-204.985 289.039,-208.041 292.517,-210.953 296.075,-213.629"/>
<polygon fill="midnightblue" stroke="midnightblue" points="294.145,-216.55 304.351,-219.395 298.147,-210.807 294.145,-216.55"/>
</g>
<!-- Node21&#45;&gt;Node22 -->
<g id="edge38" class="edge"><title>Node21&#45;&gt;Node22</title>
<path fill="none" stroke="midnightblue" d="M346.72,-105.396C358.222,-100.746 372.211,-95.091 384.672,-90.0538"/>
<polygon fill="midnightblue" stroke="midnightblue" points="386.301,-93.1704 394.26,-86.1776 383.677,-86.6807 386.301,-93.1704"/>
</g>
<!-- Node27 -->
<g id="node27" class="node"><title>Node27</title>
<g id="a_node27"><a xlink:href="ff_8c.html#abd4b6b071a8d728a88727051c12bc6d7" target="_top" xlink:title="put_fat">
<polygon fill="white" stroke="black" points="394.5,-105.485 394.5,-124.485 441.5,-124.485 441.5,-105.485 394.5,-105.485"/>
<text text-anchor="middle" x="418" y="-112.485" font-family="Helvetica,sans-Serif" font-size="10.00">put_fat</text>
</a>
</g>
</g>
<!-- Node21&#45;&gt;Node27 -->
<g id="edge50" class="edge"><title>Node21&#45;&gt;Node27</title>
<path fill="none" stroke="midnightblue" d="M358.002,-114.985C366.517,-114.985 375.595,-114.985 384.013,-114.985"/>
<polygon fill="midnightblue" stroke="midnightblue" points="384.23,-118.485 394.23,-114.985 384.23,-111.485 384.23,-118.485"/>
</g>
<!-- Node22&#45;&gt;Node23 -->
<g id="edge39" class="edge"><title>Node22&#45;&gt;Node23</title>
<path fill="none" stroke="midnightblue" d="M438.832,-86.4961C452.819,-93.2044 471.793,-102.304 487.544,-109.858"/>
<polygon fill="midnightblue" stroke="midnightblue" points="486.331,-113.158 496.861,-114.327 489.358,-106.846 486.331,-113.158"/>
</g>
<!-- Node23&#45;&gt;Node5 -->
<g id="edge49" class="edge"><title>Node23&#45;&gt;Node5</title>
<path fill="none" stroke="midnightblue" d="M557.778,-128.772C590.498,-134.458 637.126,-146.596 670,-171.985 693.714,-190.3 687.448,-205.456 706,-228.985 711.692,-236.204 718.573,-243.572 724.848,-249.875"/>
<polygon fill="midnightblue" stroke="midnightblue" points="722.742,-252.71 732.339,-257.198 727.635,-247.705 722.742,-252.71"/>
</g>
<!-- Node23&#45;&gt;Node24 -->
<g id="edge40" class="edge"><title>Node23&#45;&gt;Node24</title>
<path fill="none" stroke="midnightblue" d="M535.047,-133.584C553.677,-144.729 584.616,-163.237 606.313,-176.217"/>
<polygon fill="midnightblue" stroke="midnightblue" points="604.604,-179.273 614.983,-181.403 608.198,-173.266 604.604,-179.273"/>
</g>
<!-- Node25 -->
<g id="node25" class="node"><title>Node25</title>
<g id="a_node25"><a xlink:href="diskio_8h.html#ac4785625f4bb82e33562079813659880" target="_top" xlink:title="disk_write">
<polygon fill="white" stroke="black" points="713.5,-200.485 713.5,-219.485 774.5,-219.485 774.5,-200.485 713.5,-200.485"/>
<text text-anchor="middle" x="744" y="-207.485" font-family="Helvetica,sans-Serif" font-size="10.00">disk_write</text>
</a>
</g>
</g>
<!-- Node24&#45;&gt;Node25 -->
<g id="edge41" class="edge"><title>Node24&#45;&gt;Node25</title>
<path fill="none" stroke="midnightblue" d="M670.241,-197.417C680.916,-199.261 692.59,-201.278 703.401,-203.145"/>
<polygon fill="midnightblue" stroke="midnightblue" points="702.991,-206.626 713.441,-204.879 704.182,-199.728 702.991,-206.626"/>
</g>
<!-- Node25&#45;&gt;Node6 -->
<g id="edge42" class="edge"><title>Node25&#45;&gt;Node6</title>
<path fill="none" stroke="midnightblue" d="M774.575,-206.42C827.525,-201.542 940.24,-198.123 1018,-244.985 1041.76,-259.306 1033.76,-277.012 1054,-295.985 1055.27,-297.172 1056.62,-298.323 1058.02,-299.433"/>
<polygon fill="midnightblue" stroke="midnightblue" points="1056.21,-302.436 1066.41,-305.288 1060.22,-296.695 1056.21,-302.436"/>
</g>
<!-- Node25&#45;&gt;Node8 -->
<g id="edge43" class="edge"><title>Node25&#45;&gt;Node8</title>
<path fill="none" stroke="midnightblue" d="M767.796,-219.583C784.727,-226.712 808.048,-236.532 826.869,-244.456"/>
<polygon fill="midnightblue" stroke="midnightblue" points="825.669,-247.748 836.244,-248.403 828.386,-241.297 825.669,-247.748"/>
</g>
<!-- Node25&#45;&gt;Node11 -->
<g id="edge44" class="edge"><title>Node25&#45;&gt;Node11</title>
<path fill="none" stroke="midnightblue" d="M754.604,-219.497C771.132,-235.744 804.476,-267.964 818,-276.985 820.447,-278.617 823.058,-280.179 825.73,-281.656"/>
<polygon fill="midnightblue" stroke="midnightblue" points="824.413,-284.913 834.913,-286.33 827.588,-278.675 824.413,-284.913"/>
</g>
<!-- Node26 -->
<g id="node26" class="node"><title>Node26</title>
<g id="a_node26"><a xlink:href="sdmm_8c.html#aefbd30f6bdff37184f58faf98ad1c6e0" target="_top" xlink:title="xmit_datablock">
<polygon fill="white" stroke="black" points="818.5,-115.485 818.5,-134.485 901.5,-134.485 901.5,-115.485 818.5,-115.485"/>
<text text-anchor="middle" x="860" y="-122.485" font-family="Helvetica,sans-Serif" font-size="10.00">xmit_datablock</text>
</a>
</g>
</g>
<!-- Node25&#45;&gt;Node26 -->
<g id="edge45" class="edge"><title>Node25&#45;&gt;Node26</title>
<path fill="none" stroke="midnightblue" d="M758.077,-200.234C777.576,-185.696 814.476,-158.183 837.846,-140.758"/>
<polygon fill="midnightblue" stroke="midnightblue" points="840.151,-143.405 846.075,-134.622 835.966,-137.793 840.151,-143.405"/>
</g>
<!-- Node26&#45;&gt;Node7 -->
<g id="edge48" class="edge"><title>Node26&#45;&gt;Node7</title>
<path fill="none" stroke="midnightblue" d="M881.497,-115.458C912.645,-102.455 973.023,-83.1243 1018,-104.985 1101.98,-145.804 1155.95,-252.366 1175.14,-295.969"/>
<polygon fill="midnightblue" stroke="midnightblue" points="1172.03,-297.583 1179.18,-305.398 1178.46,-294.828 1172.03,-297.583"/>
</g>
<!-- Node26&#45;&gt;Node13 -->
<g id="edge46" class="edge"><title>Node26&#45;&gt;Node13</title>
<path fill="none" stroke="midnightblue" d="M893.059,-115.451C926.982,-107.395 980.67,-100.644 1018,-124.985 1063.58,-154.704 1078.37,-223.179 1082.99,-257.141"/>
<polygon fill="midnightblue" stroke="midnightblue" points="1079.54,-257.717 1084.2,-267.23 1086.49,-256.884 1079.54,-257.717"/>
</g>
<!-- Node26&#45;&gt;Node14 -->
<g id="edge47" class="edge"><title>Node26&#45;&gt;Node14</title>
<path fill="none" stroke="midnightblue" d="M901.571,-131.63C912.976,-133.498 925.372,-135.529 936.758,-137.394"/>
<polygon fill="midnightblue" stroke="midnightblue" points="936.438,-140.888 946.872,-139.05 937.57,-133.98 936.438,-140.888"/>
</g>
<!-- Node27&#45;&gt;Node23 -->
<g id="edge51" class="edge"><title>Node27&#45;&gt;Node23</title>
<path fill="none" stroke="midnightblue" d="M441.729,-117.072C449.702,-117.804 458.992,-118.658 468.269,-119.51"/>
<polygon fill="midnightblue" stroke="midnightblue" points="467.99,-122.999 478.268,-120.428 468.63,-116.028 467.99,-122.999"/>
</g>
<!-- Node29&#45;&gt;Node20 -->
<g id="edge56" class="edge"><title>Node29&#45;&gt;Node20</title>
<path fill="none" stroke="midnightblue" d="M246.784,-53.6735C256.882,-51.675 269.212,-49.2346 280.9,-46.9214"/>
<polygon fill="midnightblue" stroke="midnightblue" points="281.803,-50.3105 290.934,-44.9356 280.444,-43.4437 281.803,-50.3105"/>
</g>
<!-- Node29&#45;&gt;Node22 -->
<g id="edge57" class="edge"><title>Node29&#45;&gt;Node22</title>
<path fill="none" stroke="midnightblue" d="M236.203,-48.2773C247.777,-38.9457 266.806,-25.4743 286,-19.9849 316.766,-11.1858 328.331,-7.99434 358,-19.9849 377.498,-27.8649 394.132,-45.6175 404.719,-59.2324"/>
<polygon fill="midnightblue" stroke="midnightblue" points="402.019,-61.4679 410.772,-67.4366 407.651,-57.3118 402.019,-61.4679"/>
</g>
<!-- Node30&#45;&gt;Node19 -->
<g id="edge60" class="edge"><title>Node30&#45;&gt;Node19</title>
<path fill="none" stroke="midnightblue" d="M148.82,-153.271C162.27,-146.33 180.577,-136.881 195.639,-129.107"/>
<polygon fill="midnightblue" stroke="midnightblue" points="197.244,-132.217 204.525,-124.52 194.034,-125.996 197.244,-132.217"/>
</g>
<!-- Node30&#45;&gt;Node23 -->
<g id="edge61" class="edge"><title>Node30&#45;&gt;Node23</title>
<path fill="none" stroke="midnightblue" d="M154.706,-161.025C207.509,-156.764 335.24,-146.059 442,-133.985 450.537,-133.019 459.608,-131.894 468.382,-130.755"/>
<polygon fill="midnightblue" stroke="midnightblue" points="469.041,-134.198 478.496,-129.418 468.124,-127.258 469.041,-134.198"/>
</g>
<!-- Node33&#45;&gt;Node16 -->
<g id="edge70" class="edge"><title>Node33&#45;&gt;Node16</title>
<path fill="none" stroke="midnightblue" d="M238.707,-276.61C269.212,-297.061 345.659,-342.985 417,-342.985 417,-342.985 417,-342.985 519,-342.985 584.165,-342.985 659.993,-342.985 704.605,-342.985"/>
<polygon fill="midnightblue" stroke="midnightblue" points="704.712,-346.485 714.712,-342.985 704.712,-339.485 704.712,-346.485"/>
</g>
<!-- Node33&#45;&gt;Node24 -->
<g id="edge67" class="edge"><title>Node33&#45;&gt;Node24</title>
<path fill="none" stroke="midnightblue" d="M249.588,-263.951C276.337,-260.539 320.324,-254.602 358,-247.985 437.521,-234.018 529.278,-214.062 583.59,-201.845"/>
<polygon fill="midnightblue" stroke="midnightblue" points="584.627,-205.199 593.611,-199.583 583.086,-198.371 584.627,-205.199"/>
</g>
<!-- Node33&#45;&gt;Node25 -->
<g id="edge69" class="edge"><title>Node33&#45;&gt;Node25</title>
<path fill="none" stroke="midnightblue" d="M249.554,-268.375C276.274,-269.608 320.237,-270.813 358,-267.985 484.946,-258.476 633.478,-231.568 703.131,-218.007"/>
<polygon fill="midnightblue" stroke="midnightblue" points="704.081,-221.387 713.22,-216.028 702.734,-214.518 704.081,-221.387"/>
</g>
<!-- Node33&#45;&gt;Node28 -->
<g id="edge68" class="edge"><title>Node33&#45;&gt;Node28</title>
<path fill="none" stroke="midnightblue" d="M249.225,-257.396C260.708,-252.851 274.62,-247.344 287.127,-242.393"/>
<polygon fill="midnightblue" stroke="midnightblue" points="288.773,-245.506 296.783,-238.571 286.197,-238.997 288.773,-245.506"/>
</g>
</g>
</svg>
