<?xml version="1.0" encoding="UTF-8" standalone="no"?>
<!DOCTYPE svg PUBLIC "-//W3C//DTD SVG 1.1//EN"
 "http://www.w3.org/Graphics/SVG/1.1/DTD/svg11.dtd">
<!-- Generated by graphviz version 2.36.0 (20140111.2315)
 -->
<!-- Title: f_sync Pages: 1 -->
<svg width="812pt" height="338pt"
 viewBox="0.00 0.00 812.00 338.22" xmlns="http://www.w3.org/2000/svg" xmlns:xlink="http://www.w3.org/1999/xlink">
<g id="graph0" class="graph" transform="scale(1 1) rotate(0) translate(4 334.216)">
<title>f_sync</title>
<polygon fill="white" stroke="none" points="-4,4 -4,-334.216 808,-334.216 808,4 -4,4"/>
<!-- Node1 -->
<g id="node1" class="node"><title>Node1</title>
<polygon fill="#bfbfbf" stroke="black" points="0,-101.716 0,-120.716 46,-120.716 46,-101.716 0,-101.716"/>
<text text-anchor="middle" x="23" y="-108.716" font-family="Helvetica,sans-Serif" font-size="10.00">f_sync</text>
</g>
<!-- Node2 -->
<g id="node2" class="node"><title>Node2</title>
<g id="a_node2"><a xlink:href="diskio_8h.html#ac4785625f4bb82e33562079813659880" target="_top" xlink:title="disk_write">
<polygon fill="white" stroke="black" points="310.5,-82.7162 310.5,-101.716 371.5,-101.716 371.5,-82.7162 310.5,-82.7162"/>
<text text-anchor="middle" x="341" y="-89.7162" font-family="Helvetica,sans-Serif" font-size="10.00">disk_write</text>
</a>
</g>
</g>
<!-- Node1&#45;&gt;Node2 -->
<g id="edge1" class="edge"><title>Node1&#45;&gt;Node2</title>
<path fill="none" stroke="midnightblue" d="M34.5651,-101.516C45.5012,-92.1908 63.5432,-78.724 82,-73.2162 156.845,-50.8814 249.064,-67.6597 300.512,-80.7174"/>
<polygon fill="midnightblue" stroke="midnightblue" points="299.68,-84.1175 310.241,-83.2666 301.455,-77.3461 299.68,-84.1175"/>
</g>
<!-- Node12 -->
<g id="node12" class="node"><title>Node12</title>
<g id="a_node12"><a xlink:href="ff_8h.html#af58b536abfd30f77213f4ecaf2ac52f5" target="_top" xlink:title="User Provided RTC Function called by FatFs module Used to provide a Timestamp for SDCard files and fo...">
<polygon fill="white" stroke="black" points="89.5,-158.716 89.5,-177.716 154.5,-177.716 154.5,-158.716 89.5,-158.716"/>
<text text-anchor="middle" x="122" y="-165.716" font-family="Helvetica,sans-Serif" font-size="10.00">get_fattime</text>
</a>
</g>
</g>
<!-- Node1&#45;&gt;Node12 -->
<g id="edge19" class="edge"><title>Node1&#45;&gt;Node12</title>
<path fill="none" stroke="midnightblue" d="M37.5218,-120.778C49.0856,-128.783 66.2998,-140.296 82,-149.216 84.8813,-150.853 87.9243,-152.489 90.9882,-154.075"/>
<polygon fill="midnightblue" stroke="midnightblue" points="89.5934,-157.291 100.102,-158.638 92.7272,-151.032 89.5934,-157.291"/>
</g>
<!-- Node13 -->
<g id="node13" class="node"><title>Node13</title>
<g id="a_node13"><a xlink:href="ff_8c.html#af2e8986556ee6644b4bf31fa4158d735" target="_top" xlink:title="move_window">
<polygon fill="white" stroke="black" points="82.5,-196.716 82.5,-215.716 161.5,-215.716 161.5,-196.716 82.5,-196.716"/>
<text text-anchor="middle" x="122" y="-203.716" font-family="Helvetica,sans-Serif" font-size="10.00">move_window</text>
</a>
</g>
</g>
<!-- Node1&#45;&gt;Node13 -->
<g id="edge20" class="edge"><title>Node1&#45;&gt;Node13</title>
<path fill="none" stroke="midnightblue" d="M29.2804,-120.769C38.3197,-136.4 58.1143,-167.657 82,-187.216 83.7992,-188.689 85.7316,-190.084 87.7391,-191.397"/>
<polygon fill="midnightblue" stroke="midnightblue" points="86.4248,-194.678 96.8393,-196.624 89.9116,-188.608 86.4248,-194.678"/>
</g>
<!-- Node17 -->
<g id="node17" class="node"><title>Node17</title>
<g id="a_node17"><a xlink:href="ff_8c.html#a357e5a36452e057d68378c98cd61018c" target="_top" xlink:title="st_clust">
<polygon fill="white" stroke="black" points="96.5,-82.7162 96.5,-101.716 147.5,-101.716 147.5,-82.7162 96.5,-82.7162"/>
<text text-anchor="middle" x="122" y="-89.7162" font-family="Helvetica,sans-Serif" font-size="10.00">st_clust</text>
</a>
</g>
</g>
<!-- Node1&#45;&gt;Node17 -->
<g id="edge30" class="edge"><title>Node1&#45;&gt;Node17</title>
<path fill="none" stroke="midnightblue" d="M46.0108,-106.905C57.9482,-104.567 72.974,-101.623 86.4349,-98.9867"/>
<polygon fill="midnightblue" stroke="midnightblue" points="87.2057,-102.402 96.3464,-97.0453 85.8601,-95.5329 87.2057,-102.402"/>
</g>
<!-- Node18 -->
<g id="node18" class="node"><title>Node18</title>
<g id="a_node18"><a xlink:href="ff_8c.html#aec6b108298553219ebb2b960b528459d" target="_top" xlink:title="sync_fs">
<polygon fill="white" stroke="black" points="96.5,-120.716 96.5,-139.716 147.5,-139.716 147.5,-120.716 96.5,-120.716"/>
<text text-anchor="middle" x="122" y="-127.716" font-family="Helvetica,sans-Serif" font-size="10.00">sync_fs</text>
</a>
</g>
</g>
<!-- Node1&#45;&gt;Node18 -->
<g id="edge31" class="edge"><title>Node1&#45;&gt;Node18</title>
<path fill="none" stroke="midnightblue" d="M46.0108,-115.528C57.9482,-117.866 72.974,-120.809 86.4349,-123.446"/>
<polygon fill="midnightblue" stroke="midnightblue" points="85.8601,-126.9 96.3464,-125.387 87.2057,-120.03 85.8601,-126.9"/>
</g>
<!-- Node21 -->
<g id="node21" class="node"><title>Node21</title>
<g id="a_node21"><a xlink:href="ff_8c.html#aa7193f5b86c3996b5312043a0c26da5f" target="_top" xlink:title="validate">
<polygon fill="white" stroke="black" points="97,-6.71623 97,-25.7162 147,-25.7162 147,-6.71623 97,-6.71623"/>
<text text-anchor="middle" x="122" y="-13.7162" font-family="Helvetica,sans-Serif" font-size="10.00">validate</text>
</a>
</g>
</g>
<!-- Node1&#45;&gt;Node21 -->
<g id="edge41" class="edge"><title>Node1&#45;&gt;Node21</title>
<path fill="none" stroke="midnightblue" d="M30.272,-101.63C40.0805,-87.1289 60.1978,-59.2899 82,-40.2162 85.6949,-36.9838 89.8764,-33.9144 94.0948,-31.1174"/>
<polygon fill="midnightblue" stroke="midnightblue" points="96.0151,-34.0448 102.661,-25.7939 92.3204,-28.0993 96.0151,-34.0448"/>
</g>
<!-- Node3 -->
<g id="node3" class="node"><title>Node3</title>
<g id="a_node3"><a xlink:href="sdmm_8c.html#ac0eadae94de728461ccade9e03fafd8c" target="_top" xlink:title="deselect">
<polygon fill="white" stroke="black" points="649.5,-196.716 649.5,-215.716 702.5,-215.716 702.5,-196.716 649.5,-196.716"/>
<text text-anchor="middle" x="676" y="-203.716" font-family="Helvetica,sans-Serif" font-size="10.00">deselect</text>
</a>
</g>
</g>
<!-- Node2&#45;&gt;Node3 -->
<g id="edge2" class="edge"><title>Node2&#45;&gt;Node3</title>
<path fill="none" stroke="midnightblue" d="M370.441,-82.7015C423.895,-66.7873 540.069,-41.826 608,-99.2162 640.28,-126.487 616.628,-155.022 644,-187.216 644.971,-188.358 646.029,-189.452 647.149,-190.497"/>
<polygon fill="midnightblue" stroke="midnightblue" points="645.12,-193.352 655.183,-196.666 649.384,-187.8 645.12,-193.352"/>
</g>
<!-- Node5 -->
<g id="node5" class="node"><title>Node5</title>
<g id="a_node5"><a xlink:href="sdmm_8c.html#a21ad8e9a107ea2000705a3edfebaaa2d" target="_top" xlink:title="disk_status">
<polygon fill="white" stroke="black" points="416.5,-82.7162 416.5,-101.716 483.5,-101.716 483.5,-82.7162 416.5,-82.7162"/>
<text text-anchor="middle" x="450" y="-89.7162" font-family="Helvetica,sans-Serif" font-size="10.00">disk_status</text>
</a>
</g>
</g>
<!-- Node2&#45;&gt;Node5 -->
<g id="edge4" class="edge"><title>Node2&#45;&gt;Node5</title>
<path fill="none" stroke="midnightblue" d="M371.521,-92.2162C382.13,-92.2162 394.325,-92.2162 405.853,-92.2162"/>
<polygon fill="midnightblue" stroke="midnightblue" points="406.188,-95.7163 416.188,-92.2162 406.188,-88.7163 406.188,-95.7163"/>
</g>
<!-- Node6 -->
<g id="node6" class="node"><title>Node6</title>
<g id="a_node6"><a xlink:href="sdmm_8c.html#a99684b493c8bfdb0288a2e24e52f6871" target="_top" xlink:title="send_cmd">
<polygon fill="white" stroke="black" points="419,-196.716 419,-215.716 481,-215.716 481,-196.716 419,-196.716"/>
<text text-anchor="middle" x="450" y="-203.716" font-family="Helvetica,sans-Serif" font-size="10.00">send_cmd</text>
</a>
</g>
</g>
<!-- Node2&#45;&gt;Node6 -->
<g id="edge5" class="edge"><title>Node2&#45;&gt;Node6</title>
<path fill="none" stroke="midnightblue" d="M351.123,-101.936C369.285,-121.286 410.172,-164.848 432.935,-189.1"/>
<polygon fill="midnightblue" stroke="midnightblue" points="430.505,-191.625 439.9,-196.521 435.609,-186.835 430.505,-191.625"/>
</g>
<!-- Node11 -->
<g id="node11" class="node"><title>Node11</title>
<g id="a_node11"><a xlink:href="sdmm_8c.html#aefbd30f6bdff37184f58faf98ad1c6e0" target="_top" xlink:title="xmit_datablock">
<polygon fill="white" stroke="black" points="408.5,-6.71623 408.5,-25.7162 491.5,-25.7162 491.5,-6.71623 408.5,-6.71623"/>
<text text-anchor="middle" x="450" y="-13.7162" font-family="Helvetica,sans-Serif" font-size="10.00">xmit_datablock</text>
</a>
</g>
</g>
<!-- Node2&#45;&gt;Node11 -->
<g id="edge15" class="edge"><title>Node2&#45;&gt;Node11</title>
<path fill="none" stroke="midnightblue" d="M353.318,-82.5125C366.182,-71.6727 387.993,-53.8581 408,-40.2162 412.685,-37.0217 417.811,-33.8121 422.802,-30.8259"/>
<polygon fill="midnightblue" stroke="midnightblue" points="424.643,-33.8042 431.519,-25.7434 421.117,-27.7571 424.643,-33.8042"/>
</g>
<!-- Node4 -->
<g id="node4" class="node"><title>Node4</title>
<g id="a_node4"><a xlink:href="sdmm_8c.html#ab628371b03508f9db7c6daf1203ed84d" target="_top" xlink:title="rcvr_mmc">
<polygon fill="white" stroke="black" points="744,-177.716 744,-196.716 804,-196.716 804,-177.716 744,-177.716"/>
<text text-anchor="middle" x="774" y="-184.716" font-family="Helvetica,sans-Serif" font-size="10.00">rcvr_mmc</text>
</a>
</g>
</g>
<!-- Node3&#45;&gt;Node4 -->
<g id="edge3" class="edge"><title>Node3&#45;&gt;Node4</title>
<path fill="none" stroke="midnightblue" d="M702.726,-201.125C712.322,-199.225 723.445,-197.024 733.97,-194.941"/>
<polygon fill="midnightblue" stroke="midnightblue" points="734.68,-198.368 743.81,-192.993 733.321,-191.502 734.68,-198.368"/>
</g>
<!-- Node6&#45;&gt;Node3 -->
<g id="edge6" class="edge"><title>Node6&#45;&gt;Node3</title>
<path fill="none" stroke="midnightblue" d="M481.21,-206.216C522.25,-206.216 595.505,-206.216 639.239,-206.216"/>
<polygon fill="midnightblue" stroke="midnightblue" points="639.42,-209.716 649.42,-206.216 639.42,-202.716 639.42,-209.716"/>
</g>
<!-- Node6&#45;&gt;Node4 -->
<g id="edge14" class="edge"><title>Node6&#45;&gt;Node4</title>
<path fill="none" stroke="midnightblue" d="M481.299,-214.885C530.005,-227.402 628.326,-246.797 708,-225.216 724.244,-220.816 740.59,-211.23 752.827,-202.788"/>
<polygon fill="midnightblue" stroke="midnightblue" points="754.884,-205.619 760.95,-196.933 750.791,-199.941 754.884,-205.619"/>
</g>
<!-- Node7 -->
<g id="node7" class="node"><title>Node7</title>
<g id="a_node7"><a xlink:href="sdmm_8c.html#ab45cb1d47cda5822ce492ad3c11867ae" target="_top" xlink:title="select">
<polygon fill="white" stroke="black" points="546.5,-158.716 546.5,-177.716 589.5,-177.716 589.5,-158.716 546.5,-158.716"/>
<text text-anchor="middle" x="568" y="-165.716" font-family="Helvetica,sans-Serif" font-size="10.00">select</text>
</a>
</g>
</g>
<!-- Node6&#45;&gt;Node7 -->
<g id="edge7" class="edge"><title>Node6&#45;&gt;Node7</title>
<path fill="none" stroke="midnightblue" d="M480.272,-196.627C497.44,-191.003 519.101,-183.907 536.481,-178.214"/>
<polygon fill="midnightblue" stroke="midnightblue" points="537.739,-181.485 546.153,-175.046 535.56,-174.833 537.739,-181.485"/>
</g>
<!-- Node10 -->
<g id="node10" class="node"><title>Node10</title>
<g id="a_node10"><a xlink:href="sdmm_8c.html#ace0af708caf7775204ca74fbd46818bb" target="_top" xlink:title="xmit_mmc">
<polygon fill="white" stroke="black" points="537,-120.716 537,-139.716 599,-139.716 599,-120.716 537,-120.716"/>
<text text-anchor="middle" x="568" y="-127.716" font-family="Helvetica,sans-Serif" font-size="10.00">xmit_mmc</text>
</a>
</g>
</g>
<!-- Node6&#45;&gt;Node10 -->
<g id="edge13" class="edge"><title>Node6&#45;&gt;Node10</title>
<path fill="none" stroke="midnightblue" d="M462.53,-196.625C477.19,-184.684 503.541,-164.054 528,-149.216 530.682,-147.589 533.524,-145.988 536.403,-144.448"/>
<polygon fill="midnightblue" stroke="midnightblue" points="538.25,-147.436 545.573,-139.78 535.073,-141.198 538.25,-147.436"/>
</g>
<!-- Node7&#45;&gt;Node3 -->
<g id="edge12" class="edge"><title>Node7&#45;&gt;Node3</title>
<path fill="none" stroke="midnightblue" d="M589.69,-175.633C603.993,-180.761 623.374,-187.709 640.048,-193.686"/>
<polygon fill="midnightblue" stroke="midnightblue" points="638.9,-196.993 649.494,-197.073 641.262,-190.403 638.9,-196.993"/>
</g>
<!-- Node7&#45;&gt;Node4 -->
<g id="edge8" class="edge"><title>Node7&#45;&gt;Node4</title>
<path fill="none" stroke="midnightblue" d="M589.585,-160.367C617.011,-151.043 666.859,-138.073 708,-149.216 724.244,-153.616 740.59,-163.202 752.827,-171.645"/>
<polygon fill="midnightblue" stroke="midnightblue" points="750.791,-174.492 760.95,-177.5 754.884,-168.813 750.791,-174.492"/>
</g>
<!-- Node8 -->
<g id="node8" class="node"><title>Node8</title>
<g id="a_node8"><a xlink:href="sdmm_8c.html#a624a19e248af05530dae5c0cc1dddc11" target="_top" xlink:title="wait_ready">
<polygon fill="white" stroke="black" points="644,-158.716 644,-177.716 708,-177.716 708,-158.716 644,-158.716"/>
<text text-anchor="middle" x="676" y="-165.716" font-family="Helvetica,sans-Serif" font-size="10.00">wait_ready</text>
</a>
</g>
</g>
<!-- Node7&#45;&gt;Node8 -->
<g id="edge9" class="edge"><title>Node7&#45;&gt;Node8</title>
<path fill="none" stroke="midnightblue" d="M589.69,-168.216C602.221,-168.216 618.651,-168.216 633.743,-168.216"/>
<polygon fill="midnightblue" stroke="midnightblue" points="633.913,-171.716 643.913,-168.216 633.913,-164.716 633.913,-171.716"/>
</g>
<!-- Node8&#45;&gt;Node4 -->
<g id="edge10" class="edge"><title>Node8&#45;&gt;Node4</title>
<path fill="none" stroke="midnightblue" d="M708.168,-174.385C716.432,-176.021 725.458,-177.807 734.078,-179.513"/>
<polygon fill="midnightblue" stroke="midnightblue" points="733.452,-182.957 743.941,-181.465 734.811,-176.09 733.452,-182.957"/>
</g>
<!-- Node9 -->
<g id="node9" class="node"><title>Node9</title>
<g id="a_node9"><a xlink:href="sdmm_8c.html#a76a43e01b9676630e121e5a659acbb3f" target="_top" xlink:title="dly_us">
<polygon fill="white" stroke="black" points="751.5,-272.716 751.5,-291.716 796.5,-291.716 796.5,-272.716 751.5,-272.716"/>
<text text-anchor="middle" x="774" y="-279.716" font-family="Helvetica,sans-Serif" font-size="10.00">dly_us</text>
</a>
</g>
</g>
<!-- Node8&#45;&gt;Node9 -->
<g id="edge11" class="edge"><title>Node8&#45;&gt;Node9</title>
<path fill="none" stroke="midnightblue" d="M695.621,-177.875C699.941,-180.576 704.341,-183.736 708,-187.216 732.018,-210.058 752.199,-243.179 763.432,-263.672"/>
<polygon fill="midnightblue" stroke="midnightblue" points="760.41,-265.442 768.206,-272.617 766.585,-262.147 760.41,-265.442"/>
</g>
<!-- Node11&#45;&gt;Node4 -->
<g id="edge18" class="edge"><title>Node11&#45;&gt;Node4</title>
<path fill="none" stroke="midnightblue" d="M486.601,-6.71533C519.522,0.174839 569.089,5.6414 608,-11.2162 683.498,-43.9242 740.287,-130.072 762.623,-168.383"/>
<polygon fill="midnightblue" stroke="midnightblue" points="759.787,-170.476 767.775,-177.436 765.871,-167.014 759.787,-170.476"/>
</g>
<!-- Node11&#45;&gt;Node8 -->
<g id="edge16" class="edge"><title>Node11&#45;&gt;Node8</title>
<path fill="none" stroke="midnightblue" d="M491.808,-12.7974C525.903,-12.0442 574.229,-16.0998 608,-40.2162 644.941,-66.5963 663.136,-119.648 670.628,-148.477"/>
<polygon fill="midnightblue" stroke="midnightblue" points="667.313,-149.66 673.064,-158.558 674.117,-148.016 667.313,-149.66"/>
</g>
<!-- Node11&#45;&gt;Node10 -->
<g id="edge17" class="edge"><title>Node11&#45;&gt;Node10</title>
<path fill="none" stroke="midnightblue" d="M460.89,-25.9358C480.666,-45.3703 525.292,-89.2274 549.904,-113.415"/>
<polygon fill="midnightblue" stroke="midnightblue" points="547.549,-116.008 557.135,-120.521 552.456,-111.016 547.549,-116.008"/>
</g>
<!-- Node14 -->
<g id="node14" class="node"><title>Node14</title>
<g id="a_node14"><a xlink:href="ff_8c.html#a5e18753404354b210096f9af99e31bc1" target="_top" xlink:title="sync_window">
<polygon fill="white" stroke="black" points="198,-196.716 198,-215.716 274,-215.716 274,-196.716 198,-196.716"/>
<text text-anchor="middle" x="236" y="-203.716" font-family="Helvetica,sans-Serif" font-size="10.00">sync_window</text>
</a>
</g>
</g>
<!-- Node13&#45;&gt;Node14 -->
<g id="edge21" class="edge"><title>Node13&#45;&gt;Node14</title>
<path fill="none" stroke="midnightblue" d="M161.544,-206.216C170.003,-206.216 179.053,-206.216 187.808,-206.216"/>
<polygon fill="midnightblue" stroke="midnightblue" points="187.898,-209.716 197.898,-206.216 187.898,-202.716 187.898,-209.716"/>
</g>
<!-- Node15 -->
<g id="node15" class="node"><title>Node15</title>
<g id="a_node15"><a xlink:href="diskio_8h.html#ac0c802f8a12fa2047b4bec7109b9293f" target="_top" xlink:title="disk_read">
<polygon fill="white" stroke="black" points="311.5,-234.716 311.5,-253.716 370.5,-253.716 370.5,-234.716 311.5,-234.716"/>
<text text-anchor="middle" x="341" y="-241.716" font-family="Helvetica,sans-Serif" font-size="10.00">disk_read</text>
</a>
</g>
</g>
<!-- Node13&#45;&gt;Node15 -->
<g id="edge23" class="edge"><title>Node13&#45;&gt;Node15</title>
<path fill="none" stroke="midnightblue" d="M157.164,-215.754C169.908,-219.078 184.547,-222.621 198,-225.216 232.693,-231.909 272.608,-237.024 301.266,-240.252"/>
<polygon fill="midnightblue" stroke="midnightblue" points="300.962,-243.74 311.285,-241.355 301.728,-236.782 300.962,-243.74"/>
</g>
<!-- Node14&#45;&gt;Node2 -->
<g id="edge22" class="edge"><title>Node14&#45;&gt;Node2</title>
<path fill="none" stroke="midnightblue" d="M245.782,-196.497C263.265,-177.146 302.624,-133.584 324.535,-109.333"/>
<polygon fill="midnightblue" stroke="midnightblue" points="327.133,-111.678 331.241,-101.911 321.939,-106.985 327.133,-111.678"/>
</g>
<!-- Node15&#45;&gt;Node3 -->
<g id="edge24" class="edge"><title>Node15&#45;&gt;Node3</title>
<path fill="none" stroke="midnightblue" d="M370.865,-242.712C419.836,-239.914 522.239,-233.001 608,-220.216 618.206,-218.695 629.197,-216.595 639.267,-214.483"/>
<polygon fill="midnightblue" stroke="midnightblue" points="640.32,-217.837 649.355,-212.303 638.841,-210.995 640.32,-217.837"/>
</g>
<!-- Node15&#45;&gt;Node5 -->
<g id="edge25" class="edge"><title>Node15&#45;&gt;Node5</title>
<path fill="none" stroke="midnightblue" d="M348.693,-234.708C366.183,-209.863 413.47,-142.688 436.312,-110.241"/>
<polygon fill="midnightblue" stroke="midnightblue" points="439.415,-111.913 442.309,-101.721 433.691,-107.883 439.415,-111.913"/>
</g>
<!-- Node15&#45;&gt;Node6 -->
<g id="edge29" class="edge"><title>Node15&#45;&gt;Node6</title>
<path fill="none" stroke="midnightblue" d="M369.001,-234.627C382.18,-229.947 398.229,-224.247 412.484,-219.185"/>
<polygon fill="midnightblue" stroke="midnightblue" points="413.756,-222.447 422.008,-215.802 411.413,-215.851 413.756,-222.447"/>
</g>
<!-- Node16 -->
<g id="node16" class="node"><title>Node16</title>
<g id="a_node16"><a xlink:href="sdmm_8c.html#a8c99afbc312912297b19752cf7e0960b" target="_top" xlink:title="rcvr_datablock">
<polygon fill="white" stroke="black" points="528,-310.716 528,-329.716 608,-329.716 608,-310.716 528,-310.716"/>
<text text-anchor="middle" x="568" y="-317.716" font-family="Helvetica,sans-Serif" font-size="10.00">rcvr_datablock</text>
</a>
</g>
</g>
<!-- Node15&#45;&gt;Node16 -->
<g id="edge26" class="edge"><title>Node15&#45;&gt;Node16</title>
<path fill="none" stroke="midnightblue" d="M351.217,-254.118C363.096,-266.201 384.975,-286.248 408,-296.216 442.791,-311.278 485.415,-317.114 517.77,-319.273"/>
<polygon fill="midnightblue" stroke="midnightblue" points="517.707,-322.775 527.891,-319.852 518.107,-315.787 517.707,-322.775"/>
</g>
<!-- Node16&#45;&gt;Node4 -->
<g id="edge27" class="edge"><title>Node16&#45;&gt;Node4</title>
<path fill="none" stroke="midnightblue" d="M599.624,-310.647C629.121,-300.523 674.131,-282.628 708,-258.216 728.626,-243.35 747.694,-221.077 759.77,-205.452"/>
<polygon fill="midnightblue" stroke="midnightblue" points="762.818,-207.222 766.031,-197.126 757.224,-203.014 762.818,-207.222"/>
</g>
<!-- Node16&#45;&gt;Node9 -->
<g id="edge28" class="edge"><title>Node16&#45;&gt;Node9</title>
<path fill="none" stroke="midnightblue" d="M608.023,-313.919C635.927,-309.309 674.342,-302.744 708,-296.216 718.879,-294.106 730.739,-291.61 741.315,-289.314"/>
<polygon fill="midnightblue" stroke="midnightblue" points="742.361,-292.668 751.379,-287.106 740.861,-285.83 742.361,-292.668"/>
</g>
<!-- Node18&#45;&gt;Node2 -->
<g id="edge34" class="edge"><title>Node18&#45;&gt;Node2</title>
<path fill="none" stroke="midnightblue" d="M147.839,-123.159C162.368,-119.223 181.118,-114.473 198,-111.216 232.367,-104.587 271.857,-99.5046 300.455,-96.2719"/>
<polygon fill="midnightblue" stroke="midnightblue" points="300.913,-99.7426 310.468,-95.1651 300.144,-92.785 300.913,-99.7426"/>
</g>
<!-- Node18&#45;&gt;Node14 -->
<g id="edge32" class="edge"><title>Node18&#45;&gt;Node14</title>
<path fill="none" stroke="midnightblue" d="M145.483,-139.801C151.058,-142.543 156.895,-145.741 162,-149.216 179.943,-161.43 180.836,-168.931 198,-182.216 201.883,-185.221 206.142,-188.227 210.345,-191.044"/>
<polygon fill="midnightblue" stroke="midnightblue" points="208.462,-193.995 218.756,-196.502 212.272,-188.122 208.462,-193.995"/>
</g>
<!-- Node19 -->
<g id="node19" class="node"><title>Node19</title>
<g id="a_node19"><a xlink:href="ff_8c.html#a02eb5189e43056a9ddc8a59cbe89be93" target="_top" xlink:title="mem_set">
<polygon fill="white" stroke="black" points="207.5,-120.716 207.5,-139.716 264.5,-139.716 264.5,-120.716 207.5,-120.716"/>
<text text-anchor="middle" x="236" y="-127.716" font-family="Helvetica,sans-Serif" font-size="10.00">mem_set</text>
</a>
</g>
</g>
<!-- Node18&#45;&gt;Node19 -->
<g id="edge33" class="edge"><title>Node18&#45;&gt;Node19</title>
<path fill="none" stroke="midnightblue" d="M147.579,-130.216C162.052,-130.216 180.666,-130.216 196.995,-130.216"/>
<polygon fill="midnightblue" stroke="midnightblue" points="197.329,-133.716 207.329,-130.216 197.329,-126.716 197.329,-133.716"/>
</g>
<!-- Node20 -->
<g id="node20" class="node"><title>Node20</title>
<g id="a_node20"><a xlink:href="diskio_8h.html#ab00fa450a811dbdabe3c655c1a36fab4" target="_top" xlink:title="disk_ioctl">
<polygon fill="white" stroke="black" points="312,-158.716 312,-177.716 370,-177.716 370,-158.716 312,-158.716"/>
<text text-anchor="middle" x="341" y="-165.716" font-family="Helvetica,sans-Serif" font-size="10.00">disk_ioctl</text>
</a>
</g>
</g>
<!-- Node18&#45;&gt;Node20 -->
<g id="edge35" class="edge"><title>Node18&#45;&gt;Node20</title>
<path fill="none" stroke="midnightblue" d="M147.839,-137.274C162.368,-141.21 181.118,-145.96 198,-149.216 232.91,-155.951 273.108,-161.088 301.804,-164.313"/>
<polygon fill="midnightblue" stroke="midnightblue" points="301.502,-167.8 311.825,-165.413 302.267,-160.842 301.502,-167.8"/>
</g>
<!-- Node20&#45;&gt;Node3 -->
<g id="edge36" class="edge"><title>Node20&#45;&gt;Node3</title>
<path fill="none" stroke="midnightblue" d="M366.274,-158.602C423.967,-136.444 567.492,-85.5818 608,-111.216 639.583,-131.203 619.029,-159.406 644,-187.216 645.002,-188.332 646.084,-189.404 647.224,-190.431"/>
<polygon fill="midnightblue" stroke="midnightblue" points="645.236,-193.315 655.328,-196.54 649.45,-187.725 645.236,-193.315"/>
</g>
<!-- Node20&#45;&gt;Node5 -->
<g id="edge37" class="edge"><title>Node20&#45;&gt;Node5</title>
<path fill="none" stroke="midnightblue" d="M353.318,-158.512C366.182,-147.673 387.993,-129.858 408,-116.216 412.685,-113.022 417.811,-109.812 422.802,-106.826"/>
<polygon fill="midnightblue" stroke="midnightblue" points="424.643,-109.804 431.519,-101.743 421.117,-103.757 424.643,-109.804"/>
</g>
<!-- Node20&#45;&gt;Node6 -->
<g id="edge40" class="edge"><title>Node20&#45;&gt;Node6</title>
<path fill="none" stroke="midnightblue" d="M369.001,-177.805C382.18,-182.486 398.229,-188.185 412.484,-193.248"/>
<polygon fill="midnightblue" stroke="midnightblue" points="411.413,-196.582 422.008,-196.63 413.756,-189.985 411.413,-196.582"/>
</g>
<!-- Node20&#45;&gt;Node7 -->
<g id="edge39" class="edge"><title>Node20&#45;&gt;Node7</title>
<path fill="none" stroke="midnightblue" d="M370.041,-168.216C412.376,-168.216 492.314,-168.216 536.212,-168.216"/>
<polygon fill="midnightblue" stroke="midnightblue" points="536.295,-171.716 546.295,-168.216 536.295,-164.716 536.295,-171.716"/>
</g>
<!-- Node20&#45;&gt;Node16 -->
<g id="edge38" class="edge"><title>Node20&#45;&gt;Node16</title>
<path fill="none" stroke="midnightblue" d="M352.276,-178.091C364.876,-189.956 387.134,-210.147 408,-225.216 452.131,-257.087 507.426,-288.35 539.822,-305.872"/>
<polygon fill="midnightblue" stroke="midnightblue" points="538.247,-308.999 548.713,-310.646 541.559,-302.832 538.247,-308.999"/>
</g>
<!-- Node22 -->
<g id="node22" class="node"><title>Node22</title>
<g id="a_node22"><a xlink:href="diskio_8h.html#a8348ac5ee6d709420c02e45c111f4793" target="_top" xlink:title="disk_status">
<polygon fill="white" stroke="black" points="202.5,-6.71623 202.5,-25.7162 269.5,-25.7162 269.5,-6.71623 202.5,-6.71623"/>
<text text-anchor="middle" x="236" y="-13.7162" font-family="Helvetica,sans-Serif" font-size="10.00">disk_status</text>
</a>
</g>
</g>
<!-- Node21&#45;&gt;Node22 -->
<g id="edge42" class="edge"><title>Node21&#45;&gt;Node22</title>
<path fill="none" stroke="midnightblue" d="M147.027,-16.2162C160.083,-16.2162 176.626,-16.2162 191.834,-16.2162"/>
<polygon fill="midnightblue" stroke="midnightblue" points="192.091,-19.7163 202.091,-16.2162 192.091,-12.7163 192.091,-19.7163"/>
</g>
</g>
</svg>
