<?xml version="1.0" encoding="UTF-8" standalone="no"?>
<!DOCTYPE svg PUBLIC "-//W3C//DTD SVG 1.1//EN"
 "http://www.w3.org/Graphics/SVG/1.1/DTD/svg11.dtd">
<!-- Generated by graphviz version 2.36.0 (20140111.2315)
 -->
<!-- Title: dir_alloc Pages: 1 -->
<svg width="1098pt" height="328pt"
 viewBox="0.00 0.00 1098.00 327.62" xmlns="http://www.w3.org/2000/svg" xmlns:xlink="http://www.w3.org/1999/xlink">
<g id="graph0" class="graph" transform="scale(1 1) rotate(0) translate(4 323.619)">
<title>dir_alloc</title>
<polygon fill="white" stroke="none" points="-4,4 -4,-323.619 1094,-323.619 1094,4 -4,4"/>
<!-- Node1 -->
<g id="node1" class="node"><title>Node1</title>
<polygon fill="#bfbfbf" stroke="black" points="0.5,-277.194 0.5,-296.194 53.5,-296.194 53.5,-277.194 0.5,-277.194"/>
<text text-anchor="middle" x="27" y="-284.194" font-family="Helvetica,sans-Serif" font-size="10.00">dir_alloc</text>
</g>
<!-- Node2 -->
<g id="node2" class="node"><title>Node2</title>
<g id="a_node2"><a xlink:href="ff_8c.html#aa70eb326eb0c3702ae16adf0b4dce1cc" target="_top" xlink:title="dir_next">
<polygon fill="white" stroke="black" points="90.5,-201.194 90.5,-220.194 141.5,-220.194 141.5,-201.194 90.5,-201.194"/>
<text text-anchor="middle" x="116" y="-208.194" font-family="Helvetica,sans-Serif" font-size="10.00">dir_next</text>
</a>
</g>
</g>
<!-- Node1&#45;&gt;Node2 -->
<g id="edge1" class="edge"><title>Node1&#45;&gt;Node2</title>
<path fill="none" stroke="midnightblue" d="M39.0186,-277.069C53.4001,-264.506 78.7864,-242.329 96.2292,-227.092"/>
<polygon fill="midnightblue" stroke="midnightblue" points="98.8423,-229.456 104.071,-220.241 94.2371,-224.185 98.8423,-229.456"/>
</g>
<!-- Node4 -->
<g id="node4" class="node"><title>Node4</title>
<g id="a_node4"><a xlink:href="ff_8c.html#af2e8986556ee6644b4bf31fa4158d735" target="_top" xlink:title="move_window">
<polygon fill="white" stroke="black" points="370.5,-177.194 370.5,-196.194 449.5,-196.194 449.5,-177.194 370.5,-177.194"/>
<text text-anchor="middle" x="410" y="-184.194" font-family="Helvetica,sans-Serif" font-size="10.00">move_window</text>
</a>
</g>
</g>
<!-- Node1&#45;&gt;Node4 -->
<g id="edge40" class="edge"><title>Node1&#45;&gt;Node4</title>
<path fill="none" stroke="midnightblue" d="M53.2554,-296.226C64.3561,-299.946 77.6522,-303.773 90,-305.694 160.267,-316.628 182.571,-329.283 250,-306.694 311.184,-286.197 367.643,-231.834 393.763,-203.858"/>
<polygon fill="midnightblue" stroke="midnightblue" points="396.417,-206.143 400.587,-196.403 391.254,-201.416 396.417,-206.143"/>
</g>
<!-- Node22 -->
<g id="node22" class="node"><title>Node22</title>
<g id="a_node22"><a xlink:href="ff_8c.html#ad173ae134b70df2fe9668a90247567ff" target="_top" xlink:title="dir_sdi">
<polygon fill="white" stroke="black" points="93.5,-277.194 93.5,-296.194 138.5,-296.194 138.5,-277.194 93.5,-277.194"/>
<text text-anchor="middle" x="116" y="-284.194" font-family="Helvetica,sans-Serif" font-size="10.00">dir_sdi</text>
</a>
</g>
</g>
<!-- Node1&#45;&gt;Node22 -->
<g id="edge37" class="edge"><title>Node1&#45;&gt;Node22</title>
<path fill="none" stroke="midnightblue" d="M53.6323,-286.694C62.9082,-286.694 73.4959,-286.694 83.2354,-286.694"/>
<polygon fill="midnightblue" stroke="midnightblue" points="83.3686,-290.194 93.3686,-286.694 83.3686,-283.194 83.3686,-290.194"/>
</g>
<!-- Node3 -->
<g id="node3" class="node"><title>Node3</title>
<g id="a_node3"><a xlink:href="ff_8c.html#a65611adf1626e5e08da77cd33a98dd8b" target="_top" xlink:title="get_fat">
<polygon fill="white" stroke="black" points="286.5,-182.194 286.5,-201.194 333.5,-201.194 333.5,-182.194 286.5,-182.194"/>
<text text-anchor="middle" x="310" y="-189.194" font-family="Helvetica,sans-Serif" font-size="10.00">get_fat</text>
</a>
</g>
</g>
<!-- Node2&#45;&gt;Node3 -->
<g id="edge2" class="edge"><title>Node2&#45;&gt;Node3</title>
<path fill="none" stroke="midnightblue" d="M141.708,-208.249C176.054,-204.85 238.292,-198.691 276.407,-194.919"/>
<polygon fill="midnightblue" stroke="midnightblue" points="276.868,-198.391 286.475,-193.923 276.179,-191.425 276.868,-198.391"/>
</g>
<!-- Node5 -->
<g id="node5" class="node"><title>Node5</title>
<g id="a_node5"><a xlink:href="ff_8c.html#a5e18753404354b210096f9af99e31bc1" target="_top" xlink:title="sync_window">
<polygon fill="white" stroke="black" points="486,-111.194 486,-130.194 562,-130.194 562,-111.194 486,-111.194"/>
<text text-anchor="middle" x="524" y="-118.194" font-family="Helvetica,sans-Serif" font-size="10.00">sync_window</text>
</a>
</g>
</g>
<!-- Node2&#45;&gt;Node5 -->
<g id="edge34" class="edge"><title>Node2&#45;&gt;Node5</title>
<path fill="none" stroke="midnightblue" d="M121.351,-201.033C129.602,-184.028 149.304,-149.181 178,-134.694 274.455,-86.0006 406.115,-98.936 475.589,-110.855"/>
<polygon fill="midnightblue" stroke="midnightblue" points="475.324,-114.363 485.783,-112.674 476.553,-107.472 475.324,-114.363"/>
</g>
<!-- Node18 -->
<g id="node18" class="node"><title>Node18</title>
<g id="a_node18"><a xlink:href="ff_8c.html#acbd0a20a17c6f9b6d536490d1cc3c5ac" target="_top" xlink:title="create_chain">
<polygon fill="white" stroke="black" points="178,-144.194 178,-163.194 250,-163.194 250,-144.194 178,-144.194"/>
<text text-anchor="middle" x="214" y="-151.194" font-family="Helvetica,sans-Serif" font-size="10.00">create_chain</text>
</a>
</g>
</g>
<!-- Node2&#45;&gt;Node18 -->
<g id="edge30" class="edge"><title>Node2&#45;&gt;Node18</title>
<path fill="none" stroke="midnightblue" d="M133.285,-201.025C148.27,-192.127 170.72,-178.798 187.98,-168.55"/>
<polygon fill="midnightblue" stroke="midnightblue" points="190.144,-171.336 196.955,-163.221 186.57,-165.317 190.144,-171.336"/>
</g>
<!-- Node20 -->
<g id="node20" class="node"><title>Node20</title>
<g id="a_node20"><a xlink:href="ff_8c.html#a02eb5189e43056a9ddc8a59cbe89be93" target="_top" xlink:title="mem_set">
<polygon fill="white" stroke="black" points="185.5,-220.194 185.5,-239.194 242.5,-239.194 242.5,-220.194 185.5,-220.194"/>
<text text-anchor="middle" x="214" y="-227.194" font-family="Helvetica,sans-Serif" font-size="10.00">mem_set</text>
</a>
</g>
</g>
<!-- Node2&#45;&gt;Node20 -->
<g id="edge35" class="edge"><title>Node2&#45;&gt;Node20</title>
<path fill="none" stroke="midnightblue" d="M141.722,-215.587C151.931,-217.608 163.992,-219.995 175.262,-222.225"/>
<polygon fill="midnightblue" stroke="midnightblue" points="174.824,-225.706 185.313,-224.215 176.183,-218.84 174.824,-225.706"/>
</g>
<!-- Node21 -->
<g id="node21" class="node"><title>Node21</title>
<g id="a_node21"><a xlink:href="ff_8c.html#a7519abb60fe91f6aa1d17f64fbae123a" target="_top" xlink:title="clust2sect">
<polygon fill="white" stroke="black" points="183,-258.194 183,-277.194 245,-277.194 245,-258.194 183,-258.194"/>
<text text-anchor="middle" x="214" y="-265.194" font-family="Helvetica,sans-Serif" font-size="10.00">clust2sect</text>
</a>
</g>
</g>
<!-- Node2&#45;&gt;Node21 -->
<g id="edge36" class="edge"><title>Node2&#45;&gt;Node21</title>
<path fill="none" stroke="midnightblue" d="M131.889,-220.316C144.147,-228.154 162.042,-239.403 178,-248.694 180.521,-250.162 183.161,-251.662 185.813,-253.143"/>
<polygon fill="midnightblue" stroke="midnightblue" points="184.27,-256.289 194.719,-258.037 187.641,-250.154 184.27,-256.289"/>
</g>
<!-- Node3&#45;&gt;Node4 -->
<g id="edge3" class="edge"><title>Node3&#45;&gt;Node4</title>
<path fill="none" stroke="midnightblue" d="M333.729,-190.535C341.702,-190.128 350.992,-189.654 360.269,-189.18"/>
<polygon fill="midnightblue" stroke="midnightblue" points="360.459,-192.675 370.268,-188.67 360.102,-185.684 360.459,-192.675"/>
</g>
<!-- Node4&#45;&gt;Node5 -->
<g id="edge4" class="edge"><title>Node4&#45;&gt;Node5</title>
<path fill="none" stroke="midnightblue" d="M427.526,-176.956C446.078,-166.023 476.389,-148.161 497.877,-135.499"/>
<polygon fill="midnightblue" stroke="midnightblue" points="499.932,-138.35 506.77,-130.258 496.378,-132.32 499.932,-138.35"/>
</g>
<!-- Node16 -->
<g id="node16" class="node"><title>Node16</title>
<g id="a_node16"><a xlink:href="diskio_8h.html#ac0c802f8a12fa2047b4bec7109b9293f" target="_top" xlink:title="disk_read">
<polygon fill="white" stroke="black" points="599.5,-177.194 599.5,-196.194 658.5,-196.194 658.5,-177.194 599.5,-177.194"/>
<text text-anchor="middle" x="629" y="-184.194" font-family="Helvetica,sans-Serif" font-size="10.00">disk_read</text>
</a>
</g>
</g>
<!-- Node4&#45;&gt;Node16 -->
<g id="edge23" class="edge"><title>Node4&#45;&gt;Node16</title>
<path fill="none" stroke="midnightblue" d="M449.795,-186.694C489.187,-186.694 549.836,-186.694 589.221,-186.694"/>
<polygon fill="midnightblue" stroke="midnightblue" points="589.24,-190.194 599.24,-186.694 589.24,-183.194 589.24,-190.194"/>
</g>
<!-- Node6 -->
<g id="node6" class="node"><title>Node6</title>
<g id="a_node6"><a xlink:href="diskio_8h.html#ac4785625f4bb82e33562079813659880" target="_top" xlink:title="disk_write">
<polygon fill="white" stroke="black" points="598.5,-111.194 598.5,-130.194 659.5,-130.194 659.5,-111.194 598.5,-111.194"/>
<text text-anchor="middle" x="629" y="-118.194" font-family="Helvetica,sans-Serif" font-size="10.00">disk_write</text>
</a>
</g>
</g>
<!-- Node5&#45;&gt;Node6 -->
<g id="edge5" class="edge"><title>Node5&#45;&gt;Node6</title>
<path fill="none" stroke="midnightblue" d="M562.185,-120.694C570.624,-120.694 579.621,-120.694 588.165,-120.694"/>
<polygon fill="midnightblue" stroke="midnightblue" points="588.295,-124.194 598.295,-120.694 588.294,-117.194 588.295,-124.194"/>
</g>
<!-- Node7 -->
<g id="node7" class="node"><title>Node7</title>
<g id="a_node7"><a xlink:href="sdmm_8c.html#ac0eadae94de728461ccade9e03fafd8c" target="_top" xlink:title="deselect">
<polygon fill="white" stroke="black" points="927.5,-139.194 927.5,-158.194 980.5,-158.194 980.5,-139.194 927.5,-139.194"/>
<text text-anchor="middle" x="954" y="-146.194" font-family="Helvetica,sans-Serif" font-size="10.00">deselect</text>
</a>
</g>
</g>
<!-- Node6&#45;&gt;Node7 -->
<g id="edge6" class="edge"><title>Node6&#45;&gt;Node7</title>
<path fill="none" stroke="midnightblue" d="M659.79,-115.209C671.088,-113.385 684.097,-111.591 696,-110.694 733.228,-107.89 742.885,-106.666 780,-110.694 828.415,-115.949 883.135,-129.244 917.831,-138.622"/>
<polygon fill="midnightblue" stroke="midnightblue" points="916.925,-142.002 927.495,-141.272 918.777,-135.252 916.925,-142.002"/>
</g>
<!-- Node9 -->
<g id="node9" class="node"><title>Node9</title>
<g id="a_node9"><a xlink:href="sdmm_8c.html#a21ad8e9a107ea2000705a3edfebaaa2d" target="_top" xlink:title="disk_status">
<polygon fill="white" stroke="black" points="704.5,-158.194 704.5,-177.194 771.5,-177.194 771.5,-158.194 704.5,-158.194"/>
<text text-anchor="middle" x="738" y="-165.194" font-family="Helvetica,sans-Serif" font-size="10.00">disk_status</text>
</a>
</g>
</g>
<!-- Node6&#45;&gt;Node9 -->
<g id="edge8" class="edge"><title>Node6&#45;&gt;Node9</title>
<path fill="none" stroke="midnightblue" d="M651.653,-130.205C667.213,-137.04 688.425,-146.357 705.808,-153.993"/>
<polygon fill="midnightblue" stroke="midnightblue" points="704.449,-157.219 715.012,-158.036 707.264,-150.81 704.449,-157.219"/>
</g>
<!-- Node10 -->
<g id="node10" class="node"><title>Node10</title>
<g id="a_node10"><a xlink:href="sdmm_8c.html#a99684b493c8bfdb0288a2e24e52f6871" target="_top" xlink:title="send_cmd">
<polygon fill="white" stroke="black" points="707,-120.194 707,-139.194 769,-139.194 769,-120.194 707,-120.194"/>
<text text-anchor="middle" x="738" y="-127.194" font-family="Helvetica,sans-Serif" font-size="10.00">send_cmd</text>
</a>
</g>
</g>
<!-- Node6&#45;&gt;Node10 -->
<g id="edge9" class="edge"><title>Node6&#45;&gt;Node10</title>
<path fill="none" stroke="midnightblue" d="M659.521,-123.177C671.023,-124.145 684.389,-125.269 696.749,-126.309"/>
<polygon fill="midnightblue" stroke="midnightblue" points="696.572,-129.806 706.831,-127.157 697.159,-122.831 696.572,-129.806"/>
</g>
<!-- Node15 -->
<g id="node15" class="node"><title>Node15</title>
<g id="a_node15"><a xlink:href="sdmm_8c.html#aefbd30f6bdff37184f58faf98ad1c6e0" target="_top" xlink:title="xmit_datablock">
<polygon fill="white" stroke="black" points="696.5,-6.19418 696.5,-25.1942 779.5,-25.1942 779.5,-6.19418 696.5,-6.19418"/>
<text text-anchor="middle" x="738" y="-13.1942" font-family="Helvetica,sans-Serif" font-size="10.00">xmit_datablock</text>
</a>
</g>
</g>
<!-- Node6&#45;&gt;Node15 -->
<g id="edge19" class="edge"><title>Node6&#45;&gt;Node15</title>
<path fill="none" stroke="midnightblue" d="M639.875,-111.004C658.109,-93.111 697.262,-54.6891 719.894,-32.48"/>
<polygon fill="midnightblue" stroke="midnightblue" points="722.463,-34.8629 727.149,-25.3607 717.56,-29.8667 722.463,-34.8629"/>
</g>
<!-- Node8 -->
<g id="node8" class="node"><title>Node8</title>
<g id="a_node8"><a xlink:href="sdmm_8c.html#ab628371b03508f9db7c6daf1203ed84d" target="_top" xlink:title="rcvr_mmc">
<polygon fill="white" stroke="black" points="1030,-120.194 1030,-139.194 1090,-139.194 1090,-120.194 1030,-120.194"/>
<text text-anchor="middle" x="1060" y="-127.194" font-family="Helvetica,sans-Serif" font-size="10.00">rcvr_mmc</text>
</a>
</g>
</g>
<!-- Node7&#45;&gt;Node8 -->
<g id="edge7" class="edge"><title>Node7&#45;&gt;Node8</title>
<path fill="none" stroke="midnightblue" d="M980.708,-143.998C992.479,-141.847 1006.69,-139.251 1019.75,-136.864"/>
<polygon fill="midnightblue" stroke="midnightblue" points="1020.71,-140.248 1029.92,-135.007 1019.45,-133.362 1020.71,-140.248"/>
</g>
<!-- Node10&#45;&gt;Node7 -->
<g id="edge10" class="edge"><title>Node10&#45;&gt;Node7</title>
<path fill="none" stroke="midnightblue" d="M769.207,-132.376C808.104,-135.83 875.618,-141.824 917.096,-145.506"/>
<polygon fill="midnightblue" stroke="midnightblue" points="917.03,-149.014 927.3,-146.412 917.649,-142.042 917.03,-149.014"/>
</g>
<!-- Node10&#45;&gt;Node8 -->
<g id="edge18" class="edge"><title>Node10&#45;&gt;Node8</title>
<path fill="none" stroke="midnightblue" d="M761.878,-139.296C806.961,-156.868 910.186,-190.396 994,-167.694 1010.24,-163.294 1026.59,-153.708 1038.83,-145.266"/>
<polygon fill="midnightblue" stroke="midnightblue" points="1040.88,-148.097 1046.95,-139.411 1036.79,-142.418 1040.88,-148.097"/>
</g>
<!-- Node11 -->
<g id="node11" class="node"><title>Node11</title>
<g id="a_node11"><a xlink:href="sdmm_8c.html#ab45cb1d47cda5822ce492ad3c11867ae" target="_top" xlink:title="select">
<polygon fill="white" stroke="black" points="825.5,-63.1942 825.5,-82.1942 868.5,-82.1942 868.5,-63.1942 825.5,-63.1942"/>
<text text-anchor="middle" x="847" y="-70.1942" font-family="Helvetica,sans-Serif" font-size="10.00">select</text>
</a>
</g>
</g>
<!-- Node10&#45;&gt;Node11 -->
<g id="edge11" class="edge"><title>Node10&#45;&gt;Node11</title>
<path fill="none" stroke="midnightblue" d="M757.151,-120.025C774.163,-110.963 799.805,-97.3028 819.176,-86.9834"/>
<polygon fill="midnightblue" stroke="midnightblue" points="820.937,-90.0113 828.117,-82.2206 817.646,-83.8333 820.937,-90.0113"/>
</g>
<!-- Node14 -->
<g id="node14" class="node"><title>Node14</title>
<g id="a_node14"><a xlink:href="sdmm_8c.html#ace0af708caf7775204ca74fbd46818bb" target="_top" xlink:title="xmit_mmc">
<polygon fill="white" stroke="black" points="816,-25.1942 816,-44.1942 878,-44.1942 878,-25.1942 816,-25.1942"/>
<text text-anchor="middle" x="847" y="-32.1942" font-family="Helvetica,sans-Serif" font-size="10.00">xmit_mmc</text>
</a>
</g>
</g>
<!-- Node10&#45;&gt;Node14 -->
<g id="edge17" class="edge"><title>Node10&#45;&gt;Node14</title>
<path fill="none" stroke="midnightblue" d="M747.427,-120.145C761.005,-105.054 788.948,-75.2023 816,-53.6942 817.556,-52.4568 819.197,-51.2297 820.875,-50.0299"/>
<polygon fill="midnightblue" stroke="midnightblue" points="823.013,-52.8107 829.372,-44.3371 819.116,-46.9952 823.013,-52.8107"/>
</g>
<!-- Node11&#45;&gt;Node7 -->
<g id="edge16" class="edge"><title>Node11&#45;&gt;Node7</title>
<path fill="none" stroke="midnightblue" d="M859.992,-82.2647C877.495,-96.2151 908.558,-120.895 914,-124.694 918.37,-127.745 923.125,-130.843 927.764,-133.755"/>
<polygon fill="midnightblue" stroke="midnightblue" points="926.057,-136.815 936.411,-139.064 929.72,-130.849 926.057,-136.815"/>
</g>
<!-- Node11&#45;&gt;Node8 -->
<g id="edge12" class="edge"><title>Node11&#45;&gt;Node8</title>
<path fill="none" stroke="midnightblue" d="M868.772,-78.8122C881.751,-82.6007 898.824,-87.5218 914,-91.6942 949.802,-101.537 990.736,-112.212 1019.96,-119.734"/>
<polygon fill="midnightblue" stroke="midnightblue" points="1019.23,-123.159 1029.78,-122.257 1020.97,-116.379 1019.23,-123.159"/>
</g>
<!-- Node12 -->
<g id="node12" class="node"><title>Node12</title>
<g id="a_node12"><a xlink:href="sdmm_8c.html#a624a19e248af05530dae5c0cc1dddc11" target="_top" xlink:title="wait_ready">
<polygon fill="white" stroke="black" points="922,-63.1942 922,-82.1942 986,-82.1942 986,-63.1942 922,-63.1942"/>
<text text-anchor="middle" x="954" y="-70.1942" font-family="Helvetica,sans-Serif" font-size="10.00">wait_ready</text>
</a>
</g>
</g>
<!-- Node11&#45;&gt;Node12 -->
<g id="edge13" class="edge"><title>Node11&#45;&gt;Node12</title>
<path fill="none" stroke="midnightblue" d="M868.745,-72.6942C880.96,-72.6942 896.85,-72.6942 911.534,-72.6942"/>
<polygon fill="midnightblue" stroke="midnightblue" points="911.943,-76.1943 921.943,-72.6942 911.943,-69.1943 911.943,-76.1943"/>
</g>
<!-- Node12&#45;&gt;Node8 -->
<g id="edge14" class="edge"><title>Node12&#45;&gt;Node8</title>
<path fill="none" stroke="midnightblue" d="M972.642,-82.3634C989.102,-91.3845 1013.87,-104.961 1032.67,-115.264"/>
<polygon fill="midnightblue" stroke="midnightblue" points="1031.17,-118.431 1041.62,-120.168 1034.53,-112.292 1031.17,-118.431"/>
</g>
<!-- Node13 -->
<g id="node13" class="node"><title>Node13</title>
<g id="a_node13"><a xlink:href="sdmm_8c.html#a76a43e01b9676630e121e5a659acbb3f" target="_top" xlink:title="dly_us">
<polygon fill="white" stroke="black" points="1037.5,-215.194 1037.5,-234.194 1082.5,-234.194 1082.5,-215.194 1037.5,-215.194"/>
<text text-anchor="middle" x="1060" y="-222.194" font-family="Helvetica,sans-Serif" font-size="10.00">dly_us</text>
</a>
</g>
</g>
<!-- Node12&#45;&gt;Node13 -->
<g id="edge15" class="edge"><title>Node12&#45;&gt;Node13</title>
<path fill="none" stroke="midnightblue" d="M961.506,-82.2025C978.505,-107.047 1024.47,-174.222 1046.67,-206.67"/>
<polygon fill="midnightblue" stroke="midnightblue" points="1043.96,-208.913 1052.5,-215.189 1049.74,-204.96 1043.96,-208.913"/>
</g>
<!-- Node15&#45;&gt;Node8 -->
<g id="edge22" class="edge"><title>Node15&#45;&gt;Node8</title>
<path fill="none" stroke="midnightblue" d="M779.203,-6.14627C807.155,-0.983342 845.145,3.08515 878,-3.69418 932.983,-15.0394 948.806,-20.3876 994,-53.6942 1015.93,-69.8592 1035.4,-94.7666 1047.19,-111.623"/>
<polygon fill="midnightblue" stroke="midnightblue" points="1044.4,-113.744 1052.91,-120.052 1050.19,-109.812 1044.4,-113.744"/>
</g>
<!-- Node15&#45;&gt;Node12 -->
<g id="edge20" class="edge"><title>Node15&#45;&gt;Node12</title>
<path fill="none" stroke="midnightblue" d="M779.644,-8.98379C807.964,-5.90581 846.212,-4.98553 878,-15.6942 901.321,-23.5503 923.137,-41.8632 937.162,-55.6264"/>
<polygon fill="midnightblue" stroke="midnightblue" points="934.974,-58.3946 944.471,-63.0908 939.975,-53.4971 934.974,-58.3946"/>
</g>
<!-- Node15&#45;&gt;Node14 -->
<g id="edge21" class="edge"><title>Node15&#45;&gt;Node14</title>
<path fill="none" stroke="midnightblue" d="M779.757,-22.9315C788.239,-24.4375 797.174,-26.0241 805.641,-27.5276"/>
<polygon fill="midnightblue" stroke="midnightblue" points="805.217,-31.0069 815.675,-29.3093 806.441,-24.1148 805.217,-31.0069"/>
</g>
<!-- Node16&#45;&gt;Node7 -->
<g id="edge24" class="edge"><title>Node16&#45;&gt;Node7</title>
<path fill="none" stroke="midnightblue" d="M658.576,-188.521C688.83,-190.03 737.929,-191.26 780,-186.694 828.415,-181.44 883.135,-168.144 917.831,-158.767"/>
<polygon fill="midnightblue" stroke="midnightblue" points="918.777,-162.137 927.495,-156.116 916.925,-155.386 918.777,-162.137"/>
</g>
<!-- Node16&#45;&gt;Node9 -->
<g id="edge25" class="edge"><title>Node16&#45;&gt;Node9</title>
<path fill="none" stroke="midnightblue" d="M658.674,-181.603C669.701,-179.645 682.535,-177.366 694.585,-175.226"/>
<polygon fill="midnightblue" stroke="midnightblue" points="695.231,-178.666 704.465,-173.471 694.007,-171.774 695.231,-178.666"/>
</g>
<!-- Node16&#45;&gt;Node10 -->
<g id="edge29" class="edge"><title>Node16&#45;&gt;Node10</title>
<path fill="none" stroke="midnightblue" d="M645.785,-177.079C659.021,-169.145 678.509,-157.76 696,-148.694 699.33,-146.968 702.847,-145.224 706.364,-143.529"/>
<polygon fill="midnightblue" stroke="midnightblue" points="707.992,-146.631 715.547,-139.202 705.009,-140.298 707.992,-146.631"/>
</g>
<!-- Node17 -->
<g id="node17" class="node"><title>Node17</title>
<g id="a_node17"><a xlink:href="sdmm_8c.html#a8c99afbc312912297b19752cf7e0960b" target="_top" xlink:title="rcvr_datablock">
<polygon fill="white" stroke="black" points="914,-253.194 914,-272.194 994,-272.194 994,-253.194 914,-253.194"/>
<text text-anchor="middle" x="954" y="-260.194" font-family="Helvetica,sans-Serif" font-size="10.00">rcvr_datablock</text>
</a>
</g>
</g>
<!-- Node16&#45;&gt;Node17 -->
<g id="edge26" class="edge"><title>Node16&#45;&gt;Node17</title>
<path fill="none" stroke="midnightblue" d="M658.576,-193.678C670.184,-196.5 683.727,-199.774 696,-202.694 768.293,-219.895 852.138,-239.384 903.882,-251.357"/>
<polygon fill="midnightblue" stroke="midnightblue" points="903.258,-254.805 913.789,-253.649 904.835,-247.985 903.258,-254.805"/>
</g>
<!-- Node17&#45;&gt;Node8 -->
<g id="edge27" class="edge"><title>Node17&#45;&gt;Node8</title>
<path fill="none" stroke="midnightblue" d="M974.578,-253.126C981.246,-249.255 988.418,-244.355 994,-238.694 1020.43,-211.894 1040.53,-172.322 1050.98,-148.959"/>
<polygon fill="midnightblue" stroke="midnightblue" points="1054.33,-150.037 1055.09,-139.47 1047.9,-147.255 1054.33,-150.037"/>
</g>
<!-- Node17&#45;&gt;Node13 -->
<g id="edge28" class="edge"><title>Node17&#45;&gt;Node13</title>
<path fill="none" stroke="midnightblue" d="M981.244,-253.105C995.324,-247.96 1012.78,-241.584 1027.58,-236.176"/>
<polygon fill="midnightblue" stroke="midnightblue" points="1029.13,-239.333 1037.32,-232.614 1026.73,-232.759 1029.13,-239.333"/>
</g>
<!-- Node18&#45;&gt;Node3 -->
<g id="edge31" class="edge"><title>Node18&#45;&gt;Node3</title>
<path fill="none" stroke="midnightblue" d="M238.72,-163.283C250.222,-167.933 264.211,-173.588 276.672,-178.625"/>
<polygon fill="midnightblue" stroke="midnightblue" points="275.677,-181.998 286.26,-182.501 278.301,-175.509 275.677,-181.998"/>
</g>
<!-- Node19 -->
<g id="node19" class="node"><title>Node19</title>
<g id="a_node19"><a xlink:href="ff_8c.html#abd4b6b071a8d728a88727051c12bc6d7" target="_top" xlink:title="put_fat">
<polygon fill="white" stroke="black" points="286.5,-144.194 286.5,-163.194 333.5,-163.194 333.5,-144.194 286.5,-144.194"/>
<text text-anchor="middle" x="310" y="-151.194" font-family="Helvetica,sans-Serif" font-size="10.00">put_fat</text>
</a>
</g>
</g>
<!-- Node18&#45;&gt;Node19 -->
<g id="edge32" class="edge"><title>Node18&#45;&gt;Node19</title>
<path fill="none" stroke="midnightblue" d="M250.002,-153.694C258.517,-153.694 267.595,-153.694 276.013,-153.694"/>
<polygon fill="midnightblue" stroke="midnightblue" points="276.23,-157.194 286.23,-153.694 276.23,-150.194 276.23,-157.194"/>
</g>
<!-- Node19&#45;&gt;Node4 -->
<g id="edge33" class="edge"><title>Node19&#45;&gt;Node4</title>
<path fill="none" stroke="midnightblue" d="M333.729,-161.348C344.794,-165.074 358.397,-169.654 370.98,-173.892"/>
<polygon fill="midnightblue" stroke="midnightblue" points="370.192,-177.319 380.786,-177.193 372.426,-170.685 370.192,-177.319"/>
</g>
<!-- Node22&#45;&gt;Node3 -->
<g id="edge38" class="edge"><title>Node22&#45;&gt;Node3</title>
<path fill="none" stroke="midnightblue" d="M138.867,-292.817C166.624,-299.283 215.089,-306.108 250,-286.694 279.003,-270.565 295.579,-233.622 303.393,-210.851"/>
<polygon fill="midnightblue" stroke="midnightblue" points="306.755,-211.827 306.46,-201.237 300.086,-209.699 306.755,-211.827"/>
</g>
<!-- Node22&#45;&gt;Node21 -->
<g id="edge39" class="edge"><title>Node22&#45;&gt;Node21</title>
<path fill="none" stroke="midnightblue" d="M138.784,-282.383C148.882,-280.384 161.212,-277.944 172.9,-275.631"/>
<polygon fill="midnightblue" stroke="midnightblue" points="173.803,-279.02 182.934,-273.645 172.444,-272.153 173.803,-279.02"/>
</g>
</g>
</svg>
