<?xml version="1.0" encoding="UTF-8" standalone="no"?>
<!DOCTYPE svg PUBLIC "-//W3C//DTD SVG 1.1//EN"
 "http://www.w3.org/Graphics/SVG/1.1/DTD/svg11.dtd">
<!-- Generated by graphviz version 2.36.0 (20140111.2315)
 -->
<!-- Title: put_fat Pages: 1 -->
<svg width="812pt" height="281pt"
 viewBox="0.00 0.00 812.00 280.69" xmlns="http://www.w3.org/2000/svg" xmlns:xlink="http://www.w3.org/1999/xlink">
<g id="graph0" class="graph" transform="scale(1 1) rotate(0) translate(4 276.694)">
<title>put_fat</title>
<polygon fill="white" stroke="none" points="-4,4 -4,-276.694 808,-276.694 808,4 -4,4"/>
<!-- Node1 -->
<g id="node1" class="node"><title>Node1</title>
<polygon fill="#bfbfbf" stroke="black" points="0.5,-139.194 0.5,-158.194 47.5,-158.194 47.5,-139.194 0.5,-139.194"/>
<text text-anchor="middle" x="24" y="-146.194" font-family="Helvetica,sans-Serif" font-size="10.00">put_fat</text>
</g>
<!-- Node2 -->
<g id="node2" class="node"><title>Node2</title>
<g id="a_node2"><a xlink:href="ff_8c.html#af2e8986556ee6644b4bf31fa4158d735" target="_top" xlink:title="move_window">
<polygon fill="white" stroke="black" points="84.5,-139.194 84.5,-158.194 163.5,-158.194 163.5,-139.194 84.5,-139.194"/>
<text text-anchor="middle" x="124" y="-146.194" font-family="Helvetica,sans-Serif" font-size="10.00">move_window</text>
</a>
</g>
</g>
<!-- Node1&#45;&gt;Node2 -->
<g id="edge1" class="edge"><title>Node1&#45;&gt;Node2</title>
<path fill="none" stroke="midnightblue" d="M47.7295,-148.694C55.6173,-148.694 64.7946,-148.694 73.9731,-148.694"/>
<polygon fill="midnightblue" stroke="midnightblue" points="74.2678,-152.194 84.2678,-148.694 74.2678,-145.194 74.2678,-152.194"/>
</g>
<!-- Node3 -->
<g id="node3" class="node"><title>Node3</title>
<g id="a_node3"><a xlink:href="diskio_8h.html#ac0c802f8a12fa2047b4bec7109b9293f" target="_top" xlink:title="disk_read">
<polygon fill="white" stroke="black" points="313.5,-158.194 313.5,-177.194 372.5,-177.194 372.5,-158.194 313.5,-158.194"/>
<text text-anchor="middle" x="343" y="-165.194" font-family="Helvetica,sans-Serif" font-size="10.00">disk_read</text>
</a>
</g>
</g>
<!-- Node2&#45;&gt;Node3 -->
<g id="edge2" class="edge"><title>Node2&#45;&gt;Node3</title>
<path fill="none" stroke="midnightblue" d="M163.795,-152.091C203.187,-155.54 263.836,-160.85 303.221,-164.299"/>
<polygon fill="midnightblue" stroke="midnightblue" points="302.973,-167.79 313.24,-165.176 303.584,-160.817 302.973,-167.79"/>
</g>
<!-- Node13 -->
<g id="node13" class="node"><title>Node13</title>
<g id="a_node13"><a xlink:href="ff_8c.html#a5e18753404354b210096f9af99e31bc1" target="_top" xlink:title="sync_window">
<polygon fill="white" stroke="black" points="200,-120.194 200,-139.194 276,-139.194 276,-120.194 200,-120.194"/>
<text text-anchor="middle" x="238" y="-127.194" font-family="Helvetica,sans-Serif" font-size="10.00">sync_window</text>
</a>
</g>
</g>
<!-- Node2&#45;&gt;Node13 -->
<g id="edge19" class="edge"><title>Node2&#45;&gt;Node13</title>
<path fill="none" stroke="midnightblue" d="M163.544,-142.155C172.003,-140.72 181.053,-139.185 189.808,-137.7"/>
<polygon fill="midnightblue" stroke="midnightblue" points="190.624,-141.112 199.898,-135.988 189.453,-134.21 190.624,-141.112"/>
</g>
<!-- Node4 -->
<g id="node4" class="node"><title>Node4</title>
<g id="a_node4"><a xlink:href="sdmm_8c.html#ac0eadae94de728461ccade9e03fafd8c" target="_top" xlink:title="deselect">
<polygon fill="white" stroke="black" points="641.5,-139.194 641.5,-158.194 694.5,-158.194 694.5,-139.194 641.5,-139.194"/>
<text text-anchor="middle" x="668" y="-146.194" font-family="Helvetica,sans-Serif" font-size="10.00">deselect</text>
</a>
</g>
</g>
<!-- Node3&#45;&gt;Node4 -->
<g id="edge3" class="edge"><title>Node3&#45;&gt;Node4</title>
<path fill="none" stroke="midnightblue" d="M370.603,-177.195C382.491,-180.959 396.776,-184.829 410,-186.694 489.387,-197.894 582.435,-175.22 631.898,-160.313"/>
<polygon fill="midnightblue" stroke="midnightblue" points="632.958,-163.649 641.482,-157.356 630.895,-156.96 632.958,-163.649"/>
</g>
<!-- Node6 -->
<g id="node6" class="node"><title>Node6</title>
<g id="a_node6"><a xlink:href="sdmm_8c.html#a21ad8e9a107ea2000705a3edfebaaa2d" target="_top" xlink:title="disk_status">
<polygon fill="white" stroke="black" points="418.5,-158.194 418.5,-177.194 485.5,-177.194 485.5,-158.194 418.5,-158.194"/>
<text text-anchor="middle" x="452" y="-165.194" font-family="Helvetica,sans-Serif" font-size="10.00">disk_status</text>
</a>
</g>
</g>
<!-- Node3&#45;&gt;Node6 -->
<g id="edge5" class="edge"><title>Node3&#45;&gt;Node6</title>
<path fill="none" stroke="midnightblue" d="M372.674,-167.694C383.59,-167.694 396.279,-167.694 408.223,-167.694"/>
<polygon fill="midnightblue" stroke="midnightblue" points="408.465,-171.194 418.465,-167.694 408.465,-164.194 408.465,-171.194"/>
</g>
<!-- Node7 -->
<g id="node7" class="node"><title>Node7</title>
<g id="a_node7"><a xlink:href="sdmm_8c.html#a8c99afbc312912297b19752cf7e0960b" target="_top" xlink:title="rcvr_datablock">
<polygon fill="white" stroke="black" points="628,-253.194 628,-272.194 708,-272.194 708,-253.194 628,-253.194"/>
<text text-anchor="middle" x="668" y="-260.194" font-family="Helvetica,sans-Serif" font-size="10.00">rcvr_datablock</text>
</a>
</g>
</g>
<!-- Node3&#45;&gt;Node7 -->
<g id="edge6" class="edge"><title>Node3&#45;&gt;Node7</title>
<path fill="none" stroke="midnightblue" d="M359.776,-177.208C372.845,-184.745 392.109,-195.075 410,-201.694 480.157,-227.651 565.256,-245.296 617.768,-254.683"/>
<polygon fill="midnightblue" stroke="midnightblue" points="617.367,-258.166 627.822,-256.45 618.578,-251.272 617.367,-258.166"/>
</g>
<!-- Node9 -->
<g id="node9" class="node"><title>Node9</title>
<g id="a_node9"><a xlink:href="sdmm_8c.html#a99684b493c8bfdb0288a2e24e52f6871" target="_top" xlink:title="send_cmd">
<polygon fill="white" stroke="black" points="421,-120.194 421,-139.194 483,-139.194 483,-120.194 421,-120.194"/>
<text text-anchor="middle" x="452" y="-127.194" font-family="Helvetica,sans-Serif" font-size="10.00">send_cmd</text>
</a>
</g>
</g>
<!-- Node3&#45;&gt;Node9 -->
<g id="edge9" class="edge"><title>Node3&#45;&gt;Node9</title>
<path fill="none" stroke="midnightblue" d="M371.001,-158.105C384.18,-153.425 400.229,-147.725 414.484,-142.663"/>
<polygon fill="midnightblue" stroke="midnightblue" points="415.756,-145.925 424.008,-139.28 413.413,-139.329 415.756,-145.925"/>
</g>
<!-- Node5 -->
<g id="node5" class="node"><title>Node5</title>
<g id="a_node5"><a xlink:href="sdmm_8c.html#ab628371b03508f9db7c6daf1203ed84d" target="_top" xlink:title="rcvr_mmc">
<polygon fill="white" stroke="black" points="744,-120.194 744,-139.194 804,-139.194 804,-120.194 744,-120.194"/>
<text text-anchor="middle" x="774" y="-127.194" font-family="Helvetica,sans-Serif" font-size="10.00">rcvr_mmc</text>
</a>
</g>
</g>
<!-- Node4&#45;&gt;Node5 -->
<g id="edge4" class="edge"><title>Node4&#45;&gt;Node5</title>
<path fill="none" stroke="midnightblue" d="M694.708,-143.998C706.479,-141.847 720.689,-139.251 733.754,-136.864"/>
<polygon fill="midnightblue" stroke="midnightblue" points="734.71,-140.248 743.918,-135.007 733.452,-133.362 734.71,-140.248"/>
</g>
<!-- Node7&#45;&gt;Node5 -->
<g id="edge7" class="edge"><title>Node7&#45;&gt;Node5</title>
<path fill="none" stroke="midnightblue" d="M688.578,-253.126C695.246,-249.255 702.418,-244.355 708,-238.694 734.429,-211.894 754.531,-172.322 764.98,-148.959"/>
<polygon fill="midnightblue" stroke="midnightblue" points="768.328,-150.037 769.09,-139.47 761.904,-147.255 768.328,-150.037"/>
</g>
<!-- Node8 -->
<g id="node8" class="node"><title>Node8</title>
<g id="a_node8"><a xlink:href="sdmm_8c.html#a76a43e01b9676630e121e5a659acbb3f" target="_top" xlink:title="dly_us">
<polygon fill="white" stroke="black" points="751.5,-215.194 751.5,-234.194 796.5,-234.194 796.5,-215.194 751.5,-215.194"/>
<text text-anchor="middle" x="774" y="-222.194" font-family="Helvetica,sans-Serif" font-size="10.00">dly_us</text>
</a>
</g>
</g>
<!-- Node7&#45;&gt;Node8 -->
<g id="edge8" class="edge"><title>Node7&#45;&gt;Node8</title>
<path fill="none" stroke="midnightblue" d="M695.244,-253.105C709.324,-247.96 726.776,-241.584 741.576,-236.176"/>
<polygon fill="midnightblue" stroke="midnightblue" points="743.133,-239.333 751.325,-232.614 740.731,-232.759 743.133,-239.333"/>
</g>
<!-- Node9&#45;&gt;Node4 -->
<g id="edge10" class="edge"><title>Node9&#45;&gt;Node4</title>
<path fill="none" stroke="midnightblue" d="M483.207,-132.376C522.104,-135.83 589.618,-141.824 631.096,-145.506"/>
<polygon fill="midnightblue" stroke="midnightblue" points="631.03,-149.014 641.3,-146.412 631.649,-142.042 631.03,-149.014"/>
</g>
<!-- Node9&#45;&gt;Node5 -->
<g id="edge18" class="edge"><title>Node9&#45;&gt;Node5</title>
<path fill="none" stroke="midnightblue" d="M475.878,-139.296C520.961,-156.868 624.186,-190.396 708,-167.694 724.244,-163.294 740.59,-153.708 752.827,-145.266"/>
<polygon fill="midnightblue" stroke="midnightblue" points="754.884,-148.097 760.95,-139.411 750.791,-142.418 754.884,-148.097"/>
</g>
<!-- Node10 -->
<g id="node10" class="node"><title>Node10</title>
<g id="a_node10"><a xlink:href="sdmm_8c.html#ab45cb1d47cda5822ce492ad3c11867ae" target="_top" xlink:title="select">
<polygon fill="white" stroke="black" points="539.5,-63.1942 539.5,-82.1942 582.5,-82.1942 582.5,-63.1942 539.5,-63.1942"/>
<text text-anchor="middle" x="561" y="-70.1942" font-family="Helvetica,sans-Serif" font-size="10.00">select</text>
</a>
</g>
</g>
<!-- Node9&#45;&gt;Node10 -->
<g id="edge11" class="edge"><title>Node9&#45;&gt;Node10</title>
<path fill="none" stroke="midnightblue" d="M471.151,-120.025C488.163,-110.963 513.805,-97.3028 533.176,-86.9834"/>
<polygon fill="midnightblue" stroke="midnightblue" points="534.937,-90.0113 542.117,-82.2206 531.646,-83.8333 534.937,-90.0113"/>
</g>
<!-- Node12 -->
<g id="node12" class="node"><title>Node12</title>
<g id="a_node12"><a xlink:href="sdmm_8c.html#ace0af708caf7775204ca74fbd46818bb" target="_top" xlink:title="xmit_mmc">
<polygon fill="white" stroke="black" points="530,-25.1942 530,-44.1942 592,-44.1942 592,-25.1942 530,-25.1942"/>
<text text-anchor="middle" x="561" y="-32.1942" font-family="Helvetica,sans-Serif" font-size="10.00">xmit_mmc</text>
</a>
</g>
</g>
<!-- Node9&#45;&gt;Node12 -->
<g id="edge17" class="edge"><title>Node9&#45;&gt;Node12</title>
<path fill="none" stroke="midnightblue" d="M461.427,-120.145C475.005,-105.054 502.948,-75.2023 530,-53.6942 531.556,-52.4568 533.197,-51.2297 534.875,-50.0299"/>
<polygon fill="midnightblue" stroke="midnightblue" points="537.013,-52.8107 543.372,-44.3371 533.116,-46.9952 537.013,-52.8107"/>
</g>
<!-- Node10&#45;&gt;Node4 -->
<g id="edge16" class="edge"><title>Node10&#45;&gt;Node4</title>
<path fill="none" stroke="midnightblue" d="M573.992,-82.2647C591.495,-96.2151 622.558,-120.895 628,-124.694 632.37,-127.745 637.125,-130.843 641.764,-133.755"/>
<polygon fill="midnightblue" stroke="midnightblue" points="640.057,-136.815 650.411,-139.064 643.72,-130.849 640.057,-136.815"/>
</g>
<!-- Node10&#45;&gt;Node5 -->
<g id="edge12" class="edge"><title>Node10&#45;&gt;Node5</title>
<path fill="none" stroke="midnightblue" d="M582.772,-78.8122C595.751,-82.6007 612.824,-87.5218 628,-91.6942 663.802,-101.537 704.736,-112.212 733.962,-119.734"/>
<polygon fill="midnightblue" stroke="midnightblue" points="733.227,-123.159 743.783,-122.257 734.968,-116.379 733.227,-123.159"/>
</g>
<!-- Node11 -->
<g id="node11" class="node"><title>Node11</title>
<g id="a_node11"><a xlink:href="sdmm_8c.html#a624a19e248af05530dae5c0cc1dddc11" target="_top" xlink:title="wait_ready">
<polygon fill="white" stroke="black" points="636,-63.1942 636,-82.1942 700,-82.1942 700,-63.1942 636,-63.1942"/>
<text text-anchor="middle" x="668" y="-70.1942" font-family="Helvetica,sans-Serif" font-size="10.00">wait_ready</text>
</a>
</g>
</g>
<!-- Node10&#45;&gt;Node11 -->
<g id="edge13" class="edge"><title>Node10&#45;&gt;Node11</title>
<path fill="none" stroke="midnightblue" d="M582.745,-72.6942C594.96,-72.6942 610.85,-72.6942 625.534,-72.6942"/>
<polygon fill="midnightblue" stroke="midnightblue" points="625.943,-76.1943 635.943,-72.6942 625.943,-69.1943 625.943,-76.1943"/>
</g>
<!-- Node11&#45;&gt;Node5 -->
<g id="edge14" class="edge"><title>Node11&#45;&gt;Node5</title>
<path fill="none" stroke="midnightblue" d="M686.642,-82.3634C703.102,-91.3845 727.874,-104.961 746.671,-115.264"/>
<polygon fill="midnightblue" stroke="midnightblue" points="745.167,-118.431 755.618,-120.168 748.531,-112.292 745.167,-118.431"/>
</g>
<!-- Node11&#45;&gt;Node8 -->
<g id="edge15" class="edge"><title>Node11&#45;&gt;Node8</title>
<path fill="none" stroke="midnightblue" d="M675.506,-82.2025C692.505,-107.047 738.467,-174.222 760.668,-206.67"/>
<polygon fill="midnightblue" stroke="midnightblue" points="757.961,-208.913 766.497,-215.189 763.738,-204.96 757.961,-208.913"/>
</g>
<!-- Node14 -->
<g id="node14" class="node"><title>Node14</title>
<g id="a_node14"><a xlink:href="diskio_8h.html#ac4785625f4bb82e33562079813659880" target="_top" xlink:title="disk_write">
<polygon fill="white" stroke="black" points="312.5,-120.194 312.5,-139.194 373.5,-139.194 373.5,-120.194 312.5,-120.194"/>
<text text-anchor="middle" x="343" y="-127.194" font-family="Helvetica,sans-Serif" font-size="10.00">disk_write</text>
</a>
</g>
</g>
<!-- Node13&#45;&gt;Node14 -->
<g id="edge20" class="edge"><title>Node13&#45;&gt;Node14</title>
<path fill="none" stroke="midnightblue" d="M276.185,-129.694C284.624,-129.694 293.621,-129.694 302.165,-129.694"/>
<polygon fill="midnightblue" stroke="midnightblue" points="302.295,-133.194 312.295,-129.694 302.294,-126.194 302.295,-133.194"/>
</g>
<!-- Node14&#45;&gt;Node4 -->
<g id="edge21" class="edge"><title>Node14&#45;&gt;Node4</title>
<path fill="none" stroke="midnightblue" d="M370.603,-120.193C382.491,-116.43 396.776,-112.56 410,-110.694 489.387,-99.4947 582.435,-122.169 631.898,-137.075"/>
<polygon fill="midnightblue" stroke="midnightblue" points="630.895,-140.429 641.482,-140.032 632.958,-133.74 630.895,-140.429"/>
</g>
<!-- Node14&#45;&gt;Node6 -->
<g id="edge22" class="edge"><title>Node14&#45;&gt;Node6</title>
<path fill="none" stroke="midnightblue" d="M371.001,-139.283C384.18,-143.964 400.229,-149.663 414.484,-154.726"/>
<polygon fill="midnightblue" stroke="midnightblue" points="413.413,-158.06 424.008,-158.108 415.756,-151.463 413.413,-158.06"/>
</g>
<!-- Node14&#45;&gt;Node9 -->
<g id="edge23" class="edge"><title>Node14&#45;&gt;Node9</title>
<path fill="none" stroke="midnightblue" d="M373.521,-129.694C385.023,-129.694 398.389,-129.694 410.749,-129.694"/>
<polygon fill="midnightblue" stroke="midnightblue" points="410.831,-133.194 420.831,-129.694 410.831,-126.194 410.831,-133.194"/>
</g>
<!-- Node15 -->
<g id="node15" class="node"><title>Node15</title>
<g id="a_node15"><a xlink:href="sdmm_8c.html#aefbd30f6bdff37184f58faf98ad1c6e0" target="_top" xlink:title="xmit_datablock">
<polygon fill="white" stroke="black" points="410.5,-6.19418 410.5,-25.1942 493.5,-25.1942 493.5,-6.19418 410.5,-6.19418"/>
<text text-anchor="middle" x="452" y="-13.1942" font-family="Helvetica,sans-Serif" font-size="10.00">xmit_datablock</text>
</a>
</g>
</g>
<!-- Node14&#45;&gt;Node15 -->
<g id="edge24" class="edge"><title>Node14&#45;&gt;Node15</title>
<path fill="none" stroke="midnightblue" d="M353.123,-119.975C371.285,-100.624 412.172,-57.0623 434.935,-32.8105"/>
<polygon fill="midnightblue" stroke="midnightblue" points="437.609,-35.0759 441.9,-25.3892 432.505,-30.2853 437.609,-35.0759"/>
</g>
<!-- Node15&#45;&gt;Node5 -->
<g id="edge27" class="edge"><title>Node15&#45;&gt;Node5</title>
<path fill="none" stroke="midnightblue" d="M493.203,-6.14627C521.155,-0.983342 559.145,3.08515 592,-3.69418 646.983,-15.0394 662.806,-20.3876 708,-53.6942 729.934,-69.8592 749.403,-94.7666 761.187,-111.623"/>
<polygon fill="midnightblue" stroke="midnightblue" points="758.397,-113.744 766.909,-120.052 764.188,-109.812 758.397,-113.744"/>
</g>
<!-- Node15&#45;&gt;Node11 -->
<g id="edge25" class="edge"><title>Node15&#45;&gt;Node11</title>
<path fill="none" stroke="midnightblue" d="M493.644,-8.98379C521.964,-5.90581 560.212,-4.98553 592,-15.6942 615.321,-23.5503 637.137,-41.8632 651.162,-55.6264"/>
<polygon fill="midnightblue" stroke="midnightblue" points="648.974,-58.3946 658.471,-63.0908 653.975,-53.4971 648.974,-58.3946"/>
</g>
<!-- Node15&#45;&gt;Node12 -->
<g id="edge26" class="edge"><title>Node15&#45;&gt;Node12</title>
<path fill="none" stroke="midnightblue" d="M493.757,-22.9315C502.239,-24.4375 511.174,-26.0241 519.641,-27.5276"/>
<polygon fill="midnightblue" stroke="midnightblue" points="519.217,-31.0069 529.675,-29.3093 520.441,-24.1148 519.217,-31.0069"/>
</g>
</g>
</svg>
