<?xml version="1.0" encoding="UTF-8" standalone="no"?>
<!DOCTYPE svg PUBLIC "-//W3C//DTD SVG 1.1//EN"
 "http://www.w3.org/Graphics/SVG/1.1/DTD/svg11.dtd">
<!-- Generated by graphviz version 2.36.0 (20140111.2315)
 -->
<!-- Title: dir_find Pages: 1 -->
<svg width="1102pt" height="325pt"
 viewBox="0.00 0.00 1102.00 325.49" xmlns="http://www.w3.org/2000/svg" xmlns:xlink="http://www.w3.org/1999/xlink">
<g id="graph0" class="graph" transform="scale(1 1) rotate(0) translate(4 321.488)">
<title>dir_find</title>
<polygon fill="white" stroke="none" points="-4,4 -4,-321.488 1098,-321.488 1098,4 -4,4"/>
<!-- Node1 -->
<g id="node1" class="node"><title>Node1</title>
<polygon fill="#bfbfbf" stroke="black" points="0,-239.194 0,-258.194 48,-258.194 48,-239.194 0,-239.194"/>
<text text-anchor="middle" x="24" y="-246.194" font-family="Helvetica,sans-Serif" font-size="10.00">dir_find</text>
</g>
<!-- Node2 -->
<g id="node2" class="node"><title>Node2</title>
<g id="a_node2"><a xlink:href="ff_8c.html#aa70eb326eb0c3702ae16adf0b4dce1cc" target="_top" xlink:title="dir_next">
<polygon fill="white" stroke="black" points="89.5,-220.194 89.5,-239.194 140.5,-239.194 140.5,-220.194 89.5,-220.194"/>
<text text-anchor="middle" x="115" y="-227.194" font-family="Helvetica,sans-Serif" font-size="10.00">dir_next</text>
</a>
</g>
</g>
<!-- Node1&#45;&gt;Node2 -->
<g id="edge1" class="edge"><title>Node1&#45;&gt;Node2</title>
<path fill="none" stroke="midnightblue" d="M48.3837,-243.702C57.8086,-241.69 68.8787,-239.327 79.2139,-237.12"/>
<polygon fill="midnightblue" stroke="midnightblue" points="80.1671,-240.496 89.2159,-234.985 78.7055,-233.65 80.1671,-240.496"/>
</g>
<!-- Node4 -->
<g id="node4" class="node"><title>Node4</title>
<g id="a_node4"><a xlink:href="ff_8c.html#af2e8986556ee6644b4bf31fa4158d735" target="_top" xlink:title="move_window">
<polygon fill="white" stroke="black" points="374.5,-177.194 374.5,-196.194 453.5,-196.194 453.5,-177.194 374.5,-177.194"/>
<text text-anchor="middle" x="414" y="-184.194" font-family="Helvetica,sans-Serif" font-size="10.00">move_window</text>
</a>
</g>
</g>
<!-- Node1&#45;&gt;Node4 -->
<g id="edge41" class="edge"><title>Node1&#45;&gt;Node4</title>
<path fill="none" stroke="midnightblue" d="M36.8849,-258.357C48.2845,-267.118 66.3276,-279.699 84,-286.694 154.644,-314.659 181.861,-328.538 254,-304.694 314.898,-284.566 371.488,-231.096 397.7,-203.578"/>
<polygon fill="midnightblue" stroke="midnightblue" points="400.282,-205.942 404.55,-196.245 395.166,-201.164 400.282,-205.942"/>
</g>
<!-- Node22 -->
<g id="node22" class="node"><title>Node22</title>
<g id="a_node22"><a xlink:href="ff_8c.html#ad173ae134b70df2fe9668a90247567ff" target="_top" xlink:title="dir_sdi">
<polygon fill="white" stroke="black" points="92.5,-258.194 92.5,-277.194 137.5,-277.194 137.5,-258.194 92.5,-258.194"/>
<text text-anchor="middle" x="115" y="-265.194" font-family="Helvetica,sans-Serif" font-size="10.00">dir_sdi</text>
</a>
</g>
</g>
<!-- Node1&#45;&gt;Node22 -->
<g id="edge37" class="edge"><title>Node1&#45;&gt;Node22</title>
<path fill="none" stroke="midnightblue" d="M48.3837,-253.686C58.7936,-255.909 71.2105,-258.559 82.4274,-260.954"/>
<polygon fill="midnightblue" stroke="midnightblue" points="81.7889,-264.396 92.2993,-263.061 83.2504,-257.551 81.7889,-264.396"/>
</g>
<!-- Node23 -->
<g id="node23" class="node"><title>Node23</title>
<g id="a_node23"><a xlink:href="ff_8c.html#a38b4f223d18bd4416d8bce0f07a63c01" target="_top" xlink:title="mem_cmp">
<polygon fill="white" stroke="black" points="84,-182.194 84,-201.194 146,-201.194 146,-182.194 84,-182.194"/>
<text text-anchor="middle" x="115" y="-189.194" font-family="Helvetica,sans-Serif" font-size="10.00">mem_cmp</text>
</a>
</g>
</g>
<!-- Node1&#45;&gt;Node23 -->
<g id="edge40" class="edge"><title>Node1&#45;&gt;Node23</title>
<path fill="none" stroke="midnightblue" d="M40.0147,-238.979C51.9266,-231.282 69.0085,-220.269 84,-210.694 85.9419,-209.454 87.9562,-208.171 89.9804,-206.884"/>
<polygon fill="midnightblue" stroke="midnightblue" points="92.1544,-209.65 98.7239,-201.337 88.4048,-203.739 92.1544,-209.65"/>
</g>
<!-- Node3 -->
<g id="node3" class="node"><title>Node3</title>
<g id="a_node3"><a xlink:href="ff_8c.html#a65611adf1626e5e08da77cd33a98dd8b" target="_top" xlink:title="get_fat">
<polygon fill="white" stroke="black" points="290.5,-182.194 290.5,-201.194 337.5,-201.194 337.5,-182.194 290.5,-182.194"/>
<text text-anchor="middle" x="314" y="-189.194" font-family="Helvetica,sans-Serif" font-size="10.00">get_fat</text>
</a>
</g>
</g>
<!-- Node2&#45;&gt;Node3 -->
<g id="edge2" class="edge"><title>Node2&#45;&gt;Node3</title>
<path fill="none" stroke="midnightblue" d="M140.557,-221.761C152.892,-217.998 168.129,-213.682 182,-210.694 215.121,-203.56 253.541,-198.341 280.171,-195.198"/>
<polygon fill="midnightblue" stroke="midnightblue" points="280.578,-198.674 290.113,-194.056 279.779,-191.72 280.578,-198.674"/>
</g>
<!-- Node5 -->
<g id="node5" class="node"><title>Node5</title>
<g id="a_node5"><a xlink:href="ff_8c.html#a5e18753404354b210096f9af99e31bc1" target="_top" xlink:title="sync_window">
<polygon fill="white" stroke="black" points="490,-111.194 490,-130.194 566,-130.194 566,-111.194 490,-111.194"/>
<text text-anchor="middle" x="528" y="-118.194" font-family="Helvetica,sans-Serif" font-size="10.00">sync_window</text>
</a>
</g>
</g>
<!-- Node2&#45;&gt;Node5 -->
<g id="edge34" class="edge"><title>Node2&#45;&gt;Node5</title>
<path fill="none" stroke="midnightblue" d="M134.721,-220.135C138.784,-217.466 142.814,-214.296 146,-210.694 170.766,-182.701 150.829,-155.317 182,-134.694 273.846,-73.9284 411.544,-93.168 481.982,-108.878"/>
<polygon fill="midnightblue" stroke="midnightblue" points="481.343,-112.322 491.873,-111.16 482.916,-105.501 481.343,-112.322"/>
</g>
<!-- Node18 -->
<g id="node18" class="node"><title>Node18</title>
<g id="a_node18"><a xlink:href="ff_8c.html#acbd0a20a17c6f9b6d536490d1cc3c5ac" target="_top" xlink:title="create_chain">
<polygon fill="white" stroke="black" points="182,-144.194 182,-163.194 254,-163.194 254,-144.194 182,-144.194"/>
<text text-anchor="middle" x="218" y="-151.194" font-family="Helvetica,sans-Serif" font-size="10.00">create_chain</text>
</a>
</g>
</g>
<!-- Node2&#45;&gt;Node18 -->
<g id="edge30" class="edge"><title>Node2&#45;&gt;Node18</title>
<path fill="none" stroke="midnightblue" d="M132.236,-220.146C136.801,-217.267 141.692,-213.992 146,-210.694 163.236,-197.502 165.007,-191.198 182,-177.694 185.668,-174.779 189.674,-171.831 193.623,-169.047"/>
<polygon fill="midnightblue" stroke="midnightblue" points="195.754,-171.829 202.024,-163.289 191.797,-166.055 195.754,-171.829"/>
</g>
<!-- Node20 -->
<g id="node20" class="node"><title>Node20</title>
<g id="a_node20"><a xlink:href="ff_8c.html#a02eb5189e43056a9ddc8a59cbe89be93" target="_top" xlink:title="mem_set">
<polygon fill="white" stroke="black" points="189.5,-220.194 189.5,-239.194 246.5,-239.194 246.5,-220.194 189.5,-220.194"/>
<text text-anchor="middle" x="218" y="-227.194" font-family="Helvetica,sans-Serif" font-size="10.00">mem_set</text>
</a>
</g>
</g>
<!-- Node2&#45;&gt;Node20 -->
<g id="edge35" class="edge"><title>Node2&#45;&gt;Node20</title>
<path fill="none" stroke="midnightblue" d="M140.707,-229.694C152.32,-229.694 166.42,-229.694 179.323,-229.694"/>
<polygon fill="midnightblue" stroke="midnightblue" points="179.345,-233.194 189.345,-229.694 179.345,-226.194 179.345,-233.194"/>
</g>
<!-- Node21 -->
<g id="node21" class="node"><title>Node21</title>
<g id="a_node21"><a xlink:href="ff_8c.html#a7519abb60fe91f6aa1d17f64fbae123a" target="_top" xlink:title="clust2sect">
<polygon fill="white" stroke="black" points="187,-258.194 187,-277.194 249,-277.194 249,-258.194 187,-258.194"/>
<text text-anchor="middle" x="218" y="-265.194" font-family="Helvetica,sans-Serif" font-size="10.00">clust2sect</text>
</a>
</g>
</g>
<!-- Node2&#45;&gt;Node21 -->
<g id="edge36" class="edge"><title>Node2&#45;&gt;Node21</title>
<path fill="none" stroke="midnightblue" d="M140.707,-238.99C153.114,-243.658 168.359,-249.394 181.952,-254.508"/>
<polygon fill="midnightblue" stroke="midnightblue" points="180.901,-257.852 191.493,-258.098 183.366,-251.3 180.901,-257.852"/>
</g>
<!-- Node3&#45;&gt;Node4 -->
<g id="edge3" class="edge"><title>Node3&#45;&gt;Node4</title>
<path fill="none" stroke="midnightblue" d="M337.729,-190.535C345.702,-190.128 354.992,-189.654 364.269,-189.18"/>
<polygon fill="midnightblue" stroke="midnightblue" points="364.459,-192.675 374.268,-188.67 364.102,-185.684 364.459,-192.675"/>
</g>
<!-- Node4&#45;&gt;Node5 -->
<g id="edge4" class="edge"><title>Node4&#45;&gt;Node5</title>
<path fill="none" stroke="midnightblue" d="M431.526,-176.956C450.078,-166.023 480.389,-148.161 501.877,-135.499"/>
<polygon fill="midnightblue" stroke="midnightblue" points="503.932,-138.35 510.77,-130.258 500.378,-132.32 503.932,-138.35"/>
</g>
<!-- Node16 -->
<g id="node16" class="node"><title>Node16</title>
<g id="a_node16"><a xlink:href="diskio_8h.html#ac0c802f8a12fa2047b4bec7109b9293f" target="_top" xlink:title="disk_read">
<polygon fill="white" stroke="black" points="603.5,-177.194 603.5,-196.194 662.5,-196.194 662.5,-177.194 603.5,-177.194"/>
<text text-anchor="middle" x="633" y="-184.194" font-family="Helvetica,sans-Serif" font-size="10.00">disk_read</text>
</a>
</g>
</g>
<!-- Node4&#45;&gt;Node16 -->
<g id="edge23" class="edge"><title>Node4&#45;&gt;Node16</title>
<path fill="none" stroke="midnightblue" d="M453.795,-186.694C493.187,-186.694 553.836,-186.694 593.221,-186.694"/>
<polygon fill="midnightblue" stroke="midnightblue" points="593.24,-190.194 603.24,-186.694 593.24,-183.194 593.24,-190.194"/>
</g>
<!-- Node6 -->
<g id="node6" class="node"><title>Node6</title>
<g id="a_node6"><a xlink:href="diskio_8h.html#ac4785625f4bb82e33562079813659880" target="_top" xlink:title="disk_write">
<polygon fill="white" stroke="black" points="602.5,-111.194 602.5,-130.194 663.5,-130.194 663.5,-111.194 602.5,-111.194"/>
<text text-anchor="middle" x="633" y="-118.194" font-family="Helvetica,sans-Serif" font-size="10.00">disk_write</text>
</a>
</g>
</g>
<!-- Node5&#45;&gt;Node6 -->
<g id="edge5" class="edge"><title>Node5&#45;&gt;Node6</title>
<path fill="none" stroke="midnightblue" d="M566.185,-120.694C574.624,-120.694 583.621,-120.694 592.165,-120.694"/>
<polygon fill="midnightblue" stroke="midnightblue" points="592.295,-124.194 602.295,-120.694 592.294,-117.194 592.295,-124.194"/>
</g>
<!-- Node7 -->
<g id="node7" class="node"><title>Node7</title>
<g id="a_node7"><a xlink:href="sdmm_8c.html#ac0eadae94de728461ccade9e03fafd8c" target="_top" xlink:title="deselect">
<polygon fill="white" stroke="black" points="931.5,-139.194 931.5,-158.194 984.5,-158.194 984.5,-139.194 931.5,-139.194"/>
<text text-anchor="middle" x="958" y="-146.194" font-family="Helvetica,sans-Serif" font-size="10.00">deselect</text>
</a>
</g>
</g>
<!-- Node6&#45;&gt;Node7 -->
<g id="edge6" class="edge"><title>Node6&#45;&gt;Node7</title>
<path fill="none" stroke="midnightblue" d="M663.79,-115.209C675.088,-113.385 688.097,-111.591 700,-110.694 737.228,-107.89 746.885,-106.666 784,-110.694 832.415,-115.949 887.135,-129.244 921.831,-138.622"/>
<polygon fill="midnightblue" stroke="midnightblue" points="920.925,-142.002 931.495,-141.272 922.777,-135.252 920.925,-142.002"/>
</g>
<!-- Node9 -->
<g id="node9" class="node"><title>Node9</title>
<g id="a_node9"><a xlink:href="sdmm_8c.html#a21ad8e9a107ea2000705a3edfebaaa2d" target="_top" xlink:title="disk_status">
<polygon fill="white" stroke="black" points="708.5,-158.194 708.5,-177.194 775.5,-177.194 775.5,-158.194 708.5,-158.194"/>
<text text-anchor="middle" x="742" y="-165.194" font-family="Helvetica,sans-Serif" font-size="10.00">disk_status</text>
</a>
</g>
</g>
<!-- Node6&#45;&gt;Node9 -->
<g id="edge8" class="edge"><title>Node6&#45;&gt;Node9</title>
<path fill="none" stroke="midnightblue" d="M655.653,-130.205C671.213,-137.04 692.425,-146.357 709.808,-153.993"/>
<polygon fill="midnightblue" stroke="midnightblue" points="708.449,-157.219 719.012,-158.036 711.264,-150.81 708.449,-157.219"/>
</g>
<!-- Node10 -->
<g id="node10" class="node"><title>Node10</title>
<g id="a_node10"><a xlink:href="sdmm_8c.html#a99684b493c8bfdb0288a2e24e52f6871" target="_top" xlink:title="send_cmd">
<polygon fill="white" stroke="black" points="711,-120.194 711,-139.194 773,-139.194 773,-120.194 711,-120.194"/>
<text text-anchor="middle" x="742" y="-127.194" font-family="Helvetica,sans-Serif" font-size="10.00">send_cmd</text>
</a>
</g>
</g>
<!-- Node6&#45;&gt;Node10 -->
<g id="edge9" class="edge"><title>Node6&#45;&gt;Node10</title>
<path fill="none" stroke="midnightblue" d="M663.521,-123.177C675.023,-124.145 688.389,-125.269 700.749,-126.309"/>
<polygon fill="midnightblue" stroke="midnightblue" points="700.572,-129.806 710.831,-127.157 701.159,-122.831 700.572,-129.806"/>
</g>
<!-- Node15 -->
<g id="node15" class="node"><title>Node15</title>
<g id="a_node15"><a xlink:href="sdmm_8c.html#aefbd30f6bdff37184f58faf98ad1c6e0" target="_top" xlink:title="xmit_datablock">
<polygon fill="white" stroke="black" points="700.5,-6.19418 700.5,-25.1942 783.5,-25.1942 783.5,-6.19418 700.5,-6.19418"/>
<text text-anchor="middle" x="742" y="-13.1942" font-family="Helvetica,sans-Serif" font-size="10.00">xmit_datablock</text>
</a>
</g>
</g>
<!-- Node6&#45;&gt;Node15 -->
<g id="edge19" class="edge"><title>Node6&#45;&gt;Node15</title>
<path fill="none" stroke="midnightblue" d="M643.875,-111.004C662.109,-93.111 701.262,-54.6891 723.894,-32.48"/>
<polygon fill="midnightblue" stroke="midnightblue" points="726.463,-34.8629 731.149,-25.3607 721.56,-29.8667 726.463,-34.8629"/>
</g>
<!-- Node8 -->
<g id="node8" class="node"><title>Node8</title>
<g id="a_node8"><a xlink:href="sdmm_8c.html#ab628371b03508f9db7c6daf1203ed84d" target="_top" xlink:title="rcvr_mmc">
<polygon fill="white" stroke="black" points="1034,-120.194 1034,-139.194 1094,-139.194 1094,-120.194 1034,-120.194"/>
<text text-anchor="middle" x="1064" y="-127.194" font-family="Helvetica,sans-Serif" font-size="10.00">rcvr_mmc</text>
</a>
</g>
</g>
<!-- Node7&#45;&gt;Node8 -->
<g id="edge7" class="edge"><title>Node7&#45;&gt;Node8</title>
<path fill="none" stroke="midnightblue" d="M984.708,-143.998C996.479,-141.847 1010.69,-139.251 1023.75,-136.864"/>
<polygon fill="midnightblue" stroke="midnightblue" points="1024.71,-140.248 1033.92,-135.007 1023.45,-133.362 1024.71,-140.248"/>
</g>
<!-- Node10&#45;&gt;Node7 -->
<g id="edge10" class="edge"><title>Node10&#45;&gt;Node7</title>
<path fill="none" stroke="midnightblue" d="M773.207,-132.376C812.104,-135.83 879.618,-141.824 921.096,-145.506"/>
<polygon fill="midnightblue" stroke="midnightblue" points="921.03,-149.014 931.3,-146.412 921.649,-142.042 921.03,-149.014"/>
</g>
<!-- Node10&#45;&gt;Node8 -->
<g id="edge18" class="edge"><title>Node10&#45;&gt;Node8</title>
<path fill="none" stroke="midnightblue" d="M765.878,-139.296C810.961,-156.868 914.186,-190.396 998,-167.694 1014.24,-163.294 1030.59,-153.708 1042.83,-145.266"/>
<polygon fill="midnightblue" stroke="midnightblue" points="1044.88,-148.097 1050.95,-139.411 1040.79,-142.418 1044.88,-148.097"/>
</g>
<!-- Node11 -->
<g id="node11" class="node"><title>Node11</title>
<g id="a_node11"><a xlink:href="sdmm_8c.html#ab45cb1d47cda5822ce492ad3c11867ae" target="_top" xlink:title="select">
<polygon fill="white" stroke="black" points="829.5,-63.1942 829.5,-82.1942 872.5,-82.1942 872.5,-63.1942 829.5,-63.1942"/>
<text text-anchor="middle" x="851" y="-70.1942" font-family="Helvetica,sans-Serif" font-size="10.00">select</text>
</a>
</g>
</g>
<!-- Node10&#45;&gt;Node11 -->
<g id="edge11" class="edge"><title>Node10&#45;&gt;Node11</title>
<path fill="none" stroke="midnightblue" d="M761.151,-120.025C778.163,-110.963 803.805,-97.3028 823.176,-86.9834"/>
<polygon fill="midnightblue" stroke="midnightblue" points="824.937,-90.0113 832.117,-82.2206 821.646,-83.8333 824.937,-90.0113"/>
</g>
<!-- Node14 -->
<g id="node14" class="node"><title>Node14</title>
<g id="a_node14"><a xlink:href="sdmm_8c.html#ace0af708caf7775204ca74fbd46818bb" target="_top" xlink:title="xmit_mmc">
<polygon fill="white" stroke="black" points="820,-25.1942 820,-44.1942 882,-44.1942 882,-25.1942 820,-25.1942"/>
<text text-anchor="middle" x="851" y="-32.1942" font-family="Helvetica,sans-Serif" font-size="10.00">xmit_mmc</text>
</a>
</g>
</g>
<!-- Node10&#45;&gt;Node14 -->
<g id="edge17" class="edge"><title>Node10&#45;&gt;Node14</title>
<path fill="none" stroke="midnightblue" d="M751.427,-120.145C765.005,-105.054 792.948,-75.2023 820,-53.6942 821.556,-52.4568 823.197,-51.2297 824.875,-50.0299"/>
<polygon fill="midnightblue" stroke="midnightblue" points="827.013,-52.8107 833.372,-44.3371 823.116,-46.9952 827.013,-52.8107"/>
</g>
<!-- Node11&#45;&gt;Node7 -->
<g id="edge16" class="edge"><title>Node11&#45;&gt;Node7</title>
<path fill="none" stroke="midnightblue" d="M863.992,-82.2647C881.495,-96.2151 912.558,-120.895 918,-124.694 922.37,-127.745 927.125,-130.843 931.764,-133.755"/>
<polygon fill="midnightblue" stroke="midnightblue" points="930.057,-136.815 940.411,-139.064 933.72,-130.849 930.057,-136.815"/>
</g>
<!-- Node11&#45;&gt;Node8 -->
<g id="edge12" class="edge"><title>Node11&#45;&gt;Node8</title>
<path fill="none" stroke="midnightblue" d="M872.772,-78.8122C885.751,-82.6007 902.824,-87.5218 918,-91.6942 953.802,-101.537 994.736,-112.212 1023.96,-119.734"/>
<polygon fill="midnightblue" stroke="midnightblue" points="1023.23,-123.159 1033.78,-122.257 1024.97,-116.379 1023.23,-123.159"/>
</g>
<!-- Node12 -->
<g id="node12" class="node"><title>Node12</title>
<g id="a_node12"><a xlink:href="sdmm_8c.html#a624a19e248af05530dae5c0cc1dddc11" target="_top" xlink:title="wait_ready">
<polygon fill="white" stroke="black" points="926,-63.1942 926,-82.1942 990,-82.1942 990,-63.1942 926,-63.1942"/>
<text text-anchor="middle" x="958" y="-70.1942" font-family="Helvetica,sans-Serif" font-size="10.00">wait_ready</text>
</a>
</g>
</g>
<!-- Node11&#45;&gt;Node12 -->
<g id="edge13" class="edge"><title>Node11&#45;&gt;Node12</title>
<path fill="none" stroke="midnightblue" d="M872.745,-72.6942C884.96,-72.6942 900.85,-72.6942 915.534,-72.6942"/>
<polygon fill="midnightblue" stroke="midnightblue" points="915.943,-76.1943 925.943,-72.6942 915.943,-69.1943 915.943,-76.1943"/>
</g>
<!-- Node12&#45;&gt;Node8 -->
<g id="edge14" class="edge"><title>Node12&#45;&gt;Node8</title>
<path fill="none" stroke="midnightblue" d="M976.642,-82.3634C993.102,-91.3845 1017.87,-104.961 1036.67,-115.264"/>
<polygon fill="midnightblue" stroke="midnightblue" points="1035.17,-118.431 1045.62,-120.168 1038.53,-112.292 1035.17,-118.431"/>
</g>
<!-- Node13 -->
<g id="node13" class="node"><title>Node13</title>
<g id="a_node13"><a xlink:href="sdmm_8c.html#a76a43e01b9676630e121e5a659acbb3f" target="_top" xlink:title="dly_us">
<polygon fill="white" stroke="black" points="1041.5,-215.194 1041.5,-234.194 1086.5,-234.194 1086.5,-215.194 1041.5,-215.194"/>
<text text-anchor="middle" x="1064" y="-222.194" font-family="Helvetica,sans-Serif" font-size="10.00">dly_us</text>
</a>
</g>
</g>
<!-- Node12&#45;&gt;Node13 -->
<g id="edge15" class="edge"><title>Node12&#45;&gt;Node13</title>
<path fill="none" stroke="midnightblue" d="M965.506,-82.2025C982.505,-107.047 1028.47,-174.222 1050.67,-206.67"/>
<polygon fill="midnightblue" stroke="midnightblue" points="1047.96,-208.913 1056.5,-215.189 1053.74,-204.96 1047.96,-208.913"/>
</g>
<!-- Node15&#45;&gt;Node8 -->
<g id="edge22" class="edge"><title>Node15&#45;&gt;Node8</title>
<path fill="none" stroke="midnightblue" d="M783.203,-6.14627C811.155,-0.983342 849.145,3.08515 882,-3.69418 936.983,-15.0394 952.806,-20.3876 998,-53.6942 1019.93,-69.8592 1039.4,-94.7666 1051.19,-111.623"/>
<polygon fill="midnightblue" stroke="midnightblue" points="1048.4,-113.744 1056.91,-120.052 1054.19,-109.812 1048.4,-113.744"/>
</g>
<!-- Node15&#45;&gt;Node12 -->
<g id="edge20" class="edge"><title>Node15&#45;&gt;Node12</title>
<path fill="none" stroke="midnightblue" d="M783.644,-8.98379C811.964,-5.90581 850.212,-4.98553 882,-15.6942 905.321,-23.5503 927.137,-41.8632 941.162,-55.6264"/>
<polygon fill="midnightblue" stroke="midnightblue" points="938.974,-58.3946 948.471,-63.0908 943.975,-53.4971 938.974,-58.3946"/>
</g>
<!-- Node15&#45;&gt;Node14 -->
<g id="edge21" class="edge"><title>Node15&#45;&gt;Node14</title>
<path fill="none" stroke="midnightblue" d="M783.757,-22.9315C792.239,-24.4375 801.174,-26.0241 809.641,-27.5276"/>
<polygon fill="midnightblue" stroke="midnightblue" points="809.217,-31.0069 819.675,-29.3093 810.441,-24.1148 809.217,-31.0069"/>
</g>
<!-- Node16&#45;&gt;Node7 -->
<g id="edge24" class="edge"><title>Node16&#45;&gt;Node7</title>
<path fill="none" stroke="midnightblue" d="M662.576,-188.521C692.83,-190.03 741.929,-191.26 784,-186.694 832.415,-181.44 887.135,-168.144 921.831,-158.767"/>
<polygon fill="midnightblue" stroke="midnightblue" points="922.777,-162.137 931.495,-156.116 920.925,-155.386 922.777,-162.137"/>
</g>
<!-- Node16&#45;&gt;Node9 -->
<g id="edge25" class="edge"><title>Node16&#45;&gt;Node9</title>
<path fill="none" stroke="midnightblue" d="M662.674,-181.603C673.701,-179.645 686.535,-177.366 698.585,-175.226"/>
<polygon fill="midnightblue" stroke="midnightblue" points="699.231,-178.666 708.465,-173.471 698.007,-171.774 699.231,-178.666"/>
</g>
<!-- Node16&#45;&gt;Node10 -->
<g id="edge29" class="edge"><title>Node16&#45;&gt;Node10</title>
<path fill="none" stroke="midnightblue" d="M649.785,-177.079C663.021,-169.145 682.509,-157.76 700,-148.694 703.33,-146.968 706.847,-145.224 710.364,-143.529"/>
<polygon fill="midnightblue" stroke="midnightblue" points="711.992,-146.631 719.547,-139.202 709.009,-140.298 711.992,-146.631"/>
</g>
<!-- Node17 -->
<g id="node17" class="node"><title>Node17</title>
<g id="a_node17"><a xlink:href="sdmm_8c.html#a8c99afbc312912297b19752cf7e0960b" target="_top" xlink:title="rcvr_datablock">
<polygon fill="white" stroke="black" points="918,-253.194 918,-272.194 998,-272.194 998,-253.194 918,-253.194"/>
<text text-anchor="middle" x="958" y="-260.194" font-family="Helvetica,sans-Serif" font-size="10.00">rcvr_datablock</text>
</a>
</g>
</g>
<!-- Node16&#45;&gt;Node17 -->
<g id="edge26" class="edge"><title>Node16&#45;&gt;Node17</title>
<path fill="none" stroke="midnightblue" d="M662.576,-193.678C674.184,-196.5 687.727,-199.774 700,-202.694 772.293,-219.895 856.138,-239.384 907.882,-251.357"/>
<polygon fill="midnightblue" stroke="midnightblue" points="907.258,-254.805 917.789,-253.649 908.835,-247.985 907.258,-254.805"/>
</g>
<!-- Node17&#45;&gt;Node8 -->
<g id="edge27" class="edge"><title>Node17&#45;&gt;Node8</title>
<path fill="none" stroke="midnightblue" d="M978.578,-253.126C985.246,-249.255 992.418,-244.355 998,-238.694 1024.43,-211.894 1044.53,-172.322 1054.98,-148.959"/>
<polygon fill="midnightblue" stroke="midnightblue" points="1058.33,-150.037 1059.09,-139.47 1051.9,-147.255 1058.33,-150.037"/>
</g>
<!-- Node17&#45;&gt;Node13 -->
<g id="edge28" class="edge"><title>Node17&#45;&gt;Node13</title>
<path fill="none" stroke="midnightblue" d="M985.244,-253.105C999.324,-247.96 1016.78,-241.584 1031.58,-236.176"/>
<polygon fill="midnightblue" stroke="midnightblue" points="1033.13,-239.333 1041.32,-232.614 1030.73,-232.759 1033.13,-239.333"/>
</g>
<!-- Node18&#45;&gt;Node3 -->
<g id="edge31" class="edge"><title>Node18&#45;&gt;Node3</title>
<path fill="none" stroke="midnightblue" d="M242.72,-163.283C254.222,-167.933 268.211,-173.588 280.672,-178.625"/>
<polygon fill="midnightblue" stroke="midnightblue" points="279.677,-181.998 290.26,-182.501 282.301,-175.509 279.677,-181.998"/>
</g>
<!-- Node19 -->
<g id="node19" class="node"><title>Node19</title>
<g id="a_node19"><a xlink:href="ff_8c.html#abd4b6b071a8d728a88727051c12bc6d7" target="_top" xlink:title="put_fat">
<polygon fill="white" stroke="black" points="290.5,-144.194 290.5,-163.194 337.5,-163.194 337.5,-144.194 290.5,-144.194"/>
<text text-anchor="middle" x="314" y="-151.194" font-family="Helvetica,sans-Serif" font-size="10.00">put_fat</text>
</a>
</g>
</g>
<!-- Node18&#45;&gt;Node19 -->
<g id="edge32" class="edge"><title>Node18&#45;&gt;Node19</title>
<path fill="none" stroke="midnightblue" d="M254.002,-153.694C262.517,-153.694 271.595,-153.694 280.013,-153.694"/>
<polygon fill="midnightblue" stroke="midnightblue" points="280.23,-157.194 290.23,-153.694 280.23,-150.194 280.23,-157.194"/>
</g>
<!-- Node19&#45;&gt;Node4 -->
<g id="edge33" class="edge"><title>Node19&#45;&gt;Node4</title>
<path fill="none" stroke="midnightblue" d="M337.729,-161.348C348.794,-165.074 362.397,-169.654 374.98,-173.892"/>
<polygon fill="midnightblue" stroke="midnightblue" points="374.192,-177.319 384.786,-177.193 376.426,-170.685 374.192,-177.319"/>
</g>
<!-- Node22&#45;&gt;Node3 -->
<g id="edge38" class="edge"><title>Node22&#45;&gt;Node3</title>
<path fill="none" stroke="midnightblue" d="M135.207,-277.318C163.186,-289.863 215.955,-307.851 254,-286.694 283.003,-270.565 299.579,-233.622 307.393,-210.851"/>
<polygon fill="midnightblue" stroke="midnightblue" points="310.755,-211.827 310.46,-201.237 304.086,-209.699 310.755,-211.827"/>
</g>
<!-- Node22&#45;&gt;Node21 -->
<g id="edge39" class="edge"><title>Node22&#45;&gt;Node21</title>
<path fill="none" stroke="midnightblue" d="M137.915,-267.694C149.177,-267.694 163.267,-267.694 176.421,-267.694"/>
<polygon fill="midnightblue" stroke="midnightblue" points="176.699,-271.194 186.699,-267.694 176.699,-264.194 176.699,-271.194"/>
</g>
</g>
</svg>
