<?xml version="1.0" encoding="UTF-8" standalone="no"?>
<!DOCTYPE svg PUBLIC "-//W3C//DTD SVG 1.1//EN"
 "http://www.w3.org/Graphics/SVG/1.1/DTD/svg11.dtd">
<!-- Generated by graphviz version 2.36.0 (20140111.2315)
 -->
<!-- Title: dir_register Pages: 1 -->
<svg width="1216pt" height="481pt"
 viewBox="0.00 0.00 1216.00 480.74" xmlns="http://www.w3.org/2000/svg" xmlns:xlink="http://www.w3.org/1999/xlink">
<g id="graph0" class="graph" transform="scale(1 1) rotate(0) translate(4 476.742)">
<title>dir_register</title>
<polygon fill="white" stroke="none" points="-4,4 -4,-476.742 1212,-476.742 1212,4 -4,4"/>
<!-- Node1 -->
<g id="node1" class="node"><title>Node1</title>
<polygon fill="#bfbfbf" stroke="black" points="0.5,-152.5 0.5,-171.5 65.5,-171.5 65.5,-152.5 0.5,-152.5"/>
<text text-anchor="middle" x="33" y="-159.5" font-family="Helvetica,sans-Serif" font-size="10.00">dir_register</text>
</g>
<!-- Node2 -->
<g id="node2" class="node"><title>Node2</title>
<g id="a_node2"><a xlink:href="ff_8c.html#a42a5806b264207143a41d58a4c9ff9f1" target="_top" xlink:title="dir_alloc">
<polygon fill="white" stroke="black" points="105.5,-228.5 105.5,-247.5 158.5,-247.5 158.5,-228.5 105.5,-228.5"/>
<text text-anchor="middle" x="132" y="-235.5" font-family="Helvetica,sans-Serif" font-size="10.00">dir_alloc</text>
</a>
</g>
</g>
<!-- Node1&#45;&gt;Node2 -->
<g id="edge1" class="edge"><title>Node1&#45;&gt;Node2</title>
<path fill="none" stroke="midnightblue" d="M46.2851,-171.625C62.5383,-184.36 91.3981,-206.972 110.862,-222.222"/>
<polygon fill="midnightblue" stroke="midnightblue" points="108.784,-225.04 118.815,-228.453 113.102,-219.53 108.784,-225.04"/>
</g>
<!-- Node3 -->
<g id="node3" class="node"><title>Node3</title>
<g id="a_node3"><a xlink:href="ff_8c.html#aa70eb326eb0c3702ae16adf0b4dce1cc" target="_top" xlink:title="dir_next">
<polygon fill="white" stroke="black" points="203.5,-228.5 203.5,-247.5 254.5,-247.5 254.5,-228.5 203.5,-228.5"/>
<text text-anchor="middle" x="229" y="-235.5" font-family="Helvetica,sans-Serif" font-size="10.00">dir_next</text>
</a>
</g>
</g>
<!-- Node1&#45;&gt;Node3 -->
<g id="edge47" class="edge"><title>Node1&#45;&gt;Node3</title>
<path fill="none" stroke="midnightblue" d="M37.3895,-171.593C45.1373,-191.852 66.2819,-238.641 102,-257 132.706,-272.783 172.8,-262.261 199.425,-251.642"/>
<polygon fill="midnightblue" stroke="midnightblue" points="201.077,-254.743 208.922,-247.621 198.348,-248.297 201.077,-254.743"/>
</g>
<!-- Node7 -->
<g id="node7" class="node"><title>Node7</title>
<g id="a_node7"><a xlink:href="ff_8c.html#af2e8986556ee6644b4bf31fa4158d735" target="_top" xlink:title="move_window">
<polygon fill="white" stroke="black" points="488.5,-247.5 488.5,-266.5 567.5,-266.5 567.5,-247.5 488.5,-247.5"/>
<text text-anchor="middle" x="528" y="-254.5" font-family="Helvetica,sans-Serif" font-size="10.00">move_window</text>
</a>
</g>
</g>
<!-- Node1&#45;&gt;Node7 -->
<g id="edge51" class="edge"><title>Node1&#45;&gt;Node7</title>
<path fill="none" stroke="midnightblue" d="M42.594,-152.28C67.9729,-124.712 145.963,-48 228,-48 228,-48 228,-48 333,-48 436.07,-48 499.803,-186.227 520.013,-237.855"/>
<polygon fill="midnightblue" stroke="midnightblue" points="516.844,-239.369 523.664,-247.477 523.389,-236.885 516.844,-239.369"/>
</g>
<!-- Node22 -->
<g id="node22" class="node"><title>Node22</title>
<g id="a_node22"><a xlink:href="ff_8c.html#a02eb5189e43056a9ddc8a59cbe89be93" target="_top" xlink:title="mem_set">
<polygon fill="white" stroke="black" points="303.5,-114.5 303.5,-133.5 360.5,-133.5 360.5,-114.5 303.5,-114.5"/>
<text text-anchor="middle" x="332" y="-121.5" font-family="Helvetica,sans-Serif" font-size="10.00">mem_set</text>
</a>
</g>
</g>
<!-- Node1&#45;&gt;Node22 -->
<g id="edge50" class="edge"><title>Node1&#45;&gt;Node22</title>
<path fill="none" stroke="midnightblue" d="M63.5073,-152.439C75.3547,-148.948 89.2112,-145.296 102,-143 168.664,-131.033 247.624,-126.582 293.252,-124.942"/>
<polygon fill="midnightblue" stroke="midnightblue" points="293.408,-128.438 303.286,-124.607 293.175,-121.442 293.408,-128.438"/>
</g>
<!-- Node23 -->
<g id="node23" class="node"><title>Node23</title>
<g id="a_node23"><a xlink:href="ff_8c.html#ad173ae134b70df2fe9668a90247567ff" target="_top" xlink:title="dir_sdi">
<polygon fill="white" stroke="black" points="206.5,-190.5 206.5,-209.5 251.5,-209.5 251.5,-190.5 206.5,-190.5"/>
<text text-anchor="middle" x="229" y="-197.5" font-family="Helvetica,sans-Serif" font-size="10.00">dir_sdi</text>
</a>
</g>
</g>
<!-- Node1&#45;&gt;Node23 -->
<g id="edge48" class="edge"><title>Node1&#45;&gt;Node23</title>
<path fill="none" stroke="midnightblue" d="M64.9446,-171.511C76.4961,-174.832 89.7746,-178.381 102,-181 133.798,-187.813 170.624,-193.066 196.218,-196.305"/>
<polygon fill="midnightblue" stroke="midnightblue" points="196.099,-199.817 206.452,-197.568 196.957,-192.87 196.099,-199.817"/>
</g>
<!-- Node24 -->
<g id="node24" class="node"><title>Node24</title>
<g id="a_node24"><a xlink:href="ff_8c.html#a809fe0feb8e7a864bc048cbd22cc0702" target="_top" xlink:title="dir_find">
<polygon fill="white" stroke="black" points="108,-152.5 108,-171.5 156,-171.5 156,-152.5 108,-152.5"/>
<text text-anchor="middle" x="132" y="-159.5" font-family="Helvetica,sans-Serif" font-size="10.00">dir_find</text>
</a>
</g>
</g>
<!-- Node1&#45;&gt;Node24 -->
<g id="edge42" class="edge"><title>Node1&#45;&gt;Node24</title>
<path fill="none" stroke="midnightblue" d="M65.7614,-162C75.9313,-162 87.2205,-162 97.5097,-162"/>
<polygon fill="midnightblue" stroke="midnightblue" points="97.7815,-165.5 107.781,-162 97.7815,-158.5 97.7815,-165.5"/>
</g>
<!-- Node26 -->
<g id="node26" class="node"><title>Node26</title>
<g id="a_node26"><a xlink:href="ff_8c.html#a8941d573d16af92c8570950d53164f30" target="_top" xlink:title="mem_cpy">
<polygon fill="white" stroke="black" points="102.5,-0.5 102.5,-19.5 161.5,-19.5 161.5,-0.5 102.5,-0.5"/>
<text text-anchor="middle" x="132" y="-7.5" font-family="Helvetica,sans-Serif" font-size="10.00">mem_cpy</text>
</a>
</g>
</g>
<!-- Node1&#45;&gt;Node26 -->
<g id="edge49" class="edge"><title>Node1&#45;&gt;Node26</title>
<path fill="none" stroke="midnightblue" d="M37.6424,-152.243C46.3487,-129.754 70.0436,-73.2042 102,-34 104.188,-31.3152 106.714,-28.7135 109.343,-26.2754"/>
<polygon fill="midnightblue" stroke="midnightblue" points="111.936,-28.6656 117.307,-19.5329 107.413,-23.3232 111.936,-28.6656"/>
</g>
<!-- Node2&#45;&gt;Node3 -->
<g id="edge2" class="edge"><title>Node2&#45;&gt;Node3</title>
<path fill="none" stroke="midnightblue" d="M158.959,-238C169.559,-238 181.974,-238 193.331,-238"/>
<polygon fill="midnightblue" stroke="midnightblue" points="193.381,-241.5 203.381,-238 193.381,-234.5 193.381,-241.5"/>
</g>
<!-- Node2&#45;&gt;Node7 -->
<g id="edge41" class="edge"><title>Node2&#45;&gt;Node7</title>
<path fill="none" stroke="midnightblue" d="M153.502,-247.7C183.827,-261.456 242.799,-285.966 296,-295 364.355,-306.607 384.564,-311.109 452,-295 470.75,-290.521 490.116,-280.55 504.471,-271.945"/>
<polygon fill="midnightblue" stroke="midnightblue" points="506.483,-274.815 513.124,-266.559 502.785,-268.872 506.483,-274.815"/>
</g>
<!-- Node2&#45;&gt;Node23 -->
<g id="edge38" class="edge"><title>Node2&#45;&gt;Node23</title>
<path fill="none" stroke="midnightblue" d="M156.973,-228.411C169.062,-223.575 183.871,-217.652 196.833,-212.467"/>
<polygon fill="midnightblue" stroke="midnightblue" points="198.324,-215.64 206.309,-208.676 195.725,-209.141 198.324,-215.64"/>
</g>
<!-- Node4 -->
<g id="node4" class="node"><title>Node4</title>
<g id="a_node4"><a xlink:href="ff_8c.html#a7519abb60fe91f6aa1d17f64fbae123a" target="_top" xlink:title="clust2sect">
<polygon fill="white" stroke="black" points="301,-190.5 301,-209.5 363,-209.5 363,-190.5 301,-190.5"/>
<text text-anchor="middle" x="332" y="-197.5" font-family="Helvetica,sans-Serif" font-size="10.00">clust2sect</text>
</a>
</g>
</g>
<!-- Node3&#45;&gt;Node4 -->
<g id="edge3" class="edge"><title>Node3&#45;&gt;Node4</title>
<path fill="none" stroke="midnightblue" d="M254.707,-228.704C267.114,-224.036 282.359,-218.301 295.952,-213.186"/>
<polygon fill="midnightblue" stroke="midnightblue" points="297.366,-216.394 305.493,-209.597 294.901,-209.842 297.366,-216.394"/>
</g>
<!-- Node5 -->
<g id="node5" class="node"><title>Node5</title>
<g id="a_node5"><a xlink:href="ff_8c.html#acbd0a20a17c6f9b6d536490d1cc3c5ac" target="_top" xlink:title="create_chain">
<polygon fill="white" stroke="black" points="296,-266.5 296,-285.5 368,-285.5 368,-266.5 296,-266.5"/>
<text text-anchor="middle" x="332" y="-273.5" font-family="Helvetica,sans-Serif" font-size="10.00">create_chain</text>
</a>
</g>
</g>
<!-- Node3&#45;&gt;Node5 -->
<g id="edge4" class="edge"><title>Node3&#45;&gt;Node5</title>
<path fill="none" stroke="midnightblue" d="M254.707,-247.296C267.114,-251.964 282.359,-257.699 295.952,-262.814"/>
<polygon fill="midnightblue" stroke="midnightblue" points="294.901,-266.158 305.493,-266.403 297.366,-259.606 294.901,-266.158"/>
</g>
<!-- Node6 -->
<g id="node6" class="node"><title>Node6</title>
<g id="a_node6"><a xlink:href="ff_8c.html#a65611adf1626e5e08da77cd33a98dd8b" target="_top" xlink:title="get_fat">
<polygon fill="white" stroke="black" points="404.5,-228.5 404.5,-247.5 451.5,-247.5 451.5,-228.5 404.5,-228.5"/>
<text text-anchor="middle" x="428" y="-235.5" font-family="Helvetica,sans-Serif" font-size="10.00">get_fat</text>
</a>
</g>
</g>
<!-- Node3&#45;&gt;Node6 -->
<g id="edge35" class="edge"><title>Node3&#45;&gt;Node6</title>
<path fill="none" stroke="midnightblue" d="M254.552,-238C289.793,-238 354.796,-238 394.144,-238"/>
<polygon fill="midnightblue" stroke="midnightblue" points="394.278,-241.5 404.278,-238 394.278,-234.5 394.278,-241.5"/>
</g>
<!-- Node8 -->
<g id="node8" class="node"><title>Node8</title>
<g id="a_node8"><a xlink:href="ff_8c.html#a5e18753404354b210096f9af99e31bc1" target="_top" xlink:title="sync_window">
<polygon fill="white" stroke="black" points="604,-323.5 604,-342.5 680,-342.5 680,-323.5 604,-323.5"/>
<text text-anchor="middle" x="642" y="-330.5" font-family="Helvetica,sans-Serif" font-size="10.00">sync_window</text>
</a>
</g>
</g>
<!-- Node3&#45;&gt;Node8 -->
<g id="edge37" class="edge"><title>Node3&#45;&gt;Node8</title>
<path fill="none" stroke="midnightblue" d="M237.767,-247.651C249.037,-260.881 271.295,-284.232 296,-295 395.304,-338.282 525.269,-339.515 593.863,-336.412"/>
<polygon fill="midnightblue" stroke="midnightblue" points="594.118,-339.903 603.929,-335.904 593.766,-332.912 594.118,-339.903"/>
</g>
<!-- Node3&#45;&gt;Node22 -->
<g id="edge36" class="edge"><title>Node3&#45;&gt;Node22</title>
<path fill="none" stroke="midnightblue" d="M247.596,-228.359C251.879,-225.617 256.29,-222.434 260,-219 285.177,-195.697 307.656,-162.486 320.285,-142.135"/>
<polygon fill="midnightblue" stroke="midnightblue" points="323.315,-143.888 325.515,-133.524 317.332,-140.254 323.315,-143.888"/>
</g>
<!-- Node5&#45;&gt;Node6 -->
<g id="edge5" class="edge"><title>Node5&#45;&gt;Node6</title>
<path fill="none" stroke="midnightblue" d="M356.72,-266.411C368.222,-261.761 382.211,-256.106 394.672,-251.069"/>
<polygon fill="midnightblue" stroke="midnightblue" points="396.301,-254.186 404.26,-247.193 393.677,-247.696 396.301,-254.186"/>
</g>
<!-- Node21 -->
<g id="node21" class="node"><title>Node21</title>
<g id="a_node21"><a xlink:href="ff_8c.html#abd4b6b071a8d728a88727051c12bc6d7" target="_top" xlink:title="put_fat">
<polygon fill="white" stroke="black" points="404.5,-266.5 404.5,-285.5 451.5,-285.5 451.5,-266.5 404.5,-266.5"/>
<text text-anchor="middle" x="428" y="-273.5" font-family="Helvetica,sans-Serif" font-size="10.00">put_fat</text>
</a>
</g>
</g>
<!-- Node5&#45;&gt;Node21 -->
<g id="edge33" class="edge"><title>Node5&#45;&gt;Node21</title>
<path fill="none" stroke="midnightblue" d="M368.002,-276C376.517,-276 385.595,-276 394.013,-276"/>
<polygon fill="midnightblue" stroke="midnightblue" points="394.23,-279.5 404.23,-276 394.23,-272.5 394.23,-279.5"/>
</g>
<!-- Node6&#45;&gt;Node7 -->
<g id="edge6" class="edge"><title>Node6&#45;&gt;Node7</title>
<path fill="none" stroke="midnightblue" d="M451.729,-242.407C459.702,-243.952 468.992,-245.754 478.269,-247.552"/>
<polygon fill="midnightblue" stroke="midnightblue" points="477.784,-251.023 488.268,-249.491 479.117,-244.151 477.784,-251.023"/>
</g>
<!-- Node7&#45;&gt;Node8 -->
<g id="edge7" class="edge"><title>Node7&#45;&gt;Node8</title>
<path fill="none" stroke="midnightblue" d="M543.185,-266.625C562.204,-279.531 596.173,-302.582 618.649,-317.833"/>
<polygon fill="midnightblue" stroke="midnightblue" points="616.69,-320.734 626.93,-323.453 620.621,-314.941 616.69,-320.734"/>
</g>
<!-- Node19 -->
<g id="node19" class="node"><title>Node19</title>
<g id="a_node19"><a xlink:href="diskio_8h.html#ac0c802f8a12fa2047b4bec7109b9293f" target="_top" xlink:title="disk_read">
<polygon fill="white" stroke="black" points="717.5,-247.5 717.5,-266.5 776.5,-266.5 776.5,-247.5 717.5,-247.5"/>
<text text-anchor="middle" x="747" y="-254.5" font-family="Helvetica,sans-Serif" font-size="10.00">disk_read</text>
</a>
</g>
</g>
<!-- Node7&#45;&gt;Node19 -->
<g id="edge26" class="edge"><title>Node7&#45;&gt;Node19</title>
<path fill="none" stroke="midnightblue" d="M567.795,-257C607.187,-257 667.836,-257 707.221,-257"/>
<polygon fill="midnightblue" stroke="midnightblue" points="707.24,-260.5 717.24,-257 707.24,-253.5 707.24,-260.5"/>
</g>
<!-- Node9 -->
<g id="node9" class="node"><title>Node9</title>
<g id="a_node9"><a xlink:href="diskio_8h.html#ac4785625f4bb82e33562079813659880" target="_top" xlink:title="disk_write">
<polygon fill="white" stroke="black" points="716.5,-323.5 716.5,-342.5 777.5,-342.5 777.5,-323.5 716.5,-323.5"/>
<text text-anchor="middle" x="747" y="-330.5" font-family="Helvetica,sans-Serif" font-size="10.00">disk_write</text>
</a>
</g>
</g>
<!-- Node8&#45;&gt;Node9 -->
<g id="edge8" class="edge"><title>Node8&#45;&gt;Node9</title>
<path fill="none" stroke="midnightblue" d="M680.185,-333C688.624,-333 697.621,-333 706.165,-333"/>
<polygon fill="midnightblue" stroke="midnightblue" points="706.295,-336.5 716.295,-333 706.294,-329.5 706.295,-336.5"/>
</g>
<!-- Node10 -->
<g id="node10" class="node"><title>Node10</title>
<g id="a_node10"><a xlink:href="sdmm_8c.html#ac0eadae94de728461ccade9e03fafd8c" target="_top" xlink:title="deselect">
<polygon fill="white" stroke="black" points="1045.5,-266.5 1045.5,-285.5 1098.5,-285.5 1098.5,-266.5 1045.5,-266.5"/>
<text text-anchor="middle" x="1072" y="-273.5" font-family="Helvetica,sans-Serif" font-size="10.00">deselect</text>
</a>
</g>
</g>
<!-- Node9&#45;&gt;Node10 -->
<g id="edge9" class="edge"><title>Node9&#45;&gt;Node10</title>
<path fill="none" stroke="midnightblue" d="M777.593,-327.178C814.252,-320.025 878.647,-307.651 934,-298 968.406,-292.002 1007.78,-285.741 1035.46,-281.44"/>
<polygon fill="midnightblue" stroke="midnightblue" points="1036.12,-284.88 1045.46,-279.892 1035.05,-277.962 1036.12,-284.88"/>
</g>
<!-- Node12 -->
<g id="node12" class="node"><title>Node12</title>
<g id="a_node12"><a xlink:href="sdmm_8c.html#a21ad8e9a107ea2000705a3edfebaaa2d" target="_top" xlink:title="disk_status">
<polygon fill="white" stroke="black" points="822.5,-266.5 822.5,-285.5 889.5,-285.5 889.5,-266.5 822.5,-266.5"/>
<text text-anchor="middle" x="856" y="-273.5" font-family="Helvetica,sans-Serif" font-size="10.00">disk_status</text>
</a>
</g>
</g>
<!-- Node9&#45;&gt;Node12 -->
<g id="edge11" class="edge"><title>Node9&#45;&gt;Node12</title>
<path fill="none" stroke="midnightblue" d="M766.151,-323.331C783.163,-314.269 808.805,-300.609 828.176,-290.289"/>
<polygon fill="midnightblue" stroke="midnightblue" points="829.937,-293.317 837.117,-285.526 826.646,-287.139 829.937,-293.317"/>
</g>
<!-- Node13 -->
<g id="node13" class="node"><title>Node13</title>
<g id="a_node13"><a xlink:href="sdmm_8c.html#a99684b493c8bfdb0288a2e24e52f6871" target="_top" xlink:title="send_cmd">
<polygon fill="white" stroke="black" points="825,-342.5 825,-361.5 887,-361.5 887,-342.5 825,-342.5"/>
<text text-anchor="middle" x="856" y="-349.5" font-family="Helvetica,sans-Serif" font-size="10.00">send_cmd</text>
</a>
</g>
</g>
<!-- Node9&#45;&gt;Node13 -->
<g id="edge12" class="edge"><title>Node9&#45;&gt;Node13</title>
<path fill="none" stroke="midnightblue" d="M777.521,-338.242C789.023,-340.284 802.389,-342.658 814.749,-344.853"/>
<polygon fill="midnightblue" stroke="midnightblue" points="814.373,-348.34 824.831,-346.643 815.597,-341.448 814.373,-348.34"/>
</g>
<!-- Node18 -->
<g id="node18" class="node"><title>Node18</title>
<g id="a_node18"><a xlink:href="sdmm_8c.html#aefbd30f6bdff37184f58faf98ad1c6e0" target="_top" xlink:title="xmit_datablock">
<polygon fill="white" stroke="black" points="814.5,-437.5 814.5,-456.5 897.5,-456.5 897.5,-437.5 814.5,-437.5"/>
<text text-anchor="middle" x="856" y="-444.5" font-family="Helvetica,sans-Serif" font-size="10.00">xmit_datablock</text>
</a>
</g>
</g>
<!-- Node9&#45;&gt;Node18 -->
<g id="edge22" class="edge"><title>Node9&#45;&gt;Node18</title>
<path fill="none" stroke="midnightblue" d="M757.123,-342.72C775.285,-362.07 816.172,-405.632 838.935,-429.884"/>
<polygon fill="midnightblue" stroke="midnightblue" points="836.505,-432.409 845.9,-437.305 841.609,-427.618 836.505,-432.409"/>
</g>
<!-- Node11 -->
<g id="node11" class="node"><title>Node11</title>
<g id="a_node11"><a xlink:href="sdmm_8c.html#ab628371b03508f9db7c6daf1203ed84d" target="_top" xlink:title="rcvr_mmc">
<polygon fill="white" stroke="black" points="1148,-323.5 1148,-342.5 1208,-342.5 1208,-323.5 1148,-323.5"/>
<text text-anchor="middle" x="1178" y="-330.5" font-family="Helvetica,sans-Serif" font-size="10.00">rcvr_mmc</text>
</a>
</g>
</g>
<!-- Node10&#45;&gt;Node11 -->
<g id="edge10" class="edge"><title>Node10&#45;&gt;Node11</title>
<path fill="none" stroke="midnightblue" d="M1093.39,-285.573C1099.43,-288.505 1106.02,-291.803 1112,-295 1125.69,-302.321 1140.66,-311.025 1152.78,-318.255"/>
<polygon fill="midnightblue" stroke="midnightblue" points="1151.05,-321.299 1161.43,-323.448 1154.66,-315.299 1151.05,-321.299"/>
</g>
<!-- Node13&#45;&gt;Node10 -->
<g id="edge13" class="edge"><title>Node13&#45;&gt;Node10</title>
<path fill="none" stroke="midnightblue" d="M884.103,-342.375C922.628,-328.693 993.258,-303.609 1035.79,-288.504"/>
<polygon fill="midnightblue" stroke="midnightblue" points="1037.2,-291.719 1045.45,-285.074 1034.85,-285.123 1037.2,-291.719"/>
</g>
<!-- Node13&#45;&gt;Node11 -->
<g id="edge21" class="edge"><title>Node13&#45;&gt;Node11</title>
<path fill="none" stroke="midnightblue" d="M887.04,-361.203C901.146,-365.061 918.281,-369.089 934,-371 1012.81,-380.58 1034.78,-374.435 1112,-356 1122.76,-353.43 1134.23,-349.717 1144.49,-346.021"/>
<polygon fill="midnightblue" stroke="midnightblue" points="1145.74,-349.29 1153.89,-342.521 1143.3,-342.729 1145.74,-349.29"/>
</g>
<!-- Node14 -->
<g id="node14" class="node"><title>Node14</title>
<g id="a_node14"><a xlink:href="sdmm_8c.html#ab45cb1d47cda5822ce492ad3c11867ae" target="_top" xlink:title="select">
<polygon fill="white" stroke="black" points="943.5,-342.5 943.5,-361.5 986.5,-361.5 986.5,-342.5 943.5,-342.5"/>
<text text-anchor="middle" x="965" y="-349.5" font-family="Helvetica,sans-Serif" font-size="10.00">select</text>
</a>
</g>
</g>
<!-- Node13&#45;&gt;Node14 -->
<g id="edge14" class="edge"><title>Node13&#45;&gt;Node14</title>
<path fill="none" stroke="midnightblue" d="M887.09,-352C901.375,-352 918.433,-352 932.85,-352"/>
<polygon fill="midnightblue" stroke="midnightblue" points="933.271,-355.5 943.271,-352 933.271,-348.5 933.271,-355.5"/>
</g>
<!-- Node17 -->
<g id="node17" class="node"><title>Node17</title>
<g id="a_node17"><a xlink:href="sdmm_8c.html#ace0af708caf7775204ca74fbd46818bb" target="_top" xlink:title="xmit_mmc">
<polygon fill="white" stroke="black" points="934,-418.5 934,-437.5 996,-437.5 996,-418.5 934,-418.5"/>
<text text-anchor="middle" x="965" y="-425.5" font-family="Helvetica,sans-Serif" font-size="10.00">xmit_mmc</text>
</a>
</g>
</g>
<!-- Node13&#45;&gt;Node17 -->
<g id="edge20" class="edge"><title>Node13&#45;&gt;Node17</title>
<path fill="none" stroke="midnightblue" d="M870.552,-361.625C888.641,-374.474 920.888,-397.378 942.361,-412.63"/>
<polygon fill="midnightblue" stroke="midnightblue" points="940.379,-415.515 950.558,-418.453 944.432,-409.808 940.379,-415.515"/>
</g>
<!-- Node14&#45;&gt;Node10 -->
<g id="edge19" class="edge"><title>Node14&#45;&gt;Node10</title>
<path fill="none" stroke="midnightblue" d="M978.413,-342.375C983.875,-338.061 990.327,-332.86 996,-328 1012.48,-313.879 1014.06,-307.213 1032,-295 1034.39,-293.371 1036.95,-291.803 1039.56,-290.314"/>
<polygon fill="midnightblue" stroke="midnightblue" points="1041.31,-293.349 1048.52,-285.584 1038.04,-287.159 1041.31,-293.349"/>
</g>
<!-- Node14&#45;&gt;Node11 -->
<g id="edge15" class="edge"><title>Node14&#45;&gt;Node11</title>
<path fill="none" stroke="midnightblue" d="M986.616,-350.144C1021.56,-346.997 1092.98,-340.566 1137.72,-336.537"/>
<polygon fill="midnightblue" stroke="midnightblue" points="1138.29,-340 1147.93,-335.617 1137.66,-333.028 1138.29,-340"/>
</g>
<!-- Node15 -->
<g id="node15" class="node"><title>Node15</title>
<g id="a_node15"><a xlink:href="sdmm_8c.html#a624a19e248af05530dae5c0cc1dddc11" target="_top" xlink:title="wait_ready">
<polygon fill="white" stroke="black" points="1040,-304.5 1040,-323.5 1104,-323.5 1104,-304.5 1040,-304.5"/>
<text text-anchor="middle" x="1072" y="-311.5" font-family="Helvetica,sans-Serif" font-size="10.00">wait_ready</text>
</a>
</g>
</g>
<!-- Node14&#45;&gt;Node15 -->
<g id="edge16" class="edge"><title>Node14&#45;&gt;Node15</title>
<path fill="none" stroke="midnightblue" d="M986.745,-344.492C1000.5,-339.513 1018.92,-332.846 1035.03,-327.017"/>
<polygon fill="midnightblue" stroke="midnightblue" points="1036.49,-330.212 1044.7,-323.518 1034.11,-323.63 1036.49,-330.212"/>
</g>
<!-- Node15&#45;&gt;Node11 -->
<g id="edge17" class="edge"><title>Node15&#45;&gt;Node11</title>
<path fill="none" stroke="midnightblue" d="M1104.2,-319.701C1114.83,-321.642 1126.85,-323.837 1138.01,-325.876"/>
<polygon fill="midnightblue" stroke="midnightblue" points="1137.49,-329.339 1147.95,-327.693 1138.74,-322.453 1137.49,-329.339"/>
</g>
<!-- Node16 -->
<g id="node16" class="node"><title>Node16</title>
<g id="a_node16"><a xlink:href="sdmm_8c.html#a76a43e01b9676630e121e5a659acbb3f" target="_top" xlink:title="dly_us">
<polygon fill="white" stroke="black" points="1155.5,-247.5 1155.5,-266.5 1200.5,-266.5 1200.5,-247.5 1155.5,-247.5"/>
<text text-anchor="middle" x="1178" y="-254.5" font-family="Helvetica,sans-Serif" font-size="10.00">dly_us</text>
</a>
</g>
</g>
<!-- Node15&#45;&gt;Node16 -->
<g id="edge18" class="edge"><title>Node15&#45;&gt;Node16</title>
<path fill="none" stroke="midnightblue" d="M1093.39,-304.427C1099.43,-301.495 1106.02,-298.197 1112,-295 1125.69,-287.679 1140.66,-278.975 1152.78,-271.745"/>
<polygon fill="midnightblue" stroke="midnightblue" points="1154.66,-274.701 1161.43,-266.552 1151.05,-268.701 1154.66,-274.701"/>
</g>
<!-- Node18&#45;&gt;Node11 -->
<g id="edge25" class="edge"><title>Node18&#45;&gt;Node11</title>
<path fill="none" stroke="midnightblue" d="M880.195,-456.651C908.259,-466.904 956.64,-479.984 996,-467 1066.89,-443.613 1132.72,-380.569 1161.61,-350.035"/>
<polygon fill="midnightblue" stroke="midnightblue" points="1164.2,-352.387 1168.44,-342.679 1159.07,-347.622 1164.2,-352.387"/>
</g>
<!-- Node18&#45;&gt;Node15 -->
<g id="edge23" class="edge"><title>Node18&#45;&gt;Node15</title>
<path fill="none" stroke="midnightblue" d="M893.278,-456.505C922.958,-462.161 964.952,-465.136 996,-447 1038.2,-422.35 1058.52,-364.227 1066.58,-333.626"/>
<polygon fill="midnightblue" stroke="midnightblue" points="1070.03,-334.257 1069.02,-323.711 1063.23,-332.587 1070.03,-334.257"/>
</g>
<!-- Node18&#45;&gt;Node17 -->
<g id="edge24" class="edge"><title>Node18&#45;&gt;Node17</title>
<path fill="none" stroke="midnightblue" d="M897.757,-439.763C906.239,-438.257 915.174,-436.67 923.641,-435.167"/>
<polygon fill="midnightblue" stroke="midnightblue" points="924.441,-438.579 933.675,-433.385 923.217,-431.687 924.441,-438.579"/>
</g>
<!-- Node19&#45;&gt;Node10 -->
<g id="edge27" class="edge"><title>Node19&#45;&gt;Node10</title>
<path fill="none" stroke="midnightblue" d="M776.766,-255.768C823.111,-254.189 917.097,-252.665 996,-262 1008.95,-263.532 1023.03,-265.956 1035.45,-268.359"/>
<polygon fill="midnightblue" stroke="midnightblue" points="1034.95,-271.827 1045.44,-270.353 1036.32,-264.963 1034.95,-271.827"/>
</g>
<!-- Node19&#45;&gt;Node12 -->
<g id="edge28" class="edge"><title>Node19&#45;&gt;Node12</title>
<path fill="none" stroke="midnightblue" d="M776.674,-262.092C787.701,-264.05 800.535,-266.329 812.585,-268.468"/>
<polygon fill="midnightblue" stroke="midnightblue" points="812.007,-271.92 822.465,-270.223 813.231,-265.028 812.007,-271.92"/>
</g>
<!-- Node19&#45;&gt;Node13 -->
<g id="edge32" class="edge"><title>Node19&#45;&gt;Node13</title>
<path fill="none" stroke="midnightblue" d="M759.048,-266.809C777.404,-283.106 814.369,-315.926 836.677,-335.732"/>
<polygon fill="midnightblue" stroke="midnightblue" points="834.37,-338.364 844.172,-342.386 839.017,-333.129 834.37,-338.364"/>
</g>
<!-- Node20 -->
<g id="node20" class="node"><title>Node20</title>
<g id="a_node20"><a xlink:href="sdmm_8c.html#a8c99afbc312912297b19752cf7e0960b" target="_top" xlink:title="rcvr_datablock">
<polygon fill="white" stroke="black" points="1032,-228.5 1032,-247.5 1112,-247.5 1112,-228.5 1032,-228.5"/>
<text text-anchor="middle" x="1072" y="-235.5" font-family="Helvetica,sans-Serif" font-size="10.00">rcvr_datablock</text>
</a>
</g>
</g>
<!-- Node19&#45;&gt;Node20 -->
<g id="edge29" class="edge"><title>Node19&#45;&gt;Node20</title>
<path fill="none" stroke="midnightblue" d="M776.555,-253.6C788.16,-252.315 801.707,-250.938 814,-250 886.083,-244.499 969.746,-241.157 1021.53,-239.443"/>
<polygon fill="midnightblue" stroke="midnightblue" points="1021.89,-242.934 1031.77,-239.112 1021.66,-235.938 1021.89,-242.934"/>
</g>
<!-- Node20&#45;&gt;Node11 -->
<g id="edge30" class="edge"><title>Node20&#45;&gt;Node11</title>
<path fill="none" stroke="midnightblue" d="M1096.6,-247.571C1101.92,-250.238 1107.35,-253.406 1112,-257 1133.55,-273.669 1153.11,-298.463 1165.02,-315.155"/>
<polygon fill="midnightblue" stroke="midnightblue" points="1162.23,-317.276 1170.81,-323.492 1167.98,-313.282 1162.23,-317.276"/>
</g>
<!-- Node20&#45;&gt;Node16 -->
<g id="edge31" class="edge"><title>Node20&#45;&gt;Node16</title>
<path fill="none" stroke="midnightblue" d="M1112.02,-245.129C1123,-247.135 1134.81,-249.292 1145.3,-251.209"/>
<polygon fill="midnightblue" stroke="midnightblue" points="1144.82,-254.678 1155.28,-253.032 1146.07,-247.792 1144.82,-254.678"/>
</g>
<!-- Node21&#45;&gt;Node7 -->
<g id="edge34" class="edge"><title>Node21&#45;&gt;Node7</title>
<path fill="none" stroke="midnightblue" d="M451.729,-271.593C459.702,-270.048 468.992,-268.246 478.269,-266.448"/>
<polygon fill="midnightblue" stroke="midnightblue" points="479.117,-269.849 488.268,-264.509 477.784,-262.977 479.117,-269.849"/>
</g>
<!-- Node23&#45;&gt;Node4 -->
<g id="edge40" class="edge"><title>Node23&#45;&gt;Node4</title>
<path fill="none" stroke="midnightblue" d="M251.915,-200C263.177,-200 277.267,-200 290.421,-200"/>
<polygon fill="midnightblue" stroke="midnightblue" points="290.699,-203.5 300.699,-200 290.699,-196.5 290.699,-203.5"/>
</g>
<!-- Node23&#45;&gt;Node6 -->
<g id="edge39" class="edge"><title>Node23&#45;&gt;Node6</title>
<path fill="none" stroke="midnightblue" d="M251.88,-190.359C279.825,-179.511 329.209,-165.323 368,-181 387.498,-188.88 404.132,-206.633 414.719,-220.248"/>
<polygon fill="midnightblue" stroke="midnightblue" points="412.019,-222.483 420.772,-228.452 417.651,-218.327 412.019,-222.483"/>
</g>
<!-- Node24&#45;&gt;Node3 -->
<g id="edge43" class="edge"><title>Node24&#45;&gt;Node3</title>
<path fill="none" stroke="midnightblue" d="M143.161,-171.802C155.609,-183.596 177.568,-203.716 198,-219 199.629,-220.219 201.337,-221.439 203.075,-222.64"/>
<polygon fill="midnightblue" stroke="midnightblue" points="201.533,-225.815 211.81,-228.39 205.382,-219.968 201.533,-225.815"/>
</g>
<!-- Node24&#45;&gt;Node7 -->
<g id="edge46" class="edge"><title>Node24&#45;&gt;Node7</title>
<path fill="none" stroke="midnightblue" d="M147.479,-152.472C184.979,-129.059 287.928,-72.884 368,-105 436.359,-132.418 491.964,-204.798 515.232,-238.829"/>
<polygon fill="midnightblue" stroke="midnightblue" points="512.454,-240.972 520.921,-247.342 518.274,-237.083 512.454,-240.972"/>
</g>
<!-- Node24&#45;&gt;Node23 -->
<g id="edge44" class="edge"><title>Node24&#45;&gt;Node23</title>
<path fill="none" stroke="midnightblue" d="M156.483,-171.393C168.655,-176.262 183.683,-182.273 196.816,-187.527"/>
<polygon fill="midnightblue" stroke="midnightblue" points="195.827,-190.9 206.411,-191.365 198.427,-184.401 195.827,-190.9"/>
</g>
<!-- Node25 -->
<g id="node25" class="node"><title>Node25</title>
<g id="a_node25"><a xlink:href="ff_8c.html#a38b4f223d18bd4416d8bce0f07a63c01" target="_top" xlink:title="mem_cmp">
<polygon fill="white" stroke="black" points="198,-152.5 198,-171.5 260,-171.5 260,-152.5 198,-152.5"/>
<text text-anchor="middle" x="229" y="-159.5" font-family="Helvetica,sans-Serif" font-size="10.00">mem_cmp</text>
</a>
</g>
</g>
<!-- Node24&#45;&gt;Node25 -->
<g id="edge45" class="edge"><title>Node24&#45;&gt;Node25</title>
<path fill="none" stroke="midnightblue" d="M156.483,-162C165.977,-162 177.207,-162 187.921,-162"/>
<polygon fill="midnightblue" stroke="midnightblue" points="187.962,-165.5 197.962,-162 187.962,-158.5 187.962,-165.5"/>
</g>
</g>
</svg>
