<?xml version="1.0" encoding="UTF-8" standalone="no"?>
<!DOCTYPE svg PUBLIC "-//W3C//DTD SVG 1.1//EN"
 "http://www.w3.org/Graphics/SVG/1.1/DTD/svg11.dtd">
<!-- Generated by graphviz version 2.36.0 (20140111.2315)
 -->
<!-- Title: f_lseek Pages: 1 -->
<svg width="1024pt" height="296pt"
 viewBox="0.00 0.00 1024.00 295.74" xmlns="http://www.w3.org/2000/svg" xmlns:xlink="http://www.w3.org/1999/xlink">
<g id="graph0" class="graph" transform="scale(1 1) rotate(0) translate(4 291.742)">
<title>f_lseek</title>
<polygon fill="white" stroke="none" points="-4,4 -4,-291.742 1020,-291.742 1020,4 -4,4"/>
<!-- Node1 -->
<g id="node1" class="node"><title>Node1</title>
<polygon fill="#bfbfbf" stroke="black" points="0,-95.5 0,-114.5 48,-114.5 48,-95.5 0,-95.5"/>
<text text-anchor="middle" x="24" y="-102.5" font-family="Helvetica,sans-Serif" font-size="10.00">f_lseek</text>
</g>
<!-- Node2 -->
<g id="node2" class="node"><title>Node2</title>
<g id="a_node2"><a xlink:href="ff_8c.html#a7519abb60fe91f6aa1d17f64fbae123a" target="_top" xlink:title="clust2sect">
<polygon fill="white" stroke="black" points="89,-190.5 89,-209.5 151,-209.5 151,-190.5 89,-190.5"/>
<text text-anchor="middle" x="120" y="-197.5" font-family="Helvetica,sans-Serif" font-size="10.00">clust2sect</text>
</a>
</g>
</g>
<!-- Node1&#45;&gt;Node2 -->
<g id="edge1" class="edge"><title>Node1&#45;&gt;Node2</title>
<path fill="none" stroke="midnightblue" d="M31.8758,-114.918C42.1737,-129.358 62.682,-156.564 84,-176 87.2463,-178.96 90.8791,-181.843 94.5421,-184.524"/>
<polygon fill="midnightblue" stroke="midnightblue" points="92.761,-187.548 102.977,-190.356 96.7421,-181.79 92.761,-187.548"/>
</g>
<!-- Node3 -->
<g id="node3" class="node"><title>Node3</title>
<g id="a_node3"><a xlink:href="ff_8c.html#acbd0a20a17c6f9b6d536490d1cc3c5ac" target="_top" xlink:title="create_chain">
<polygon fill="white" stroke="black" points="84,-76.5 84,-95.5 156,-95.5 156,-76.5 84,-76.5"/>
<text text-anchor="middle" x="120" y="-83.5" font-family="Helvetica,sans-Serif" font-size="10.00">create_chain</text>
</a>
</g>
</g>
<!-- Node1&#45;&gt;Node3 -->
<g id="edge2" class="edge"><title>Node1&#45;&gt;Node3</title>
<path fill="none" stroke="midnightblue" d="M48.236,-100.303C56.0572,-98.7225 65.0699,-96.9008 73.9871,-95.0984"/>
<polygon fill="midnightblue" stroke="midnightblue" points="74.8373,-98.4974 83.9457,-93.0855 73.4504,-91.6361 74.8373,-98.4974"/>
</g>
<!-- Node4 -->
<g id="node4" class="node"><title>Node4</title>
<g id="a_node4"><a xlink:href="ff_8c.html#a65611adf1626e5e08da77cd33a98dd8b" target="_top" xlink:title="get_fat">
<polygon fill="white" stroke="black" points="202.5,-114.5 202.5,-133.5 249.5,-133.5 249.5,-114.5 202.5,-114.5"/>
<text text-anchor="middle" x="226" y="-121.5" font-family="Helvetica,sans-Serif" font-size="10.00">get_fat</text>
</a>
</g>
</g>
<!-- Node1&#45;&gt;Node4 -->
<g id="edge35" class="edge"><title>Node1&#45;&gt;Node4</title>
<path fill="none" stroke="midnightblue" d="M48.334,-107.217C83.8998,-110.595 151.8,-117.046 192.277,-120.891"/>
<polygon fill="midnightblue" stroke="midnightblue" points="192.142,-124.394 202.428,-121.856 192.804,-117.426 192.142,-124.394"/>
</g>
<!-- Node6 -->
<g id="node6" class="node"><title>Node6</title>
<g id="a_node6"><a xlink:href="diskio_8h.html#ac0c802f8a12fa2047b4bec7109b9293f" target="_top" xlink:title="disk_read">
<polygon fill="white" stroke="black" points="525.5,-57.5 525.5,-76.5 584.5,-76.5 584.5,-57.5 525.5,-57.5"/>
<text text-anchor="middle" x="555" y="-64.5" font-family="Helvetica,sans-Serif" font-size="10.00">disk_read</text>
</a>
</g>
</g>
<!-- Node1&#45;&gt;Node6 -->
<g id="edge33" class="edge"><title>Node1&#45;&gt;Node6</title>
<path fill="none" stroke="midnightblue" d="M36.3777,-95.4838C47.6963,-86.5713 65.9371,-73.6564 84,-67 143.333,-45.1353 161.767,-48 225,-48 225,-48 225,-48 337,-48 399.537,-48 471.828,-55.928 515.176,-61.5416"/>
<polygon fill="midnightblue" stroke="midnightblue" points="514.915,-65.0374 525.287,-62.8773 515.831,-58.0977 514.915,-65.0374"/>
</g>
<!-- Node17 -->
<g id="node17" class="node"><title>Node17</title>
<g id="a_node17"><a xlink:href="diskio_8h.html#ac4785625f4bb82e33562079813659880" target="_top" xlink:title="disk_write">
<polygon fill="white" stroke="black" points="524.5,-128.5 524.5,-147.5 585.5,-147.5 585.5,-128.5 524.5,-128.5"/>
<text text-anchor="middle" x="555" y="-135.5" font-family="Helvetica,sans-Serif" font-size="10.00">disk_write</text>
</a>
</g>
</g>
<!-- Node1&#45;&gt;Node17 -->
<g id="edge34" class="edge"><title>Node1&#45;&gt;Node17</title>
<path fill="none" stroke="midnightblue" d="M44.6252,-114.541C79.865,-130.767 156.581,-162 225,-162 225,-162 225,-162 337,-162 399.285,-162 471.02,-152.111 514.41,-145.029"/>
<polygon fill="midnightblue" stroke="midnightblue" points="514.99,-148.481 524.279,-143.386 513.84,-141.575 514.99,-148.481"/>
</g>
<!-- Node20 -->
<g id="node20" class="node"><title>Node20</title>
<g id="a_node20"><a xlink:href="ff_8c.html#aa7193f5b86c3996b5312043a0c26da5f" target="_top" xlink:title="validate">
<polygon fill="white" stroke="black" points="95,-0.5 95,-19.5 145,-19.5 145,-0.5 95,-0.5"/>
<text text-anchor="middle" x="120" y="-7.5" font-family="Helvetica,sans-Serif" font-size="10.00">validate</text>
</a>
</g>
</g>
<!-- Node1&#45;&gt;Node20 -->
<g id="edge36" class="edge"><title>Node1&#45;&gt;Node20</title>
<path fill="none" stroke="midnightblue" d="M31.8758,-95.0818C42.1737,-80.6416 62.682,-53.4363 84,-34 87.2463,-31.0402 90.8791,-28.1573 94.5421,-25.4759"/>
<polygon fill="midnightblue" stroke="midnightblue" points="96.7421,-28.21 102.977,-19.6438 92.761,-22.4523 96.7421,-28.21"/>
</g>
<!-- Node3&#45;&gt;Node4 -->
<g id="edge3" class="edge"><title>Node3&#45;&gt;Node4</title>
<path fill="none" stroke="midnightblue" d="M147.244,-95.589C161.031,-100.627 178.05,-106.845 192.648,-112.179"/>
<polygon fill="midnightblue" stroke="midnightblue" points="191.703,-115.56 202.297,-115.705 194.106,-108.985 191.703,-115.56"/>
</g>
<!-- Node19 -->
<g id="node19" class="node"><title>Node19</title>
<g id="a_node19"><a xlink:href="ff_8c.html#abd4b6b071a8d728a88727051c12bc6d7" target="_top" xlink:title="put_fat">
<polygon fill="white" stroke="black" points="202.5,-76.5 202.5,-95.5 249.5,-95.5 249.5,-76.5 202.5,-76.5"/>
<text text-anchor="middle" x="226" y="-83.5" font-family="Helvetica,sans-Serif" font-size="10.00">put_fat</text>
</a>
</g>
</g>
<!-- Node3&#45;&gt;Node19 -->
<g id="edge31" class="edge"><title>Node3&#45;&gt;Node19</title>
<path fill="none" stroke="midnightblue" d="M156.21,-86C167.85,-86 180.747,-86 192.2,-86"/>
<polygon fill="midnightblue" stroke="midnightblue" points="192.233,-89.5001 202.233,-86 192.233,-82.5001 192.233,-89.5001"/>
</g>
<!-- Node5 -->
<g id="node5" class="node"><title>Node5</title>
<g id="a_node5"><a xlink:href="ff_8c.html#af2e8986556ee6644b4bf31fa4158d735" target="_top" xlink:title="move_window">
<polygon fill="white" stroke="black" points="296.5,-95.5 296.5,-114.5 375.5,-114.5 375.5,-95.5 296.5,-95.5"/>
<text text-anchor="middle" x="336" y="-102.5" font-family="Helvetica,sans-Serif" font-size="10.00">move_window</text>
</a>
</g>
</g>
<!-- Node4&#45;&gt;Node5 -->
<g id="edge4" class="edge"><title>Node4&#45;&gt;Node5</title>
<path fill="none" stroke="midnightblue" d="M249.64,-120.017C260.28,-118.145 273.406,-115.836 286.146,-113.595"/>
<polygon fill="midnightblue" stroke="midnightblue" points="286.983,-117.001 296.225,-111.821 285.77,-110.107 286.983,-117.001"/>
</g>
<!-- Node5&#45;&gt;Node6 -->
<g id="edge5" class="edge"><title>Node5&#45;&gt;Node6</title>
<path fill="none" stroke="midnightblue" d="M375.795,-98.2064C415.187,-91.3083 475.836,-80.6878 515.221,-73.7908"/>
<polygon fill="midnightblue" stroke="midnightblue" points="515.994,-77.2088 525.24,-72.0363 514.786,-70.3137 515.994,-77.2088"/>
</g>
<!-- Node16 -->
<g id="node16" class="node"><title>Node16</title>
<g id="a_node16"><a xlink:href="ff_8c.html#a5e18753404354b210096f9af99e31bc1" target="_top" xlink:title="sync_window">
<polygon fill="white" stroke="black" points="412,-114.5 412,-133.5 488,-133.5 488,-114.5 412,-114.5"/>
<text text-anchor="middle" x="450" y="-121.5" font-family="Helvetica,sans-Serif" font-size="10.00">sync_window</text>
</a>
</g>
</g>
<!-- Node5&#45;&gt;Node16 -->
<g id="edge22" class="edge"><title>Node5&#45;&gt;Node16</title>
<path fill="none" stroke="midnightblue" d="M375.544,-111.539C384.003,-112.974 393.053,-114.509 401.808,-115.994"/>
<polygon fill="midnightblue" stroke="midnightblue" points="401.453,-119.484 411.898,-117.706 402.624,-112.583 401.453,-119.484"/>
</g>
<!-- Node7 -->
<g id="node7" class="node"><title>Node7</title>
<g id="a_node7"><a xlink:href="sdmm_8c.html#ac0eadae94de728461ccade9e03fafd8c" target="_top" xlink:title="deselect">
<polygon fill="white" stroke="black" points="853.5,-81.5 853.5,-100.5 906.5,-100.5 906.5,-81.5 853.5,-81.5"/>
<text text-anchor="middle" x="880" y="-88.5" font-family="Helvetica,sans-Serif" font-size="10.00">deselect</text>
</a>
</g>
</g>
<!-- Node6&#45;&gt;Node7 -->
<g id="edge6" class="edge"><title>Node6&#45;&gt;Node7</title>
<path fill="none" stroke="midnightblue" d="M584.754,-66.7186C631.084,-66.5883 725.049,-67.6595 804,-77 816.948,-78.5319 831.028,-80.9557 843.455,-83.359"/>
<polygon fill="midnightblue" stroke="midnightblue" points="842.951,-86.8275 853.443,-85.3529 844.322,-79.9629 842.951,-86.8275"/>
</g>
<!-- Node9 -->
<g id="node9" class="node"><title>Node9</title>
<g id="a_node9"><a xlink:href="sdmm_8c.html#a21ad8e9a107ea2000705a3edfebaaa2d" target="_top" xlink:title="disk_status">
<polygon fill="white" stroke="black" points="630.5,-81.5 630.5,-100.5 697.5,-100.5 697.5,-81.5 630.5,-81.5"/>
<text text-anchor="middle" x="664" y="-88.5" font-family="Helvetica,sans-Serif" font-size="10.00">disk_status</text>
</a>
</g>
</g>
<!-- Node6&#45;&gt;Node9 -->
<g id="edge8" class="edge"><title>Node6&#45;&gt;Node9</title>
<path fill="none" stroke="midnightblue" d="M584.674,-73.4316C595.701,-75.9048 608.535,-78.7836 620.585,-81.4863"/>
<polygon fill="midnightblue" stroke="midnightblue" points="619.942,-84.9289 630.465,-83.7025 621.474,-78.0986 619.942,-84.9289"/>
</g>
<!-- Node10 -->
<g id="node10" class="node"><title>Node10</title>
<g id="a_node10"><a xlink:href="sdmm_8c.html#a8c99afbc312912297b19752cf7e0960b" target="_top" xlink:title="rcvr_datablock">
<polygon fill="white" stroke="black" points="840,-43.5 840,-62.5 920,-62.5 920,-43.5 840,-43.5"/>
<text text-anchor="middle" x="880" y="-50.5" font-family="Helvetica,sans-Serif" font-size="10.00">rcvr_datablock</text>
</a>
</g>
</g>
<!-- Node6&#45;&gt;Node10 -->
<g id="edge9" class="edge"><title>Node6&#45;&gt;Node10</title>
<path fill="none" stroke="midnightblue" d="M573.304,-57.383C586.268,-50.7518 604.68,-42.522 622,-39 693.224,-24.5166 777.692,-34.0899 829.82,-42.9967"/>
<polygon fill="midnightblue" stroke="midnightblue" points="829.344,-46.4668 839.801,-44.7619 830.563,-39.5738 829.344,-46.4668"/>
</g>
<!-- Node12 -->
<g id="node12" class="node"><title>Node12</title>
<g id="a_node12"><a xlink:href="sdmm_8c.html#a99684b493c8bfdb0288a2e24e52f6871" target="_top" xlink:title="send_cmd">
<polygon fill="white" stroke="black" points="633,-157.5 633,-176.5 695,-176.5 695,-157.5 633,-157.5"/>
<text text-anchor="middle" x="664" y="-164.5" font-family="Helvetica,sans-Serif" font-size="10.00">send_cmd</text>
</a>
</g>
</g>
<!-- Node6&#45;&gt;Node12 -->
<g id="edge12" class="edge"><title>Node6&#45;&gt;Node12</title>
<path fill="none" stroke="midnightblue" d="M566.26,-76.5884C584.428,-93.5684 622.469,-129.12 645.057,-150.231"/>
<polygon fill="midnightblue" stroke="midnightblue" points="642.918,-153.023 652.614,-157.294 647.698,-147.908 642.918,-153.023"/>
</g>
<!-- Node8 -->
<g id="node8" class="node"><title>Node8</title>
<g id="a_node8"><a xlink:href="sdmm_8c.html#ab628371b03508f9db7c6daf1203ed84d" target="_top" xlink:title="rcvr_mmc">
<polygon fill="white" stroke="black" points="956,-138.5 956,-157.5 1016,-157.5 1016,-138.5 956,-138.5"/>
<text text-anchor="middle" x="986" y="-145.5" font-family="Helvetica,sans-Serif" font-size="10.00">rcvr_mmc</text>
</a>
</g>
</g>
<!-- Node7&#45;&gt;Node8 -->
<g id="edge7" class="edge"><title>Node7&#45;&gt;Node8</title>
<path fill="none" stroke="midnightblue" d="M901.389,-100.573C907.428,-103.505 914.023,-106.803 920,-110 933.686,-117.321 948.659,-126.025 960.781,-133.255"/>
<polygon fill="midnightblue" stroke="midnightblue" points="959.053,-136.299 969.427,-138.448 962.657,-130.299 959.053,-136.299"/>
</g>
<!-- Node10&#45;&gt;Node8 -->
<g id="edge10" class="edge"><title>Node10&#45;&gt;Node8</title>
<path fill="none" stroke="midnightblue" d="M904.605,-62.5707C909.917,-65.2383 915.353,-68.4061 920,-72 941.554,-88.6692 961.109,-113.463 973.016,-130.155"/>
<polygon fill="midnightblue" stroke="midnightblue" points="970.228,-132.276 978.808,-138.492 975.977,-128.282 970.228,-132.276"/>
</g>
<!-- Node11 -->
<g id="node11" class="node"><title>Node11</title>
<g id="a_node11"><a xlink:href="sdmm_8c.html#a76a43e01b9676630e121e5a659acbb3f" target="_top" xlink:title="dly_us">
<polygon fill="white" stroke="black" points="963.5,-62.5 963.5,-81.5 1008.5,-81.5 1008.5,-62.5 963.5,-62.5"/>
<text text-anchor="middle" x="986" y="-69.5" font-family="Helvetica,sans-Serif" font-size="10.00">dly_us</text>
</a>
</g>
</g>
<!-- Node10&#45;&gt;Node11 -->
<g id="edge11" class="edge"><title>Node10&#45;&gt;Node11</title>
<path fill="none" stroke="midnightblue" d="M920.022,-60.129C931.002,-62.1349 942.806,-64.2915 953.302,-66.209"/>
<polygon fill="midnightblue" stroke="midnightblue" points="952.816,-69.6781 963.282,-68.0323 954.074,-62.7921 952.816,-69.6781"/>
</g>
<!-- Node12&#45;&gt;Node7 -->
<g id="edge13" class="edge"><title>Node12&#45;&gt;Node7</title>
<path fill="none" stroke="midnightblue" d="M692.103,-157.375C730.628,-143.693 801.258,-118.609 843.792,-103.504"/>
<polygon fill="midnightblue" stroke="midnightblue" points="845.197,-106.719 853.449,-100.074 842.854,-100.123 845.197,-106.719"/>
</g>
<!-- Node12&#45;&gt;Node8 -->
<g id="edge21" class="edge"><title>Node12&#45;&gt;Node8</title>
<path fill="none" stroke="midnightblue" d="M695.04,-176.203C709.146,-180.061 726.281,-184.089 742,-186 820.811,-195.58 842.779,-189.435 920,-171 930.764,-168.43 942.232,-164.717 952.49,-161.021"/>
<polygon fill="midnightblue" stroke="midnightblue" points="953.742,-164.29 961.892,-157.521 951.299,-157.729 953.742,-164.29"/>
</g>
<!-- Node13 -->
<g id="node13" class="node"><title>Node13</title>
<g id="a_node13"><a xlink:href="sdmm_8c.html#ab45cb1d47cda5822ce492ad3c11867ae" target="_top" xlink:title="select">
<polygon fill="white" stroke="black" points="751.5,-157.5 751.5,-176.5 794.5,-176.5 794.5,-157.5 751.5,-157.5"/>
<text text-anchor="middle" x="773" y="-164.5" font-family="Helvetica,sans-Serif" font-size="10.00">select</text>
</a>
</g>
</g>
<!-- Node12&#45;&gt;Node13 -->
<g id="edge14" class="edge"><title>Node12&#45;&gt;Node13</title>
<path fill="none" stroke="midnightblue" d="M695.09,-167C709.375,-167 726.433,-167 740.85,-167"/>
<polygon fill="midnightblue" stroke="midnightblue" points="741.271,-170.5 751.271,-167 741.271,-163.5 741.271,-170.5"/>
</g>
<!-- Node15 -->
<g id="node15" class="node"><title>Node15</title>
<g id="a_node15"><a xlink:href="sdmm_8c.html#ace0af708caf7775204ca74fbd46818bb" target="_top" xlink:title="xmit_mmc">
<polygon fill="white" stroke="black" points="742,-233.5 742,-252.5 804,-252.5 804,-233.5 742,-233.5"/>
<text text-anchor="middle" x="773" y="-240.5" font-family="Helvetica,sans-Serif" font-size="10.00">xmit_mmc</text>
</a>
</g>
</g>
<!-- Node12&#45;&gt;Node15 -->
<g id="edge20" class="edge"><title>Node12&#45;&gt;Node15</title>
<path fill="none" stroke="midnightblue" d="M678.552,-176.625C696.641,-189.474 728.888,-212.378 750.361,-227.63"/>
<polygon fill="midnightblue" stroke="midnightblue" points="748.379,-230.515 758.558,-233.453 752.432,-224.808 748.379,-230.515"/>
</g>
<!-- Node13&#45;&gt;Node7 -->
<g id="edge19" class="edge"><title>Node13&#45;&gt;Node7</title>
<path fill="none" stroke="midnightblue" d="M786.413,-157.375C791.875,-153.061 798.327,-147.86 804,-143 820.484,-128.879 822.057,-122.213 840,-110 842.393,-108.371 844.947,-106.803 847.559,-105.314"/>
<polygon fill="midnightblue" stroke="midnightblue" points="849.308,-108.349 856.517,-100.584 846.039,-102.159 849.308,-108.349"/>
</g>
<!-- Node13&#45;&gt;Node8 -->
<g id="edge15" class="edge"><title>Node13&#45;&gt;Node8</title>
<path fill="none" stroke="midnightblue" d="M794.616,-165.144C829.56,-161.997 900.978,-155.566 945.721,-151.537"/>
<polygon fill="midnightblue" stroke="midnightblue" points="946.289,-155 955.935,-150.617 945.661,-148.028 946.289,-155"/>
</g>
<!-- Node14 -->
<g id="node14" class="node"><title>Node14</title>
<g id="a_node14"><a xlink:href="sdmm_8c.html#a624a19e248af05530dae5c0cc1dddc11" target="_top" xlink:title="wait_ready">
<polygon fill="white" stroke="black" points="848,-119.5 848,-138.5 912,-138.5 912,-119.5 848,-119.5"/>
<text text-anchor="middle" x="880" y="-126.5" font-family="Helvetica,sans-Serif" font-size="10.00">wait_ready</text>
</a>
</g>
</g>
<!-- Node13&#45;&gt;Node14 -->
<g id="edge16" class="edge"><title>Node13&#45;&gt;Node14</title>
<path fill="none" stroke="midnightblue" d="M794.745,-159.492C808.504,-154.513 826.924,-147.846 843.033,-142.017"/>
<polygon fill="midnightblue" stroke="midnightblue" points="844.489,-145.212 852.701,-138.518 842.107,-138.63 844.489,-145.212"/>
</g>
<!-- Node14&#45;&gt;Node8 -->
<g id="edge17" class="edge"><title>Node14&#45;&gt;Node8</title>
<path fill="none" stroke="midnightblue" d="M912.203,-134.701C922.831,-136.642 934.846,-138.837 946.007,-140.876"/>
<polygon fill="midnightblue" stroke="midnightblue" points="945.486,-144.339 955.952,-142.693 946.744,-137.453 945.486,-144.339"/>
</g>
<!-- Node14&#45;&gt;Node11 -->
<g id="edge18" class="edge"><title>Node14&#45;&gt;Node11</title>
<path fill="none" stroke="midnightblue" d="M901.389,-119.427C907.428,-116.495 914.023,-113.197 920,-110 933.686,-102.679 948.659,-93.9751 960.781,-86.7454"/>
<polygon fill="midnightblue" stroke="midnightblue" points="962.657,-89.7014 969.427,-81.5515 959.053,-83.7009 962.657,-89.7014"/>
</g>
<!-- Node16&#45;&gt;Node17 -->
<g id="edge23" class="edge"><title>Node16&#45;&gt;Node17</title>
<path fill="none" stroke="midnightblue" d="M488.185,-129.054C496.624,-130.201 505.621,-131.424 514.165,-132.585"/>
<polygon fill="midnightblue" stroke="midnightblue" points="513.914,-136.084 524.295,-133.962 514.857,-129.147 513.914,-136.084"/>
</g>
<!-- Node17&#45;&gt;Node7 -->
<g id="edge24" class="edge"><title>Node17&#45;&gt;Node7</title>
<path fill="none" stroke="midnightblue" d="M585.52,-133.704C644.972,-125.054 778.921,-105.563 843.226,-96.2055"/>
<polygon fill="midnightblue" stroke="midnightblue" points="843.901,-99.6442 853.293,-94.7406 842.893,-92.7171 843.901,-99.6442"/>
</g>
<!-- Node17&#45;&gt;Node9 -->
<g id="edge25" class="edge"><title>Node17&#45;&gt;Node9</title>
<path fill="none" stroke="midnightblue" d="M577.653,-128.489C593.213,-121.654 614.425,-112.337 631.808,-104.701"/>
<polygon fill="midnightblue" stroke="midnightblue" points="633.264,-107.885 641.012,-100.658 630.449,-101.476 633.264,-107.885"/>
</g>
<!-- Node17&#45;&gt;Node12 -->
<g id="edge26" class="edge"><title>Node17&#45;&gt;Node12</title>
<path fill="none" stroke="midnightblue" d="M585.521,-146.001C597.138,-149.15 610.657,-152.814 623.119,-156.191"/>
<polygon fill="midnightblue" stroke="midnightblue" points="622.263,-159.585 632.831,-158.823 624.094,-152.829 622.263,-159.585"/>
</g>
<!-- Node18 -->
<g id="node18" class="node"><title>Node18</title>
<g id="a_node18"><a xlink:href="sdmm_8c.html#aefbd30f6bdff37184f58faf98ad1c6e0" target="_top" xlink:title="xmit_datablock">
<polygon fill="white" stroke="black" points="622.5,-252.5 622.5,-271.5 705.5,-271.5 705.5,-252.5 622.5,-252.5"/>
<text text-anchor="middle" x="664" y="-259.5" font-family="Helvetica,sans-Serif" font-size="10.00">xmit_datablock</text>
</a>
</g>
</g>
<!-- Node17&#45;&gt;Node18 -->
<g id="edge27" class="edge"><title>Node17&#45;&gt;Node18</title>
<path fill="none" stroke="midnightblue" d="M564.396,-147.73C582.445,-168.646 625.148,-218.135 647.983,-244.598"/>
<polygon fill="midnightblue" stroke="midnightblue" points="645.46,-247.031 654.643,-252.315 650.76,-242.458 645.46,-247.031"/>
</g>
<!-- Node18&#45;&gt;Node8 -->
<g id="edge30" class="edge"><title>Node18&#45;&gt;Node8</title>
<path fill="none" stroke="midnightblue" d="M688.195,-271.651C716.259,-281.904 764.64,-294.984 804,-282 874.895,-258.613 940.725,-195.569 969.607,-165.035"/>
<polygon fill="midnightblue" stroke="midnightblue" points="972.199,-167.387 976.442,-157.679 967.071,-162.622 972.199,-167.387"/>
</g>
<!-- Node18&#45;&gt;Node14 -->
<g id="edge28" class="edge"><title>Node18&#45;&gt;Node14</title>
<path fill="none" stroke="midnightblue" d="M701.278,-271.505C730.958,-277.161 772.952,-280.136 804,-262 846.199,-237.35 866.515,-179.227 874.581,-148.626"/>
<polygon fill="midnightblue" stroke="midnightblue" points="878.03,-149.257 877.016,-138.711 871.232,-147.587 878.03,-149.257"/>
</g>
<!-- Node18&#45;&gt;Node15 -->
<g id="edge29" class="edge"><title>Node18&#45;&gt;Node15</title>
<path fill="none" stroke="midnightblue" d="M705.757,-254.763C714.239,-253.257 723.174,-251.67 731.641,-250.167"/>
<polygon fill="midnightblue" stroke="midnightblue" points="732.441,-253.579 741.675,-248.385 731.217,-246.687 732.441,-253.579"/>
</g>
<!-- Node19&#45;&gt;Node5 -->
<g id="edge32" class="edge"><title>Node19&#45;&gt;Node5</title>
<path fill="none" stroke="midnightblue" d="M249.64,-89.983C260.28,-91.8548 273.406,-94.1639 286.146,-96.4052"/>
<polygon fill="midnightblue" stroke="midnightblue" points="285.77,-99.8928 296.225,-98.1785 286.983,-92.9987 285.77,-99.8928"/>
</g>
<!-- Node21 -->
<g id="node21" class="node"><title>Node21</title>
<g id="a_node21"><a xlink:href="diskio_8h.html#a8348ac5ee6d709420c02e45c111f4793" target="_top" xlink:title="disk_status">
<polygon fill="white" stroke="black" points="192.5,-0.5 192.5,-19.5 259.5,-19.5 259.5,-0.5 192.5,-0.5"/>
<text text-anchor="middle" x="226" y="-7.5" font-family="Helvetica,sans-Serif" font-size="10.00">disk_status</text>
</a>
</g>
</g>
<!-- Node20&#45;&gt;Node21 -->
<g id="edge37" class="edge"><title>Node20&#45;&gt;Node21</title>
<path fill="none" stroke="midnightblue" d="M145.121,-10C156.091,-10 169.411,-10 182.004,-10"/>
<polygon fill="midnightblue" stroke="midnightblue" points="182.343,-13.5001 192.343,-10 182.343,-6.5001 182.343,-13.5001"/>
</g>
</g>
</svg>
