<?xml version="1.0" encoding="UTF-8" standalone="no"?>
<!DOCTYPE svg PUBLIC "-//W3C//DTD SVG 1.1//EN"
 "http://www.w3.org/Graphics/SVG/1.1/DTD/svg11.dtd">
<!-- Generated by graphviz version 2.36.0 (20140111.2315)
 -->
<!-- Title: get_fat Pages: 1 -->
<svg width="812pt" height="249pt"
 viewBox="0.00 0.00 812.00 248.76" xmlns="http://www.w3.org/2000/svg" xmlns:xlink="http://www.w3.org/1999/xlink">
<g id="graph0" class="graph" transform="scale(1 1) rotate(0) translate(4 244.761)">
<title>get_fat</title>
<polygon fill="white" stroke="none" points="-4,4 -4,-244.761 808,-244.761 808,4 -4,4"/>
<!-- Node1 -->
<g id="node1" class="node"><title>Node1</title>
<polygon fill="#bfbfbf" stroke="black" points="0.5,-163.675 0.5,-182.675 47.5,-182.675 47.5,-163.675 0.5,-163.675"/>
<text text-anchor="middle" x="24" y="-170.675" font-family="Helvetica,sans-Serif" font-size="10.00">get_fat</text>
</g>
<!-- Node2 -->
<g id="node2" class="node"><title>Node2</title>
<g id="a_node2"><a xlink:href="ff_8c.html#af2e8986556ee6644b4bf31fa4158d735" target="_top" xlink:title="move_window">
<polygon fill="white" stroke="black" points="84.5,-163.675 84.5,-182.675 163.5,-182.675 163.5,-163.675 84.5,-163.675"/>
<text text-anchor="middle" x="124" y="-170.675" font-family="Helvetica,sans-Serif" font-size="10.00">move_window</text>
</a>
</g>
</g>
<!-- Node1&#45;&gt;Node2 -->
<g id="edge1" class="edge"><title>Node1&#45;&gt;Node2</title>
<path fill="none" stroke="midnightblue" d="M47.7295,-173.175C55.6173,-173.175 64.7946,-173.175 73.9731,-173.175"/>
<polygon fill="midnightblue" stroke="midnightblue" points="74.2678,-176.675 84.2678,-173.175 74.2678,-169.675 74.2678,-176.675"/>
</g>
<!-- Node3 -->
<g id="node3" class="node"><title>Node3</title>
<g id="a_node3"><a xlink:href="ff_8c.html#a5e18753404354b210096f9af99e31bc1" target="_top" xlink:title="sync_window">
<polygon fill="white" stroke="black" points="200,-144.675 200,-163.675 276,-163.675 276,-144.675 200,-144.675"/>
<text text-anchor="middle" x="238" y="-151.675" font-family="Helvetica,sans-Serif" font-size="10.00">sync_window</text>
</a>
</g>
</g>
<!-- Node2&#45;&gt;Node3 -->
<g id="edge2" class="edge"><title>Node2&#45;&gt;Node3</title>
<path fill="none" stroke="midnightblue" d="M163.544,-166.636C172.003,-165.201 181.053,-163.666 189.808,-162.181"/>
<polygon fill="midnightblue" stroke="midnightblue" points="190.624,-165.593 199.898,-160.469 189.453,-158.691 190.624,-165.593"/>
</g>
<!-- Node14 -->
<g id="node14" class="node"><title>Node14</title>
<g id="a_node14"><a xlink:href="diskio_8h.html#ac0c802f8a12fa2047b4bec7109b9293f" target="_top" xlink:title="disk_read">
<polygon fill="white" stroke="black" points="313.5,-182.675 313.5,-201.675 372.5,-201.675 372.5,-182.675 313.5,-182.675"/>
<text text-anchor="middle" x="343" y="-189.675" font-family="Helvetica,sans-Serif" font-size="10.00">disk_read</text>
</a>
</g>
</g>
<!-- Node2&#45;&gt;Node14 -->
<g id="edge21" class="edge"><title>Node2&#45;&gt;Node14</title>
<path fill="none" stroke="midnightblue" d="M163.795,-176.572C203.187,-180.021 263.836,-185.331 303.221,-188.78"/>
<polygon fill="midnightblue" stroke="midnightblue" points="302.973,-192.271 313.24,-189.657 303.584,-185.298 302.973,-192.271"/>
</g>
<!-- Node4 -->
<g id="node4" class="node"><title>Node4</title>
<g id="a_node4"><a xlink:href="diskio_8h.html#ac4785625f4bb82e33562079813659880" target="_top" xlink:title="disk_write">
<polygon fill="white" stroke="black" points="312.5,-144.675 312.5,-163.675 373.5,-163.675 373.5,-144.675 312.5,-144.675"/>
<text text-anchor="middle" x="343" y="-151.675" font-family="Helvetica,sans-Serif" font-size="10.00">disk_write</text>
</a>
</g>
</g>
<!-- Node3&#45;&gt;Node4 -->
<g id="edge3" class="edge"><title>Node3&#45;&gt;Node4</title>
<path fill="none" stroke="midnightblue" d="M276.185,-154.175C284.624,-154.175 293.621,-154.175 302.165,-154.175"/>
<polygon fill="midnightblue" stroke="midnightblue" points="302.295,-157.675 312.295,-154.175 302.294,-150.675 302.295,-157.675"/>
</g>
<!-- Node5 -->
<g id="node5" class="node"><title>Node5</title>
<g id="a_node5"><a xlink:href="sdmm_8c.html#ac0eadae94de728461ccade9e03fafd8c" target="_top" xlink:title="deselect">
<polygon fill="white" stroke="black" points="641.5,-144.675 641.5,-163.675 694.5,-163.675 694.5,-144.675 641.5,-144.675"/>
<text text-anchor="middle" x="668" y="-151.675" font-family="Helvetica,sans-Serif" font-size="10.00">deselect</text>
</a>
</g>
</g>
<!-- Node4&#45;&gt;Node5 -->
<g id="edge4" class="edge"><title>Node4&#45;&gt;Node5</title>
<path fill="none" stroke="midnightblue" d="M370.603,-144.674C382.491,-140.911 396.776,-137.041 410,-135.175 488.583,-124.089 581.654,-137.488 631.407,-146.764"/>
<polygon fill="midnightblue" stroke="midnightblue" points="630.865,-150.223 641.346,-148.67 632.184,-143.349 630.865,-150.223"/>
</g>
<!-- Node7 -->
<g id="node7" class="node"><title>Node7</title>
<g id="a_node7"><a xlink:href="sdmm_8c.html#a21ad8e9a107ea2000705a3edfebaaa2d" target="_top" xlink:title="disk_status">
<polygon fill="white" stroke="black" points="418.5,-182.675 418.5,-201.675 485.5,-201.675 485.5,-182.675 418.5,-182.675"/>
<text text-anchor="middle" x="452" y="-189.675" font-family="Helvetica,sans-Serif" font-size="10.00">disk_status</text>
</a>
</g>
</g>
<!-- Node4&#45;&gt;Node7 -->
<g id="edge6" class="edge"><title>Node4&#45;&gt;Node7</title>
<path fill="none" stroke="midnightblue" d="M371.001,-163.764C384.18,-168.445 400.229,-174.144 414.484,-179.207"/>
<polygon fill="midnightblue" stroke="midnightblue" points="413.413,-182.541 424.008,-182.589 415.756,-175.944 413.413,-182.541"/>
</g>
<!-- Node8 -->
<g id="node8" class="node"><title>Node8</title>
<g id="a_node8"><a xlink:href="sdmm_8c.html#a99684b493c8bfdb0288a2e24e52f6871" target="_top" xlink:title="send_cmd">
<polygon fill="white" stroke="black" points="421,-144.675 421,-163.675 483,-163.675 483,-144.675 421,-144.675"/>
<text text-anchor="middle" x="452" y="-151.675" font-family="Helvetica,sans-Serif" font-size="10.00">send_cmd</text>
</a>
</g>
</g>
<!-- Node4&#45;&gt;Node8 -->
<g id="edge7" class="edge"><title>Node4&#45;&gt;Node8</title>
<path fill="none" stroke="midnightblue" d="M373.521,-154.175C385.023,-154.175 398.389,-154.175 410.749,-154.175"/>
<polygon fill="midnightblue" stroke="midnightblue" points="410.831,-157.675 420.831,-154.175 410.831,-150.675 410.831,-157.675"/>
</g>
<!-- Node13 -->
<g id="node13" class="node"><title>Node13</title>
<g id="a_node13"><a xlink:href="sdmm_8c.html#aefbd30f6bdff37184f58faf98ad1c6e0" target="_top" xlink:title="xmit_datablock">
<polygon fill="white" stroke="black" points="410.5,-11.6752 410.5,-30.6752 493.5,-30.6752 493.5,-11.6752 410.5,-11.6752"/>
<text text-anchor="middle" x="452" y="-18.6752" font-family="Helvetica,sans-Serif" font-size="10.00">xmit_datablock</text>
</a>
</g>
</g>
<!-- Node4&#45;&gt;Node13 -->
<g id="edge17" class="edge"><title>Node4&#45;&gt;Node13</title>
<path fill="none" stroke="midnightblue" d="M351.695,-144.61C369.5,-122.479 413.762,-67.4622 436.703,-38.9458"/>
<polygon fill="midnightblue" stroke="midnightblue" points="439.545,-40.9979 443.086,-31.0124 434.09,-36.61 439.545,-40.9979"/>
</g>
<!-- Node6 -->
<g id="node6" class="node"><title>Node6</title>
<g id="a_node6"><a xlink:href="sdmm_8c.html#ab628371b03508f9db7c6daf1203ed84d" target="_top" xlink:title="rcvr_mmc">
<polygon fill="white" stroke="black" points="744,-125.675 744,-144.675 804,-144.675 804,-125.675 744,-125.675"/>
<text text-anchor="middle" x="774" y="-132.675" font-family="Helvetica,sans-Serif" font-size="10.00">rcvr_mmc</text>
</a>
</g>
</g>
<!-- Node5&#45;&gt;Node6 -->
<g id="edge5" class="edge"><title>Node5&#45;&gt;Node6</title>
<path fill="none" stroke="midnightblue" d="M694.708,-149.479C706.479,-147.328 720.689,-144.732 733.754,-142.345"/>
<polygon fill="midnightblue" stroke="midnightblue" points="734.71,-145.729 743.918,-140.488 733.452,-138.843 734.71,-145.729"/>
</g>
<!-- Node8&#45;&gt;Node5 -->
<g id="edge8" class="edge"><title>Node8&#45;&gt;Node5</title>
<path fill="none" stroke="midnightblue" d="M483.207,-154.175C522.104,-154.175 589.618,-154.175 631.096,-154.175"/>
<polygon fill="midnightblue" stroke="midnightblue" points="631.3,-157.675 641.3,-154.175 631.3,-150.675 631.3,-157.675"/>
</g>
<!-- Node8&#45;&gt;Node6 -->
<g id="edge16" class="edge"><title>Node8&#45;&gt;Node6</title>
<path fill="none" stroke="midnightblue" d="M483.063,-162.805C531.389,-175.268 628.943,-194.589 708,-173.175 724.244,-168.775 740.59,-159.189 752.827,-150.747"/>
<polygon fill="midnightblue" stroke="midnightblue" points="754.884,-153.578 760.95,-144.892 750.791,-147.899 754.884,-153.578"/>
</g>
<!-- Node9 -->
<g id="node9" class="node"><title>Node9</title>
<g id="a_node9"><a xlink:href="sdmm_8c.html#ab45cb1d47cda5822ce492ad3c11867ae" target="_top" xlink:title="select">
<polygon fill="white" stroke="black" points="539.5,-68.6752 539.5,-87.6752 582.5,-87.6752 582.5,-68.6752 539.5,-68.6752"/>
<text text-anchor="middle" x="561" y="-75.6752" font-family="Helvetica,sans-Serif" font-size="10.00">select</text>
</a>
</g>
</g>
<!-- Node8&#45;&gt;Node9 -->
<g id="edge9" class="edge"><title>Node8&#45;&gt;Node9</title>
<path fill="none" stroke="midnightblue" d="M466.552,-144.55C484.641,-131.701 516.888,-108.797 538.361,-93.5447"/>
<polygon fill="midnightblue" stroke="midnightblue" points="540.432,-96.3667 546.558,-87.7225 536.379,-90.6598 540.432,-96.3667"/>
</g>
<!-- Node12 -->
<g id="node12" class="node"><title>Node12</title>
<g id="a_node12"><a xlink:href="sdmm_8c.html#ace0af708caf7775204ca74fbd46818bb" target="_top" xlink:title="xmit_mmc">
<polygon fill="white" stroke="black" points="530,-30.6752 530,-49.6752 592,-49.6752 592,-30.6752 530,-30.6752"/>
<text text-anchor="middle" x="561" y="-37.6752" font-family="Helvetica,sans-Serif" font-size="10.00">xmit_mmc</text>
</a>
</g>
</g>
<!-- Node8&#45;&gt;Node12 -->
<g id="edge15" class="edge"><title>Node8&#45;&gt;Node12</title>
<path fill="none" stroke="midnightblue" d="M459.321,-144.412C471.461,-126.16 499.547,-86.2706 530,-59.1752 531.33,-57.9919 532.742,-56.8338 534.199,-55.7103"/>
<polygon fill="midnightblue" stroke="midnightblue" points="536.6,-58.3035 542.81,-49.7189 532.602,-52.5577 536.6,-58.3035"/>
</g>
<!-- Node9&#45;&gt;Node5 -->
<g id="edge14" class="edge"><title>Node9&#45;&gt;Node5</title>
<path fill="none" stroke="midnightblue" d="M574.413,-87.8002C579.875,-92.1139 586.327,-97.3152 592,-102.175 608.484,-116.296 610.057,-122.962 628,-135.175 630.393,-136.804 632.947,-138.372 635.559,-139.861"/>
<polygon fill="midnightblue" stroke="midnightblue" points="634.039,-143.017 644.517,-144.591 637.308,-136.827 634.039,-143.017"/>
</g>
<!-- Node9&#45;&gt;Node6 -->
<g id="edge10" class="edge"><title>Node9&#45;&gt;Node6</title>
<path fill="none" stroke="midnightblue" d="M582.898,-78.3077C611.782,-79.0646 665.187,-82.5479 708,-97.1752 723.574,-102.496 739.552,-111.775 751.769,-119.831"/>
<polygon fill="midnightblue" stroke="midnightblue" points="750.078,-122.915 760.309,-125.668 754.028,-117.136 750.078,-122.915"/>
</g>
<!-- Node10 -->
<g id="node10" class="node"><title>Node10</title>
<g id="a_node10"><a xlink:href="sdmm_8c.html#a624a19e248af05530dae5c0cc1dddc11" target="_top" xlink:title="wait_ready">
<polygon fill="white" stroke="black" points="636,-106.675 636,-125.675 700,-125.675 700,-106.675 636,-106.675"/>
<text text-anchor="middle" x="668" y="-113.675" font-family="Helvetica,sans-Serif" font-size="10.00">wait_ready</text>
</a>
</g>
</g>
<!-- Node9&#45;&gt;Node10 -->
<g id="edge11" class="edge"><title>Node9&#45;&gt;Node10</title>
<path fill="none" stroke="midnightblue" d="M582.745,-85.6828C596.504,-90.6623 614.924,-97.3288 631.033,-103.158"/>
<polygon fill="midnightblue" stroke="midnightblue" points="630.107,-106.545 640.701,-106.657 632.489,-99.9632 630.107,-106.545"/>
</g>
<!-- Node10&#45;&gt;Node6 -->
<g id="edge12" class="edge"><title>Node10&#45;&gt;Node6</title>
<path fill="none" stroke="midnightblue" d="M700.203,-121.876C710.831,-123.817 722.846,-126.012 734.007,-128.051"/>
<polygon fill="midnightblue" stroke="midnightblue" points="733.486,-131.514 743.952,-129.868 734.744,-124.628 733.486,-131.514"/>
</g>
<!-- Node11 -->
<g id="node11" class="node"><title>Node11</title>
<g id="a_node11"><a xlink:href="sdmm_8c.html#a76a43e01b9676630e121e5a659acbb3f" target="_top" xlink:title="dly_us">
<polygon fill="white" stroke="black" points="751.5,-201.675 751.5,-220.675 796.5,-220.675 796.5,-201.675 751.5,-201.675"/>
<text text-anchor="middle" x="774" y="-208.675" font-family="Helvetica,sans-Serif" font-size="10.00">dly_us</text>
</a>
</g>
</g>
<!-- Node10&#45;&gt;Node11 -->
<g id="edge13" class="edge"><title>Node10&#45;&gt;Node11</title>
<path fill="none" stroke="midnightblue" d="M692.605,-125.746C697.917,-128.414 703.353,-131.581 708,-135.175 729.554,-151.844 749.109,-176.638 761.016,-193.33"/>
<polygon fill="midnightblue" stroke="midnightblue" points="758.228,-195.451 766.808,-201.667 763.977,-191.457 758.228,-195.451"/>
</g>
<!-- Node13&#45;&gt;Node6 -->
<g id="edge20" class="edge"><title>Node13&#45;&gt;Node6</title>
<path fill="none" stroke="midnightblue" d="M481.212,-11.6169C509.671,-3.43268 554.623,5.48149 592,-5.17518 663.04,-25.43 728.799,-87.7886 757.635,-118.177"/>
<polygon fill="midnightblue" stroke="midnightblue" points="755.082,-120.572 764.458,-125.505 760.205,-115.802 755.082,-120.572"/>
</g>
<!-- Node13&#45;&gt;Node10 -->
<g id="edge18" class="edge"><title>Node13&#45;&gt;Node10</title>
<path fill="none" stroke="midnightblue" d="M493.719,-12.1459C522.6,-7.83319 561.489,-6.38925 592,-21.1752 624.615,-36.9806 647.326,-74.6111 658.674,-97.4836"/>
<polygon fill="midnightblue" stroke="midnightblue" points="655.522,-99.0053 662.961,-106.55 661.85,-96.0132 655.522,-99.0053"/>
</g>
<!-- Node13&#45;&gt;Node12 -->
<g id="edge19" class="edge"><title>Node13&#45;&gt;Node12</title>
<path fill="none" stroke="midnightblue" d="M493.757,-28.4125C502.239,-29.9185 511.174,-31.5051 519.641,-33.0086"/>
<polygon fill="midnightblue" stroke="midnightblue" points="519.217,-36.4879 529.675,-34.7903 520.441,-29.5958 519.217,-36.4879"/>
</g>
<!-- Node14&#45;&gt;Node5 -->
<g id="edge22" class="edge"><title>Node14&#45;&gt;Node5</title>
<path fill="none" stroke="midnightblue" d="M370.603,-201.676C382.491,-205.44 396.776,-209.31 410,-211.175 446.967,-216.39 457.138,-217.091 494,-211.175 545.295,-202.943 601.999,-181.803 636.046,-167.712"/>
<polygon fill="midnightblue" stroke="midnightblue" points="637.577,-170.865 645.439,-163.764 634.864,-164.412 637.577,-170.865"/>
</g>
<!-- Node14&#45;&gt;Node7 -->
<g id="edge23" class="edge"><title>Node14&#45;&gt;Node7</title>
<path fill="none" stroke="midnightblue" d="M372.674,-192.175C383.59,-192.175 396.279,-192.175 408.223,-192.175"/>
<polygon fill="midnightblue" stroke="midnightblue" points="408.465,-195.675 418.465,-192.175 408.465,-188.675 408.465,-195.675"/>
</g>
<!-- Node14&#45;&gt;Node8 -->
<g id="edge27" class="edge"><title>Node14&#45;&gt;Node8</title>
<path fill="none" stroke="midnightblue" d="M371.001,-182.586C384.18,-177.906 400.229,-172.206 414.484,-167.144"/>
<polygon fill="midnightblue" stroke="midnightblue" points="415.756,-170.406 424.008,-163.761 413.413,-163.81 415.756,-170.406"/>
</g>
<!-- Node15 -->
<g id="node15" class="node"><title>Node15</title>
<g id="a_node15"><a xlink:href="sdmm_8c.html#a8c99afbc312912297b19752cf7e0960b" target="_top" xlink:title="rcvr_datablock">
<polygon fill="white" stroke="black" points="628,-220.675 628,-239.675 708,-239.675 708,-220.675 628,-220.675"/>
<text text-anchor="middle" x="668" y="-227.675" font-family="Helvetica,sans-Serif" font-size="10.00">rcvr_datablock</text>
</a>
</g>
</g>
<!-- Node14&#45;&gt;Node15 -->
<g id="edge24" class="edge"><title>Node14&#45;&gt;Node15</title>
<path fill="none" stroke="midnightblue" d="M357.37,-201.736C370.175,-210.273 390.394,-222.177 410,-227.175 480.532,-245.157 565.527,-241.441 617.916,-236.378"/>
<polygon fill="midnightblue" stroke="midnightblue" points="618.352,-239.851 627.945,-235.353 617.641,-232.887 618.352,-239.851"/>
</g>
<!-- Node15&#45;&gt;Node6 -->
<g id="edge25" class="edge"><title>Node15&#45;&gt;Node6</title>
<path fill="none" stroke="midnightblue" d="M686.787,-220.641C693.701,-216.58 701.504,-211.543 708,-206.175 727.6,-189.98 746.861,-167.958 759.263,-152.754"/>
<polygon fill="midnightblue" stroke="midnightblue" points="762.205,-154.68 765.724,-144.687 756.741,-150.305 762.205,-154.68"/>
</g>
<!-- Node15&#45;&gt;Node11 -->
<g id="edge26" class="edge"><title>Node15&#45;&gt;Node11</title>
<path fill="none" stroke="midnightblue" d="M708.022,-223.046C719.002,-221.04 730.806,-218.884 741.302,-216.966"/>
<polygon fill="midnightblue" stroke="midnightblue" points="742.074,-220.383 751.282,-215.143 740.816,-213.497 742.074,-220.383"/>
</g>
</g>
</svg>
