<?xml version="1.0" encoding="UTF-8" standalone="no"?>
<!DOCTYPE svg PUBLIC "-//W3C//DTD SVG 1.1//EN"
 "http://www.w3.org/Graphics/SVG/1.1/DTD/svg11.dtd">
<!-- Generated by graphviz version 2.36.0 (20140111.2315)
 -->
<!-- Title: chk_mounted Pages: 1 -->
<svg width="716pt" height="395pt"
 viewBox="0.00 0.00 716.00 394.62" xmlns="http://www.w3.org/2000/svg" xmlns:xlink="http://www.w3.org/1999/xlink">
<g id="graph0" class="graph" transform="scale(1 1) rotate(0) translate(4 390.617)">
<title>chk_mounted</title>
<polygon fill="white" stroke="none" points="-4,4 -4,-390.617 712,-390.617 712,4 -4,4"/>
<!-- Node1 -->
<g id="node1" class="node"><title>Node1</title>
<polygon fill="#bfbfbf" stroke="black" points="0.5,-215.117 0.5,-234.117 75.5,-234.117 75.5,-215.117 0.5,-215.117"/>
<text text-anchor="middle" x="38" y="-222.117" font-family="Helvetica,sans-Serif" font-size="10.00">chk_mounted</text>
</g>
<!-- Node2 -->
<g id="node2" class="node"><title>Node2</title>
<g id="a_node2"><a xlink:href="ff_8c.html#a55626c76a1556af5dc5345e2c0841a65" target="_top" xlink:title="check_fs">
<polygon fill="white" stroke="black" points="118,-253.117 118,-272.117 174,-272.117 174,-253.117 118,-253.117"/>
<text text-anchor="middle" x="146" y="-260.117" font-family="Helvetica,sans-Serif" font-size="10.00">check_fs</text>
</a>
</g>
</g>
<!-- Node1&#45;&gt;Node2 -->
<g id="edge1" class="edge"><title>Node1&#45;&gt;Node2</title>
<path fill="none" stroke="midnightblue" d="M65.7483,-234.206C78.8042,-238.887 94.7035,-244.586 108.825,-249.649"/>
<polygon fill="midnightblue" stroke="midnightblue" points="107.666,-252.951 118.26,-253.031 110.028,-246.362 107.666,-252.951"/>
</g>
<!-- Node3 -->
<g id="node3" class="node"><title>Node3</title>
<g id="a_node3"><a xlink:href="diskio_8h.html#ac0c802f8a12fa2047b4bec7109b9293f" target="_top" xlink:title="disk_read">
<polygon fill="white" stroke="black" points="224.5,-291.117 224.5,-310.117 283.5,-310.117 283.5,-291.117 224.5,-291.117"/>
<text text-anchor="middle" x="254" y="-298.117" font-family="Helvetica,sans-Serif" font-size="10.00">disk_read</text>
</a>
</g>
</g>
<!-- Node1&#45;&gt;Node3 -->
<g id="edge30" class="edge"><title>Node1&#45;&gt;Node3</title>
<path fill="none" stroke="midnightblue" d="M47.8543,-234.175C60.6325,-247.293 85.6206,-270.513 112,-281.617 144.644,-295.359 184.955,-299.667 214.103,-300.799"/>
<polygon fill="midnightblue" stroke="midnightblue" points="214.208,-304.303 224.302,-301.084 214.404,-297.306 214.208,-304.303"/>
</g>
<!-- Node13 -->
<g id="node13" class="node"><title>Node13</title>
<g id="a_node13"><a xlink:href="diskio_8h.html#a09cdaa6f36fa409bdf002727bff98eb1" target="_top" xlink:title="disk_initialize">
<polygon fill="white" stroke="black" points="216.5,-101.117 216.5,-120.117 291.5,-120.117 291.5,-101.117 216.5,-101.117"/>
<text text-anchor="middle" x="254" y="-108.117" font-family="Helvetica,sans-Serif" font-size="10.00">disk_initialize</text>
</a>
</g>
</g>
<!-- Node1&#45;&gt;Node13 -->
<g id="edge19" class="edge"><title>Node1&#45;&gt;Node13</title>
<path fill="none" stroke="midnightblue" d="M69.5638,-215.029C98.9147,-205.192 143.985,-188.408 180,-167.617 200.022,-156.058 220.581,-139.503 234.758,-127.21"/>
<polygon fill="midnightblue" stroke="midnightblue" points="237.138,-129.778 242.315,-120.534 232.504,-124.532 237.138,-129.778"/>
</g>
<!-- Node14 -->
<g id="node14" class="node"><title>Node14</title>
<g id="a_node14"><a xlink:href="diskio_8h.html#ab00fa450a811dbdabe3c655c1a36fab4" target="_top" xlink:title="disk_ioctl">
<polygon fill="white" stroke="black" points="225,-215.117 225,-234.117 283,-234.117 283,-215.117 225,-215.117"/>
<text text-anchor="middle" x="254" y="-222.117" font-family="Helvetica,sans-Serif" font-size="10.00">disk_ioctl</text>
</a>
</g>
</g>
<!-- Node1&#45;&gt;Node14 -->
<g id="edge24" class="edge"><title>Node1&#45;&gt;Node14</title>
<path fill="none" stroke="midnightblue" d="M75.7879,-224.617C114.539,-224.617 175.288,-224.617 214.627,-224.617"/>
<polygon fill="midnightblue" stroke="midnightblue" points="214.874,-228.117 224.874,-224.617 214.874,-221.117 214.874,-228.117"/>
</g>
<!-- Node15 -->
<g id="node15" class="node"><title>Node15</title>
<g id="a_node15"><a xlink:href="diskio_8h.html#a8348ac5ee6d709420c02e45c111f4793" target="_top" xlink:title="disk_status">
<polygon fill="white" stroke="black" points="112.5,-139.117 112.5,-158.117 179.5,-158.117 179.5,-139.117 112.5,-139.117"/>
<text text-anchor="middle" x="146" y="-146.117" font-family="Helvetica,sans-Serif" font-size="10.00">disk_status</text>
</a>
</g>
</g>
<!-- Node1&#45;&gt;Node15 -->
<g id="edge31" class="edge"><title>Node1&#45;&gt;Node15</title>
<path fill="none" stroke="midnightblue" d="M52.425,-214.992C70.2658,-202.2 102.007,-179.442 123.279,-164.19"/>
<polygon fill="midnightblue" stroke="midnightblue" points="125.596,-166.836 131.684,-158.164 121.518,-161.147 125.596,-166.836"/>
</g>
<!-- Node2&#45;&gt;Node3 -->
<g id="edge2" class="edge"><title>Node2&#45;&gt;Node3</title>
<path fill="none" stroke="midnightblue" d="M173.748,-272.206C186.804,-276.887 202.703,-282.586 216.825,-287.649"/>
<polygon fill="midnightblue" stroke="midnightblue" points="215.666,-290.951 226.26,-291.031 218.028,-284.362 215.666,-290.951"/>
</g>
<!-- Node4 -->
<g id="node4" class="node"><title>Node4</title>
<g id="a_node4"><a xlink:href="sdmm_8c.html#ac0eadae94de728461ccade9e03fafd8c" target="_top" xlink:title="deselect">
<polygon fill="white" stroke="black" points="553.5,-177.117 553.5,-196.117 606.5,-196.117 606.5,-177.117 553.5,-177.117"/>
<text text-anchor="middle" x="580" y="-184.117" font-family="Helvetica,sans-Serif" font-size="10.00">deselect</text>
</a>
</g>
</g>
<!-- Node3&#45;&gt;Node4 -->
<g id="edge3" class="edge"><title>Node3&#45;&gt;Node4</title>
<path fill="none" stroke="midnightblue" d="M278.346,-310.127C306.843,-320.307 356.159,-333.267 396,-319.617 476.906,-291.899 475.332,-246.712 548,-201.617 548.286,-201.44 548.574,-201.263 548.864,-201.087"/>
<polygon fill="midnightblue" stroke="midnightblue" points="550.622,-204.115 557.671,-196.205 547.228,-197.992 550.622,-204.115"/>
</g>
<!-- Node6 -->
<g id="node6" class="node"><title>Node6</title>
<g id="a_node6"><a xlink:href="sdmm_8c.html#a21ad8e9a107ea2000705a3edfebaaa2d" target="_top" xlink:title="disk_status">
<polygon fill="white" stroke="black" points="328.5,-291.117 328.5,-310.117 395.5,-310.117 395.5,-291.117 328.5,-291.117"/>
<text text-anchor="middle" x="362" y="-298.117" font-family="Helvetica,sans-Serif" font-size="10.00">disk_status</text>
</a>
</g>
</g>
<!-- Node3&#45;&gt;Node6 -->
<g id="edge5" class="edge"><title>Node3&#45;&gt;Node6</title>
<path fill="none" stroke="midnightblue" d="M283.685,-300.617C294.2,-300.617 306.346,-300.617 317.85,-300.617"/>
<polygon fill="midnightblue" stroke="midnightblue" points="318.169,-304.117 328.169,-300.617 318.169,-297.117 318.169,-304.117"/>
</g>
<!-- Node7 -->
<g id="node7" class="node"><title>Node7</title>
<g id="a_node7"><a xlink:href="sdmm_8c.html#a8c99afbc312912297b19752cf7e0960b" target="_top" xlink:title="rcvr_datablock">
<polygon fill="white" stroke="black" points="432,-367.117 432,-386.117 512,-386.117 512,-367.117 432,-367.117"/>
<text text-anchor="middle" x="472" y="-374.117" font-family="Helvetica,sans-Serif" font-size="10.00">rcvr_datablock</text>
</a>
</g>
</g>
<!-- Node3&#45;&gt;Node7 -->
<g id="edge6" class="edge"><title>Node3&#45;&gt;Node7</title>
<path fill="none" stroke="midnightblue" d="M265.434,-310.431C278.819,-322.423 303.273,-342.377 328,-352.617 357.725,-364.927 393.411,-370.927 421.698,-373.85"/>
<polygon fill="midnightblue" stroke="midnightblue" points="421.477,-377.345 431.76,-374.794 422.131,-370.375 421.477,-377.345"/>
</g>
<!-- Node9 -->
<g id="node9" class="node"><title>Node9</title>
<g id="a_node9"><a xlink:href="sdmm_8c.html#a99684b493c8bfdb0288a2e24e52f6871" target="_top" xlink:title="send_cmd">
<polygon fill="white" stroke="black" points="331,-177.117 331,-196.117 393,-196.117 393,-177.117 331,-177.117"/>
<text text-anchor="middle" x="362" y="-184.117" font-family="Helvetica,sans-Serif" font-size="10.00">send_cmd</text>
</a>
</g>
</g>
<!-- Node3&#45;&gt;Node9 -->
<g id="edge9" class="edge"><title>Node3&#45;&gt;Node9</title>
<path fill="none" stroke="midnightblue" d="M264.038,-290.898C282.03,-271.547 322.535,-227.985 345.085,-203.733"/>
<polygon fill="midnightblue" stroke="midnightblue" points="347.739,-206.019 351.985,-196.312 342.613,-201.252 347.739,-206.019"/>
</g>
<!-- Node5 -->
<g id="node5" class="node"><title>Node5</title>
<g id="a_node5"><a xlink:href="sdmm_8c.html#ab628371b03508f9db7c6daf1203ed84d" target="_top" xlink:title="rcvr_mmc">
<polygon fill="white" stroke="black" points="648,-101.117 648,-120.117 708,-120.117 708,-101.117 648,-101.117"/>
<text text-anchor="middle" x="678" y="-108.117" font-family="Helvetica,sans-Serif" font-size="10.00">rcvr_mmc</text>
</a>
</g>
</g>
<!-- Node4&#45;&gt;Node5 -->
<g id="edge4" class="edge"><title>Node4&#45;&gt;Node5</title>
<path fill="none" stroke="midnightblue" d="M593.158,-176.992C609.244,-164.257 637.806,-141.645 657.07,-126.395"/>
<polygon fill="midnightblue" stroke="midnightblue" points="659.272,-129.116 664.94,-120.164 654.927,-123.627 659.272,-129.116"/>
</g>
<!-- Node7&#45;&gt;Node5 -->
<g id="edge7" class="edge"><title>Node7&#45;&gt;Node5</title>
<path fill="none" stroke="midnightblue" d="M496.287,-367.07C526.953,-353.376 580.642,-325.355 612,-285.617 649.879,-237.614 667.231,-165.313 673.737,-130.603"/>
<polygon fill="midnightblue" stroke="midnightblue" points="677.253,-130.818 675.542,-120.362 670.359,-129.603 677.253,-130.818"/>
</g>
<!-- Node8 -->
<g id="node8" class="node"><title>Node8</title>
<g id="a_node8"><a xlink:href="sdmm_8c.html#a76a43e01b9676630e121e5a659acbb3f" target="_top" xlink:title="dly_us">
<polygon fill="white" stroke="black" points="655.5,-44.1171 655.5,-63.1171 700.5,-63.1171 700.5,-44.1171 655.5,-44.1171"/>
<text text-anchor="middle" x="678" y="-51.1171" font-family="Helvetica,sans-Serif" font-size="10.00">dly_us</text>
</a>
</g>
</g>
<!-- Node7&#45;&gt;Node8 -->
<g id="edge8" class="edge"><title>Node7&#45;&gt;Node8</title>
<path fill="none" stroke="midnightblue" d="M493.121,-366.953C499.686,-363.131 506.655,-358.285 512,-352.617 535.193,-328.024 529.365,-313.821 548,-285.617 573.102,-247.628 590.558,-245.786 612,-205.617 637.02,-158.744 623.517,-138.773 648,-91.6171 651.733,-84.4266 656.836,-77.1941 661.722,-70.9973"/>
<polygon fill="midnightblue" stroke="midnightblue" points="664.421,-73.2258 668.1,-63.2903 659.028,-68.763 664.421,-73.2258"/>
</g>
<!-- Node9&#45;&gt;Node4 -->
<g id="edge10" class="edge"><title>Node9&#45;&gt;Node4</title>
<path fill="none" stroke="midnightblue" d="M393.034,-186.617C432.36,-186.617 501.217,-186.617 543.205,-186.617"/>
<polygon fill="midnightblue" stroke="midnightblue" points="543.267,-190.117 553.267,-186.617 543.267,-183.117 543.267,-190.117"/>
</g>
<!-- Node9&#45;&gt;Node5 -->
<g id="edge18" class="edge"><title>Node9&#45;&gt;Node5</title>
<path fill="none" stroke="midnightblue" d="M376.859,-177.073C390.331,-168.269 411.678,-155.547 432,-148.617 502.027,-124.738 588.469,-115.794 637.713,-112.495"/>
<polygon fill="midnightblue" stroke="midnightblue" points="638.169,-115.973 647.931,-111.856 637.732,-108.987 638.169,-115.973"/>
</g>
<!-- Node10 -->
<g id="node10" class="node"><title>Node10</title>
<g id="a_node10"><a xlink:href="sdmm_8c.html#ab45cb1d47cda5822ce492ad3c11867ae" target="_top" xlink:title="select">
<polygon fill="white" stroke="black" points="450.5,-44.1171 450.5,-63.1171 493.5,-63.1171 493.5,-44.1171 450.5,-44.1171"/>
<text text-anchor="middle" x="472" y="-51.1171" font-family="Helvetica,sans-Serif" font-size="10.00">select</text>
</a>
</g>
</g>
<!-- Node9&#45;&gt;Node10 -->
<g id="edge11" class="edge"><title>Node9&#45;&gt;Node10</title>
<path fill="none" stroke="midnightblue" d="M379.919,-176.922C385.594,-173.039 391.594,-168.164 396,-162.617 421.519,-130.493 405.261,-108.733 432,-77.6171 434.798,-74.3611 438.151,-71.4108 441.7,-68.7822"/>
<polygon fill="midnightblue" stroke="midnightblue" points="443.718,-71.6444 450.169,-63.2399 439.885,-65.7872 443.718,-71.6444"/>
</g>
<!-- Node12 -->
<g id="node12" class="node"><title>Node12</title>
<g id="a_node12"><a xlink:href="sdmm_8c.html#ace0af708caf7775204ca74fbd46818bb" target="_top" xlink:title="xmit_mmc">
<polygon fill="white" stroke="black" points="441,-158.117 441,-177.117 503,-177.117 503,-158.117 441,-158.117"/>
<text text-anchor="middle" x="472" y="-165.117" font-family="Helvetica,sans-Serif" font-size="10.00">xmit_mmc</text>
</a>
</g>
</g>
<!-- Node9&#45;&gt;Node12 -->
<g id="edge17" class="edge"><title>Node9&#45;&gt;Node12</title>
<path fill="none" stroke="midnightblue" d="M393.084,-181.325C404.689,-179.283 418.141,-176.916 430.568,-174.73"/>
<polygon fill="midnightblue" stroke="midnightblue" points="431.46,-178.127 440.703,-172.947 430.248,-171.233 431.46,-178.127"/>
</g>
<!-- Node10&#45;&gt;Node4 -->
<g id="edge16" class="edge"><title>Node10&#45;&gt;Node4</title>
<path fill="none" stroke="midnightblue" d="M480.623,-63.1821C498.261,-85.3131 542.11,-140.33 564.837,-168.847"/>
<polygon fill="midnightblue" stroke="midnightblue" points="562.19,-171.141 571.16,-176.78 567.664,-166.778 562.19,-171.141"/>
</g>
<!-- Node10&#45;&gt;Node5 -->
<g id="edge12" class="edge"><title>Node10&#45;&gt;Node5</title>
<path fill="none" stroke="midnightblue" d="M493.683,-59.3962C527.443,-68.8291 594.927,-87.6849 637.926,-99.6993"/>
<polygon fill="midnightblue" stroke="midnightblue" points="637.192,-103.128 647.765,-102.448 639.076,-96.3865 637.192,-103.128"/>
</g>
<!-- Node11 -->
<g id="node11" class="node"><title>Node11</title>
<g id="a_node11"><a xlink:href="sdmm_8c.html#a624a19e248af05530dae5c0cc1dddc11" target="_top" xlink:title="wait_ready">
<polygon fill="white" stroke="black" points="548,-44.1171 548,-63.1171 612,-63.1171 612,-44.1171 548,-44.1171"/>
<text text-anchor="middle" x="580" y="-51.1171" font-family="Helvetica,sans-Serif" font-size="10.00">wait_ready</text>
</a>
</g>
</g>
<!-- Node10&#45;&gt;Node11 -->
<g id="edge13" class="edge"><title>Node10&#45;&gt;Node11</title>
<path fill="none" stroke="midnightblue" d="M493.69,-53.6171C506.221,-53.6171 522.651,-53.6171 537.743,-53.6171"/>
<polygon fill="midnightblue" stroke="midnightblue" points="537.913,-57.1172 547.913,-53.6171 537.913,-50.1172 537.913,-57.1172"/>
</g>
<!-- Node11&#45;&gt;Node5 -->
<g id="edge14" class="edge"><title>Node11&#45;&gt;Node5</title>
<path fill="none" stroke="midnightblue" d="M597.285,-63.2864C612.27,-72.1838 634.72,-85.5133 651.98,-95.7617"/>
<polygon fill="midnightblue" stroke="midnightblue" points="650.57,-98.9947 660.955,-101.091 654.144,-92.9757 650.57,-98.9947"/>
</g>
<!-- Node11&#45;&gt;Node8 -->
<g id="edge15" class="edge"><title>Node11&#45;&gt;Node8</title>
<path fill="none" stroke="midnightblue" d="M612.168,-53.6171C622.762,-53.6171 634.609,-53.6171 645.248,-53.6171"/>
<polygon fill="midnightblue" stroke="midnightblue" points="645.393,-57.1172 655.393,-53.6171 645.393,-50.1172 645.393,-57.1172"/>
</g>
<!-- Node13&#45;&gt;Node4 -->
<g id="edge20" class="edge"><title>Node13&#45;&gt;Node4</title>
<path fill="none" stroke="midnightblue" d="M291.751,-111.82C342.552,-114.422 436.51,-122.645 512,-148.617 527.874,-154.078 544.29,-163.321 556.9,-171.323"/>
<polygon fill="midnightblue" stroke="midnightblue" points="555.064,-174.305 565.347,-176.859 558.901,-168.45 555.064,-174.305"/>
</g>
<!-- Node13&#45;&gt;Node5 -->
<g id="edge22" class="edge"><title>Node13&#45;&gt;Node5</title>
<path fill="none" stroke="midnightblue" d="M271.338,-100.894C301.7,-83.4556 369.434,-47.4814 432,-34.6171 510.361,-18.5051 539.337,-1.14915 612,-34.6171 618.826,-37.7611 646.152,-71.418 663.126,-92.875"/>
<polygon fill="midnightblue" stroke="midnightblue" points="660.536,-95.2439 669.471,-100.937 666.037,-90.9146 660.536,-95.2439"/>
</g>
<!-- Node13&#45;&gt;Node8 -->
<g id="edge21" class="edge"><title>Node13&#45;&gt;Node8</title>
<path fill="none" stroke="midnightblue" d="M262.381,-100.858C274.42,-85.6386 299.791,-56.3671 328,-40.6171 369.696,-17.3372 384.657,-19.8699 432,-13.6171 511.312,-3.14197 535.145,9.5969 612,-12.6171 628.915,-17.5062 645.664,-28.25 657.923,-37.5132"/>
<polygon fill="midnightblue" stroke="midnightblue" points="655.978,-40.4372 665.994,-43.8916 660.318,-34.9452 655.978,-40.4372"/>
</g>
<!-- Node13&#45;&gt;Node9 -->
<g id="edge23" class="edge"><title>Node13&#45;&gt;Node9</title>
<path fill="none" stroke="midnightblue" d="M268.425,-120.243C286.266,-133.034 318.007,-155.792 339.279,-171.044"/>
<polygon fill="midnightblue" stroke="midnightblue" points="337.518,-174.087 347.684,-177.07 341.596,-168.398 337.518,-174.087"/>
</g>
<!-- Node14&#45;&gt;Node4 -->
<g id="edge25" class="edge"><title>Node14&#45;&gt;Node4</title>
<path fill="none" stroke="midnightblue" d="M283.268,-223.024C330.729,-220.116 429.358,-213.069 512,-200.617 522.204,-199.08 533.194,-196.974 543.263,-194.863"/>
<polygon fill="midnightblue" stroke="midnightblue" points="544.316,-198.217 553.352,-192.685 542.838,-191.375 544.316,-198.217"/>
</g>
<!-- Node14&#45;&gt;Node6 -->
<g id="edge26" class="edge"><title>Node14&#45;&gt;Node6</title>
<path fill="none" stroke="midnightblue" d="M268.425,-234.243C286.266,-247.034 318.007,-269.792 339.279,-285.044"/>
<polygon fill="midnightblue" stroke="midnightblue" points="337.518,-288.087 347.684,-291.07 341.596,-282.398 337.518,-288.087"/>
</g>
<!-- Node14&#45;&gt;Node7 -->
<g id="edge27" class="edge"><title>Node14&#45;&gt;Node7</title>
<path fill="none" stroke="midnightblue" d="M283.118,-231.346C313.232,-239.554 361.354,-255.641 396,-281.617 424.285,-302.824 447.784,-337.185 460.572,-358.253"/>
<polygon fill="midnightblue" stroke="midnightblue" points="457.578,-360.067 465.673,-366.903 463.608,-356.511 457.578,-360.067"/>
</g>
<!-- Node14&#45;&gt;Node9 -->
<g id="edge29" class="edge"><title>Node14&#45;&gt;Node9</title>
<path fill="none" stroke="midnightblue" d="M281.748,-215.028C294.804,-210.348 310.703,-204.648 324.825,-199.586"/>
<polygon fill="midnightblue" stroke="midnightblue" points="326.028,-202.872 334.26,-196.203 323.666,-196.283 326.028,-202.872"/>
</g>
<!-- Node14&#45;&gt;Node10 -->
<g id="edge28" class="edge"><title>Node14&#45;&gt;Node10</title>
<path fill="none" stroke="midnightblue" d="M265.747,-214.765C292.706,-190.262 365.791,-125.121 432,-77.6171 436.33,-74.5105 441.066,-71.3853 445.699,-68.4642"/>
<polygon fill="midnightblue" stroke="midnightblue" points="447.655,-71.3707 454.347,-63.1571 443.993,-65.4045 447.655,-71.3707"/>
</g>
</g>
</svg>
