<?xml version="1.0" encoding="UTF-8" standalone="no"?>
<!DOCTYPE svg PUBLIC "-//W3C//DTD SVG 1.1//EN"
 "http://www.w3.org/Graphics/SVG/1.1/DTD/svg11.dtd">
<!-- Generated by graphviz version 2.36.0 (20140111.2315)
 -->
<!-- Title: f_open Pages: 1 -->
<svg width="1344pt" height="712pt"
 viewBox="0.00 0.00 1344.00 712.00" xmlns="http://www.w3.org/2000/svg" xmlns:xlink="http://www.w3.org/1999/xlink">
<g id="graph0" class="graph" transform="scale(1 1) rotate(0) translate(4 708)">
<title>f_open</title>
<polygon fill="white" stroke="none" points="-4,4 -4,-708 1340,-708 1340,4 -4,4"/>
<!-- Node1 -->
<g id="node1" class="node"><title>Node1</title>
<polygon fill="#bfbfbf" stroke="black" points="0,-209.5 0,-228.5 46,-228.5 46,-209.5 0,-209.5"/>
<text text-anchor="middle" x="23" y="-216.5" font-family="Helvetica,sans-Serif" font-size="10.00">f_open</text>
</g>
<!-- Node2 -->
<g id="node2" class="node"><title>Node2</title>
<g id="a_node2"><a xlink:href="ff_8c.html#acb7ec4033afc5b9041ee9c82385552db" target="_top" xlink:title="chk_mounted">
<polygon fill="white" stroke="black" points="602.5,-570.5 602.5,-589.5 677.5,-589.5 677.5,-570.5 602.5,-570.5"/>
<text text-anchor="middle" x="640" y="-577.5" font-family="Helvetica,sans-Serif" font-size="10.00">chk_mounted</text>
</a>
</g>
</g>
<!-- Node1&#45;&gt;Node2 -->
<g id="edge1" class="edge"><title>Node1&#45;&gt;Node2</title>
<path fill="none" stroke="midnightblue" d="M23.5786,-228.603C22.4226,-265.731 22.6032,-402.126 82,-489 123.466,-549.648 146.532,-580 220,-580 220,-580 220,-580 445,-580 495.241,-580 552.801,-580 592.092,-580"/>
<polygon fill="midnightblue" stroke="midnightblue" points="592.17,-583.5 602.17,-580 592.17,-576.5 592.17,-583.5"/>
</g>
<!-- Node17 -->
<g id="node17" class="node"><title>Node17</title>
<g id="a_node17"><a xlink:href="ff_8c.html#aa51744cb902c0cd104d3680cc05ae8b5" target="_top" xlink:title="dir_register">
<polygon fill="white" stroke="black" points="82.5,-228.5 82.5,-247.5 147.5,-247.5 147.5,-228.5 82.5,-228.5"/>
<text text-anchor="middle" x="115" y="-235.5" font-family="Helvetica,sans-Serif" font-size="10.00">dir_register</text>
</a>
</g>
</g>
<!-- Node1&#45;&gt;Node17 -->
<g id="edge33" class="edge"><title>Node1&#45;&gt;Node17</title>
<path fill="none" stroke="midnightblue" d="M46.2472,-223.697C54.1138,-225.357 63.2394,-227.284 72.1953,-229.175"/>
<polygon fill="midnightblue" stroke="midnightblue" points="71.6512,-232.637 82.1585,-231.278 73.0972,-225.788 71.6512,-232.637"/>
</g>
<!-- Node23 -->
<g id="node23" class="node"><title>Node23</title>
<g id="a_node23"><a xlink:href="ff_8c.html#af2e8986556ee6644b4bf31fa4158d735" target="_top" xlink:title="move_window">
<polygon fill="white" stroke="black" points="600.5,-304.5 600.5,-323.5 679.5,-323.5 679.5,-304.5 600.5,-304.5"/>
<text text-anchor="middle" x="640" y="-311.5" font-family="Helvetica,sans-Serif" font-size="10.00">move_window</text>
</a>
</g>
</g>
<!-- Node1&#45;&gt;Node23 -->
<g id="edge78" class="edge"><title>Node1&#45;&gt;Node23</title>
<path fill="none" stroke="midnightblue" d="M25.0267,-228.667C31.3122,-282.41 69.4639,-542 220,-542 220,-542 220,-542 445,-542 554.387,-542 615.039,-387.89 633.153,-333.071"/>
<polygon fill="midnightblue" stroke="midnightblue" points="636.5,-334.097 636.211,-323.507 629.832,-331.966 636.5,-334.097"/>
</g>
<!-- Node33 -->
<g id="node33" class="node"><title>Node33</title>
<g id="a_node33"><a xlink:href="ff_8c.html#aac9a82c50bb738b3d78d4a46ffdad65d" target="_top" xlink:title="follow_path">
<polygon fill="white" stroke="black" points="82,-190.5 82,-209.5 148,-209.5 148,-190.5 82,-190.5"/>
<text text-anchor="middle" x="115" y="-197.5" font-family="Helvetica,sans-Serif" font-size="10.00">follow_path</text>
</a>
</g>
</g>
<!-- Node1&#45;&gt;Node33 -->
<g id="edge69" class="edge"><title>Node1&#45;&gt;Node33</title>
<path fill="none" stroke="midnightblue" d="M46.2472,-214.303C54.0382,-212.659 63.064,-210.753 71.9369,-208.88"/>
<polygon fill="midnightblue" stroke="midnightblue" points="72.7544,-212.285 81.8157,-206.794 71.3084,-205.436 72.7544,-212.285"/>
</g>
<!-- Node36 -->
<g id="node36" class="node"><title>Node36</title>
<g id="a_node36"><a xlink:href="ff_8c.html#a996d46ee1f9aed650880aecb4b7eb314" target="_top" xlink:title="ld_clust">
<polygon fill="white" stroke="black" points="196,-0.5 196,-19.5 246,-19.5 246,-0.5 196,-0.5"/>
<text text-anchor="middle" x="221" y="-7.5" font-family="Helvetica,sans-Serif" font-size="10.00">ld_clust</text>
</a>
</g>
</g>
<!-- Node1&#45;&gt;Node36 -->
<g id="edge77" class="edge"><title>Node1&#45;&gt;Node36</title>
<path fill="none" stroke="midnightblue" d="M29.7376,-209.129C39.1296,-193.598 59.0533,-163.153 82,-143 107.432,-120.664 125.043,-129.872 148,-105 173.35,-77.5353 158.149,-55.9938 184,-29 185.21,-27.7367 186.522,-26.5402 187.906,-25.4092"/>
<polygon fill="midnightblue" stroke="midnightblue" points="190.091,-28.1561 196.395,-19.6412 186.157,-22.366 190.091,-28.1561"/>
</g>
<!-- Node37 -->
<g id="node37" class="node"><title>Node37</title>
<g id="a_node37"><a xlink:href="ff_8h.html#af58b536abfd30f77213f4ecaf2ac52f5" target="_top" xlink:title="User Provided RTC Function called by FatFs module Used to provide a Timestamp for SDCard files and fo...">
<polygon fill="white" stroke="black" points="82.5,-152.5 82.5,-171.5 147.5,-171.5 147.5,-152.5 82.5,-152.5"/>
<text text-anchor="middle" x="115" y="-159.5" font-family="Helvetica,sans-Serif" font-size="10.00">get_fattime</text>
</a>
</g>
</g>
<!-- Node1&#45;&gt;Node37 -->
<g id="edge76" class="edge"><title>Node1&#45;&gt;Node37</title>
<path fill="none" stroke="midnightblue" d="M38.1881,-209.453C49.8616,-201.659 66.8851,-190.432 82,-181 84.2062,-179.623 86.5098,-178.21 88.8254,-176.805"/>
<polygon fill="midnightblue" stroke="midnightblue" points="90.8561,-179.669 97.6367,-171.528 87.2593,-173.663 90.8561,-179.669"/>
</g>
<!-- Node38 -->
<g id="node38" class="node"><title>Node38</title>
<g id="a_node38"><a xlink:href="ff_8c.html#ab88651d19a5597dec220fe7538cccf23" target="_top" xlink:title="remove_chain">
<polygon fill="white" stroke="black" points="294.5,-418.5 294.5,-437.5 371.5,-437.5 371.5,-418.5 294.5,-418.5"/>
<text text-anchor="middle" x="333" y="-425.5" font-family="Helvetica,sans-Serif" font-size="10.00">remove_chain</text>
</a>
</g>
</g>
<!-- Node1&#45;&gt;Node38 -->
<g id="edge79" class="edge"><title>Node1&#45;&gt;Node38</title>
<path fill="none" stroke="midnightblue" d="M29.9836,-228.524C48.7846,-257.625 109.851,-346.058 184,-390 214.755,-408.226 254.145,-417.794 284.554,-422.768"/>
<polygon fill="midnightblue" stroke="midnightblue" points="284.084,-426.236 294.497,-424.284 285.139,-419.317 284.084,-426.236"/>
</g>
<!-- Node39 -->
<g id="node39" class="node"><title>Node39</title>
<g id="a_node39"><a xlink:href="ff_8c.html#a357e5a36452e057d68378c98cd61018c" target="_top" xlink:title="st_clust">
<polygon fill="white" stroke="black" points="89.5,-76.5 89.5,-95.5 140.5,-95.5 140.5,-76.5 89.5,-76.5"/>
<text text-anchor="middle" x="115" y="-83.5" font-family="Helvetica,sans-Serif" font-size="10.00">st_clust</text>
</a>
</g>
</g>
<!-- Node1&#45;&gt;Node39 -->
<g id="edge84" class="edge"><title>Node1&#45;&gt;Node39</title>
<path fill="none" stroke="midnightblue" d="M27.4454,-209.411C34.9932,-189.332 54.5332,-142.075 82,-110 84.4956,-107.086 87.4045,-104.311 90.432,-101.753"/>
<polygon fill="midnightblue" stroke="midnightblue" points="92.7264,-104.403 98.5209,-95.5336 88.4598,-98.854 92.7264,-104.403"/>
</g>
<!-- Node3 -->
<g id="node3" class="node"><title>Node3</title>
<g id="a_node3"><a xlink:href="ff_8c.html#a55626c76a1556af5dc5345e2c0841a65" target="_top" xlink:title="check_fs">
<polygon fill="white" stroke="black" points="726,-532.5 726,-551.5 782,-551.5 782,-532.5 726,-532.5"/>
<text text-anchor="middle" x="754" y="-539.5" font-family="Helvetica,sans-Serif" font-size="10.00">check_fs</text>
</a>
</g>
</g>
<!-- Node2&#45;&gt;Node3 -->
<g id="edge2" class="edge"><title>Node2&#45;&gt;Node3</title>
<path fill="none" stroke="midnightblue" d="M669.262,-570.411C683.509,-565.577 700.96,-559.657 716.236,-554.473"/>
<polygon fill="midnightblue" stroke="midnightblue" points="717.561,-557.72 725.906,-551.193 715.311,-551.091 717.561,-557.72"/>
</g>
<!-- Node4 -->
<g id="node4" class="node"><title>Node4</title>
<g id="a_node4"><a xlink:href="diskio_8h.html#ac0c802f8a12fa2047b4bec7109b9293f" target="_top" xlink:title="disk_read">
<polygon fill="white" stroke="black" points="836.5,-418.5 836.5,-437.5 895.5,-437.5 895.5,-418.5 836.5,-418.5"/>
<text text-anchor="middle" x="866" y="-425.5" font-family="Helvetica,sans-Serif" font-size="10.00">disk_read</text>
</a>
</g>
</g>
<!-- Node2&#45;&gt;Node4 -->
<g id="edge31" class="edge"><title>Node2&#45;&gt;Node4</title>
<path fill="none" stroke="midnightblue" d="M652.983,-570.407C667.602,-558.818 693.191,-538.898 716,-523 758.695,-493.24 810.234,-461.205 840.148,-442.979"/>
<polygon fill="midnightblue" stroke="midnightblue" points="842.33,-445.748 849.061,-437.567 838.697,-439.765 842.33,-445.748"/>
</g>
<!-- Node14 -->
<g id="node14" class="node"><title>Node14</title>
<g id="a_node14"><a xlink:href="diskio_8h.html#a09cdaa6f36fa409bdf002727bff98eb1" target="_top" xlink:title="disk_initialize">
<polygon fill="white" stroke="black" points="828.5,-608.5 828.5,-627.5 903.5,-627.5 903.5,-608.5 828.5,-608.5"/>
<text text-anchor="middle" x="866" y="-615.5" font-family="Helvetica,sans-Serif" font-size="10.00">disk_initialize</text>
</a>
</g>
</g>
<!-- Node2&#45;&gt;Node14 -->
<g id="edge20" class="edge"><title>Node2&#45;&gt;Node14</title>
<path fill="none" stroke="midnightblue" d="M677.588,-587.018C689.793,-589.309 703.472,-591.822 716,-594 750.176,-599.941 788.853,-606.156 818.235,-610.773"/>
<polygon fill="midnightblue" stroke="midnightblue" points="817.797,-614.247 828.218,-612.336 818.88,-607.331 817.797,-614.247"/>
</g>
<!-- Node15 -->
<g id="node15" class="node"><title>Node15</title>
<g id="a_node15"><a xlink:href="diskio_8h.html#ab00fa450a811dbdabe3c655c1a36fab4" target="_top" xlink:title="disk_ioctl">
<polygon fill="white" stroke="black" points="837,-494.5 837,-513.5 895,-513.5 895,-494.5 837,-494.5"/>
<text text-anchor="middle" x="866" y="-501.5" font-family="Helvetica,sans-Serif" font-size="10.00">disk_ioctl</text>
</a>
</g>
</g>
<!-- Node2&#45;&gt;Node15 -->
<g id="edge25" class="edge"><title>Node2&#45;&gt;Node15</title>
<path fill="none" stroke="midnightblue" d="M677.777,-580.764C709.245,-580.176 755.161,-576.318 792,-561 814.092,-551.814 835.165,-534.05 848.94,-520.783"/>
<polygon fill="midnightblue" stroke="midnightblue" points="851.545,-523.127 856.159,-513.59 846.605,-518.168 851.545,-523.127"/>
</g>
<!-- Node16 -->
<g id="node16" class="node"><title>Node16</title>
<g id="a_node16"><a xlink:href="diskio_8h.html#a8348ac5ee6d709420c02e45c111f4793" target="_top" xlink:title="disk_status">
<polygon fill="white" stroke="black" points="720.5,-646.5 720.5,-665.5 787.5,-665.5 787.5,-646.5 720.5,-646.5"/>
<text text-anchor="middle" x="754" y="-653.5" font-family="Helvetica,sans-Serif" font-size="10.00">disk_status</text>
</a>
</g>
</g>
<!-- Node2&#45;&gt;Node16 -->
<g id="edge32" class="edge"><title>Node2&#45;&gt;Node16</title>
<path fill="none" stroke="midnightblue" d="M654.463,-589.52C669.408,-600.045 694.289,-617.437 716,-632 720.229,-634.836 724.757,-637.819 729.144,-640.68"/>
<polygon fill="midnightblue" stroke="midnightblue" points="727.514,-643.794 737.809,-646.296 731.322,-637.92 727.514,-643.794"/>
</g>
<!-- Node3&#45;&gt;Node4 -->
<g id="edge3" class="edge"><title>Node3&#45;&gt;Node4</title>
<path fill="none" stroke="midnightblue" d="M764.379,-532.28C783.05,-512.93 825.083,-469.368 848.484,-445.116"/>
<polygon fill="midnightblue" stroke="midnightblue" points="851.22,-447.321 855.645,-437.695 846.183,-442.461 851.22,-447.321"/>
</g>
<!-- Node5 -->
<g id="node5" class="node"><title>Node5</title>
<g id="a_node5"><a xlink:href="sdmm_8c.html#ac0eadae94de728461ccade9e03fafd8c" target="_top" xlink:title="deselect">
<polygon fill="white" stroke="black" points="1181.5,-456.5 1181.5,-475.5 1234.5,-475.5 1234.5,-456.5 1181.5,-456.5"/>
<text text-anchor="middle" x="1208" y="-463.5" font-family="Helvetica,sans-Serif" font-size="10.00">deselect</text>
</a>
</g>
</g>
<!-- Node4&#45;&gt;Node5 -->
<g id="edge4" class="edge"><title>Node4&#45;&gt;Node5</title>
<path fill="none" stroke="midnightblue" d="M895.796,-418.697C909.096,-414.871 925.192,-410.896 940,-409 1028.91,-397.619 1055.11,-406.215 1140,-435 1153.5,-439.579 1167.93,-446.033 1179.92,-451.868"/>
<polygon fill="midnightblue" stroke="midnightblue" points="1178.44,-455.041 1188.95,-456.367 1181.56,-448.775 1178.44,-455.041"/>
</g>
<!-- Node7 -->
<g id="node7" class="node"><title>Node7</title>
<g id="a_node7"><a xlink:href="sdmm_8c.html#a21ad8e9a107ea2000705a3edfebaaa2d" target="_top" xlink:title="disk_status">
<polygon fill="white" stroke="black" points="948.5,-342.5 948.5,-361.5 1015.5,-361.5 1015.5,-342.5 948.5,-342.5"/>
<text text-anchor="middle" x="982" y="-349.5" font-family="Helvetica,sans-Serif" font-size="10.00">disk_status</text>
</a>
</g>
</g>
<!-- Node4&#45;&gt;Node7 -->
<g id="edge6" class="edge"><title>Node4&#45;&gt;Node7</title>
<path fill="none" stroke="midnightblue" d="M879.682,-418.441C894.057,-407.73 918.313,-390.031 940,-376 944.761,-372.92 949.922,-369.763 954.924,-366.793"/>
<polygon fill="midnightblue" stroke="midnightblue" points="956.766,-369.77 963.637,-361.705 953.237,-363.725 956.766,-369.77"/>
</g>
<!-- Node8 -->
<g id="node8" class="node"><title>Node8</title>
<g id="a_node8"><a xlink:href="sdmm_8c.html#a8c99afbc312912297b19752cf7e0960b" target="_top" xlink:title="rcvr_datablock">
<polygon fill="white" stroke="black" points="1060,-608.5 1060,-627.5 1140,-627.5 1140,-608.5 1060,-608.5"/>
<text text-anchor="middle" x="1100" y="-615.5" font-family="Helvetica,sans-Serif" font-size="10.00">rcvr_datablock</text>
</a>
</g>
</g>
<!-- Node4&#45;&gt;Node8 -->
<g id="edge7" class="edge"><title>Node4&#45;&gt;Node8</title>
<path fill="none" stroke="midnightblue" d="M881.397,-437.548C910.253,-457.061 976.465,-503.754 1024,-552 1042.47,-570.743 1039.63,-582.348 1060,-599 1061.8,-600.472 1063.73,-601.865 1065.74,-603.177"/>
<polygon fill="midnightblue" stroke="midnightblue" points="1064.43,-606.459 1074.84,-608.402 1067.91,-600.388 1064.43,-606.459"/>
</g>
<!-- Node10 -->
<g id="node10" class="node"><title>Node10</title>
<g id="a_node10"><a xlink:href="sdmm_8c.html#a99684b493c8bfdb0288a2e24e52f6871" target="_top" xlink:title="send_cmd">
<polygon fill="white" stroke="black" points="951,-418.5 951,-437.5 1013,-437.5 1013,-418.5 951,-418.5"/>
<text text-anchor="middle" x="982" y="-425.5" font-family="Helvetica,sans-Serif" font-size="10.00">send_cmd</text>
</a>
</g>
</g>
<!-- Node4&#45;&gt;Node10 -->
<g id="edge10" class="edge"><title>Node4&#45;&gt;Node10</title>
<path fill="none" stroke="midnightblue" d="M895.767,-428C909.249,-428 925.549,-428 940.27,-428"/>
<polygon fill="midnightblue" stroke="midnightblue" points="940.647,-431.5 950.647,-428 940.647,-424.5 940.647,-431.5"/>
</g>
<!-- Node6 -->
<g id="node6" class="node"><title>Node6</title>
<g id="a_node6"><a xlink:href="sdmm_8c.html#ab628371b03508f9db7c6daf1203ed84d" target="_top" xlink:title="rcvr_mmc">
<polygon fill="white" stroke="black" points="1276,-532.5 1276,-551.5 1336,-551.5 1336,-532.5 1276,-532.5"/>
<text text-anchor="middle" x="1306" y="-539.5" font-family="Helvetica,sans-Serif" font-size="10.00">rcvr_mmc</text>
</a>
</g>
</g>
<!-- Node5&#45;&gt;Node6 -->
<g id="edge5" class="edge"><title>Node5&#45;&gt;Node6</title>
<path fill="none" stroke="midnightblue" d="M1221.16,-475.625C1237.24,-488.36 1265.81,-510.972 1285.07,-526.222"/>
<polygon fill="midnightblue" stroke="midnightblue" points="1282.93,-528.99 1292.94,-532.453 1287.27,-523.501 1282.93,-528.99"/>
</g>
<!-- Node8&#45;&gt;Node6 -->
<g id="edge8" class="edge"><title>Node8&#45;&gt;Node6</title>
<path fill="none" stroke="midnightblue" d="M1140.26,-610.16C1168.62,-603.809 1207.48,-593.67 1240,-580 1254.79,-573.784 1270.33,-564.795 1282.51,-557.12"/>
<polygon fill="midnightblue" stroke="midnightblue" points="1284.6,-559.939 1291.1,-551.575 1280.8,-554.058 1284.6,-559.939"/>
</g>
<!-- Node9 -->
<g id="node9" class="node"><title>Node9</title>
<g id="a_node9"><a xlink:href="sdmm_8c.html#a76a43e01b9676630e121e5a659acbb3f" target="_top" xlink:title="dly_us">
<polygon fill="white" stroke="black" points="1283.5,-684.5 1283.5,-703.5 1328.5,-703.5 1328.5,-684.5 1283.5,-684.5"/>
<text text-anchor="middle" x="1306" y="-691.5" font-family="Helvetica,sans-Serif" font-size="10.00">dly_us</text>
</a>
</g>
</g>
<!-- Node8&#45;&gt;Node9 -->
<g id="edge9" class="edge"><title>Node8&#45;&gt;Node9</title>
<path fill="none" stroke="midnightblue" d="M1126.84,-627.625C1164.3,-641.581 1233.6,-667.399 1273.84,-682.391"/>
<polygon fill="midnightblue" stroke="midnightblue" points="1272.81,-685.744 1283.41,-685.955 1275.26,-679.184 1272.81,-685.744"/>
</g>
<!-- Node10&#45;&gt;Node5 -->
<g id="edge11" class="edge"><title>Node10&#45;&gt;Node5</title>
<path fill="none" stroke="midnightblue" d="M1013.18,-432.117C1044.85,-436.554 1096.04,-444.054 1140,-452 1150.15,-453.836 1161.13,-456.037 1171.2,-458.144"/>
<polygon fill="midnightblue" stroke="midnightblue" points="1170.78,-461.634 1181.29,-460.287 1172.24,-454.787 1170.78,-461.634"/>
</g>
<!-- Node10&#45;&gt;Node6 -->
<g id="edge19" class="edge"><title>Node10&#45;&gt;Node6</title>
<path fill="none" stroke="midnightblue" d="M1013.36,-421.943C1064.3,-413.478 1168.46,-403.621 1240,-447 1269.06,-464.622 1288.2,-500.756 1297.77,-523.03"/>
<polygon fill="midnightblue" stroke="midnightblue" points="1294.59,-524.497 1301.6,-532.441 1301.07,-521.859 1294.59,-524.497"/>
</g>
<!-- Node11 -->
<g id="node11" class="node"><title>Node11</title>
<g id="a_node11"><a xlink:href="sdmm_8c.html#ab45cb1d47cda5822ce492ad3c11867ae" target="_top" xlink:title="select">
<polygon fill="white" stroke="black" points="1078.5,-570.5 1078.5,-589.5 1121.5,-589.5 1121.5,-570.5 1078.5,-570.5"/>
<text text-anchor="middle" x="1100" y="-577.5" font-family="Helvetica,sans-Serif" font-size="10.00">select</text>
</a>
</g>
</g>
<!-- Node10&#45;&gt;Node11 -->
<g id="edge12" class="edge"><title>Node10&#45;&gt;Node11</title>
<path fill="none" stroke="midnightblue" d="M1004.14,-437.512C1011.04,-441.322 1018.37,-446.199 1024,-452 1047.27,-475.981 1043.1,-489.178 1060,-518 1068.82,-533.034 1079.37,-549.743 1087.28,-562.022"/>
<polygon fill="midnightblue" stroke="midnightblue" points="1084.36,-563.957 1092.73,-570.449 1090.24,-560.152 1084.36,-563.957"/>
</g>
<!-- Node13 -->
<g id="node13" class="node"><title>Node13</title>
<g id="a_node13"><a xlink:href="sdmm_8c.html#ace0af708caf7775204ca74fbd46818bb" target="_top" xlink:title="xmit_mmc">
<polygon fill="white" stroke="black" points="1069,-304.5 1069,-323.5 1131,-323.5 1131,-304.5 1069,-304.5"/>
<text text-anchor="middle" x="1100" y="-311.5" font-family="Helvetica,sans-Serif" font-size="10.00">xmit_mmc</text>
</a>
</g>
</g>
<!-- Node10&#45;&gt;Node13 -->
<g id="edge18" class="edge"><title>Node10&#45;&gt;Node13</title>
<path fill="none" stroke="midnightblue" d="M989.598,-418.476C1001.98,-401.06 1030.15,-363.523 1060,-338 1063.73,-334.81 1067.93,-331.762 1072.16,-328.974"/>
<polygon fill="midnightblue" stroke="midnightblue" points="1074.08,-331.902 1080.73,-323.653 1070.38,-325.955 1074.08,-331.902"/>
</g>
<!-- Node11&#45;&gt;Node5 -->
<g id="edge17" class="edge"><title>Node11&#45;&gt;Node5</title>
<path fill="none" stroke="midnightblue" d="M1119.87,-570.338C1126.61,-566.398 1134.02,-561.475 1140,-556 1163.48,-534.509 1184.28,-503.788 1196.26,-484.374"/>
<polygon fill="midnightblue" stroke="midnightblue" points="1199.38,-485.973 1201.54,-475.601 1193.38,-482.36 1199.38,-485.973"/>
</g>
<!-- Node11&#45;&gt;Node6 -->
<g id="edge13" class="edge"><title>Node11&#45;&gt;Node6</title>
<path fill="none" stroke="midnightblue" d="M1121.89,-578.121C1149.23,-575.44 1198.55,-569.839 1240,-561 1248.51,-559.185 1257.54,-556.83 1266.07,-554.4"/>
<polygon fill="midnightblue" stroke="midnightblue" points="1267.18,-557.72 1275.79,-551.541 1265.21,-551.004 1267.18,-557.72"/>
</g>
<!-- Node12 -->
<g id="node12" class="node"><title>Node12</title>
<g id="a_node12"><a xlink:href="sdmm_8c.html#a624a19e248af05530dae5c0cc1dddc11" target="_top" xlink:title="wait_ready">
<polygon fill="white" stroke="black" points="1176,-532.5 1176,-551.5 1240,-551.5 1240,-532.5 1176,-532.5"/>
<text text-anchor="middle" x="1208" y="-539.5" font-family="Helvetica,sans-Serif" font-size="10.00">wait_ready</text>
</a>
</g>
</g>
<!-- Node11&#45;&gt;Node12 -->
<g id="edge14" class="edge"><title>Node11&#45;&gt;Node12</title>
<path fill="none" stroke="midnightblue" d="M1121.69,-572.583C1135.56,-567.611 1154.21,-560.926 1170.53,-555.075"/>
<polygon fill="midnightblue" stroke="midnightblue" points="1172.09,-558.232 1180.33,-551.563 1169.73,-551.643 1172.09,-558.232"/>
</g>
<!-- Node12&#45;&gt;Node6 -->
<g id="edge15" class="edge"><title>Node12&#45;&gt;Node6</title>
<path fill="none" stroke="midnightblue" d="M1240.17,-542C1248.34,-542 1257.26,-542 1265.8,-542"/>
<polygon fill="midnightblue" stroke="midnightblue" points="1265.94,-545.5 1275.94,-542 1265.94,-538.5 1265.94,-545.5"/>
</g>
<!-- Node12&#45;&gt;Node9 -->
<g id="edge16" class="edge"><title>Node12&#45;&gt;Node9</title>
<path fill="none" stroke="midnightblue" d="M1215.01,-551.508C1230.7,-576.353 1273.12,-643.528 1293.62,-675.976"/>
<polygon fill="midnightblue" stroke="midnightblue" points="1290.7,-677.909 1299,-684.495 1296.62,-674.171 1290.7,-677.909"/>
</g>
<!-- Node14&#45;&gt;Node5 -->
<g id="edge21" class="edge"><title>Node14&#45;&gt;Node5</title>
<path fill="none" stroke="midnightblue" d="M888.269,-608.492C946.466,-582.474 1108.5,-510.035 1176.42,-479.669"/>
<polygon fill="midnightblue" stroke="midnightblue" points="1178.04,-482.781 1185.74,-475.505 1175.18,-476.391 1178.04,-482.781"/>
</g>
<!-- Node14&#45;&gt;Node6 -->
<g id="edge23" class="edge"><title>Node14&#45;&gt;Node6</title>
<path fill="none" stroke="midnightblue" d="M903.89,-625.87C956.576,-635.911 1056.27,-650.459 1140,-637 1186.21,-629.573 1199.86,-628.073 1240,-604 1259.71,-592.176 1278.28,-573.412 1290.48,-559.621"/>
<polygon fill="midnightblue" stroke="midnightblue" points="1293.35,-561.651 1297.2,-551.783 1288.04,-557.092 1293.35,-561.651"/>
</g>
<!-- Node14&#45;&gt;Node9 -->
<g id="edge22" class="edge"><title>Node14&#45;&gt;Node9</title>
<path fill="none" stroke="midnightblue" d="M876.821,-627.79C889.937,-640.155 914.496,-660.912 940,-670 1057.02,-711.696 1208.31,-703.685 1273.18,-697.584"/>
<polygon fill="midnightblue" stroke="midnightblue" points="1273.59,-701.062 1283.19,-696.592 1272.9,-694.096 1273.59,-701.062"/>
</g>
<!-- Node14&#45;&gt;Node10 -->
<g id="edge24" class="edge"><title>Node14&#45;&gt;Node10</title>
<path fill="none" stroke="midnightblue" d="M872.81,-608.317C890.796,-578.34 945.784,-486.693 969.697,-446.839"/>
<polygon fill="midnightblue" stroke="midnightblue" points="972.921,-448.267 975.065,-437.892 966.919,-444.666 972.921,-448.267"/>
</g>
<!-- Node15&#45;&gt;Node5 -->
<g id="edge26" class="edge"><title>Node15&#45;&gt;Node5</title>
<path fill="none" stroke="midnightblue" d="M895.113,-500.858C956.579,-493.988 1102.86,-477.639 1170.96,-470.027"/>
<polygon fill="midnightblue" stroke="midnightblue" points="1171.65,-473.473 1181.2,-468.884 1170.87,-466.516 1171.65,-473.473"/>
</g>
<!-- Node15&#45;&gt;Node7 -->
<g id="edge27" class="edge"><title>Node15&#45;&gt;Node7</title>
<path fill="none" stroke="midnightblue" d="M874.131,-494.492C892.845,-469.54 943.579,-401.894 967.794,-369.608"/>
<polygon fill="midnightblue" stroke="midnightblue" points="970.671,-371.605 973.871,-361.505 965.071,-367.405 970.671,-371.605"/>
</g>
<!-- Node15&#45;&gt;Node8 -->
<g id="edge28" class="edge"><title>Node15&#45;&gt;Node8</title>
<path fill="none" stroke="midnightblue" d="M878.795,-513.804C892.75,-525.062 917.001,-543.573 940,-556 978.506,-576.805 1025.51,-594.244 1058.39,-605.273"/>
<polygon fill="midnightblue" stroke="midnightblue" points="1057.52,-608.672 1068.12,-608.487 1059.72,-602.026 1057.52,-608.672"/>
</g>
<!-- Node15&#45;&gt;Node10 -->
<g id="edge30" class="edge"><title>Node15&#45;&gt;Node10</title>
<path fill="none" stroke="midnightblue" d="M881.438,-494.375C900.797,-481.469 935.373,-458.418 958.25,-443.167"/>
<polygon fill="midnightblue" stroke="midnightblue" points="960.3,-446.007 966.679,-437.547 956.417,-440.182 960.3,-446.007"/>
</g>
<!-- Node15&#45;&gt;Node11 -->
<g id="edge29" class="edge"><title>Node15&#45;&gt;Node11</title>
<path fill="none" stroke="midnightblue" d="M895.448,-513.319C939.431,-527.727 1023.56,-555.288 1068.67,-570.063"/>
<polygon fill="midnightblue" stroke="midnightblue" points="1067.6,-573.397 1078.19,-573.184 1069.78,-566.745 1067.6,-573.397"/>
</g>
<!-- Node18 -->
<g id="node18" class="node"><title>Node18</title>
<g id="a_node18"><a xlink:href="ff_8c.html#a42a5806b264207143a41d58a4c9ff9f1" target="_top" xlink:title="dir_alloc">
<polygon fill="white" stroke="black" points="194.5,-266.5 194.5,-285.5 247.5,-285.5 247.5,-266.5 194.5,-266.5"/>
<text text-anchor="middle" x="221" y="-273.5" font-family="Helvetica,sans-Serif" font-size="10.00">dir_alloc</text>
</a>
</g>
</g>
<!-- Node17&#45;&gt;Node18 -->
<g id="edge34" class="edge"><title>Node17&#45;&gt;Node18</title>
<path fill="none" stroke="midnightblue" d="M142.244,-247.589C155.124,-252.295 170.824,-258.032 184.736,-263.115"/>
<polygon fill="midnightblue" stroke="midnightblue" points="183.89,-266.532 194.484,-266.677 186.292,-259.957 183.89,-266.532"/>
</g>
<!-- Node19 -->
<g id="node19" class="node"><title>Node19</title>
<g id="a_node19"><a xlink:href="ff_8c.html#aa70eb326eb0c3702ae16adf0b4dce1cc" target="_top" xlink:title="dir_next">
<polygon fill="white" stroke="black" points="307.5,-228.5 307.5,-247.5 358.5,-247.5 358.5,-228.5 307.5,-228.5"/>
<text text-anchor="middle" x="333" y="-235.5" font-family="Helvetica,sans-Serif" font-size="10.00">dir_next</text>
</a>
</g>
</g>
<!-- Node17&#45;&gt;Node19 -->
<g id="edge64" class="edge"><title>Node17&#45;&gt;Node19</title>
<path fill="none" stroke="midnightblue" d="M147.872,-238C187.815,-238 256.025,-238 297.266,-238"/>
<polygon fill="midnightblue" stroke="midnightblue" points="297.386,-241.5 307.386,-238 297.386,-234.5 297.386,-241.5"/>
</g>
<!-- Node17&#45;&gt;Node23 -->
<g id="edge68" class="edge"><title>Node17&#45;&gt;Node23</title>
<path fill="none" stroke="midnightblue" d="M147.535,-228.898C189.334,-217.656 265.558,-200 332,-200 332,-200 332,-200 445,-200 526.982,-200 526.497,-263.692 600,-300 600.302,-300.149 600.607,-300.298 600.913,-300.446"/>
<polygon fill="midnightblue" stroke="midnightblue" points="599.582,-303.684 610.147,-304.488 602.39,-297.271 599.582,-303.684"/>
</g>
<!-- Node28 -->
<g id="node28" class="node"><title>Node28</title>
<g id="a_node28"><a xlink:href="ff_8c.html#a02eb5189e43056a9ddc8a59cbe89be93" target="_top" xlink:title="mem_set">
<polygon fill="white" stroke="black" points="415.5,-76.5 415.5,-95.5 472.5,-95.5 472.5,-76.5 415.5,-76.5"/>
<text text-anchor="middle" x="444" y="-83.5" font-family="Helvetica,sans-Serif" font-size="10.00">mem_set</text>
</a>
</g>
</g>
<!-- Node17&#45;&gt;Node28 -->
<g id="edge67" class="edge"><title>Node17&#45;&gt;Node28</title>
<path fill="none" stroke="midnightblue" d="M136.31,-228.414C140.53,-225.78 144.694,-222.631 148,-219 173.165,-191.366 156.162,-167.939 184,-143 246.017,-87.4419 349.663,-81.934 405.175,-83.4884"/>
<polygon fill="midnightblue" stroke="midnightblue" points="405.16,-86.9902 415.284,-83.8654 405.421,-79.995 405.16,-86.9902"/>
</g>
<!-- Node29 -->
<g id="node29" class="node"><title>Node29</title>
<g id="a_node29"><a xlink:href="ff_8c.html#ad173ae134b70df2fe9668a90247567ff" target="_top" xlink:title="dir_sdi">
<polygon fill="white" stroke="black" points="310.5,-304.5 310.5,-323.5 355.5,-323.5 355.5,-304.5 310.5,-304.5"/>
<text text-anchor="middle" x="333" y="-311.5" font-family="Helvetica,sans-Serif" font-size="10.00">dir_sdi</text>
</a>
</g>
</g>
<!-- Node17&#45;&gt;Node29 -->
<g id="edge65" class="edge"><title>Node17&#45;&gt;Node29</title>
<path fill="none" stroke="midnightblue" d="M117.487,-247.673C122.011,-273.316 138.209,-342.983 184,-371 212.054,-388.165 226.866,-381.601 258,-371 281.099,-363.135 302.609,-344.824 316.418,-331.063"/>
<polygon fill="midnightblue" stroke="midnightblue" points="319.192,-333.229 323.613,-323.601 314.152,-328.371 319.192,-333.229"/>
</g>
<!-- Node30 -->
<g id="node30" class="node"><title>Node30</title>
<g id="a_node30"><a xlink:href="ff_8c.html#a809fe0feb8e7a864bc048cbd22cc0702" target="_top" xlink:title="dir_find">
<polygon fill="white" stroke="black" points="197,-152.5 197,-171.5 245,-171.5 245,-152.5 197,-152.5"/>
<text text-anchor="middle" x="221" y="-159.5" font-family="Helvetica,sans-Serif" font-size="10.00">dir_find</text>
</a>
</g>
</g>
<!-- Node17&#45;&gt;Node30 -->
<g id="edge59" class="edge"><title>Node17&#45;&gt;Node30</title>
<path fill="none" stroke="midnightblue" d="M133.691,-228.375C138.464,-225.545 143.539,-222.313 148,-219 165.424,-206.057 166.92,-199.393 184,-186 187.759,-183.052 191.872,-180.088 195.931,-177.298"/>
<polygon fill="midnightblue" stroke="midnightblue" points="198.192,-179.997 204.573,-171.54 194.31,-174.172 198.192,-179.997"/>
</g>
<!-- Node32 -->
<g id="node32" class="node"><title>Node32</title>
<g id="a_node32"><a xlink:href="ff_8c.html#a8941d573d16af92c8570950d53164f30" target="_top" xlink:title="mem_cpy">
<polygon fill="white" stroke="black" points="191.5,-342.5 191.5,-361.5 250.5,-361.5 250.5,-342.5 191.5,-342.5"/>
<text text-anchor="middle" x="221" y="-349.5" font-family="Helvetica,sans-Serif" font-size="10.00">mem_cpy</text>
</a>
</g>
</g>
<!-- Node17&#45;&gt;Node32 -->
<g id="edge66" class="edge"><title>Node17&#45;&gt;Node32</title>
<path fill="none" stroke="midnightblue" d="M121.83,-247.772C132.582,-265.264 156.924,-302.478 184,-328 187.198,-331.014 190.814,-333.904 194.49,-336.569"/>
<polygon fill="midnightblue" stroke="midnightblue" points="192.765,-339.628 203.009,-342.332 196.687,-333.83 192.765,-339.628"/>
</g>
<!-- Node18&#45;&gt;Node19 -->
<g id="edge35" class="edge"><title>Node18&#45;&gt;Node19</title>
<path fill="none" stroke="midnightblue" d="M247.513,-267.187C262.439,-262.03 281.48,-255.452 297.705,-249.847"/>
<polygon fill="midnightblue" stroke="midnightblue" points="299.073,-253.078 307.382,-246.504 296.788,-246.461 299.073,-253.078"/>
</g>
<!-- Node18&#45;&gt;Node23 -->
<g id="edge58" class="edge"><title>Node18&#45;&gt;Node23</title>
<path fill="none" stroke="midnightblue" d="M247.917,-275.745C305.25,-275.55 447.022,-277.104 564,-295 574.867,-296.662 586.451,-299.204 597.183,-301.892"/>
<polygon fill="midnightblue" stroke="midnightblue" points="596.602,-305.358 607.161,-304.491 598.366,-298.584 596.602,-305.358"/>
</g>
<!-- Node18&#45;&gt;Node29 -->
<g id="edge55" class="edge"><title>Node18&#45;&gt;Node29</title>
<path fill="none" stroke="midnightblue" d="M247.513,-284.813C263.28,-290.26 283.638,-297.293 300.42,-303.09"/>
<polygon fill="midnightblue" stroke="midnightblue" points="299.738,-306.558 310.333,-306.515 302.024,-299.942 299.738,-306.558"/>
</g>
<!-- Node20 -->
<g id="node20" class="node"><title>Node20</title>
<g id="a_node20"><a xlink:href="ff_8c.html#a7519abb60fe91f6aa1d17f64fbae123a" target="_top" xlink:title="clust2sect">
<polygon fill="white" stroke="black" points="413,-380.5 413,-399.5 475,-399.5 475,-380.5 413,-380.5"/>
<text text-anchor="middle" x="444" y="-387.5" font-family="Helvetica,sans-Serif" font-size="10.00">clust2sect</text>
</a>
</g>
</g>
<!-- Node19&#45;&gt;Node20 -->
<g id="edge36" class="edge"><title>Node19&#45;&gt;Node20</title>
<path fill="none" stroke="midnightblue" d="M341.181,-247.811C349.183,-258.953 362.273,-277.82 372,-295 390.415,-327.524 382.308,-343.855 408,-371 409.209,-372.277 410.523,-373.488 411.91,-374.634"/>
<polygon fill="midnightblue" stroke="midnightblue" points="410.192,-377.7 420.416,-380.479 414.157,-371.931 410.192,-377.7"/>
</g>
<!-- Node21 -->
<g id="node21" class="node"><title>Node21</title>
<g id="a_node21"><a xlink:href="ff_8c.html#acbd0a20a17c6f9b6d536490d1cc3c5ac" target="_top" xlink:title="create_chain">
<polygon fill="white" stroke="black" points="408,-342.5 408,-361.5 480,-361.5 480,-342.5 408,-342.5"/>
<text text-anchor="middle" x="444" y="-349.5" font-family="Helvetica,sans-Serif" font-size="10.00">create_chain</text>
</a>
</g>
</g>
<!-- Node19&#45;&gt;Node21 -->
<g id="edge37" class="edge"><title>Node19&#45;&gt;Node21</title>
<path fill="none" stroke="midnightblue" d="M343.293,-247.72C361.795,-267.07 403.446,-310.632 426.634,-334.884"/>
<polygon fill="midnightblue" stroke="midnightblue" points="424.29,-337.496 433.73,-342.305 429.349,-332.658 424.29,-337.496"/>
</g>
<!-- Node22 -->
<g id="node22" class="node"><title>Node22</title>
<g id="a_node22"><a xlink:href="ff_8c.html#a65611adf1626e5e08da77cd33a98dd8b" target="_top" xlink:title="get_fat">
<polygon fill="white" stroke="black" points="516.5,-304.5 516.5,-323.5 563.5,-323.5 563.5,-304.5 516.5,-304.5"/>
<text text-anchor="middle" x="540" y="-311.5" font-family="Helvetica,sans-Serif" font-size="10.00">get_fat</text>
</a>
</g>
</g>
<!-- Node19&#45;&gt;Node22 -->
<g id="edge52" class="edge"><title>Node19&#45;&gt;Node22</title>
<path fill="none" stroke="midnightblue" d="M358.728,-247.167C395.817,-260.918 465.864,-286.886 506.868,-302.088"/>
<polygon fill="midnightblue" stroke="midnightblue" points="505.791,-305.421 516.384,-305.615 508.224,-298.857 505.791,-305.421"/>
</g>
<!-- Node24 -->
<g id="node24" class="node"><title>Node24</title>
<g id="a_node24"><a xlink:href="ff_8c.html#a5e18753404354b210096f9af99e31bc1" target="_top" xlink:title="sync_window">
<polygon fill="white" stroke="black" points="716,-304.5 716,-323.5 792,-323.5 792,-304.5 716,-304.5"/>
<text text-anchor="middle" x="754" y="-311.5" font-family="Helvetica,sans-Serif" font-size="10.00">sync_window</text>
</a>
</g>
</g>
<!-- Node19&#45;&gt;Node24 -->
<g id="edge54" class="edge"><title>Node19&#45;&gt;Node24</title>
<path fill="none" stroke="midnightblue" d="M358.899,-241.305C415.987,-249.057 560.592,-269.68 680,-295 689.508,-297.016 699.639,-299.46 709.232,-301.915"/>
<polygon fill="midnightblue" stroke="midnightblue" points="708.426,-305.322 718.986,-304.459 710.193,-298.548 708.426,-305.322"/>
</g>
<!-- Node19&#45;&gt;Node28 -->
<g id="edge53" class="edge"><title>Node19&#45;&gt;Node28</title>
<path fill="none" stroke="midnightblue" d="M337.786,-228.395C347.065,-205.746 372.772,-148.046 408,-110 410.792,-106.984 414.029,-104.143 417.385,-101.544"/>
<polygon fill="midnightblue" stroke="midnightblue" points="419.63,-104.244 425.784,-95.6195 415.595,-98.5236 419.63,-104.244"/>
</g>
<!-- Node21&#45;&gt;Node22 -->
<g id="edge38" class="edge"><title>Node21&#45;&gt;Node22</title>
<path fill="none" stroke="midnightblue" d="M468.72,-342.411C480.222,-337.761 494.211,-332.106 506.672,-327.069"/>
<polygon fill="midnightblue" stroke="midnightblue" points="508.301,-330.186 516.26,-323.193 505.677,-323.696 508.301,-330.186"/>
</g>
<!-- Node27 -->
<g id="node27" class="node"><title>Node27</title>
<g id="a_node27"><a xlink:href="ff_8c.html#abd4b6b071a8d728a88727051c12bc6d7" target="_top" xlink:title="put_fat">
<polygon fill="white" stroke="black" points="516.5,-342.5 516.5,-361.5 563.5,-361.5 563.5,-342.5 516.5,-342.5"/>
<text text-anchor="middle" x="540" y="-349.5" font-family="Helvetica,sans-Serif" font-size="10.00">put_fat</text>
</a>
</g>
</g>
<!-- Node21&#45;&gt;Node27 -->
<g id="edge50" class="edge"><title>Node21&#45;&gt;Node27</title>
<path fill="none" stroke="midnightblue" d="M480.002,-352C488.517,-352 497.595,-352 506.013,-352"/>
<polygon fill="midnightblue" stroke="midnightblue" points="506.23,-355.5 516.23,-352 506.23,-348.5 506.23,-355.5"/>
</g>
<!-- Node22&#45;&gt;Node23 -->
<g id="edge39" class="edge"><title>Node22&#45;&gt;Node23</title>
<path fill="none" stroke="midnightblue" d="M563.729,-314C571.617,-314 580.795,-314 589.973,-314"/>
<polygon fill="midnightblue" stroke="midnightblue" points="590.268,-317.5 600.268,-314 590.268,-310.5 590.268,-317.5"/>
</g>
<!-- Node23&#45;&gt;Node4 -->
<g id="edge49" class="edge"><title>Node23&#45;&gt;Node4</title>
<path fill="none" stroke="midnightblue" d="M659.713,-323.523C699.077,-343.557 790.631,-390.152 837.007,-413.754"/>
<polygon fill="midnightblue" stroke="midnightblue" points="835.683,-417.007 846.183,-418.423 838.858,-410.768 835.683,-417.007"/>
</g>
<!-- Node23&#45;&gt;Node24 -->
<g id="edge40" class="edge"><title>Node23&#45;&gt;Node24</title>
<path fill="none" stroke="midnightblue" d="M679.544,-314C688.003,-314 697.053,-314 705.808,-314"/>
<polygon fill="midnightblue" stroke="midnightblue" points="705.898,-317.5 715.898,-314 705.898,-310.5 705.898,-317.5"/>
</g>
<!-- Node25 -->
<g id="node25" class="node"><title>Node25</title>
<g id="a_node25"><a xlink:href="diskio_8h.html#ac4785625f4bb82e33562079813659880" target="_top" xlink:title="disk_write">
<polygon fill="white" stroke="black" points="835.5,-304.5 835.5,-323.5 896.5,-323.5 896.5,-304.5 835.5,-304.5"/>
<text text-anchor="middle" x="866" y="-311.5" font-family="Helvetica,sans-Serif" font-size="10.00">disk_write</text>
</a>
</g>
</g>
<!-- Node24&#45;&gt;Node25 -->
<g id="edge41" class="edge"><title>Node24&#45;&gt;Node25</title>
<path fill="none" stroke="midnightblue" d="M792.241,-314C802.916,-314 814.59,-314 825.401,-314"/>
<polygon fill="midnightblue" stroke="midnightblue" points="825.441,-317.5 835.441,-314 825.441,-310.5 825.441,-317.5"/>
</g>
<!-- Node25&#45;&gt;Node5 -->
<g id="edge42" class="edge"><title>Node25&#45;&gt;Node5</title>
<path fill="none" stroke="midnightblue" d="M888.098,-304.448C937.193,-283.8 1060.92,-241.049 1140,-295 1190.84,-329.686 1203.11,-409.287 1206.06,-446.348"/>
<polygon fill="midnightblue" stroke="midnightblue" points="1202.57,-446.634 1206.71,-456.387 1209.56,-446.181 1202.57,-446.634"/>
</g>
<!-- Node25&#45;&gt;Node7 -->
<g id="edge43" class="edge"><title>Node25&#45;&gt;Node7</title>
<path fill="none" stroke="midnightblue" d="M895.767,-323.589C909.943,-328.314 927.237,-334.079 942.532,-339.177"/>
<polygon fill="midnightblue" stroke="midnightblue" points="941.649,-342.572 952.242,-342.414 943.862,-335.931 941.649,-342.572"/>
</g>
<!-- Node25&#45;&gt;Node10 -->
<g id="edge44" class="edge"><title>Node25&#45;&gt;Node10</title>
<path fill="none" stroke="midnightblue" d="M876.72,-323.72C896.154,-343.154 940.011,-387.011 964.199,-411.199"/>
<polygon fill="midnightblue" stroke="midnightblue" points="961.759,-413.709 971.305,-418.305 966.709,-408.759 961.759,-413.709"/>
</g>
<!-- Node26 -->
<g id="node26" class="node"><title>Node26</title>
<g id="a_node26"><a xlink:href="sdmm_8c.html#aefbd30f6bdff37184f58faf98ad1c6e0" target="_top" xlink:title="xmit_datablock">
<polygon fill="white" stroke="black" points="940.5,-304.5 940.5,-323.5 1023.5,-323.5 1023.5,-304.5 940.5,-304.5"/>
<text text-anchor="middle" x="982" y="-311.5" font-family="Helvetica,sans-Serif" font-size="10.00">xmit_datablock</text>
</a>
</g>
</g>
<!-- Node25&#45;&gt;Node26 -->
<g id="edge45" class="edge"><title>Node25&#45;&gt;Node26</title>
<path fill="none" stroke="midnightblue" d="M896.655,-314C906.858,-314 918.592,-314 930.003,-314"/>
<polygon fill="midnightblue" stroke="midnightblue" points="930.338,-317.5 940.337,-314 930.337,-310.5 930.338,-317.5"/>
</g>
<!-- Node26&#45;&gt;Node6 -->
<g id="edge48" class="edge"><title>Node26&#45;&gt;Node6</title>
<path fill="none" stroke="midnightblue" d="M1004.25,-304.438C1035.58,-291.835 1095.29,-273.62 1140,-295 1235.8,-340.815 1284.24,-472.746 1299.53,-522.605"/>
<polygon fill="midnightblue" stroke="midnightblue" points="1296.24,-523.838 1302.43,-532.436 1302.96,-521.854 1296.24,-523.838"/>
</g>
<!-- Node26&#45;&gt;Node12 -->
<g id="edge46" class="edge"><title>Node26&#45;&gt;Node12</title>
<path fill="none" stroke="midnightblue" d="M1008.23,-323.67C1013.68,-326.299 1019.23,-329.426 1024,-333 1100.51,-390.3 1168.24,-484.155 1194.93,-523.613"/>
<polygon fill="midnightblue" stroke="midnightblue" points="1192.34,-526.045 1200.81,-532.417 1198.17,-522.158 1192.34,-526.045"/>
</g>
<!-- Node26&#45;&gt;Node13 -->
<g id="edge47" class="edge"><title>Node26&#45;&gt;Node13</title>
<path fill="none" stroke="midnightblue" d="M1023.57,-314C1034.98,-314 1047.37,-314 1058.76,-314"/>
<polygon fill="midnightblue" stroke="midnightblue" points="1058.87,-317.5 1068.87,-314 1058.87,-310.5 1058.87,-317.5"/>
</g>
<!-- Node27&#45;&gt;Node23 -->
<g id="edge51" class="edge"><title>Node27&#45;&gt;Node23</title>
<path fill="none" stroke="midnightblue" d="M563.729,-343.187C575.923,-338.458 591.199,-332.535 604.797,-327.262"/>
<polygon fill="midnightblue" stroke="midnightblue" points="606.275,-330.443 614.334,-323.564 603.745,-323.917 606.275,-330.443"/>
</g>
<!-- Node29&#45;&gt;Node20 -->
<g id="edge56" class="edge"><title>Node29&#45;&gt;Node20</title>
<path fill="none" stroke="midnightblue" d="M345.619,-323.886C359.842,-335.762 384.893,-355.965 408,-371 410.311,-372.504 412.751,-374 415.224,-375.454"/>
<polygon fill="midnightblue" stroke="midnightblue" points="413.721,-378.625 424.153,-380.479 417.154,-372.524 413.721,-378.625"/>
</g>
<!-- Node29&#45;&gt;Node22 -->
<g id="edge57" class="edge"><title>Node29&#45;&gt;Node22</title>
<path fill="none" stroke="midnightblue" d="M355.551,-314C391.563,-314 464.175,-314 506.444,-314"/>
<polygon fill="midnightblue" stroke="midnightblue" points="506.497,-317.5 516.496,-314 506.496,-310.5 506.497,-317.5"/>
</g>
<!-- Node30&#45;&gt;Node19 -->
<g id="edge60" class="edge"><title>Node30&#45;&gt;Node19</title>
<path fill="none" stroke="midnightblue" d="M235.932,-171.625C254.528,-184.474 287.679,-207.378 309.755,-222.63"/>
<polygon fill="midnightblue" stroke="midnightblue" points="307.965,-225.648 318.182,-228.453 311.944,-219.889 307.965,-225.648"/>
</g>
<!-- Node30&#45;&gt;Node23 -->
<g id="edge63" class="edge"><title>Node30&#45;&gt;Node23</title>
<path fill="none" stroke="midnightblue" d="M245.416,-160.361C314.329,-156.03 514.682,-147.129 564,-186 603.203,-216.899 568.01,-256.56 598.575,-296.656"/>
<polygon fill="midnightblue" stroke="midnightblue" points="596.13,-299.178 605.341,-304.412 601.405,-294.576 596.13,-299.178"/>
</g>
<!-- Node30&#45;&gt;Node29 -->
<g id="edge61" class="edge"><title>Node30&#45;&gt;Node29</title>
<path fill="none" stroke="midnightblue" d="M228.881,-171.508C246.938,-196.46 295.892,-264.106 319.257,-296.392"/>
<polygon fill="midnightblue" stroke="midnightblue" points="316.423,-298.446 325.122,-304.495 322.094,-294.342 316.423,-298.446"/>
</g>
<!-- Node31 -->
<g id="node31" class="node"><title>Node31</title>
<g id="a_node31"><a xlink:href="ff_8c.html#a38b4f223d18bd4416d8bce0f07a63c01" target="_top" xlink:title="mem_cmp">
<polygon fill="white" stroke="black" points="302,-114.5 302,-133.5 364,-133.5 364,-114.5 302,-114.5"/>
<text text-anchor="middle" x="333" y="-121.5" font-family="Helvetica,sans-Serif" font-size="10.00">mem_cmp</text>
</a>
</g>
</g>
<!-- Node30&#45;&gt;Node31 -->
<g id="edge62" class="edge"><title>Node30&#45;&gt;Node31</title>
<path fill="none" stroke="midnightblue" d="M245.06,-154.034C259.354,-149.096 278.055,-142.636 294.448,-136.973"/>
<polygon fill="midnightblue" stroke="midnightblue" points="295.988,-140.144 304.297,-133.57 293.702,-133.527 295.988,-140.144"/>
</g>
<!-- Node33&#45;&gt;Node29 -->
<g id="edge70" class="edge"><title>Node33&#45;&gt;Node29</title>
<path fill="none" stroke="midnightblue" d="M136.31,-209.586C140.53,-212.22 144.694,-215.369 148,-219 173.165,-246.634 153.757,-273.039 184,-295 217.805,-319.547 267.752,-320.707 300.088,-318.204"/>
<polygon fill="midnightblue" stroke="midnightblue" points="300.701,-321.662 310.33,-317.243 300.047,-314.693 300.701,-321.662"/>
</g>
<!-- Node33&#45;&gt;Node30 -->
<g id="edge74" class="edge"><title>Node33&#45;&gt;Node30</title>
<path fill="none" stroke="midnightblue" d="M142.244,-190.411C155.933,-185.409 172.809,-179.243 187.337,-173.935"/>
<polygon fill="midnightblue" stroke="midnightblue" points="188.76,-177.141 196.951,-170.422 186.357,-170.566 188.76,-177.141"/>
</g>
<!-- Node34 -->
<g id="node34" class="node"><title>Node34</title>
<g id="a_node34"><a xlink:href="ff_8c.html#a0bb6c133dec7b4fda00bce387e72e636" target="_top" xlink:title="create_name">
<polygon fill="white" stroke="black" points="184.5,-38.5 184.5,-57.5 257.5,-57.5 257.5,-38.5 184.5,-38.5"/>
<text text-anchor="middle" x="221" y="-45.5" font-family="Helvetica,sans-Serif" font-size="10.00">create_name</text>
</a>
</g>
</g>
<!-- Node33&#45;&gt;Node34 -->
<g id="edge71" class="edge"><title>Node33&#45;&gt;Node34</title>
<path fill="none" stroke="midnightblue" d="M136.983,-190.496C141.067,-187.887 145.005,-184.727 148,-181 179.96,-141.233 153.088,-112.587 184,-72 186.321,-68.9524 189.146,-66.1665 192.182,-63.6591"/>
<polygon fill="midnightblue" stroke="midnightblue" points="194.426,-66.3569 200.511,-57.6835 190.345,-60.6694 194.426,-66.3569"/>
</g>
<!-- Node33&#45;&gt;Node36 -->
<g id="edge75" class="edge"><title>Node33&#45;&gt;Node36</title>
<path fill="none" stroke="midnightblue" d="M137.561,-190.473C141.509,-187.891 145.245,-184.749 148,-181 189.112,-125.058 141.497,-83.893 184,-29 185.071,-27.617 186.271,-26.3238 187.566,-25.1161"/>
<polygon fill="midnightblue" stroke="midnightblue" points="189.774,-27.837 195.769,-19.1014 185.635,-22.1918 189.774,-27.837"/>
</g>
<!-- Node34&#45;&gt;Node28 -->
<g id="edge73" class="edge"><title>Node34&#45;&gt;Node28</title>
<path fill="none" stroke="midnightblue" d="M257.52,-53.3143C287.953,-57.9556 332.927,-65.0242 372,-72 382.872,-73.9411 394.65,-76.1998 405.429,-78.3293"/>
<polygon fill="midnightblue" stroke="midnightblue" points="404.903,-81.7934 415.395,-80.3166 406.272,-74.9285 404.903,-81.7934"/>
</g>
<!-- Node35 -->
<g id="node35" class="node"><title>Node35</title>
<g id="a_node35"><a xlink:href="ff_8c.html#a1a60c4200d040e4f47e87dc927f23d14" target="_top" xlink:title="chk_chr">
<polygon fill="white" stroke="black" points="307.5,-0.5 307.5,-19.5 358.5,-19.5 358.5,-0.5 307.5,-0.5"/>
<text text-anchor="middle" x="333" y="-7.5" font-family="Helvetica,sans-Serif" font-size="10.00">chk_chr</text>
</a>
</g>
</g>
<!-- Node34&#45;&gt;Node35 -->
<g id="edge72" class="edge"><title>Node34&#45;&gt;Node35</title>
<path fill="none" stroke="midnightblue" d="M249.758,-38.411C264.272,-33.397 282.172,-27.2132 297.563,-21.8964"/>
<polygon fill="midnightblue" stroke="midnightblue" points="298.945,-25.1221 307.254,-18.5487 296.659,-18.5058 298.945,-25.1221"/>
</g>
<!-- Node38&#45;&gt;Node15 -->
<g id="edge83" class="edge"><title>Node38&#45;&gt;Node15</title>
<path fill="none" stroke="midnightblue" d="M348.729,-437.625C381.489,-458.076 463.465,-504 539,-504 539,-504 539,-504 641,-504 706.165,-504 781.993,-504 826.605,-504"/>
<polygon fill="midnightblue" stroke="midnightblue" points="826.712,-507.5 836.712,-504 826.712,-500.5 826.712,-507.5"/>
</g>
<!-- Node38&#45;&gt;Node20 -->
<g id="edge82" class="edge"><title>Node38&#45;&gt;Node20</title>
<path fill="none" stroke="midnightblue" d="M361.505,-418.411C374.931,-413.731 391.28,-408.031 405.801,-402.968"/>
<polygon fill="midnightblue" stroke="midnightblue" points="407.213,-406.183 415.503,-399.586 404.909,-399.573 407.213,-406.183"/>
</g>
<!-- Node38&#45;&gt;Node22 -->
<g id="edge80" class="edge"><title>Node38&#45;&gt;Node22</title>
<path fill="none" stroke="midnightblue" d="M371.784,-432.492C403.601,-434.236 448.788,-431.705 480,-409 510.224,-387.013 493.044,-362.495 516,-333 516.668,-332.142 517.381,-331.296 518.128,-330.468"/>
<polygon fill="midnightblue" stroke="midnightblue" points="520.571,-332.974 525.423,-323.556 515.756,-327.893 520.571,-332.974"/>
</g>
<!-- Node38&#45;&gt;Node27 -->
<g id="edge81" class="edge"><title>Node38&#45;&gt;Node27</title>
<path fill="none" stroke="midnightblue" d="M356.567,-437.583C386.656,-448.778 440.681,-463.239 480,-442 507.688,-427.044 524.483,-392.807 532.732,-371.136"/>
<polygon fill="midnightblue" stroke="midnightblue" points="536.054,-372.241 536.106,-361.646 529.458,-369.896 536.054,-372.241"/>
</g>
</g>
</svg>
