<?xml version="1.0" encoding="UTF-8" standalone="no"?>
<!DOCTYPE svg PUBLIC "-//W3C//DTD SVG 1.1//EN"
 "http://www.w3.org/Graphics/SVG/1.1/DTD/svg11.dtd">
<!-- Generated by graphviz version 2.36.0 (20140111.2315)
 -->
<!-- Title: check_fs Pages: 1 -->
<svg width="574pt" height="211pt"
 viewBox="0.00 0.00 574.00 211.15" xmlns="http://www.w3.org/2000/svg" xmlns:xlink="http://www.w3.org/1999/xlink">
<g id="graph0" class="graph" transform="scale(1 1) rotate(0) translate(4 207.151)">
<title>check_fs</title>
<polygon fill="white" stroke="none" points="-4,4 -4,-207.151 570,-207.151 570,4 -4,4"/>
<!-- Node1 -->
<g id="node1" class="node"><title>Node1</title>
<polygon fill="#bfbfbf" stroke="black" points="0,-76.5 0,-95.5 56,-95.5 56,-76.5 0,-76.5"/>
<text text-anchor="middle" x="28" y="-83.5" font-family="Helvetica,sans-Serif" font-size="10.00">check_fs</text>
</g>
<!-- Node2 -->
<g id="node2" class="node"><title>Node2</title>
<g id="a_node2"><a xlink:href="diskio_8h.html#ac0c802f8a12fa2047b4bec7109b9293f" target="_top" xlink:title="disk_read">
<polygon fill="white" stroke="black" points="92.5,-76.5 92.5,-95.5 151.5,-95.5 151.5,-76.5 92.5,-76.5"/>
<text text-anchor="middle" x="122" y="-83.5" font-family="Helvetica,sans-Serif" font-size="10.00">disk_read</text>
</a>
</g>
</g>
<!-- Node1&#45;&gt;Node2 -->
<g id="edge1" class="edge"><title>Node1&#45;&gt;Node2</title>
<path fill="none" stroke="midnightblue" d="M56.1054,-86C64.3342,-86 73.5393,-86 82.3722,-86"/>
<polygon fill="midnightblue" stroke="midnightblue" points="82.4893,-89.5001 92.4893,-86 82.4892,-82.5001 82.4893,-89.5001"/>
</g>
<!-- Node3 -->
<g id="node3" class="node"><title>Node3</title>
<g id="a_node3"><a xlink:href="sdmm_8c.html#ac0eadae94de728461ccade9e03fafd8c" target="_top" xlink:title="deselect">
<polygon fill="white" stroke="black" points="403.5,-171.5 403.5,-190.5 456.5,-190.5 456.5,-171.5 403.5,-171.5"/>
<text text-anchor="middle" x="430" y="-178.5" font-family="Helvetica,sans-Serif" font-size="10.00">deselect</text>
</a>
</g>
</g>
<!-- Node2&#45;&gt;Node3 -->
<g id="edge2" class="edge"><title>Node2&#45;&gt;Node3</title>
<path fill="none" stroke="midnightblue" d="M132.096,-95.5613C155.675,-119.491 221.841,-181.312 292,-199 325.976,-207.566 365.78,-200.498 393.701,-192.847"/>
<polygon fill="midnightblue" stroke="midnightblue" points="394.787,-196.176 403.417,-190.03 392.838,-189.453 394.787,-196.176"/>
</g>
<!-- Node5 -->
<g id="node5" class="node"><title>Node5</title>
<g id="a_node5"><a xlink:href="sdmm_8c.html#a21ad8e9a107ea2000705a3edfebaaa2d" target="_top" xlink:title="disk_status">
<polygon fill="white" stroke="black" points="188.5,-0.5 188.5,-19.5 255.5,-19.5 255.5,-0.5 188.5,-0.5"/>
<text text-anchor="middle" x="222" y="-7.5" font-family="Helvetica,sans-Serif" font-size="10.00">disk_status</text>
</a>
</g>
</g>
<!-- Node2&#45;&gt;Node5 -->
<g id="edge4" class="edge"><title>Node2&#45;&gt;Node5</title>
<path fill="none" stroke="midnightblue" d="M134.85,-76.2497C147.781,-65.674 169.158,-48.3765 188,-34 191.548,-31.2928 195.348,-28.4645 199.062,-25.7388"/>
<polygon fill="midnightblue" stroke="midnightblue" points="201.38,-28.3811 207.41,-19.6699 197.263,-22.7193 201.38,-28.3811"/>
</g>
<!-- Node6 -->
<g id="node6" class="node"><title>Node6</title>
<g id="a_node6"><a xlink:href="sdmm_8c.html#a8c99afbc312912297b19752cf7e0960b" target="_top" xlink:title="rcvr_datablock">
<polygon fill="white" stroke="black" points="390,-0.5 390,-19.5 470,-19.5 470,-0.5 390,-0.5"/>
<text text-anchor="middle" x="430" y="-7.5" font-family="Helvetica,sans-Serif" font-size="10.00">rcvr_datablock</text>
</a>
</g>
</g>
<!-- Node2&#45;&gt;Node6 -->
<g id="edge5" class="edge"><title>Node2&#45;&gt;Node6</title>
<path fill="none" stroke="midnightblue" d="M151.513,-78.9184C203.903,-65.9064 316.014,-38.0619 380.552,-22.0329"/>
<polygon fill="midnightblue" stroke="midnightblue" points="381.623,-25.3732 390.485,-19.5659 379.936,-18.5796 381.623,-25.3732"/>
</g>
<!-- Node8 -->
<g id="node8" class="node"><title>Node8</title>
<g id="a_node8"><a xlink:href="sdmm_8c.html#a99684b493c8bfdb0288a2e24e52f6871" target="_top" xlink:title="send_cmd">
<polygon fill="white" stroke="black" points="191,-114.5 191,-133.5 253,-133.5 253,-114.5 191,-114.5"/>
<text text-anchor="middle" x="222" y="-121.5" font-family="Helvetica,sans-Serif" font-size="10.00">send_cmd</text>
</a>
</g>
</g>
<!-- Node2&#45;&gt;Node8 -->
<g id="edge8" class="edge"><title>Node2&#45;&gt;Node8</title>
<path fill="none" stroke="midnightblue" d="M147.73,-95.589C159.568,-100.179 173.935,-105.75 186.8,-110.739"/>
<polygon fill="midnightblue" stroke="midnightblue" points="185.689,-114.062 196.278,-114.414 188.22,-107.535 185.689,-114.062"/>
</g>
<!-- Node4 -->
<g id="node4" class="node"><title>Node4</title>
<g id="a_node4"><a xlink:href="sdmm_8c.html#ab628371b03508f9db7c6daf1203ed84d" target="_top" xlink:title="rcvr_mmc">
<polygon fill="white" stroke="black" points="506,-76.5 506,-95.5 566,-95.5 566,-76.5 506,-76.5"/>
<text text-anchor="middle" x="536" y="-83.5" font-family="Helvetica,sans-Serif" font-size="10.00">rcvr_mmc</text>
</a>
</g>
</g>
<!-- Node3&#45;&gt;Node4 -->
<g id="edge3" class="edge"><title>Node3&#45;&gt;Node4</title>
<path fill="none" stroke="midnightblue" d="M441.738,-171.191C459.501,-154.965 495.193,-122.362 516.905,-102.529"/>
<polygon fill="midnightblue" stroke="midnightblue" points="519.452,-104.943 524.475,-95.614 514.731,-99.7742 519.452,-104.943"/>
</g>
<!-- Node6&#45;&gt;Node4 -->
<g id="edge6" class="edge"><title>Node6&#45;&gt;Node4</title>
<path fill="none" stroke="midnightblue" d="M453.431,-19.6625C459.007,-22.4033 464.857,-25.5813 470,-29 487.636,-40.7226 505.577,-56.838 518.129,-68.9431"/>
<polygon fill="midnightblue" stroke="midnightblue" points="515.958,-71.7166 525.542,-76.2323 520.866,-66.7253 515.958,-71.7166"/>
</g>
<!-- Node7 -->
<g id="node7" class="node"><title>Node7</title>
<g id="a_node7"><a xlink:href="sdmm_8c.html#a76a43e01b9676630e121e5a659acbb3f" target="_top" xlink:title="dly_us">
<polygon fill="white" stroke="black" points="513.5,-19.5 513.5,-38.5 558.5,-38.5 558.5,-19.5 513.5,-19.5"/>
<text text-anchor="middle" x="536" y="-26.5" font-family="Helvetica,sans-Serif" font-size="10.00">dly_us</text>
</a>
</g>
</g>
<!-- Node6&#45;&gt;Node7 -->
<g id="edge7" class="edge"><title>Node6&#45;&gt;Node7</title>
<path fill="none" stroke="midnightblue" d="M470.022,-17.129C481.002,-19.1349 492.806,-21.2915 503.302,-23.209"/>
<polygon fill="midnightblue" stroke="midnightblue" points="502.816,-26.6781 513.282,-25.0323 504.074,-19.7921 502.816,-26.6781"/>
</g>
<!-- Node8&#45;&gt;Node3 -->
<g id="edge9" class="edge"><title>Node8&#45;&gt;Node3</title>
<path fill="none" stroke="midnightblue" d="M230.674,-133.586C242.261,-147.2 265.682,-171.535 292,-181 324.746,-192.776 364.811,-191.092 393.133,-187.486"/>
<polygon fill="midnightblue" stroke="midnightblue" points="393.963,-190.904 403.373,-186.034 392.981,-183.973 393.963,-190.904"/>
</g>
<!-- Node8&#45;&gt;Node4 -->
<g id="edge17" class="edge"><title>Node8&#45;&gt;Node4</title>
<path fill="none" stroke="midnightblue" d="M253.178,-122.193C299.859,-119.145 392.308,-112.1 470,-100 478.352,-98.6992 487.245,-96.9971 495.685,-95.2297"/>
<polygon fill="midnightblue" stroke="midnightblue" points="496.656,-98.6006 505.689,-93.064 495.175,-91.7591 496.656,-98.6006"/>
</g>
<!-- Node9 -->
<g id="node9" class="node"><title>Node9</title>
<g id="a_node9"><a xlink:href="sdmm_8c.html#ab45cb1d47cda5822ce492ad3c11867ae" target="_top" xlink:title="select">
<polygon fill="white" stroke="black" points="301.5,-76.5 301.5,-95.5 344.5,-95.5 344.5,-76.5 301.5,-76.5"/>
<text text-anchor="middle" x="323" y="-83.5" font-family="Helvetica,sans-Serif" font-size="10.00">select</text>
</a>
</g>
</g>
<!-- Node8&#45;&gt;Node9 -->
<g id="edge10" class="edge"><title>Node8&#45;&gt;Node9</title>
<path fill="none" stroke="midnightblue" d="M247.982,-114.411C261.257,-109.316 277.679,-103.012 291.68,-97.6381"/>
<polygon fill="midnightblue" stroke="midnightblue" points="293.285,-100.771 301.367,-93.9198 290.777,-94.2358 293.285,-100.771"/>
</g>
<!-- Node11 -->
<g id="node11" class="node"><title>Node11</title>
<g id="a_node11"><a xlink:href="sdmm_8c.html#ace0af708caf7775204ca74fbd46818bb" target="_top" xlink:title="xmit_mmc">
<polygon fill="white" stroke="black" points="292,-152.5 292,-171.5 354,-171.5 354,-152.5 292,-152.5"/>
<text text-anchor="middle" x="323" y="-159.5" font-family="Helvetica,sans-Serif" font-size="10.00">xmit_mmc</text>
</a>
</g>
</g>
<!-- Node8&#45;&gt;Node11 -->
<g id="edge16" class="edge"><title>Node8&#45;&gt;Node11</title>
<path fill="none" stroke="midnightblue" d="M247.982,-133.589C259.941,-138.179 274.455,-143.75 287.451,-148.739"/>
<polygon fill="midnightblue" stroke="midnightblue" points="286.436,-152.098 297.026,-152.414 288.944,-145.563 286.436,-152.098"/>
</g>
<!-- Node9&#45;&gt;Node3 -->
<g id="edge15" class="edge"><title>Node9&#45;&gt;Node3</title>
<path fill="none" stroke="midnightblue" d="M334.841,-95.8089C352.776,-112.035 388.811,-144.638 410.731,-164.471"/>
<polygon fill="midnightblue" stroke="midnightblue" points="408.61,-167.272 418.374,-171.386 413.307,-162.081 408.61,-167.272"/>
</g>
<!-- Node9&#45;&gt;Node4 -->
<g id="edge11" class="edge"><title>Node9&#45;&gt;Node4</title>
<path fill="none" stroke="midnightblue" d="M344.616,-86C379.56,-86 450.978,-86 495.721,-86"/>
<polygon fill="midnightblue" stroke="midnightblue" points="495.935,-89.5001 505.935,-86 495.935,-82.5001 495.935,-89.5001"/>
</g>
<!-- Node10 -->
<g id="node10" class="node"><title>Node10</title>
<g id="a_node10"><a xlink:href="sdmm_8c.html#a624a19e248af05530dae5c0cc1dddc11" target="_top" xlink:title="wait_ready">
<polygon fill="white" stroke="black" points="398,-38.5 398,-57.5 462,-57.5 462,-38.5 398,-38.5"/>
<text text-anchor="middle" x="430" y="-45.5" font-family="Helvetica,sans-Serif" font-size="10.00">wait_ready</text>
</a>
</g>
</g>
<!-- Node9&#45;&gt;Node10 -->
<g id="edge12" class="edge"><title>Node9&#45;&gt;Node10</title>
<path fill="none" stroke="midnightblue" d="M344.745,-78.4924C358.504,-73.5129 376.924,-66.8464 393.033,-61.0168"/>
<polygon fill="midnightblue" stroke="midnightblue" points="394.489,-64.212 402.701,-57.5178 392.107,-57.6298 394.489,-64.212"/>
</g>
<!-- Node10&#45;&gt;Node4 -->
<g id="edge13" class="edge"><title>Node10&#45;&gt;Node4</title>
<path fill="none" stroke="midnightblue" d="M457.244,-57.589C469.93,-62.2244 485.353,-67.8596 499.107,-72.8853"/>
<polygon fill="midnightblue" stroke="midnightblue" points="498.171,-76.2695 508.765,-76.4141 500.573,-69.6946 498.171,-76.2695"/>
</g>
<!-- Node10&#45;&gt;Node7 -->
<g id="edge14" class="edge"><title>Node10&#45;&gt;Node7</title>
<path fill="none" stroke="midnightblue" d="M462.203,-42.2994C475.234,-39.9189 490.35,-37.1573 503.42,-34.7695"/>
<polygon fill="midnightblue" stroke="midnightblue" points="504.176,-38.1893 513.384,-32.9491 502.918,-31.3033 504.176,-38.1893"/>
</g>
</g>
</svg>
