<?xml version="1.0" encoding="UTF-8" standalone="no"?>
<!DOCTYPE svg PUBLIC "-//W3C//DTD SVG 1.1//EN"
 "http://www.w3.org/Graphics/SVG/1.1/DTD/svg11.dtd">
<!-- Generated by graphviz version 2.36.0 (20140111.2315)
 -->
<!-- Title: sd_card/ff.h Pages: 1 -->
<svg width="130pt" height="84pt"
 viewBox="0.00 0.00 130.00 84.00" xmlns="http://www.w3.org/2000/svg" xmlns:xlink="http://www.w3.org/1999/xlink">
<g id="graph0" class="graph" transform="scale(1 1) rotate(0) translate(4 80)">
<title>sd_card/ff.h</title>
<polygon fill="white" stroke="none" points="-4,4 -4,-80 126,-80 126,4 -4,4"/>
<!-- Node1 -->
<g id="node1" class="node"><title>Node1</title>
<polygon fill="#bfbfbf" stroke="black" points="28,-56.5 28,-75.5 96,-75.5 96,-56.5 28,-56.5"/>
<text text-anchor="middle" x="62" y="-63.5" font-family="Helvetica,sans-Serif" font-size="10.00">sd_card/ff.h</text>
</g>
<!-- Node2 -->
<g id="node2" class="node"><title>Node2</title>
<g id="a_node2"><a xlink:href="integer_8h.html" target="_top" xlink:title="integer.h">
<polygon fill="white" stroke="black" points="0,-0.5 0,-19.5 54,-19.5 54,-0.5 0,-0.5"/>
<text text-anchor="middle" x="27" y="-7.5" font-family="Helvetica,sans-Serif" font-size="10.00">integer.h</text>
</a>
</g>
</g>
<!-- Node1&#45;&gt;Node2 -->
<g id="edge1" class="edge"><title>Node1&#45;&gt;Node2</title>
<path fill="none" stroke="midnightblue" d="M56.2205,-56.083C51.3276,-48.5341 44.1726,-37.4948 38.1674,-28.2298"/>
<polygon fill="midnightblue" stroke="midnightblue" points="41.048,-26.239 32.672,-19.7511 35.174,-30.0463 41.048,-26.239"/>
</g>
<!-- Node3 -->
<g id="node3" class="node"><title>Node3</title>
<g id="a_node3"><a xlink:href="ffconf_8h.html" target="_top" xlink:title="ffconf.h">
<polygon fill="white" stroke="black" points="72,-0.5 72,-19.5 122,-19.5 122,-0.5 72,-0.5"/>
<text text-anchor="middle" x="97" y="-7.5" font-family="Helvetica,sans-Serif" font-size="10.00">ffconf.h</text>
</a>
</g>
</g>
<!-- Node1&#45;&gt;Node3 -->
<g id="edge2" class="edge"><title>Node1&#45;&gt;Node3</title>
<path fill="none" stroke="midnightblue" d="M67.7795,-56.083C72.6724,-48.5341 79.8274,-37.4948 85.8326,-28.2298"/>
<polygon fill="midnightblue" stroke="midnightblue" points="88.826,-30.0463 91.328,-19.7511 82.952,-26.239 88.826,-30.0463"/>
</g>
</g>
</svg>
