<?xml version="1.0" encoding="UTF-8" standalone="no"?>
<!DOCTYPE svg PUBLIC "-//W3C//DTD SVG 1.1//EN"
 "http://www.w3.org/Graphics/SVG/1.1/DTD/svg11.dtd">
<!-- Generated by graphviz version 2.36.0 (20140111.2315)
 -->
<!-- Title: move_window Pages: 1 -->
<svg width="728pt" height="281pt"
 viewBox="0.00 0.00 728.00 280.69" xmlns="http://www.w3.org/2000/svg" xmlns:xlink="http://www.w3.org/1999/xlink">
<g id="graph0" class="graph" transform="scale(1 1) rotate(0) translate(4 276.694)">
<title>move_window</title>
<polygon fill="white" stroke="none" points="-4,4 -4,-276.694 724,-276.694 724,4 -4,4"/>
<!-- Node1 -->
<g id="node1" class="node"><title>Node1</title>
<polygon fill="#bfbfbf" stroke="black" points="0.5,-139.194 0.5,-158.194 79.5,-158.194 79.5,-139.194 0.5,-139.194"/>
<text text-anchor="middle" x="40" y="-146.194" font-family="Helvetica,sans-Serif" font-size="10.00">move_window</text>
</g>
<!-- Node2 -->
<g id="node2" class="node"><title>Node2</title>
<g id="a_node2"><a xlink:href="diskio_8h.html#ac0c802f8a12fa2047b4bec7109b9293f" target="_top" xlink:title="disk_read">
<polygon fill="white" stroke="black" points="229.5,-158.194 229.5,-177.194 288.5,-177.194 288.5,-158.194 229.5,-158.194"/>
<text text-anchor="middle" x="259" y="-165.194" font-family="Helvetica,sans-Serif" font-size="10.00">disk_read</text>
</a>
</g>
</g>
<!-- Node1&#45;&gt;Node2 -->
<g id="edge1" class="edge"><title>Node1&#45;&gt;Node2</title>
<path fill="none" stroke="midnightblue" d="M79.7953,-152.091C119.187,-155.54 179.836,-160.85 219.221,-164.299"/>
<polygon fill="midnightblue" stroke="midnightblue" points="218.973,-167.79 229.24,-165.176 219.584,-160.817 218.973,-167.79"/>
</g>
<!-- Node12 -->
<g id="node12" class="node"><title>Node12</title>
<g id="a_node12"><a xlink:href="ff_8c.html#a5e18753404354b210096f9af99e31bc1" target="_top" xlink:title="sync_window">
<polygon fill="white" stroke="black" points="116,-120.194 116,-139.194 192,-139.194 192,-120.194 116,-120.194"/>
<text text-anchor="middle" x="154" y="-127.194" font-family="Helvetica,sans-Serif" font-size="10.00">sync_window</text>
</a>
</g>
</g>
<!-- Node1&#45;&gt;Node12 -->
<g id="edge18" class="edge"><title>Node1&#45;&gt;Node12</title>
<path fill="none" stroke="midnightblue" d="M79.544,-142.155C88.0033,-140.72 97.0531,-139.185 105.808,-137.7"/>
<polygon fill="midnightblue" stroke="midnightblue" points="106.624,-141.112 115.898,-135.988 105.453,-134.21 106.624,-141.112"/>
</g>
<!-- Node3 -->
<g id="node3" class="node"><title>Node3</title>
<g id="a_node3"><a xlink:href="sdmm_8c.html#ac0eadae94de728461ccade9e03fafd8c" target="_top" xlink:title="deselect">
<polygon fill="white" stroke="black" points="557.5,-139.194 557.5,-158.194 610.5,-158.194 610.5,-139.194 557.5,-139.194"/>
<text text-anchor="middle" x="584" y="-146.194" font-family="Helvetica,sans-Serif" font-size="10.00">deselect</text>
</a>
</g>
</g>
<!-- Node2&#45;&gt;Node3 -->
<g id="edge2" class="edge"><title>Node2&#45;&gt;Node3</title>
<path fill="none" stroke="midnightblue" d="M286.603,-177.195C298.491,-180.959 312.776,-184.829 326,-186.694 405.387,-197.894 498.435,-175.22 547.898,-160.313"/>
<polygon fill="midnightblue" stroke="midnightblue" points="548.958,-163.649 557.482,-157.356 546.895,-156.96 548.958,-163.649"/>
</g>
<!-- Node5 -->
<g id="node5" class="node"><title>Node5</title>
<g id="a_node5"><a xlink:href="sdmm_8c.html#a21ad8e9a107ea2000705a3edfebaaa2d" target="_top" xlink:title="disk_status">
<polygon fill="white" stroke="black" points="334.5,-158.194 334.5,-177.194 401.5,-177.194 401.5,-158.194 334.5,-158.194"/>
<text text-anchor="middle" x="368" y="-165.194" font-family="Helvetica,sans-Serif" font-size="10.00">disk_status</text>
</a>
</g>
</g>
<!-- Node2&#45;&gt;Node5 -->
<g id="edge4" class="edge"><title>Node2&#45;&gt;Node5</title>
<path fill="none" stroke="midnightblue" d="M288.674,-167.694C299.59,-167.694 312.279,-167.694 324.223,-167.694"/>
<polygon fill="midnightblue" stroke="midnightblue" points="324.465,-171.194 334.465,-167.694 324.465,-164.194 324.465,-171.194"/>
</g>
<!-- Node6 -->
<g id="node6" class="node"><title>Node6</title>
<g id="a_node6"><a xlink:href="sdmm_8c.html#a8c99afbc312912297b19752cf7e0960b" target="_top" xlink:title="rcvr_datablock">
<polygon fill="white" stroke="black" points="544,-253.194 544,-272.194 624,-272.194 624,-253.194 544,-253.194"/>
<text text-anchor="middle" x="584" y="-260.194" font-family="Helvetica,sans-Serif" font-size="10.00">rcvr_datablock</text>
</a>
</g>
</g>
<!-- Node2&#45;&gt;Node6 -->
<g id="edge5" class="edge"><title>Node2&#45;&gt;Node6</title>
<path fill="none" stroke="midnightblue" d="M275.776,-177.208C288.845,-184.745 308.109,-195.075 326,-201.694 396.157,-227.651 481.256,-245.296 533.768,-254.683"/>
<polygon fill="midnightblue" stroke="midnightblue" points="533.367,-258.166 543.822,-256.45 534.578,-251.272 533.367,-258.166"/>
</g>
<!-- Node8 -->
<g id="node8" class="node"><title>Node8</title>
<g id="a_node8"><a xlink:href="sdmm_8c.html#a99684b493c8bfdb0288a2e24e52f6871" target="_top" xlink:title="send_cmd">
<polygon fill="white" stroke="black" points="337,-120.194 337,-139.194 399,-139.194 399,-120.194 337,-120.194"/>
<text text-anchor="middle" x="368" y="-127.194" font-family="Helvetica,sans-Serif" font-size="10.00">send_cmd</text>
</a>
</g>
</g>
<!-- Node2&#45;&gt;Node8 -->
<g id="edge8" class="edge"><title>Node2&#45;&gt;Node8</title>
<path fill="none" stroke="midnightblue" d="M287.001,-158.105C300.18,-153.425 316.229,-147.725 330.484,-142.663"/>
<polygon fill="midnightblue" stroke="midnightblue" points="331.756,-145.925 340.008,-139.28 329.413,-139.329 331.756,-145.925"/>
</g>
<!-- Node4 -->
<g id="node4" class="node"><title>Node4</title>
<g id="a_node4"><a xlink:href="sdmm_8c.html#ab628371b03508f9db7c6daf1203ed84d" target="_top" xlink:title="rcvr_mmc">
<polygon fill="white" stroke="black" points="660,-120.194 660,-139.194 720,-139.194 720,-120.194 660,-120.194"/>
<text text-anchor="middle" x="690" y="-127.194" font-family="Helvetica,sans-Serif" font-size="10.00">rcvr_mmc</text>
</a>
</g>
</g>
<!-- Node3&#45;&gt;Node4 -->
<g id="edge3" class="edge"><title>Node3&#45;&gt;Node4</title>
<path fill="none" stroke="midnightblue" d="M610.708,-143.998C622.479,-141.847 636.689,-139.251 649.754,-136.864"/>
<polygon fill="midnightblue" stroke="midnightblue" points="650.71,-140.248 659.918,-135.007 649.452,-133.362 650.71,-140.248"/>
</g>
<!-- Node6&#45;&gt;Node4 -->
<g id="edge6" class="edge"><title>Node6&#45;&gt;Node4</title>
<path fill="none" stroke="midnightblue" d="M604.578,-253.126C611.246,-249.255 618.418,-244.355 624,-238.694 650.429,-211.894 670.531,-172.322 680.98,-148.959"/>
<polygon fill="midnightblue" stroke="midnightblue" points="684.328,-150.037 685.09,-139.47 677.904,-147.255 684.328,-150.037"/>
</g>
<!-- Node7 -->
<g id="node7" class="node"><title>Node7</title>
<g id="a_node7"><a xlink:href="sdmm_8c.html#a76a43e01b9676630e121e5a659acbb3f" target="_top" xlink:title="dly_us">
<polygon fill="white" stroke="black" points="667.5,-215.194 667.5,-234.194 712.5,-234.194 712.5,-215.194 667.5,-215.194"/>
<text text-anchor="middle" x="690" y="-222.194" font-family="Helvetica,sans-Serif" font-size="10.00">dly_us</text>
</a>
</g>
</g>
<!-- Node6&#45;&gt;Node7 -->
<g id="edge7" class="edge"><title>Node6&#45;&gt;Node7</title>
<path fill="none" stroke="midnightblue" d="M611.244,-253.105C625.324,-247.96 642.776,-241.584 657.576,-236.176"/>
<polygon fill="midnightblue" stroke="midnightblue" points="659.133,-239.333 667.325,-232.614 656.731,-232.759 659.133,-239.333"/>
</g>
<!-- Node8&#45;&gt;Node3 -->
<g id="edge9" class="edge"><title>Node8&#45;&gt;Node3</title>
<path fill="none" stroke="midnightblue" d="M399.207,-132.376C438.104,-135.83 505.618,-141.824 547.096,-145.506"/>
<polygon fill="midnightblue" stroke="midnightblue" points="547.03,-149.014 557.3,-146.412 547.649,-142.042 547.03,-149.014"/>
</g>
<!-- Node8&#45;&gt;Node4 -->
<g id="edge17" class="edge"><title>Node8&#45;&gt;Node4</title>
<path fill="none" stroke="midnightblue" d="M391.878,-139.296C436.961,-156.868 540.186,-190.396 624,-167.694 640.244,-163.294 656.59,-153.708 668.827,-145.266"/>
<polygon fill="midnightblue" stroke="midnightblue" points="670.884,-148.097 676.95,-139.411 666.791,-142.418 670.884,-148.097"/>
</g>
<!-- Node9 -->
<g id="node9" class="node"><title>Node9</title>
<g id="a_node9"><a xlink:href="sdmm_8c.html#ab45cb1d47cda5822ce492ad3c11867ae" target="_top" xlink:title="select">
<polygon fill="white" stroke="black" points="455.5,-63.1942 455.5,-82.1942 498.5,-82.1942 498.5,-63.1942 455.5,-63.1942"/>
<text text-anchor="middle" x="477" y="-70.1942" font-family="Helvetica,sans-Serif" font-size="10.00">select</text>
</a>
</g>
</g>
<!-- Node8&#45;&gt;Node9 -->
<g id="edge10" class="edge"><title>Node8&#45;&gt;Node9</title>
<path fill="none" stroke="midnightblue" d="M387.151,-120.025C404.163,-110.963 429.805,-97.3028 449.176,-86.9834"/>
<polygon fill="midnightblue" stroke="midnightblue" points="450.937,-90.0113 458.117,-82.2206 447.646,-83.8333 450.937,-90.0113"/>
</g>
<!-- Node11 -->
<g id="node11" class="node"><title>Node11</title>
<g id="a_node11"><a xlink:href="sdmm_8c.html#ace0af708caf7775204ca74fbd46818bb" target="_top" xlink:title="xmit_mmc">
<polygon fill="white" stroke="black" points="446,-25.1942 446,-44.1942 508,-44.1942 508,-25.1942 446,-25.1942"/>
<text text-anchor="middle" x="477" y="-32.1942" font-family="Helvetica,sans-Serif" font-size="10.00">xmit_mmc</text>
</a>
</g>
</g>
<!-- Node8&#45;&gt;Node11 -->
<g id="edge16" class="edge"><title>Node8&#45;&gt;Node11</title>
<path fill="none" stroke="midnightblue" d="M377.427,-120.145C391.005,-105.054 418.948,-75.2023 446,-53.6942 447.556,-52.4568 449.197,-51.2297 450.875,-50.0299"/>
<polygon fill="midnightblue" stroke="midnightblue" points="453.013,-52.8107 459.372,-44.3371 449.116,-46.9952 453.013,-52.8107"/>
</g>
<!-- Node9&#45;&gt;Node3 -->
<g id="edge15" class="edge"><title>Node9&#45;&gt;Node3</title>
<path fill="none" stroke="midnightblue" d="M489.992,-82.2647C507.495,-96.2151 538.558,-120.895 544,-124.694 548.37,-127.745 553.125,-130.843 557.764,-133.755"/>
<polygon fill="midnightblue" stroke="midnightblue" points="556.057,-136.815 566.411,-139.064 559.72,-130.849 556.057,-136.815"/>
</g>
<!-- Node9&#45;&gt;Node4 -->
<g id="edge11" class="edge"><title>Node9&#45;&gt;Node4</title>
<path fill="none" stroke="midnightblue" d="M498.772,-78.8122C511.751,-82.6007 528.824,-87.5218 544,-91.6942 579.802,-101.537 620.736,-112.212 649.962,-119.734"/>
<polygon fill="midnightblue" stroke="midnightblue" points="649.227,-123.159 659.783,-122.257 650.968,-116.379 649.227,-123.159"/>
</g>
<!-- Node10 -->
<g id="node10" class="node"><title>Node10</title>
<g id="a_node10"><a xlink:href="sdmm_8c.html#a624a19e248af05530dae5c0cc1dddc11" target="_top" xlink:title="wait_ready">
<polygon fill="white" stroke="black" points="552,-63.1942 552,-82.1942 616,-82.1942 616,-63.1942 552,-63.1942"/>
<text text-anchor="middle" x="584" y="-70.1942" font-family="Helvetica,sans-Serif" font-size="10.00">wait_ready</text>
</a>
</g>
</g>
<!-- Node9&#45;&gt;Node10 -->
<g id="edge12" class="edge"><title>Node9&#45;&gt;Node10</title>
<path fill="none" stroke="midnightblue" d="M498.745,-72.6942C510.96,-72.6942 526.85,-72.6942 541.534,-72.6942"/>
<polygon fill="midnightblue" stroke="midnightblue" points="541.943,-76.1943 551.943,-72.6942 541.943,-69.1943 541.943,-76.1943"/>
</g>
<!-- Node10&#45;&gt;Node4 -->
<g id="edge13" class="edge"><title>Node10&#45;&gt;Node4</title>
<path fill="none" stroke="midnightblue" d="M602.642,-82.3634C619.102,-91.3845 643.874,-104.961 662.671,-115.264"/>
<polygon fill="midnightblue" stroke="midnightblue" points="661.167,-118.431 671.618,-120.168 664.531,-112.292 661.167,-118.431"/>
</g>
<!-- Node10&#45;&gt;Node7 -->
<g id="edge14" class="edge"><title>Node10&#45;&gt;Node7</title>
<path fill="none" stroke="midnightblue" d="M591.506,-82.2025C608.505,-107.047 654.467,-174.222 676.668,-206.67"/>
<polygon fill="midnightblue" stroke="midnightblue" points="673.961,-208.913 682.497,-215.189 679.738,-204.96 673.961,-208.913"/>
</g>
<!-- Node13 -->
<g id="node13" class="node"><title>Node13</title>
<g id="a_node13"><a xlink:href="diskio_8h.html#ac4785625f4bb82e33562079813659880" target="_top" xlink:title="disk_write">
<polygon fill="white" stroke="black" points="228.5,-120.194 228.5,-139.194 289.5,-139.194 289.5,-120.194 228.5,-120.194"/>
<text text-anchor="middle" x="259" y="-127.194" font-family="Helvetica,sans-Serif" font-size="10.00">disk_write</text>
</a>
</g>
</g>
<!-- Node12&#45;&gt;Node13 -->
<g id="edge19" class="edge"><title>Node12&#45;&gt;Node13</title>
<path fill="none" stroke="midnightblue" d="M192.185,-129.694C200.624,-129.694 209.621,-129.694 218.165,-129.694"/>
<polygon fill="midnightblue" stroke="midnightblue" points="218.295,-133.194 228.295,-129.694 218.294,-126.194 218.295,-133.194"/>
</g>
<!-- Node13&#45;&gt;Node3 -->
<g id="edge20" class="edge"><title>Node13&#45;&gt;Node3</title>
<path fill="none" stroke="midnightblue" d="M286.603,-120.193C298.491,-116.43 312.776,-112.56 326,-110.694 405.387,-99.4947 498.435,-122.169 547.898,-137.075"/>
<polygon fill="midnightblue" stroke="midnightblue" points="546.895,-140.429 557.482,-140.032 548.958,-133.74 546.895,-140.429"/>
</g>
<!-- Node13&#45;&gt;Node5 -->
<g id="edge21" class="edge"><title>Node13&#45;&gt;Node5</title>
<path fill="none" stroke="midnightblue" d="M287.001,-139.283C300.18,-143.964 316.229,-149.663 330.484,-154.726"/>
<polygon fill="midnightblue" stroke="midnightblue" points="329.413,-158.06 340.008,-158.108 331.756,-151.463 329.413,-158.06"/>
</g>
<!-- Node13&#45;&gt;Node8 -->
<g id="edge22" class="edge"><title>Node13&#45;&gt;Node8</title>
<path fill="none" stroke="midnightblue" d="M289.521,-129.694C301.023,-129.694 314.389,-129.694 326.749,-129.694"/>
<polygon fill="midnightblue" stroke="midnightblue" points="326.831,-133.194 336.831,-129.694 326.831,-126.194 326.831,-133.194"/>
</g>
<!-- Node14 -->
<g id="node14" class="node"><title>Node14</title>
<g id="a_node14"><a xlink:href="sdmm_8c.html#aefbd30f6bdff37184f58faf98ad1c6e0" target="_top" xlink:title="xmit_datablock">
<polygon fill="white" stroke="black" points="326.5,-6.19418 326.5,-25.1942 409.5,-25.1942 409.5,-6.19418 326.5,-6.19418"/>
<text text-anchor="middle" x="368" y="-13.1942" font-family="Helvetica,sans-Serif" font-size="10.00">xmit_datablock</text>
</a>
</g>
</g>
<!-- Node13&#45;&gt;Node14 -->
<g id="edge23" class="edge"><title>Node13&#45;&gt;Node14</title>
<path fill="none" stroke="midnightblue" d="M269.123,-119.975C287.285,-100.624 328.172,-57.0623 350.935,-32.8105"/>
<polygon fill="midnightblue" stroke="midnightblue" points="353.609,-35.0759 357.9,-25.3892 348.505,-30.2853 353.609,-35.0759"/>
</g>
<!-- Node14&#45;&gt;Node4 -->
<g id="edge26" class="edge"><title>Node14&#45;&gt;Node4</title>
<path fill="none" stroke="midnightblue" d="M409.203,-6.14627C437.155,-0.983342 475.145,3.08515 508,-3.69418 562.983,-15.0394 578.806,-20.3876 624,-53.6942 645.934,-69.8592 665.403,-94.7666 677.187,-111.623"/>
<polygon fill="midnightblue" stroke="midnightblue" points="674.397,-113.744 682.909,-120.052 680.188,-109.812 674.397,-113.744"/>
</g>
<!-- Node14&#45;&gt;Node10 -->
<g id="edge24" class="edge"><title>Node14&#45;&gt;Node10</title>
<path fill="none" stroke="midnightblue" d="M409.644,-8.98379C437.964,-5.90581 476.212,-4.98553 508,-15.6942 531.321,-23.5503 553.137,-41.8632 567.162,-55.6264"/>
<polygon fill="midnightblue" stroke="midnightblue" points="564.974,-58.3946 574.471,-63.0908 569.975,-53.4971 564.974,-58.3946"/>
</g>
<!-- Node14&#45;&gt;Node11 -->
<g id="edge25" class="edge"><title>Node14&#45;&gt;Node11</title>
<path fill="none" stroke="midnightblue" d="M409.757,-22.9315C418.239,-24.4375 427.174,-26.0241 435.641,-27.5276"/>
<polygon fill="midnightblue" stroke="midnightblue" points="435.217,-31.0069 445.675,-29.3093 436.441,-24.1148 435.217,-31.0069"/>
</g>
</g>
</svg>
