<?xml version="1.0" encoding="UTF-8" standalone="no"?>
<!DOCTYPE svg PUBLIC "-//W3C//DTD SVG 1.1//EN"
 "http://www.w3.org/Graphics/SVG/1.1/DTD/svg11.dtd">
<!-- Generated by graphviz version 2.36.0 (20140111.2315)
 -->
<!-- Title: f_close Pages: 1 -->
<svg width="896pt" height="369pt"
 viewBox="0.00 0.00 896.00 368.83" xmlns="http://www.w3.org/2000/svg" xmlns:xlink="http://www.w3.org/1999/xlink">
<g id="graph0" class="graph" transform="scale(1 1) rotate(0) translate(4 364.825)">
<title>f_close</title>
<polygon fill="white" stroke="none" points="-4,4 -4,-364.825 892,-364.825 892,4 -4,4"/>
<!-- Node1 -->
<g id="node1" class="node"><title>Node1</title>
<polygon fill="#bfbfbf" stroke="black" points="0,-256.5 0,-275.5 48,-275.5 48,-256.5 0,-256.5"/>
<text text-anchor="middle" x="24" y="-263.5" font-family="Helvetica,sans-Serif" font-size="10.00">f_close</text>
</g>
<!-- Node2 -->
<g id="node2" class="node"><title>Node2</title>
<g id="a_node2"><a xlink:href="ff_8c.html#ad69c7246b122ba56a134939ee0eaf847" target="_top" xlink:title="f_sync">
<polygon fill="white" stroke="black" points="84,-228.5 84,-247.5 130,-247.5 130,-228.5 84,-228.5"/>
<text text-anchor="middle" x="107" y="-235.5" font-family="Helvetica,sans-Serif" font-size="10.00">f_sync</text>
</a>
</g>
</g>
<!-- Node1&#45;&gt;Node2 -->
<g id="edge1" class="edge"><title>Node1&#45;&gt;Node2</title>
<path fill="none" stroke="midnightblue" d="M48.4286,-257.901C56.4212,-255.138 65.4996,-252 74.046,-249.046"/>
<polygon fill="midnightblue" stroke="midnightblue" points="75.4297,-252.271 83.7375,-245.696 73.1427,-245.655 75.4297,-252.271"/>
</g>
<!-- Node3 -->
<g id="node3" class="node"><title>Node3</title>
<g id="a_node3"><a xlink:href="ff_8c.html#aa7193f5b86c3996b5312043a0c26da5f" target="_top" xlink:title="validate">
<polygon fill="white" stroke="black" points="181,-304.5 181,-323.5 231,-323.5 231,-304.5 181,-304.5"/>
<text text-anchor="middle" x="206" y="-311.5" font-family="Helvetica,sans-Serif" font-size="10.00">validate</text>
</a>
</g>
</g>
<!-- Node1&#45;&gt;Node3 -->
<g id="edge44" class="edge"><title>Node1&#45;&gt;Node3</title>
<path fill="none" stroke="midnightblue" d="M48.1634,-272.177C79.2748,-280.473 134.797,-295.279 170.746,-304.866"/>
<polygon fill="midnightblue" stroke="midnightblue" points="170.213,-308.346 180.777,-307.541 172.016,-301.582 170.213,-308.346"/>
</g>
<!-- Node2&#45;&gt;Node3 -->
<g id="edge2" class="edge"><title>Node2&#45;&gt;Node3</title>
<path fill="none" stroke="midnightblue" d="M117.795,-247.782C128.964,-258.693 148.01,-276.57 166,-290 170.085,-293.05 174.571,-296.078 179,-298.903"/>
<polygon fill="midnightblue" stroke="midnightblue" points="177.515,-302.099 187.866,-304.361 181.185,-296.138 177.515,-302.099"/>
</g>
<!-- Node5 -->
<g id="node5" class="node"><title>Node5</title>
<g id="a_node5"><a xlink:href="diskio_8h.html#ac4785625f4bb82e33562079813659880" target="_top" xlink:title="disk_write">
<polygon fill="white" stroke="black" points="394.5,-190.5 394.5,-209.5 455.5,-209.5 455.5,-190.5 394.5,-190.5"/>
<text text-anchor="middle" x="425" y="-197.5" font-family="Helvetica,sans-Serif" font-size="10.00">disk_write</text>
</a>
</g>
</g>
<!-- Node2&#45;&gt;Node5 -->
<g id="edge4" class="edge"><title>Node2&#45;&gt;Node5</title>
<path fill="none" stroke="midnightblue" d="M130.176,-247.094C140.816,-250.98 153.862,-255.063 166,-257 250.267,-270.451 278.023,-286.755 358,-257 379.152,-249.131 398.048,-231.1 410.144,-217.409"/>
<polygon fill="midnightblue" stroke="midnightblue" points="412.981,-219.475 416.756,-209.576 407.632,-214.96 412.981,-219.475"/>
</g>
<!-- Node15 -->
<g id="node15" class="node"><title>Node15</title>
<g id="a_node15"><a xlink:href="ff_8c.html#af2e8986556ee6644b4bf31fa4158d735" target="_top" xlink:title="move_window">
<polygon fill="white" stroke="black" points="166.5,-114.5 166.5,-133.5 245.5,-133.5 245.5,-114.5 166.5,-114.5"/>
<text text-anchor="middle" x="206" y="-121.5" font-family="Helvetica,sans-Serif" font-size="10.00">move_window</text>
</a>
</g>
</g>
<!-- Node2&#45;&gt;Node15 -->
<g id="edge22" class="edge"><title>Node2&#45;&gt;Node15</title>
<path fill="none" stroke="midnightblue" d="M111.678,-228.421C119.258,-209.774 138.266,-168.223 166,-143 167.504,-141.632 169.125,-140.341 170.821,-139.126"/>
<polygon fill="midnightblue" stroke="midnightblue" points="173.026,-141.881 179.737,-133.682 169.378,-135.906 173.026,-141.881"/>
</g>
<!-- Node19 -->
<g id="node19" class="node"><title>Node19</title>
<g id="a_node19"><a xlink:href="ff_8c.html#a357e5a36452e057d68378c98cd61018c" target="_top" xlink:title="st_clust">
<polygon fill="white" stroke="black" points="180.5,-228.5 180.5,-247.5 231.5,-247.5 231.5,-228.5 180.5,-228.5"/>
<text text-anchor="middle" x="206" y="-235.5" font-family="Helvetica,sans-Serif" font-size="10.00">st_clust</text>
</a>
</g>
</g>
<!-- Node2&#45;&gt;Node19 -->
<g id="edge32" class="edge"><title>Node2&#45;&gt;Node19</title>
<path fill="none" stroke="midnightblue" d="M130.011,-238C141.831,-238 156.68,-238 170.039,-238"/>
<polygon fill="midnightblue" stroke="midnightblue" points="170.346,-241.5 180.346,-238 170.346,-234.5 170.346,-241.5"/>
</g>
<!-- Node20 -->
<g id="node20" class="node"><title>Node20</title>
<g id="a_node20"><a xlink:href="ff_8h.html#af58b536abfd30f77213f4ecaf2ac52f5" target="_top" xlink:title="User Provided RTC Function called by FatFs module Used to provide a Timestamp for SDCard files and fo...">
<polygon fill="white" stroke="black" points="173.5,-190.5 173.5,-209.5 238.5,-209.5 238.5,-190.5 173.5,-190.5"/>
<text text-anchor="middle" x="206" y="-197.5" font-family="Helvetica,sans-Serif" font-size="10.00">get_fattime</text>
</a>
</g>
</g>
<!-- Node2&#45;&gt;Node20 -->
<g id="edge33" class="edge"><title>Node2&#45;&gt;Node20</title>
<path fill="none" stroke="midnightblue" d="M130.011,-229.377C142.155,-224.62 157.496,-218.61 171.134,-213.267"/>
<polygon fill="midnightblue" stroke="midnightblue" points="172.659,-216.429 180.693,-209.522 170.105,-209.911 172.659,-216.429"/>
</g>
<!-- Node21 -->
<g id="node21" class="node"><title>Node21</title>
<g id="a_node21"><a xlink:href="ff_8c.html#aec6b108298553219ebb2b960b528459d" target="_top" xlink:title="sync_fs">
<polygon fill="white" stroke="black" points="180.5,-152.5 180.5,-171.5 231.5,-171.5 231.5,-152.5 180.5,-152.5"/>
<text text-anchor="middle" x="206" y="-159.5" font-family="Helvetica,sans-Serif" font-size="10.00">sync_fs</text>
</a>
</g>
</g>
<!-- Node2&#45;&gt;Node21 -->
<g id="edge34" class="edge"><title>Node2&#45;&gt;Node21</title>
<path fill="none" stroke="midnightblue" d="M116.23,-228.142C126.802,-215.925 146.166,-195.011 166,-181 168.23,-179.425 170.61,-177.915 173.054,-176.483"/>
<polygon fill="midnightblue" stroke="midnightblue" points="174.871,-179.48 182.024,-171.664 171.558,-173.313 174.871,-179.48"/>
</g>
<!-- Node4 -->
<g id="node4" class="node"><title>Node4</title>
<g id="a_node4"><a xlink:href="diskio_8h.html#a8348ac5ee6d709420c02e45c111f4793" target="_top" xlink:title="disk_status">
<polygon fill="white" stroke="black" points="286.5,-304.5 286.5,-323.5 353.5,-323.5 353.5,-304.5 286.5,-304.5"/>
<text text-anchor="middle" x="320" y="-311.5" font-family="Helvetica,sans-Serif" font-size="10.00">disk_status</text>
</a>
</g>
</g>
<!-- Node3&#45;&gt;Node4 -->
<g id="edge3" class="edge"><title>Node3&#45;&gt;Node4</title>
<path fill="none" stroke="midnightblue" d="M231.027,-314C244.083,-314 260.626,-314 275.834,-314"/>
<polygon fill="midnightblue" stroke="midnightblue" points="276.091,-317.5 286.091,-314 276.091,-310.5 276.091,-317.5"/>
</g>
<!-- Node6 -->
<g id="node6" class="node"><title>Node6</title>
<g id="a_node6"><a xlink:href="sdmm_8c.html#ac0eadae94de728461ccade9e03fafd8c" target="_top" xlink:title="deselect">
<polygon fill="white" stroke="black" points="733.5,-152.5 733.5,-171.5 786.5,-171.5 786.5,-152.5 733.5,-152.5"/>
<text text-anchor="middle" x="760" y="-159.5" font-family="Helvetica,sans-Serif" font-size="10.00">deselect</text>
</a>
</g>
</g>
<!-- Node5&#45;&gt;Node6 -->
<g id="edge5" class="edge"><title>Node5&#45;&gt;Node6</title>
<path fill="none" stroke="midnightblue" d="M455.552,-196.628C516.744,-189.645 657.119,-173.626 723.271,-166.077"/>
<polygon fill="midnightblue" stroke="midnightblue" points="723.688,-169.552 733.227,-164.941 722.895,-162.598 723.688,-169.552"/>
</g>
<!-- Node8 -->
<g id="node8" class="node"><title>Node8</title>
<g id="a_node8"><a xlink:href="sdmm_8c.html#a21ad8e9a107ea2000705a3edfebaaa2d" target="_top" xlink:title="disk_status">
<polygon fill="white" stroke="black" points="500.5,-152.5 500.5,-171.5 567.5,-171.5 567.5,-152.5 500.5,-152.5"/>
<text text-anchor="middle" x="534" y="-159.5" font-family="Helvetica,sans-Serif" font-size="10.00">disk_status</text>
</a>
</g>
</g>
<!-- Node5&#45;&gt;Node8 -->
<g id="edge7" class="edge"><title>Node5&#45;&gt;Node8</title>
<path fill="none" stroke="midnightblue" d="M453.001,-190.411C466.18,-185.731 482.229,-180.031 496.484,-174.968"/>
<polygon fill="midnightblue" stroke="midnightblue" points="497.756,-178.231 506.008,-171.586 495.413,-171.634 497.756,-178.231"/>
</g>
<!-- Node9 -->
<g id="node9" class="node"><title>Node9</title>
<g id="a_node9"><a xlink:href="sdmm_8c.html#a99684b493c8bfdb0288a2e24e52f6871" target="_top" xlink:title="send_cmd">
<polygon fill="white" stroke="black" points="503,-266.5 503,-285.5 565,-285.5 565,-266.5 503,-266.5"/>
<text text-anchor="middle" x="534" y="-273.5" font-family="Helvetica,sans-Serif" font-size="10.00">send_cmd</text>
</a>
</g>
</g>
<!-- Node5&#45;&gt;Node9 -->
<g id="edge8" class="edge"><title>Node5&#45;&gt;Node9</title>
<path fill="none" stroke="midnightblue" d="M437.318,-209.704C450.182,-220.544 471.993,-238.358 492,-252 496.685,-255.194 501.811,-258.404 506.802,-261.39"/>
<polygon fill="midnightblue" stroke="midnightblue" points="505.117,-264.459 515.519,-266.473 508.643,-258.412 505.117,-264.459"/>
</g>
<!-- Node14 -->
<g id="node14" class="node"><title>Node14</title>
<g id="a_node14"><a xlink:href="sdmm_8c.html#aefbd30f6bdff37184f58faf98ad1c6e0" target="_top" xlink:title="xmit_datablock">
<polygon fill="white" stroke="black" points="492.5,-323.5 492.5,-342.5 575.5,-342.5 575.5,-323.5 492.5,-323.5"/>
<text text-anchor="middle" x="534" y="-330.5" font-family="Helvetica,sans-Serif" font-size="10.00">xmit_datablock</text>
</a>
</g>
</g>
<!-- Node5&#45;&gt;Node14 -->
<g id="edge18" class="edge"><title>Node5&#45;&gt;Node14</title>
<path fill="none" stroke="midnightblue" d="M431.739,-209.663C442.486,-227.413 466.844,-266.043 492,-295 498.496,-302.478 506.329,-310.033 513.401,-316.415"/>
<polygon fill="midnightblue" stroke="midnightblue" points="511.405,-319.321 521.227,-323.294 516.026,-314.063 511.405,-319.321"/>
</g>
<!-- Node7 -->
<g id="node7" class="node"><title>Node7</title>
<g id="a_node7"><a xlink:href="sdmm_8c.html#ab628371b03508f9db7c6daf1203ed84d" target="_top" xlink:title="rcvr_mmc">
<polygon fill="white" stroke="black" points="828,-209.5 828,-228.5 888,-228.5 888,-209.5 828,-209.5"/>
<text text-anchor="middle" x="858" y="-216.5" font-family="Helvetica,sans-Serif" font-size="10.00">rcvr_mmc</text>
</a>
</g>
</g>
<!-- Node6&#45;&gt;Node7 -->
<g id="edge6" class="edge"><title>Node6&#45;&gt;Node7</title>
<path fill="none" stroke="midnightblue" d="M777.285,-171.669C792.27,-180.567 814.72,-193.896 831.98,-204.145"/>
<polygon fill="midnightblue" stroke="midnightblue" points="830.57,-207.378 840.955,-209.474 834.144,-201.359 830.57,-207.378"/>
</g>
<!-- Node9&#45;&gt;Node6 -->
<g id="edge9" class="edge"><title>Node9&#45;&gt;Node6</title>
<path fill="none" stroke="midnightblue" d="M546.337,-266.075C560.798,-253.79 586.944,-232.805 612,-219 648.294,-199.004 693.069,-182.724 723.602,-172.759"/>
<polygon fill="midnightblue" stroke="midnightblue" points="724.924,-176.01 733.378,-169.625 722.787,-169.344 724.924,-176.01"/>
</g>
<!-- Node9&#45;&gt;Node7 -->
<g id="edge17" class="edge"><title>Node9&#45;&gt;Node7</title>
<path fill="none" stroke="midnightblue" d="M565.101,-278.096C613.945,-280.552 712.963,-281.572 792,-257 807.716,-252.114 823.696,-242.842 835.878,-234.681"/>
<polygon fill="midnightblue" stroke="midnightblue" points="838.187,-237.338 844.387,-228.747 834.183,-231.596 838.187,-237.338"/>
</g>
<!-- Node10 -->
<g id="node10" class="node"><title>Node10</title>
<g id="a_node10"><a xlink:href="sdmm_8c.html#ab45cb1d47cda5822ce492ad3c11867ae" target="_top" xlink:title="select">
<polygon fill="white" stroke="black" points="630.5,-228.5 630.5,-247.5 673.5,-247.5 673.5,-228.5 630.5,-228.5"/>
<text text-anchor="middle" x="652" y="-235.5" font-family="Helvetica,sans-Serif" font-size="10.00">select</text>
</a>
</g>
</g>
<!-- Node9&#45;&gt;Node10 -->
<g id="edge10" class="edge"><title>Node9&#45;&gt;Node10</title>
<path fill="none" stroke="midnightblue" d="M564.272,-266.411C581.44,-260.787 603.101,-253.691 620.481,-247.998"/>
<polygon fill="midnightblue" stroke="midnightblue" points="621.739,-251.269 630.153,-244.829 619.56,-244.616 621.739,-251.269"/>
</g>
<!-- Node13 -->
<g id="node13" class="node"><title>Node13</title>
<g id="a_node13"><a xlink:href="sdmm_8c.html#ace0af708caf7775204ca74fbd46818bb" target="_top" xlink:title="xmit_mmc">
<polygon fill="white" stroke="black" points="621,-304.5 621,-323.5 683,-323.5 683,-304.5 621,-304.5"/>
<text text-anchor="middle" x="652" y="-311.5" font-family="Helvetica,sans-Serif" font-size="10.00">xmit_mmc</text>
</a>
</g>
</g>
<!-- Node9&#45;&gt;Node13 -->
<g id="edge16" class="edge"><title>Node9&#45;&gt;Node13</title>
<path fill="none" stroke="midnightblue" d="M564.272,-285.589C578.697,-290.314 596.293,-296.079 611.857,-301.177"/>
<polygon fill="midnightblue" stroke="midnightblue" points="611.145,-304.627 621.738,-304.414 613.324,-297.975 611.145,-304.627"/>
</g>
<!-- Node10&#45;&gt;Node6 -->
<g id="edge15" class="edge"><title>Node10&#45;&gt;Node6</title>
<path fill="none" stroke="midnightblue" d="M669.574,-228.348C676.603,-224.116 684.814,-218.984 692,-214 708.656,-202.449 711.986,-198.427 728,-186 731.448,-183.324 735.114,-180.483 738.672,-177.727"/>
<polygon fill="midnightblue" stroke="midnightblue" points="740.861,-180.459 746.625,-171.57 736.576,-174.924 740.861,-180.459"/>
</g>
<!-- Node10&#45;&gt;Node7 -->
<g id="edge11" class="edge"><title>Node10&#45;&gt;Node7</title>
<path fill="none" stroke="midnightblue" d="M673.748,-231.265C688.658,-226.791 709.339,-221.327 728,-219 757.982,-215.261 792.191,-215.463 817.843,-216.491"/>
<polygon fill="midnightblue" stroke="midnightblue" points="817.776,-219.991 827.926,-216.954 818.097,-212.998 817.776,-219.991"/>
</g>
<!-- Node11 -->
<g id="node11" class="node"><title>Node11</title>
<g id="a_node11"><a xlink:href="sdmm_8c.html#a624a19e248af05530dae5c0cc1dddc11" target="_top" xlink:title="wait_ready">
<polygon fill="white" stroke="black" points="728,-228.5 728,-247.5 792,-247.5 792,-228.5 728,-228.5"/>
<text text-anchor="middle" x="760" y="-235.5" font-family="Helvetica,sans-Serif" font-size="10.00">wait_ready</text>
</a>
</g>
</g>
<!-- Node10&#45;&gt;Node11 -->
<g id="edge12" class="edge"><title>Node10&#45;&gt;Node11</title>
<path fill="none" stroke="midnightblue" d="M673.69,-238C686.221,-238 702.651,-238 717.743,-238"/>
<polygon fill="midnightblue" stroke="midnightblue" points="717.913,-241.5 727.913,-238 717.913,-234.5 717.913,-241.5"/>
</g>
<!-- Node11&#45;&gt;Node7 -->
<g id="edge13" class="edge"><title>Node11&#45;&gt;Node7</title>
<path fill="none" stroke="midnightblue" d="M792.168,-231.831C800.432,-230.196 809.458,-228.409 818.078,-226.703"/>
<polygon fill="midnightblue" stroke="midnightblue" points="818.811,-230.126 827.941,-224.751 817.452,-223.259 818.811,-230.126"/>
</g>
<!-- Node12 -->
<g id="node12" class="node"><title>Node12</title>
<g id="a_node12"><a xlink:href="sdmm_8c.html#a76a43e01b9676630e121e5a659acbb3f" target="_top" xlink:title="dly_us">
<polygon fill="white" stroke="black" points="835.5,-57.5 835.5,-76.5 880.5,-76.5 880.5,-57.5 835.5,-57.5"/>
<text text-anchor="middle" x="858" y="-64.5" font-family="Helvetica,sans-Serif" font-size="10.00">dly_us</text>
</a>
</g>
</g>
<!-- Node11&#45;&gt;Node12 -->
<g id="edge14" class="edge"><title>Node11&#45;&gt;Node12</title>
<path fill="none" stroke="midnightblue" d="M766.436,-228.316C781.881,-200.805 826.216,-121.834 846.564,-85.5891"/>
<polygon fill="midnightblue" stroke="midnightblue" points="849.78,-87.0107 851.623,-76.5774 843.676,-83.5839 849.78,-87.0107"/>
</g>
<!-- Node14&#45;&gt;Node7 -->
<g id="edge21" class="edge"><title>Node14&#45;&gt;Node7</title>
<path fill="none" stroke="midnightblue" d="M558.51,-342.591C589.774,-353.909 646.394,-369.364 692,-354 758.687,-331.535 817.329,-267.977 843.093,-236.754"/>
<polygon fill="midnightblue" stroke="midnightblue" points="845.904,-238.844 849.468,-228.866 840.46,-234.444 845.904,-238.844"/>
</g>
<!-- Node14&#45;&gt;Node11 -->
<g id="edge19" class="edge"><title>Node14&#45;&gt;Node11</title>
<path fill="none" stroke="midnightblue" d="M573.798,-342.501C607.085,-348.516 655.339,-352.006 692,-333 722.765,-317.051 742.402,-279.76 751.998,-256.93"/>
<polygon fill="midnightblue" stroke="midnightblue" points="755.27,-258.173 755.704,-247.587 748.763,-255.592 755.27,-258.173"/>
</g>
<!-- Node14&#45;&gt;Node13 -->
<g id="edge20" class="edge"><title>Node14&#45;&gt;Node13</title>
<path fill="none" stroke="midnightblue" d="M575.571,-326.355C586.976,-324.487 599.372,-322.456 610.758,-320.591"/>
<polygon fill="midnightblue" stroke="midnightblue" points="611.57,-324.005 620.872,-318.935 610.438,-317.097 611.57,-324.005"/>
</g>
<!-- Node16 -->
<g id="node16" class="node"><title>Node16</title>
<g id="a_node16"><a xlink:href="ff_8c.html#a5e18753404354b210096f9af99e31bc1" target="_top" xlink:title="sync_window">
<polygon fill="white" stroke="black" points="282,-114.5 282,-133.5 358,-133.5 358,-114.5 282,-114.5"/>
<text text-anchor="middle" x="320" y="-121.5" font-family="Helvetica,sans-Serif" font-size="10.00">sync_window</text>
</a>
</g>
</g>
<!-- Node15&#45;&gt;Node16 -->
<g id="edge23" class="edge"><title>Node15&#45;&gt;Node16</title>
<path fill="none" stroke="midnightblue" d="M245.544,-124C254.003,-124 263.053,-124 271.808,-124"/>
<polygon fill="midnightblue" stroke="midnightblue" points="271.898,-127.5 281.898,-124 271.898,-120.5 271.898,-127.5"/>
</g>
<!-- Node17 -->
<g id="node17" class="node"><title>Node17</title>
<g id="a_node17"><a xlink:href="diskio_8h.html#ac0c802f8a12fa2047b4bec7109b9293f" target="_top" xlink:title="disk_read">
<polygon fill="white" stroke="black" points="395.5,-76.5 395.5,-95.5 454.5,-95.5 454.5,-76.5 395.5,-76.5"/>
<text text-anchor="middle" x="425" y="-83.5" font-family="Helvetica,sans-Serif" font-size="10.00">disk_read</text>
</a>
</g>
</g>
<!-- Node15&#45;&gt;Node17 -->
<g id="edge25" class="edge"><title>Node15&#45;&gt;Node17</title>
<path fill="none" stroke="midnightblue" d="M241.164,-114.463C253.908,-111.139 268.547,-107.595 282,-105 316.693,-98.3076 356.608,-93.1921 385.266,-89.9641"/>
<polygon fill="midnightblue" stroke="midnightblue" points="385.728,-93.4344 395.285,-88.8608 384.962,-86.4765 385.728,-93.4344"/>
</g>
<!-- Node16&#45;&gt;Node5 -->
<g id="edge24" class="edge"><title>Node16&#45;&gt;Node5</title>
<path fill="none" stroke="midnightblue" d="M332.614,-133.646C346.795,-145.287 371.654,-165.257 394,-181 395.843,-182.298 397.771,-183.613 399.723,-184.914"/>
<polygon fill="midnightblue" stroke="midnightblue" points="397.941,-187.93 408.238,-190.425 401.745,-182.053 397.941,-187.93"/>
</g>
<!-- Node17&#45;&gt;Node6 -->
<g id="edge26" class="edge"><title>Node17&#45;&gt;Node6</title>
<path fill="none" stroke="midnightblue" d="M454.782,-89.3734C504.058,-95.5743 607.448,-110.446 692,-135 704.296,-138.571 717.44,-143.587 728.801,-148.329"/>
<polygon fill="midnightblue" stroke="midnightblue" points="727.689,-151.66 738.259,-152.382 730.446,-145.226 727.689,-151.66"/>
</g>
<!-- Node17&#45;&gt;Node8 -->
<g id="edge27" class="edge"><title>Node17&#45;&gt;Node8</title>
<path fill="none" stroke="midnightblue" d="M439.552,-95.6255C457.641,-108.474 489.888,-131.378 511.361,-146.63"/>
<polygon fill="midnightblue" stroke="midnightblue" points="509.379,-149.515 519.558,-152.453 513.432,-143.808 509.379,-149.515"/>
</g>
<!-- Node17&#45;&gt;Node9 -->
<g id="edge31" class="edge"><title>Node17&#45;&gt;Node9</title>
<path fill="none" stroke="midnightblue" d="M431.453,-95.6833C448.335,-125.66 499.947,-217.307 522.391,-257.161"/>
<polygon fill="midnightblue" stroke="midnightblue" points="519.473,-259.112 527.429,-266.108 525.572,-255.678 519.473,-259.112"/>
</g>
<!-- Node18 -->
<g id="node18" class="node"><title>Node18</title>
<g id="a_node18"><a xlink:href="sdmm_8c.html#a8c99afbc312912297b19752cf7e0960b" target="_top" xlink:title="rcvr_datablock">
<polygon fill="white" stroke="black" points="612,-0.5 612,-19.5 692,-19.5 692,-0.5 612,-0.5"/>
<text text-anchor="middle" x="652" y="-7.5" font-family="Helvetica,sans-Serif" font-size="10.00">rcvr_datablock</text>
</a>
</g>
</g>
<!-- Node17&#45;&gt;Node18 -->
<g id="edge28" class="edge"><title>Node17&#45;&gt;Node18</title>
<path fill="none" stroke="midnightblue" d="M435.217,-76.0979C447.096,-64.0152 468.975,-43.9681 492,-34 526.791,-18.9381 569.415,-13.1024 601.77,-10.9429"/>
<polygon fill="midnightblue" stroke="midnightblue" points="602.107,-14.4294 611.891,-10.3639 601.707,-7.44086 602.107,-14.4294"/>
</g>
<!-- Node18&#45;&gt;Node7 -->
<g id="edge29" class="edge"><title>Node18&#45;&gt;Node7</title>
<path fill="none" stroke="midnightblue" d="M670.784,-19.538C677.697,-23.5987 685.501,-28.6355 692,-34 756.287,-87.0635 817.749,-165.735 843.859,-200.887"/>
<polygon fill="midnightblue" stroke="midnightblue" points="841.244,-203.238 849.989,-209.219 846.882,-199.09 841.244,-203.238"/>
</g>
<!-- Node18&#45;&gt;Node12 -->
<g id="edge30" class="edge"><title>Node18&#45;&gt;Node12</title>
<path fill="none" stroke="midnightblue" d="M687.145,-19.5405C725.713,-30.3169 787.97,-47.7121 825.439,-58.1816"/>
<polygon fill="midnightblue" stroke="midnightblue" points="824.737,-61.6194 835.31,-60.9396 826.621,-54.8776 824.737,-61.6194"/>
</g>
<!-- Node21&#45;&gt;Node5 -->
<g id="edge37" class="edge"><title>Node21&#45;&gt;Node5</title>
<path fill="none" stroke="midnightblue" d="M231.64,-166.709C246.264,-169.477 265.177,-173.008 282,-176 316.53,-182.14 355.853,-188.757 384.35,-193.485"/>
<polygon fill="midnightblue" stroke="midnightblue" points="383.892,-196.957 394.33,-195.137 385.035,-190.051 383.892,-196.957"/>
</g>
<!-- Node21&#45;&gt;Node16 -->
<g id="edge35" class="edge"><title>Node21&#45;&gt;Node16</title>
<path fill="none" stroke="midnightblue" d="M231.579,-153.661C246.083,-148.74 264.746,-142.408 281.1,-136.859"/>
<polygon fill="midnightblue" stroke="midnightblue" points="282.582,-140.052 290.927,-133.525 280.333,-133.423 282.582,-140.052"/>
</g>
<!-- Node22 -->
<g id="node22" class="node"><title>Node22</title>
<g id="a_node22"><a xlink:href="ff_8c.html#a02eb5189e43056a9ddc8a59cbe89be93" target="_top" xlink:title="mem_set">
<polygon fill="white" stroke="black" points="291.5,-228.5 291.5,-247.5 348.5,-247.5 348.5,-228.5 291.5,-228.5"/>
<text text-anchor="middle" x="320" y="-235.5" font-family="Helvetica,sans-Serif" font-size="10.00">mem_set</text>
</a>
</g>
</g>
<!-- Node21&#45;&gt;Node22 -->
<g id="edge36" class="edge"><title>Node21&#45;&gt;Node22</title>
<path fill="none" stroke="midnightblue" d="M229.483,-171.584C235.058,-174.327 240.895,-177.525 246,-181 263.943,-193.213 264.836,-200.715 282,-214 285.883,-217.005 290.142,-220.011 294.345,-222.828"/>
<polygon fill="midnightblue" stroke="midnightblue" points="292.462,-225.778 302.756,-228.285 296.272,-219.906 292.462,-225.778"/>
</g>
<!-- Node23 -->
<g id="node23" class="node"><title>Node23</title>
<g id="a_node23"><a xlink:href="diskio_8h.html#ab00fa450a811dbdabe3c655c1a36fab4" target="_top" xlink:title="disk_ioctl">
<polygon fill="white" stroke="black" points="396,-152.5 396,-171.5 454,-171.5 454,-152.5 396,-152.5"/>
<text text-anchor="middle" x="425" y="-159.5" font-family="Helvetica,sans-Serif" font-size="10.00">disk_ioctl</text>
</a>
</g>
</g>
<!-- Node21&#45;&gt;Node23 -->
<g id="edge38" class="edge"><title>Node21&#45;&gt;Node23</title>
<path fill="none" stroke="midnightblue" d="M231.893,-162C269.614,-162 341.544,-162 385.885,-162"/>
<polygon fill="midnightblue" stroke="midnightblue" points="385.985,-165.5 395.985,-162 385.985,-158.5 385.985,-165.5"/>
</g>
<!-- Node23&#45;&gt;Node6 -->
<g id="edge39" class="edge"><title>Node23&#45;&gt;Node6</title>
<path fill="none" stroke="midnightblue" d="M452.603,-152.499C464.491,-148.735 478.776,-144.866 492,-143 580.045,-130.579 603.772,-136.955 692,-148 702.239,-149.282 713.241,-151.305 723.31,-153.419"/>
<polygon fill="midnightblue" stroke="midnightblue" points="722.876,-156.907 733.394,-155.627 724.374,-150.069 722.876,-156.907"/>
</g>
<!-- Node23&#45;&gt;Node8 -->
<g id="edge40" class="edge"><title>Node23&#45;&gt;Node8</title>
<path fill="none" stroke="midnightblue" d="M454.113,-162C465.032,-162 477.787,-162 489.819,-162"/>
<polygon fill="midnightblue" stroke="midnightblue" points="490.142,-165.5 500.142,-162 490.142,-158.5 490.142,-165.5"/>
</g>
<!-- Node23&#45;&gt;Node9 -->
<g id="edge43" class="edge"><title>Node23&#45;&gt;Node9</title>
<path fill="none" stroke="midnightblue" d="M444.651,-171.622C448.717,-174.288 452.766,-177.442 456,-181 479.797,-207.181 467.748,-226.239 492,-252 495.138,-255.333 498.842,-258.349 502.72,-261.028"/>
<polygon fill="midnightblue" stroke="midnightblue" points="500.986,-264.071 511.333,-266.35 504.665,-258.116 500.986,-264.071"/>
</g>
<!-- Node23&#45;&gt;Node10 -->
<g id="edge42" class="edge"><title>Node23&#45;&gt;Node10</title>
<path fill="none" stroke="midnightblue" d="M454.041,-171.472C496.555,-185.832 576.991,-213.001 620.767,-227.788"/>
<polygon fill="midnightblue" stroke="midnightblue" points="619.7,-231.122 630.295,-231.006 621.941,-224.49 619.7,-231.122"/>
</g>
<!-- Node23&#45;&gt;Node18 -->
<g id="edge41" class="edge"><title>Node23&#45;&gt;Node18</title>
<path fill="none" stroke="midnightblue" d="M437.4,-152.414C450.336,-141.679 472.213,-123.959 492,-110 537.838,-77.6646 593.865,-43.6329 625.692,-24.7847"/>
<polygon fill="midnightblue" stroke="midnightblue" points="627.541,-27.7578 634.377,-19.6631 623.985,-21.7282 627.541,-27.7578"/>
</g>
</g>
</svg>
