<?xml version="1.0" encoding="UTF-8" standalone="no"?>
<!DOCTYPE svg PUBLIC "-//W3C//DTD SVG 1.1//EN"
 "http://www.w3.org/Graphics/SVG/1.1/DTD/svg11.dtd">
<!-- Generated by graphviz version 2.36.0 (20140111.2315)
 -->
<!-- Title: dir_read Pages: 1 -->
<svg width="1096pt" height="339pt"
 viewBox="0.00 0.00 1096.00 338.74" xmlns="http://www.w3.org/2000/svg" xmlns:xlink="http://www.w3.org/1999/xlink">
<g id="graph0" class="graph" transform="scale(1 1) rotate(0) translate(4 334.742)">
<title>dir_read</title>
<polygon fill="white" stroke="none" points="-4,4 -4,-334.742 1092,-334.742 1092,4 -4,4"/>
<!-- Node1 -->
<g id="node1" class="node"><title>Node1</title>
<polygon fill="#bfbfbf" stroke="black" points="0.5,-133.5 0.5,-152.5 51.5,-152.5 51.5,-133.5 0.5,-133.5"/>
<text text-anchor="middle" x="26" y="-140.5" font-family="Helvetica,sans-Serif" font-size="10.00">dir_read</text>
</g>
<!-- Node2 -->
<g id="node2" class="node"><title>Node2</title>
<g id="a_node2"><a xlink:href="ff_8c.html#aa70eb326eb0c3702ae16adf0b4dce1cc" target="_top" xlink:title="dir_next">
<polygon fill="white" stroke="black" points="88.5,-95.5 88.5,-114.5 139.5,-114.5 139.5,-95.5 88.5,-95.5"/>
<text text-anchor="middle" x="114" y="-102.5" font-family="Helvetica,sans-Serif" font-size="10.00">dir_next</text>
</a>
</g>
</g>
<!-- Node1&#45;&gt;Node2 -->
<g id="edge1" class="edge"><title>Node1&#45;&gt;Node2</title>
<path fill="none" stroke="midnightblue" d="M48.7014,-133.411C58.7847,-128.956 70.9584,-123.577 81.9883,-118.703"/>
<polygon fill="midnightblue" stroke="midnightblue" points="83.5732,-121.829 91.3055,-114.586 80.744,-115.426 83.5732,-121.829"/>
</g>
<!-- Node6 -->
<g id="node6" class="node"><title>Node6</title>
<g id="a_node6"><a xlink:href="ff_8c.html#af2e8986556ee6644b4bf31fa4158d735" target="_top" xlink:title="move_window">
<polygon fill="white" stroke="black" points="368.5,-119.5 368.5,-138.5 447.5,-138.5 447.5,-119.5 368.5,-119.5"/>
<text text-anchor="middle" x="408" y="-126.5" font-family="Helvetica,sans-Serif" font-size="10.00">move_window</text>
</a>
</g>
</g>
<!-- Node1&#45;&gt;Node6 -->
<g id="edge37" class="edge"><title>Node1&#45;&gt;Node6</title>
<path fill="none" stroke="midnightblue" d="M51.5822,-144.532C103.508,-147.43 228.13,-152.612 332,-143 340.532,-142.211 349.541,-140.926 358.241,-139.447"/>
<polygon fill="midnightblue" stroke="midnightblue" points="359.045,-142.859 368.265,-137.64 357.803,-135.97 359.045,-142.859"/>
</g>
<!-- Node3 -->
<g id="node3" class="node"><title>Node3</title>
<g id="a_node3"><a xlink:href="ff_8c.html#a7519abb60fe91f6aa1d17f64fbae123a" target="_top" xlink:title="clust2sect">
<polygon fill="white" stroke="black" points="181,-0.5 181,-19.5 243,-19.5 243,-0.5 181,-0.5"/>
<text text-anchor="middle" x="212" y="-7.5" font-family="Helvetica,sans-Serif" font-size="10.00">clust2sect</text>
</a>
</g>
</g>
<!-- Node2&#45;&gt;Node3 -->
<g id="edge2" class="edge"><title>Node2&#45;&gt;Node3</title>
<path fill="none" stroke="midnightblue" d="M121.092,-95.0823C131.048,-79.4876 152.108,-48.9571 176,-29 177.725,-27.5595 179.575,-26.1785 181.493,-24.8651"/>
<polygon fill="midnightblue" stroke="midnightblue" points="183.441,-27.7759 190.137,-19.5653 179.782,-21.8082 183.441,-27.7759"/>
</g>
<!-- Node4 -->
<g id="node4" class="node"><title>Node4</title>
<g id="a_node4"><a xlink:href="ff_8c.html#acbd0a20a17c6f9b6d536490d1cc3c5ac" target="_top" xlink:title="create_chain">
<polygon fill="white" stroke="black" points="176,-76.5 176,-95.5 248,-95.5 248,-76.5 176,-76.5"/>
<text text-anchor="middle" x="212" y="-83.5" font-family="Helvetica,sans-Serif" font-size="10.00">create_chain</text>
</a>
</g>
</g>
<!-- Node2&#45;&gt;Node4 -->
<g id="edge3" class="edge"><title>Node2&#45;&gt;Node4</title>
<path fill="none" stroke="midnightblue" d="M139.722,-100.107C147.714,-98.5253 156.843,-96.7187 165.837,-94.9384"/>
<polygon fill="midnightblue" stroke="midnightblue" points="166.738,-98.3281 175.868,-92.9531 165.379,-91.4613 166.738,-98.3281"/>
</g>
<!-- Node5 -->
<g id="node5" class="node"><title>Node5</title>
<g id="a_node5"><a xlink:href="ff_8c.html#a65611adf1626e5e08da77cd33a98dd8b" target="_top" xlink:title="get_fat">
<polygon fill="white" stroke="black" points="284.5,-114.5 284.5,-133.5 331.5,-133.5 331.5,-114.5 284.5,-114.5"/>
<text text-anchor="middle" x="308" y="-121.5" font-family="Helvetica,sans-Serif" font-size="10.00">get_fat</text>
</a>
</g>
</g>
<!-- Node2&#45;&gt;Node5 -->
<g id="edge34" class="edge"><title>Node2&#45;&gt;Node5</title>
<path fill="none" stroke="midnightblue" d="M139.708,-107.445C174.054,-110.844 236.292,-117.003 274.407,-120.775"/>
<polygon fill="midnightblue" stroke="midnightblue" points="274.179,-124.269 284.475,-121.771 274.868,-117.303 274.179,-124.269"/>
</g>
<!-- Node7 -->
<g id="node7" class="node"><title>Node7</title>
<g id="a_node7"><a xlink:href="ff_8c.html#a5e18753404354b210096f9af99e31bc1" target="_top" xlink:title="sync_window">
<polygon fill="white" stroke="black" points="484,-171.5 484,-190.5 560,-190.5 560,-171.5 484,-171.5"/>
<text text-anchor="middle" x="522" y="-178.5" font-family="Helvetica,sans-Serif" font-size="10.00">sync_window</text>
</a>
</g>
</g>
<!-- Node2&#45;&gt;Node7 -->
<g id="edge36" class="edge"><title>Node2&#45;&gt;Node7</title>
<path fill="none" stroke="midnightblue" d="M136.948,-114.544C148.401,-119.197 162.753,-124.526 176,-128 280.463,-155.398 406.679,-170.335 473.735,-176.883"/>
<polygon fill="midnightblue" stroke="midnightblue" points="473.689,-180.394 483.977,-177.862 474.356,-173.426 473.689,-180.394"/>
</g>
<!-- Node21 -->
<g id="node21" class="node"><title>Node21</title>
<g id="a_node21"><a xlink:href="ff_8c.html#a02eb5189e43056a9ddc8a59cbe89be93" target="_top" xlink:title="mem_set">
<polygon fill="white" stroke="black" points="183.5,-38.5 183.5,-57.5 240.5,-57.5 240.5,-38.5 183.5,-38.5"/>
<text text-anchor="middle" x="212" y="-45.5" font-family="Helvetica,sans-Serif" font-size="10.00">mem_set</text>
</a>
</g>
</g>
<!-- Node2&#45;&gt;Node21 -->
<g id="edge35" class="edge"><title>Node2&#45;&gt;Node21</title>
<path fill="none" stroke="midnightblue" d="M129.889,-95.3777C142.147,-87.54 160.042,-76.2911 176,-67 178.521,-65.5324 181.161,-64.0325 183.813,-62.5509"/>
<polygon fill="midnightblue" stroke="midnightblue" points="185.641,-65.5403 192.719,-57.6569 182.27,-59.4055 185.641,-65.5403"/>
</g>
<!-- Node4&#45;&gt;Node5 -->
<g id="edge4" class="edge"><title>Node4&#45;&gt;Node5</title>
<path fill="none" stroke="midnightblue" d="M236.72,-95.589C248.222,-100.239 262.211,-105.894 274.672,-110.931"/>
<polygon fill="midnightblue" stroke="midnightblue" points="273.677,-114.304 284.26,-114.807 276.301,-107.814 273.677,-114.304"/>
</g>
<!-- Node20 -->
<g id="node20" class="node"><title>Node20</title>
<g id="a_node20"><a xlink:href="ff_8c.html#abd4b6b071a8d728a88727051c12bc6d7" target="_top" xlink:title="put_fat">
<polygon fill="white" stroke="black" points="284.5,-76.5 284.5,-95.5 331.5,-95.5 331.5,-76.5 284.5,-76.5"/>
<text text-anchor="middle" x="308" y="-83.5" font-family="Helvetica,sans-Serif" font-size="10.00">put_fat</text>
</a>
</g>
</g>
<!-- Node4&#45;&gt;Node20 -->
<g id="edge32" class="edge"><title>Node4&#45;&gt;Node20</title>
<path fill="none" stroke="midnightblue" d="M248.002,-86C256.517,-86 265.595,-86 274.013,-86"/>
<polygon fill="midnightblue" stroke="midnightblue" points="274.23,-89.5001 284.23,-86 274.23,-82.5001 274.23,-89.5001"/>
</g>
<!-- Node5&#45;&gt;Node6 -->
<g id="edge5" class="edge"><title>Node5&#45;&gt;Node6</title>
<path fill="none" stroke="midnightblue" d="M331.729,-125.16C339.702,-125.566 348.992,-126.04 358.269,-126.514"/>
<polygon fill="midnightblue" stroke="midnightblue" points="358.102,-130.01 368.268,-127.024 358.459,-123.019 358.102,-130.01"/>
</g>
<!-- Node6&#45;&gt;Node7 -->
<g id="edge6" class="edge"><title>Node6&#45;&gt;Node7</title>
<path fill="none" stroke="midnightblue" d="M429.543,-138.538C446.722,-146.514 471.465,-158.002 490.884,-167.018"/>
<polygon fill="midnightblue" stroke="midnightblue" points="489.664,-170.31 500.208,-171.347 492.612,-163.961 489.664,-170.31"/>
</g>
<!-- Node18 -->
<g id="node18" class="node"><title>Node18</title>
<g id="a_node18"><a xlink:href="diskio_8h.html#ac0c802f8a12fa2047b4bec7109b9293f" target="_top" xlink:title="disk_read">
<polygon fill="white" stroke="black" points="597.5,-119.5 597.5,-138.5 656.5,-138.5 656.5,-119.5 597.5,-119.5"/>
<text text-anchor="middle" x="627" y="-126.5" font-family="Helvetica,sans-Serif" font-size="10.00">disk_read</text>
</a>
</g>
</g>
<!-- Node6&#45;&gt;Node18 -->
<g id="edge25" class="edge"><title>Node6&#45;&gt;Node18</title>
<path fill="none" stroke="midnightblue" d="M447.795,-129C487.187,-129 547.836,-129 587.221,-129"/>
<polygon fill="midnightblue" stroke="midnightblue" points="587.24,-132.5 597.24,-129 587.24,-125.5 587.24,-132.5"/>
</g>
<!-- Node8 -->
<g id="node8" class="node"><title>Node8</title>
<g id="a_node8"><a xlink:href="diskio_8h.html#ac4785625f4bb82e33562079813659880" target="_top" xlink:title="disk_write">
<polygon fill="white" stroke="black" points="596.5,-171.5 596.5,-190.5 657.5,-190.5 657.5,-171.5 596.5,-171.5"/>
<text text-anchor="middle" x="627" y="-178.5" font-family="Helvetica,sans-Serif" font-size="10.00">disk_write</text>
</a>
</g>
</g>
<!-- Node7&#45;&gt;Node8 -->
<g id="edge7" class="edge"><title>Node7&#45;&gt;Node8</title>
<path fill="none" stroke="midnightblue" d="M560.185,-181C568.624,-181 577.621,-181 586.165,-181"/>
<polygon fill="midnightblue" stroke="midnightblue" points="586.295,-184.5 596.295,-181 586.294,-177.5 586.295,-184.5"/>
</g>
<!-- Node9 -->
<g id="node9" class="node"><title>Node9</title>
<g id="a_node9"><a xlink:href="sdmm_8c.html#ac0eadae94de728461ccade9e03fafd8c" target="_top" xlink:title="deselect">
<polygon fill="white" stroke="black" points="925.5,-124.5 925.5,-143.5 978.5,-143.5 978.5,-124.5 925.5,-124.5"/>
<text text-anchor="middle" x="952" y="-131.5" font-family="Helvetica,sans-Serif" font-size="10.00">deselect</text>
</a>
</g>
</g>
<!-- Node8&#45;&gt;Node9 -->
<g id="edge8" class="edge"><title>Node8&#45;&gt;Node9</title>
<path fill="none" stroke="midnightblue" d="M657.52,-176.704C716.972,-168.054 850.921,-148.563 915.226,-139.206"/>
<polygon fill="midnightblue" stroke="midnightblue" points="915.901,-142.644 925.293,-137.741 914.893,-135.717 915.901,-142.644"/>
</g>
<!-- Node11 -->
<g id="node11" class="node"><title>Node11</title>
<g id="a_node11"><a xlink:href="sdmm_8c.html#a21ad8e9a107ea2000705a3edfebaaa2d" target="_top" xlink:title="disk_status">
<polygon fill="white" stroke="black" points="702.5,-124.5 702.5,-143.5 769.5,-143.5 769.5,-124.5 702.5,-124.5"/>
<text text-anchor="middle" x="736" y="-131.5" font-family="Helvetica,sans-Serif" font-size="10.00">disk_status</text>
</a>
</g>
</g>
<!-- Node8&#45;&gt;Node11 -->
<g id="edge10" class="edge"><title>Node8&#45;&gt;Node11</title>
<path fill="none" stroke="midnightblue" d="M649.653,-171.489C665.213,-164.654 686.425,-155.337 703.808,-147.701"/>
<polygon fill="midnightblue" stroke="midnightblue" points="705.264,-150.885 713.012,-143.658 702.449,-144.476 705.264,-150.885"/>
</g>
<!-- Node12 -->
<g id="node12" class="node"><title>Node12</title>
<g id="a_node12"><a xlink:href="sdmm_8c.html#a99684b493c8bfdb0288a2e24e52f6871" target="_top" xlink:title="send_cmd">
<polygon fill="white" stroke="black" points="705,-200.5 705,-219.5 767,-219.5 767,-200.5 705,-200.5"/>
<text text-anchor="middle" x="736" y="-207.5" font-family="Helvetica,sans-Serif" font-size="10.00">send_cmd</text>
</a>
</g>
</g>
<!-- Node8&#45;&gt;Node12 -->
<g id="edge11" class="edge"><title>Node8&#45;&gt;Node12</title>
<path fill="none" stroke="midnightblue" d="M657.521,-189.001C669.138,-192.15 682.657,-195.814 695.119,-199.191"/>
<polygon fill="midnightblue" stroke="midnightblue" points="694.263,-202.585 704.831,-201.823 696.094,-195.829 694.263,-202.585"/>
</g>
<!-- Node17 -->
<g id="node17" class="node"><title>Node17</title>
<g id="a_node17"><a xlink:href="sdmm_8c.html#aefbd30f6bdff37184f58faf98ad1c6e0" target="_top" xlink:title="xmit_datablock">
<polygon fill="white" stroke="black" points="694.5,-295.5 694.5,-314.5 777.5,-314.5 777.5,-295.5 694.5,-295.5"/>
<text text-anchor="middle" x="736" y="-302.5" font-family="Helvetica,sans-Serif" font-size="10.00">xmit_datablock</text>
</a>
</g>
</g>
<!-- Node8&#45;&gt;Node17 -->
<g id="edge21" class="edge"><title>Node8&#45;&gt;Node17</title>
<path fill="none" stroke="midnightblue" d="M636.396,-190.73C654.445,-211.646 697.148,-261.135 719.983,-287.598"/>
<polygon fill="midnightblue" stroke="midnightblue" points="717.46,-290.031 726.643,-295.315 722.76,-285.458 717.46,-290.031"/>
</g>
<!-- Node10 -->
<g id="node10" class="node"><title>Node10</title>
<g id="a_node10"><a xlink:href="sdmm_8c.html#ab628371b03508f9db7c6daf1203ed84d" target="_top" xlink:title="rcvr_mmc">
<polygon fill="white" stroke="black" points="1028,-181.5 1028,-200.5 1088,-200.5 1088,-181.5 1028,-181.5"/>
<text text-anchor="middle" x="1058" y="-188.5" font-family="Helvetica,sans-Serif" font-size="10.00">rcvr_mmc</text>
</a>
</g>
</g>
<!-- Node9&#45;&gt;Node10 -->
<g id="edge9" class="edge"><title>Node9&#45;&gt;Node10</title>
<path fill="none" stroke="midnightblue" d="M973.389,-143.573C979.428,-146.505 986.023,-149.803 992,-153 1005.69,-160.321 1020.66,-169.025 1032.78,-176.255"/>
<polygon fill="midnightblue" stroke="midnightblue" points="1031.05,-179.299 1041.43,-181.448 1034.66,-173.299 1031.05,-179.299"/>
</g>
<!-- Node12&#45;&gt;Node9 -->
<g id="edge12" class="edge"><title>Node12&#45;&gt;Node9</title>
<path fill="none" stroke="midnightblue" d="M764.103,-200.375C802.628,-186.693 873.258,-161.609 915.792,-146.504"/>
<polygon fill="midnightblue" stroke="midnightblue" points="917.197,-149.719 925.449,-143.074 914.854,-143.123 917.197,-149.719"/>
</g>
<!-- Node12&#45;&gt;Node10 -->
<g id="edge20" class="edge"><title>Node12&#45;&gt;Node10</title>
<path fill="none" stroke="midnightblue" d="M767.04,-219.203C781.146,-223.061 798.281,-227.089 814,-229 892.811,-238.58 914.779,-232.435 992,-214 1002.76,-211.43 1014.23,-207.717 1024.49,-204.021"/>
<polygon fill="midnightblue" stroke="midnightblue" points="1025.74,-207.29 1033.89,-200.521 1023.3,-200.729 1025.74,-207.29"/>
</g>
<!-- Node13 -->
<g id="node13" class="node"><title>Node13</title>
<g id="a_node13"><a xlink:href="sdmm_8c.html#ab45cb1d47cda5822ce492ad3c11867ae" target="_top" xlink:title="select">
<polygon fill="white" stroke="black" points="823.5,-200.5 823.5,-219.5 866.5,-219.5 866.5,-200.5 823.5,-200.5"/>
<text text-anchor="middle" x="845" y="-207.5" font-family="Helvetica,sans-Serif" font-size="10.00">select</text>
</a>
</g>
</g>
<!-- Node12&#45;&gt;Node13 -->
<g id="edge13" class="edge"><title>Node12&#45;&gt;Node13</title>
<path fill="none" stroke="midnightblue" d="M767.09,-210C781.375,-210 798.433,-210 812.85,-210"/>
<polygon fill="midnightblue" stroke="midnightblue" points="813.271,-213.5 823.271,-210 813.271,-206.5 813.271,-213.5"/>
</g>
<!-- Node16 -->
<g id="node16" class="node"><title>Node16</title>
<g id="a_node16"><a xlink:href="sdmm_8c.html#ace0af708caf7775204ca74fbd46818bb" target="_top" xlink:title="xmit_mmc">
<polygon fill="white" stroke="black" points="814,-276.5 814,-295.5 876,-295.5 876,-276.5 814,-276.5"/>
<text text-anchor="middle" x="845" y="-283.5" font-family="Helvetica,sans-Serif" font-size="10.00">xmit_mmc</text>
</a>
</g>
</g>
<!-- Node12&#45;&gt;Node16 -->
<g id="edge19" class="edge"><title>Node12&#45;&gt;Node16</title>
<path fill="none" stroke="midnightblue" d="M750.552,-219.625C768.641,-232.474 800.888,-255.378 822.361,-270.63"/>
<polygon fill="midnightblue" stroke="midnightblue" points="820.379,-273.515 830.558,-276.453 824.432,-267.808 820.379,-273.515"/>
</g>
<!-- Node13&#45;&gt;Node9 -->
<g id="edge18" class="edge"><title>Node13&#45;&gt;Node9</title>
<path fill="none" stroke="midnightblue" d="M858.413,-200.375C863.875,-196.061 870.327,-190.86 876,-186 892.484,-171.879 894.057,-165.213 912,-153 914.393,-151.371 916.947,-149.803 919.559,-148.314"/>
<polygon fill="midnightblue" stroke="midnightblue" points="921.308,-151.349 928.517,-143.584 918.039,-145.159 921.308,-151.349"/>
</g>
<!-- Node13&#45;&gt;Node10 -->
<g id="edge14" class="edge"><title>Node13&#45;&gt;Node10</title>
<path fill="none" stroke="midnightblue" d="M866.616,-208.144C901.56,-204.997 972.978,-198.566 1017.72,-194.537"/>
<polygon fill="midnightblue" stroke="midnightblue" points="1018.29,-198 1027.93,-193.617 1017.66,-191.028 1018.29,-198"/>
</g>
<!-- Node14 -->
<g id="node14" class="node"><title>Node14</title>
<g id="a_node14"><a xlink:href="sdmm_8c.html#a624a19e248af05530dae5c0cc1dddc11" target="_top" xlink:title="wait_ready">
<polygon fill="white" stroke="black" points="920,-162.5 920,-181.5 984,-181.5 984,-162.5 920,-162.5"/>
<text text-anchor="middle" x="952" y="-169.5" font-family="Helvetica,sans-Serif" font-size="10.00">wait_ready</text>
</a>
</g>
</g>
<!-- Node13&#45;&gt;Node14 -->
<g id="edge15" class="edge"><title>Node13&#45;&gt;Node14</title>
<path fill="none" stroke="midnightblue" d="M866.745,-202.492C880.504,-197.513 898.924,-190.846 915.033,-185.017"/>
<polygon fill="midnightblue" stroke="midnightblue" points="916.489,-188.212 924.701,-181.518 914.107,-181.63 916.489,-188.212"/>
</g>
<!-- Node14&#45;&gt;Node10 -->
<g id="edge16" class="edge"><title>Node14&#45;&gt;Node10</title>
<path fill="none" stroke="midnightblue" d="M984.203,-177.701C994.831,-179.642 1006.85,-181.837 1018.01,-183.876"/>
<polygon fill="midnightblue" stroke="midnightblue" points="1017.49,-187.339 1027.95,-185.693 1018.74,-180.453 1017.49,-187.339"/>
</g>
<!-- Node15 -->
<g id="node15" class="node"><title>Node15</title>
<g id="a_node15"><a xlink:href="sdmm_8c.html#a76a43e01b9676630e121e5a659acbb3f" target="_top" xlink:title="dly_us">
<polygon fill="white" stroke="black" points="1035.5,-105.5 1035.5,-124.5 1080.5,-124.5 1080.5,-105.5 1035.5,-105.5"/>
<text text-anchor="middle" x="1058" y="-112.5" font-family="Helvetica,sans-Serif" font-size="10.00">dly_us</text>
</a>
</g>
</g>
<!-- Node14&#45;&gt;Node15 -->
<g id="edge17" class="edge"><title>Node14&#45;&gt;Node15</title>
<path fill="none" stroke="midnightblue" d="M973.389,-162.427C979.428,-159.495 986.023,-156.197 992,-153 1005.69,-145.679 1020.66,-136.975 1032.78,-129.745"/>
<polygon fill="midnightblue" stroke="midnightblue" points="1034.66,-132.701 1041.43,-124.552 1031.05,-126.701 1034.66,-132.701"/>
</g>
<!-- Node17&#45;&gt;Node10 -->
<g id="edge24" class="edge"><title>Node17&#45;&gt;Node10</title>
<path fill="none" stroke="midnightblue" d="M760.195,-314.651C788.259,-324.904 836.64,-337.984 876,-325 946.895,-301.613 1012.72,-238.569 1041.61,-208.035"/>
<polygon fill="midnightblue" stroke="midnightblue" points="1044.2,-210.387 1048.44,-200.679 1039.07,-205.622 1044.2,-210.387"/>
</g>
<!-- Node17&#45;&gt;Node14 -->
<g id="edge22" class="edge"><title>Node17&#45;&gt;Node14</title>
<path fill="none" stroke="midnightblue" d="M773.278,-314.505C802.958,-320.161 844.952,-323.136 876,-305 918.199,-280.35 938.515,-222.227 946.581,-191.626"/>
<polygon fill="midnightblue" stroke="midnightblue" points="950.03,-192.257 949.016,-181.711 943.232,-190.587 950.03,-192.257"/>
</g>
<!-- Node17&#45;&gt;Node16 -->
<g id="edge23" class="edge"><title>Node17&#45;&gt;Node16</title>
<path fill="none" stroke="midnightblue" d="M777.757,-297.763C786.239,-296.257 795.174,-294.67 803.641,-293.167"/>
<polygon fill="midnightblue" stroke="midnightblue" points="804.441,-296.579 813.675,-291.385 803.217,-289.687 804.441,-296.579"/>
</g>
<!-- Node18&#45;&gt;Node9 -->
<g id="edge26" class="edge"><title>Node18&#45;&gt;Node9</title>
<path fill="none" stroke="midnightblue" d="M656.706,-121.547C668.214,-118.918 681.652,-116.295 694,-115 774.478,-106.558 795.641,-110.493 876,-120 888.948,-121.532 903.028,-123.956 915.455,-126.359"/>
<polygon fill="midnightblue" stroke="midnightblue" points="914.951,-129.827 925.443,-128.353 916.322,-122.963 914.951,-129.827"/>
</g>
<!-- Node18&#45;&gt;Node11 -->
<g id="edge27" class="edge"><title>Node18&#45;&gt;Node11</title>
<path fill="none" stroke="midnightblue" d="M656.674,-130.34C667.59,-130.85 680.279,-131.443 692.223,-132.001"/>
<polygon fill="midnightblue" stroke="midnightblue" points="692.313,-135.509 702.465,-132.48 692.64,-128.517 692.313,-135.509"/>
</g>
<!-- Node18&#45;&gt;Node12 -->
<g id="edge31" class="edge"><title>Node18&#45;&gt;Node12</title>
<path fill="none" stroke="midnightblue" d="M640.694,-138.61C658.874,-152.372 692.531,-177.851 714.331,-194.354"/>
<polygon fill="midnightblue" stroke="midnightblue" points="712.236,-197.158 722.322,-200.403 716.461,-191.576 712.236,-197.158"/>
</g>
<!-- Node19 -->
<g id="node19" class="node"><title>Node19</title>
<g id="a_node19"><a xlink:href="sdmm_8c.html#a8c99afbc312912297b19752cf7e0960b" target="_top" xlink:title="rcvr_datablock">
<polygon fill="white" stroke="black" points="912,-86.5 912,-105.5 992,-105.5 992,-86.5 912,-86.5"/>
<text text-anchor="middle" x="952" y="-93.5" font-family="Helvetica,sans-Serif" font-size="10.00">rcvr_datablock</text>
</a>
</g>
</g>
<!-- Node18&#45;&gt;Node19 -->
<g id="edge28" class="edge"><title>Node18&#45;&gt;Node19</title>
<path fill="none" stroke="midnightblue" d="M650.152,-119.431C662.755,-114.46 678.978,-108.844 694,-106 765.213,-92.5179 849.44,-92.1123 901.549,-93.6209"/>
<polygon fill="midnightblue" stroke="midnightblue" points="901.738,-97.1288 911.847,-93.9563 901.966,-90.1325 901.738,-97.1288"/>
</g>
<!-- Node19&#45;&gt;Node10 -->
<g id="edge29" class="edge"><title>Node19&#45;&gt;Node10</title>
<path fill="none" stroke="midnightblue" d="M976.605,-105.571C981.917,-108.238 987.353,-111.406 992,-115 1013.55,-131.669 1033.11,-156.463 1045.02,-173.155"/>
<polygon fill="midnightblue" stroke="midnightblue" points="1042.23,-175.276 1050.81,-181.492 1047.98,-171.282 1042.23,-175.276"/>
</g>
<!-- Node19&#45;&gt;Node15 -->
<g id="edge30" class="edge"><title>Node19&#45;&gt;Node15</title>
<path fill="none" stroke="midnightblue" d="M992.022,-103.129C1003,-105.135 1014.81,-107.292 1025.3,-109.209"/>
<polygon fill="midnightblue" stroke="midnightblue" points="1024.82,-112.678 1035.28,-111.032 1026.07,-105.792 1024.82,-112.678"/>
</g>
<!-- Node20&#45;&gt;Node6 -->
<g id="edge33" class="edge"><title>Node20&#45;&gt;Node6</title>
<path fill="none" stroke="midnightblue" d="M330.749,-95.5431C344.071,-101.389 361.334,-108.963 376.064,-115.426"/>
<polygon fill="midnightblue" stroke="midnightblue" points="374.748,-118.671 385.311,-119.484 377.56,-112.26 374.748,-118.671"/>
</g>
</g>
</svg>
