<?xml version="1.0" encoding="UTF-8" standalone="no"?>
<!DOCTYPE svg PUBLIC "-//W3C//DTD SVG 1.1//EN"
 "http://www.w3.org/Graphics/SVG/1.1/DTD/svg11.dtd">
<!-- Generated by graphviz version 2.36.0 (20140111.2315)
 -->
<!-- Title: sd_card/integer.h Pages: 1 -->
<svg width="247pt" height="140pt"
 viewBox="0.00 0.00 247.00 140.00" xmlns="http://www.w3.org/2000/svg" xmlns:xlink="http://www.w3.org/1999/xlink">
<g id="graph0" class="graph" transform="scale(1 1) rotate(0) translate(4 136)">
<title>sd_card/integer.h</title>
<polygon fill="white" stroke="none" points="-4,4 -4,-136 243,-136 243,4 -4,4"/>
<!-- Node1 -->
<g id="node1" class="node"><title>Node1</title>
<polygon fill="#bfbfbf" stroke="black" points="108,-112.5 108,-131.5 200,-131.5 200,-112.5 108,-112.5"/>
<text text-anchor="middle" x="154" y="-119.5" font-family="Helvetica,sans-Serif" font-size="10.00">sd_card/integer.h</text>
</g>
<!-- Node2 -->
<g id="node2" class="node"><title>Node2</title>
<g id="a_node2"><a xlink:href="diskio_8h.html" target="_top" xlink:title="sd_card/diskio.h">
<polygon fill="white" stroke="black" points="14,-56.5 14,-75.5 102,-75.5 102,-56.5 14,-56.5"/>
<text text-anchor="middle" x="58" y="-63.5" font-family="Helvetica,sans-Serif" font-size="10.00">sd_card/diskio.h</text>
</a>
</g>
</g>
<!-- Node1&#45;&gt;Node2 -->
<g id="edge1" class="edge"><title>Node1&#45;&gt;Node2</title>
<path fill="none" stroke="midnightblue" d="M129.426,-107.177C111.761,-97.2407 88.4875,-84.1492 73.3858,-75.6545"/>
<polygon fill="midnightblue" stroke="midnightblue" points="128.144,-110.472 138.576,-112.324 131.576,-104.371 128.144,-110.472"/>
</g>
<!-- Node5 -->
<g id="node5" class="node"><title>Node5</title>
<g id="a_node5"><a xlink:href="ff_8h.html" target="_top" xlink:title="sd_card/ff.h">
<polygon fill="white" stroke="black" points="120,-56.5 120,-75.5 188,-75.5 188,-56.5 120,-56.5"/>
<text text-anchor="middle" x="154" y="-63.5" font-family="Helvetica,sans-Serif" font-size="10.00">sd_card/ff.h</text>
</a>
</g>
</g>
<!-- Node1&#45;&gt;Node5 -->
<g id="edge4" class="edge"><title>Node1&#45;&gt;Node5</title>
<path fill="none" stroke="midnightblue" d="M154,-101.805C154,-92.9102 154,-82.7798 154,-75.7511"/>
<polygon fill="midnightblue" stroke="midnightblue" points="150.5,-102.083 154,-112.083 157.5,-102.083 150.5,-102.083"/>
</g>
<!-- Node6 -->
<g id="node6" class="node"><title>Node6</title>
<g id="a_node6"><a xlink:href="main_8c.html" target="_top" xlink:title="main.c">
<polygon fill="white" stroke="black" points="193,-0.5 193,-19.5 239,-19.5 239,-0.5 193,-0.5"/>
<text text-anchor="middle" x="216" y="-7.5" font-family="Helvetica,sans-Serif" font-size="10.00">main.c</text>
</a>
</g>
</g>
<!-- Node1&#45;&gt;Node6 -->
<g id="edge7" class="edge"><title>Node1&#45;&gt;Node6</title>
<path fill="none" stroke="midnightblue" d="M172.41,-105.54C180.956,-97.5052 190.614,-87.0635 197,-76 207.698,-57.4684 212.788,-32.4333 214.837,-19.5084"/>
<polygon fill="midnightblue" stroke="midnightblue" points="169.812,-103.168 164.7,-112.448 174.483,-108.382 169.812,-103.168"/>
</g>
<!-- Node3 -->
<g id="node3" class="node"><title>Node3</title>
<g id="a_node3"><a xlink:href="ff_8c.html" target="_top" xlink:title="sd_card/ff.c">
<polygon fill="white" stroke="black" points="107,-0.5 107,-19.5 175,-19.5 175,-0.5 107,-0.5"/>
<text text-anchor="middle" x="141" y="-7.5" font-family="Helvetica,sans-Serif" font-size="10.00">sd_card/ff.c</text>
</a>
</g>
</g>
<!-- Node2&#45;&gt;Node3 -->
<g id="edge2" class="edge"><title>Node2&#45;&gt;Node3</title>
<path fill="none" stroke="midnightblue" d="M80.0993,-50.6221C95.2618,-40.7574 114.883,-27.9919 127.698,-19.6545"/>
<polygon fill="midnightblue" stroke="midnightblue" points="77.8088,-47.9367 71.3354,-56.324 81.6262,-53.8042 77.8088,-47.9367"/>
</g>
<!-- Node4 -->
<g id="node4" class="node"><title>Node4</title>
<g id="a_node4"><a xlink:href="sdmm_8c.html" target="_top" xlink:title="sd_card/sdmm.c">
<polygon fill="white" stroke="black" points="-0.5,-0.5 -0.5,-19.5 88.5,-19.5 88.5,-0.5 -0.5,-0.5"/>
<text text-anchor="middle" x="44" y="-7.5" font-family="Helvetica,sans-Serif" font-size="10.00">sd_card/sdmm.c</text>
</a>
</g>
</g>
<!-- Node2&#45;&gt;Node4 -->
<g id="edge3" class="edge"><title>Node2&#45;&gt;Node4</title>
<path fill="none" stroke="midnightblue" d="M53.1766,-46.3956C50.8346,-37.362 48.1316,-26.936 46.2688,-19.7511"/>
<polygon fill="midnightblue" stroke="midnightblue" points="49.7905,-47.2814 55.6882,-56.083 56.5665,-45.5246 49.7905,-47.2814"/>
</g>
<!-- Node5&#45;&gt;Node3 -->
<g id="edge5" class="edge"><title>Node5&#45;&gt;Node3</title>
<path fill="none" stroke="midnightblue" d="M149.45,-46.1005C147.292,-37.1357 144.818,-26.8579 143.107,-19.7511"/>
<polygon fill="midnightblue" stroke="midnightblue" points="146.11,-47.18 151.853,-56.083 152.915,-45.5415 146.11,-47.18"/>
</g>
<!-- Node5&#45;&gt;Node6 -->
<g id="edge6" class="edge"><title>Node5&#45;&gt;Node6</title>
<path fill="none" stroke="midnightblue" d="M171.754,-49.5372C182.808,-39.9087 196.631,-27.8694 205.857,-19.8339"/>
<polygon fill="midnightblue" stroke="midnightblue" points="169.203,-47.1168 163.961,-56.324 173.801,-52.3954 169.203,-47.1168"/>
</g>
</g>
</svg>
