<?xml version="1.0" encoding="UTF-8" standalone="no"?>
<!DOCTYPE svg PUBLIC "-//W3C//DTD SVG 1.1//EN"
 "http://www.w3.org/Graphics/SVG/1.1/DTD/svg11.dtd">
<!-- Generated by graphviz version 2.36.0 (20140111.2315)
 -->
<!-- Title: keyboard/keyboard.c Pages: 1 -->
<svg width="511pt" height="140pt"
 viewBox="0.00 0.00 511.00 140.00" xmlns="http://www.w3.org/2000/svg" xmlns:xlink="http://www.w3.org/1999/xlink">
<g id="graph0" class="graph" transform="scale(1 1) rotate(0) translate(4 136)">
<title>keyboard/keyboard.c</title>
<polygon fill="white" stroke="none" points="-4,4 -4,-136 507,-136 507,4 -4,4"/>
<!-- Node1 -->
<g id="node1" class="node"><title>Node1</title>
<polygon fill="#bfbfbf" stroke="black" points="166.5,-112.5 166.5,-131.5 273.5,-131.5 273.5,-112.5 166.5,-112.5"/>
<text text-anchor="middle" x="220" y="-119.5" font-family="Helvetica,sans-Serif" font-size="10.00">keyboard/keyboard.c</text>
</g>
<!-- Node2 -->
<g id="node2" class="node"><title>Node2</title>
<g id="a_node2"><a xlink:href="keyboard_8h.html" target="_top" xlink:title="keyboard.h">
<polygon fill="white" stroke="black" points="187.5,-56.5 187.5,-75.5 252.5,-75.5 252.5,-56.5 187.5,-56.5"/>
<text text-anchor="middle" x="220" y="-63.5" font-family="Helvetica,sans-Serif" font-size="10.00">keyboard.h</text>
</a>
</g>
</g>
<!-- Node1&#45;&gt;Node2 -->
<g id="edge1" class="edge"><title>Node1&#45;&gt;Node2</title>
<path fill="none" stroke="midnightblue" d="M220,-112.083C220,-105.006 220,-94.8611 220,-85.9865"/>
<polygon fill="midnightblue" stroke="midnightblue" points="223.5,-85.751 220,-75.7511 216.5,-85.7511 223.5,-85.751"/>
</g>
<!-- Node3 -->
<g id="node3" class="node"><title>Node3</title>
<polygon fill="white" stroke="#bfbfbf" points="0,-0.5 0,-19.5 46,-19.5 46,-0.5 0,-0.5"/>
<text text-anchor="middle" x="23" y="-7.5" font-family="Helvetica,sans-Serif" font-size="10.00">stdio.h</text>
</g>
<!-- Node2&#45;&gt;Node3 -->
<g id="edge2" class="edge"><title>Node2&#45;&gt;Node3</title>
<path fill="none" stroke="midnightblue" d="M188.348,-56.4474C157.064,-47.9768 107.585,-34.5326 55.7653,-20.197"/>
<polygon fill="midnightblue" stroke="midnightblue" points="56.6374,-16.8068 46.0659,-17.5108 54.769,-23.5529 56.6374,-16.8068"/>
</g>
<!-- Node4 -->
<g id="node4" class="node"><title>Node4</title>
<polygon fill="white" stroke="#bfbfbf" points="64.5,-0.5 64.5,-19.5 113.5,-19.5 113.5,-0.5 64.5,-0.5"/>
<text text-anchor="middle" x="89" y="-7.5" font-family="Helvetica,sans-Serif" font-size="10.00">avr/io.h</text>
</g>
<!-- Node2&#45;&gt;Node4 -->
<g id="edge3" class="edge"><title>Node2&#45;&gt;Node4</title>
<path fill="none" stroke="midnightblue" d="M199.243,-56.4435C177.684,-47.5566 143.737,-33.5632 119.206,-23.4514"/>
<polygon fill="midnightblue" stroke="midnightblue" points="120.239,-20.0917 109.66,-19.5164 117.572,-26.5634 120.239,-20.0917"/>
</g>
<!-- Node5 -->
<g id="node5" class="node"><title>Node5</title>
<polygon fill="white" stroke="#bfbfbf" points="131.5,-0.5 131.5,-19.5 208.5,-19.5 208.5,-0.5 131.5,-0.5"/>
<text text-anchor="middle" x="170" y="-7.5" font-family="Helvetica,sans-Serif" font-size="10.00">avr/interrupt.h</text>
</g>
<!-- Node2&#45;&gt;Node5 -->
<g id="edge4" class="edge"><title>Node2&#45;&gt;Node5</title>
<path fill="none" stroke="midnightblue" d="M211.744,-56.083C204.535,-48.2982 193.89,-36.8015 185.154,-27.3665"/>
<polygon fill="midnightblue" stroke="midnightblue" points="187.465,-24.7108 178.103,-19.7511 182.329,-29.4666 187.465,-24.7108"/>
</g>
<!-- Node6 -->
<g id="node6" class="node"><title>Node6</title>
<polygon fill="white" stroke="#bfbfbf" points="227,-0.5 227,-19.5 313,-19.5 313,-0.5 227,-0.5"/>
<text text-anchor="middle" x="270" y="-7.5" font-family="Helvetica,sans-Serif" font-size="10.00">avr/pgmspace.h</text>
</g>
<!-- Node2&#45;&gt;Node6 -->
<g id="edge5" class="edge"><title>Node2&#45;&gt;Node6</title>
<path fill="none" stroke="midnightblue" d="M228.256,-56.083C235.465,-48.2982 246.11,-36.8015 254.846,-27.3665"/>
<polygon fill="midnightblue" stroke="midnightblue" points="257.671,-29.4666 261.897,-19.7511 252.535,-24.7108 257.671,-29.4666"/>
</g>
<!-- Node7 -->
<g id="node7" class="node"><title>Node7</title>
<polygon fill="white" stroke="#bfbfbf" points="331.5,-0.5 331.5,-19.5 390.5,-19.5 390.5,-0.5 331.5,-0.5"/>
<text text-anchor="middle" x="361" y="-7.5" font-family="Helvetica,sans-Serif" font-size="10.00">inttypes.h</text>
</g>
<!-- Node2&#45;&gt;Node7 -->
<g id="edge6" class="edge"><title>Node2&#45;&gt;Node7</title>
<path fill="none" stroke="midnightblue" d="M242.342,-56.4435C265.753,-47.4776 302.736,-33.314 329.19,-23.1827"/>
<polygon fill="midnightblue" stroke="midnightblue" points="330.676,-26.3615 338.763,-19.5164 328.172,-19.8245 330.676,-26.3615"/>
</g>
<!-- Node8 -->
<g id="node8" class="node"><title>Node8</title>
<g id="a_node8"><a xlink:href="lcd8bit_8h.html" target="_top" xlink:title="../lcd8bit/lcd8bit.h">
<polygon fill="white" stroke="black" points="409,-0.5 409,-19.5 503,-19.5 503,-0.5 409,-0.5"/>
<text text-anchor="middle" x="456" y="-7.5" font-family="Helvetica,sans-Serif" font-size="10.00">../lcd8bit/lcd8bit.h</text>
</a>
</g>
</g>
<!-- Node2&#45;&gt;Node8 -->
<g id="edge7" class="edge"><title>Node2&#45;&gt;Node8</title>
<path fill="none" stroke="midnightblue" d="M252.815,-57.4915C293.405,-48.2039 362.79,-32.3276 409.019,-21.7499"/>
<polygon fill="midnightblue" stroke="midnightblue" points="409.833,-25.1542 418.8,-19.5118 408.272,-18.3305 409.833,-25.1542"/>
</g>
</g>
</svg>
