<?xml version="1.0" encoding="UTF-8" standalone="no"?>
<!DOCTYPE svg PUBLIC "-//W3C//DTD SVG 1.1//EN"
 "http://www.w3.org/Graphics/SVG/1.1/DTD/svg11.dtd">
<!-- Generated by graphviz version 2.36.0 (20140111.2315)
 -->
<!-- Title: lcd_init Pages: 1 -->
<svg width="360pt" height="66pt"
 viewBox="0.00 0.00 360.00 66.00" xmlns="http://www.w3.org/2000/svg" xmlns:xlink="http://www.w3.org/1999/xlink">
<g id="graph0" class="graph" transform="scale(1 1) rotate(0) translate(4 62)">
<title>lcd_init</title>
<polygon fill="white" stroke="none" points="-4,4 -4,-62 356,-62 356,4 -4,4"/>
<!-- Node1 -->
<g id="node1" class="node"><title>Node1</title>
<polygon fill="#bfbfbf" stroke="black" points="0.5,-19.5 0.5,-38.5 47.5,-38.5 47.5,-19.5 0.5,-19.5"/>
<text text-anchor="middle" x="24" y="-26.5" font-family="Helvetica,sans-Serif" font-size="10.00">lcd_init</text>
</g>
<!-- Node2 -->
<g id="node2" class="node"><title>Node2</title>
<g id="a_node2"><a xlink:href="lcd8bit_8c.html#a88fdc90276b48773630acfc4525ff0db" target="_top" xlink:title="lcd_clear_and_home">
<polygon fill="white" stroke="black" points="84,-38.5 84,-57.5 190,-57.5 190,-38.5 84,-38.5"/>
<text text-anchor="middle" x="137" y="-45.5" font-family="Helvetica,sans-Serif" font-size="10.00">lcd_clear_and_home</text>
</a>
</g>
</g>
<!-- Node1&#45;&gt;Node2 -->
<g id="edge1" class="edge"><title>Node1&#45;&gt;Node2</title>
<path fill="none" stroke="midnightblue" d="M47.7304,-32.8908C55.4625,-34.2143 64.5167,-35.7641 73.825,-37.3574"/>
<polygon fill="midnightblue" stroke="midnightblue" points="73.5276,-40.8574 83.9748,-39.0948 74.7087,-33.9577 73.5276,-40.8574"/>
</g>
<!-- Node4 -->
<g id="node4" class="node"><title>Node4</title>
<g id="a_node4"><a xlink:href="lcd8bit_8c.html#aef7fba4025d73ad60e375357e557bca3" target="_top" xlink:title="lcd_write_byte">
<polygon fill="white" stroke="black" points="249,-0.5 249,-19.5 329,-19.5 329,-0.5 249,-0.5"/>
<text text-anchor="middle" x="289" y="-7.5" font-family="Helvetica,sans-Serif" font-size="10.00">lcd_write_byte</text>
</a>
</g>
</g>
<!-- Node1&#45;&gt;Node4 -->
<g id="edge4" class="edge"><title>Node1&#45;&gt;Node4</title>
<path fill="none" stroke="midnightblue" d="M47.8794,-27.3471C90.2336,-24.2873 181.725,-17.6777 238.746,-13.5583"/>
<polygon fill="midnightblue" stroke="midnightblue" points="239.25,-17.031 248.972,-12.8195 238.746,-10.0492 239.25,-17.031"/>
</g>
<!-- Node3 -->
<g id="node3" class="node"><title>Node3</title>
<g id="a_node3"><a xlink:href="lcd8bit_8c.html#a9d0f278e2fa5d8921d3a4fdd508a561e" target="_top" xlink:title="lcd_set_write_instruction">
<polygon fill="white" stroke="black" points="226.5,-38.5 226.5,-57.5 351.5,-57.5 351.5,-38.5 226.5,-38.5"/>
<text text-anchor="middle" x="289" y="-45.5" font-family="Helvetica,sans-Serif" font-size="10.00">lcd_set_write_instruction</text>
</a>
</g>
</g>
<!-- Node2&#45;&gt;Node3 -->
<g id="edge2" class="edge"><title>Node2&#45;&gt;Node3</title>
<path fill="none" stroke="midnightblue" d="M190.042,-48C198.435,-48 207.252,-48 216.014,-48"/>
<polygon fill="midnightblue" stroke="midnightblue" points="216.247,-51.5001 226.247,-48 216.247,-44.5001 216.247,-51.5001"/>
</g>
<!-- Node2&#45;&gt;Node4 -->
<g id="edge3" class="edge"><title>Node2&#45;&gt;Node4</title>
<path fill="none" stroke="midnightblue" d="M175.851,-38.411C195.467,-33.4417 219.619,-27.3233 240.479,-22.0387"/>
<polygon fill="midnightblue" stroke="midnightblue" points="241.587,-25.3687 250.421,-19.5201 239.868,-18.5831 241.587,-25.3687"/>
</g>
</g>
</svg>
