<?xml version="1.0" encoding="UTF-8" standalone="no"?>
<!DOCTYPE svg PUBLIC "-//W3C//DTD SVG 1.1//EN"
 "http://www.w3.org/Graphics/SVG/1.1/DTD/svg11.dtd">
<!-- Generated by graphviz version 2.36.0 (20140111.2315)
 -->
<!-- Title: lcd_goto Pages: 1 -->
<svg width="224pt" height="66pt"
 viewBox="0.00 0.00 224.00 66.00" xmlns="http://www.w3.org/2000/svg" xmlns:xlink="http://www.w3.org/1999/xlink">
<g id="graph0" class="graph" transform="scale(1 1) rotate(0) translate(4 62)">
<title>lcd_goto</title>
<polygon fill="white" stroke="none" points="-4,4 -4,-62 220,-62 220,4 -4,4"/>
<!-- Node1 -->
<g id="node1" class="node"><title>Node1</title>
<polygon fill="#bfbfbf" stroke="black" points="0.5,-19.5 0.5,-38.5 53.5,-38.5 53.5,-19.5 0.5,-19.5"/>
<text text-anchor="middle" x="27" y="-26.5" font-family="Helvetica,sans-Serif" font-size="10.00">lcd_goto</text>
</g>
<!-- Node2 -->
<g id="node2" class="node"><title>Node2</title>
<g id="a_node2"><a xlink:href="lcd8bit_8c.html#a9d0f278e2fa5d8921d3a4fdd508a561e" target="_top" xlink:title="lcd_set_write_instruction">
<polygon fill="white" stroke="black" points="90.5,-38.5 90.5,-57.5 215.5,-57.5 215.5,-38.5 90.5,-38.5"/>
<text text-anchor="middle" x="153" y="-45.5" font-family="Helvetica,sans-Serif" font-size="10.00">lcd_set_write_instruction</text>
</a>
</g>
</g>
<!-- Node1&#45;&gt;Node2 -->
<g id="edge1" class="edge"><title>Node1&#45;&gt;Node2</title>
<path fill="none" stroke="midnightblue" d="M53.6929,-32.9368C61.6429,-34.155 70.8227,-35.5615 80.313,-37.0157"/>
<polygon fill="midnightblue" stroke="midnightblue" points="79.8619,-40.4874 90.2767,-38.5424 80.9222,-33.5681 79.8619,-40.4874"/>
</g>
<!-- Node3 -->
<g id="node3" class="node"><title>Node3</title>
<g id="a_node3"><a xlink:href="lcd8bit_8c.html#aef7fba4025d73ad60e375357e557bca3" target="_top" xlink:title="lcd_write_byte">
<polygon fill="white" stroke="black" points="113,-0.5 113,-19.5 193,-19.5 193,-0.5 113,-0.5"/>
<text text-anchor="middle" x="153" y="-7.5" font-family="Helvetica,sans-Serif" font-size="10.00">lcd_write_byte</text>
</a>
</g>
</g>
<!-- Node1&#45;&gt;Node3 -->
<g id="edge2" class="edge"><title>Node1&#45;&gt;Node3</title>
<path fill="none" stroke="midnightblue" d="M53.6929,-25.0632C67.7918,-22.9029 85.7584,-20.1499 102.465,-17.59"/>
<polygon fill="midnightblue" stroke="midnightblue" points="103.305,-21.0023 112.659,-16.028 102.244,-14.0831 103.305,-21.0023"/>
</g>
</g>
</svg>
