<?xml version="1.0" encoding="UTF-8" standalone="no"?>
<!DOCTYPE svg PUBLIC "-//W3C//DTD SVG 1.1//EN"
 "http://www.w3.org/Graphics/SVG/1.1/DTD/svg11.dtd">
<!-- Generated by graphviz version 2.36.0 (20140111.2315)
 -->
<!-- Title: lcd8bit/lcd8bit.h Pages: 1 -->
<svg width="269pt" height="140pt"
 viewBox="0.00 0.00 269.00 140.00" xmlns="http://www.w3.org/2000/svg" xmlns:xlink="http://www.w3.org/1999/xlink">
<g id="graph0" class="graph" transform="scale(1 1) rotate(0) translate(4 136)">
<title>lcd8bit/lcd8bit.h</title>
<polygon fill="white" stroke="none" points="-4,4 -4,-136 265,-136 265,4 -4,4"/>
<!-- Node1 -->
<g id="node1" class="node"><title>Node1</title>
<polygon fill="#bfbfbf" stroke="black" points="105.5,-112.5 105.5,-131.5 190.5,-131.5 190.5,-112.5 105.5,-112.5"/>
<text text-anchor="middle" x="148" y="-119.5" font-family="Helvetica,sans-Serif" font-size="10.00">lcd8bit/lcd8bit.h</text>
</g>
<!-- Node2 -->
<g id="node2" class="node"><title>Node2</title>
<g id="a_node2"><a xlink:href="keyboard_8h.html" target="_top" xlink:title="keyboard/keyboard.h">
<polygon fill="white" stroke="black" points="12.5,-56.5 12.5,-75.5 119.5,-75.5 119.5,-56.5 12.5,-56.5"/>
<text text-anchor="middle" x="66" y="-63.5" font-family="Helvetica,sans-Serif" font-size="10.00">keyboard/keyboard.h</text>
</a>
</g>
</g>
<!-- Node1&#45;&gt;Node2 -->
<g id="edge1" class="edge"><title>Node1&#45;&gt;Node2</title>
<path fill="none" stroke="midnightblue" d="M126.167,-106.622C111.187,-96.7574 91.8025,-83.9919 79.142,-75.6545"/>
<polygon fill="midnightblue" stroke="midnightblue" points="124.549,-109.747 134.825,-112.324 128.399,-103.901 124.549,-109.747"/>
</g>
<!-- Node4 -->
<g id="node4" class="node"><title>Node4</title>
<g id="a_node4"><a xlink:href="main_8c.html" target="_top" xlink:title="main.c">
<polygon fill="white" stroke="black" points="125,-0.5 125,-19.5 171,-19.5 171,-0.5 125,-0.5"/>
<text text-anchor="middle" x="148" y="-7.5" font-family="Helvetica,sans-Serif" font-size="10.00">main.c</text>
</a>
</g>
</g>
<!-- Node1&#45;&gt;Node4 -->
<g id="edge5" class="edge"><title>Node1&#45;&gt;Node4</title>
<path fill="none" stroke="midnightblue" d="M148,-102.348C148,-78.2538 148,-37.3079 148,-19.5914"/>
<polygon fill="midnightblue" stroke="midnightblue" points="144.5,-102.368 148,-112.368 151.5,-102.369 144.5,-102.368"/>
</g>
<!-- Node5 -->
<g id="node5" class="node"><title>Node5</title>
<g id="a_node5"><a xlink:href="lcd8bit_8c.html" target="_top" xlink:title="lcd8bit/lcd8bit.c">
<polygon fill="white" stroke="black" points="176.5,-56.5 176.5,-75.5 261.5,-75.5 261.5,-56.5 176.5,-56.5"/>
<text text-anchor="middle" x="219" y="-63.5" font-family="Helvetica,sans-Serif" font-size="10.00">lcd8bit/lcd8bit.c</text>
</a>
</g>
</g>
<!-- Node1&#45;&gt;Node5 -->
<g id="edge4" class="edge"><title>Node1&#45;&gt;Node5</title>
<path fill="none" stroke="midnightblue" d="M167.59,-106.101C180.368,-96.3824 196.613,-84.0269 207.385,-75.8339"/>
<polygon fill="midnightblue" stroke="midnightblue" points="165.248,-103.484 159.407,-112.324 169.486,-109.056 165.248,-103.484"/>
</g>
<!-- Node3 -->
<g id="node3" class="node"><title>Node3</title>
<g id="a_node3"><a xlink:href="keyboard_8c.html" target="_top" xlink:title="keyboard/keyboard.c">
<polygon fill="white" stroke="black" points="-0.5,-0.5 -0.5,-19.5 106.5,-19.5 106.5,-0.5 -0.5,-0.5"/>
<text text-anchor="middle" x="53" y="-7.5" font-family="Helvetica,sans-Serif" font-size="10.00">keyboard/keyboard.c</text>
</a>
</g>
</g>
<!-- Node2&#45;&gt;Node3 -->
<g id="edge2" class="edge"><title>Node2&#45;&gt;Node3</title>
<path fill="none" stroke="midnightblue" d="M61.4501,-46.1005C59.2919,-37.1357 56.8176,-26.8579 55.1067,-19.7511"/>
<polygon fill="midnightblue" stroke="midnightblue" points="58.1099,-47.18 63.8533,-56.083 64.9155,-45.5415 58.1099,-47.18"/>
</g>
<!-- Node2&#45;&gt;Node4 -->
<g id="edge3" class="edge"><title>Node2&#45;&gt;Node4</title>
<path fill="none" stroke="midnightblue" d="M87.8331,-50.6221C102.813,-40.7574 122.197,-27.9919 134.858,-19.6545"/>
<polygon fill="midnightblue" stroke="midnightblue" points="85.6015,-47.9009 79.1747,-56.324 89.4514,-53.7471 85.6015,-47.9009"/>
</g>
</g>
</svg>
