<?xml version="1.0" encoding="UTF-8" standalone="no"?>
<!DOCTYPE svg PUBLIC "-//W3C//DTD SVG 1.1//EN"
 "http://www.w3.org/Graphics/SVG/1.1/DTD/svg11.dtd">
<!-- Generated by graphviz version 2.36.0 (20140111.2315)
 -->
<!-- Title: lcd_write_string_p Pages: 1 -->
<svg width="354pt" height="66pt"
 viewBox="0.00 0.00 354.00 66.00" xmlns="http://www.w3.org/2000/svg" xmlns:xlink="http://www.w3.org/1999/xlink">
<g id="graph0" class="graph" transform="scale(1 1) rotate(0) translate(4 62)">
<title>lcd_write_string_p</title>
<polygon fill="white" stroke="none" points="-4,4 -4,-62 350,-62 350,4 -4,4"/>
<!-- Node1 -->
<g id="node1" class="node"><title>Node1</title>
<polygon fill="#bfbfbf" stroke="black" points="0.5,-19.5 0.5,-38.5 95.5,-38.5 95.5,-19.5 0.5,-19.5"/>
<text text-anchor="middle" x="48" y="-26.5" font-family="Helvetica,sans-Serif" font-size="10.00">lcd_write_string_p</text>
</g>
<!-- Node2 -->
<g id="node2" class="node"><title>Node2</title>
<g id="a_node2"><a xlink:href="lcd8bit_8c.html#a082c749307f206b15a9cbeb775b03b5c" target="_top" xlink:title="lcd_write_data">
<polygon fill="white" stroke="black" points="132,-19.5 132,-38.5 212,-38.5 212,-19.5 132,-19.5"/>
<text text-anchor="middle" x="172" y="-26.5" font-family="Helvetica,sans-Serif" font-size="10.00">lcd_write_data</text>
</a>
</g>
</g>
<!-- Node1&#45;&gt;Node2 -->
<g id="edge1" class="edge"><title>Node1&#45;&gt;Node2</title>
<path fill="none" stroke="midnightblue" d="M95.8195,-29C104.227,-29 113.016,-29 121.497,-29"/>
<polygon fill="midnightblue" stroke="midnightblue" points="121.643,-32.5001 131.643,-29 121.643,-25.5001 121.643,-32.5001"/>
</g>
<!-- Node3 -->
<g id="node3" class="node"><title>Node3</title>
<g id="a_node3"><a xlink:href="lcd8bit_8c.html#ad55e5c04e2a5354bfd4840be5e0eb5d1" target="_top" xlink:title="lcd_set_write_data">
<polygon fill="white" stroke="black" points="248,-38.5 248,-57.5 346,-57.5 346,-38.5 248,-38.5"/>
<text text-anchor="middle" x="297" y="-45.5" font-family="Helvetica,sans-Serif" font-size="10.00">lcd_set_write_data</text>
</a>
</g>
</g>
<!-- Node2&#45;&gt;Node3 -->
<g id="edge2" class="edge"><title>Node2&#45;&gt;Node3</title>
<path fill="none" stroke="midnightblue" d="M212.256,-35.064C220.341,-36.3129 229.019,-37.6534 237.616,-38.9813"/>
<polygon fill="midnightblue" stroke="midnightblue" points="237.213,-42.4605 247.63,-40.5282 238.281,-35.5425 237.213,-42.4605"/>
</g>
<!-- Node4 -->
<g id="node4" class="node"><title>Node4</title>
<g id="a_node4"><a xlink:href="lcd8bit_8c.html#aef7fba4025d73ad60e375357e557bca3" target="_top" xlink:title="lcd_write_byte">
<polygon fill="white" stroke="black" points="257,-0.5 257,-19.5 337,-19.5 337,-0.5 257,-0.5"/>
<text text-anchor="middle" x="297" y="-7.5" font-family="Helvetica,sans-Serif" font-size="10.00">lcd_write_byte</text>
</a>
</g>
</g>
<!-- Node2&#45;&gt;Node4 -->
<g id="edge3" class="edge"><title>Node2&#45;&gt;Node4</title>
<path fill="none" stroke="midnightblue" d="M212.256,-22.936C223.24,-21.2393 235.319,-19.3735 246.801,-17.5999"/>
<polygon fill="midnightblue" stroke="midnightblue" points="247.346,-21.0572 256.695,-16.0715 246.278,-14.1392 247.346,-21.0572"/>
</g>
</g>
</svg>
