<?xml version="1.0" encoding="UTF-8" standalone="no"?>
<!DOCTYPE svg PUBLIC "-//W3C//DTD SVG 1.1//EN"
 "http://www.w3.org/Graphics/SVG/1.1/DTD/svg11.dtd">
<!-- Generated by graphviz version 2.36.0 (20140111.2315)
 -->
<!-- Title: lcd8bit/lcd8bit.c Pages: 1 -->
<svg width="457pt" height="84pt"
 viewBox="0.00 0.00 457.00 84.00" xmlns="http://www.w3.org/2000/svg" xmlns:xlink="http://www.w3.org/1999/xlink">
<g id="graph0" class="graph" transform="scale(1 1) rotate(0) translate(4 80)">
<title>lcd8bit/lcd8bit.c</title>
<polygon fill="white" stroke="none" points="-4,4 -4,-80 453,-80 453,4 -4,4"/>
<!-- Node1 -->
<g id="node1" class="node"><title>Node1</title>
<polygon fill="#bfbfbf" stroke="black" points="192.5,-56.5 192.5,-75.5 277.5,-75.5 277.5,-56.5 192.5,-56.5"/>
<text text-anchor="middle" x="235" y="-63.5" font-family="Helvetica,sans-Serif" font-size="10.00">lcd8bit/lcd8bit.c</text>
</g>
<!-- Node2 -->
<g id="node2" class="node"><title>Node2</title>
<g id="a_node2"><a xlink:href="config_8h.html" target="_top" xlink:title="../config.h">
<polygon fill="white" stroke="black" points="0,-0.5 0,-19.5 60,-19.5 60,-0.5 0,-0.5"/>
<text text-anchor="middle" x="30" y="-7.5" font-family="Helvetica,sans-Serif" font-size="10.00">../config.h</text>
</a>
</g>
</g>
<!-- Node1&#45;&gt;Node2 -->
<g id="edge1" class="edge"><title>Node1&#45;&gt;Node2</title>
<path fill="none" stroke="midnightblue" d="M202.517,-56.4435C166.658,-46.9978 108.9,-31.7833 70.2116,-21.5923"/>
<polygon fill="midnightblue" stroke="midnightblue" points="70.8877,-18.1511 60.326,-18.9883 69.1046,-24.9202 70.8877,-18.1511"/>
</g>
<!-- Node3 -->
<g id="node3" class="node"><title>Node3</title>
<polygon fill="white" stroke="#bfbfbf" points="78.5,-0.5 78.5,-19.5 127.5,-19.5 127.5,-0.5 78.5,-0.5"/>
<text text-anchor="middle" x="103" y="-7.5" font-family="Helvetica,sans-Serif" font-size="10.00">avr/io.h</text>
</g>
<!-- Node1&#45;&gt;Node3 -->
<g id="edge2" class="edge"><title>Node1&#45;&gt;Node3</title>
<path fill="none" stroke="midnightblue" d="M214.084,-56.4435C192.264,-47.5171 157.85,-33.4387 133.108,-23.3168"/>
<polygon fill="midnightblue" stroke="midnightblue" points="134.399,-20.0634 123.818,-19.5164 131.748,-26.5422 134.399,-20.0634"/>
</g>
<!-- Node4 -->
<g id="node4" class="node"><title>Node4</title>
<polygon fill="white" stroke="#bfbfbf" points="146,-0.5 146,-19.5 232,-19.5 232,-0.5 146,-0.5"/>
<text text-anchor="middle" x="189" y="-7.5" font-family="Helvetica,sans-Serif" font-size="10.00">avr/pgmspace.h</text>
</g>
<!-- Node1&#45;&gt;Node4 -->
<g id="edge3" class="edge"><title>Node1&#45;&gt;Node4</title>
<path fill="none" stroke="midnightblue" d="M227.404,-56.083C220.773,-48.2982 210.979,-36.8015 202.942,-27.3665"/>
<polygon fill="midnightblue" stroke="midnightblue" points="205.604,-25.0939 196.455,-19.7511 200.275,-29.6332 205.604,-25.0939"/>
</g>
<!-- Node5 -->
<g id="node5" class="node"><title>Node5</title>
<polygon fill="white" stroke="#bfbfbf" points="250,-0.5 250,-19.5 314,-19.5 314,-0.5 250,-0.5"/>
<text text-anchor="middle" x="282" y="-7.5" font-family="Helvetica,sans-Serif" font-size="10.00">util/delay.h</text>
</g>
<!-- Node1&#45;&gt;Node5 -->
<g id="edge4" class="edge"><title>Node1&#45;&gt;Node5</title>
<path fill="none" stroke="midnightblue" d="M242.761,-56.083C249.537,-48.2982 259.543,-36.8015 267.755,-27.3665"/>
<polygon fill="midnightblue" stroke="midnightblue" points="270.458,-29.592 274.383,-19.7511 265.178,-24.9963 270.458,-29.592"/>
</g>
<!-- Node6 -->
<g id="node6" class="node"><title>Node6</title>
<polygon fill="white" stroke="#bfbfbf" points="332,-0.5 332,-19.5 378,-19.5 378,-0.5 332,-0.5"/>
<text text-anchor="middle" x="355" y="-7.5" font-family="Helvetica,sans-Serif" font-size="10.00">stdio.h</text>
</g>
<!-- Node1&#45;&gt;Node6 -->
<g id="edge5" class="edge"><title>Node1&#45;&gt;Node6</title>
<path fill="none" stroke="midnightblue" d="M254.014,-56.4435C273.588,-47.6356 304.308,-33.8116 326.729,-23.722"/>
<polygon fill="midnightblue" stroke="midnightblue" points="328.392,-26.8119 336.075,-19.5164 325.519,-20.4284 328.392,-26.8119"/>
</g>
<!-- Node7 -->
<g id="node7" class="node"><title>Node7</title>
<g id="a_node7"><a xlink:href="lcd8bit_8h.html" target="_top" xlink:title="lcd8bit.h">
<polygon fill="white" stroke="black" points="396.5,-0.5 396.5,-19.5 449.5,-19.5 449.5,-0.5 396.5,-0.5"/>
<text text-anchor="middle" x="423" y="-7.5" font-family="Helvetica,sans-Serif" font-size="10.00">lcd8bit.h</text>
</a>
</g>
</g>
<!-- Node1&#45;&gt;Node7 -->
<g id="edge6" class="edge"><title>Node1&#45;&gt;Node7</title>
<path fill="none" stroke="midnightblue" d="M264.789,-56.4435C297.771,-46.9699 350.956,-31.6935 386.437,-21.5022"/>
<polygon fill="midnightblue" stroke="midnightblue" points="387.745,-24.7681 396.39,-18.6433 385.812,-18.0401 387.745,-24.7681"/>
</g>
</g>
</svg>
