<?xml version="1.0" encoding="UTF-8" standalone="no"?>
<!DOCTYPE svg PUBLIC "-//W3C//DTD SVG 1.1//EN"
 "http://www.w3.org/Graphics/SVG/1.1/DTD/svg11.dtd">
<!-- Generated by graphviz version 2.36.0 (20140111.2315)
 -->
<!-- Title: lcd_home Pages: 1 -->
<svg width="230pt" height="66pt"
 viewBox="0.00 0.00 230.00 66.00" xmlns="http://www.w3.org/2000/svg" xmlns:xlink="http://www.w3.org/1999/xlink">
<g id="graph0" class="graph" transform="scale(1 1) rotate(0) translate(4 62)">
<title>lcd_home</title>
<polygon fill="white" stroke="none" points="-4,4 -4,-62 226,-62 226,4 -4,4"/>
<!-- Node1 -->
<g id="node1" class="node"><title>Node1</title>
<polygon fill="#bfbfbf" stroke="black" points="0.5,-19.5 0.5,-38.5 59.5,-38.5 59.5,-19.5 0.5,-19.5"/>
<text text-anchor="middle" x="30" y="-26.5" font-family="Helvetica,sans-Serif" font-size="10.00">lcd_home</text>
</g>
<!-- Node2 -->
<g id="node2" class="node"><title>Node2</title>
<g id="a_node2"><a xlink:href="lcd8bit_8c.html#a9d0f278e2fa5d8921d3a4fdd508a561e" target="_top" xlink:title="lcd_set_write_instruction">
<polygon fill="white" stroke="black" points="96.5,-38.5 96.5,-57.5 221.5,-57.5 221.5,-38.5 96.5,-38.5"/>
<text text-anchor="middle" x="159" y="-45.5" font-family="Helvetica,sans-Serif" font-size="10.00">lcd_set_write_instruction</text>
</a>
</g>
</g>
<!-- Node1&#45;&gt;Node2 -->
<g id="edge1" class="edge"><title>Node1&#45;&gt;Node2</title>
<path fill="none" stroke="midnightblue" d="M59.5013,-33.264C67.643,-34.482 76.901,-35.8671 86.4049,-37.2889"/>
<polygon fill="midnightblue" stroke="midnightblue" points="85.9537,-40.7603 96.3616,-38.7785 86.9895,-33.8373 85.9537,-40.7603"/>
</g>
<!-- Node3 -->
<g id="node3" class="node"><title>Node3</title>
<g id="a_node3"><a xlink:href="lcd8bit_8c.html#aef7fba4025d73ad60e375357e557bca3" target="_top" xlink:title="lcd_write_byte">
<polygon fill="white" stroke="black" points="119,-0.5 119,-19.5 199,-19.5 199,-0.5 119,-0.5"/>
<text text-anchor="middle" x="159" y="-7.5" font-family="Helvetica,sans-Serif" font-size="10.00">lcd_write_byte</text>
</a>
</g>
</g>
<!-- Node1&#45;&gt;Node3 -->
<g id="edge2" class="edge"><title>Node1&#45;&gt;Node3</title>
<path fill="none" stroke="midnightblue" d="M59.5013,-24.736C73.9152,-22.5796 91.828,-19.8997 108.41,-17.419"/>
<polygon fill="midnightblue" stroke="midnightblue" points="109.147,-20.8477 118.519,-15.9066 108.112,-13.9248 109.147,-20.8477"/>
</g>
</g>
</svg>
