<?xml version="1.0" encoding="UTF-8" standalone="no"?>
<!DOCTYPE svg PUBLIC "-//W3C//DTD SVG 1.1//EN"
 "http://www.w3.org/Graphics/SVG/1.1/DTD/svg11.dtd">
<!-- Generated by graphviz version 2.36.0 (20140111.2315)
 -->
<!-- Title: lcd_line_two Pages: 1 -->
<svg width="332pt" height="66pt"
 viewBox="0.00 0.00 332.00 66.00" xmlns="http://www.w3.org/2000/svg" xmlns:xlink="http://www.w3.org/1999/xlink">
<g id="graph0" class="graph" transform="scale(1 1) rotate(0) translate(4 62)">
<title>lcd_line_two</title>
<polygon fill="white" stroke="none" points="-4,4 -4,-62 328,-62 328,4 -4,4"/>
<!-- Node1 -->
<g id="node1" class="node"><title>Node1</title>
<polygon fill="#bfbfbf" stroke="black" points="0.5,-19.5 0.5,-38.5 71.5,-38.5 71.5,-19.5 0.5,-19.5"/>
<text text-anchor="middle" x="36" y="-26.5" font-family="Helvetica,sans-Serif" font-size="10.00">lcd_line_two</text>
</g>
<!-- Node2 -->
<g id="node2" class="node"><title>Node2</title>
<g id="a_node2"><a xlink:href="lcd8bit_8c.html#affc4cf9b640d7c72fcb1e8be36c0183c" target="_top" xlink:title="lcd_goto">
<polygon fill="white" stroke="black" points="108.5,-19.5 108.5,-38.5 161.5,-38.5 161.5,-19.5 108.5,-19.5"/>
<text text-anchor="middle" x="135" y="-26.5" font-family="Helvetica,sans-Serif" font-size="10.00">lcd_goto</text>
</a>
</g>
</g>
<!-- Node1&#45;&gt;Node2 -->
<g id="edge1" class="edge"><title>Node1&#45;&gt;Node2</title>
<path fill="none" stroke="midnightblue" d="M71.7452,-29C80.325,-29 89.5309,-29 98.1615,-29"/>
<polygon fill="midnightblue" stroke="midnightblue" points="98.323,-32.5001 108.323,-29 98.323,-25.5001 98.323,-32.5001"/>
</g>
<!-- Node3 -->
<g id="node3" class="node"><title>Node3</title>
<g id="a_node3"><a xlink:href="lcd8bit_8c.html#a9d0f278e2fa5d8921d3a4fdd508a561e" target="_top" xlink:title="lcd_set_write_instruction">
<polygon fill="white" stroke="black" points="198.5,-38.5 198.5,-57.5 323.5,-57.5 323.5,-38.5 198.5,-38.5"/>
<text text-anchor="middle" x="261" y="-45.5" font-family="Helvetica,sans-Serif" font-size="10.00">lcd_set_write_instruction</text>
</a>
</g>
</g>
<!-- Node2&#45;&gt;Node3 -->
<g id="edge2" class="edge"><title>Node2&#45;&gt;Node3</title>
<path fill="none" stroke="midnightblue" d="M161.693,-32.9368C169.643,-34.155 178.823,-35.5615 188.313,-37.0157"/>
<polygon fill="midnightblue" stroke="midnightblue" points="187.862,-40.4874 198.277,-38.5424 188.922,-33.5681 187.862,-40.4874"/>
</g>
<!-- Node4 -->
<g id="node4" class="node"><title>Node4</title>
<g id="a_node4"><a xlink:href="lcd8bit_8c.html#aef7fba4025d73ad60e375357e557bca3" target="_top" xlink:title="lcd_write_byte">
<polygon fill="white" stroke="black" points="221,-0.5 221,-19.5 301,-19.5 301,-0.5 221,-0.5"/>
<text text-anchor="middle" x="261" y="-7.5" font-family="Helvetica,sans-Serif" font-size="10.00">lcd_write_byte</text>
</a>
</g>
</g>
<!-- Node2&#45;&gt;Node4 -->
<g id="edge3" class="edge"><title>Node2&#45;&gt;Node4</title>
<path fill="none" stroke="midnightblue" d="M161.693,-25.0632C175.792,-22.9029 193.758,-20.1499 210.465,-17.59"/>
<polygon fill="midnightblue" stroke="midnightblue" points="211.305,-21.0023 220.659,-16.028 210.244,-14.0831 211.305,-21.0023"/>
</g>
</g>
</svg>
