<?xml version="1.0" encoding="UTF-8" standalone="no"?>
<!DOCTYPE svg PUBLIC "-//W3C//DTD SVG 1.1//EN"
 "http://www.w3.org/Graphics/SVG/1.1/DTD/svg11.dtd">
<!-- Generated by graphviz version 2.36.0 (20140111.2315)
 -->
<!-- Title: lcd_clear_and_home Pages: 1 -->
<svg width="276pt" height="66pt"
 viewBox="0.00 0.00 276.00 66.00" xmlns="http://www.w3.org/2000/svg" xmlns:xlink="http://www.w3.org/1999/xlink">
<g id="graph0" class="graph" transform="scale(1 1) rotate(0) translate(4 62)">
<title>lcd_clear_and_home</title>
<polygon fill="white" stroke="none" points="-4,4 -4,-62 272,-62 272,4 -4,4"/>
<!-- Node1 -->
<g id="node1" class="node"><title>Node1</title>
<polygon fill="#bfbfbf" stroke="black" points="0,-19.5 0,-38.5 106,-38.5 106,-19.5 0,-19.5"/>
<text text-anchor="middle" x="53" y="-26.5" font-family="Helvetica,sans-Serif" font-size="10.00">lcd_clear_and_home</text>
</g>
<!-- Node2 -->
<g id="node2" class="node"><title>Node2</title>
<g id="a_node2"><a xlink:href="lcd8bit_8c.html#a9d0f278e2fa5d8921d3a4fdd508a561e" target="_top" xlink:title="lcd_set_write_instruction">
<polygon fill="white" stroke="black" points="142.5,-38.5 142.5,-57.5 267.5,-57.5 267.5,-38.5 142.5,-38.5"/>
<text text-anchor="middle" x="205" y="-45.5" font-family="Helvetica,sans-Serif" font-size="10.00">lcd_set_write_instruction</text>
</a>
</g>
</g>
<!-- Node1&#45;&gt;Node2 -->
<g id="edge1" class="edge"><title>Node1&#45;&gt;Node2</title>
<path fill="none" stroke="midnightblue" d="M106.042,-35.592C114.526,-36.6666 123.444,-37.7962 132.3,-38.918"/>
<polygon fill="midnightblue" stroke="midnightblue" points="131.886,-42.3935 142.247,-40.1779 132.766,-35.449 131.886,-42.3935"/>
</g>
<!-- Node3 -->
<g id="node3" class="node"><title>Node3</title>
<g id="a_node3"><a xlink:href="lcd8bit_8c.html#aef7fba4025d73ad60e375357e557bca3" target="_top" xlink:title="lcd_write_byte">
<polygon fill="white" stroke="black" points="165,-0.5 165,-19.5 245,-19.5 245,-0.5 165,-0.5"/>
<text text-anchor="middle" x="205" y="-7.5" font-family="Helvetica,sans-Serif" font-size="10.00">lcd_write_byte</text>
</a>
</g>
</g>
<!-- Node1&#45;&gt;Node3 -->
<g id="edge2" class="edge"><title>Node1&#45;&gt;Node3</title>
<path fill="none" stroke="midnightblue" d="M106.042,-22.408C121.868,-20.4034 139.203,-18.2076 154.833,-16.2278"/>
<polygon fill="midnightblue" stroke="midnightblue" points="155.344,-19.6911 164.825,-14.9622 154.464,-12.7466 155.344,-19.6911"/>
</g>
</g>
</svg>
