<?xml version="1.0" encoding="UTF-8" standalone="no"?>
<!DOCTYPE svg PUBLIC "-//W3C//DTD SVG 1.1//EN"
 "http://www.w3.org/Graphics/SVG/1.1/DTD/svg11.dtd">
<!-- Generated by graphviz version 2.36.0 (20140111.2315)
 -->
<!-- Title: list/list.h Pages: 1 -->
<svg width="125pt" height="84pt"
 viewBox="0.00 0.00 125.00 84.00" xmlns="http://www.w3.org/2000/svg" xmlns:xlink="http://www.w3.org/1999/xlink">
<g id="graph0" class="graph" transform="scale(1 1) rotate(0) translate(4 80)">
<title>list/list.h</title>
<polygon fill="white" stroke="none" points="-4,4 -4,-80 121,-80 121,4 -4,4"/>
<!-- Node1 -->
<g id="node1" class="node"><title>Node1</title>
<polygon fill="#bfbfbf" stroke="black" points="33.5,-56.5 33.5,-75.5 86.5,-75.5 86.5,-56.5 33.5,-56.5"/>
<text text-anchor="middle" x="60" y="-63.5" font-family="Helvetica,sans-Serif" font-size="10.00">list/list.h</text>
</g>
<!-- Node2 -->
<g id="node2" class="node"><title>Node2</title>
<g id="a_node2"><a xlink:href="list_8c.html" target="_top" xlink:title="list/list.c">
<polygon fill="white" stroke="black" points="-0.5,-0.5 -0.5,-19.5 52.5,-19.5 52.5,-0.5 -0.5,-0.5"/>
<text text-anchor="middle" x="26" y="-7.5" font-family="Helvetica,sans-Serif" font-size="10.00">list/list.c</text>
</a>
</g>
</g>
<!-- Node1&#45;&gt;Node2 -->
<g id="edge1" class="edge"><title>Node1&#45;&gt;Node2</title>
<path fill="none" stroke="midnightblue" d="M49.0228,-47.5656C43.173,-38.2747 36.2305,-27.2484 31.5099,-19.7511"/>
<polygon fill="midnightblue" stroke="midnightblue" points="46.0956,-49.4855 54.3856,-56.083 52.0192,-45.7558 46.0956,-49.4855"/>
</g>
<!-- Node3 -->
<g id="node3" class="node"><title>Node3</title>
<g id="a_node3"><a xlink:href="main_8c.html" target="_top" xlink:title="main.c">
<polygon fill="white" stroke="black" points="71,-0.5 71,-19.5 117,-19.5 117,-0.5 71,-0.5"/>
<text text-anchor="middle" x="94" y="-7.5" font-family="Helvetica,sans-Serif" font-size="10.00">main.c</text>
</a>
</g>
</g>
<!-- Node1&#45;&gt;Node3 -->
<g id="edge2" class="edge"><title>Node1&#45;&gt;Node3</title>
<path fill="none" stroke="midnightblue" d="M70.9772,-47.5656C76.827,-38.2747 83.7695,-27.2484 88.4901,-19.7511"/>
<polygon fill="midnightblue" stroke="midnightblue" points="67.9808,-45.7558 65.6144,-56.083 73.9044,-49.4855 67.9808,-45.7558"/>
</g>
</g>
</svg>
