<?xml version="1.0" encoding="UTF-8" standalone="no"?>
<!DOCTYPE svg PUBLIC "-//W3C//DTD SVG 1.1//EN"
 "http://www.w3.org/Graphics/SVG/1.1/DTD/svg11.dtd">
<!-- Generated by graphviz version 2.36.0 (20140111.2315)
 -->
<!-- Title: deleteNode Pages: 1 -->
<svg width="294pt" height="28pt"
 viewBox="0.00 0.00 294.00 28.00" xmlns="http://www.w3.org/2000/svg" xmlns:xlink="http://www.w3.org/1999/xlink">
<g id="graph0" class="graph" transform="scale(1 1) rotate(0) translate(4 24)">
<title>deleteNode</title>
<polygon fill="white" stroke="none" points="-4,4 -4,-24 290,-24 290,4 -4,4"/>
<!-- Node1 -->
<g id="node1" class="node"><title>Node1</title>
<polygon fill="#bfbfbf" stroke="black" points="0,-0.5 0,-19.5 66,-19.5 66,-0.5 0,-0.5"/>
<text text-anchor="middle" x="33" y="-7.5" font-family="Helvetica,sans-Serif" font-size="10.00">deleteNode</text>
</g>
<!-- Node2 -->
<g id="node2" class="node"><title>Node2</title>
<g id="a_node2"><a xlink:href="list_8c.html#a440d2fb8a7f4399ae63fadcd19e67353" target="_top" xlink:title="Removes the specified node from the list, and does NOT free memory the node is using. ">
<polygon fill="white" stroke="black" points="102,-0.5 102,-19.5 188,-19.5 188,-0.5 102,-0.5"/>
<text text-anchor="middle" x="145" y="-7.5" font-family="Helvetica,sans-Serif" font-size="10.00">deleteNodeOnly</text>
</a>
</g>
</g>
<!-- Node1&#45;&gt;Node2 -->
<g id="edge1" class="edge"><title>Node1&#45;&gt;Node2</title>
<path fill="none" stroke="midnightblue" d="M66.1123,-10C74.1341,-10 82.9466,-10 91.6694,-10"/>
<polygon fill="midnightblue" stroke="midnightblue" points="91.8152,-13.5001 101.815,-10 91.8152,-6.5001 91.8152,-13.5001"/>
</g>
<!-- Node3 -->
<g id="node3" class="node"><title>Node3</title>
<g id="a_node3"><a xlink:href="list_8c.html#a57726dc16efcab2ebe228494fce04bf0" target="_top" xlink:title="Internally removes the specified node from the list, and updates the linked list. ...">
<polygon fill="white" stroke="black" points="224.5,-0.5 224.5,-19.5 285.5,-19.5 285.5,-0.5 224.5,-0.5"/>
<text text-anchor="middle" x="255" y="-7.5" font-family="Helvetica,sans-Serif" font-size="10.00">evictNode</text>
</a>
</g>
</g>
<!-- Node2&#45;&gt;Node3 -->
<g id="edge2" class="edge"><title>Node2&#45;&gt;Node3</title>
<path fill="none" stroke="midnightblue" d="M188.065,-10C196.655,-10 205.669,-10 214.177,-10"/>
<polygon fill="midnightblue" stroke="midnightblue" points="214.243,-13.5001 224.243,-10 214.243,-6.5001 214.243,-13.5001"/>
</g>
</g>
</svg>
