<?xml version="1.0" encoding="UTF-8" standalone="no"?>
<!DOCTYPE svg PUBLIC "-//W3C//DTD SVG 1.1//EN"
 "http://www.w3.org/Graphics/SVG/1.1/DTD/svg11.dtd">
<!-- Generated by graphviz version 2.36.0 (20140111.2315)
 -->
<!-- Title: sort Pages: 1 -->
<svg width="154pt" height="142pt"
 viewBox="0.00 0.00 154.00 142.00" xmlns="http://www.w3.org/2000/svg" xmlns:xlink="http://www.w3.org/1999/xlink">
<g id="graph0" class="graph" transform="scale(1 1) rotate(0) translate(4 138)">
<title>sort</title>
<polygon fill="white" stroke="none" points="-4,4 -4,-138 150,-138 150,4 -4,4"/>
<!-- Node1 -->
<g id="node1" class="node"><title>Node1</title>
<polygon fill="#bfbfbf" stroke="black" points="0.5,-57.5 0.5,-76.5 33.5,-76.5 33.5,-57.5 0.5,-57.5"/>
<text text-anchor="middle" x="17" y="-64.5" font-family="Helvetica,sans-Serif" font-size="10.00">sort</text>
</g>
<!-- Node2 -->
<g id="node2" class="node"><title>Node2</title>
<g id="a_node2"><a xlink:href="list_8c.html#ace9faaeb801bbdf650d93f4a8b075c4c" target="_top" xlink:title="Simply returns the next node in the list, or NULL if there are no further nodes. ">
<polygon fill="white" stroke="black" points="70.5,-114.5 70.5,-133.5 145.5,-133.5 145.5,-114.5 70.5,-114.5"/>
<text text-anchor="middle" x="108" y="-121.5" font-family="Helvetica,sans-Serif" font-size="10.00">getNextOrder</text>
</a>
</g>
</g>
<!-- Node1&#45;&gt;Node2 -->
<g id="edge1" class="edge"><title>Node1&#45;&gt;Node2</title>
<path fill="none" stroke="midnightblue" d="M30.0208,-76.6206C40.3261,-84.6615 55.7254,-96.1943 70,-105 72.4775,-106.528 75.0922,-108.046 77.7395,-109.52"/>
<polygon fill="midnightblue" stroke="midnightblue" points="76.2428,-112.688 86.7135,-114.305 79.5367,-106.511 76.2428,-112.688"/>
</g>
<!-- Node3 -->
<g id="node3" class="node"><title>Node3</title>
<g id="a_node3"><a xlink:href="list_8c.html#a2eecdd9441c2808156e2823cf2647acf" target="_top" xlink:title="getOrderId">
<polygon fill="white" stroke="black" points="77,-76.5 77,-95.5 139,-95.5 139,-76.5 77,-76.5"/>
<text text-anchor="middle" x="108" y="-83.5" font-family="Helvetica,sans-Serif" font-size="10.00">getOrderId</text>
</a>
</g>
</g>
<!-- Node1&#45;&gt;Node3 -->
<g id="edge2" class="edge"><title>Node1&#45;&gt;Node3</title>
<path fill="none" stroke="midnightblue" d="M33.5026,-70.3095C42.8407,-72.3031 55.1961,-74.9407 67.1066,-77.4834"/>
<polygon fill="midnightblue" stroke="midnightblue" points="66.4203,-80.9157 76.9307,-79.5807 67.8818,-74.07 66.4203,-80.9157"/>
</g>
<!-- Node4 -->
<g id="node4" class="node"><title>Node4</title>
<g id="a_node4"><a xlink:href="list_8c.html#a9960b22010f913d546f29222e8fe71c1" target="_top" xlink:title="getPrevOrder">
<polygon fill="white" stroke="black" points="71,-38.5 71,-57.5 145,-57.5 145,-38.5 71,-38.5"/>
<text text-anchor="middle" x="108" y="-45.5" font-family="Helvetica,sans-Serif" font-size="10.00">getPrevOrder</text>
</a>
</g>
</g>
<!-- Node1&#45;&gt;Node4 -->
<g id="edge3" class="edge"><title>Node1&#45;&gt;Node4</title>
<path fill="none" stroke="midnightblue" d="M33.5026,-63.6905C41.2719,-62.0318 51.1298,-59.9273 61.0824,-57.8026"/>
<polygon fill="midnightblue" stroke="midnightblue" points="61.9438,-61.1977 70.9927,-55.6869 60.4823,-54.3519 61.9438,-61.1977"/>
</g>
<!-- Node5 -->
<g id="node5" class="node"><title>Node5</title>
<g id="a_node5"><a xlink:href="list_8c.html#a48838b111c5cba7f2503e6cb34992371" target="_top" xlink:title="swap">
<polygon fill="white" stroke="black" points="88,-0.5 88,-19.5 128,-19.5 128,-0.5 88,-0.5"/>
<text text-anchor="middle" x="108" y="-7.5" font-family="Helvetica,sans-Serif" font-size="10.00">swap</text>
</a>
</g>
</g>
<!-- Node1&#45;&gt;Node5 -->
<g id="edge4" class="edge"><title>Node1&#45;&gt;Node5</title>
<path fill="none" stroke="midnightblue" d="M30.0208,-57.3794C40.3261,-49.3385 55.7254,-37.8057 70,-29 72.8271,-27.256 75.8328,-25.5254 78.8617,-23.8595"/>
<polygon fill="midnightblue" stroke="midnightblue" points="80.6531,-26.8716 87.8624,-19.1078 77.3851,-20.6813 80.6531,-26.8716"/>
</g>
</g>
</svg>
