<?xml version="1.0" encoding="UTF-8" standalone="no"?>
<!DOCTYPE svg PUBLIC "-//W3C//DTD SVG 1.1//EN"
 "http://www.w3.org/Graphics/SVG/1.1/DTD/svg11.dtd">
<!-- Generated by graphviz version 2.36.0 (20140111.2315)
 -->
<!-- Title: main.c Pages: 1 -->
<svg width="857pt" height="140pt"
 viewBox="0.00 0.00 857.00 140.00" xmlns="http://www.w3.org/2000/svg" xmlns:xlink="http://www.w3.org/1999/xlink">
<g id="graph0" class="graph" transform="scale(1 1) rotate(0) translate(4 136)">
<title>main.c</title>
<polygon fill="white" stroke="none" points="-4,4 -4,-136 853,-136 853,4 -4,4"/>
<!-- Node1 -->
<g id="node1" class="node"><title>Node1</title>
<polygon fill="#bfbfbf" stroke="black" points="432,-112.5 432,-131.5 478,-131.5 478,-112.5 432,-112.5"/>
<text text-anchor="middle" x="455" y="-119.5" font-family="Helvetica,sans-Serif" font-size="10.00">main.c</text>
</g>
<!-- Node2 -->
<g id="node2" class="node"><title>Node2</title>
<g id="a_node2"><a xlink:href="config_8h.html" target="_top" xlink:title="config.h">
<polygon fill="white" stroke="black" points="54.5,-56.5 54.5,-75.5 105.5,-75.5 105.5,-56.5 54.5,-56.5"/>
<text text-anchor="middle" x="80" y="-63.5" font-family="Helvetica,sans-Serif" font-size="10.00">config.h</text>
</a>
</g>
</g>
<!-- Node1&#45;&gt;Node2 -->
<g id="edge1" class="edge"><title>Node1&#45;&gt;Node2</title>
<path fill="none" stroke="midnightblue" d="M431.741,-118.587C377.102,-112.765 236.388,-96.8692 120,-76 118.555,-75.7409 117.083,-75.4651 115.598,-75.177"/>
<polygon fill="midnightblue" stroke="midnightblue" points="116.255,-71.7388 105.753,-73.1436 114.839,-78.5941 116.255,-71.7388"/>
</g>
<!-- Node3 -->
<g id="node3" class="node"><title>Node3</title>
<polygon fill="white" stroke="#bfbfbf" points="244.5,-0.5 244.5,-19.5 293.5,-19.5 293.5,-0.5 244.5,-0.5"/>
<text text-anchor="middle" x="269" y="-7.5" font-family="Helvetica,sans-Serif" font-size="10.00">avr/io.h</text>
</g>
<!-- Node1&#45;&gt;Node3 -->
<g id="edge2" class="edge"><title>Node1&#45;&gt;Node3</title>
<path fill="none" stroke="midnightblue" d="M439.265,-112.378C423.059,-103.445 397.12,-88.9972 375,-76 345.817,-58.8527 312.617,-38.3263 291.269,-24.9927"/>
<polygon fill="midnightblue" stroke="midnightblue" points="292.955,-21.919 282.622,-19.5801 289.241,-27.8525 292.955,-21.919"/>
</g>
<!-- Node4 -->
<g id="node4" class="node"><title>Node4</title>
<polygon fill="white" stroke="#bfbfbf" points="312,-0.5 312,-19.5 398,-19.5 398,-0.5 312,-0.5"/>
<text text-anchor="middle" x="355" y="-7.5" font-family="Helvetica,sans-Serif" font-size="10.00">avr/pgmspace.h</text>
</g>
<!-- Node1&#45;&gt;Node4 -->
<g id="edge3" class="edge"><title>Node1&#45;&gt;Node4</title>
<path fill="none" stroke="midnightblue" d="M439.864,-112.491C426.394,-104.382 406.75,-91.1808 393,-76 380.273,-61.949 369.77,-42.9566 363.056,-29.1313"/>
<polygon fill="midnightblue" stroke="midnightblue" points="366.076,-27.3256 358.686,-19.7337 359.729,-30.2771 366.076,-27.3256"/>
</g>
<!-- Node5 -->
<g id="node5" class="node"><title>Node5</title>
<polygon fill="white" stroke="#bfbfbf" points="579,-0.5 579,-19.5 643,-19.5 643,-0.5 579,-0.5"/>
<text text-anchor="middle" x="611" y="-7.5" font-family="Helvetica,sans-Serif" font-size="10.00">util/delay.h</text>
</g>
<!-- Node1&#45;&gt;Node5 -->
<g id="edge4" class="edge"><title>Node1&#45;&gt;Node5</title>
<path fill="none" stroke="midnightblue" d="M467.241,-112.368C493.897,-93.5728 557.438,-48.7684 590.389,-25.5334"/>
<polygon fill="midnightblue" stroke="midnightblue" points="592.66,-28.2146 598.816,-19.5914 588.626,-22.4938 592.66,-28.2146"/>
</g>
<!-- Node6 -->
<g id="node6" class="node"><title>Node6</title>
<polygon fill="white" stroke="#bfbfbf" points="0,-0.5 0,-19.5 46,-19.5 46,-0.5 0,-0.5"/>
<text text-anchor="middle" x="23" y="-7.5" font-family="Helvetica,sans-Serif" font-size="10.00">stdio.h</text>
</g>
<!-- Node1&#45;&gt;Node6 -->
<g id="edge5" class="edge"><title>Node1&#45;&gt;Node6</title>
<path fill="none" stroke="midnightblue" d="M431.881,-119.955C380.821,-117.128 255.024,-107.295 155,-76 153.613,-75.566 87.4302,-42.8709 49.3204,-24.0231"/>
<polygon fill="midnightblue" stroke="midnightblue" points="50.8081,-20.8543 40.2929,-19.5577 47.7045,-27.1286 50.8081,-20.8543"/>
</g>
<!-- Node7 -->
<g id="node7" class="node"><title>Node7</title>
<polygon fill="white" stroke="#bfbfbf" points="602.5,-56.5 602.5,-75.5 651.5,-75.5 651.5,-56.5 602.5,-56.5"/>
<text text-anchor="middle" x="627" y="-63.5" font-family="Helvetica,sans-Serif" font-size="10.00">string.h</text>
</g>
<!-- Node1&#45;&gt;Node7 -->
<g id="edge6" class="edge"><title>Node1&#45;&gt;Node7</title>
<path fill="none" stroke="midnightblue" d="M478.197,-113.717C507.531,-104.508 558.3,-88.5685 592.267,-77.9046"/>
<polygon fill="midnightblue" stroke="midnightblue" points="593.734,-81.1125 602.226,-74.7778 591.637,-74.4339 593.734,-81.1125"/>
</g>
<!-- Node8 -->
<g id="node8" class="node"><title>Node8</title>
<polygon fill="white" stroke="#bfbfbf" points="661,-0.5 661,-19.5 709,-19.5 709,-0.5 661,-0.5"/>
<text text-anchor="middle" x="685" y="-7.5" font-family="Helvetica,sans-Serif" font-size="10.00">stdlib.h</text>
</g>
<!-- Node1&#45;&gt;Node8 -->
<g id="edge7" class="edge"><title>Node1&#45;&gt;Node8</title>
<path fill="none" stroke="midnightblue" d="M473.048,-112.368C513.272,-93.131 610.464,-46.6478 657.962,-23.9314"/>
<polygon fill="midnightblue" stroke="midnightblue" points="659.525,-27.0635 667.036,-19.5914 656.505,-20.7486 659.525,-27.0635"/>
</g>
<!-- Node9 -->
<g id="node9" class="node"><title>Node9</title>
<g id="a_node9"><a xlink:href="list_8h.html" target="_top" xlink:title="list/list.h">
<polygon fill="white" stroke="black" points="669.5,-56.5 669.5,-75.5 722.5,-75.5 722.5,-56.5 669.5,-56.5"/>
<text text-anchor="middle" x="696" y="-63.5" font-family="Helvetica,sans-Serif" font-size="10.00">list/list.h</text>
</a>
</g>
</g>
<!-- Node1&#45;&gt;Node9 -->
<g id="edge8" class="edge"><title>Node1&#45;&gt;Node9</title>
<path fill="none" stroke="midnightblue" d="M478.107,-116.155C514.412,-108.494 587.262,-92.9264 659.151,-76.1453"/>
<polygon fill="midnightblue" stroke="midnightblue" points="660.347,-79.4599 669.285,-73.7701 658.75,-72.6446 660.347,-79.4599"/>
</g>
<!-- Node10 -->
<g id="node10" class="node"><title>Node10</title>
<g id="a_node10"><a xlink:href="lcd8bit_8h.html" target="_top" xlink:title="lcd8bit/lcd8bit.h">
<polygon fill="white" stroke="black" points="64.5,-0.5 64.5,-19.5 149.5,-19.5 149.5,-0.5 64.5,-0.5"/>
<text text-anchor="middle" x="107" y="-7.5" font-family="Helvetica,sans-Serif" font-size="10.00">lcd8bit/lcd8bit.h</text>
</a>
</g>
</g>
<!-- Node1&#45;&gt;Node10 -->
<g id="edge9" class="edge"><title>Node1&#45;&gt;Node10</title>
<path fill="none" stroke="midnightblue" d="M431.68,-120.77C384.302,-119.515 274.229,-112.54 191,-76 164.257,-64.259 138.451,-42.1642 122.66,-27.0222"/>
<polygon fill="midnightblue" stroke="midnightblue" points="124.942,-24.3569 115.363,-19.8294 120.027,-29.3421 124.942,-24.3569"/>
</g>
<!-- Node11 -->
<g id="node11" class="node"><title>Node11</title>
<g id="a_node11"><a xlink:href="ff_8h.html" target="_top" xlink:title="sd_card/ff.h">
<polygon fill="white" stroke="black" points="779,-56.5 779,-75.5 847,-75.5 847,-56.5 779,-56.5"/>
<text text-anchor="middle" x="813" y="-63.5" font-family="Helvetica,sans-Serif" font-size="10.00">sd_card/ff.h</text>
</a>
</g>
</g>
<!-- Node1&#45;&gt;Node11 -->
<g id="edge10" class="edge"><title>Node1&#45;&gt;Node11</title>
<path fill="none" stroke="midnightblue" d="M478.384,-117.941C530.138,-111.096 658.242,-93.7494 765,-76 766.27,-75.7888 767.559,-75.571 768.859,-75.3481"/>
<polygon fill="midnightblue" stroke="midnightblue" points="769.705,-78.7529 778.942,-73.565 768.486,-71.8599 769.705,-78.7529"/>
</g>
<!-- Node12 -->
<g id="node12" class="node"><title>Node12</title>
<g id="a_node12"><a xlink:href="integer_8h.html" target="_top" xlink:title="integer.h">
<polygon fill="white" stroke="black" points="727,-0.5 727,-19.5 781,-19.5 781,-0.5 727,-0.5"/>
<text text-anchor="middle" x="754" y="-7.5" font-family="Helvetica,sans-Serif" font-size="10.00">integer.h</text>
</a>
</g>
</g>
<!-- Node1&#45;&gt;Node12 -->
<g id="edge13" class="edge"><title>Node1&#45;&gt;Node12</title>
<path fill="none" stroke="midnightblue" d="M478.082,-120.191C537.296,-117.665 692.63,-108.068 731,-76 744.614,-64.6223 750.173,-44.6304 752.442,-29.8132"/>
<polygon fill="midnightblue" stroke="midnightblue" points="755.937,-30.0563 753.613,-19.7194 748.984,-29.249 755.937,-30.0563"/>
</g>
<!-- Node14 -->
<g id="node14" class="node"><title>Node14</title>
<g id="a_node14"><a xlink:href="wavegen_8h.html" target="_top" xlink:title="wavegen/wavegen.h">
<polygon fill="white" stroke="black" points="402,-56.5 402,-75.5 508,-75.5 508,-56.5 402,-56.5"/>
<text text-anchor="middle" x="455" y="-63.5" font-family="Helvetica,sans-Serif" font-size="10.00">wavegen/wavegen.h</text>
</a>
</g>
</g>
<!-- Node1&#45;&gt;Node14 -->
<g id="edge14" class="edge"><title>Node1&#45;&gt;Node14</title>
<path fill="none" stroke="midnightblue" d="M455,-112.083C455,-105.006 455,-94.8611 455,-85.9865"/>
<polygon fill="midnightblue" stroke="midnightblue" points="458.5,-85.751 455,-75.7511 451.5,-85.7511 458.5,-85.751"/>
</g>
<!-- Node17 -->
<g id="node17" class="node"><title>Node17</title>
<g id="a_node17"><a xlink:href="keyboard_8h.html" target="_top" xlink:title="keyboard/keyboard.h">
<polygon fill="white" stroke="black" points="200.5,-56.5 200.5,-75.5 307.5,-75.5 307.5,-56.5 200.5,-56.5"/>
<text text-anchor="middle" x="254" y="-63.5" font-family="Helvetica,sans-Serif" font-size="10.00">keyboard/keyboard.h</text>
</a>
</g>
</g>
<!-- Node1&#45;&gt;Node17 -->
<g id="edge21" class="edge"><title>Node1&#45;&gt;Node17</title>
<path fill="none" stroke="midnightblue" d="M431.943,-114.806C398.696,-105.874 336.759,-89.2338 295.449,-78.1356"/>
<polygon fill="midnightblue" stroke="midnightblue" points="296.245,-74.7253 285.679,-75.5108 294.429,-81.4856 296.245,-74.7253"/>
</g>
<!-- Node11&#45;&gt;Node12 -->
<g id="edge11" class="edge"><title>Node11&#45;&gt;Node12</title>
<path fill="none" stroke="midnightblue" d="M803.521,-56.324C794.799,-48.3414 781.657,-36.3128 771.102,-26.6529"/>
<polygon fill="midnightblue" stroke="midnightblue" points="773.392,-24.0036 763.652,-19.8339 768.666,-29.1674 773.392,-24.0036"/>
</g>
<!-- Node13 -->
<g id="node13" class="node"><title>Node13</title>
<g id="a_node13"><a xlink:href="ffconf_8h.html" target="_top" xlink:title="ffconf.h">
<polygon fill="white" stroke="black" points="799,-0.5 799,-19.5 849,-19.5 849,-0.5 799,-0.5"/>
<text text-anchor="middle" x="824" y="-7.5" font-family="Helvetica,sans-Serif" font-size="10.00">ffconf.h</text>
</a>
</g>
</g>
<!-- Node11&#45;&gt;Node13 -->
<g id="edge12" class="edge"><title>Node11&#45;&gt;Node13</title>
<path fill="none" stroke="midnightblue" d="M814.816,-56.083C816.274,-48.9272 818.371,-38.6353 820.193,-29.6911"/>
<polygon fill="midnightblue" stroke="midnightblue" points="823.651,-30.2485 822.217,-19.7511 816.792,-28.8512 823.651,-30.2485"/>
</g>
<!-- Node14&#45;&gt;Node3 -->
<g id="edge17" class="edge"><title>Node14&#45;&gt;Node3</title>
<path fill="none" stroke="midnightblue" d="M425.528,-56.4435C392.337,-46.8075 338.468,-31.168 303.385,-20.9826"/>
<polygon fill="midnightblue" stroke="midnightblue" points="304.162,-17.5638 293.582,-18.1368 302.21,-24.2862 304.162,-17.5638"/>
</g>
<!-- Node14&#45;&gt;Node4 -->
<g id="edge19" class="edge"><title>Node14&#45;&gt;Node4</title>
<path fill="none" stroke="midnightblue" d="M438.933,-56.324C423.042,-47.7428 398.493,-34.486 380.042,-24.5224"/>
<polygon fill="midnightblue" stroke="midnightblue" points="381.489,-21.3264 371.027,-19.6545 378.163,-27.4857 381.489,-21.3264"/>
</g>
<!-- Node14&#45;&gt;Node5 -->
<g id="edge18" class="edge"><title>Node14&#45;&gt;Node5</title>
<path fill="none" stroke="midnightblue" d="M479.719,-56.4435C505.848,-47.3986 547.259,-33.064 576.576,-22.9158"/>
<polygon fill="midnightblue" stroke="midnightblue" points="578.092,-26.0951 586.397,-19.5164 575.802,-19.4801 578.092,-26.0951"/>
</g>
<!-- Node14&#45;&gt;Node8 -->
<g id="edge20" class="edge"><title>Node14&#45;&gt;Node8</title>
<path fill="none" stroke="midnightblue" d="M494.735,-56.4333C532.503,-48.1774 591.128,-35.0694 650.892,-20.2017"/>
<polygon fill="midnightblue" stroke="midnightblue" points="652.028,-23.5253 660.88,-17.7028 650.329,-16.7345 652.028,-23.5253"/>
</g>
<!-- Node15 -->
<g id="node15" class="node"><title>Node15</title>
<polygon fill="white" stroke="#bfbfbf" points="511.5,-0.5 511.5,-19.5 560.5,-19.5 560.5,-0.5 511.5,-0.5"/>
<text text-anchor="middle" x="536" y="-7.5" font-family="Helvetica,sans-Serif" font-size="10.00">stdint.h</text>
</g>
<!-- Node14&#45;&gt;Node15 -->
<g id="edge15" class="edge"><title>Node14&#45;&gt;Node15</title>
<path fill="none" stroke="midnightblue" d="M468.014,-56.324C480.532,-47.979 499.682,-35.2122 514.471,-25.3524"/>
<polygon fill="midnightblue" stroke="midnightblue" points="516.639,-28.1137 523.018,-19.6545 512.756,-22.2894 516.639,-28.1137"/>
</g>
<!-- Node16 -->
<g id="node16" class="node"><title>Node16</title>
<polygon fill="white" stroke="#bfbfbf" points="416.5,-0.5 416.5,-19.5 493.5,-19.5 493.5,-0.5 416.5,-0.5"/>
<text text-anchor="middle" x="455" y="-7.5" font-family="Helvetica,sans-Serif" font-size="10.00">avr/interrupt.h</text>
</g>
<!-- Node14&#45;&gt;Node16 -->
<g id="edge16" class="edge"><title>Node14&#45;&gt;Node16</title>
<path fill="none" stroke="midnightblue" d="M455,-56.083C455,-49.0059 455,-38.8611 455,-29.9865"/>
<polygon fill="midnightblue" stroke="midnightblue" points="458.5,-29.751 455,-19.7511 451.5,-29.7511 458.5,-29.751"/>
</g>
<!-- Node17&#45;&gt;Node3 -->
<g id="edge23" class="edge"><title>Node17&#45;&gt;Node3</title>
<path fill="none" stroke="midnightblue" d="M256.477,-56.083C258.486,-48.8486 261.386,-38.4087 263.89,-29.3968"/>
<polygon fill="midnightblue" stroke="midnightblue" points="267.265,-30.323 266.569,-19.7511 260.52,-28.4495 267.265,-30.323"/>
</g>
<!-- Node17&#45;&gt;Node4 -->
<g id="edge25" class="edge"><title>Node17&#45;&gt;Node4</title>
<path fill="none" stroke="midnightblue" d="M270.227,-56.324C286.351,-47.7034 311.3,-34.3643 329.964,-24.3855"/>
<polygon fill="midnightblue" stroke="midnightblue" points="331.644,-27.456 338.813,-19.6545 328.344,-21.283 331.644,-27.456"/>
</g>
<!-- Node17&#45;&gt;Node6 -->
<g id="edge22" class="edge"><title>Node17&#45;&gt;Node6</title>
<path fill="none" stroke="midnightblue" d="M213.453,-56.4749C175.263,-48.3019 116.23,-35.302 56.0854,-20.1773"/>
<polygon fill="midnightblue" stroke="midnightblue" points="56.587,-16.6939 46.0338,-17.632 54.8687,-23.4797 56.587,-16.6939"/>
</g>
<!-- Node17&#45;&gt;Node10 -->
<g id="edge27" class="edge"><title>Node17&#45;&gt;Node10</title>
<path fill="none" stroke="midnightblue" d="M230.707,-56.4435C206.193,-47.4381 167.404,-33.1891 139.8,-23.049"/>
<polygon fill="midnightblue" stroke="midnightblue" points="140.777,-19.6793 130.184,-19.5164 138.363,-26.25 140.777,-19.6793"/>
</g>
<!-- Node17&#45;&gt;Node16 -->
<g id="edge24" class="edge"><title>Node17&#45;&gt;Node16</title>
<path fill="none" stroke="midnightblue" d="M285.849,-56.4435C320.398,-47.1616 375.682,-32.3093 413.583,-22.127"/>
<polygon fill="midnightblue" stroke="midnightblue" points="414.551,-25.4912 423.3,-19.5164 412.734,-18.7309 414.551,-25.4912"/>
</g>
<!-- Node18 -->
<g id="node18" class="node"><title>Node18</title>
<polygon fill="white" stroke="#bfbfbf" points="167.5,-0.5 167.5,-19.5 226.5,-19.5 226.5,-0.5 167.5,-0.5"/>
<text text-anchor="middle" x="197" y="-7.5" font-family="Helvetica,sans-Serif" font-size="10.00">inttypes.h</text>
</g>
<!-- Node17&#45;&gt;Node18 -->
<g id="edge26" class="edge"><title>Node17&#45;&gt;Node18</title>
<path fill="none" stroke="midnightblue" d="M244.842,-56.324C236.499,-48.4196 223.968,-36.5482 213.823,-26.9377"/>
<polygon fill="midnightblue" stroke="midnightblue" points="215.991,-24.1705 206.325,-19.8339 211.177,-29.2522 215.991,-24.1705"/>
</g>
</g>
</svg>
