<?xml version="1.0" encoding="UTF-8" standalone="no"?>
<!DOCTYPE svg PUBLIC "-//W3C//DTD SVG 1.1//EN"
 "http://www.w3.org/Graphics/SVG/1.1/DTD/svg11.dtd">
<!-- Generated by graphviz version 2.36.0 (20140111.2315)
 -->
<!-- Title: die Pages: 1 -->
<svg width="474pt" height="142pt"
 viewBox="0.00 0.00 474.00 142.00" xmlns="http://www.w3.org/2000/svg" xmlns:xlink="http://www.w3.org/1999/xlink">
<g id="graph0" class="graph" transform="scale(1 1) rotate(0) translate(4 138)">
<title>die</title>
<polygon fill="white" stroke="none" points="-4,4 -4,-138 470,-138 470,4 -4,4"/>
<!-- Node1 -->
<g id="node1" class="node"><title>Node1</title>
<polygon fill="#bfbfbf" stroke="black" points="0.5,-57.5 0.5,-76.5 29.5,-76.5 29.5,-57.5 0.5,-57.5"/>
<text text-anchor="middle" x="15" y="-64.5" font-family="Helvetica,sans-Serif" font-size="10.00">die</text>
</g>
<!-- Node2 -->
<g id="node2" class="node"><title>Node2</title>
<g id="a_node2"><a xlink:href="lcd8bit_8c.html#a88fdc90276b48773630acfc4525ff0db" target="_top" xlink:title="lcd_clear_and_home">
<polygon fill="white" stroke="black" points="198,-38.5 198,-57.5 304,-57.5 304,-38.5 198,-38.5"/>
<text text-anchor="middle" x="251" y="-45.5" font-family="Helvetica,sans-Serif" font-size="10.00">lcd_clear_and_home</text>
</a>
</g>
</g>
<!-- Node1&#45;&gt;Node2 -->
<g id="edge1" class="edge"><title>Node1&#45;&gt;Node2</title>
<path fill="none" stroke="midnightblue" d="M29.5923,-65.8964C59.7404,-63.4484 133.81,-57.4342 187.787,-53.0515"/>
<polygon fill="midnightblue" stroke="midnightblue" points="188.272,-56.5238 197.955,-52.2258 187.705,-49.5467 188.272,-56.5238"/>
</g>
<!-- Node5 -->
<g id="node5" class="node"><title>Node5</title>
<g id="a_node5"><a xlink:href="lcd8bit_8c.html#a8752d4e091188fcb07bbc9ae3c496e95" target="_top" xlink:title="lcd_line_one">
<polygon fill="white" stroke="black" points="78.5,-76.5 78.5,-95.5 149.5,-95.5 149.5,-76.5 78.5,-76.5"/>
<text text-anchor="middle" x="114" y="-83.5" font-family="Helvetica,sans-Serif" font-size="10.00">lcd_line_one</text>
</a>
</g>
</g>
<!-- Node1&#45;&gt;Node5 -->
<g id="edge4" class="edge"><title>Node1&#45;&gt;Node5</title>
<path fill="none" stroke="midnightblue" d="M29.8977,-69.7222C40.0147,-71.7039 54.3231,-74.5066 68.2215,-77.2289"/>
<polygon fill="midnightblue" stroke="midnightblue" points="67.7171,-80.6966 78.2034,-79.1842 69.0627,-73.8271 67.7171,-80.6966"/>
</g>
<!-- Node7 -->
<g id="node7" class="node"><title>Node7</title>
<g id="a_node7"><a xlink:href="lcd8bit_8c.html#aa0b44a03031cc3639604de620e426021" target="_top" xlink:title="lcd_line_two">
<polygon fill="white" stroke="black" points="78.5,-114.5 78.5,-133.5 149.5,-133.5 149.5,-114.5 78.5,-114.5"/>
<text text-anchor="middle" x="114" y="-121.5" font-family="Helvetica,sans-Serif" font-size="10.00">lcd_line_two</text>
</a>
</g>
</g>
<!-- Node1&#45;&gt;Node7 -->
<g id="edge8" class="edge"><title>Node1&#45;&gt;Node7</title>
<path fill="none" stroke="midnightblue" d="M26.9183,-76.663C36.6678,-84.9478 51.5935,-96.8083 66,-105 69.2516,-106.849 72.719,-108.608 76.2408,-110.255"/>
<polygon fill="midnightblue" stroke="midnightblue" points="75.0154,-113.539 85.5799,-114.342 77.8217,-107.126 75.0154,-113.539"/>
</g>
<!-- Node8 -->
<g id="node8" class="node"><title>Node8</title>
<g id="a_node8"><a xlink:href="lcd8bit_8c.html#a9aa8378a804ddb51f770bd01665df653" target="_top" xlink:title="lcd_write_string_0">
<polygon fill="white" stroke="black" points="66.5,-0.5 66.5,-19.5 161.5,-19.5 161.5,-0.5 66.5,-0.5"/>
<text text-anchor="middle" x="114" y="-7.5" font-family="Helvetica,sans-Serif" font-size="10.00">lcd_write_string_0</text>
</a>
</g>
</g>
<!-- Node1&#45;&gt;Node8 -->
<g id="edge10" class="edge"><title>Node1&#45;&gt;Node8</title>
<path fill="none" stroke="midnightblue" d="M29.7459,-57.3303C39.6458,-50.5147 53.4201,-41.3328 66,-34 71.714,-30.6694 77.9426,-27.3087 83.9413,-24.1999"/>
<polygon fill="midnightblue" stroke="midnightblue" points="85.7409,-27.2115 93.0717,-19.5623 82.5708,-20.9705 85.7409,-27.2115"/>
</g>
<!-- Node3 -->
<g id="node3" class="node"><title>Node3</title>
<g id="a_node3"><a xlink:href="lcd8bit_8c.html#a9d0f278e2fa5d8921d3a4fdd508a561e" target="_top" xlink:title="lcd_set_write_instruction">
<polygon fill="white" stroke="black" points="340.5,-76.5 340.5,-95.5 465.5,-95.5 465.5,-76.5 340.5,-76.5"/>
<text text-anchor="middle" x="403" y="-83.5" font-family="Helvetica,sans-Serif" font-size="10.00">lcd_set_write_instruction</text>
</a>
</g>
</g>
<!-- Node2&#45;&gt;Node3 -->
<g id="edge2" class="edge"><title>Node2&#45;&gt;Node3</title>
<path fill="none" stroke="midnightblue" d="M289.851,-57.589C309.467,-62.5583 333.619,-68.6767 354.479,-73.9613"/>
<polygon fill="midnightblue" stroke="midnightblue" points="353.868,-77.4169 364.421,-76.4799 355.587,-70.6313 353.868,-77.4169"/>
</g>
<!-- Node4 -->
<g id="node4" class="node"><title>Node4</title>
<g id="a_node4"><a xlink:href="lcd8bit_8c.html#aef7fba4025d73ad60e375357e557bca3" target="_top" xlink:title="lcd_write_byte">
<polygon fill="white" stroke="black" points="363,-38.5 363,-57.5 443,-57.5 443,-38.5 363,-38.5"/>
<text text-anchor="middle" x="403" y="-45.5" font-family="Helvetica,sans-Serif" font-size="10.00">lcd_write_byte</text>
</a>
</g>
</g>
<!-- Node2&#45;&gt;Node4 -->
<g id="edge3" class="edge"><title>Node2&#45;&gt;Node4</title>
<path fill="none" stroke="midnightblue" d="M304.042,-48C319.717,-48 336.873,-48 352.386,-48"/>
<polygon fill="midnightblue" stroke="midnightblue" points="352.825,-51.5001 362.825,-48 352.825,-44.5001 352.825,-51.5001"/>
</g>
<!-- Node6 -->
<g id="node6" class="node"><title>Node6</title>
<g id="a_node6"><a xlink:href="lcd8bit_8c.html#affc4cf9b640d7c72fcb1e8be36c0183c" target="_top" xlink:title="lcd_goto">
<polygon fill="white" stroke="black" points="224.5,-76.5 224.5,-95.5 277.5,-95.5 277.5,-76.5 224.5,-76.5"/>
<text text-anchor="middle" x="251" y="-83.5" font-family="Helvetica,sans-Serif" font-size="10.00">lcd_goto</text>
</a>
</g>
</g>
<!-- Node5&#45;&gt;Node6 -->
<g id="edge5" class="edge"><title>Node5&#45;&gt;Node6</title>
<path fill="none" stroke="midnightblue" d="M149.766,-86C169.5,-86 194.16,-86 214.081,-86"/>
<polygon fill="midnightblue" stroke="midnightblue" points="214.307,-89.5001 224.307,-86 214.307,-82.5001 214.307,-89.5001"/>
</g>
<!-- Node6&#45;&gt;Node3 -->
<g id="edge6" class="edge"><title>Node6&#45;&gt;Node3</title>
<path fill="none" stroke="midnightblue" d="M277.786,-86C292.413,-86 311.51,-86 330.328,-86"/>
<polygon fill="midnightblue" stroke="midnightblue" points="330.419,-89.5001 340.419,-86 330.419,-82.5001 330.419,-89.5001"/>
</g>
<!-- Node6&#45;&gt;Node4 -->
<g id="edge7" class="edge"><title>Node6&#45;&gt;Node4</title>
<path fill="none" stroke="midnightblue" d="M277.786,-79.4676C298.861,-74.1285 329.219,-66.4379 354.647,-59.9962"/>
<polygon fill="midnightblue" stroke="midnightblue" points="355.645,-63.354 364.479,-57.5053 353.926,-56.5683 355.645,-63.354"/>
</g>
<!-- Node7&#45;&gt;Node6 -->
<g id="edge9" class="edge"><title>Node7&#45;&gt;Node6</title>
<path fill="none" stroke="midnightblue" d="M149.066,-114.411C169.113,-108.768 194.422,-101.644 214.682,-95.9413"/>
<polygon fill="midnightblue" stroke="midnightblue" points="215.791,-99.2653 224.469,-93.1866 213.894,-92.5271 215.791,-99.2653"/>
</g>
<!-- Node9 -->
<g id="node9" class="node"><title>Node9</title>
<g id="a_node9"><a xlink:href="lcd8bit_8c.html#a082c749307f206b15a9cbeb775b03b5c" target="_top" xlink:title="lcd_write_data">
<polygon fill="white" stroke="black" points="211,-0.5 211,-19.5 291,-19.5 291,-0.5 211,-0.5"/>
<text text-anchor="middle" x="251" y="-7.5" font-family="Helvetica,sans-Serif" font-size="10.00">lcd_write_data</text>
</a>
</g>
</g>
<!-- Node8&#45;&gt;Node9 -->
<g id="edge11" class="edge"><title>Node8&#45;&gt;Node9</title>
<path fill="none" stroke="midnightblue" d="M161.838,-10C174.332,-10 187.871,-10 200.503,-10"/>
<polygon fill="midnightblue" stroke="midnightblue" points="200.858,-13.5001 210.858,-10 200.857,-6.5001 200.858,-13.5001"/>
</g>
<!-- Node9&#45;&gt;Node4 -->
<g id="edge13" class="edge"><title>Node9&#45;&gt;Node4</title>
<path fill="none" stroke="midnightblue" d="M289.851,-19.589C309.467,-24.5583 333.619,-30.6767 354.479,-35.9613"/>
<polygon fill="midnightblue" stroke="midnightblue" points="353.868,-39.4169 364.421,-38.4799 355.587,-32.6313 353.868,-39.4169"/>
</g>
<!-- Node10 -->
<g id="node10" class="node"><title>Node10</title>
<g id="a_node10"><a xlink:href="lcd8bit_8c.html#ad55e5c04e2a5354bfd4840be5e0eb5d1" target="_top" xlink:title="lcd_set_write_data">
<polygon fill="white" stroke="black" points="354,-0.5 354,-19.5 452,-19.5 452,-0.5 354,-0.5"/>
<text text-anchor="middle" x="403" y="-7.5" font-family="Helvetica,sans-Serif" font-size="10.00">lcd_set_write_data</text>
</a>
</g>
</g>
<!-- Node9&#45;&gt;Node10 -->
<g id="edge12" class="edge"><title>Node9&#45;&gt;Node10</title>
<path fill="none" stroke="midnightblue" d="M291.019,-10C307.056,-10 325.969,-10 343.594,-10"/>
<polygon fill="midnightblue" stroke="midnightblue" points="343.792,-13.5001 353.792,-10 343.792,-6.5001 343.792,-13.5001"/>
</g>
</g>
</svg>
