<?xml version="1.0" encoding="UTF-8" standalone="no"?>
<!DOCTYPE svg PUBLIC "-//W3C//DTD SVG 1.1//EN"
 "http://www.w3.org/Graphics/SVG/1.1/DTD/svg11.dtd">
<!-- Generated by graphviz version 2.36.0 (20140111.2315)
 -->
<!-- Title: send_cmd Pages: 1 -->
<svg width="364pt" height="120pt"
 viewBox="0.00 0.00 364.00 119.66" xmlns="http://www.w3.org/2000/svg" xmlns:xlink="http://www.w3.org/1999/xlink">
<g id="graph0" class="graph" transform="scale(1 1) rotate(0) translate(4 115.66)">
<title>send_cmd</title>
<polygon fill="white" stroke="none" points="-4,4 -4,-115.66 360,-115.66 360,4 -4,4"/>
<!-- Node1 -->
<g id="node1" class="node"><title>Node1</title>
<polygon fill="#bfbfbf" stroke="black" points="0,-57.5 0,-76.5 62,-76.5 62,-57.5 0,-57.5"/>
<text text-anchor="middle" x="31" y="-64.5" font-family="Helvetica,sans-Serif" font-size="10.00">send_cmd</text>
</g>
<!-- Node2 -->
<g id="node2" class="node"><title>Node2</title>
<g id="a_node2"><a xlink:href="sdmm_8c.html#ac0eadae94de728461ccade9e03fafd8c" target="_top" xlink:title="deselect">
<polygon fill="white" stroke="black" points="201.5,-76.5 201.5,-95.5 254.5,-95.5 254.5,-76.5 201.5,-76.5"/>
<text text-anchor="middle" x="228" y="-83.5" font-family="Helvetica,sans-Serif" font-size="10.00">deselect</text>
</a>
</g>
</g>
<!-- Node1&#45;&gt;Node2 -->
<g id="edge1" class="edge"><title>Node1&#45;&gt;Node2</title>
<path fill="none" stroke="midnightblue" d="M62.0414,-69.9271C96.7546,-73.3094 153.844,-78.872 190.929,-82.4854"/>
<polygon fill="midnightblue" stroke="midnightblue" points="190.993,-86.0081 201.285,-83.4945 191.672,-79.0411 190.993,-86.0081"/>
</g>
<!-- Node3 -->
<g id="node3" class="node"><title>Node3</title>
<g id="a_node3"><a xlink:href="sdmm_8c.html#ab628371b03508f9db7c6daf1203ed84d" target="_top" xlink:title="rcvr_mmc">
<polygon fill="white" stroke="black" points="296,-57.5 296,-76.5 356,-76.5 356,-57.5 296,-57.5"/>
<text text-anchor="middle" x="326" y="-64.5" font-family="Helvetica,sans-Serif" font-size="10.00">rcvr_mmc</text>
</a>
</g>
</g>
<!-- Node1&#45;&gt;Node3 -->
<g id="edge3" class="edge"><title>Node1&#45;&gt;Node3</title>
<path fill="none" stroke="midnightblue" d="M53.3625,-76.582C94.0913,-93.5327 185.438,-125.196 260,-105 276.244,-100.6 292.59,-91.0141 304.827,-82.5716"/>
<polygon fill="midnightblue" stroke="midnightblue" points="306.884,-85.4031 312.95,-76.7166 302.791,-79.7243 306.884,-85.4031"/>
</g>
<!-- Node4 -->
<g id="node4" class="node"><title>Node4</title>
<g id="a_node4"><a xlink:href="sdmm_8c.html#ab45cb1d47cda5822ce492ad3c11867ae" target="_top" xlink:title="select">
<polygon fill="white" stroke="black" points="107.5,-38.5 107.5,-57.5 150.5,-57.5 150.5,-38.5 107.5,-38.5"/>
<text text-anchor="middle" x="129" y="-45.5" font-family="Helvetica,sans-Serif" font-size="10.00">select</text>
</a>
</g>
</g>
<!-- Node1&#45;&gt;Node4 -->
<g id="edge4" class="edge"><title>Node1&#45;&gt;Node4</title>
<path fill="none" stroke="midnightblue" d="M62.1116,-61.0404C73.3944,-58.8074 86.2159,-56.2698 97.5308,-54.0304"/>
<polygon fill="midnightblue" stroke="midnightblue" points="98.281,-57.4499 107.411,-52.0749 96.9218,-50.5831 98.281,-57.4499"/>
</g>
<!-- Node7 -->
<g id="node7" class="node"><title>Node7</title>
<g id="a_node7"><a xlink:href="sdmm_8c.html#ace0af708caf7775204ca74fbd46818bb" target="_top" xlink:title="xmit_mmc">
<polygon fill="white" stroke="black" points="98,-0.5 98,-19.5 160,-19.5 160,-0.5 98,-0.5"/>
<text text-anchor="middle" x="129" y="-7.5" font-family="Helvetica,sans-Serif" font-size="10.00">xmit_mmc</text>
</a>
</g>
</g>
<!-- Node1&#45;&gt;Node7 -->
<g id="edge10" class="edge"><title>Node1&#45;&gt;Node7</title>
<path fill="none" stroke="midnightblue" d="M48.2851,-57.3307C63.2703,-48.4333 85.7199,-35.1038 102.98,-24.8554"/>
<polygon fill="midnightblue" stroke="midnightblue" points="105.144,-27.6414 111.955,-19.5265 101.57,-21.6224 105.144,-27.6414"/>
</g>
<!-- Node2&#45;&gt;Node3 -->
<g id="edge2" class="edge"><title>Node2&#45;&gt;Node3</title>
<path fill="none" stroke="midnightblue" d="M254.726,-80.9083C264.322,-79.0091 275.445,-76.8078 285.97,-74.7246"/>
<polygon fill="midnightblue" stroke="midnightblue" points="286.68,-78.1522 295.81,-72.7772 285.321,-71.2854 286.68,-78.1522"/>
</g>
<!-- Node4&#45;&gt;Node2 -->
<g id="edge5" class="edge"><title>Node4&#45;&gt;Node2</title>
<path fill="none" stroke="midnightblue" d="M150.571,-56.0588C162.952,-60.909 179.016,-67.2021 193.219,-72.7663"/>
<polygon fill="midnightblue" stroke="midnightblue" points="192.099,-76.0865 202.687,-76.4754 194.653,-69.5688 192.099,-76.0865"/>
</g>
<!-- Node4&#45;&gt;Node3 -->
<g id="edge6" class="edge"><title>Node4&#45;&gt;Node3</title>
<path fill="none" stroke="midnightblue" d="M150.868,-50.0333C182.955,-53.1597 244.952,-59.2005 285.65,-63.1659"/>
<polygon fill="midnightblue" stroke="midnightblue" points="285.468,-66.6647 295.76,-64.151 286.147,-59.6977 285.468,-66.6647"/>
</g>
<!-- Node5 -->
<g id="node5" class="node"><title>Node5</title>
<g id="a_node5"><a xlink:href="sdmm_8c.html#a624a19e248af05530dae5c0cc1dddc11" target="_top" xlink:title="wait_ready">
<polygon fill="white" stroke="black" points="196,-0.5 196,-19.5 260,-19.5 260,-0.5 196,-0.5"/>
<text text-anchor="middle" x="228" y="-7.5" font-family="Helvetica,sans-Serif" font-size="10.00">wait_ready</text>
</a>
</g>
</g>
<!-- Node4&#45;&gt;Node5 -->
<g id="edge7" class="edge"><title>Node4&#45;&gt;Node5</title>
<path fill="none" stroke="midnightblue" d="M150.571,-39.9412C162.952,-35.091 179.016,-28.7979 193.219,-23.2337"/>
<polygon fill="midnightblue" stroke="midnightblue" points="194.653,-26.4312 202.687,-19.5246 192.099,-19.9135 194.653,-26.4312"/>
</g>
<!-- Node5&#45;&gt;Node3 -->
<g id="edge8" class="edge"><title>Node5&#45;&gt;Node3</title>
<path fill="none" stroke="midnightblue" d="M245.285,-19.6693C260.27,-28.5667 282.72,-41.8962 299.98,-52.1446"/>
<polygon fill="midnightblue" stroke="midnightblue" points="298.57,-55.3776 308.955,-57.4735 302.144,-49.3586 298.57,-55.3776"/>
</g>
<!-- Node6 -->
<g id="node6" class="node"><title>Node6</title>
<g id="a_node6"><a xlink:href="sdmm_8c.html#a76a43e01b9676630e121e5a659acbb3f" target="_top" xlink:title="dly_us">
<polygon fill="white" stroke="black" points="303.5,-0.5 303.5,-19.5 348.5,-19.5 348.5,-0.5 303.5,-0.5"/>
<text text-anchor="middle" x="326" y="-7.5" font-family="Helvetica,sans-Serif" font-size="10.00">dly_us</text>
</a>
</g>
</g>
<!-- Node5&#45;&gt;Node6 -->
<g id="edge9" class="edge"><title>Node5&#45;&gt;Node6</title>
<path fill="none" stroke="midnightblue" d="M260.168,-10C270.762,-10 282.609,-10 293.248,-10"/>
<polygon fill="midnightblue" stroke="midnightblue" points="293.393,-13.5001 303.393,-10 293.393,-6.5001 293.393,-13.5001"/>
</g>
</g>
</svg>
