<?xml version="1.0" encoding="UTF-8" standalone="no"?>
<!DOCTYPE svg PUBLIC "-//W3C//DTD SVG 1.1//EN"
 "http://www.w3.org/Graphics/SVG/1.1/DTD/svg11.dtd">
<!-- Generated by graphviz version 2.36.0 (20140111.2315)
 -->
<!-- Title: disk_initialize Pages: 1 -->
<svg width="476pt" height="173pt"
 viewBox="0.00 0.00 476.00 172.65" xmlns="http://www.w3.org/2000/svg" xmlns:xlink="http://www.w3.org/1999/xlink">
<g id="graph0" class="graph" transform="scale(1 1) rotate(0) translate(4 168.654)">
<title>disk_initialize</title>
<polygon fill="white" stroke="none" points="-4,4 -4,-168.654 472,-168.654 472,4 -4,4"/>
<!-- Node1 -->
<g id="node1" class="node"><title>Node1</title>
<polygon fill="#bfbfbf" stroke="black" points="0.5,-138.165 0.5,-157.165 75.5,-157.165 75.5,-138.165 0.5,-138.165"/>
<text text-anchor="middle" x="38" y="-145.165" font-family="Helvetica,sans-Serif" font-size="10.00">disk_initialize</text>
</g>
<!-- Node2 -->
<g id="node2" class="node"><title>Node2</title>
<g id="a_node2"><a xlink:href="sdmm_8c.html#ac0eadae94de728461ccade9e03fafd8c" target="_top" xlink:title="deselect">
<polygon fill="white" stroke="black" points="313.5,-100.165 313.5,-119.165 366.5,-119.165 366.5,-100.165 313.5,-100.165"/>
<text text-anchor="middle" x="340" y="-107.165" font-family="Helvetica,sans-Serif" font-size="10.00">deselect</text>
</a>
</g>
</g>
<!-- Node1&#45;&gt;Node2 -->
<g id="edge1" class="edge"><title>Node1&#45;&gt;Node2</title>
<path fill="none" stroke="midnightblue" d="M75.6077,-146.882C121.74,-145.391 203.306,-141.083 272,-128.665 282.351,-126.794 293.405,-124 303.488,-121.127"/>
<polygon fill="midnightblue" stroke="midnightblue" points="304.589,-124.451 313.186,-118.258 302.604,-117.739 304.589,-124.451"/>
</g>
<!-- Node3 -->
<g id="node3" class="node"><title>Node3</title>
<g id="a_node3"><a xlink:href="sdmm_8c.html#ab628371b03508f9db7c6daf1203ed84d" target="_top" xlink:title="rcvr_mmc">
<polygon fill="white" stroke="black" points="408,-100.165 408,-119.165 468,-119.165 468,-100.165 408,-100.165"/>
<text text-anchor="middle" x="438" y="-107.165" font-family="Helvetica,sans-Serif" font-size="10.00">rcvr_mmc</text>
</a>
</g>
</g>
<!-- Node1&#45;&gt;Node3 -->
<g id="edge4" class="edge"><title>Node1&#45;&gt;Node3</title>
<path fill="none" stroke="midnightblue" d="M75.8936,-153.834C138.318,-162.874 268.118,-175.609 372,-145.665 387.409,-141.223 403.18,-132.606 415.328,-124.917"/>
<polygon fill="midnightblue" stroke="midnightblue" points="417.423,-127.728 423.846,-119.301 413.57,-121.883 417.423,-127.728"/>
</g>
<!-- Node4 -->
<g id="node4" class="node"><title>Node4</title>
<g id="a_node4"><a xlink:href="sdmm_8c.html#a76a43e01b9676630e121e5a659acbb3f" target="_top" xlink:title="dly_us">
<polygon fill="white" stroke="black" points="415.5,-5.16499 415.5,-24.165 460.5,-24.165 460.5,-5.16499 415.5,-5.16499"/>
<text text-anchor="middle" x="438" y="-12.165" font-family="Helvetica,sans-Serif" font-size="10.00">dly_us</text>
</a>
</g>
</g>
<!-- Node1&#45;&gt;Node4 -->
<g id="edge3" class="edge"><title>Node1&#45;&gt;Node4</title>
<path fill="none" stroke="midnightblue" d="M46.9748,-138.063C69.3586,-111.967 135.988,-40.0007 210,-14.665 276.448,8.08125 360.389,-0.841832 405.266,-8.36462"/>
<polygon fill="midnightblue" stroke="midnightblue" points="404.821,-11.8401 415.277,-10.1299 406.037,-4.94642 404.821,-11.8401"/>
</g>
<!-- Node5 -->
<g id="node5" class="node"><title>Node5</title>
<g id="a_node5"><a xlink:href="sdmm_8c.html#a99684b493c8bfdb0288a2e24e52f6871" target="_top" xlink:title="send_cmd">
<polygon fill="white" stroke="black" points="112,-100.165 112,-119.165 174,-119.165 174,-100.165 112,-100.165"/>
<text text-anchor="middle" x="143" y="-107.165" font-family="Helvetica,sans-Serif" font-size="10.00">send_cmd</text>
</a>
</g>
</g>
<!-- Node1&#45;&gt;Node5 -->
<g id="edge5" class="edge"><title>Node1&#45;&gt;Node5</title>
<path fill="none" stroke="midnightblue" d="M64.9912,-138.076C77.5557,-133.441 92.8301,-127.805 106.452,-122.78"/>
<polygon fill="midnightblue" stroke="midnightblue" points="107.847,-125.996 116.017,-119.251 105.424,-119.429 107.847,-125.996"/>
</g>
<!-- Node2&#45;&gt;Node3 -->
<g id="edge2" class="edge"><title>Node2&#45;&gt;Node3</title>
<path fill="none" stroke="midnightblue" d="M366.726,-109.665C376.224,-109.665 387.216,-109.665 397.645,-109.665"/>
<polygon fill="midnightblue" stroke="midnightblue" points="397.81,-113.165 407.81,-109.665 397.81,-106.165 397.81,-113.165"/>
</g>
<!-- Node5&#45;&gt;Node2 -->
<g id="edge6" class="edge"><title>Node5&#45;&gt;Node2</title>
<path fill="none" stroke="midnightblue" d="M170.603,-100.164C182.491,-96.4004 196.776,-92.5305 210,-90.665 237.285,-86.8157 244.707,-86.8699 272,-90.665 282.419,-92.1137 293.494,-94.7721 303.576,-97.6507"/>
<polygon fill="midnightblue" stroke="midnightblue" points="302.682,-101.037 313.267,-100.566 304.699,-94.3334 302.682,-101.037"/>
</g>
<!-- Node5&#45;&gt;Node3 -->
<g id="edge14" class="edge"><title>Node5&#45;&gt;Node3</title>
<path fill="none" stroke="midnightblue" d="M170.603,-119.166C182.491,-122.93 196.776,-126.799 210,-128.665 281.294,-138.723 300.727,-138.868 372,-128.665 381.572,-127.295 391.704,-124.843 401.046,-122.148"/>
<polygon fill="midnightblue" stroke="midnightblue" points="402.269,-125.434 410.811,-119.166 400.225,-118.739 402.269,-125.434"/>
</g>
<!-- Node6 -->
<g id="node6" class="node"><title>Node6</title>
<g id="a_node6"><a xlink:href="sdmm_8c.html#ab45cb1d47cda5822ce492ad3c11867ae" target="_top" xlink:title="select">
<polygon fill="white" stroke="black" points="219.5,-24.165 219.5,-43.165 262.5,-43.165 262.5,-24.165 219.5,-24.165"/>
<text text-anchor="middle" x="241" y="-31.165" font-family="Helvetica,sans-Serif" font-size="10.00">select</text>
</a>
</g>
</g>
<!-- Node5&#45;&gt;Node6 -->
<g id="edge7" class="edge"><title>Node5&#45;&gt;Node6</title>
<path fill="none" stroke="midnightblue" d="M156.158,-100.04C172.244,-87.3051 200.806,-64.6933 220.07,-49.4431"/>
<polygon fill="midnightblue" stroke="midnightblue" points="222.272,-52.1635 227.94,-43.2123 217.927,-46.6752 222.272,-52.1635"/>
</g>
<!-- Node8 -->
<g id="node8" class="node"><title>Node8</title>
<g id="a_node8"><a xlink:href="sdmm_8c.html#ace0af708caf7775204ca74fbd46818bb" target="_top" xlink:title="xmit_mmc">
<polygon fill="white" stroke="black" points="210,-100.165 210,-119.165 272,-119.165 272,-100.165 210,-100.165"/>
<text text-anchor="middle" x="241" y="-107.165" font-family="Helvetica,sans-Serif" font-size="10.00">xmit_mmc</text>
</a>
</g>
</g>
<!-- Node5&#45;&gt;Node8 -->
<g id="edge13" class="edge"><title>Node5&#45;&gt;Node8</title>
<path fill="none" stroke="midnightblue" d="M174.112,-109.665C182.243,-109.665 191.173,-109.665 199.763,-109.665"/>
<polygon fill="midnightblue" stroke="midnightblue" points="199.995,-113.165 209.995,-109.665 199.995,-106.165 199.995,-113.165"/>
</g>
<!-- Node6&#45;&gt;Node2 -->
<g id="edge12" class="edge"><title>Node6&#45;&gt;Node2</title>
<path fill="none" stroke="midnightblue" d="M254.14,-43.28C267.362,-53.7402 289.146,-70.9394 308,-85.665 311.44,-88.3515 315.101,-91.198 318.658,-93.9558"/>
<polygon fill="midnightblue" stroke="midnightblue" points="316.562,-96.7591 326.612,-100.113 320.846,-91.2237 316.562,-96.7591"/>
</g>
<!-- Node6&#45;&gt;Node3 -->
<g id="edge8" class="edge"><title>Node6&#45;&gt;Node3</title>
<path fill="none" stroke="midnightblue" d="M262.868,-41.7983C296.362,-54.8521 362.447,-80.6084 402.877,-96.3657"/>
<polygon fill="midnightblue" stroke="midnightblue" points="401.733,-99.6764 412.322,-100.047 404.275,-93.1542 401.733,-99.6764"/>
</g>
<!-- Node7 -->
<g id="node7" class="node"><title>Node7</title>
<g id="a_node7"><a xlink:href="sdmm_8c.html#a624a19e248af05530dae5c0cc1dddc11" target="_top" xlink:title="wait_ready">
<polygon fill="white" stroke="black" points="308,-24.165 308,-43.165 372,-43.165 372,-24.165 308,-24.165"/>
<text text-anchor="middle" x="340" y="-31.165" font-family="Helvetica,sans-Serif" font-size="10.00">wait_ready</text>
</a>
</g>
</g>
<!-- Node6&#45;&gt;Node7 -->
<g id="edge9" class="edge"><title>Node6&#45;&gt;Node7</title>
<path fill="none" stroke="midnightblue" d="M262.571,-33.665C272.722,-33.665 285.349,-33.665 297.397,-33.665"/>
<polygon fill="midnightblue" stroke="midnightblue" points="297.758,-37.1651 307.758,-33.665 297.758,-30.1651 297.758,-37.1651"/>
</g>
<!-- Node7&#45;&gt;Node3 -->
<g id="edge10" class="edge"><title>Node7&#45;&gt;Node3</title>
<path fill="none" stroke="midnightblue" d="M353.405,-43.1965C359.088,-47.5821 365.903,-52.8663 372,-57.665 387.132,-69.5743 404.122,-83.1741 416.936,-93.478"/>
<polygon fill="midnightblue" stroke="midnightblue" points="415.081,-96.4784 425.065,-100.024 419.471,-91.0261 415.081,-96.4784"/>
</g>
<!-- Node7&#45;&gt;Node4 -->
<g id="edge11" class="edge"><title>Node7&#45;&gt;Node4</title>
<path fill="none" stroke="midnightblue" d="M372.168,-27.4962C382.873,-25.3777 394.856,-23.0061 405.58,-20.8836"/>
<polygon fill="midnightblue" stroke="midnightblue" points="406.263,-24.3163 415.393,-18.9414 404.904,-17.4495 406.263,-24.3163"/>
</g>
</g>
</svg>
