<?xml version="1.0" encoding="UTF-8" standalone="no"?>
<!DOCTYPE svg PUBLIC "-//W3C//DTD SVG 1.1//EN"
 "http://www.w3.org/Graphics/SVG/1.1/DTD/svg11.dtd">
<!-- Generated by graphviz version 2.36.0 (20140111.2315)
 -->
<!-- Title: select Pages: 1 -->
<svg width="248pt" height="104pt"
 viewBox="0.00 0.00 248.00 104.00" xmlns="http://www.w3.org/2000/svg" xmlns:xlink="http://www.w3.org/1999/xlink">
<g id="graph0" class="graph" transform="scale(1 1) rotate(0) translate(4 100)">
<title>select</title>
<polygon fill="white" stroke="none" points="-4,4 -4,-100 244,-100 244,4 -4,4"/>
<!-- Node1 -->
<g id="node1" class="node"><title>Node1</title>
<polygon fill="#bfbfbf" stroke="black" points="0.5,-38.5 0.5,-57.5 43.5,-57.5 43.5,-38.5 0.5,-38.5"/>
<text text-anchor="middle" x="22" y="-45.5" font-family="Helvetica,sans-Serif" font-size="10.00">select</text>
</g>
<!-- Node2 -->
<g id="node2" class="node"><title>Node2</title>
<g id="a_node2"><a xlink:href="sdmm_8c.html#ac0eadae94de728461ccade9e03fafd8c" target="_top" xlink:title="deselect">
<polygon fill="white" stroke="black" points="85.5,-76.5 85.5,-95.5 138.5,-95.5 138.5,-76.5 85.5,-76.5"/>
<text text-anchor="middle" x="112" y="-83.5" font-family="Helvetica,sans-Serif" font-size="10.00">deselect</text>
</a>
</g>
</g>
<!-- Node1&#45;&gt;Node2 -->
<g id="edge1" class="edge"><title>Node1&#45;&gt;Node2</title>
<path fill="none" stroke="midnightblue" d="M43.8548,-57.0055C54.417,-61.5664 67.4668,-67.2016 79.2447,-72.2875"/>
<polygon fill="midnightblue" stroke="midnightblue" points="78.1884,-75.6437 88.7566,-76.3949 80.9635,-69.2172 78.1884,-75.6437"/>
</g>
<!-- Node3 -->
<g id="node3" class="node"><title>Node3</title>
<g id="a_node3"><a xlink:href="sdmm_8c.html#ab628371b03508f9db7c6daf1203ed84d" target="_top" xlink:title="rcvr_mmc">
<polygon fill="white" stroke="black" points="180,-38.5 180,-57.5 240,-57.5 240,-38.5 180,-38.5"/>
<text text-anchor="middle" x="210" y="-45.5" font-family="Helvetica,sans-Serif" font-size="10.00">rcvr_mmc</text>
</a>
</g>
</g>
<!-- Node1&#45;&gt;Node3 -->
<g id="edge3" class="edge"><title>Node1&#45;&gt;Node3</title>
<path fill="none" stroke="midnightblue" d="M43.6159,-48C73.8756,-48 130.892,-48 169.412,-48"/>
<polygon fill="midnightblue" stroke="midnightblue" points="169.749,-51.5001 179.749,-48 169.749,-44.5001 169.749,-51.5001"/>
</g>
<!-- Node4 -->
<g id="node4" class="node"><title>Node4</title>
<g id="a_node4"><a xlink:href="sdmm_8c.html#a624a19e248af05530dae5c0cc1dddc11" target="_top" xlink:title="wait_ready">
<polygon fill="white" stroke="black" points="80,-0.5 80,-19.5 144,-19.5 144,-0.5 80,-0.5"/>
<text text-anchor="middle" x="112" y="-7.5" font-family="Helvetica,sans-Serif" font-size="10.00">wait_ready</text>
</a>
</g>
</g>
<!-- Node1&#45;&gt;Node4 -->
<g id="edge4" class="edge"><title>Node1&#45;&gt;Node4</title>
<path fill="none" stroke="midnightblue" d="M43.8548,-38.9945C54.417,-34.4336 67.4668,-28.7984 79.2447,-23.7125"/>
<polygon fill="midnightblue" stroke="midnightblue" points="80.9635,-26.7828 88.7566,-19.6051 78.1884,-20.3563 80.9635,-26.7828"/>
</g>
<!-- Node2&#45;&gt;Node3 -->
<g id="edge2" class="edge"><title>Node2&#45;&gt;Node3</title>
<path fill="none" stroke="midnightblue" d="M137.225,-76.411C148.708,-71.8656 162.62,-66.3588 175.127,-61.4081"/>
<polygon fill="midnightblue" stroke="midnightblue" points="176.773,-64.5208 184.783,-57.5859 174.197,-58.0122 176.773,-64.5208"/>
</g>
<!-- Node4&#45;&gt;Node3 -->
<g id="edge5" class="edge"><title>Node4&#45;&gt;Node3</title>
<path fill="none" stroke="midnightblue" d="M137.225,-19.589C148.708,-24.1344 162.62,-29.6412 175.127,-34.5919"/>
<polygon fill="midnightblue" stroke="midnightblue" points="174.197,-37.9878 184.783,-38.4141 176.773,-31.4792 174.197,-37.9878"/>
</g>
<!-- Node5 -->
<g id="node5" class="node"><title>Node5</title>
<g id="a_node5"><a xlink:href="sdmm_8c.html#a76a43e01b9676630e121e5a659acbb3f" target="_top" xlink:title="dly_us">
<polygon fill="white" stroke="black" points="187.5,-0.5 187.5,-19.5 232.5,-19.5 232.5,-0.5 187.5,-0.5"/>
<text text-anchor="middle" x="210" y="-7.5" font-family="Helvetica,sans-Serif" font-size="10.00">dly_us</text>
</a>
</g>
</g>
<!-- Node4&#45;&gt;Node5 -->
<g id="edge6" class="edge"><title>Node4&#45;&gt;Node5</title>
<path fill="none" stroke="midnightblue" d="M144.168,-10C154.762,-10 166.609,-10 177.248,-10"/>
<polygon fill="midnightblue" stroke="midnightblue" points="177.393,-13.5001 187.393,-10 177.393,-6.5001 177.393,-13.5001"/>
</g>
</g>
</svg>
