<?xml version="1.0" encoding="UTF-8" standalone="no"?>
<!DOCTYPE svg PUBLIC "-//W3C//DTD SVG 1.1//EN"
 "http://www.w3.org/Graphics/SVG/1.1/DTD/svg11.dtd">
<!-- Generated by graphviz version 2.36.0 (20140111.2315)
 -->
<!-- Title: disk_write Pages: 1 -->
<svg width="484pt" height="218pt"
 viewBox="0.00 0.00 484.00 218.00" xmlns="http://www.w3.org/2000/svg" xmlns:xlink="http://www.w3.org/1999/xlink">
<g id="graph0" class="graph" transform="scale(1 1) rotate(0) translate(4 214)">
<title>disk_write</title>
<polygon fill="white" stroke="none" points="-4,4 -4,-214 480,-214 480,4 -4,4"/>
<!-- Node1 -->
<g id="node1" class="node"><title>Node1</title>
<polygon fill="#bfbfbf" stroke="black" points="0.5,-95.5 0.5,-114.5 61.5,-114.5 61.5,-95.5 0.5,-95.5"/>
<text text-anchor="middle" x="31" y="-102.5" font-family="Helvetica,sans-Serif" font-size="10.00">disk_write</text>
</g>
<!-- Node2 -->
<g id="node2" class="node"><title>Node2</title>
<g id="a_node2"><a xlink:href="sdmm_8c.html#ac0eadae94de728461ccade9e03fafd8c" target="_top" xlink:title="deselect">
<polygon fill="white" stroke="black" points="321.5,-190.5 321.5,-209.5 374.5,-209.5 374.5,-190.5 321.5,-190.5"/>
<text text-anchor="middle" x="348" y="-197.5" font-family="Helvetica,sans-Serif" font-size="10.00">deselect</text>
</a>
</g>
</g>
<!-- Node1&#45;&gt;Node2 -->
<g id="edge1" class="edge"><title>Node1&#45;&gt;Node2</title>
<path fill="none" stroke="midnightblue" d="M44.6227,-114.526C73.4361,-135.578 147.055,-185.502 218,-202 248.871,-209.179 285.028,-207.81 311.195,-205.15"/>
<polygon fill="midnightblue" stroke="midnightblue" points="311.858,-208.598 321.402,-203.996 311.072,-201.642 311.858,-208.598"/>
</g>
<!-- Node4 -->
<g id="node4" class="node"><title>Node4</title>
<g id="a_node4"><a xlink:href="sdmm_8c.html#a21ad8e9a107ea2000705a3edfebaaa2d" target="_top" xlink:title="disk_status">
<polygon fill="white" stroke="black" points="106.5,-38.5 106.5,-57.5 173.5,-57.5 173.5,-38.5 106.5,-38.5"/>
<text text-anchor="middle" x="140" y="-45.5" font-family="Helvetica,sans-Serif" font-size="10.00">disk_status</text>
</a>
</g>
</g>
<!-- Node1&#45;&gt;Node4 -->
<g id="edge3" class="edge"><title>Node1&#45;&gt;Node4</title>
<path fill="none" stroke="midnightblue" d="M47.7849,-95.385C61.0206,-87.451 80.5092,-76.0654 98,-67 101.33,-65.2739 104.847,-63.5298 108.364,-61.8347"/>
<polygon fill="midnightblue" stroke="midnightblue" points="109.992,-64.9363 117.547,-57.5078 107.009,-58.6041 109.992,-64.9363"/>
</g>
<!-- Node5 -->
<g id="node5" class="node"><title>Node5</title>
<g id="a_node5"><a xlink:href="sdmm_8c.html#a99684b493c8bfdb0288a2e24e52f6871" target="_top" xlink:title="send_cmd">
<polygon fill="white" stroke="black" points="109,-114.5 109,-133.5 171,-133.5 171,-114.5 109,-114.5"/>
<text text-anchor="middle" x="140" y="-121.5" font-family="Helvetica,sans-Serif" font-size="10.00">send_cmd</text>
</a>
</g>
</g>
<!-- Node1&#45;&gt;Node5 -->
<g id="edge4" class="edge"><title>Node1&#45;&gt;Node5</title>
<path fill="none" stroke="midnightblue" d="M61.5215,-110.242C73.0232,-112.284 86.3893,-114.658 98.7486,-116.853"/>
<polygon fill="midnightblue" stroke="midnightblue" points="98.3728,-120.34 108.831,-118.643 99.5967,-113.448 98.3728,-120.34"/>
</g>
<!-- Node10 -->
<g id="node10" class="node"><title>Node10</title>
<g id="a_node10"><a xlink:href="sdmm_8c.html#aefbd30f6bdff37184f58faf98ad1c6e0" target="_top" xlink:title="xmit_datablock">
<polygon fill="white" stroke="black" points="98.5,-76.5 98.5,-95.5 181.5,-95.5 181.5,-76.5 98.5,-76.5"/>
<text text-anchor="middle" x="140" y="-83.5" font-family="Helvetica,sans-Serif" font-size="10.00">xmit_datablock</text>
</a>
</g>
</g>
<!-- Node1&#45;&gt;Node10 -->
<g id="edge14" class="edge"><title>Node1&#45;&gt;Node10</title>
<path fill="none" stroke="midnightblue" d="M61.5215,-99.7579C69.88,-98.2736 79.2232,-96.6146 88.4491,-94.9763"/>
<polygon fill="midnightblue" stroke="midnightblue" points="89.1279,-98.4106 98.3619,-93.2161 87.904,-91.5184 89.1279,-98.4106"/>
</g>
<!-- Node3 -->
<g id="node3" class="node"><title>Node3</title>
<g id="a_node3"><a xlink:href="sdmm_8c.html#ab628371b03508f9db7c6daf1203ed84d" target="_top" xlink:title="rcvr_mmc">
<polygon fill="white" stroke="black" points="416,-114.5 416,-133.5 476,-133.5 476,-114.5 416,-114.5"/>
<text text-anchor="middle" x="446" y="-121.5" font-family="Helvetica,sans-Serif" font-size="10.00">rcvr_mmc</text>
</a>
</g>
</g>
<!-- Node2&#45;&gt;Node3 -->
<g id="edge2" class="edge"><title>Node2&#45;&gt;Node3</title>
<path fill="none" stroke="midnightblue" d="M361.405,-190.468C367.088,-186.083 373.903,-180.799 380,-176 395.132,-164.091 412.122,-150.491 424.936,-140.187"/>
<polygon fill="midnightblue" stroke="midnightblue" points="427.471,-142.639 433.065,-133.641 423.081,-137.187 427.471,-142.639"/>
</g>
<!-- Node5&#45;&gt;Node2 -->
<g id="edge5" class="edge"><title>Node5&#45;&gt;Node2</title>
<path fill="none" stroke="midnightblue" d="M150.468,-133.502C164.099,-146.555 190.637,-169.697 218,-181 247.923,-193.361 284.673,-197.84 311.283,-199.387"/>
<polygon fill="midnightblue" stroke="midnightblue" points="311.151,-202.885 321.304,-199.859 311.48,-195.892 311.151,-202.885"/>
</g>
<!-- Node5&#45;&gt;Node3 -->
<g id="edge13" class="edge"><title>Node5&#45;&gt;Node3</title>
<path fill="none" stroke="midnightblue" d="M171.26,-124C226.628,-124 344.191,-124 405.672,-124"/>
<polygon fill="midnightblue" stroke="midnightblue" points="405.756,-127.5 415.756,-124 405.756,-120.5 405.756,-127.5"/>
</g>
<!-- Node6 -->
<g id="node6" class="node"><title>Node6</title>
<g id="a_node6"><a xlink:href="sdmm_8c.html#ab45cb1d47cda5822ce492ad3c11867ae" target="_top" xlink:title="select">
<polygon fill="white" stroke="black" points="227.5,-152.5 227.5,-171.5 270.5,-171.5 270.5,-152.5 227.5,-152.5"/>
<text text-anchor="middle" x="249" y="-159.5" font-family="Helvetica,sans-Serif" font-size="10.00">select</text>
</a>
</g>
</g>
<!-- Node5&#45;&gt;Node6 -->
<g id="edge6" class="edge"><title>Node5&#45;&gt;Node6</title>
<path fill="none" stroke="midnightblue" d="M168.001,-133.589C183.135,-138.964 202.054,-145.683 217.693,-151.237"/>
<polygon fill="midnightblue" stroke="midnightblue" points="216.83,-154.644 227.425,-154.693 219.173,-148.048 216.83,-154.644"/>
</g>
<!-- Node9 -->
<g id="node9" class="node"><title>Node9</title>
<g id="a_node9"><a xlink:href="sdmm_8c.html#ace0af708caf7775204ca74fbd46818bb" target="_top" xlink:title="xmit_mmc">
<polygon fill="white" stroke="black" points="218,-76.5 218,-95.5 280,-95.5 280,-76.5 218,-76.5"/>
<text text-anchor="middle" x="249" y="-83.5" font-family="Helvetica,sans-Serif" font-size="10.00">xmit_mmc</text>
</a>
</g>
</g>
<!-- Node5&#45;&gt;Node9 -->
<g id="edge12" class="edge"><title>Node5&#45;&gt;Node9</title>
<path fill="none" stroke="midnightblue" d="M168.001,-114.411C181.18,-109.731 197.229,-104.031 211.484,-98.9685"/>
<polygon fill="midnightblue" stroke="midnightblue" points="212.756,-102.231 221.008,-95.5859 210.413,-95.6344 212.756,-102.231"/>
</g>
<!-- Node6&#45;&gt;Node2 -->
<g id="edge11" class="edge"><title>Node6&#45;&gt;Node2</title>
<path fill="none" stroke="midnightblue" d="M270.571,-170.059C282.952,-174.909 299.016,-181.202 313.219,-186.766"/>
<polygon fill="midnightblue" stroke="midnightblue" points="312.099,-190.087 322.687,-190.475 314.653,-183.569 312.099,-190.087"/>
</g>
<!-- Node6&#45;&gt;Node3 -->
<g id="edge7" class="edge"><title>Node6&#45;&gt;Node3</title>
<path fill="none" stroke="midnightblue" d="M270.75,-158.364C296.44,-153.818 341.516,-145.695 380,-138 388.461,-136.308 397.523,-134.411 406.114,-132.572"/>
<polygon fill="midnightblue" stroke="midnightblue" points="406.88,-135.987 415.917,-130.456 405.404,-129.145 406.88,-135.987"/>
</g>
<!-- Node7 -->
<g id="node7" class="node"><title>Node7</title>
<g id="a_node7"><a xlink:href="sdmm_8c.html#a624a19e248af05530dae5c0cc1dddc11" target="_top" xlink:title="wait_ready">
<polygon fill="white" stroke="black" points="316,-0.5 316,-19.5 380,-19.5 380,-0.5 316,-0.5"/>
<text text-anchor="middle" x="348" y="-7.5" font-family="Helvetica,sans-Serif" font-size="10.00">wait_ready</text>
</a>
</g>
</g>
<!-- Node6&#45;&gt;Node7 -->
<g id="edge8" class="edge"><title>Node6&#45;&gt;Node7</title>
<path fill="none" stroke="midnightblue" d="M256.068,-152.492C271.923,-127.647 314.791,-60.4719 335.498,-28.0243"/>
<polygon fill="midnightblue" stroke="midnightblue" points="338.505,-29.8173 340.935,-19.5047 332.605,-26.0516 338.505,-29.8173"/>
</g>
<!-- Node7&#45;&gt;Node3 -->
<g id="edge9" class="edge"><title>Node7&#45;&gt;Node3</title>
<path fill="none" stroke="midnightblue" d="M363.291,-19.722C368.807,-23.8081 374.984,-28.8141 380,-34 401.78,-56.518 422.106,-86.7227 434.044,-105.776"/>
<polygon fill="midnightblue" stroke="midnightblue" points="431.121,-107.705 439.343,-114.387 437.083,-104.036 431.121,-107.705"/>
</g>
<!-- Node8 -->
<g id="node8" class="node"><title>Node8</title>
<g id="a_node8"><a xlink:href="sdmm_8c.html#a76a43e01b9676630e121e5a659acbb3f" target="_top" xlink:title="dly_us">
<polygon fill="white" stroke="black" points="423.5,-0.5 423.5,-19.5 468.5,-19.5 468.5,-0.5 423.5,-0.5"/>
<text text-anchor="middle" x="446" y="-7.5" font-family="Helvetica,sans-Serif" font-size="10.00">dly_us</text>
</a>
</g>
</g>
<!-- Node7&#45;&gt;Node8 -->
<g id="edge10" class="edge"><title>Node7&#45;&gt;Node8</title>
<path fill="none" stroke="midnightblue" d="M380.168,-10C390.762,-10 402.609,-10 413.248,-10"/>
<polygon fill="midnightblue" stroke="midnightblue" points="413.393,-13.5001 423.393,-10 413.393,-6.5001 413.393,-13.5001"/>
</g>
<!-- Node10&#45;&gt;Node3 -->
<g id="edge17" class="edge"><title>Node10&#45;&gt;Node3</title>
<path fill="none" stroke="midnightblue" d="M172.15,-76.4944C186.04,-72.7301 202.691,-68.8608 218,-67 245.354,-63.675 252.825,-62.4383 280,-67 328.892,-75.2069 382.67,-96.1984 415.128,-110.286"/>
<polygon fill="midnightblue" stroke="midnightblue" points="413.926,-113.581 424.488,-114.414 416.751,-107.176 413.926,-113.581"/>
</g>
<!-- Node10&#45;&gt;Node7 -->
<g id="edge15" class="edge"><title>Node10&#45;&gt;Node7</title>
<path fill="none" stroke="midnightblue" d="M165.086,-76.3429C170.815,-73.642 176.778,-70.4811 182,-67 200.06,-54.9611 198.58,-43.6932 218,-34 245.351,-20.3487 279.472,-14.4145 305.751,-11.858"/>
<polygon fill="midnightblue" stroke="midnightblue" points="306.099,-15.3412 315.767,-11.0084 305.507,-8.36622 306.099,-15.3412"/>
</g>
<!-- Node10&#45;&gt;Node9 -->
<g id="edge16" class="edge"><title>Node10&#45;&gt;Node9</title>
<path fill="none" stroke="midnightblue" d="M181.757,-86C190.239,-86 199.174,-86 207.641,-86"/>
<polygon fill="midnightblue" stroke="midnightblue" points="207.675,-89.5001 217.675,-86 207.675,-82.5001 207.675,-89.5001"/>
</g>
</g>
</svg>
