<?xml version="1.0" encoding="UTF-8" standalone="no"?>
<!DOCTYPE svg PUBLIC "-//W3C//DTD SVG 1.1//EN"
 "http://www.w3.org/Graphics/SVG/1.1/DTD/svg11.dtd">
<!-- Generated by graphviz version 2.36.0 (20140111.2315)
 -->
<!-- Title: sd_card/sdmm.c Pages: 1 -->
<svg width="127pt" height="140pt"
 viewBox="0.00 0.00 127.00 140.00" xmlns="http://www.w3.org/2000/svg" xmlns:xlink="http://www.w3.org/1999/xlink">
<g id="graph0" class="graph" transform="scale(1 1) rotate(0) translate(4 136)">
<title>sd_card/sdmm.c</title>
<polygon fill="white" stroke="none" points="-4,4 -4,-136 123,-136 123,4 -4,4"/>
<!-- Node1 -->
<g id="node1" class="node"><title>Node1</title>
<polygon fill="#bfbfbf" stroke="black" points="16.5,-112.5 16.5,-131.5 105.5,-131.5 105.5,-112.5 16.5,-112.5"/>
<text text-anchor="middle" x="61" y="-119.5" font-family="Helvetica,sans-Serif" font-size="10.00">sd_card/sdmm.c</text>
</g>
<!-- Node2 -->
<g id="node2" class="node"><title>Node2</title>
<g id="a_node2"><a xlink:href="diskio_8h.html" target="_top" xlink:title="diskio.h">
<polygon fill="white" stroke="black" points="2,-56.5 2,-75.5 52,-75.5 52,-56.5 2,-56.5"/>
<text text-anchor="middle" x="27" y="-63.5" font-family="Helvetica,sans-Serif" font-size="10.00">diskio.h</text>
</a>
</g>
</g>
<!-- Node1&#45;&gt;Node2 -->
<g id="edge1" class="edge"><title>Node1&#45;&gt;Node2</title>
<path fill="none" stroke="midnightblue" d="M55.3856,-112.083C50.6326,-104.534 43.6819,-93.4948 37.8484,-84.2298"/>
<polygon fill="midnightblue" stroke="midnightblue" points="40.7999,-82.3486 32.5099,-75.7511 34.8763,-86.0783 40.7999,-82.3486"/>
</g>
<!-- Node4 -->
<g id="node4" class="node"><title>Node4</title>
<polygon fill="white" stroke="#bfbfbf" points="70.5,-56.5 70.5,-75.5 119.5,-75.5 119.5,-56.5 70.5,-56.5"/>
<text text-anchor="middle" x="95" y="-63.5" font-family="Helvetica,sans-Serif" font-size="10.00">avr/io.h</text>
</g>
<!-- Node1&#45;&gt;Node4 -->
<g id="edge3" class="edge"><title>Node1&#45;&gt;Node4</title>
<path fill="none" stroke="midnightblue" d="M66.6144,-112.083C71.3674,-104.534 78.3181,-93.4948 84.1516,-84.2298"/>
<polygon fill="midnightblue" stroke="midnightblue" points="87.1237,-86.0783 89.4901,-75.7511 81.2001,-82.3486 87.1237,-86.0783"/>
</g>
<!-- Node3 -->
<g id="node3" class="node"><title>Node3</title>
<g id="a_node3"><a xlink:href="integer_8h.html" target="_top" xlink:title="integer.h">
<polygon fill="white" stroke="black" points="0,-0.5 0,-19.5 54,-19.5 54,-0.5 0,-0.5"/>
<text text-anchor="middle" x="27" y="-7.5" font-family="Helvetica,sans-Serif" font-size="10.00">integer.h</text>
</a>
</g>
</g>
<!-- Node2&#45;&gt;Node3 -->
<g id="edge2" class="edge"><title>Node2&#45;&gt;Node3</title>
<path fill="none" stroke="midnightblue" d="M27,-56.083C27,-49.0059 27,-38.8611 27,-29.9865"/>
<polygon fill="midnightblue" stroke="midnightblue" points="30.5001,-29.751 27,-19.7511 23.5001,-29.7511 30.5001,-29.751"/>
</g>
</g>
</svg>
