<?xml version="1.0" encoding="UTF-8" standalone="no"?>
<!DOCTYPE svg PUBLIC "-//W3C//DTD SVG 1.1//EN"
 "http://www.w3.org/Graphics/SVG/1.1/DTD/svg11.dtd">
<!-- Generated by graphviz version 2.36.0 (20140111.2315)
 -->
<!-- Title: onode Pages: 1 -->
<svg width="90pt" height="98pt"
 viewBox="0.00 0.00 90.00 98.00" xmlns="http://www.w3.org/2000/svg" xmlns:xlink="http://www.w3.org/1999/xlink">
<g id="graph0" class="graph" transform="scale(1 1) rotate(0) translate(4 94)">
<title>onode</title>
<polygon fill="white" stroke="none" points="-4,4 -4,-94 86,-94 86,4 -4,4"/>
<!-- Node1 -->
<g id="node1" class="node"><title>Node1</title>
<polygon fill="#bfbfbf" stroke="black" points="-0.5,-1.5 -0.5,-20.5 42.5,-20.5 42.5,-1.5 -0.5,-1.5"/>
<text text-anchor="middle" x="21" y="-8.5" font-family="Helvetica,sans-Serif" font-size="10.00">onode</text>
</g>
<!-- Node1&#45;&gt;Node1 -->
<g id="edge2" class="edge"><title>Node1&#45;&gt;Node1</title>
<path fill="none" stroke="#9a32cd" stroke-dasharray="5,2" d="M52.9327,-16.6324C57.1798,-15.6769 60,-13.7994 60,-11 60,-6.28516 52.0004,-4.18558 42.657,-4.70126"/>
<polygon fill="#9a32cd" stroke="#9a32cd" points="52.4096,-13.1588 42.657,-17.2987 52.8626,-20.1442 52.4096,-13.1588"/>
<text text-anchor="middle" x="71" y="-14" font-family="Helvetica,sans-Serif" font-size="10.00"> prev</text>
<text text-anchor="middle" x="71" y="-3" font-family="Helvetica,sans-Serif" font-size="10.00">next</text>
</g>
<!-- Node2 -->
<g id="node2" class="node"><title>Node2</title>
<g id="a_node2"><a xlink:href="structorder.html" target="_top" xlink:title="order">
<polygon fill="white" stroke="black" points="2,-70.5 2,-89.5 40,-89.5 40,-70.5 2,-70.5"/>
<text text-anchor="middle" x="21" y="-77.5" font-family="Helvetica,sans-Serif" font-size="10.00">order</text>
</a>
</g>
</g>
<!-- Node2&#45;&gt;Node1 -->
<g id="edge1" class="edge"><title>Node2&#45;&gt;Node1</title>
<path fill="none" stroke="#9a32cd" stroke-dasharray="5,2" d="M21,-60.0183C21,-47.034 21,-30.4419 21,-20.5494"/>
<polygon fill="#9a32cd" stroke="#9a32cd" points="17.5001,-60.2409 21,-70.2409 24.5001,-60.241 17.5001,-60.2409"/>
<text text-anchor="middle" x="32" y="-43.5" font-family="Helvetica,sans-Serif" font-size="10.00"> data</text>
</g>
</g>
</svg>
