<?xml version="1.0" encoding="UTF-8" standalone="no"?>
<!DOCTYPE svg PUBLIC "-//W3C//DTD SVG 1.1//EN"
 "http://www.w3.org/Graphics/SVG/1.1/DTD/svg11.dtd">
<!-- Generated by graphviz version 2.36.0 (20140111.2315)
 -->
<!-- Title: wavegen/wavegen.c Pages: 1 -->
<svg width="471pt" height="140pt"
 viewBox="0.00 0.00 471.00 140.00" xmlns="http://www.w3.org/2000/svg" xmlns:xlink="http://www.w3.org/1999/xlink">
<g id="graph0" class="graph" transform="scale(1 1) rotate(0) translate(4 136)">
<title>wavegen/wavegen.c</title>
<polygon fill="white" stroke="none" points="-4,4 -4,-136 467,-136 467,4 -4,4"/>
<!-- Node1 -->
<g id="node1" class="node"><title>Node1</title>
<polygon fill="#bfbfbf" stroke="black" points="130,-112.5 130,-131.5 236,-131.5 236,-112.5 130,-112.5"/>
<text text-anchor="middle" x="183" y="-119.5" font-family="Helvetica,sans-Serif" font-size="10.00">wavegen/wavegen.c</text>
</g>
<!-- Node2 -->
<g id="node2" class="node"><title>Node2</title>
<g id="a_node2"><a xlink:href="config_8h.html" target="_top" xlink:title="../config.h">
<polygon fill="white" stroke="black" points="113,-56.5 113,-75.5 173,-75.5 173,-56.5 113,-56.5"/>
<text text-anchor="middle" x="143" y="-63.5" font-family="Helvetica,sans-Serif" font-size="10.00">../config.h</text>
</a>
</g>
</g>
<!-- Node1&#45;&gt;Node2 -->
<g id="edge1" class="edge"><title>Node1&#45;&gt;Node2</title>
<path fill="none" stroke="midnightblue" d="M176.395,-112.083C170.745,-104.455 162.455,-93.2645 155.549,-83.9408"/>
<polygon fill="midnightblue" stroke="midnightblue" points="158.247,-81.7034 149.482,-75.7511 152.622,-85.87 158.247,-81.7034"/>
</g>
<!-- Node3 -->
<g id="node3" class="node"><title>Node3</title>
<g id="a_node3"><a xlink:href="wavegen_8h.html" target="_top" xlink:title="wavegen.h">
<polygon fill="white" stroke="black" points="191,-56.5 191,-75.5 255,-75.5 255,-56.5 191,-56.5"/>
<text text-anchor="middle" x="223" y="-63.5" font-family="Helvetica,sans-Serif" font-size="10.00">wavegen.h</text>
</a>
</g>
</g>
<!-- Node1&#45;&gt;Node3 -->
<g id="edge2" class="edge"><title>Node1&#45;&gt;Node3</title>
<path fill="none" stroke="midnightblue" d="M189.605,-112.083C195.255,-104.455 203.545,-93.2645 210.451,-83.9408"/>
<polygon fill="midnightblue" stroke="midnightblue" points="213.378,-85.87 216.518,-75.7511 207.753,-81.7034 213.378,-85.87"/>
</g>
<!-- Node4 -->
<g id="node4" class="node"><title>Node4</title>
<polygon fill="white" stroke="#bfbfbf" points="-0.5,-0.5 -0.5,-19.5 48.5,-19.5 48.5,-0.5 -0.5,-0.5"/>
<text text-anchor="middle" x="24" y="-7.5" font-family="Helvetica,sans-Serif" font-size="10.00">stdint.h</text>
</g>
<!-- Node3&#45;&gt;Node4 -->
<g id="edge3" class="edge"><title>Node3&#45;&gt;Node4</title>
<path fill="none" stroke="midnightblue" d="M191.482,-56.4712C160.045,-47.9611 110.11,-34.4344 58.2157,-20.3279"/>
<polygon fill="midnightblue" stroke="midnightblue" points="59.0752,-16.9346 48.5072,-17.6882 57.2385,-23.6894 59.0752,-16.9346"/>
</g>
<!-- Node5 -->
<g id="node5" class="node"><title>Node5</title>
<polygon fill="white" stroke="#bfbfbf" points="66.5,-0.5 66.5,-19.5 143.5,-19.5 143.5,-0.5 66.5,-0.5"/>
<text text-anchor="middle" x="105" y="-7.5" font-family="Helvetica,sans-Serif" font-size="10.00">avr/interrupt.h</text>
</g>
<!-- Node3&#45;&gt;Node5 -->
<g id="edge4" class="edge"><title>Node3&#45;&gt;Node5</title>
<path fill="none" stroke="midnightblue" d="M204.303,-56.4435C185.056,-47.6356 154.848,-33.8116 132.8,-23.722"/>
<polygon fill="midnightblue" stroke="midnightblue" points="134.16,-20.4951 123.61,-19.5164 131.247,-26.8603 134.16,-20.4951"/>
</g>
<!-- Node6 -->
<g id="node6" class="node"><title>Node6</title>
<polygon fill="white" stroke="#bfbfbf" points="161.5,-0.5 161.5,-19.5 210.5,-19.5 210.5,-0.5 161.5,-0.5"/>
<text text-anchor="middle" x="186" y="-7.5" font-family="Helvetica,sans-Serif" font-size="10.00">avr/io.h</text>
</g>
<!-- Node3&#45;&gt;Node6 -->
<g id="edge5" class="edge"><title>Node3&#45;&gt;Node6</title>
<path fill="none" stroke="midnightblue" d="M216.89,-56.083C211.718,-48.5341 204.154,-37.4948 197.806,-28.2298"/>
<polygon fill="midnightblue" stroke="midnightblue" points="200.536,-26.0221 191.996,-19.7511 194.761,-29.9787 200.536,-26.0221"/>
</g>
<!-- Node7 -->
<g id="node7" class="node"><title>Node7</title>
<polygon fill="white" stroke="#bfbfbf" points="229,-0.5 229,-19.5 293,-19.5 293,-0.5 229,-0.5"/>
<text text-anchor="middle" x="261" y="-7.5" font-family="Helvetica,sans-Serif" font-size="10.00">util/delay.h</text>
</g>
<!-- Node3&#45;&gt;Node7 -->
<g id="edge6" class="edge"><title>Node3&#45;&gt;Node7</title>
<path fill="none" stroke="midnightblue" d="M229.275,-56.083C234.642,-48.4554 242.518,-37.2645 249.079,-27.9408"/>
<polygon fill="midnightblue" stroke="midnightblue" points="251.949,-29.9434 254.842,-19.7511 246.225,-25.9149 251.949,-29.9434"/>
</g>
<!-- Node8 -->
<g id="node8" class="node"><title>Node8</title>
<polygon fill="white" stroke="#bfbfbf" points="311,-0.5 311,-19.5 397,-19.5 397,-0.5 311,-0.5"/>
<text text-anchor="middle" x="354" y="-7.5" font-family="Helvetica,sans-Serif" font-size="10.00">avr/pgmspace.h</text>
</g>
<!-- Node3&#45;&gt;Node8 -->
<g id="edge7" class="edge"><title>Node3&#45;&gt;Node8</title>
<path fill="none" stroke="midnightblue" d="M243.757,-56.4435C265.316,-47.5566 299.263,-33.5632 323.794,-23.4514"/>
<polygon fill="midnightblue" stroke="midnightblue" points="325.428,-26.5634 333.34,-19.5164 322.761,-20.0917 325.428,-26.5634"/>
</g>
<!-- Node9 -->
<g id="node9" class="node"><title>Node9</title>
<polygon fill="white" stroke="#bfbfbf" points="415,-0.5 415,-19.5 463,-19.5 463,-0.5 415,-0.5"/>
<text text-anchor="middle" x="439" y="-7.5" font-family="Helvetica,sans-Serif" font-size="10.00">stdlib.h</text>
</g>
<!-- Node3&#45;&gt;Node9 -->
<g id="edge8" class="edge"><title>Node3&#45;&gt;Node9</title>
<path fill="none" stroke="midnightblue" d="M255.127,-57.3583C289.79,-49.0569 346.847,-35.2284 405.127,-20.1803"/>
<polygon fill="midnightblue" stroke="midnightblue" points="406.066,-23.5528 414.868,-17.6566 404.31,-16.7765 406.066,-23.5528"/>
</g>
</g>
</svg>
