<?xml version="1.0" encoding="UTF-8" standalone="no"?>
<!DOCTYPE svg PUBLIC "-//W3C//DTD SVG 1.1//EN"
 "http://www.w3.org/Graphics/SVG/1.1/DTD/svg11.dtd">
<!-- Generated by graphviz version 2.36.0 (20140111.2315)
 -->
<!-- Title: main Pages: 1 -->
<svg width="260pt" height="142pt"
 viewBox="0.00 0.00 260.00 142.00" xmlns="http://www.w3.org/2000/svg" xmlns:xlink="http://www.w3.org/1999/xlink">
<g id="graph0" class="graph" transform="scale(1 1) rotate(0) translate(4 138)">
<title>main</title>
<polygon fill="white" stroke="none" points="-4,4 -4,-138 256,-138 256,4 -4,4"/>
<!-- Node1 -->
<g id="node1" class="node"><title>Node1</title>
<polygon fill="#bfbfbf" stroke="black" points="0,-57.5 0,-76.5 38,-76.5 38,-57.5 0,-57.5"/>
<text text-anchor="middle" x="19" y="-64.5" font-family="Helvetica,sans-Serif" font-size="10.00">main</text>
</g>
<!-- Node2 -->
<g id="node2" class="node"><title>Node2</title>
<g id="a_node2"><a xlink:href="~main_8c.html#a78ab77b57cf2e00089f0a3a22508524c" target="_top" xlink:title="clock_init">
<polygon fill="white" stroke="black" points="86,-114.5 86,-133.5 144,-133.5 144,-114.5 86,-114.5"/>
<text text-anchor="middle" x="115" y="-121.5" font-family="Helvetica,sans-Serif" font-size="10.00">clock_init</text>
</a>
</g>
</g>
<!-- Node1&#45;&gt;Node2 -->
<g id="edge1" class="edge"><title>Node1&#45;&gt;Node2</title>
<path fill="none" stroke="midnightblue" d="M32.4692,-76.6915C43.1622,-84.7755 59.1492,-96.332 74,-105 76.8551,-106.666 79.8796,-108.309 82.9361,-109.889"/>
<polygon fill="midnightblue" stroke="midnightblue" points="81.5483,-113.107 92.0638,-114.401 84.6504,-106.832 81.5483,-113.107"/>
</g>
<!-- Node3 -->
<g id="node3" class="node"><title>Node3</title>
<g id="a_node3"><a xlink:href="~main_8c.html#acab6fb947010dfc3cde0f372ea86b008" target="_top" xlink:title="pwmInit">
<polygon fill="white" stroke="black" points="89.5,-76.5 89.5,-95.5 140.5,-95.5 140.5,-76.5 89.5,-76.5"/>
<text text-anchor="middle" x="115" y="-83.5" font-family="Helvetica,sans-Serif" font-size="10.00">pwmInit</text>
</a>
</g>
</g>
<!-- Node1&#45;&gt;Node3 -->
<g id="edge2" class="edge"><title>Node1&#45;&gt;Node3</title>
<path fill="none" stroke="midnightblue" d="M38.1241,-70.6634C49.8012,-73.0236 65.3607,-76.1687 79.3494,-78.9961"/>
<polygon fill="midnightblue" stroke="midnightblue" points="78.6844,-82.4325 89.1796,-80.9831 80.0713,-75.5712 78.6844,-82.4325"/>
</g>
<!-- Node5 -->
<g id="node5" class="node"><title>Node5</title>
<g id="a_node5"><a xlink:href="~main_8c.html#a0c36db54a91957a6b8c91a9932f74d16" target="_top" xlink:title="setFrequency">
<polygon fill="white" stroke="black" points="77,-38.5 77,-57.5 153,-57.5 153,-38.5 77,-38.5"/>
<text text-anchor="middle" x="115" y="-45.5" font-family="Helvetica,sans-Serif" font-size="10.00">setFrequency</text>
</a>
</g>
</g>
<!-- Node1&#45;&gt;Node5 -->
<g id="edge4" class="edge"><title>Node1&#45;&gt;Node5</title>
<path fill="none" stroke="midnightblue" d="M38.1241,-63.3366C46.4526,-61.6532 56.7561,-59.5706 67.0561,-57.4887"/>
<polygon fill="midnightblue" stroke="midnightblue" points="67.7573,-60.9178 76.8656,-55.5059 66.3704,-54.0566 67.7573,-60.9178"/>
</g>
<!-- Node6 -->
<g id="node6" class="node"><title>Node6</title>
<g id="a_node6"><a xlink:href="~main_8c.html#ade151b02bd65aa70020010d27245c70f" target="_top" xlink:title="setFrequency2">
<polygon fill="white" stroke="black" points="74.5,-0.5 74.5,-19.5 155.5,-19.5 155.5,-0.5 74.5,-0.5"/>
<text text-anchor="middle" x="115" y="-7.5" font-family="Helvetica,sans-Serif" font-size="10.00">setFrequency2</text>
</a>
</g>
</g>
<!-- Node1&#45;&gt;Node6 -->
<g id="edge5" class="edge"><title>Node1&#45;&gt;Node6</title>
<path fill="none" stroke="midnightblue" d="M32.4692,-57.3085C43.1622,-49.2245 59.1492,-37.668 74,-29 76.8551,-27.3335 79.8796,-25.6909 82.9361,-24.111"/>
<polygon fill="midnightblue" stroke="midnightblue" points="84.6504,-27.1679 92.0638,-19.5988 81.5483,-20.8928 84.6504,-27.1679"/>
</g>
<!-- Node4 -->
<g id="node4" class="node"><title>Node4</title>
<g id="a_node4"><a xlink:href="~main_8c.html#a03a0ea567c1b201e084da36acd2cb9d2" target="_top" xlink:title="sineWave">
<polygon fill="white" stroke="black" points="192,-76.5 192,-95.5 252,-95.5 252,-76.5 192,-76.5"/>
<text text-anchor="middle" x="222" y="-83.5" font-family="Helvetica,sans-Serif" font-size="10.00">sineWave</text>
</a>
</g>
</g>
<!-- Node3&#45;&gt;Node4 -->
<g id="edge3" class="edge"><title>Node3&#45;&gt;Node4</title>
<path fill="none" stroke="midnightblue" d="M140.618,-86C152.79,-86 167.779,-86 181.503,-86"/>
<polygon fill="midnightblue" stroke="midnightblue" points="181.684,-89.5001 191.684,-86 181.684,-82.5001 181.684,-89.5001"/>
</g>
</g>
</svg>
