<?xml version="1.0" encoding="UTF-8" standalone="no"?>
<!DOCTYPE svg PUBLIC "-//W3C//DTD SVG 1.1//EN"
 "http://www.w3.org/Graphics/SVG/1.1/DTD/svg11.dtd">
<!-- Generated by graphviz version 2.36.0 (20140111.2315)
 -->
<!-- Title: wavegen/~main.c Pages: 1 -->
<svg width="405pt" height="84pt"
 viewBox="0.00 0.00 405.00 84.00" xmlns="http://www.w3.org/2000/svg" xmlns:xlink="http://www.w3.org/1999/xlink">
<g id="graph0" class="graph" transform="scale(1 1) rotate(0) translate(4 80)">
<title>wavegen/~main.c</title>
<polygon fill="white" stroke="none" points="-4,4 -4,-80 401,-80 401,4 -4,4"/>
<!-- Node1 -->
<g id="node1" class="node"><title>Node1</title>
<polygon fill="#bfbfbf" stroke="black" points="139,-56.5 139,-75.5 233,-75.5 233,-56.5 139,-56.5"/>
<text text-anchor="middle" x="186" y="-63.5" font-family="Helvetica,sans-Serif" font-size="10.00">wavegen/~main.c</text>
</g>
<!-- Node2 -->
<g id="node2" class="node"><title>Node2</title>
<polygon fill="white" stroke="#bfbfbf" points="-0.5,-0.5 -0.5,-19.5 48.5,-19.5 48.5,-0.5 -0.5,-0.5"/>
<text text-anchor="middle" x="24" y="-7.5" font-family="Helvetica,sans-Serif" font-size="10.00">stdint.h</text>
</g>
<!-- Node1&#45;&gt;Node2 -->
<g id="edge1" class="edge"><title>Node1&#45;&gt;Node2</title>
<path fill="none" stroke="midnightblue" d="M160.331,-56.4435C132.837,-47.2789 89.0516,-32.6839 58.546,-22.5153"/>
<polygon fill="midnightblue" stroke="midnightblue" points="59.346,-19.0927 48.7524,-19.2508 57.1324,-25.7335 59.346,-19.0927"/>
</g>
<!-- Node3 -->
<g id="node3" class="node"><title>Node3</title>
<polygon fill="white" stroke="#bfbfbf" points="66.5,-0.5 66.5,-19.5 143.5,-19.5 143.5,-0.5 66.5,-0.5"/>
<text text-anchor="middle" x="105" y="-7.5" font-family="Helvetica,sans-Serif" font-size="10.00">avr/interrupt.h</text>
</g>
<!-- Node1&#45;&gt;Node3 -->
<g id="edge2" class="edge"><title>Node1&#45;&gt;Node3</title>
<path fill="none" stroke="midnightblue" d="M172.986,-56.324C160.468,-47.979 141.318,-35.2122 126.529,-25.3524"/>
<polygon fill="midnightblue" stroke="midnightblue" points="128.244,-22.2894 117.982,-19.6545 124.361,-28.1137 128.244,-22.2894"/>
</g>
<!-- Node4 -->
<g id="node4" class="node"><title>Node4</title>
<polygon fill="white" stroke="#bfbfbf" points="161.5,-0.5 161.5,-19.5 210.5,-19.5 210.5,-0.5 161.5,-0.5"/>
<text text-anchor="middle" x="186" y="-7.5" font-family="Helvetica,sans-Serif" font-size="10.00">avr/io.h</text>
</g>
<!-- Node1&#45;&gt;Node4 -->
<g id="edge3" class="edge"><title>Node1&#45;&gt;Node4</title>
<path fill="none" stroke="midnightblue" d="M186,-56.083C186,-49.0059 186,-38.8611 186,-29.9865"/>
<polygon fill="midnightblue" stroke="midnightblue" points="189.5,-29.751 186,-19.7511 182.5,-29.7511 189.5,-29.751"/>
</g>
<!-- Node5 -->
<g id="node5" class="node"><title>Node5</title>
<polygon fill="white" stroke="#bfbfbf" points="229,-0.5 229,-19.5 293,-19.5 293,-0.5 229,-0.5"/>
<text text-anchor="middle" x="261" y="-7.5" font-family="Helvetica,sans-Serif" font-size="10.00">util/delay.h</text>
</g>
<!-- Node1&#45;&gt;Node5 -->
<g id="edge4" class="edge"><title>Node1&#45;&gt;Node5</title>
<path fill="none" stroke="midnightblue" d="M198.05,-56.324C209.463,-48.1066 226.831,-35.6017 240.435,-25.8069"/>
<polygon fill="midnightblue" stroke="midnightblue" points="242.66,-28.5174 248.731,-19.8339 238.57,-22.8366 242.66,-28.5174"/>
</g>
<!-- Node6 -->
<g id="node6" class="node"><title>Node6</title>
<polygon fill="white" stroke="#bfbfbf" points="311,-0.5 311,-19.5 397,-19.5 397,-0.5 311,-0.5"/>
<text text-anchor="middle" x="354" y="-7.5" font-family="Helvetica,sans-Serif" font-size="10.00">avr/pgmspace.h</text>
</g>
<!-- Node1&#45;&gt;Node6 -->
<g id="edge5" class="edge"><title>Node1&#45;&gt;Node6</title>
<path fill="none" stroke="midnightblue" d="M212.62,-56.4435C241.006,-47.3196 286.137,-32.8133 317.753,-22.6509"/>
<polygon fill="midnightblue" stroke="midnightblue" points="319.055,-25.9087 327.504,-19.5164 316.913,-19.2445 319.055,-25.9087"/>
</g>
</g>
</svg>
